<svg width="1152" height="676" viewBox="0 0 1152 676" fill="none" xmlns="http://www.w3.org/2000/svg">
<g clip-path="url(#clip0_605_498)">
<mask id="mask0_605_498" style="mask-type:luminance" maskUnits="userSpaceOnUse" x="0" y="0" width="1152" height="676">
<path d="M1152 0H0V676H1152V0Z" fill="white"/>
</mask>
<g mask="url(#mask0_605_498)">
<path d="M576.486 0C157.914 0 0 337.914 0 337.914C0 337.914 156.96 675.828 575.514 675.828C994.086 675.828 1152 337.914 1152 337.914C1152 337.914 995.04 0 576.486 0ZM576 570.384C447.822 570.384 343.53 466.092 343.53 337.914C343.53 209.736 447.822 105.462 576 105.462C704.178 105.462 808.452 209.736 808.452 337.914C808.452 466.092 704.178 570.384 576 570.384Z" fill="white"/>
</g>
<path fill-rule="evenodd" clip-rule="evenodd" d="M454.139 226.48L492.453 264.794C486.132 265.647 480.035 268.479 475.199 273.314C475.193 273.32 475.19 273.326 475.186 273.326C463.491 285.096 463.491 304.275 475.186 316.044C475.192 316.05 475.195 316.05 475.199 316.056C486.966 327.823 506.225 327.836 517.945 316.056L517.951 316.051C517.951 316.051 517.957 316.044 517.958 316.044C529.708 304.281 529.703 285.069 517.945 273.311L517.825 273.191L517.784 273.149L462.625 217.989C456.635 211.998 447.664 220.005 454.139 226.48ZM496.512 276.442C501.129 276.43 505.752 278.183 509.339 281.681C509.345 281.687 509.348 281.687 509.352 281.693C509.362 281.705 509.371 281.711 509.38 281.717L509.459 281.798C516.657 288.995 516.657 300.374 509.459 307.571C509.453 307.577 509.45 307.583 509.446 307.583C502.325 314.75 490.874 314.757 483.685 307.571C476.559 300.385 476.558 288.984 483.685 281.798C483.691 281.792 483.691 281.792 483.693 281.792L483.699 281.786C487.264 278.228 491.884 276.451 496.512 276.442Z" fill="white"/>
<path fill-rule="evenodd" clip-rule="evenodd" d="M690.171 218.003C671.724 236.405 653.32 255.012 634.853 273.319C623.091 285.082 623.091 304.303 634.853 316.066C646.615 327.829 665.836 327.829 677.599 316.066C689.361 304.303 689.361 285.082 677.599 273.319C672.774 268.494 666.689 265.661 660.385 264.801L698.661 226.484C704.655 220.49 696.418 212.728 690.171 218.003ZM656.297 276.449C660.921 276.461 665.547 278.24 669.113 281.806C676.311 289.003 676.311 300.382 669.113 307.58C661.915 314.777 650.536 314.777 643.339 307.58C636.242 300.483 636.148 289.324 643.047 282.113C643.201 281.987 643.35 281.853 643.491 281.712C643.501 281.7 643.511 281.694 643.521 281.682C647.076 278.188 651.685 276.439 656.297 276.449Z" fill="white"/>
<path fill-rule="evenodd" clip-rule="evenodd" d="M471.582 429.663C470.786 429.651 469.997 429.798 469.259 430.095C468.521 430.391 467.85 430.831 467.284 431.39C466.718 431.948 466.268 432.613 465.961 433.347C465.654 434.08 465.496 434.868 465.496 435.663C465.496 436.458 465.654 437.245 465.961 437.979C466.268 438.712 466.718 439.377 467.284 439.936C467.85 440.494 468.521 440.934 469.259 441.231C469.997 441.527 470.786 441.674 471.582 441.663H681.282C682.077 441.674 682.866 441.527 683.604 441.231C684.342 440.934 685.013 440.494 685.579 439.936C686.146 439.377 686.595 438.712 686.902 437.979C687.209 437.245 687.367 436.458 687.367 435.663C687.367 434.868 687.209 434.08 686.902 433.347C686.595 432.613 686.146 431.948 685.579 431.39C685.013 430.831 684.342 430.391 683.604 430.095C682.866 429.798 682.077 429.651 681.282 429.663H471.582Z" fill="white"/>
</g>
<defs>
<clipPath id="clip0_605_498">
<rect width="1152" height="676" fill="white"/>
</clipPath>
</defs>
</svg>
