<svg width="603" height="603" viewBox="0 0 603 603" fill="none" xmlns="http://www.w3.org/2000/svg">
<path d="M61.4804 364.175C71.1065 373.801 71.107 389.408 61.4811 399.035C51.8549 408.661 36.2467 408.661 26.6205 399.035C16.9945 389.408 16.9951 373.801 26.6212 364.175C36.2473 354.549 51.8542 354.549 61.4804 364.175Z" fill="white" stroke="white" stroke-width="2.61146"/>
<path d="M128.32 318.125C137.946 327.751 137.947 343.359 128.321 352.985C118.695 362.611 103.087 362.611 93.4603 352.985C83.8344 343.359 83.8349 327.751 93.461 318.125C103.087 308.499 118.694 308.499 128.32 318.125Z" fill="white" stroke="white" stroke-width="2.61146"/>
<path d="M128.337 410.117C137.963 419.743 137.963 435.351 128.338 444.977C118.711 454.603 103.103 454.603 93.4769 444.977C83.851 435.351 83.8515 419.743 93.4776 410.117C103.104 400.491 118.711 400.491 128.337 410.117Z" fill="white" stroke="white" stroke-width="2.61146"/>
<path d="M190.007 272.17C199.633 281.797 199.633 297.404 190.007 307.03C180.381 316.657 164.773 316.657 155.147 307.03C145.521 297.404 145.521 281.797 155.148 272.17C164.774 262.545 180.381 262.545 190.007 272.17Z" fill="white" stroke="white" stroke-width="2.61146"/>
<path d="M190.023 364.163C199.649 373.789 199.65 389.397 190.024 399.023C180.398 408.649 164.79 408.649 155.163 399.023C145.537 389.397 145.538 373.789 155.164 364.163C164.79 354.537 180.397 354.537 190.023 364.163Z" fill="white" stroke="white" stroke-width="2.61146"/>
<path d="M190.042 456.157C199.668 465.783 199.669 481.39 190.043 491.016C180.416 500.643 164.808 500.643 155.182 491.016C145.556 481.39 145.557 465.783 155.183 456.157C164.809 446.531 180.416 446.531 190.042 456.157Z" fill="white" stroke="white" stroke-width="2.61146"/>
<path d="M256.842 226.141C266.468 235.767 266.468 251.374 256.842 261.001C247.216 270.627 231.608 270.627 221.982 261.001C212.356 251.374 212.356 235.767 221.983 226.141C231.609 216.515 247.216 216.515 256.842 226.141Z" fill="white" stroke="white" stroke-width="2.61146"/>
<path d="M256.859 318.124C266.485 327.75 266.486 343.358 256.86 352.984C247.234 362.61 231.626 362.61 221.999 352.984C212.373 343.358 212.374 327.75 222 318.124C231.626 308.498 247.233 308.498 256.859 318.124Z" fill="white" stroke="white" stroke-width="2.61146"/>
<path d="M256.879 410.117C266.505 419.743 266.505 435.351 256.88 444.977C247.253 454.603 231.645 454.603 222.019 444.977C212.393 435.351 212.393 419.743 222.02 410.117C231.646 400.491 247.253 400.491 256.879 410.117Z" fill="white" stroke="white" stroke-width="2.61146"/>
<path d="M256.879 502.11C266.505 511.736 266.505 527.344 256.88 536.97C247.253 546.596 231.645 546.596 222.019 536.97C212.393 527.344 212.393 511.736 222.02 502.11C231.646 492.484 247.253 492.484 256.879 502.11Z" fill="white" stroke="white" stroke-width="2.61146"/>
<path d="M318.524 180.188C328.15 189.814 328.151 205.421 318.525 215.047C308.899 224.674 293.291 224.674 283.664 215.047C274.038 205.421 274.039 189.814 283.665 180.188C293.291 170.562 308.898 170.562 318.524 180.188Z" fill="white" stroke="white" stroke-width="2.61146"/>
<path d="M318.543 272.182C328.169 281.808 328.17 297.416 318.544 307.042C308.917 316.668 293.309 316.668 283.683 307.042C274.057 297.416 274.058 281.808 283.684 272.182C293.31 262.556 308.917 262.556 318.543 272.182Z" fill="white" stroke="white" stroke-width="2.61146"/>
<path d="M318.526 364.151C328.152 373.777 328.153 389.385 318.527 399.011C308.901 408.637 293.293 408.637 283.666 399.011C274.04 389.385 274.041 373.777 283.667 364.151C293.293 354.525 308.9 354.525 318.526 364.151Z" fill="white" stroke="white" stroke-width="2.61146"/>
<path d="M318.56 456.158C328.187 465.784 328.187 481.391 318.561 491.017C308.935 500.644 293.327 500.644 283.701 491.017C274.075 481.391 274.075 465.784 283.701 456.158C293.327 446.532 308.934 446.532 318.56 456.158Z" fill="white" stroke="white" stroke-width="2.61146"/>
<path d="M318.581 548.15C328.207 557.776 328.208 573.384 318.582 583.01C308.955 592.636 293.347 592.636 283.721 583.01C274.095 573.384 274.096 557.776 283.722 548.15C293.348 538.524 308.955 538.524 318.581 548.15Z" fill="white" stroke="white" stroke-width="2.61146"/>
<path d="M385.382 226.141C395.008 235.767 395.008 251.374 385.382 261.001C375.756 270.627 360.148 270.627 350.522 261.001C340.896 251.374 340.896 235.767 350.523 226.141C360.149 216.515 375.756 216.515 385.382 226.141Z" fill="white" stroke="white" stroke-width="2.61146"/>
<path d="M385.398 318.124C395.024 327.75 395.025 343.358 385.399 352.984C375.773 362.61 360.165 362.61 350.538 352.984C340.912 343.358 340.913 327.75 350.539 318.124C360.165 308.498 375.772 308.498 385.398 318.124Z" fill="white" stroke="white" stroke-width="2.61146"/>
<path d="M385.42 410.117C395.046 419.743 395.046 435.351 385.421 444.977C375.794 454.603 360.186 454.603 350.56 444.977C340.934 435.351 340.935 419.743 350.561 410.117C360.187 400.491 375.794 400.491 385.42 410.117Z" fill="#CDA55F" stroke="#CDA55F" stroke-width="2.61146"/>
<path d="M385.42 502.11C395.046 511.736 395.046 527.344 385.421 536.97C375.794 546.596 360.186 546.596 350.56 536.97C340.934 527.344 340.935 511.736 350.561 502.11C360.187 492.484 375.794 492.484 385.42 502.11Z" fill="white" stroke="white" stroke-width="2.61146"/>
<path d="M447.083 272.17C456.709 281.797 456.71 297.404 447.084 307.03C437.457 316.657 421.849 316.657 412.223 307.03C402.597 297.404 402.598 281.797 412.224 272.17C421.85 262.545 437.457 262.545 447.083 272.17Z" fill="white" stroke="white" stroke-width="2.61146"/>
<path d="M447.1 364.163C456.726 373.789 456.726 389.397 447.1 399.023C437.474 408.649 421.866 408.649 412.24 399.023C402.614 389.397 402.614 373.789 412.24 364.163C421.866 354.537 437.473 354.537 447.1 364.163Z" fill="white" stroke="white" stroke-width="2.61146"/>
<path d="M447.121 456.157C456.747 465.783 456.748 481.39 447.122 491.017C437.495 500.643 421.887 500.643 412.261 491.017C402.635 481.39 402.636 465.783 412.262 456.157C421.888 446.531 437.495 446.531 447.121 456.157Z" fill="white" stroke="white" stroke-width="2.61146"/>
<path d="M513.946 318.125C523.572 327.751 523.573 343.359 513.947 352.985C504.321 362.611 488.713 362.611 479.086 352.985C469.46 343.359 469.461 327.751 479.087 318.125C488.713 308.499 504.32 308.499 513.946 318.125Z" fill="white" stroke="white" stroke-width="2.61146"/>
<path d="M513.965 410.117C523.591 419.743 523.591 435.351 513.965 444.977C504.339 454.603 488.731 454.603 479.105 444.977C469.479 435.351 469.479 419.743 479.106 410.117C488.732 400.491 504.339 400.491 513.965 410.117Z" fill="white" stroke="white" stroke-width="2.61146"/>
<path d="M575.646 364.164C585.273 373.79 585.273 389.398 575.647 399.024C566.021 408.65 550.413 408.65 540.787 399.024C531.161 389.398 531.161 373.79 540.787 364.164C550.413 354.538 566.02 354.538 575.646 364.164Z" fill="white" stroke="white" stroke-width="2.61146"/>
<path d="M318.545 19.2761C328.171 28.9022 328.171 44.5097 318.546 54.136C308.919 63.7622 293.311 63.7622 283.685 54.136C274.059 44.5097 274.06 28.9022 283.686 19.2761C293.312 9.65017 308.919 9.65017 318.545 19.2761Z" fill="white" stroke="white" stroke-width="2.61146"/>
</svg>
