<svg width="603" height="603" viewBox="0 0 603 603" fill="none" xmlns="http://www.w3.org/2000/svg">
<path d="M1.2168 1.21875L1.2168 601.219H601.217V1.21875H1.2168Z" stroke="white" stroke-width="2.43435"/>
<path fill-rule="evenodd" clip-rule="evenodd" d="M183.391 522.673C126.16 522.673 79.7648 476.278 79.7648 419.045C79.7648 370.492 113.159 329.736 158.233 318.496C158.145 317.756 158.062 317.017 157.985 316.275C111.801 327.655 77.5508 369.349 77.5508 419.045C77.5508 477.5 124.937 524.887 183.391 524.887C233.087 524.887 274.782 490.636 286.162 444.451C285.42 444.376 284.681 444.292 283.941 444.203C272.701 489.279 231.945 522.673 183.391 522.673ZM316.268 444.451C327.648 490.636 369.343 524.887 419.039 524.887C477.493 524.887 524.88 477.5 524.88 419.045C524.88 369.349 490.629 327.655 444.445 316.275C444.369 317.017 444.285 317.756 444.197 318.496C489.272 329.736 522.666 370.492 522.666 419.045C522.666 476.278 476.271 522.673 419.039 522.673C370.485 522.673 329.729 489.279 318.489 444.203C317.749 444.292 317.01 444.376 316.268 444.451ZM444.42 285.932C490.129 274.224 523.917 232.755 523.917 183.398C523.917 124.944 476.53 77.5569 418.078 77.5569C368.415 77.5569 326.74 111.761 315.329 157.897C316.073 157.97 316.813 158.048 317.552 158.132C328.833 113.112 369.562 79.7709 418.078 79.7709C475.308 79.7709 521.703 126.166 521.703 183.398C521.703 231.615 488.769 272.143 444.168 283.711C444.259 284.451 444.343 285.19 444.42 285.932ZM286.162 157.992C274.782 111.808 233.087 77.5569 183.391 77.5569C124.937 77.5569 77.5508 124.944 77.5508 183.398C77.5508 233.094 111.801 274.789 157.985 286.169C158.062 285.427 158.145 284.687 158.233 283.948C113.159 272.707 79.7648 231.952 79.7648 183.398C79.7648 126.166 126.16 79.7709 183.391 79.7709C231.945 79.7709 272.701 113.165 283.941 158.24C284.681 158.152 285.42 158.068 286.162 157.992Z" fill="white"/>
<path fill-rule="evenodd" clip-rule="evenodd" d="M298.751 126.27L300.735 130.266L302.716 126.27C323.767 83.8489 367.519 54.6969 418.078 54.6969C489.157 54.6969 546.779 112.319 546.779 183.4C546.779 234.152 517.401 278.048 474.713 299.003L470.623 301.011L474.73 302.986C517.93 323.752 547.742 367.921 547.742 419.048C547.742 490.129 490.12 547.751 419.039 547.751C368.101 547.751 324.068 518.156 303.206 475.215L301.215 471.115L299.223 475.215C278.362 518.156 234.33 547.751 183.391 547.751C112.311 547.751 54.6886 490.129 54.6886 419.048C54.6886 368.11 84.2824 324.077 127.225 303.214L131.324 301.224L127.225 299.233C84.2824 278.371 54.6886 234.338 54.6886 183.4C54.6886 112.319 112.311 54.6969 183.391 54.6969C233.949 54.6969 277.702 83.8489 298.751 126.27ZM301.979 122.84C301.556 123.65 301.14 124.465 300.735 125.287C300.328 124.465 299.911 123.65 299.488 122.84C277.629 81.0238 233.843 52.4828 183.391 52.4828C111.088 52.4828 52.4746 111.097 52.4746 183.4C52.4746 234.23 81.4427 278.293 123.77 299.982C124.594 300.405 125.423 300.819 126.257 301.224C125.423 301.629 124.594 302.043 123.77 302.466C81.4427 324.155 52.4746 368.218 52.4746 419.048C52.4746 491.351 111.088 549.965 183.391 549.965C234.221 549.965 278.285 520.997 299.973 478.669C300.396 477.845 300.81 477.015 301.215 476.183C301.621 477.015 302.035 477.845 302.457 478.669C324.146 520.997 368.209 549.965 419.039 549.965C491.342 549.965 549.956 491.351 549.956 419.048C549.956 368.028 520.769 323.822 478.182 302.22C477.356 301.802 476.526 301.392 475.689 300.989C476.522 300.582 477.35 300.163 478.171 299.738C520.242 277.963 548.993 234.039 548.993 183.4C548.993 111.097 490.379 52.4828 418.078 52.4828C367.625 52.4828 323.838 81.0238 301.979 122.84Z" fill="white"/>
<path d="M445.225 301.223C445.225 221.689 380.75 157.215 301.217 157.215C221.683 157.215 157.209 221.689 157.209 301.223C157.209 380.756 221.683 445.23 301.217 445.23C380.75 445.23 445.225 380.756 445.225 301.223Z" stroke="white" stroke-width="2.43435"/>
<path d="M419.042 301.218C419.042 236.146 366.29 183.394 301.217 183.394C236.144 183.394 183.393 236.146 183.393 301.218C183.393 366.291 236.144 419.043 301.217 419.043C366.29 419.043 419.042 366.291 419.042 301.218Z" stroke="white" stroke-width="2.43435"/>
<path d="M366.676 301.214C366.676 265.062 337.369 235.756 301.218 235.756C265.066 235.756 235.76 265.062 235.76 301.214C235.76 337.365 265.066 366.672 301.218 366.672C337.369 366.672 366.676 337.365 366.676 301.214Z" stroke="white" stroke-width="2.43435"/>
<path d="M340.491 301.224C340.491 322.915 322.907 340.499 301.216 340.499C279.525 340.499 261.941 322.915 261.941 301.224C261.941 279.533 279.525 261.949 301.216 261.949C322.907 261.949 340.491 279.533 340.491 301.224Z" stroke="white" stroke-width="2.43435"/>
</svg>
