<svg width="601" height="601" viewBox="0 0 601 601" fill="none" xmlns="http://www.w3.org/2000/svg">
<g clip-path="url(#clip0_1109_603)">
<path d="M300.436 1.33521C465.618 1.33521 599.537 135.255 599.537 300.436C599.537 465.639 465.618 599.536 300.436 599.536C135.256 599.536 1.33594 465.627 1.33594 300.436C1.33594 135.244 135.256 1.33521 300.436 1.33521Z" stroke="white" stroke-width="2.67054"/>
<path d="M598.126 299.186C597.418 465.263 466.673 599.536 300.429 599.536C300.162 599.536 299.893 599.536 299.626 599.535L301.36 597.622L301.419 597.557L301.764 597.175V596.661L301.833 535.614C302.946 453.985 336.46 395.507 390.046 357.11C443.4 318.881 516.764 300.484 598.126 299.186ZM2.67383 299.102C83.9563 299.268 157.37 317.681 210.791 356.212C264.447 394.911 298.047 453.984 299.162 535.614L299.035 596.722L299.03 599.533C133.447 598.78 3.37141 464.465 2.67383 299.102Z" fill="white" stroke="white" stroke-width="2.67054"/>
<path d="M300.436 34.717C447.18 34.717 566.154 153.691 566.154 300.436C566.154 447.202 447.18 566.155 300.436 566.155C153.69 566.155 34.7168 447.19 34.7168 300.436C34.7168 153.68 153.69 34.717 300.436 34.717Z" stroke="white" stroke-width="2.67054"/>
<path d="M300.435 68.0986C428.744 68.0986 532.772 172.126 532.772 300.436C532.772 428.763 428.744 532.773 300.435 532.773C172.125 532.773 68.0977 428.755 68.0977 300.436C68.0977 172.116 172.125 68.0986 300.435 68.0986Z" stroke="white" stroke-width="2.67054"/>
<path d="M300.435 160.232C355.004 160.232 399.245 204.473 399.245 259.042C399.245 313.618 355.004 357.852 300.435 357.852C245.866 357.852 201.625 313.615 201.625 259.042C201.625 204.47 245.866 160.232 300.435 160.232Z" stroke="white" stroke-width="2.67054"/>
</g>
<defs>
<clipPath id="clip0_1109_603">
<rect width="600.872" height="600.872" fill="white"/>
</clipPath>
</defs>
</svg>
