<svg width="470" height="486" viewBox="0 0 470 486" fill="none" xmlns="http://www.w3.org/2000/svg">
<path fill-rule="evenodd" clip-rule="evenodd" d="M268.331 455.315H182.687C197.834 494.395 253.184 494.395 268.331 455.315ZM442.211 25.9991C386.57 -29.6479 291.055 9.97732 291.055 88.607C291.055 167.236 386.57 206.862 442.211 151.22C476.788 116.638 476.788 60.5756 442.211 25.9991ZM281.626 40.3955C241.331 122.114 313.945 215.302 403.645 195.122C403.78 197.865 403.85 200.781 403.85 203.865V353.709C403.85 358.52 407.149 362.559 411.599 363.699C423.473 367.16 451.013 378.933 451.013 388.302C451.013 398.842 427.631 409.831 389.837 419.071C299.484 441.151 151.529 441.151 61.1712 419.071C23.3766 409.831 0 398.842 0 388.302C0 385.45 2.7486 382.08 7.8138 378.365C28.674 363.067 47.142 367.187 47.142 353.709H47.1582V203.865C47.1582 111.012 122.51 34.7525 215.19 33.4619V10.3769C215.19 -3.19867 235.813 -3.19867 235.813 10.3769V33.4619C251.608 33.6725 266.771 35.9675 281.626 40.3955Z" fill="white"/>
<path d="M351.909 119.66C347.511 119.66 343.625 118.902 340.25 117.389C336.895 115.875 334.267 113.789 332.365 111.13C330.462 108.471 329.521 105.444 329.542 102.048C329.521 99.3891 330.064 96.945 331.168 94.7154C332.293 92.4652 333.817 90.5935 335.74 89.1004C337.662 87.5868 339.81 86.6256 342.183 86.2163V85.848C339.053 85.0915 336.547 83.4142 334.665 80.8163C332.784 78.2184 331.853 75.2322 331.874 71.8572C331.853 68.6458 332.702 65.7822 334.42 63.2663C336.159 60.7299 338.542 58.7357 341.569 57.2836C344.597 55.831 348.043 55.1047 351.909 55.1047C355.734 55.1047 359.15 55.8413 362.157 57.3139C365.184 58.7665 367.567 60.7607 369.305 63.2971C371.044 65.8129 371.924 68.6663 371.944 71.8572C371.924 75.2322 370.962 78.2184 369.06 80.8163C367.158 83.4142 364.683 85.0915 361.635 85.848V86.2163C363.987 86.6256 366.104 87.5868 367.986 89.1004C369.889 90.5935 371.402 92.4652 372.527 94.7154C373.672 96.945 374.256 99.3891 374.276 102.048C374.256 105.444 373.294 108.471 371.392 111.13C369.49 113.789 366.851 115.875 363.476 117.389C360.122 118.902 356.265 119.66 351.909 119.66ZM351.909 111.897C354.507 111.897 356.757 111.467 358.659 110.609C360.561 109.729 362.034 108.512 363.077 106.957C364.12 105.383 364.652 103.541 364.673 101.435C364.652 99.246 364.079 97.3128 362.954 95.6355C361.85 93.9583 360.346 92.6391 358.444 91.6779C356.542 90.7161 354.364 90.2355 351.909 90.2355C349.434 90.2355 347.235 90.7161 345.312 91.6779C343.39 92.6391 341.876 93.9583 340.771 95.6355C339.667 97.3128 339.125 99.246 339.145 101.435C339.125 103.541 339.626 105.383 340.649 106.957C341.692 108.512 343.175 109.729 345.098 110.609C347.02 111.467 349.291 111.897 351.909 111.897ZM351.909 82.6572C353.995 82.6572 355.846 82.2381 357.462 81.3995C359.078 80.5609 360.346 79.395 361.267 77.9014C362.208 76.4083 362.688 74.6598 362.709 72.6547C362.688 70.6913 362.218 68.973 361.298 67.5004C360.398 66.0279 359.139 64.8922 357.524 64.0947C355.908 63.2766 354.036 62.8672 351.909 62.8672C349.741 62.8672 347.838 63.2766 346.202 64.0947C344.586 64.8922 343.328 66.0279 342.428 67.5004C341.528 68.973 341.088 70.6913 341.109 72.6547C341.088 74.6598 341.539 76.4083 342.459 77.9014C343.379 79.395 344.647 80.5609 346.264 81.3995C347.9 82.2381 349.782 82.6572 351.909 82.6572ZM403.861 108.246V66.7639H412.114V108.246H403.861ZM387.262 91.6163V83.3937H428.744V91.6163H387.262Z" fill="black"/>
</svg>
