<svg width="635" height="621" viewBox="0 0 635 621" fill="none" xmlns="http://www.w3.org/2000/svg">
<g clip-path="url(#clip0_591_252)">
<path d="M595.242 251.046C581.542 184.01 545.121 123.758 492.134 80.4698C439.146 37.1819 372.84 13.5122 304.418 13.4598C235.996 13.4074 169.653 36.9756 116.599 80.1823C63.5454 123.389 27.0326 183.585 13.23 250.601L0 247.901C14.4355 177.845 52.6093 114.919 108.073 69.7521C163.536 24.5857 232.89 -0.0522865 304.418 8.33147e-05C375.945 0.0524532 445.263 24.792 500.66 70.0396C556.058 115.287 594.139 178.269 608.472 248.346L595.242 251.046Z" fill="#383838"/>
<path d="M557.297 224.372L604.547 258.689L627.605 213.68L557.297 224.372Z" fill="#383838"/>
<path d="M330.024 620.928C258.487 620.783 189.181 596.008 133.764 550.769C78.3466 505.531 40.1981 442.588 25.7344 372.528L38.9644 369.828C52.6643 436.864 89.085 497.116 142.073 540.404C195.061 583.692 261.367 607.362 329.789 607.414C398.211 607.467 464.553 583.899 517.607 540.692C570.661 497.485 607.174 437.289 620.976 370.274L634.206 372.974C619.643 442.927 581.468 505.744 526.084 550.89C470.701 596.036 401.477 620.765 330.024 620.928Z" fill="#383838"/>
<path d="M74.9149 401.338L32.9839 360.703L3.79688 402L74.9149 401.338Z" fill="#383838"/>
<path d="M317 471C298.148 471 282.463 457.683 278.827 440.032C291.915 440.909 305.055 441.322 317 441.322C328.946 441.322 342.085 440.909 355.173 440.032C351.538 457.683 335.853 471 317 471ZM355.796 429.657C342.345 430.535 328.997 431 317 431C305.003 431 291.656 430.535 278.204 429.657C225.541 426.303 170.644 416.6 184.044 403.284C200.871 386.561 221.074 363.129 221.074 282.871C221.074 224.393 255.924 198.277 286.514 188.419C286.15 186.716 285.942 184.909 285.891 183.103C285.838 182.742 285.838 182.329 285.838 181.968C285.838 180.471 285.942 179.026 286.202 177.58C288.28 162.561 301.316 151 317 151C332.685 151 345.721 162.561 347.798 177.58C348.058 179.026 348.162 180.471 348.162 181.968C348.162 182.329 348.162 182.742 348.11 183.103C348.058 184.909 347.85 186.716 347.487 188.419C378.077 198.277 412.926 224.393 412.926 282.871C412.926 363.129 433.134 386.561 449.956 403.284C463.356 416.6 408.459 426.303 355.796 429.657Z" fill="white"/>
</g>
<defs>
<clipPath id="clip0_591_252">
<rect width="635" height="621" fill="white"/>
</clipPath>
</defs>
</svg>
