<svg width="640" height="640" viewBox="0 0 640 640" fill="none" xmlns="http://www.w3.org/2000/svg">
<path d="M415.138 43.2654C373.503 28.1072 329.042 22.2998 284.911 26.2554C240.78 30.211 198.061 43.8327 159.786 66.1535L172.782 29.467C173.728 26.7499 173.56 23.769 172.314 21.1754C171.069 18.5819 168.848 16.5866 166.136 15.6255C163.425 14.6644 160.443 14.8156 157.842 16.0461C155.242 17.2766 153.234 19.4863 152.257 22.1925L129.765 85.6767C128.797 88.4706 128.57 91.4673 129.104 94.3752C129.139 94.5386 129.186 94.6917 129.228 94.8539C129.945 98.7027 131.987 102.179 134.998 104.681C138.01 107.183 141.802 108.552 145.717 108.552L212.812 109.195H212.918C215.806 109.21 218.582 108.076 220.634 106.043C222.686 104.011 223.847 101.247 223.861 98.3586C223.875 95.4704 222.742 92.6949 220.709 90.6427C218.677 88.5904 215.913 87.4295 213.024 87.4154L167.366 86.9788C221.831 54.3162 285.767 41.1015 348.717 49.4961C411.667 57.8907 469.906 87.3978 513.909 133.191C557.911 178.985 585.072 238.354 590.949 301.589C596.827 364.824 581.073 428.182 546.264 481.301C544.681 483.715 544.121 486.66 544.708 489.487C545.296 492.314 546.982 494.792 549.396 496.376C551.811 497.959 554.755 498.519 557.582 497.932C560.409 497.344 562.887 495.658 564.471 493.244C589.458 455.107 605.502 411.816 611.403 366.607C617.304 321.397 612.91 275.438 598.549 232.166C584.189 188.893 560.233 149.426 528.472 116.715C496.712 84.0044 457.968 58.8955 415.138 43.2654Z" fill="white" fill-opacity="0.1"/>
<path d="M515.272 545.094C515.182 544.666 515.065 544.244 514.922 543.83C514.07 540.118 511.973 536.809 508.981 534.453C505.988 532.098 502.279 530.837 498.47 530.882H498.322L431.227 531.413C429.797 531.419 428.382 531.706 427.063 532.259C425.744 532.811 424.546 533.618 423.539 534.633C422.532 535.648 421.734 536.852 421.192 538.175C420.65 539.499 420.374 540.916 420.379 542.346C420.385 543.776 420.672 545.191 421.225 546.51C421.777 547.829 422.584 549.027 423.599 550.034C424.614 551.041 425.818 551.839 427.141 552.381C428.465 552.923 429.882 553.199 431.312 553.193H431.397L477.063 552.832C423.177 586.446 359.479 600.778 296.389 593.485C233.298 586.192 174.55 557.705 129.754 512.684C84.9572 467.664 56.7641 408.774 49.786 345.648C42.8079 282.522 57.4579 218.897 91.3395 165.179C92.881 162.736 93.3889 159.781 92.7517 156.964C92.1145 154.147 90.3844 151.699 87.9418 150.157C85.4993 148.616 82.5444 148.108 79.7274 148.745C76.9103 149.382 74.4617 151.112 72.9203 153.555C36.44 211.125 20.4981 279.34 27.6846 347.115C34.8711 414.891 64.7638 478.245 112.506 526.885C160.248 575.525 223.035 606.593 290.665 615.041C358.295 623.488 426.794 608.82 485.034 573.418L472.649 610.43C472.195 611.786 472.013 613.218 472.113 614.645C472.212 616.071 472.592 617.464 473.23 618.744C473.868 620.024 474.752 621.165 475.831 622.104C476.91 623.042 478.163 623.759 479.519 624.212C480.875 624.666 482.308 624.849 483.734 624.749C485.161 624.649 486.554 624.27 487.834 623.632C489.113 622.994 490.255 622.11 491.193 621.031C492.132 619.952 492.848 618.698 493.302 617.342L514.678 553.47C515.567 550.77 515.771 547.892 515.272 545.094Z" fill="white" fill-opacity="0.1"/>
<path d="M314.585 494.16C294.055 494.16 276.974 479.658 273.015 460.436C287.268 461.391 301.577 461.841 314.585 461.841C327.594 461.841 341.903 461.391 356.156 460.436C352.197 479.658 335.116 494.16 314.585 494.16ZM356.834 449.138C342.186 450.094 327.65 450.6 314.585 450.6C301.52 450.6 286.985 450.094 272.336 449.138C214.986 445.485 155.204 434.918 169.796 420.417C188.121 402.206 210.122 376.688 210.122 289.287C210.122 225.605 248.073 197.165 281.386 186.429C280.99 184.575 280.763 182.607 280.707 180.64C280.65 180.247 280.65 179.797 280.65 179.404C280.65 177.774 280.763 176.2 281.046 174.626C283.309 158.27 297.505 145.68 314.585 145.68C331.666 145.68 345.862 158.27 348.124 174.626C348.407 176.2 348.52 177.774 348.52 179.404C348.52 179.797 348.52 180.247 348.464 180.64C348.407 182.607 348.181 184.575 347.785 186.429C381.098 197.165 419.048 225.605 419.048 289.287C419.048 376.688 441.055 402.206 459.374 420.417C473.967 434.918 414.184 445.485 356.834 449.138Z" fill="white"/>
</svg>
