<svg xmlns="http://www.w3.org/2000/svg" width="560" height="560" fill="none"><path fill="#fff" fill-rule="evenodd" d="M313.331 492.315h-85.644c15.147 39.08 70.497 39.08 85.644 0m173.88-429.316C431.57 7.352 336.055 46.977 336.055 125.607s95.515 118.255 151.156 62.613c34.577-34.582 34.577-90.644 0-125.22M326.626 77.395c-40.295 81.719 32.319 174.907 122.019 154.727q.204 4.116.205 8.743v149.844c0 4.811 3.299 8.85 7.749 9.99 11.874 3.461 39.414 15.234 39.414 24.603 0 10.54-23.382 21.529-61.176 30.769-90.353 22.08-238.308 22.08-328.666 0C68.377 446.831 45 435.842 45 425.302c0-2.852 2.749-6.222 7.814-9.937 20.86-15.298 39.328-11.178 39.328-24.656h.016V240.865c0-92.853 75.352-169.112 168.032-170.403V47.377c0-13.576 20.623-13.576 20.623 0v23.085c15.795.21 30.958 2.505 45.813 6.933" clip-rule="evenodd"/><path fill="#000" d="M396.909 156.66q-6.597 0-11.659-2.271-5.032-2.27-7.885-6.259-2.855-3.988-2.823-9.082-.03-3.988 1.626-7.333 1.688-3.375 4.572-5.615 2.883-2.27 6.443-2.884v-.368q-4.695-1.135-7.518-5.032t-2.791-8.959q-.031-4.817 2.546-8.591 2.608-3.804 7.149-5.983t10.34-2.178q5.737 0 10.248 2.209 4.54 2.179 7.148 5.983 2.609 3.774 2.639 8.56-.03 5.062-2.884 8.959t-7.425 5.032v.368a13.75 13.75 0 0 1 6.351 2.884q2.854 2.24 4.541 5.615 1.718 3.345 1.749 7.333-.03 5.094-2.884 9.082t-7.916 6.259q-5.032 2.27-11.567 2.271m0-7.763q3.897 0 6.75-1.288 2.853-1.32 4.418-3.652 1.565-2.362 1.596-5.522-.031-3.283-1.719-5.8-1.656-2.516-4.51-3.957-2.853-1.443-6.535-1.443-3.713 0-6.597 1.443-2.883 1.442-4.541 3.957-1.656 2.517-1.626 5.8-.03 3.16 1.504 5.522 1.565 2.332 4.449 3.652 2.884 1.287 6.811 1.288m0-29.24q3.129 0 5.553-1.258 2.424-1.257 3.805-3.498 1.411-2.239 1.442-5.247-.031-2.945-1.411-5.154-1.35-2.209-3.774-3.406-2.424-1.227-5.615-1.227-3.253 0-5.707 1.227-2.424 1.197-3.774 3.406t-1.319 5.154q-.03 3.008 1.35 5.247 1.38 2.241 3.805 3.498 2.454 1.258 5.645 1.258m51.952 25.589v-41.482h8.253v41.482zm-16.599-16.63v-8.223h41.482v8.223z"/></svg>