<svg width="1520" height="1520" viewBox="0 0 1520 1520" fill="none" xmlns="http://www.w3.org/2000/svg">
<circle cx="827.254" cy="652.394" r="33.6283" fill="white"/>
<circle cx="699.459" cy="652.394" r="33.6283" fill="white"/>
<circle cx="645.665" cy="551.495" r="33.6283" fill="white"/>
<circle cx="760.002" cy="517.87" r="33.6283" fill="white"/>
<circle cx="887.797" cy="551.495" r="33.6283" fill="white"/>
<circle cx="975.217" cy="464.074" r="33.6283" fill="white"/>
<circle cx="1109.74" cy="410.261" r="33.6283" fill="white"/>
<circle cx="1190.45" cy="329.55" r="33.6283" fill="white"/>
<circle cx="1324.96" cy="289.199" r="33.6283" fill="white"/>
<circle cx="1230.79" cy="201.777" r="33.6283" fill="white"/>
<circle cx="1103.01" cy="255.574" r="33.6283" fill="white"/>
<circle cx="1129.91" cy="127.8" r="33.6283" fill="white"/>
<circle cx="1002.13" cy="336.285" r="33.6283" fill="white"/>
<circle cx="881.068" cy="410.261" r="33.6283" fill="white"/>
<circle cx="887.797" cy="289.199" r="33.6283" fill="white"/>
<circle cx="887.797" cy="161.425" r="33.6283" fill="white"/>
<circle cx="995.405" cy="195.05" r="33.6283" fill="white"/>
<circle cx="1015.57" cy="73.9799" r="33.6283" fill="white"/>
<circle cx="894.506" cy="40.3549" r="33.6283" fill="white"/>
<circle cx="760.002" cy="33.6283" r="33.6283" fill="white"/>
<circle cx="638.937" cy="40.3549" r="33.6283" fill="white"/>
<circle cx="517.871" cy="73.9799" r="33.6283" fill="white"/>
<circle cx="403.535" cy="127.8" r="33.6283" fill="white"/>
<circle cx="302.657" cy="201.777" r="33.6283" fill="white"/>
<circle cx="208.488" cy="289.199" r="33.6283" fill="white"/>
<circle cx="134.506" cy="396.808" r="33.6283" fill="white"/>
<circle cx="80.7123" cy="511.144" r="33.6283" fill="white"/>
<circle cx="201.779" cy="524.597" r="33.6283" fill="white"/>
<circle cx="262.301" cy="423.722" r="33.6283" fill="white"/>
<circle cx="336.283" cy="329.55" r="33.6283" fill="white"/>
<circle cx="430.452" cy="255.574" r="33.6283" fill="white"/>
<circle cx="538.059" cy="195.05" r="33.6283" fill="white"/>
<circle cx="645.665" cy="161.425" r="33.6283" fill="white"/>
<circle cx="760.002" cy="154.691" r="33.6283" fill="white"/>
<circle cx="760.002" cy="275.761" r="33.6283" fill="white"/>
<circle cx="760.002" cy="396.808" r="33.6283" fill="white"/>
<circle cx="652.395" cy="410.261" r="33.6283" fill="white"/>
<circle cx="551.497" cy="464.074" r="33.6283" fill="white"/>
<circle cx="470.787" cy="544.785" r="33.6283" fill="white"/>
<circle cx="343.012" cy="517.87" r="33.6283" fill="white"/>
<circle cx="416.993" cy="416.996" r="33.6283" fill="white"/>
<circle cx="517.871" cy="336.285" r="33.6283" fill="white"/>
<circle cx="638.937" cy="289.199" r="33.6283" fill="white"/>
<circle cx="699.459" cy="867.613" r="33.6283" fill="white"/>
<circle cx="645.665" cy="968.488" r="33.6283" fill="white"/>
<circle cx="551.497" cy="1055.93" r="33.6283" fill="white"/>
<circle cx="423.722" cy="1103.01" r="33.6283" fill="white"/>
<circle cx="336.283" cy="1190.45" r="33.6283" fill="white"/>
<circle cx="295.927" cy="1318.23" r="33.6283" fill="white"/>
<circle cx="208.488" cy="1224.07" r="33.6283" fill="white"/>
<circle cx="262.301" cy="1096.28" r="33.6283" fill="white"/>
<circle cx="343.012" cy="1002.14" r="33.6283" fill="white"/>
<circle cx="470.787" cy="968.488" r="33.6283" fill="white"/>
<circle cx="558.226" cy="881.066" r="33.6283" fill="white"/>
<circle cx="416.993" cy="867.613" r="33.6283" fill="white"/>
<circle cx="295.927" cy="887.8" r="33.6283" fill="white"/>
<circle cx="168.132" cy="874.339" r="33.6283" fill="white"/>
<circle cx="47.0863" cy="881.066" r="33.6283" fill="white"/>
<circle cx="80.7123" cy="1008.84" r="33.6283" fill="white"/>
<circle cx="201.779" cy="988.675" r="33.6283" fill="white"/>
<circle cx="134.506" cy="1123.18" r="33.6283" fill="white"/>
<circle cx="827.254" cy="867.613" r="33.6283" fill="white"/>
<circle cx="881.068" cy="760.003" r="33.6283" fill="white"/>
<circle cx="975.217" cy="638.933" r="33.6283" fill="white"/>
<circle cx="1062.66" cy="544.785" r="33.6283" fill="white"/>
<circle cx="1183.72" cy="517.87" r="33.6283" fill="white"/>
<circle cx="1271.14" cy="423.722" r="33.6283" fill="white"/>
<circle cx="1324.96" cy="531.331" r="33.6283" fill="white"/>
<circle cx="1230.79" cy="632.206" r="33.6283" fill="white"/>
<circle cx="1358.58" cy="638.933" r="33.6283" fill="white"/>
<circle cx="1479.65" cy="632.206" r="33.6283" fill="white"/>
<circle cx="1446.02" cy="511.144" r="33.6283" fill="white"/>
<circle cx="1109.74" cy="645.667" r="33.6283" fill="white"/>
<circle cx="1392.21" cy="396.808" r="33.6283" fill="white"/>
<circle cx="1002.13" cy="760.003" r="33.6283" fill="white"/>
<circle cx="975.217" cy="881.066" r="33.6283" fill="white"/>
<circle cx="887.797" cy="968.488" r="33.6283" fill="white"/>
<circle cx="760.002" cy="1002.14" r="33.6283" fill="white"/>
<circle cx="760.002" cy="1123.18" r="33.6283" fill="white"/>
<circle cx="652.395" cy="1103.01" r="33.6283" fill="white"/>
<circle cx="645.665" cy="1230.78" r="33.6283" fill="white"/>
<circle cx="645.665" cy="1351.85" r="33.6283" fill="white"/>
<circle cx="638.937" cy="1472.92" r="33.6283" fill="white"/>
<circle cx="760.002" cy="1486.38" r="33.6283" fill="white"/>
<circle cx="760.002" cy="1372.04" r="33.6283" fill="white"/>
<circle cx="760.002" cy="1244.25" r="33.6283" fill="white"/>
<circle cx="874.338" cy="1103.01" r="33.6283" fill="white"/>
<circle cx="894.506" cy="1224.07" r="33.6283" fill="white"/>
<circle cx="881.068" cy="1351.85" r="33.6283" fill="white"/>
<circle cx="887.797" cy="1472.92" r="33.6283" fill="white"/>
<circle cx="1008.84" cy="1439.29" r="33.6283" fill="white"/>
<circle cx="995.405" cy="1318.23" r="33.6283" fill="white"/>
<circle cx="1008.84" cy="1177" r="33.6283" fill="white"/>
<circle cx="975.217" cy="1055.93" r="33.6283" fill="white"/>
<circle cx="1055.93" cy="975.214" r="33.6283" fill="white"/>
<circle cx="1109.74" cy="874.339" r="33.6283" fill="white"/>
<circle cx="1237.52" cy="881.066" r="33.6283" fill="white"/>
<circle cx="1358.58" cy="874.339" r="33.6283" fill="white"/>
<circle cx="1486.38" cy="881.066" r="33.6283" fill="white"/>
<circle cx="1446.02" cy="1008.84" r="33.6283" fill="white"/>
<circle cx="1392.21" cy="1123.18" r="33.6283" fill="white"/>
<circle cx="1324.96" cy="1224.07" r="33.6283" fill="white"/>
<circle cx="1230.79" cy="1318.23" r="33.6283" fill="white"/>
<circle cx="1129.91" cy="1385.48" r="33.6283" fill="white"/>
<circle cx="1103.01" cy="1264.43" r="33.6283" fill="white"/>
<circle cx="1197.16" cy="1190.45" r="33.6283" fill="white"/>
<circle cx="1271.14" cy="1089.55" r="33.6283" fill="white"/>
<circle cx="1324.96" cy="988.675" r="33.6283" fill="white"/>
<circle cx="1183.72" cy="1002.14" r="33.6283" fill="white"/>
<circle cx="1109.74" cy="1103.01" r="33.6283" fill="white"/>
<circle cx="524.6" cy="1183.72" r="33.6283" fill="white"/>
<circle cx="430.452" cy="1264.43" r="33.6283" fill="white"/>
<circle cx="538.059" cy="1318.23" r="33.6283" fill="white"/>
<circle cx="517.871" cy="1439.29" r="33.6283" fill="white"/>
<circle cx="403.535" cy="1385.48" r="33.6283" fill="white"/>
<circle cx="1123.18" cy="760.003" r="33.6283" fill="white"/>
<circle cx="1244.24" cy="760.003" r="33.6283" fill="white"/>
<circle cx="1365.31" cy="760.003" r="33.6283" fill="white"/>
<circle cx="1486.38" cy="760.003" r="33.6283" fill="white"/>
<circle cx="638.937" cy="760.003" r="33.6283" fill="white"/>
<circle cx="517.871" cy="760.003" r="33.6283" fill="white"/>
<circle cx="551.497" cy="638.933" r="33.6283" fill="white"/>
<circle cx="416.993" cy="645.667" r="33.6283" fill="white"/>
<circle cx="295.927" cy="638.933" r="33.6283" fill="white"/>
<circle cx="168.132" cy="638.933" r="33.6283" fill="white"/>
<circle cx="47.0863" cy="632.206" r="33.6283" fill="white"/>
<circle cx="396.805" cy="760.003" r="33.6283" fill="white"/>
<circle cx="275.759" cy="760.003" r="33.6283" fill="white"/>
<circle cx="154.694" cy="760.003" r="33.6283" fill="white"/>
<circle cx="33.6283" cy="760.003" r="33.6283" fill="white"/>
<circle cx="760.002" cy="760.003" r="33.6283" fill="white"/>
</svg>
