<svg width="3616" height="3617" viewBox="0 0 3616 3617" fill="none" xmlns="http://www.w3.org/2000/svg">
<rect x="466" y="465.992" width="2684" height="2684" rx="145.938" stroke="white" stroke-width="16"/>
<rect x="316" y="615.977" width="2984" height="2384" rx="145.938" stroke="white" stroke-width="16"/>
<rect x="615.996" y="315.984" width="2384" height="2984" rx="145.938" stroke="white" stroke-width="16"/>
<circle cx="1808" cy="1807.98" r="1492" stroke="white" stroke-width="16"/>
<circle cx="1808" cy="1807.97" r="741.999" stroke="white" stroke-width="16"/>
<rect x="8" y="1207.98" width="1200" height="600" stroke="#333333" stroke-width="16" stroke-dasharray="48 48"/>
<rect x="8" y="1808" width="1200" height="600" stroke="#333333" stroke-width="16" stroke-dasharray="48 48"/>
<rect x="2408" y="1207.98" width="1200" height="600" stroke="#333333" stroke-width="16" stroke-dasharray="48 48"/>
<rect x="2408" y="1808" width="1200" height="600" stroke="#333333" stroke-width="16" stroke-dasharray="48 48"/>
<rect x="1208" y="8" width="600" height="1200" stroke="#333333" stroke-width="16" stroke-dasharray="48 48"/>
<rect x="1808" y="8" width="600" height="1200" stroke="#333333" stroke-width="16" stroke-dasharray="48 48"/>
<rect x="1208" y="2408.02" width="600" height="1200" stroke="#333333" stroke-width="16" stroke-dasharray="48 48"/>
<rect x="1808" y="2408.02" width="600" height="1200" stroke="#333333" stroke-width="16" stroke-dasharray="48 48"/>
<rect x="1208" y="1808" width="600" height="600" stroke="#333333" stroke-width="16" stroke-dasharray="48 48"/>
<rect x="1808" y="1808" width="600" height="600" stroke="#333333" stroke-width="16" stroke-dasharray="48 48"/>
<rect x="1808" y="1207.98" width="600" height="600" stroke="#333333" stroke-width="16" stroke-dasharray="48 48"/>
<rect x="1208" y="1207.98" width="600" height="600" stroke="#333333" stroke-width="16" stroke-dasharray="48 48"/>
<rect x="8" y="2408.02" width="1200" height="1200" stroke="#333333" stroke-width="16" stroke-dasharray="48 48"/>
<rect x="2408" y="2408.02" width="1200" height="1200" stroke="#333333" stroke-width="16" stroke-dasharray="48 48"/>
<rect x="2408" y="8" width="1200" height="1200" stroke="#333333" stroke-width="16" stroke-dasharray="48 48"/>
<rect x="8" y="8" width="1200" height="1200" stroke="#333333" stroke-width="16" stroke-dasharray="48 48"/>
</svg>
