<svg width="601" height="601" viewBox="0 0 601 601" fill="none" xmlns="http://www.w3.org/2000/svg">
<path d="M595.919 246.108C595.919 243.855 595.167 241.602 594.667 239.348C594.215 236.898 593.63 234.474 592.914 232.088L587.031 229.709C579.593 226.215 571.57 224.134 563.371 223.576C555.173 224.134 547.15 226.215 539.712 229.709C533.196 233.245 525.837 234.934 518.431 234.592C511.348 231.668 505.231 226.809 500.781 220.571C498.402 217.942 495.898 215.188 493.27 212.81C491.759 211.301 490.126 209.919 488.388 208.679C486.634 207.322 484.746 206.148 482.754 205.174C475.246 202.07 467.219 200.414 459.095 200.292C451.543 200.594 444.052 198.819 437.439 195.159C432.359 189.571 428.935 182.679 427.549 175.255C425.775 167.401 422.503 159.963 417.91 153.349C412.466 147.479 405.969 142.681 398.758 139.203C391.75 136.209 385.692 131.362 381.232 125.183C379.212 117.978 379.212 110.356 381.232 103.151C381.232 103.151 381.232 103.151 381.232 102.275C382.255 96.8705 382.717 91.375 382.609 85.8759C382.607 83.5605 382.355 81.2521 381.858 78.9909C379.545 71.4498 375.852 64.4036 370.967 58.2107C365.881 52.3659 362.541 45.2085 361.328 37.5558C362.577 29.8898 365.961 22.731 371.092 16.9008L375.974 9.64029C369.715 8.13811 369.715 8.13811 363.456 6.63594C342.768 2.16268 321.656 -0.0617812 300.49 0.00130494C238.739 -0.00983647 178.484 19.0074 127.927 54.4646C77.3703 89.9218 38.9674 140.096 17.9453 198.159C-3.07677 256.222 -5.69665 319.352 10.4422 378.957C26.5812 438.562 60.6948 491.746 108.14 531.27C155.585 570.794 214.057 594.739 275.597 599.844C337.137 604.95 398.755 590.968 452.064 559.802C505.374 528.637 547.785 481.801 573.526 425.671C599.266 369.54 607.085 306.841 595.919 246.108ZM338.044 50.0739H350.563V62.5921H338.044V50.0739ZM338.044 125.183H350.563V137.701H338.044V125.183ZM338.044 200.292H350.563V212.81H338.044V200.292ZM306.749 9.89066L315.637 18.7785L306.749 27.6664L297.861 18.7785L306.749 9.89066ZM306.749 84.9996L315.637 93.8875L306.749 102.775L297.861 93.8875L306.749 84.9996ZM306.749 160.109L315.637 168.996L306.749 177.884L297.861 168.996L306.749 160.109ZM262.936 50.0739H275.454V62.5921H262.936V50.0739ZM262.936 125.183H275.454V137.701H262.936V125.183ZM262.936 200.292H275.454V212.81H262.936V200.292ZM231.64 9.89066L240.528 18.7785L231.64 27.6664L222.752 18.7785L231.64 9.89066ZM231.64 84.9996L240.528 93.8875L231.64 102.775L222.752 93.8875L231.64 84.9996ZM231.64 160.109L240.528 168.996L231.64 177.884L222.752 168.996L231.64 160.109ZM231.64 235.217L240.528 244.105L231.64 252.993L222.752 244.105L231.64 235.217ZM50.1269 438.137H37.6087V425.619H50.1269V438.137ZM50.1269 363.028H37.6087V350.51H50.1269V363.028ZM50.1269 287.919H37.6087V275.401H50.1269V287.919ZM50.1269 212.81H37.6087V200.292H50.1269V212.81ZM81.4223 478.32L72.5344 469.432L81.4223 460.544L90.3101 469.432L81.4223 478.32ZM81.4223 403.211L72.5344 394.323L81.4223 385.435L90.3101 394.323L81.4223 403.211ZM81.4223 328.102L72.5344 319.214L81.4223 310.326L90.3101 319.214L81.4223 328.102ZM81.4223 252.993L72.5344 244.105L81.4223 235.217L90.3101 244.105L81.4223 252.993ZM81.4223 177.884L72.5344 168.996L81.4223 160.109L90.3101 168.996L81.4223 177.884ZM125.236 513.246H112.718V500.728H125.236V513.246ZM125.236 438.137H112.718V425.619H125.236V438.137ZM125.236 363.028H112.718V350.51H125.236V363.028ZM125.236 287.919H112.718V275.401H125.236V287.919ZM125.236 212.81H112.718V200.292H125.236V212.81ZM125.236 137.701H112.718V125.183H125.236V137.701ZM156.531 553.429L147.643 544.541L156.531 535.653L165.419 544.541L156.531 553.429ZM156.531 478.32L147.643 469.432L156.531 460.544L165.419 469.432L156.531 478.32ZM156.531 403.211L147.643 394.323L156.531 385.435L165.419 394.323L156.531 403.211ZM156.531 328.102L147.643 319.214L156.531 310.326L165.419 319.214L156.531 328.102ZM156.531 252.993L147.643 244.105L156.531 235.217L165.419 244.105L156.531 252.993ZM156.531 177.884L147.643 168.996L156.531 160.109L165.419 168.996L156.531 177.884ZM156.531 102.775L147.643 93.8875L156.531 84.9996L165.419 93.8875L156.531 102.775ZM200.345 513.246H187.827V500.728H200.345V513.246ZM200.345 438.137H187.827V425.619H200.345V438.137ZM200.345 363.028H187.827V350.51H200.345V363.028ZM200.345 287.919H187.827V275.401H200.345V287.919ZM200.345 212.81H187.827V200.292H200.345V212.81ZM200.345 137.701H187.827V125.183H200.345V137.701ZM200.345 62.5921H187.827V50.0739H200.345V62.5921ZM231.64 553.429L222.752 544.541L231.64 535.653L240.528 544.541L231.64 553.429ZM231.64 478.32L222.752 469.432L231.64 460.544L240.528 469.432L231.64 478.32ZM231.64 403.211L222.752 394.323L231.64 385.435L240.528 394.323L231.64 403.211ZM275.454 588.355H262.936V575.836H275.454V588.355ZM275.454 513.246H262.936V500.728H275.454V513.246ZM275.454 438.137H262.936V425.619H275.454V438.137ZM306.749 553.429L297.861 544.541L306.749 535.653L315.637 544.541L306.749 553.429ZM306.749 478.32L297.861 469.432L306.749 460.544L315.637 469.432L306.749 478.32ZM306.749 403.211L297.861 394.323L306.749 385.435L315.637 394.323L306.749 403.211ZM350.563 588.355H338.044V575.836H350.563V588.355ZM350.563 513.246H338.044V500.728H350.563V513.246ZM350.563 438.137H338.044V425.619H350.563V438.137ZM381.858 553.429L372.97 544.541L381.858 535.653L390.746 544.541L381.858 553.429ZM381.858 478.32L372.97 469.432L381.858 460.544L390.746 469.432L381.858 478.32ZM381.858 403.211L372.97 394.323L381.858 385.435L390.746 394.323L381.858 403.211ZM381.858 328.102L373.095 319.339C369.997 331.244 364.022 342.206 355.695 351.261C343.367 364.252 326.803 372.41 308.99 374.265C291.178 376.12 273.288 371.548 258.549 361.376C243.809 351.203 233.19 336.098 228.606 318.786C224.021 301.473 225.774 283.092 233.548 266.958C241.322 250.824 254.604 237.999 271.001 230.795C287.398 223.591 305.828 222.484 322.97 227.671C340.111 232.859 354.835 244.002 364.485 259.088C374.135 274.175 378.077 292.214 375.599 309.951C375.23 312.993 374.644 316.005 373.846 318.964L382.484 310.326L391.372 319.214L381.858 328.102ZM381.858 252.993L372.97 244.105L381.858 235.217L390.746 244.105L381.858 252.993ZM381.858 177.884L372.97 168.996L381.858 160.109L390.746 168.996L381.858 177.884ZM425.672 513.246H413.153V500.728H425.672V513.246ZM425.672 438.137H413.153V425.619H425.672V438.137ZM425.672 363.028H413.153V350.51H425.672V363.028ZM425.672 287.919H413.153V275.401H425.672V287.919ZM425.672 212.81H413.153V200.292H424.67L425.672 201.418V212.81ZM456.967 553.429L448.079 544.541L456.967 535.653L465.855 544.541L456.967 553.429ZM456.967 478.32L448.079 469.432L456.967 460.544L465.855 469.432L456.967 478.32ZM456.967 403.211L448.079 394.323L456.967 385.435L465.855 394.323L456.967 403.211ZM456.967 328.102L448.079 319.214L456.967 310.326L465.855 319.214L456.967 328.102ZM456.967 252.993L448.079 244.105L456.967 235.217L465.855 244.105L456.967 252.993ZM500.781 513.246H488.262V500.728H500.781V513.246ZM500.781 438.137H488.262V425.619H500.781V438.137ZM500.781 363.028H488.262V350.51H500.781V363.028ZM500.781 287.919H488.262V275.401H500.781V287.919ZM532.076 478.32L523.188 469.432L532.076 460.544L540.964 469.432L532.076 478.32ZM532.076 403.211L523.188 394.323L532.076 385.435L540.964 394.323L532.076 403.211ZM532.076 328.102L523.188 319.214L532.076 310.326L540.964 319.214L532.076 328.102ZM532.076 252.993L525.817 247.11C530.547 246.315 535.168 244.971 539.587 243.104L540.588 244.105L532.076 252.993ZM575.889 363.028H563.371V350.51H575.889V363.028ZM575.889 287.919H563.371V275.401H575.889V287.919Z" fill="white"/>
</svg>
