<svg width="604" height="604" viewBox="0 0 604 604" fill="none" xmlns="http://www.w3.org/2000/svg">
<path d="M232.639 254.143L223.711 245.214L232.639 236.286L241.567 245.214L232.639 254.143ZM188.626 364.678H201.201V352.103H188.626V364.678ZM148.26 471.566L157.189 480.494L166.117 471.566L157.189 462.637L148.26 471.566ZM374.612 169.764L383.54 178.692L392.468 169.764L383.54 160.836L374.612 169.764ZM450.062 471.566L458.99 480.494L467.919 471.566L458.99 462.637L450.062 471.566ZM113.176 364.678H125.751V352.103H113.176V364.678ZM264.077 440.128H276.652V427.553H264.077V440.128ZM72.8098 245.214L81.7381 254.143L90.6664 245.214L81.7381 236.286L72.8098 245.214ZM113.176 440.128H125.751V427.553H113.176V440.128ZM72.8098 396.115L81.7381 405.044L90.6664 396.115L81.7381 387.187L72.8098 396.115ZM603.604 301.802C603.604 361.493 585.903 419.843 552.741 469.474C519.579 519.105 472.444 557.788 417.296 580.631C362.149 603.473 301.467 609.45 242.923 597.805C184.38 586.16 130.604 557.416 88.3958 515.208C46.1881 473.001 17.4443 419.225 5.79917 360.681C-5.84592 302.137 0.130767 241.455 22.9734 186.308C45.8161 131.161 84.4988 84.0256 134.13 50.8632C183.761 17.7008 242.111 0.000434522 301.802 0.000434522C322.939 -0.0358352 344.018 2.19859 364.677 6.66523C370.965 8.17424 370.965 8.17424 377.252 9.68325L372.348 16.9768L369.707 20.8751C365.891 25.7342 363.536 31.5784 362.917 37.7257C364.171 45.4265 367.57 52.6179 372.725 58.4745C377.633 64.6956 381.342 71.7738 383.666 79.3492C384.165 81.6207 384.418 83.9396 384.42 86.2655C384.528 91.7896 384.065 97.3101 383.037 102.739C383.037 102.739 383.037 102.739 383.037 103.619C381.008 110.857 381.008 118.513 383.037 125.751C387.5 132.004 393.588 136.918 400.642 139.961C407.887 143.454 414.412 148.274 419.882 154.171C424.436 160.787 427.68 168.214 429.439 176.051C430.786 183.598 434.229 190.614 439.373 196.297C446.017 199.974 453.541 201.757 461.128 201.453C469.222 201.472 477.241 203.007 484.769 205.98C486.77 206.959 488.666 208.139 490.428 209.501C492.175 210.747 493.815 212.135 495.332 213.651C497.973 216.04 500.488 218.807 502.877 221.448C507.382 227.732 513.573 232.615 520.734 235.532C528.174 235.875 535.566 234.179 542.112 230.627C549.591 227.16 557.651 225.113 565.879 224.591C571.125 224.729 576.312 225.75 581.22 227.609C583.987 228.49 586.879 229.621 589.645 230.753L595.556 233.142C596.275 235.54 596.862 237.975 597.316 240.436C597.316 242.699 598.196 244.963 598.574 247.226C601.914 265.227 603.598 283.495 603.604 301.802ZM591.029 301.802C591.036 281.857 588.971 261.966 584.867 242.448C578.885 239.616 572.463 237.83 565.879 237.166C559.253 237.828 552.79 239.614 546.764 242.448L542.363 244.208L543.369 245.214L534.441 254.143L528.153 248.232C526.605 248.357 525.049 248.357 523.5 248.232C521.506 248.238 519.519 247.984 517.59 247.478C507.797 244.213 499.268 237.97 493.195 229.621C489.151 224.707 484.355 220.463 478.985 217.046C472.969 214.905 466.633 213.799 460.248 213.777C450.075 214.206 440.018 211.484 431.451 205.98C429.998 204.844 428.689 203.534 427.553 202.082V213.777H414.978V201.202H426.547C422.344 194.638 419.282 187.41 417.493 179.824C416.01 173.526 413.458 167.529 409.948 162.093C405.466 157.454 400.184 153.663 394.355 150.901C384.946 146.834 377.005 139.99 371.594 131.284C368.191 121.74 367.796 111.382 370.462 101.607C371.913 95.2141 372.211 88.6134 371.342 82.1157C369.382 76.132 366.357 70.5514 362.414 65.6423C355.423 57.8696 351.028 48.1119 349.839 37.7257C350.163 30.6495 352.472 23.8075 356.504 17.9828C341.515 14.8642 326.284 13.055 310.982 12.5755L317.018 18.6115L308.089 27.5399L299.161 18.6115L305.323 12.4498H301.802C281.509 12.4012 261.271 14.5515 241.442 18.863L232.639 27.6656L227.232 22.2583C186.074 33.2388 147.85 53.175 115.291 80.6422C82.7316 108.109 56.6417 142.429 38.8855 181.15C21.1292 219.87 12.145 262.034 12.5749 304.629C13.0047 347.225 22.8381 389.199 41.3721 427.553H50.3004V440.128H47.9112C71.7907 483.713 106.422 520.465 148.512 546.89L157.314 538.088L166.243 547.016L159.704 553.555C191.904 571.854 227.351 583.727 264.077 588.514V578.454H276.652V589.897C284.951 590.652 293.377 591.029 301.802 591.029C314.419 591.022 327.021 590.182 339.527 588.514V578.454H352.102V586.502C387.466 580.337 421.344 567.537 451.948 548.777L450.062 546.89L458.99 537.962L462.889 541.86C474.67 533.88 485.889 525.099 496.464 515.579H490.428V503.003H503.003V509.417C513.215 499.585 522.713 489.037 531.423 477.853L525.513 471.943L534.441 463.015L538.968 467.542C572.992 418.983 591.175 361.095 591.029 301.802ZM148.26 320.665L157.189 329.593L166.117 320.665L157.189 311.737L148.26 320.665ZM525.513 320.665L534.441 329.593L543.369 320.665L534.441 311.737L525.513 320.665ZM276.652 50.3007H264.077V62.8758H276.652V50.3007ZM188.626 289.227H201.201V276.652H188.626V289.227ZM299.161 547.016L308.089 555.945L317.018 547.016L308.089 538.088L299.161 547.016ZM148.26 245.214L157.189 254.143L166.117 245.214L157.189 236.286L148.26 245.214ZM299.161 396.115L308.089 405.044L317.018 396.115L308.089 387.187L299.161 396.115ZM37.7254 289.227H50.3004V276.652H37.7254V289.227ZM565.879 364.678H578.454V352.103H565.879V364.678ZM490.428 289.227H503.003V276.652H490.428V289.227ZM241.567 169.764L232.639 160.836L223.711 169.764L232.639 178.692L241.567 169.764ZM450.062 320.665L458.99 329.593L467.919 320.665L458.99 311.737L450.062 320.665ZM241.567 94.3135L232.639 85.3852L223.711 94.3135L232.639 103.242L241.567 94.3135ZM352.102 125.751H339.527V138.326H352.102V125.751ZM414.978 364.678H427.553V352.103H414.978V364.678ZM339.527 515.579H352.102V503.003H339.527V515.579ZM374.612 547.016L383.54 555.945L392.468 547.016L383.54 538.088L374.612 547.016ZM374.612 471.566L383.54 480.494L392.468 471.566L383.54 462.637L374.612 471.566ZM565.879 289.227H578.454V276.652H565.879V289.227ZM450.062 396.115L458.99 405.044L467.919 396.115L458.99 387.187L450.062 396.115ZM113.176 213.777H125.751V201.202H113.176V213.777ZM374.612 245.214L383.54 254.143L392.468 245.214L383.54 236.286L374.612 245.214ZM223.711 471.566L232.639 480.494L241.567 471.566L232.639 462.637L223.711 471.566ZM317.018 169.764L308.089 160.836L299.161 169.764L308.089 178.692L317.018 169.764ZM352.102 50.3007H339.527V62.8758H352.102V50.3007ZM188.626 213.777H201.201V201.202H188.626V213.777ZM339.527 440.128H352.102V427.553H339.527V440.128ZM113.176 289.227H125.751V276.652H113.176V289.227ZM490.428 440.128H503.003V427.553H490.428V440.128ZM188.626 515.579H201.201V503.003H188.626V515.579ZM37.7254 364.678H50.3004V352.103H37.7254V364.678ZM188.626 440.128H201.201V427.553H188.626V440.128ZM188.626 138.326H201.201V125.751H188.626V138.326ZM414.978 515.579H427.553V503.003H414.978V515.579ZM276.652 201.202H264.077V213.777H276.652V201.202ZM37.7254 213.777H50.3004V201.202H37.7254V213.777ZM450.062 245.214L458.99 254.143L467.919 245.214L458.99 236.286L450.062 245.214ZM317.018 94.3135L308.089 85.3852L299.161 94.3135L308.089 103.242L317.018 94.3135ZM113.176 515.579H125.751V503.003H113.176V515.579ZM188.626 62.8758H201.201V50.3007H188.626V62.8758ZM113.176 138.326H125.751V125.751H113.176V138.326ZM374.737 320.791C369.826 339.331 358.038 355.305 341.769 365.465C325.501 375.625 305.975 379.208 287.159 375.485C268.344 371.763 251.652 361.014 240.478 345.425C229.305 329.836 224.487 310.577 227.005 291.563C229.524 272.549 239.189 255.207 254.036 243.065C268.883 230.922 287.797 224.89 306.933 226.194C326.069 227.498 343.989 236.041 357.052 250.085C370.114 264.13 377.337 282.622 377.252 301.802C377.294 308.085 376.491 314.345 374.863 320.413L383.54 311.737L392.468 320.665L383.54 329.593L374.737 320.791ZM364.677 301.802C364.677 289.367 360.99 277.21 354.081 266.871C347.172 256.531 337.352 248.472 325.863 243.713C314.374 238.954 301.732 237.709 289.536 240.135C277.339 242.561 266.136 248.549 257.342 257.343C248.549 266.136 242.561 277.339 240.135 289.536C237.709 301.732 238.954 314.375 243.713 325.864C248.472 337.353 256.53 347.172 266.87 354.081C277.21 360.99 289.366 364.678 301.802 364.678C318.478 364.678 334.47 358.053 346.262 346.262C358.053 334.47 364.677 318.478 364.677 301.802ZM374.612 396.115L383.54 405.044L392.468 396.115L383.54 387.187L374.612 396.115ZM299.161 471.566L308.089 480.494L317.018 471.566L308.089 462.637L299.161 471.566ZM72.8098 169.764L81.7381 178.692L90.6664 169.764L81.7381 160.836L72.8098 169.764ZM352.102 201.202H339.527V213.777H352.102V201.202ZM525.513 396.115L534.441 405.044L543.369 396.115L534.441 387.187L525.513 396.115ZM148.26 94.3135L157.189 103.242L166.117 94.3135L157.189 85.3852L148.26 94.3135ZM148.26 396.115L157.189 405.044L166.117 396.115L157.189 387.187L148.26 396.115ZM414.978 440.128H427.553V427.553H414.978V440.128ZM223.711 396.115L232.639 405.044L241.567 396.115L232.639 387.187L223.711 396.115ZM223.711 547.016L232.639 555.945L241.567 547.016L232.639 538.088L223.711 547.016ZM264.077 515.579H276.652V503.003H264.077V515.579ZM72.8098 320.665L81.7381 329.593L90.6664 320.665L81.7381 311.737L72.8098 320.665ZM72.8098 471.566L81.7381 480.494L90.6664 471.566L81.7381 462.637L72.8098 471.566ZM414.978 289.227H427.553V276.652H414.978V289.227ZM490.428 364.678H503.003V352.103H490.428V364.678ZM276.652 125.751H264.077V138.326H276.652V125.751ZM148.26 169.764L157.189 178.692L166.117 169.764L157.189 160.836L148.26 169.764Z" fill="white"/>
</svg>
