<svg width="601" height="601" viewBox="0 0 601 601" fill="none" xmlns="http://www.w3.org/2000/svg">
<path d="M329.808 282.21C329.808 265.793 316.453 252.438 300.037 252.438C283.62 252.438 270.266 265.793 270.266 282.21C270.266 298.626 283.62 311.981 300.037 311.981C316.453 311.981 329.808 298.626 329.808 282.21Z" fill="white"/>
<path d="M299.731 323.746C263.655 323.746 234.008 353.097 234.008 389.173V452.744C254.049 461.501 276.63 466.365 300.027 466.365C323.422 466.365 346.005 461.5 366.046 452.744V389.173C366.046 371.703 358.797 355.271 346.441 342.905C334.077 330.551 317.201 323.746 299.731 323.746Z" fill="white"/>
<path d="M300.039 133.703C208.324 133.703 133.633 208.319 133.633 300.034C133.633 363.716 169.179 419.144 222.231 447.083V389.171C222.231 355.076 244.772 326.094 275.491 315.901C265.03 308.351 258.477 296.064 258.477 282.206C258.477 259.302 277.144 240.668 300.048 240.668C322.952 240.668 341.624 259.302 341.624 282.206C341.624 296.051 334.871 308.327 324.427 315.878C335.719 319.606 346.27 325.93 354.929 334.58C369.51 349.174 377.847 368.559 377.847 389.171V447.084C430.898 419.144 466.445 363.716 466.445 300.035C466.445 208.319 391.754 133.703 300.039 133.703Z" fill="white"/>
<path d="M300.043 89.4229C303.292 89.4229 305.938 86.7892 305.938 83.5402V5.88278C305.938 2.63369 303.292 0 300.043 0C296.794 0 294.148 2.63369 294.148 5.88278V83.539C294.148 86.7881 296.794 89.4229 300.043 89.4229Z" fill="white"/>
<path d="M300.043 510.648C296.794 510.648 294.148 513.282 294.148 516.531V594.187C294.148 597.436 296.794 600.07 300.043 600.07C303.292 600.07 305.938 597.436 305.938 594.187V516.531C305.938 513.282 303.292 510.648 300.043 510.648Z" fill="white"/>
<path d="M453.125 152.83C454.63 152.83 456.137 152.256 457.284 151.107L512.195 96.1955C514.493 93.8978 514.493 90.1724 512.195 87.8747C509.9 85.5782 506.172 85.5782 503.877 87.8747L448.965 142.786C446.668 145.084 446.668 148.809 448.965 151.106C450.114 152.256 451.62 152.83 453.125 152.83Z" fill="white"/>
<path d="M142.783 448.965L87.8717 503.877C85.574 506.173 85.574 509.899 87.8717 512.196C89.02 513.346 90.5266 513.92 92.0309 513.92C93.5364 513.92 95.043 513.346 96.1901 512.196L151.102 457.285C153.399 454.988 153.399 451.263 151.102 448.966C148.807 446.668 145.08 446.668 142.783 448.965Z" fill="white"/>
<path d="M594.187 294.145H516.531C513.282 294.145 510.648 296.79 510.648 300.039C510.648 303.288 513.282 305.934 516.531 305.934H594.187C597.436 305.934 600.07 303.288 600.07 300.039C600.07 296.79 597.436 294.145 594.187 294.145Z" fill="white"/>
<path d="M89.4229 300.039C89.4229 296.79 86.7892 294.145 83.5402 294.145H5.88278C2.63369 294.145 0 296.79 0 300.039C0 303.288 2.63369 305.934 5.88278 305.934H83.539C86.7892 305.934 89.4229 303.288 89.4229 300.039Z" fill="white"/>
<path d="M457.284 448.965C454.989 446.668 451.261 446.668 448.965 448.965C446.668 451.262 446.668 454.987 448.965 457.284L503.877 512.195C505.025 513.345 506.531 513.919 508.036 513.919C509.542 513.919 511.048 513.345 512.195 512.195C514.493 509.899 514.493 506.173 512.195 503.876L457.284 448.965Z" fill="white"/>
<path d="M142.783 151.114C143.931 152.262 145.438 152.837 146.942 152.837C148.448 152.837 149.953 152.263 151.102 151.114C153.399 148.816 153.399 145.09 151.102 142.794L96.1913 87.8825C93.896 85.586 90.1682 85.586 87.8717 87.8825C85.574 90.1803 85.574 93.9056 87.8717 96.2033L142.783 151.114Z" fill="white"/>
</svg>
