<svg width="600" height="600" viewBox="0 0 600 600" fill="none" xmlns="http://www.w3.org/2000/svg">
<path d="M40.1604 150.288C40.1395 150.344 40.0976 150.4 40.0837 150.449C40.0558 150.56 40.0697 150.665 40.0558 150.776C40.0488 150.888 40 150.965 40 151.076V230.516V276.663V299.412V322.488V368.635V448.075C40 448.186 40.0488 448.263 40.0558 448.375C40.0697 448.486 40.0558 448.598 40.0837 448.709C40.0976 448.765 40.1395 448.814 40.1604 448.863C40.2092 449.009 40.2859 449.135 40.3557 449.267C40.4324 449.414 40.5091 449.546 40.6207 449.672C40.7253 449.79 40.8438 449.874 40.9694 449.979C41.06 450.048 41.1158 450.132 41.2204 450.195L110.444 490.079L149.986 513.149H149.993V513.156L170.085 524.683L189.863 536.218L189.877 536.225L229.419 558.967C229.419 558.967 229.419 558.974 229.426 558.974L298.649 598.858C298.649 598.865 298.656 598.858 298.663 598.865C298.712 598.893 298.782 598.879 298.83 598.907C299.165 599.06 299.514 599.179 299.855 599.179C299.953 599.179 300.044 599.109 300.141 599.102C300.462 599.06 300.783 599.012 301.062 598.851C301.069 598.851 301.069 598.851 301.076 598.851L369.971 558.967L409.827 536.232L409.841 536.225C409.848 536.218 409.855 536.218 409.862 536.218L429.64 524.683L449.418 513.149C449.425 513.149 449.425 513.142 449.432 513.135L489.295 490.072L558.191 450.188C558.288 450.132 558.337 450.048 558.421 449.986C558.553 449.888 558.679 449.79 558.79 449.658C558.825 449.623 558.881 449.595 558.916 449.553C558.979 449.463 559 449.365 559.055 449.274C559.139 449.135 559.202 449.016 559.258 448.863C559.272 448.807 559.313 448.765 559.327 448.716C559.362 448.605 559.341 448.486 559.355 448.375C559.369 448.27 559.418 448.186 559.418 448.075V368.628V322.481V299.405V276.656V230.509V151.076C559.418 150.965 559.369 150.881 559.355 150.776C559.341 150.665 559.362 150.553 559.327 150.442C559.32 150.407 559.293 150.379 559.286 150.344C559.279 150.323 559.258 150.309 559.258 150.288C559.202 150.142 559.132 150.009 559.055 149.87C559 149.779 558.979 149.681 558.916 149.598C558.881 149.549 558.825 149.528 558.79 149.479C558.679 149.354 558.56 149.256 558.421 149.158C558.337 149.089 558.274 149.005 558.184 148.949L489.323 109.072L449.46 86.0025C449.453 86.0025 449.453 86.0025 449.446 85.9955L429.668 74.4606C429.661 74.4606 429.661 74.4606 429.661 74.4537H429.647C429.647 74.4537 429.647 74.4467 429.64 74.4467L409.862 63.2466L369.999 40.1838L301.104 0.292904C301.02 0.244086 300.93 0.244086 300.839 0.202243C300.671 0.125529 300.511 0.0557894 300.33 0.0278937C300.176 -2.02319e-06 300.03 0 299.876 0C299.723 0 299.577 -2.02319e-06 299.423 0.0278937C299.249 0.0627633 299.081 0.132503 298.914 0.202243C298.837 0.237112 298.754 0.237113 298.684 0.28593C298.677 0.28593 298.67 0.278956 298.656 0.28593L229.433 40.1768C229.433 40.1768 229.433 40.1838 229.426 40.1838L189.87 63.2605C189.87 63.2605 189.87 63.2605 189.863 63.2675L170.12 74.4537C170.12 74.4537 170.12 74.4606 170.113 74.4606H170.106L150 85.9955C150 86.0025 149.993 86.0025 149.993 86.0025L110.451 109.072L41.2274 148.963C41.2274 148.963 41.2274 148.97 41.2204 148.97C41.1367 149.019 41.0879 149.096 41.0182 149.151C41.0042 149.158 40.9973 149.172 40.9833 149.179C40.8578 149.277 40.7392 149.368 40.6346 149.486C40.5998 149.535 40.537 149.57 40.5021 149.612C40.4603 149.681 40.4463 149.758 40.4045 149.814C40.3905 149.842 40.3836 149.87 40.3696 149.891C40.2859 150.016 40.2162 150.135 40.1604 150.288ZM44.8887 231.158L65.5176 195.507L93.5109 244.136L44.8957 272.423V231.158H44.8887ZM111.002 193.066L146.352 213.688L97.7302 241.681L69.7438 193.066H111.002ZM488.765 193.066H530.009L501.716 241.688L453.101 213.695L488.765 193.066ZM488.765 405.743L453.108 385.114L501.723 357.121L530.016 405.743H488.765ZM111.002 405.743H69.7438L97.7302 357.128L146.352 385.121L111.002 405.743ZM151.22 216.527L199.305 244.213L151.22 257.324L103.135 244.213L151.22 216.527ZM448.212 216.527L496.297 244.213L448.212 257.324L400.134 244.213L448.212 216.527ZM394.164 247.644L443.511 261.111L407.645 296.978H308.963L394.164 247.644ZM448.212 382.29L400.168 354.624L448.212 341.813L496.262 354.624L448.212 382.29ZM394.178 351.179L308.963 301.846H407.638L443.518 338.019L394.178 351.179ZM151.22 382.29L103.177 354.624L151.22 341.813L199.264 354.624L151.22 382.29ZM205.268 351.179L155.942 338.019L192.122 301.839H290.782L205.268 351.179ZM192.115 296.971L155.942 261.097L205.275 247.637L290.775 296.964L192.115 296.971ZM149.965 262.045L185.183 296.971H129.559L101.901 248.934L149.965 262.045ZM129.559 301.846H185.218L149.958 337.106L101.873 349.931L129.559 301.846ZM153.661 386.53L201.732 358.85L188.914 406.929L153.661 442.182V386.53ZM207.709 355.405L293.23 306.065L243.89 391.586L194.556 404.746L207.709 355.405ZM297.443 308.52V407.173L261.262 443.347L248.116 394.027L297.443 308.52ZM262.189 449.323L297.443 414.07V469.715L249.364 497.394L262.189 449.323ZM302.324 414.112L337.25 449.33L350.361 497.388L302.324 469.729V414.112ZM338.198 443.347L302.324 407.18V308.52L351.644 394.02L338.198 443.347ZM306.557 306.086L391.73 355.398L405.19 404.732L355.884 391.572L306.557 306.086ZM410.853 406.922L397.742 358.864L445.778 386.523V442.14L410.853 406.922ZM449.481 337.106L414.514 301.846H469.873L497.559 349.931L449.481 337.106ZM469.88 296.971H414.549L449.481 262.038L497.538 248.934L469.88 296.971ZM445.778 212.286L397.742 239.945L410.853 191.895L445.778 156.962V212.286ZM391.737 243.411L306.585 292.71L355.884 207.551L405.183 194.105L391.737 243.411ZM302.324 290.318V191.637L338.191 155.77L351.651 205.117L302.324 290.318ZM337.257 149.807L302.324 184.739V129.415L350.361 101.757L337.257 149.807ZM297.443 184.774L262.189 149.807L249.371 101.736L297.45 129.415V184.774H297.443ZM261.276 155.777L297.45 191.651V290.318L248.123 205.117L261.276 155.777ZM243.883 207.558L293.195 292.745L207.702 243.418L194.556 194.112L243.883 207.558ZM188.921 191.895L201.739 239.966L153.668 212.286V156.927L188.921 191.895ZM44.8887 278.064L95.9448 248.362L123.931 296.971H44.8887V278.064ZM123.924 301.846L95.9379 350.461L44.8887 321.066V301.846H123.924ZM93.497 354.694L65.5037 403.316L44.8817 367.972V326.708L93.497 354.694ZM44.8887 377.659L62.7001 408.191L44.8887 438.981V377.659ZM66.9263 410.625H107.438L87.1856 445.634H46.674L66.9263 410.625ZM113.449 409.976L148.779 389.361V445.627H92.8205L113.449 409.976ZM192.373 410.374L240.459 397.549L212.772 445.634H157.113L192.373 410.374ZM244.664 400.025L257.475 448.068L244.664 496.111L216.998 448.068L244.664 400.025ZM297.443 475.364V516.315L276.814 551.965L248.827 503.35L297.443 475.364ZM299.883 521.831L320.143 556.847L299.883 591.863L279.624 556.847L299.883 521.831ZM302.324 516.315V475.364L350.94 503.357L322.953 551.972L302.324 516.315ZM341.971 448.068L355.089 399.983L382.775 448.068L355.089 496.153L341.971 448.068ZM387.002 445.627L359.315 397.542L407.393 410.367L442.368 445.627H387.002ZM450.66 389.34L486.317 409.969L506.946 445.627H450.66V389.34ZM512.588 445.627L492.336 410.618H532.834L552.793 445.627H512.588ZM554.55 438.855L537.06 408.191L554.55 377.778V438.855ZM554.55 367.972L534.235 403.302L505.949 354.68L554.55 326.694V367.972ZM554.55 321.066L503.501 350.461L475.508 301.846H554.55V321.066ZM475.508 296.971L503.501 248.362L554.55 278.064V296.971H475.508ZM505.942 244.136L534.235 195.521L554.557 231.165V272.416L505.942 244.136ZM554.55 221.297L537.06 190.632L554.55 160.219V221.297ZM532.84 188.191H492.35L512.574 153.51H552.772L532.84 188.191ZM486.317 188.847L450.66 209.476V153.517H506.925L486.317 188.847ZM407.4 188.443L359.343 201.547L387.002 153.51H442.333L407.4 188.443ZM355.089 199.154L341.971 151.069L355.089 102.984L382.775 151.069L355.089 199.154ZM302.324 123.78V82.5155L322.939 47.1716L350.94 95.7939L302.324 123.78ZM299.883 77.0061L279.631 42.2899L299.883 7.27381L320.136 42.2899L299.883 77.0061ZM297.443 82.5155V123.78L248.827 95.7869L276.821 47.1647L297.443 82.5155ZM257.475 151.076L244.664 199.12L216.998 151.076L244.664 103.033L257.475 151.076ZM212.765 153.51L240.424 201.547L192.359 188.436L157.141 153.51H212.765ZM148.779 209.455L113.449 188.847L92.8415 153.517H148.779V209.455ZM87.1926 153.51L107.417 188.191H66.9194L46.695 153.51H87.1926ZM62.7001 190.639L44.8887 221.429V160.107L62.7001 190.639ZM87.1856 450.502L104.99 481.285L51.5697 450.502H87.1856ZM113.449 486.159L92.8205 450.509H148.779V506.774L113.449 486.159ZM153.661 450.502H209.962L170.433 519.223L153.668 509.599L153.661 450.502ZM214.181 452.957L242.167 501.572L191.111 531.274L174.66 521.678L214.181 452.957ZM244.601 505.798L272.587 554.406H231.316L195.979 534.084L244.601 505.798ZM275.405 559.281L293.216 590.064L239.789 559.281H275.405ZM324.362 559.281H359.685L306.564 590.036L324.362 559.281ZM368.13 554.406H327.179L355.173 505.798L403.781 534.077L368.13 554.406ZM408.656 531.267L357.6 501.565L385.586 452.95L425.114 521.671L408.656 531.267ZM429.326 519.209L389.805 450.502H445.771V509.62L429.326 519.209ZM450.66 450.502H506.946L486.317 486.159L450.66 506.788V450.502ZM512.588 450.502H547.911L494.791 481.257L512.588 450.502ZM512.588 148.635L494.791 117.88L547.911 148.635H512.588ZM486.317 112.978L506.946 148.635H450.66V92.3418L486.317 112.978ZM445.778 148.635H389.805L429.326 79.9142L445.771 89.5104L445.778 148.635ZM385.586 146.187L357.607 97.5862L408.67 68.1841L425.093 77.4873L385.586 146.187ZM355.166 93.353L327.172 44.7377H368.116L403.767 65.3666L355.166 93.353ZM324.362 39.863L306.564 9.10795L359.692 39.863H324.362ZM275.405 39.863H239.789L293.216 9.08005L275.405 39.863ZM231.337 44.7377H272.594L244.601 93.353L195.979 65.3597L231.337 44.7377ZM191.097 68.1841L242.16 97.5862L214.181 146.187L174.667 77.4873L191.097 68.1841ZM170.433 79.9073L209.962 148.635H153.661V89.5243L170.433 79.9073ZM148.779 148.635H92.8205L113.449 112.978L148.779 92.3697V148.635ZM87.1856 148.635H51.5697L104.99 117.852L87.1856 148.635Z" fill="white"/>
</svg>
