<svg width="634" height="634" viewBox="0 0 634 634" fill="none" xmlns="http://www.w3.org/2000/svg">
<path d="M613.8 544.518C613.852 518.525 620.241 492.937 632.412 469.971C633.214 468.464 633.613 466.776 633.571 465.07C633.528 463.363 633.045 461.697 632.168 460.233C631.291 458.768 630.051 457.555 628.567 456.712C627.083 455.868 625.407 455.422 623.7 455.418H422.829C523.71 362.952 540.936 248.508 503.613 183.168C487.377 154.953 458.073 132.876 419.067 119.313C417.629 118.812 416.095 118.65 414.584 118.839C413.073 119.028 411.626 119.562 410.355 120.402C384.865 134.981 356.064 142.787 326.7 143.073C325.212 111.543 335.083 80.5263 354.519 55.6558C366.853 40.108 382.516 27.5234 400.356 18.8278C401.526 18.2558 402.572 17.4589 403.434 16.4826C404.296 15.5063 404.958 14.3698 405.38 13.138C405.803 11.9061 405.979 10.603 405.899 9.3031C405.818 8.00318 405.482 6.73189 404.91 5.56181C404.338 4.39173 403.541 3.34578 402.565 2.48368C401.589 1.62158 400.452 0.96021 399.22 0.537332C396.732 -0.316709 394.007 -0.147472 391.644 1.00781C371.051 11.007 352.955 25.4842 338.679 43.3798C332.168 51.6343 326.559 60.5622 321.948 70.0108C287.254 53.6478 247.692 50.8628 211.049 62.2041C174.405 73.5454 143.333 98.1915 123.948 131.292C123.256 132.458 122.811 133.754 122.641 135.099C122.471 136.445 122.579 137.811 122.958 139.113C123.331 140.402 123.962 141.603 124.812 142.641C125.663 143.679 126.717 144.533 127.908 145.152C135.806 149.196 144.057 152.51 152.559 155.052C143.614 163.139 135.968 172.556 129.888 182.97C92.565 248.31 110.088 362.754 210.672 455.22H89.1C65.4692 455.22 42.8063 464.607 26.0968 481.317C9.3873 498.026 0 520.689 0 544.32C0 567.951 9.3873 590.613 26.0968 607.323C42.8063 624.032 65.4692 633.42 89.1 633.42H623.7C625.407 633.415 627.083 632.969 628.567 632.126C630.051 631.282 631.291 630.069 632.168 628.605C633.045 627.14 633.528 625.474 633.571 623.768C633.613 622.062 633.214 620.373 632.412 618.867C620.215 595.981 613.824 570.451 613.8 544.518ZM306.9 143.073C297.474 142.687 288.083 141.695 278.784 140.103C289.604 133.562 299.579 125.715 308.484 116.739C307.371 125.472 306.842 134.269 306.9 143.073ZM219.78 80.4058C249.214 71.9893 280.637 73.8397 308.88 85.6528C291.356 110.649 265.826 128.915 236.511 137.43C207.069 145.775 175.67 143.926 147.411 132.183C164.933 107.314 190.322 89.0737 219.483 80.4058H219.78ZM147.213 193.068C154.705 180.32 164.83 169.317 176.913 160.794C184.101 161.751 191.343 162.247 198.594 162.279C213.019 162.321 227.38 160.355 241.263 156.438C244.233 155.646 246.906 154.755 249.678 153.765C271.355 160.079 293.826 163.247 316.404 163.17H316.8C351.666 164.055 386.171 155.94 416.988 139.608C445.6 148.83 470.105 167.733 486.288 193.068C521.532 254.547 500.841 366.318 394.119 454.032C343.618 438.885 289.784 438.885 239.283 454.032C132.66 366.318 111.969 254.547 147.213 193.068ZM89.1 613.818C70.7205 613.818 53.0938 606.517 40.0975 593.52C27.1012 580.524 19.8 562.897 19.8 544.518C19.8 526.138 27.1012 508.512 40.0975 495.515C53.0938 482.519 70.7205 475.218 89.1 475.218H608.058C600.031 494.075 595.277 514.163 594 534.618H99C96.3744 534.618 93.8563 535.661 91.9996 537.517C90.143 539.374 89.1 541.892 89.1 544.518C89.1 547.143 90.143 549.662 91.9996 551.518C93.8563 553.375 96.3744 554.418 99 554.418H594C595.125 574.864 599.78 594.96 607.761 613.818H89.1Z" fill="white"/>
</svg>
