<svg width="604" height="604" viewBox="0 0 604 604" fill="none" xmlns="http://www.w3.org/2000/svg">
<path d="M602 302C602 295.8 600.329 289.602 597.111 284.03C593.893 278.459 589.131 273.518 583.177 269.736C577.223 265.954 570.082 263.336 562.281 262.232C554.481 261.129 546.028 261.543 537.545 263.599C529.061 265.654 520.554 269.351 512.646 274.564C504.738 279.777 497.436 286.504 491.267 294.391C485.097 302.278 480.066 311.321 476.526 320.992C472.985 330.662 470.938 340.953 470.508 351.242C470.079 361.531 471.266 371.812 473.948 381.459C476.629 391.107 480.801 400.117 486.112 407.959C491.423 415.801 497.868 422.472 504.919 427.617C511.97 432.763 519.621 436.381 527.25 438.346C534.879 440.312 542.478 440.625 549.427 439.41C556.375 438.195 562.665 435.453 567.77 431.536C572.876 427.62 576.791 422.534 579.164 416.805C581.537 411.077 582.365 404.712 581.524 398.333C580.683 391.953 578.174 385.566 574.12 379.794C570.067 374.021 564.471 368.869 557.687 364.865C550.903 360.86 542.935 358.009 534.31 356.661C525.686 355.314 516.412 355.473 507.111 357.263C497.81 359.053 488.489 362.473 479.771 367.399C471.053 372.325 462.945 378.755 455.973 386.334C449.001 393.913 443.172 402.638 438.837 411.979C434.503 421.321 431.666 431.273 430.451 441.212C429.236 451.152 429.643 461.072 431.549 470.35C433.455 479.628 436.856 488.257 441.401 495.709C445.947 503.161 451.631 509.432 457.927 514.167C464.222 518.903 471.123 522.1 478.008 523.636C484.892 525.172 491.753 525.046 497.969 523.382C504.184 521.717 509.748 518.516 514.132 514.132C518.516 509.748 521.717 504.184 523.382 497.969C525.046 491.753 525.172 484.892 523.636 478.008C522.1 471.124 518.902 464.222 514.167 457.927C509.432 451.631 503.161 445.947 495.709 441.401C488.257 436.856 479.628 433.455 470.35 431.549C461.072 429.643 451.152 429.236 441.212 430.451C431.273 431.666 421.321 434.503 411.979 438.837C402.638 443.172 393.913 449.001 386.334 455.973C378.755 462.945 372.325 471.054 367.399 479.771C362.473 488.489 359.053 497.81 357.263 507.111C355.473 516.412 355.314 525.686 356.661 534.31C358.008 542.935 360.86 550.903 364.865 557.687C368.869 564.471 374.021 570.067 379.794 574.12C385.566 578.174 391.953 580.683 398.333 581.524C404.712 582.365 411.077 581.537 416.805 579.164C422.534 576.791 427.62 572.876 431.536 567.771C435.453 562.665 438.195 556.375 439.41 549.427C440.625 542.479 440.312 534.879 438.346 527.25C436.381 519.621 432.763 511.97 427.617 504.919C422.472 497.868 415.801 491.423 407.959 486.112C400.116 480.801 391.107 476.629 381.459 473.948C371.812 471.266 361.531 470.079 351.242 470.509C340.953 470.938 330.662 472.985 320.992 476.526C311.321 480.066 302.278 485.097 294.391 491.267C286.504 497.436 279.777 504.739 274.564 512.646C269.351 520.554 265.654 529.061 263.599 537.545C261.543 546.028 261.129 554.481 262.232 562.281C263.335 570.082 265.954 577.223 269.736 583.177C273.518 589.131 278.458 593.893 284.03 597.111C289.602 600.329 295.8 602 302 602C308.201 602 314.398 600.329 319.97 597.111C325.542 593.893 330.482 589.131 334.264 583.177C338.046 577.223 340.665 570.082 341.768 562.281C342.871 554.481 342.457 546.028 340.401 537.545C338.346 529.061 334.649 520.554 329.436 512.646C324.223 504.739 317.496 497.436 309.609 491.267C301.722 485.097 292.679 480.066 283.008 476.526C273.338 472.985 263.047 470.938 252.758 470.509C242.469 470.079 232.189 471.266 222.541 473.948C212.893 476.629 203.884 480.801 196.041 486.112C188.199 491.423 181.528 497.868 176.383 504.919C171.237 511.97 167.619 519.621 165.654 527.25C163.688 534.879 163.375 542.479 164.59 549.427C165.806 556.375 168.548 562.665 172.464 567.771C176.38 572.876 181.466 576.791 187.195 579.164C192.923 581.537 199.288 582.365 205.668 581.524C212.047 580.683 218.434 578.174 224.206 574.12C229.979 570.067 235.131 564.471 239.135 557.687C243.14 550.903 245.992 542.935 247.339 534.31C248.686 525.686 248.527 516.412 246.737 507.111C244.947 497.81 241.527 488.489 236.601 479.771C231.675 471.054 225.245 462.945 217.666 455.973C210.087 449.001 201.362 443.172 192.021 438.837C182.679 434.503 172.727 431.666 162.788 430.451C152.848 429.236 142.928 429.643 133.65 431.549C124.372 433.455 115.743 436.856 108.291 441.401C100.839 445.947 94.5684 451.631 89.833 457.927C85.0976 464.222 81.8997 471.124 80.3637 478.008C78.8277 484.892 78.9537 491.753 80.6185 497.969C82.283 504.184 85.4836 509.748 89.8681 514.132C94.2525 518.516 99.8162 521.717 106.031 523.382C112.247 525.046 119.108 525.172 125.992 523.636C132.877 522.1 139.778 518.903 146.074 514.167C152.369 509.432 158.054 503.161 162.599 495.709C167.144 488.257 170.545 479.628 172.451 470.35C174.357 461.072 174.764 451.152 173.549 441.212C172.334 431.273 169.497 421.321 165.163 411.979C160.828 402.638 154.999 393.913 148.027 386.334C141.055 378.755 132.947 372.325 124.229 367.399C115.511 362.473 106.19 359.053 96.8888 357.263C87.5881 355.473 78.314 355.314 69.6897 356.661C61.0655 358.009 53.0971 360.86 46.3129 364.865C39.5286 368.869 33.9331 374.021 29.8795 379.794C25.826 385.566 23.3168 391.953 22.4761 398.333C21.6355 404.712 22.4627 411.077 24.8362 416.805C27.209 422.534 31.1243 427.62 36.2295 431.536C41.3348 435.453 47.6253 438.195 54.5734 439.41C61.5215 440.625 69.1212 440.312 76.7499 438.346C84.3786 436.381 92.0297 432.763 99.0807 427.617C106.132 422.472 112.577 415.801 117.888 407.959C123.199 400.117 127.371 391.107 130.052 381.459C132.734 371.812 133.921 361.531 133.491 351.242C133.062 340.953 131.015 330.662 127.474 320.992C123.934 311.321 118.903 302.278 112.733 294.391C106.564 286.504 99.2615 279.777 91.3537 274.564C83.4459 269.351 74.9389 265.654 66.4555 263.599C57.972 261.543 49.5188 261.129 41.7186 262.232C33.9184 263.336 26.7772 265.954 20.8232 269.736C14.8691 273.518 10.1067 278.459 6.88879 284.03C3.6709 289.602 2 295.8 2 302C2 308.201 3.6709 314.398 6.88879 319.97C10.1067 325.542 14.8691 330.482 20.8232 334.264C26.7772 338.046 33.9184 340.665 41.7186 341.768C49.5188 342.871 57.972 342.457 66.4555 340.401C74.9389 338.346 83.4459 334.649 91.3537 329.436C99.2615 324.223 106.564 317.497 112.733 309.609C118.903 301.722 123.934 292.679 127.474 283.009C131.015 273.338 133.062 263.047 133.491 252.758C133.921 242.469 132.734 232.189 130.052 222.541C127.371 212.893 123.199 203.884 117.888 196.041C112.577 188.199 106.132 181.528 99.0807 176.383C92.0297 171.237 84.3786 167.62 76.7499 165.654C69.1212 163.688 61.5215 163.375 54.5734 164.59C47.6253 165.806 41.3348 168.548 36.2295 172.464C31.1243 176.38 27.209 181.466 24.8362 187.195C22.4633 192.924 21.6355 199.288 22.4761 205.668C23.3168 212.047 25.826 218.434 29.8795 224.206C33.9331 229.979 39.5286 235.131 46.3129 239.135C53.0971 243.14 61.0655 245.992 69.6897 247.339C78.314 248.686 87.5881 248.527 96.8888 246.737C106.19 244.947 115.511 241.527 124.229 236.601C132.947 231.675 141.055 225.245 148.027 217.666C154.999 210.087 160.828 201.362 165.163 192.021C169.497 182.679 172.334 172.727 173.549 162.788C174.764 152.848 174.357 142.928 172.451 133.65C170.545 124.373 167.144 115.743 162.599 108.291C158.054 100.839 152.369 94.5686 146.074 89.8331C139.778 85.0977 132.877 81.8998 125.992 80.3639C119.108 78.8279 112.247 78.9539 106.031 80.6184C99.8162 82.283 94.2525 85.4836 89.8681 89.868C85.4836 94.2525 82.283 99.8161 80.6185 106.031C78.9539 112.247 78.8279 119.108 80.3637 125.992C81.8997 132.876 85.0976 139.778 89.833 146.073C94.5684 152.369 100.839 158.053 108.291 162.599C115.743 167.144 124.372 170.545 133.65 172.451C142.928 174.357 152.848 174.764 162.788 173.549C172.727 172.334 182.679 169.497 192.021 165.163C201.362 160.828 210.087 154.999 217.666 148.027C225.245 141.055 231.675 132.946 236.601 124.229C241.527 115.511 244.947 106.19 246.737 96.8888C248.527 87.588 248.687 78.3139 247.339 69.6897C245.992 61.0654 243.14 53.097 239.135 46.3128C235.131 39.5286 229.979 33.9331 224.206 29.8795C218.434 25.826 212.047 23.3167 205.668 22.4761C199.288 21.6354 192.923 22.4633 187.195 24.8362C181.466 27.209 176.38 31.1243 172.464 36.2295C168.548 41.3347 165.806 47.6253 164.59 54.5734C163.375 61.5215 163.688 69.1212 165.654 76.7498C167.619 84.3785 171.237 92.0297 176.383 99.0807C181.528 106.132 188.199 112.577 196.041 117.888C203.884 123.199 212.893 127.371 222.541 130.052C232.189 132.734 242.469 133.921 252.758 133.491C263.047 133.062 273.338 131.015 283.008 127.474C292.679 123.934 301.722 118.903 309.609 112.733C317.496 106.564 324.223 99.2615 329.436 91.3537C334.649 83.4459 338.346 74.9388 340.401 66.4554C342.457 57.972 342.871 49.5188 341.768 41.7186C340.665 33.9184 338.046 26.7772 334.264 20.8231C330.482 14.869 325.542 10.1067 319.97 6.88877C314.398 3.67089 308.201 2 302 2C295.8 2 289.602 3.67089 284.03 6.88877C278.458 10.1067 273.518 14.869 269.736 20.8231C265.954 26.7772 263.335 33.9184 262.232 41.7186C261.129 49.5188 261.543 57.972 263.599 66.4554C265.654 74.9388 269.351 83.4459 274.564 91.3537C279.777 99.2615 286.504 106.564 294.391 112.733C302.278 118.903 311.321 123.934 320.992 127.474C330.662 131.015 340.953 133.062 351.242 133.491C361.531 133.921 371.812 132.734 381.459 130.052C391.107 127.371 400.116 123.199 407.959 117.888C415.801 112.577 422.472 106.132 427.617 99.0807C432.763 92.0297 436.381 84.3785 438.346 76.7498C440.312 69.1212 440.625 61.5215 439.41 54.5734C438.195 47.6253 435.453 41.3347 431.536 36.2295C427.62 31.1243 422.534 27.209 416.805 24.8362C411.077 22.4633 404.712 21.6354 398.333 22.4761C391.953 23.3167 385.566 25.826 379.794 29.8795C374.021 33.9331 368.869 39.5286 364.865 46.3128C360.86 53.097 358.008 61.0654 356.661 69.6897C355.314 78.3139 355.473 87.588 357.263 96.8888C359.053 106.19 362.473 115.511 367.399 124.229C372.325 132.946 378.755 141.055 386.334 148.027C393.913 154.999 402.638 160.828 411.979 165.163C421.321 169.497 431.273 172.334 441.212 173.549C451.152 174.764 461.072 174.357 470.35 172.451C479.628 170.545 488.257 167.144 495.709 162.599C503.161 158.053 509.432 152.369 514.167 146.073C518.902 139.778 522.1 132.876 523.636 125.992C525.172 119.108 525.046 112.247 523.382 106.031C521.717 99.8161 518.516 94.2525 514.132 89.868C509.748 85.4836 504.184 82.283 497.969 80.6184C491.753 78.9539 484.892 78.8279 478.008 80.3639C471.123 81.8998 464.222 85.0977 457.927 89.8331C451.631 94.5686 445.947 100.839 441.401 108.291C436.856 115.743 433.455 124.373 431.549 133.65C429.643 142.928 429.236 152.848 430.451 162.788C431.666 172.727 434.503 182.679 438.837 192.021C443.172 201.362 449.001 210.087 455.973 217.666C462.945 225.245 471.053 231.675 479.771 236.601C488.489 241.527 497.81 244.947 507.111 246.737C516.412 248.527 525.686 248.687 534.31 247.339C542.935 245.992 550.903 243.14 557.687 239.135C564.471 235.131 570.067 229.979 574.12 224.206C578.174 218.434 580.683 212.047 581.524 205.668C582.365 199.288 581.537 192.924 579.164 187.195C576.791 181.466 572.876 176.38 567.77 172.464C562.665 168.548 556.375 165.806 549.427 164.59C542.478 163.375 534.879 163.688 527.25 165.654C519.621 167.62 511.97 171.237 504.919 176.383C497.868 181.528 491.423 188.199 486.112 196.041C480.801 203.884 476.629 212.893 473.948 222.541C471.266 232.189 470.079 242.469 470.508 252.758C470.938 263.047 472.985 273.338 476.526 283.009C480.066 292.679 485.097 301.722 491.267 309.609C497.436 317.497 504.738 324.223 512.646 329.436C520.554 334.649 529.061 338.346 537.545 340.401C546.028 342.457 554.481 342.871 562.281 341.768C570.082 340.665 577.223 338.046 583.177 334.264C589.131 330.482 593.893 325.542 597.111 319.97C600.329 314.398 602 308.201 602 302Z" stroke="white" stroke-width="4"/>
</svg>
