<svg width="960" height="778" viewBox="0 0 960 778" fill="none" xmlns="http://www.w3.org/2000/svg">
<g clip-path="url(#clip0_51_2)">
<path d="M959.999 202.519L954.729 195.559C755.269 -68.0706 357.989 -64.5706 163.199 202.519H959.999Z" fill="white"/>
<path d="M959.999 202.52L954.729 209.48C755.269 473.1 357.989 469.61 163.199 202.52H959.999Z" fill="white"/>
<path d="M660.43 642.349C660.43 582.309 709.17 533.569 769.21 533.569C769.21 593.609 720.47 642.349 660.43 642.349Z" fill="white"/>
<path d="M660.43 642.35C720.47 642.35 769.21 691.09 769.21 751.13C709.17 751.13 660.43 702.39 660.43 642.35Z" fill="white"/>
<path d="M129.32 642.349L132.83 637.708C265.78 461.988 530.59 464.319 660.42 642.349H129.32Z" fill="white"/>
<path d="M129.32 642.35L132.83 646.99C265.78 822.71 530.59 820.38 660.42 642.35H129.32Z" fill="white"/>
<path d="M0 39.3193C90.07 39.3193 163.2 112.449 163.2 202.519C73.13 202.519 0 129.389 0 39.3193Z" fill="white"/>
<path d="M0 365.709C0 275.639 73.13 202.509 163.2 202.509C163.2 292.579 90.07 365.709 0 365.709Z" fill="white"/>
</g>
<defs>
<clipPath id="clip0_51_2">
<rect width="960" height="778" fill="white"/>
</clipPath>
</defs>
</svg>
