<svg width="3997" height="2316" viewBox="0 0 3997 2316" fill="none" xmlns="http://www.w3.org/2000/svg">
<path d="M3997 2265.81H3599.48V2315.5H3997V2265.81Z" fill="white"/>
<path d="M3400.73 2265.81H3003.21V2315.5H3400.73V2265.81Z" fill="white"/>
<path d="M2809.42 2265.81H2411.91V2315.5H2809.42V2265.81Z" fill="white"/>
<path d="M2208.18 2265.81H1810.66V2315.5H2208.18V2265.81Z" fill="white"/>
<path d="M1611.91 2265.81H1214.39V2315.5H1611.91V2265.81Z" fill="white"/>
<path d="M1015.63 2265.81H618.118V2315.5H1015.63V2265.81Z" fill="white"/>
<path d="M416.876 2265.81H21.8447V2315.5H416.876V2265.81Z" fill="white"/>
<path d="M1015.63 1669.54H618.118V1719.22H1015.63V1669.54Z" fill="white"/>
<path d="M419.36 1669.54H21.8447V1719.22H419.36V1669.54Z" fill="white"/>
<path d="M1611.91 1669.54H1214.39V1719.22H1611.91V1669.54Z" fill="white"/>
<path d="M2809.42 1669.54H2411.91V1719.22H2809.42V1669.54Z" fill="white"/>
<path d="M3400.73 1669.54H3003.21V1719.22H3400.73V1669.54Z" fill="white"/>
<path d="M3997 1669.54H3599.48V1719.22H3997V1669.54Z" fill="white"/>
<path d="M2208.18 1669.54H1810.66V1719.22H2208.18V1669.54Z" fill="white"/>
<path d="M3997 1073.26H3599.48V1122.95H3997V1073.26Z" fill="white"/>
<path d="M3400.73 1073.26H3003.21V1122.95H3400.73V1073.26Z" fill="white"/>
<path d="M2809.42 1073.26H2411.91V1122.95H2809.42V1073.26Z" fill="white"/>
<path d="M2208.18 1073.26H1810.66V1122.95H2208.18V1073.26Z" fill="white"/>
<path d="M3992.03 476.989H3594.51V526.678H3992.03V476.989Z" fill="white"/>
<path d="M3395.76 476.989H2998.24V526.678H3395.76V476.989Z" fill="white"/>
<path d="M2804.45 476.989H2406.94V526.678H2804.45V476.989Z" fill="white"/>
<path d="M2203.21 476.989H1805.7V526.678H2203.21V476.989Z" fill="white"/>
<path d="M103.68 502.72L77.44 483.52L165.12 363.2L28.8 319.04L38.4 288.32L175.36 331.84V185.28H209.28V331.84L345.6 288.32L355.2 319.04L218.88 363.2L307.2 483.52L280.32 502.72L192 381.12L103.68 502.72ZM717.58 502.72L691.34 483.52L779.02 363.2L642.7 319.04L652.3 288.32L789.26 331.84V185.28H823.18V331.84L959.5 288.32L969.1 319.04L832.78 363.2L921.1 483.52L894.22 502.72L805.9 381.12L717.58 502.72ZM1331.48 502.72L1305.24 483.52L1392.92 363.2L1256.6 319.04L1266.2 288.32L1403.16 331.84V185.28H1437.08V331.84L1573.4 288.32L1583 319.04L1446.68 363.2L1535 483.52L1508.12 502.72L1419.8 381.12L1331.48 502.72ZM103.68 1142.72L77.44 1123.52L165.12 1003.2L28.8 959.04L38.4 928.32L175.36 971.84V825.28H209.28V971.84L345.6 928.32L355.2 959.04L218.88 1003.2L307.2 1123.52L280.32 1142.72L192 1021.12L103.68 1142.72ZM717.58 1142.72L691.34 1123.52L779.02 1003.2L642.7 959.04L652.3 928.32L789.26 971.84V825.28H823.18V971.84L959.5 928.32L969.1 959.04L832.78 1003.2L921.1 1123.52L894.22 1142.72L805.9 1021.12L717.58 1142.72ZM1331.48 1142.72L1305.24 1123.52L1392.92 1003.2L1256.6 959.04L1266.2 928.32L1403.16 971.84V825.28H1437.08V971.84L1573.4 928.32L1583 959.04L1446.68 1003.2L1535 1123.52L1508.12 1142.72L1419.8 1021.12L1331.48 1142.72Z" fill="white"/>
</svg>
