<svg width="620" height="620" viewBox="0 0 620 620" fill="none" xmlns="http://www.w3.org/2000/svg">
<path d="M171.203 244.815C274.337 123.302 303.038 51.6503 264.974 6C264.974 6 528.717 199.576 383.471 398.539C328.458 473.903 282.14 500.127 319.967 613.5C319.946 613.5 -46.8082 501.686 171.203 244.815Z" fill="white"/>
<path d="M436.839 540.791C359.916 593.495 349.11 604.801 348.07 607.258C348.144 607.474 348.205 607.704 348.259 607.913C348.259 607.913 347.773 607.933 348.07 607.258C341.577 583.95 311.64 530.693 398.648 435.106C446.775 382.233 474.41 265.29 459.411 237.419C459.411 237.426 603.078 427.168 436.839 540.791Z" fill="white"/>
</svg>
