<svg xmlns="http://www.w3.org/2000/svg" width="720" height="720" fill="none"><g fill="#fff" stroke="#fff" stroke-width="9.504" clip-path="url(#a)"><path d="M342.906 695.069V339.027c0-9.377 7.601-16.98 16.978-16.98s16.981 7.603 16.981 16.98v356.042c0 9.377-7.603 16.978-16.981 16.978-9.377 0-16.978-7.601-16.978-16.978ZM390.202 274.486l251.759-251.76c6.631-6.63 17.381-6.63 24.012 0 6.631 6.632 6.631 17.382 0 24.013L414.214 298.497c-6.631 6.631-17.381 6.631-24.012 0-6.631-6.629-6.631-17.38 0-24.011ZM77.74 22.727l251.759 251.759c6.629 6.631 6.629 17.382-.002 24.011-6.629 6.631-17.38 6.631-24.011.002L53.726 46.739c-6.63-6.63-6.63-17.382 0-24.012 6.631-6.631 17.382-6.631 24.013 0Z"/></g><defs><clipPath id="a"><path fill="#fff" d="M35 4h649.836v712.8H35z"/></clipPath></defs></svg>