<svg width="1152" height="676" viewBox="0 0 1152 676" fill="none" xmlns="http://www.w3.org/2000/svg">
<g clip-path="url(#clip0_605_498)">
<mask id="mask0_605_498" style="mask-type:luminance" maskUnits="userSpaceOnUse" x="0" y="0" width="1152" height="676">
<path d="M1152 0H0V676H1152V0Z" fill="white"/>
</mask>
<g mask="url(#mask0_605_498)">
<path d="M576.486 0C157.914 0 0 337.914 0 337.914C0 337.914 156.96 675.828 575.514 675.828C994.086 675.828 1152 337.914 1152 337.914C1152 337.914 995.04 0 576.486 0ZM576 570.384C447.822 570.384 343.53 466.092 343.53 337.914C343.53 209.736 447.822 105.462 576 105.462C704.178 105.462 808.452 209.736 808.452 337.914C808.452 466.092 704.178 570.384 576 570.384Z" fill="white"/>
</g>
<path fill-rule="evenodd" clip-rule="evenodd" d="M640.848 247.254C641.246 255.914 638.772 264.011 633.373 270.774C624.695 281.651 608.932 288.408 592.238 288.408C592.233 288.408 592.233 288.408 592.228 288.408C588.163 288.408 584.219 287.959 580.433 287.176C579.49 289.339 578.248 291.4 576.713 293.327C569.994 301.742 557.89 306.966 545.11 306.969C534.652 306.969 524.971 303.438 518.541 297.283C514.028 292.96 511.231 287.563 510.235 281.437C491.512 302.174 472.774 322.905 454 343.594C454 375.609 454 402.674 454 434.692C454.318 434.692 454.637 434.692 454.948 434.692C535.339 409.899 616.023 385.385 697 361.136C697 328.977 697 301.769 697 269.605C678.323 262.121 659.58 254.695 640.848 247.254ZM680.865 353.148C610.405 374.005 540.873 395.71 470.609 416.749C470.609 407.52 470.609 395.294 470.609 386.065C474.533 385.905 477.991 388.041 482.001 388.66C495.589 390.76 507.108 385.932 514.75 380.872C532.132 369.361 545.436 347.569 573.128 344.964C593.655 343.028 602.995 352.628 621.536 352.752C647.54 352.915 668.409 337.507 680.391 323.332C681.501 331.405 680.544 344.349 680.865 353.148ZM670.902 319.364C660.297 331.978 642.641 345.285 618.219 343.594C602.779 342.529 591.873 334.151 573.605 336.671C548.969 340.065 531.413 353.501 516.648 366.956C511.535 371.621 506.464 377.585 500.513 379.502C490.382 382.773 478.11 379.234 470.609 374.309C470.609 367.386 470.609 360.465 470.609 353.542C540.44 332.396 611.627 310.188 680.865 289.942C683.071 303.72 677.66 311.321 670.902 319.364Z" fill="white"/>
<path fill-rule="evenodd" clip-rule="evenodd" d="M557.732 239.892C559.588 239.355 560.46 241.457 560.648 242.795C560.832 244.134 560.494 245.284 559.802 246.46C558.186 249.191 555.508 251.254 553.836 253.971C552.782 255.687 552.245 257.597 552.393 259.572C554.782 259.429 557.051 259.405 559.1 259.572C565.09 260.058 568.025 263.574 569.765 268.476C581.339 301.111 519.537 307.766 521.337 274.91C521.853 265.625 530.785 255.269 544.634 259.572C546.128 255.441 548.131 251.354 550.753 247.704C551.987 245.984 553.219 244.309 554.662 242.73C555.511 241.809 556.38 240.3 557.732 239.892Z" fill="white"/>
<path fill-rule="evenodd" clip-rule="evenodd" d="M627.439 237.925C624.958 230.934 620.757 225.916 612.21 225.218C609.287 224.978 606.05 225.017 602.636 225.218C602.425 222.395 603.192 219.671 604.702 217.224C607.085 213.345 610.908 210.4 613.209 206.5C614.203 204.821 614.689 203.178 614.419 201.263C614.152 199.349 612.908 196.357 610.259 197.123C608.327 197.701 607.085 199.864 605.873 201.176C603.812 203.431 602.055 205.817 600.289 208.279C596.556 213.484 593.686 219.323 591.553 225.221C580.161 221.678 571.121 225.102 565.348 231.16C568.898 233.242 571.415 236.924 572.054 241.458C572.528 244.879 571.814 248.223 569.931 251.419C569.853 251.552 569.778 251.676 569.695 251.803C574.071 254.099 578.188 258.181 580.703 265.243C582.112 269.226 582.751 273.152 582.666 276.936C606.529 281.964 637.876 267.352 627.439 237.925Z" fill="white"/>
</g>
<defs>
<clipPath id="clip0_605_498">
<rect width="1152" height="676" fill="white"/>
</clipPath>
</defs>
</svg>
