<svg width="614" height="592" viewBox="0 0 614 592" fill="none" xmlns="http://www.w3.org/2000/svg">
<path d="M92 10.5V510.5H592" stroke="white" stroke-width="3"/>
<path d="M92 0L100.66 15H83.3397L92 0Z" fill="white"/>
<path d="M604 0L612.66 15H595.34L604 0Z" fill="white"/>
<path d="M602 510L587 518.66L587 501.34L602 510Z" fill="white"/>
<path d="M269.599 555.128V566H266.239V549.2H269.383L276.631 560.072H276.679V549.2H280.039V566H276.895L269.647 555.128H269.599ZM294.898 549.2L300.898 566H297.586L296.314 562.376H290.026L288.754 566H285.442L291.442 549.2H294.898ZM293.146 553.424L291.034 559.496H295.282L293.194 553.424H293.146ZM319.038 566H315.342L311.742 559.664H309.654V566H306.294V549.2H315.39L318.174 550.808V558.056L315.39 559.664L319.038 566ZM309.654 552.08V556.784H314.814V552.08H309.654ZM337.999 566H334.303L330.703 559.664H328.615V566H325.255V549.2H334.351L337.135 550.808V558.056L334.351 559.664L337.999 566ZM328.615 552.08V556.784H333.775V552.08H328.615ZM351.992 549.2L357.992 566H354.68L353.408 562.376H347.12L345.848 566H342.536L348.536 549.2H351.992ZM350.24 553.424L348.128 559.496H352.376L350.288 553.424H350.24ZM368.648 552.08V566H365.288V552.08H360.752V549.2H373.184V552.08H368.648ZM378.833 566V549.2H382.193V566H378.833ZM403.279 549.2L397.279 566H393.583L387.583 549.2H390.991L395.431 561.896H395.479L399.871 549.2H403.279ZM412.029 558.8V563.12H418.725V566H408.669V549.2H418.725V552.08H412.029V555.92H417.285V558.8H412.029Z" fill="white"/>
<path d="M46 340.929L29.2 340.929L29.2 337.569L46 337.569L46 340.929ZM35.128 327.139L46 327.139L46 330.499L29.2 330.499L29.2 327.355L40.072 320.107L40.072 320.059L29.2 320.059L29.2 316.699L46 316.699L46 319.843L35.128 327.091L35.128 327.139ZM41.08 300.616L41.08 297.256L44.512 297.256L46.12 300.04L46.12 306.832L44.512 309.616L30.688 309.616L29.08 306.832L29.08 300.04L30.688 297.256L34.12 297.256L34.12 300.616L31.96 300.616L31.96 306.256L43.24 306.256L43.24 300.616L41.08 300.616ZM38.8 287.061L43.12 287.061L43.12 280.365L46 280.365L46 290.421L29.2 290.421L29.2 280.365L32.08 280.365L32.08 287.061L35.92 287.061L35.92 281.805L38.8 281.805L38.8 287.061ZM35.128 270.889L46 270.889L46 274.249L29.2 274.249L29.2 271.105L40.072 263.857L40.072 263.809L29.2 263.809L29.2 260.449L46 260.449L46 263.593L35.128 270.841L35.128 270.889ZM32.08 246.91L46 246.91L46 250.27L32.08 250.27L32.08 254.806L29.2 254.806L29.2 242.374L32.08 242.374L32.08 246.91ZM46 236.726L29.2 236.726L29.2 233.366L46 233.366L46 236.726ZM29.2 212.28L46 218.28L46 221.976L29.2 227.976L29.2 224.568L41.896 220.128L41.896 220.08L29.2 215.688L29.2 212.28ZM38.8 203.53L43.12 203.53L43.12 196.834L46 196.834L46 206.89L29.2 206.89L29.2 196.834L32.08 196.834L32.08 203.53L35.92 203.53L35.92 198.274L38.8 198.274L38.8 203.53ZM37.48 190.718L30.688 190.718L29.08 187.934L29.08 181.862L30.688 179.078L33.88 179.078L33.88 182.438L31.96 182.438L31.96 187.358L35.968 187.358L35.968 181.862L37.576 179.078L44.512 179.078L46.12 181.862L46.12 188.174L44.512 190.958L41.32 190.958L41.32 187.598L43.24 187.598L43.24 182.438L39.088 182.438L39.088 187.934L37.48 190.718Z" fill="white"/>
<path d="M117 475.5C434.5 475.5 603.5 351.6 603.5 8" stroke="white" stroke-width="3"/>
</svg>
