<svg width="1152" height="676" viewBox="0 0 1152 676" fill="none" xmlns="http://www.w3.org/2000/svg">
<g clip-path="url(#clip0_603_477)">
<path d="M576.486 0C157.914 0 0 337.914 0 337.914C0 337.914 156.96 675.828 575.514 675.828C994.086 675.828 1152 337.914 1152 337.914C1152 337.914 995.04 0 576.486 0ZM576 570.384C447.822 570.384 343.53 466.092 343.53 337.914C343.53 209.736 447.822 105.462 576 105.462C704.178 105.462 808.452 209.736 808.452 337.914C808.452 466.092 704.178 570.384 576 570.384Z" fill="white"/>
<path d="M575.625 321.995C554.689 321.995 537.63 307.625 537.63 289.959C537.63 272.293 554.663 257.923 575.625 257.923C595.269 257.923 611.484 270.579 613.409 286.742H653.144C651.457 260.138 629.229 236.644 597.905 228.893L595.453 228.286V203H555.797V228.286L553.345 228.893C520.755 236.961 498 262.063 498 289.986C498 325.159 532.831 353.794 575.625 353.794C596.561 353.794 613.62 368.164 613.62 385.83C613.62 403.496 596.587 417.866 575.625 417.866C555.981 417.866 539.766 405.21 537.841 389.047H498.105C499.793 415.652 522.021 439.145 553.345 446.897L555.797 447.503V472.789H595.453V447.503L597.905 446.897C630.495 438.828 653.25 413.727 653.25 385.804C653.25 350.604 618.445 321.995 575.625 321.995Z" fill="white"/>
</g>
<defs>
<clipPath id="clip0_603_477">
<rect width="1152" height="676" fill="white"/>
</clipPath>
</defs>
</svg>
