<svg width="640" height="640" viewBox="0 0 640 640" fill="none" xmlns="http://www.w3.org/2000/svg">
<path d="M594.1 158.108L323.5 1.87979C322.496 1.30333 321.358 1 320.2 1C319.042 1 317.904 1.30333 316.9 1.87979L46.3 158.108C45.2964 158.687 44.4631 159.52 43.8838 160.524C43.3045 161.528 42.9997 162.666 43 163.825V476.294C42.9997 477.452 43.3045 478.591 43.8838 479.594C44.4631 480.598 45.2964 481.431 46.3 482.011L316.9 638.239C317.904 638.817 319.042 639.122 320.2 639.122C321.358 639.122 322.496 638.817 323.5 638.239L594.1 482.011C595.104 481.431 595.937 480.598 596.516 479.594C597.096 478.591 597.4 477.452 597.4 476.294V163.825C597.4 162.666 597.096 161.528 596.516 160.524C595.937 159.52 595.104 158.687 594.1 158.108ZM584.2 167.634V226.79L387.927 113.474C386.923 112.898 385.785 112.594 384.627 112.594C383.469 112.594 382.332 112.898 381.327 113.474L185.058 226.79V167.634L384.627 52.4151L584.2 167.634ZM455.345 398.084L320.2 476.109L185.058 398.085V242.035L320.2 164.009L455.345 242.035V398.084ZM320.2 15.2152L371.426 44.7923L175.158 158.108C174.154 158.687 173.321 159.52 172.742 160.524C172.162 161.528 171.858 162.666 171.858 163.825V390.465L120.627 360.89V130.441L320.2 15.2152ZM107.427 138.061V364.699C107.427 365.858 107.732 366.997 108.311 368C108.89 369.004 109.724 369.837 110.727 370.416L306.998 483.732L255.772 513.309L56.2 398.084V167.634L107.427 138.061ZM56.2 472.484V413.328L252.473 526.644C253.476 527.223 254.614 527.527 255.773 527.527C256.931 527.527 258.069 527.223 259.073 526.644L455.345 413.328V472.484L255.771 587.698L56.2 472.484ZM320.2 624.903L268.969 595.323L465.245 482.011C466.249 481.431 467.082 480.598 467.662 479.594C468.241 478.591 468.546 477.452 468.545 476.294V249.655L519.773 279.228V509.678L320.2 624.903ZM532.973 502.057V275.419C532.973 274.26 532.668 273.122 532.089 272.118C531.51 271.115 530.676 270.281 529.673 269.702L333.4 156.387L384.627 126.809L584.2 242.035V472.484L532.973 502.057Z" fill="white"/>
</svg>
