<svg width="682" height="600" viewBox="0 0 682 600" fill="none" xmlns="http://www.w3.org/2000/svg">
<path d="M27.2458 357.069C29.452 367.389 30.9845 376.925 33.5903 385.899C36.6095 396.406 43.4745 396.743 49.6506 386.946C52.3023 382.759 54.4625 378.085 58.0329 371.466C59.7338 379.543 60.6999 384.816 62.0472 389.901C63.5031 395.398 66.5376 397.492 71.518 394.202L76.7739 390.61C82.1677 418.842 82.1677 418.842 88.5122 426.769C93.7176 426.133 95.5456 421.422 96.5423 416.449C98.2303 409.19 99.4687 401.835 100.25 394.424C102.533 367.987 104.45 341.551 106.472 315.114C106.978 308.681 105.891 301.689 112.266 296.866C118.595 302.213 124.433 307.486 130.624 312.234C133.056 313.98 135.894 315.074 138.869 315.412C149.964 316.72 150.423 317.544 152.354 329.172C153.488 336.016 154.437 345.588 158.438 348.281C166.575 353.666 166.858 361.817 167.624 370.941C168.389 379.915 168.513 389.933 175.072 395.396C179.504 399.751 182.313 405.49 183.034 411.662C183.839 415.651 185.115 419.529 186.833 423.217C192.135 433.537 198.388 434.323 207.398 426.171C209.757 424.039 211.904 421.46 215.673 417.459C216.991 431.183 226.768 431.295 232.269 437.165C240.621 445.952 247.149 434.96 255.234 433.313C255.234 441.913 255.418 449.169 255.204 456.497C254.438 482.896 253.197 509.37 252.844 535.733C253.211 543.549 254.183 551.326 255.753 558.992C266.512 562.806 267.277 549.831 273.805 546.091C274.173 552.073 274.173 556.965 274.787 561.684C275.73 571.798 277.26 581.849 279.369 591.785C281.774 601.434 288.518 602.779 294.632 594.777C299.745 587.999 303.877 580.534 306.906 572.602C319.392 536.191 327.319 498.372 330.505 460.011C332.342 445.315 333.233 430.507 335.623 415.886C337.982 401.229 342.053 386.795 344.664 372.211C348.045 358.502 353.546 345.406 360.969 333.396C365.536 338.37 368.846 345.026 373.335 345.885C377.703 346.746 383.311 341.585 389.41 338.557C389.41 343.418 389.364 347.644 389.41 351.868C389.563 369.635 389.227 387.429 389.992 405.078C391.31 434.281 392.965 463.448 395.198 492.466C395.388 511.095 397.795 529.636 402.369 547.696C408.727 564.043 414.246 580.705 418.904 597.616L420.635 598.289C425.688 597.69 426.888 592.68 427.96 587.818C430.868 575.143 433.721 562.394 436.403 549.681C436.676 539.28 440.754 529.341 447.864 521.747C450.04 519.991 450.7 515.129 451.833 511.576C453.656 505.817 455.326 500.021 456.997 494.524C468.536 494.151 468.811 494.262 472.167 484.653C475.229 475.941 477.576 467.004 480.749 456.459C482.086 459.089 483.581 461.636 485.224 464.087C491.721 472.65 494.787 472.313 500.854 462.555C502.631 459.675 504.271 456.684 505.88 453.88C507.336 455.301 508.394 455.787 508.807 456.759C511.274 462.593 509.343 473.175 518.324 472.016C526.171 471.006 527.319 461.732 529.347 455.003C534.879 436.605 539.63 417.946 544.811 399.437C545.838 395.772 547.386 392.183 549.71 385.714C551.059 398.091 551.87 407.139 553.051 416.115C554.063 423.443 551.885 434.212 560.467 435.335C570.183 436.643 571.531 424.902 574.335 417.424C582.834 393.451 587.725 368.348 588.847 342.937C590.012 324.652 590.808 306.403 591.82 287.186C603.436 300.052 604.448 299.898 614.938 284.755C616.906 288.754 619.101 292.637 621.513 296.385C627.444 304.686 633.312 304.162 639.289 294.74C642.017 290.402 644.116 285.504 646.638 280.605C648.475 282.289 649.581 283.409 650.822 284.343C659.48 290.85 663.465 290.623 668.582 280.081C673.735 270.341 677.383 259.877 679.402 249.044C681.193 233.163 682.057 217.192 681.991 201.21C682.19 194.068 679.262 191.408 673.486 192.161C661.931 193.658 656.308 204.95 661.85 217.776C667.499 234.585 666.769 252.886 659.797 269.191C657.781 265.602 656.041 261.864 654.592 258.01C651.594 244.366 650.746 230.336 652.078 216.43C652.527 210.343 652.517 204.231 652.047 198.145C651.066 188.274 647.863 184.834 642.148 185.918C636.293 187.04 634.5 191.49 635.191 201.922C636.002 214.561 637.244 227.162 637.06 239.876C636.861 252.852 635.129 265.976 633.998 280.073C631.446 278.806 629.338 276.796 627.951 274.307C626.563 271.818 625.962 268.967 626.227 266.129C625.415 247.918 624.771 229.677 624.22 211.498C624.097 207.235 624.908 202.86 624.863 198.597C624.817 193.624 624.373 188.389 618.947 188.127C613.936 187.903 610.289 193.399 610.273 201.215C610.228 206.712 611.24 212.134 611.07 217.631C610.518 234.719 609.721 251.807 608.773 268.94C607.981 271.538 606.815 274.007 605.31 276.269C601.634 267.891 599.396 258.953 598.69 249.831C599.855 247.993 600.743 246.428 601.724 245.083C603.95 242.886 605.664 240.224 606.744 237.289C607.825 234.353 608.245 231.216 607.976 228.099C607.707 224.983 606.754 221.964 605.186 219.257C603.618 216.551 601.473 214.223 598.904 212.44C593.327 207.055 587.595 209 581.941 207.915C570.692 205.747 568.746 207.317 569.267 220.705C570.017 241.42 571.842 261.949 573.343 282.515C573.272 285.488 573.946 288.432 575.304 291.078C581.313 301.445 583.504 313.59 581.495 325.404C581.286 340.198 580.232 354.968 578.338 369.641C576.237 387.037 571.99 404.106 565.695 420.458C564.079 416.021 562.789 411.472 561.834 406.847C560.669 396.675 559.475 386.43 559.243 376.035C557.869 354.057 557.859 332.015 559.213 310.036C566.326 241.514 569.189 172.616 567.787 103.739C567.797 98.3299 567.206 92.9361 566.024 87.6573C565.52 86.5157 564.699 85.5427 563.658 84.8535C562.618 84.1643 561.402 83.7878 560.154 83.7685C558.239 83.9922 556.048 86.9099 554.546 89.1905C553.828 90.8762 553.528 92.7106 553.672 94.5374C552.476 124.602 551.451 154.627 550.056 184.692C549.459 197.294 548.095 209.931 546.807 225.563C543.16 222.084 540.478 220.852 539.973 218.758C539.237 214.588 539.01 210.344 539.299 206.119C540.112 159.807 537.934 113.491 532.778 67.4598C531.811 58.5376 530.358 49.6748 528.426 40.9107C527.216 35.4138 524.274 31.4499 517.024 35.302C510.481 69.1048 512.013 103.732 507.661 138.357C506.349 134.01 505.506 129.534 505.147 125.007C503.216 109.489 501.319 93.9339 499.231 78.4462C498.159 70.6686 494.664 66.7798 486.573 70.1448C486.083 74.1454 485.377 78.3343 485.117 82.485C484.12 99.0878 483.048 115.691 482.373 132.218C481.638 150.017 481.422 167.741 480.842 185.503C481.351 195.189 479.859 204.876 476.459 213.959C468.061 208.649 471.922 188.381 455.331 194.661C454.795 202.177 454.196 209.954 453.615 217.77C452.74 229.661 451.944 230.894 441.463 235.943C440.835 235.12 439.747 234.411 439.626 233.4C439.258 229.213 439.013 224.949 438.983 220.688C439.23 190.447 436.115 160.272 429.696 130.72C425.921 113.682 423.877 96.306 423.596 78.8566C422.686 63.2452 420.682 47.7168 417.601 32.3858C415.992 22.8867 411.533 18.3623 407.074 19.8954C400.209 22.1392 400.453 29.6549 399.994 35.2637C398.157 57.999 396.653 80.7712 395.611 103.468C394.323 132.972 393.65 162.436 392.607 191.941C392.408 197.474 392.209 203.532 383.689 202.486C383.689 195.381 383.566 188.127 383.704 180.91C384.533 139.179 386.448 97.3372 383.597 55.9804C382.893 45.6971 382.034 35.377 380.44 25.348C380.011 22.7304 376.518 19.2904 374.469 19.5891C372.355 19.851 370.071 23.9266 368.308 26.7693C367.611 28.4759 367.287 30.3121 367.358 32.1545C364.968 59.1891 362.362 86.2207 360.34 113.223C358.899 132.742 358.256 152.261 357.277 171.78C354.733 157.571 353.967 143.062 352.557 128.666C351.071 113.672 349.094 98.7524 347.026 83.8696C346.533 80.4764 345.327 77.2263 343.486 74.3338C339.686 68.6499 333.648 70.0713 331.319 77.325C329.716 82.6662 328.639 88.1516 328.104 93.7026C325.501 116.101 323.124 138.499 320.719 160.187C308.183 152.335 307.693 137.265 306.344 122.203C303.493 90.9043 300.067 59.6823 296.598 28.5337C295.623 21.447 294.206 14.4282 292.355 7.51838C290.993 1.76102 288.027 -1.75405 279.913 0.90025C274.886 19.5967 277.584 40.0132 273.078 59.3453C269.69 54.9764 265.915 50.9216 261.799 47.2302C258.306 44.6127 254.757 47.267 253.203 52.2034C252.573 54.5961 252.258 57.061 252.267 59.5352C251.502 77.8948 250.857 96.2558 250 114.577C249.421 117.936 248.554 121.238 247.409 124.448C245.035 112.856 243.322 104.105 241.388 95.467C239.503 87.0156 237.818 78.1169 226.799 77.0325V119.51C213.038 123.586 211.475 125.381 209.022 140.002C208.41 143.667 208.471 147.369 208.133 151.071L203.627 200.205C201.006 192.394 199.506 187.716 197.881 183.042C196.119 178.032 194.173 173.24 186.694 172.46C182.649 186.632 170.496 196.915 170.435 214.639C170.42 227.951 168.259 241.525 167.094 255.024C165.317 243.69 165.761 232.176 165.056 220.847C164.827 217.557 161.639 212.807 159.156 212.471C154.635 211.872 153.644 216.883 153.67 221.669C153.543 224.002 153.278 226.324 152.874 228.625C141.258 229.447 141.427 229.447 141.917 241.643C142.269 250.132 142.177 258.732 141.901 267.332C141.294 270.482 140.338 273.554 139.051 276.492C131.357 266.69 141.993 247.401 127.297 244.558C117.857 251.663 124.492 261.721 120.662 273.199C119.497 265.645 119.16 261.57 118.226 257.756C117.166 253.34 117.013 247.021 111.621 247.545C105.062 248.143 105.246 254.575 104.909 260.22C104.879 260.931 103.576 261.599 102.856 262.314C102.244 261.567 101.293 261.006 101.019 260.109C97.0383 246.647 93.6028 232.924 88.9745 219.911C88.2112 217.71 86.9682 215.705 85.3355 214.044C83.7028 212.382 81.7213 211.104 79.5343 210.302C76.9745 209.741 73.0061 215.356 69.8185 218.043C65.8012 209.634 68.3457 195.681 56.2707 193.1C51.2884 200.398 49.1812 209.282 50.3548 218.041C50.4161 230.907 51.8568 243.581 51.7037 256.485C51.4691 263.774 50.2853 271.002 48.1823 277.986C46.8488 282.697 43.1714 284.492 39.4173 281.202C39.4173 275.075 39.601 268.937 39.3867 262.954C38.958 250.727 38.6212 238.499 37.6705 226.459C37.2418 220.775 34.9146 216.287 27.281 218.157C26.4784 222.725 25.9055 227.331 25.5648 231.956C25.1973 246.091 25.2586 260.188 24.8911 274.322C23.9335 278.175 22.5886 281.921 20.8768 285.503L15.8903 256.22C7.66117 257.154 6.22049 261.904 6.8038 268.148C7.27841 273.233 10.1445 278.842 2.21078 282.698L0 280.19V304.57C5.6387 306.85 5.96175 307.939 0.153103 319.414L0 317.576V339.676C4.09494 337.277 7.86587 334.363 11.2208 331.006C13.5464 342.972 10.5731 359.985 27.2458 357.069ZM536.012 274.209C536.471 265.57 536.456 257.045 545.896 252.671C553.594 320.794 545.163 389.773 521.285 454.033C515.863 440.617 514.39 425.93 517.04 411.704C528.122 366.655 534.48 320.576 536.012 274.209ZM517.027 167.608C519.463 144.948 519.679 122.139 520.965 99.4033C521.332 95.9343 521.894 92.4889 522.649 89.0833L525.898 89.2364C532.294 131.495 534.522 174.279 532.549 216.973C529.269 214.132 527.66 212.935 526.235 211.477C521.425 205.367 518.091 198.228 516.494 190.617C514.896 183.005 515.081 175.137 517.027 167.608ZM527.049 279.416C528.689 315.079 524.322 350.763 514.131 384.977C506.071 349.352 510.64 312.045 527.049 279.416ZM496.169 448.567C486.116 432.599 487.159 407.472 499.877 358.449C501.379 379.8 502.667 399.65 504.164 419.4C505.302 429.785 502.443 440.215 496.169 448.567ZM495.679 121.642C497.028 130.841 498.008 136.338 498.622 141.947C500.459 158.625 502.483 175.228 503.709 192.016C504.475 202.336 503.02 203.503 492.032 206.038C489.953 177.86 491.177 149.536 495.679 121.642ZM490.177 298.774C491.296 298.849 493.165 300.906 492.981 301.654C492.058 304.525 490.926 307.324 489.595 310.03L487.435 309.618C487.139 307.011 487.088 304.382 487.282 301.765C487.419 300.643 489.304 298.699 490.177 298.774ZM494.973 339.906C493.043 354.864 491.112 369.745 488.721 387.999C484.455 359.799 485.594 346 494.973 339.906ZM462.424 220.398L463.589 220.323L463.344 226.157L462.426 226.232L462.424 220.398ZM465.945 256.744C464.198 270.654 476.136 284.601 461.885 300.306C461.215 285.667 462.578 271.006 465.945 256.744ZM469.24 324.574C473.499 332.097 476.018 340.48 476.61 349.105C476.274 372.925 478.141 396.519 478.357 420.301C478.134 437.541 474.433 454.558 467.476 470.332C464.006 459.268 463.29 447.522 465.393 436.118C467.23 415.85 469.016 395.571 470.751 375.279C469.464 379.99 467.9 384.621 467.077 389.37C466.151 397.997 464.111 406.469 461.008 414.572C460.149 384.471 459.276 354.407 458.31 321.575C463.528 322.893 468.375 322.444 469.24 324.574ZM449.426 322.182L450.285 323.155L449.856 326.184C449.259 325.548 448.446 325.025 448.201 324.239L449.426 322.182ZM441.901 350.114C442.836 358.566 444.415 366.904 444.553 375.429C445.058 404.52 445.073 433.687 445.257 462.854L445.41 463.975C447.004 452.906 448.613 441.875 450.329 430.134C455.649 453.222 454.278 477.349 446.376 499.684L445.476 464.342L445.41 463.975L445.292 464.874L445.257 462.854C443.058 451.674 441.529 440.374 440.668 429.012C439.929 402.95 440.445 376.7 441.901 350.114ZM439.004 299.522L440.292 300.007C440.411 300.987 440.452 301.975 440.414 302.962L437.913 301.991L439.004 299.522ZM428.921 371.166C432.225 417.647 430.222 464.354 422.95 510.381C418.158 463.933 420.167 417.033 428.921 371.166ZM424.752 348.282V314.587C429.693 322.361 429.687 322.361 424.752 348.282ZM425.665 569.649C425.65 540.929 427.498 512.238 431.196 483.757C437.357 512.346 435.441 542.087 425.665 569.649ZM424.236 149.575C432.342 174.147 436.258 199.909 435.821 225.782L419.149 224.959C418.693 199.732 420.395 174.512 424.236 149.575ZM408.575 50.5584C415.002 63.3779 417.895 77.6797 416.958 91.9903C416.934 93.8343 416.286 95.6159 415.121 97.0446C409.416 104.066 406.276 112.824 406.221 121.872C404.176 98.0916 404.967 74.1522 408.575 50.5584ZM416.162 126.279C417.927 153.422 416.502 180.679 411.916 207.49C411.717 208.537 409.48 209.285 406.89 211.08C406.144 182.524 409.264 153.998 416.162 126.279ZM416.131 263.885C417.813 303.664 416.328 343.514 411.691 383.058C409.701 351.797 407.631 320.537 405.668 289.313C405.003 284.528 405.621 279.651 407.46 275.183C409.298 270.715 412.291 266.816 416.131 263.885ZM398.125 336.614V353.217L398.37 355.648C398.37 356.359 398.4 356.994 398.385 357.705C400.24 369.408 402.073 381.138 403.886 392.892C403.897 397.066 404.644 401.205 406.092 405.119C411.84 416.102 414.218 428.538 412.927 440.867C413.049 474.296 412.957 507.689 412.957 541.603C400.11 481.201 395.212 419.378 398.385 357.705L398.123 355.985L398.125 353.217L396.438 336.912L398.125 336.614ZM381.085 270.727C391.045 275.7 392.945 284.375 391.474 295.93C390.951 309.178 386.342 321.94 378.28 332.464C371.845 323.317 368.628 312.291 369.136 301.117C369.643 289.943 373.847 279.253 381.085 270.727ZM374.616 63.6829C380.877 113.123 381.499 163.114 376.47 212.694L364.717 215.604C364.631 164.8 367.938 114.046 374.616 63.6829ZM356.886 278.768C359.111 292.723 358.163 307 354.111 320.537C352.071 306.574 353.015 292.338 356.886 278.768ZM340.694 347.572C338.116 341.551 336.144 335.287 334.808 328.875C333.745 316.831 333.365 304.735 333.669 292.648C334.006 281.804 335.876 280.234 348.166 275.746C348.216 299.885 345.711 323.961 340.694 347.572ZM338.758 99.2042C347.971 140.21 351.682 182.261 349.792 224.247C343.479 224.434 337.195 224.659 330.898 224.883C327.25 182.832 329.899 140.472 338.758 99.2042ZM313.595 208.17C313.442 200.242 312.829 192.394 312.277 182.481C319.014 198.161 321.445 215.356 319.319 232.29C318.783 252.967 319.12 273.571 319.901 294.1C320.511 305.364 319.164 316.649 315.92 327.454C311.819 318.243 310.09 308.151 310.894 298.1C312.029 285.835 313.867 273.496 314.143 261.268C314.576 243.506 313.964 225.857 313.595 208.17ZM307.558 352.994C313.811 348.806 319.296 345.216 324.828 341.551C333.416 375.843 331.031 411.967 318.009 444.831C307.996 415.319 304.432 384.001 307.558 352.994ZM322.974 456.012C323.724 455.526 324.828 455.975 326.866 455.975C323.246 501.155 311.846 545.369 293.168 586.664L289.014 586.477C287.232 581.675 285.844 576.736 284.862 571.709C283.437 559.107 282.763 546.319 281.69 533.68C280.452 517.687 282.165 501.603 286.742 486.229C289.492 476.666 290.824 466.751 290.696 456.801C288.136 465.364 285.577 473.927 282.451 484.247C278.521 451.169 284.125 417.657 298.603 387.66L295.492 428.718L301.423 426.811C302.741 434.402 303.691 442.143 305.392 449.622C308.389 462.518 311.451 463.452 322.974 456.012ZM294.992 111.172C296.254 113.752 297.191 116.479 297.781 119.29C299.222 133.649 300.356 148.084 301.581 162.482C302.444 166.467 302.436 170.591 301.558 174.573C300.68 178.555 298.952 182.3 296.493 185.552C293.912 184.597 291.767 182.734 290.459 180.311C289.151 177.889 288.768 175.073 289.383 172.39C290.578 152.198 291.712 132.076 294.992 111.172ZM285.368 37.3589C288.683 40.1716 291.032 43.955 292.083 48.1751C293.133 52.3952 292.832 56.8387 291.222 60.8785C286.761 72.2693 284.796 84.4856 285.461 96.7015C285.231 98.9071 284.48 101.151 284.02 103.395L281.111 102.871C282.534 81.0708 283.953 59.2335 285.368 37.3589ZM283.837 292.193C287.205 299.895 290.074 305.953 292.617 312.236C293.974 315.38 294.867 318.705 295.269 322.107C297.006 351.038 293.454 380.044 284.787 407.7C284.542 408.561 283.224 409.046 280.742 411.103C281.903 371.129 279.332 332.657 283.837 292.193ZM278.631 147.931L279.515 147.818V183.678L278.625 183.75L278.631 147.931ZM278.172 214.454V212.391L278.356 214.747L277.437 215.607L278.172 214.454ZM261.025 288.155C262.974 306.458 263.082 324.911 261.346 343.236C256.982 325.147 256.877 306.295 261.025 288.155ZM272.411 295.111L273.054 295.074V323.68L272.411 323.717V295.111ZM265.645 540.819L262.504 541.94C260.621 513.648 261.021 485.249 263.699 457.021C267.56 459.34 270.871 460.084 271.048 461.696C275.605 488.123 273.752 515.258 265.645 540.819ZM270.932 382.946V436.605C261.095 419.703 270.105 400.895 270.932 382.946ZM259.132 107.807C259.602 96.3978 260.903 85.0378 263.024 73.8176C268.706 82.7789 271.469 93.2832 270.932 103.882C269.86 140.04 269.047 176.162 267.515 212.32C266.826 228.062 264.557 243.879 262.922 260.557C257.071 235.821 254.892 210.357 256.455 184.986C257.615 159.261 258.03 133.571 259.132 107.807ZM243.655 427.181C237.648 415.476 238.935 404.258 249.32 369.857C253.696 379.019 255.482 389.204 254.483 399.309C253.485 409.414 249.74 419.053 243.655 427.181ZM237.77 387.02C234.198 362.318 235.002 337.181 240.145 312.758C240.251 309.74 241.121 306.797 242.674 304.208C244.227 301.618 246.412 299.465 249.025 297.95C248.453 327.957 244.681 357.815 237.77 387.02ZM246.858 194.597C245.923 208.732 253.288 223.085 243.273 239.393C240.297 226.453 239.045 213.176 239.549 199.907C237.741 186.183 235.734 172.46 234.906 158.553C234.125 145.278 234.737 131.75 234.737 118.317C244.364 142.535 248.503 168.586 246.858 194.597ZM234.276 225.969L235.87 225.816V249.187L234.276 248.738V225.969ZM188.548 359.088V311.793C192.409 315.832 195.949 317.775 195.781 319.646C194.646 332.845 192.746 346.045 191.091 359.207L188.548 359.088ZM191.304 285.461L192.653 284.564C192.653 285.611 192.714 286.696 192.622 287.705L191.733 288.491L191.304 285.461ZM226.764 393.415L228.985 411.961C224.807 406.989 220.756 402.128 226.764 393.415ZM219.32 145.459C224.542 153.269 226.597 162.775 225.066 172.045C224.959 209.401 224.652 246.788 224.989 284.075C225.173 306.1 226.826 327.938 226.95 349.924C226.186 360.308 224.783 370.636 222.751 380.848C211.336 302.871 210.183 223.735 219.32 145.459ZM205.069 314.029C205.898 323.303 206.847 333.328 207.644 343.383C208.856 359.013 209.759 374.718 211.166 390.311C212.402 395.289 212.205 400.515 210.597 405.386C208.989 410.256 206.036 414.572 202.079 417.833C195.321 417.527 194.034 411.14 193.253 405.493C191.423 396.718 190.912 387.719 191.736 378.794C195.323 356.994 200.564 335.38 205.069 314.029ZM193.882 202.895C195.413 216.393 197.097 229.818 198.449 243.354C199.123 250.496 196.519 255.246 188.672 255.956C186.128 238.107 187.915 219.908 193.882 202.895ZM175.983 244.215L176.827 244.062L175.922 246.567L175.983 244.215ZM175.83 330.742L176.965 330.632V357.106L175.83 357.259V330.742ZM164.337 286.134V328.126C159.516 314.544 159.516 299.716 164.337 286.134ZM140.285 292.94L141.266 293.763L139.642 296.193L138.723 295.296L140.285 292.94ZM95.7523 315.824C99.2701 346.644 98.2384 377.814 92.6903 408.334C83.4231 378.012 84.5052 345.468 95.7523 315.824ZM82.751 339.975C78.0768 307.854 78.0768 307.854 85.2006 299.254C87.3314 312.845 86.4958 326.737 82.751 339.975ZM79.2572 229.591C90.0003 241.257 84.5438 253.111 77.5409 265.04L79.2572 229.591ZM66.9372 314.248C74.0666 336.004 75.3767 359.249 70.7372 381.669C64.9294 359.685 63.6378 336.746 66.9372 314.248ZM63.0132 225.932C63.8247 237.71 64.6682 249.49 65.4628 261.231C57.5567 251.21 61.3429 238.275 59.4261 226.829L63.0132 225.932ZM39.5658 303.859L51.8859 302.513C53.051 314.591 54.3217 325.846 55.1653 337.213C56.2504 351.977 53.0522 366.74 45.9547 379.73C34.9647 355.98 32.7023 329.113 39.5658 303.859ZM24.4869 306.253V332.877C19.7944 314.291 19.7944 314.293 24.4869 306.253Z" fill="white"/>
</svg>
