<svg width="1152" height="676" viewBox="0 0 1152 676" fill="none" xmlns="http://www.w3.org/2000/svg">
<path d="M576.017 141.469C467.675 141.469 379.547 229.597 379.547 337.921C379.547 446.263 467.675 534.391 576.017 534.391C684.341 534.391 772.469 446.263 772.469 337.921C772.469 229.597 684.341 141.469 576.017 141.469ZM576.017 501.109C486.035 501.109 412.829 427.903 412.829 337.921C412.829 247.939 486.035 174.733 576.017 174.733C665.999 174.733 739.205 247.939 739.205 337.921C739.205 427.903 665.999 501.109 576.017 501.109Z" fill="white"/>
<path d="M575.967 283.852C546.141 283.852 521.859 308.116 521.859 337.942C521.859 367.768 546.141 392.05 575.967 392.05C605.793 392.05 630.057 367.768 630.057 337.942C630.057 308.098 605.811 283.852 575.967 283.852Z" fill="white"/>
<path d="M575.993 210.727C505.865 210.727 448.805 267.787 448.805 337.915C448.805 408.043 505.865 465.103 575.993 465.103C646.121 465.103 703.181 408.043 703.181 337.915C703.181 267.787 646.139 210.727 575.993 210.727ZM575.993 428.041C526.313 428.041 485.885 387.613 485.885 337.933C485.885 288.253 526.313 247.843 575.993 247.843C625.673 247.843 666.083 288.253 666.083 337.933C666.083 387.613 625.673 428.041 575.993 428.041Z" fill="white"/>
<path d="M576.486 0C157.914 0 0 337.914 0 337.914C0 337.914 156.96 675.828 575.514 675.828C994.086 675.828 1152 337.914 1152 337.914C1152 337.914 995.04 0 576.486 0ZM576 570.384C447.822 570.384 343.53 466.092 343.53 337.914C343.53 209.736 447.822 105.462 576 105.462C704.178 105.462 808.452 209.736 808.452 337.914C808.452 466.092 704.178 570.384 576 570.384Z" fill="white"/>
</svg>
