<svg width="3616" height="3616" viewBox="0 0 3616 3616" fill="none" xmlns="http://www.w3.org/2000/svg">
<rect x="8" y="8" width="3600" height="3600" stroke="white" stroke-width="16"/>
<path d="M8 8L3608 3608" stroke="white" stroke-width="16"/>
<path d="M3608 8L7.99989 3608" stroke="white" stroke-width="16"/>
<circle cx="1808" cy="1808" r="1800" stroke="white" stroke-width="16"/>
<circle cx="1809.13" cy="1808" r="1270.8" stroke="white" stroke-width="16"/>
<circle cx="1808" cy="1808" r="900" stroke="white" stroke-width="16"/>
<circle cx="1804.4" cy="1804.4" r="450" stroke="white" stroke-width="16"/>
<rect x="8" y="2708" width="900" height="900" stroke="white" stroke-width="16"/>
<rect x="908" y="2708" width="900" height="900" stroke="white" stroke-width="16"/>
<rect x="1808" y="2708" width="900" height="900" stroke="white" stroke-width="16"/>
<rect x="2708" y="2708" width="900" height="900" stroke="white" stroke-width="16"/>
<rect x="8" y="1808" width="900" height="900" stroke="white" stroke-width="16"/>
<rect x="908" y="1808" width="900" height="900" stroke="white" stroke-width="16"/>
<rect x="1808" y="1808" width="900" height="900" stroke="white" stroke-width="16"/>
<rect x="2708" y="1808" width="900" height="900" stroke="white" stroke-width="16"/>
<rect x="8" y="908" width="900" height="900" stroke="white" stroke-width="16"/>
<rect x="908" y="908" width="900" height="900" stroke="white" stroke-width="16"/>
<rect x="1808" y="908" width="900" height="900" stroke="white" stroke-width="16"/>
<rect x="2708" y="908" width="900" height="900" stroke="white" stroke-width="16"/>
<rect x="8" y="8" width="900" height="900" stroke="white" stroke-width="16"/>
<rect x="908" y="8" width="900" height="900" stroke="white" stroke-width="16"/>
<rect x="1808" y="8" width="900" height="900" stroke="white" stroke-width="16"/>
<rect x="2708" y="8" width="900" height="900" stroke="white" stroke-width="16"/>
<rect x="537.2" y="537.195" width="2541.6" height="2541.6" stroke="white" stroke-width="16"/>
</svg>
