<svg width="400" height="400" viewBox="0 0 400 400" fill="none" xmlns="http://www.w3.org/2000/svg">
<path d="M399.825 136.785C399.627 135.508 399.223 134.259 398.731 133.056C398.621 132.795 398.621 132.53 398.504 132.266C398.487 132.248 398.472 132.228 398.46 132.207C398.46 132.178 398.445 132.163 398.43 132.145L354.194 38.1102C354.092 37.8938 353.901 37.6994 353.784 37.4793C353.63 37.2152 353.579 36.8924 353.409 36.6307C353.072 36.0585 352.61 35.6135 352.213 35.1036C351.81 34.5791 351.443 34.013 350.996 33.5484C350.336 32.8588 349.58 32.2707 348.811 31.6973C348.327 31.3159 347.872 30.894 347.344 30.5847C346.45 30.0455 345.482 29.6604 344.499 29.2924C344.008 29.1053 343.531 28.8192 343.017 28.6761C341.472 28.2327 339.873 28.0052 338.265 28H77.5635C76.0162 28 74.5165 28.2164 73.057 28.5979C72.5477 28.7336 72.0824 28.9989 71.5793 29.1713C70.6853 29.5088 69.7681 29.8034 68.9291 30.2839C68.393 30.5933 67.9533 31.0065 67.4538 31.3452C66.7345 31.855 65.9907 32.3429 65.352 32.9603C64.9013 33.4042 64.5423 33.9287 64.1417 34.4287C63.669 34.9838 63.1158 35.4863 62.7299 36.1172L2.65514 130.154C2.43164 130.521 2.32539 130.937 2.12266 131.326C1.95046 131.634 1.66468 131.898 1.51446 132.235C1.35692 132.589 1.34959 132.959 1.19937 133.297C0.880017 134.149 0.618877 135.023 0.417753 135.911C0.263969 136.604 0.146565 137.305 0.0660245 138.01C-0.00911679 138.89 -0.0201374 139.775 0.03305 140.657C0.0880075 141.381 0.139301 142.092 0.25288 142.797C0.410425 143.662 0.682771 144.474 0.957559 145.308C1.2067 146.017 1.43019 146.725 1.76482 147.394C1.87474 147.625 1.92237 147.889 2.03228 148.127C2.34737 148.714 2.81268 149.174 3.19861 149.702C3.50637 150.161 3.69323 150.642 4.04495 151.053L185.62 365.761C188.751 369.461 193.445 372.089 198.123 371.956C198.182 371.956 198.242 371.985 198.281 371.985C198.542 372 198.791 372 199.055 372H199.092C200.661 372 202.201 371.707 203.683 371.31C204.122 371.171 204.519 371.032 204.959 370.863C206.062 370.471 207.124 369.969 208.127 369.365C208.464 369.167 208.823 368.969 209.154 368.748C210.35 367.918 211.471 366.964 212.439 365.812L395.879 151.108C396.112 150.83 396.245 150.492 396.451 150.197C396.744 149.827 397.111 149.519 397.361 149.099C397.624 148.685 397.756 148.219 397.976 147.775C398.285 147.207 398.577 146.633 398.805 146.017C399.15 145.122 399.385 144.214 399.591 143.304C399.722 142.687 399.87 142.1 399.928 141.484C400.045 140.47 400.001 139.482 399.928 138.477C399.884 137.883 399.912 137.328 399.825 136.785Z" fill="white"/>
</svg>
