<svg width="5000" height="4895" viewBox="0 0 5000 4895" fill="none" xmlns="http://www.w3.org/2000/svg">
<path d="M4514.5 1286.53V3619.76L2493.87 4786.38L473.219 3619.76V1286.53L2493.87 119.902L4514.5 1286.53Z" stroke="white" stroke-width="16"/>
<path d="M4518.91 2439.69L1493.11 701.703L1495.84 4185.06L4518.91 2439.69Z" stroke="white" stroke-width="16"/>
<path d="M3515.1 4179.48L3507.34 690.062L484.566 2445.41L3515.1 4179.48Z" stroke="white" stroke-width="16"/>
<path d="M2500.78 119.719L497.723 3607.54L4512.81 3604.65L2500.78 119.719Z" stroke="white" stroke-width="16"/>
<path d="M2497.44 4768.35L4500.5 1280.53L485.414 1283.43L2497.44 4768.35Z" stroke="white" stroke-width="16"/>
<path d="M492.004 3609.72L4512.26 1288.62" stroke="white" stroke-width="16"/>
<path d="M484.566 2445.4L4524.14 2436.44" stroke="white" stroke-width="16"/>
<path d="M1494.45 4190.26L3514.25 691.867" stroke="white" stroke-width="16"/>
<path d="M491.461 1293.86L4512.8 3604.71" stroke="white" stroke-width="16"/>
<path d="M2500.79 119.859C2501.83 1939.31 2502.42 2959.4 2503.48 4778.87" stroke="white" stroke-width="16"/>
<path d="M1493.09 701.664C2278.83 2062.61 2719.37 2825.64 3505.11 4186.59" stroke="white" stroke-width="16"/>
<path d="M1547.01 670.336C1529.82 640.564 1491.75 630.364 1461.98 647.552C1432.21 664.741 1422 702.81 1439.19 732.582C1456.38 762.354 1494.45 772.554 1524.22 755.365C1553.99 738.177 1564.2 700.108 1547.01 670.336Z" fill="white" stroke="white" stroke-width="16"/>
<path d="M3559.02 4155.22C3541.83 4125.45 3503.76 4115.25 3473.99 4132.44C3444.22 4149.63 3434.02 4187.7 3451.21 4217.47C3468.39 4247.24 3506.46 4257.44 3536.23 4240.25C3566.01 4223.06 3576.21 4184.99 3559.02 4155.22Z" fill="white" stroke="white" stroke-width="16"/>
<path d="M487.082 2381.72C452.705 2381.72 424.837 2409.59 424.837 2443.97C424.837 2478.35 452.705 2506.21 487.082 2506.21C521.46 2506.21 549.328 2478.35 549.328 2443.97C549.328 2409.59 521.46 2381.72 487.082 2381.72Z" fill="white" stroke="white" stroke-width="16"/>
<path d="M4511.13 2381.72C4476.75 2381.72 4448.88 2409.59 4448.88 2443.97C4448.88 2478.35 4476.75 2506.21 4511.13 2506.21C4545.5 2506.21 4573.37 2478.35 4573.37 2443.97C4573.37 2409.59 4545.5 2381.72 4511.13 2381.72Z" fill="white" stroke="white" stroke-width="16"/>
<path d="M1439.92 4157.55C1422.73 4187.32 1432.93 4225.39 1462.7 4242.58C1492.47 4259.77 1530.54 4249.56 1547.73 4219.79C1564.92 4190.02 1554.72 4151.95 1524.95 4134.76C1495.17 4117.58 1457.1 4127.78 1439.92 4157.55Z" fill="white" stroke="white" stroke-width="16"/>
<path d="M3451.94 672.661C3434.75 702.433 3444.95 740.502 3474.72 757.69C3504.49 774.879 3542.56 764.678 3559.75 734.907C3576.94 705.135 3566.74 667.066 3536.97 649.877C3507.2 632.688 3469.13 642.889 3451.94 672.661Z" fill="white" stroke="white" stroke-width="16"/>
<path d="M2468.79 78.1225C2439.02 95.3112 2428.82 133.38 2446.01 163.152C2463.2 192.924 2501.27 203.124 2531.04 185.935C2560.81 168.747 2571.01 130.678 2553.82 100.906C2536.63 71.1343 2498.56 60.9338 2468.79 78.1225Z" fill="white" stroke="white" stroke-width="16"/>
<path d="M2479.31 1221.9C2449.54 1239.08 2439.34 1277.15 2456.53 1306.93C2473.72 1336.7 2511.79 1346.9 2541.56 1329.71C2571.33 1312.52 2581.53 1274.45 2564.34 1244.68C2547.15 1214.91 2509.08 1204.71 2479.31 1221.9Z" fill="white" stroke="white" stroke-width="16"/>
<path d="M3485.33 2964.34C3455.56 2981.53 3445.36 3019.59 3462.55 3049.37C3479.74 3079.14 3517.81 3089.34 3547.58 3072.15C3577.35 3054.96 3587.55 3016.89 3570.36 2987.12C3553.17 2957.35 3515.1 2947.15 3485.33 2964.34Z" fill="white" stroke="white" stroke-width="16"/>
<path d="M1461.13 1809.63C1431.36 1826.82 1421.16 1864.89 1438.35 1894.66C1455.54 1924.43 1493.61 1934.63 1523.38 1917.44C1553.15 1900.25 1563.35 1862.19 1546.16 1832.41C1528.97 1802.64 1490.9 1792.44 1461.13 1809.63Z" fill="white" stroke="white" stroke-width="16"/>
<path d="M2467.14 3552.06C2437.37 3569.25 2427.17 3607.32 2444.36 3637.09C2461.55 3666.86 2499.62 3677.06 2529.39 3659.87C2559.16 3642.68 2569.36 3604.62 2552.17 3574.84C2534.99 3545.07 2496.92 3534.87 2467.14 3552.06Z" fill="white" stroke="white" stroke-width="16"/>
<path d="M2468.79 4708.06C2439.02 4725.25 2428.82 4763.32 2446.01 4793.09C2463.2 4822.87 2501.27 4833.07 2531.04 4815.88C2560.81 4798.69 2571.01 4760.62 2553.82 4730.85C2536.63 4701.08 2498.56 4690.88 2468.79 4708.06Z" fill="white" stroke="white" stroke-width="16"/>
<path d="M4558.72 1258.25C4541.53 1228.48 4503.46 1218.28 4473.69 1235.47C4443.92 1252.66 4433.72 1290.73 4450.9 1320.5C4468.09 1350.27 4506.16 1360.47 4535.93 1343.28C4565.71 1326.09 4575.91 1288.03 4558.72 1258.25Z" fill="white" stroke="white" stroke-width="16"/>
<path d="M548.936 3573.41C531.747 3543.63 493.678 3533.43 463.907 3550.62C434.135 3567.81 423.935 3605.88 441.123 3635.65C458.312 3665.42 496.381 3675.62 526.153 3658.44C555.924 3641.25 566.125 3603.18 548.936 3573.41Z" fill="white" stroke="white" stroke-width="16"/>
<path d="M4535.93 3658.35C4565.7 3641.17 4575.9 3603.1 4558.71 3573.32C4541.52 3543.55 4503.45 3533.35 4473.68 3550.54C4443.91 3567.73 4433.71 3605.8 4450.9 3635.57C4468.09 3665.34 4506.15 3675.54 4535.93 3658.35Z" fill="white" stroke="white" stroke-width="16"/>
<path d="M548.936 1258.26C531.747 1228.49 493.678 1218.29 463.907 1235.47C434.135 1252.66 423.935 1290.73 441.123 1320.5C458.312 1350.28 496.381 1360.48 526.153 1343.29C555.924 1326.1 566.125 1288.03 548.936 1258.26Z" fill="white" stroke="white" stroke-width="16"/>
<path d="M1555.92 3002.38C1538.73 2972.61 1500.66 2962.41 1470.89 2979.6C1441.12 2996.79 1430.92 3034.86 1448.11 3064.63C1465.3 3094.4 1503.37 3104.6 1533.14 3087.41C1562.91 3070.22 1573.11 3032.15 1555.92 3002.38Z" fill="white" stroke="white" stroke-width="16"/>
<path d="M2559.06 2423.36C2541.87 2393.59 2503.8 2383.39 2474.03 2400.58C2444.26 2417.77 2434.06 2455.84 2451.24 2485.61C2468.43 2515.38 2506.5 2525.58 2536.27 2508.39C2566.05 2491.2 2576.25 2453.14 2559.06 2423.36Z" fill="white" stroke="white" stroke-width="16"/>
<path d="M3562.21 1844.17C3545.02 1814.4 3506.96 1804.2 3477.18 1821.39C3447.41 1838.58 3437.21 1876.65 3454.4 1906.42C3471.59 1936.19 3509.66 1946.39 3539.43 1929.2C3569.2 1912.01 3579.4 1873.94 3562.21 1844.17Z" fill="white" stroke="white" stroke-width="16"/>
</svg>
