<svg xmlns="http://www.w3.org/2000/svg" width="560" height="560" fill="none"><path fill="#fff" d="M543.778 280.661c.123-.218.205-.459.247-.712.023-.129.123-.223.123-.358 0-.171-.117-.294-.159-.453-.011-.041 0-.082-.011-.124-.018-.064-.065-.105-.094-.164a1.93 1.93 0 0 0-.636-.824 2 2 0 0 0-.429-.276c-.094-.041-.159-.141-.259-.17l-152.648-46.857 66.256-124.692c.136-.259.212-.53.236-.806 0-.023-.006-.041-.006-.065a2.07 2.07 0 0 0-.365-1.264c-.017-.023-.006-.059-.023-.082-.006-.012-.03-.018-.03-.018a2 2 0 0 0-.67-.582c-.129-.071-.276-.082-.412-.124-.07-.017-.123-.047-.194-.058a2.07 2.07 0 0 0-1.235.164c-.035.018-.076-.006-.111.018l-124.869 66.233-46.921-152.978a2.1 2.1 0 0 0-.412-.74l-.024-.018a2.1 2.1 0 0 0-1.193-.665c-.024-.006-.03-.03-.053-.03-.012 0-.024.007-.024.007a2 2 0 0 0-.894.064c-.153.047-.276.147-.411.224-.047.023-.083.04-.124.07-.37.247-.629.594-.776 1-.012.035-.059.047-.071.088l-46.921 152.978-124.869-66.233c-.035-.018-.076 0-.117-.018a2.06 2.06 0 0 0-1.217-.164c-.083.011-.147.041-.224.064-.129.036-.265.047-.394.112a2.1 2.1 0 0 0-.67.582c-.006.012-.03.018-.03.018-.017.023-.006.053-.023.082-.259.382-.4.829-.371 1.288 0 .012-.006.024-.006.035.024.277.095.553.236.812l66.25 124.692-152.49 46.81c-.029.005-.04.035-.07.041-.106.023-.194.094-.294.135-.03.012-.053.029-.082.047-.094.041-.177.1-.259.153-.112.071-.235.106-.335.194-.012.012-.03.006-.041.018l-.006.011c-.03.03-.083.03-.112.065l-.006.012c-.117.135-.13.329-.206.488a2 2 0 0 0-.106.229c-.011.036-.04.059-.053.094-.017.047-.005.094-.011.147-.036.153-.159.265-.159.43 0 .017.012.035.012.053 0 .058.03.105.035.164.053.471.247.906.565 1.229.029.036.017.089.053.118.04.041.105.023.147.059.07.064.17.094.252.147.13.082.247.159.389.211.035.012.058.042.094.047l152.672 46.845-66.286 124.728c-.018.035 0 .07-.012.106a2 2 0 0 0-.165 1.241c.012.07.041.129.059.2.041.135.053.276.123.405.106.206.295.324.453.477.065.064.071.17.147.223.03.024.071.012.1.035.335.224.718.365 1.129.371l.012.006c.329 0 .665-.083.976-.241l124.916-66.222 46.91 152.996c.011.041.052.059.07.1.135.364.347.688.659.929.047.035.1.047.153.082.158.106.311.212.499.271.2.064.406.088.606.094q.152.002.312-.024c.141-.023.217-.147.347-.194.27-.094.506-.2.717-.4.153-.141.23-.294.335-.47.083-.141.23-.229.283-.394l46.909-152.996 124.916 66.222c.312.158.641.241.976.241.412 0 .8-.147 1.141-.377.029-.017.071-.011.1-.029.076-.053.076-.159.141-.218.159-.152.347-.27.459-.482.07-.129.082-.276.123-.411.018-.071.041-.124.059-.194a2.06 2.06 0 0 0-.171-1.247c-.017-.03.006-.071-.011-.1l-66.286-124.728 152.672-46.845c.353-.105.629-.317.87-.57.129-.118.224-.235.318-.388m-346.615 1.011q.193.036.394.036h76.948l-57.154 57.153-186.297-57.159zm84.493 2.947 57.177 57.183-57.177 186.462zm79.976-7.116q-.187 0-.365.035h-76.7l57.23-57.23 186.438 57.224zm81.376-164.086L342.191 214.116l-12.455-40.611zm-165.522 161.14-57.171-57.177 57.171-186.403zM113.177 116.345l100.775 100.647-40.664 12.484zm2.928 329.455 100.858-100.729 12.467 40.653zm329.902-2.934L345.202 342.184l40.67-12.479z"/></svg>