<svg width="640" height="640" viewBox="0 0 640 640" fill="none" xmlns="http://www.w3.org/2000/svg">
<path d="M204.875 377.275L193.063 375.286C195.531 360.564 217.477 325.25 257.163 325.25V337.229C222.975 337.241 206.288 368.794 204.875 377.275Z" fill="white"/>
<path d="M174.697 378.946C180.89 378.946 186.975 379.677 192.893 381.102C166.407 411.361 151.002 454.042 151.002 498.963C151.002 539.393 163.472 578.24 185.585 607.769C171.618 615.124 156.98 618.969 142.665 618.969C133.489 618.969 124.529 617.376 116.047 614.237C66.3345 595.838 45.0119 529.151 68.5267 465.59C87.4056 414.583 131.069 378.946 174.697 378.946ZM174.697 366.967C127.032 366.967 78.5291 404.078 57.3024 461.433C31.4637 531.295 55.9008 604.738 111.903 625.462C121.917 629.175 132.279 630.936 142.677 630.936C163.64 630.936 184.759 623.749 203.65 610.835C178.733 583.535 162.981 543.501 162.981 498.951C162.981 448.184 183.405 403.335 214.539 376.406C211.616 374.933 208.633 373.603 205.519 372.453C195.48 368.728 185.106 366.967 174.697 366.967Z" fill="white"/>
<path d="M282.398 375.764C333.979 375.764 375.954 431.035 375.954 498.968C375.954 566.889 333.979 622.148 282.398 622.148C230.804 622.148 188.83 566.889 188.83 498.968C188.842 431.047 230.816 375.764 282.398 375.764ZM282.398 363.785C224.108 363.785 176.851 424.339 176.851 498.968C176.851 573.597 224.096 634.127 282.398 634.127C340.675 634.127 387.933 573.597 387.933 498.968C387.933 424.339 340.675 363.785 282.398 363.785Z" fill="white"/>
<path d="M261.012 375.445C218.774 301.799 314.175 244.18 360.019 216.484C368.692 211.237 378.514 205.308 380.12 203.283L389.799 210.351C387.127 214.016 380.647 218.029 366.212 226.726C323.627 252.445 234.994 305.979 271.398 369.468L261.012 375.445Z" fill="white"/>
<path d="M137.032 103.444C213.806 150.067 244.999 237.645 255.876 278.997C235.152 270.312 206.391 248.702 181.618 217.928C163.326 195.204 135.14 152.007 137.032 103.444ZM127.162 84.3379C107.672 188.016 224.587 293.803 271.904 295.204C262.86 248.57 228.061 134.446 127.162 84.3379Z" fill="white"/>
<path d="M330.635 27.6403C357.024 98.7956 329.916 172.718 313.217 218.262C310.342 226.108 307.862 232.865 305.958 238.734C301.765 233.008 298.136 224.851 295.392 214.752C281.317 162.943 292.733 79.8807 330.635 27.6403ZM333.833 5C262.163 80.851 263.552 244.388 313.66 259.003C313.66 230.469 388.122 112.871 333.833 5Z" fill="white"/>
<path d="M415.995 255.504C470.739 255.504 534.335 276.3 570.811 304.714C554.184 309.757 536.252 312.309 517.265 312.309C463.24 312.309 410.796 292.4 372.499 277.857C363.958 274.611 356.315 271.7 349.499 269.352C370.882 258.248 396.253 255.504 415.995 255.504ZM415.995 243.525C378.572 243.525 344.013 252.677 321.312 275.006C321.576 274.994 321.84 274.994 322.115 274.994C347.882 274.994 430.417 324.288 517.265 324.288C542.72 324.288 568.523 320.047 593.392 309.098C560.27 273.305 483.484 243.525 415.995 243.525Z" fill="white"/>
</svg>
