<svg width="660" height="660" viewBox="0 0 660 660" fill="none" xmlns="http://www.w3.org/2000/svg">
<path d="M231.961 535.355C233.303 535.355 234.391 534.267 234.391 532.925C234.391 531.583 233.303 530.495 231.961 530.495C230.619 530.495 229.531 531.583 229.531 532.925C229.531 534.267 230.619 535.355 231.961 535.355Z" fill="white"/>
<path d="M227.56 555.57C228.902 555.57 229.99 554.482 229.99 553.14C229.99 551.798 228.902 550.71 227.56 550.71C226.218 550.71 225.13 551.798 225.13 553.14C225.13 554.482 226.218 555.57 227.56 555.57Z" fill="white"/>
<path d="M226.687 549.435C228.029 549.435 229.117 548.347 229.117 547.005C229.117 545.663 228.029 544.575 226.687 544.575C225.345 544.575 224.257 545.663 224.257 547.005C224.257 548.347 225.345 549.435 226.687 549.435Z" fill="white"/>
<path d="M240.637 552.599C241.979 552.599 243.067 551.511 243.067 550.169C243.067 548.827 241.979 547.739 240.637 547.739C239.295 547.739 238.207 548.827 238.207 550.169C238.207 551.511 239.295 552.599 240.637 552.599Z" fill="white"/>
<path d="M233.977 545.058C235.319 545.058 236.407 543.97 236.407 542.628C236.407 541.286 235.319 540.198 233.977 540.198C232.635 540.198 231.547 541.286 231.547 542.628C231.547 543.97 232.635 545.058 233.977 545.058Z" fill="white"/>
<path d="M219.73 562.847C221.072 562.847 222.16 561.759 222.16 560.417C222.16 559.075 221.072 557.987 219.73 557.987C218.388 557.987 217.3 559.075 217.3 560.417C217.3 561.759 218.388 562.847 219.73 562.847Z" fill="white"/>
<path d="M245.569 562.197C246.911 562.197 247.999 561.109 247.999 559.767C247.999 558.425 246.911 557.337 245.569 557.337C244.227 557.337 243.139 558.425 243.139 559.767C243.139 561.109 244.227 562.197 245.569 562.197Z" fill="white"/>
<path d="M236.452 560.729C237.794 560.729 238.882 559.641 238.882 558.299C238.882 556.957 237.794 555.869 236.452 555.869C235.11 555.869 234.022 556.957 234.022 558.299C234.022 559.641 235.11 560.729 236.452 560.729Z" fill="white"/>
<path d="M235.399 569.835C236.741 569.835 237.829 568.747 237.829 567.405C237.829 566.063 236.741 564.975 235.399 564.975C234.057 564.975 232.969 566.063 232.969 567.405C232.969 568.747 234.057 569.835 235.399 569.835Z" fill="white"/>
<path d="M236.839 579.555C238.181 579.555 239.269 578.467 239.269 577.125C239.269 575.783 238.181 574.695 236.839 574.695C235.497 574.695 234.409 575.783 234.409 577.125C234.409 578.467 235.497 579.555 236.839 579.555Z" fill="white"/>
<path d="M217.507 576.075C218.849 576.075 219.937 574.987 219.937 573.645C219.937 572.303 218.849 571.215 217.507 571.215C216.165 571.215 215.077 572.303 215.077 573.645C215.077 574.987 216.165 576.075 217.507 576.075Z" fill="white"/>
<path d="M242.248 542.079C243.59 542.079 244.678 540.991 244.678 539.649C244.678 538.307 243.59 537.219 242.248 537.219C240.906 537.219 239.818 538.307 239.818 539.649C239.818 540.991 240.906 542.079 242.248 542.079Z" fill="white"/>
<path d="M240.052 531.4C241.394 531.4 242.482 530.312 242.482 528.97C242.482 527.628 241.394 526.54 240.052 526.54C238.71 526.54 237.622 527.628 237.622 528.97C237.622 530.312 238.71 531.4 240.052 531.4Z" fill="white"/>
<path d="M248.674 549.91C250.016 549.91 251.104 548.822 251.104 547.48C251.104 546.138 250.016 545.05 248.674 545.05C247.332 545.05 246.244 546.138 246.244 547.48C246.244 548.822 247.332 549.91 248.674 549.91Z" fill="white"/>
<path d="M261.652 535.962C262.994 535.962 264.082 534.874 264.082 533.532C264.082 532.19 262.994 531.102 261.652 531.102C260.31 531.102 259.222 532.19 259.222 533.532C259.222 534.874 260.31 535.962 261.652 535.962Z" fill="white"/>
<path d="M245.353 525.898C246.695 525.898 247.783 524.81 247.783 523.468C247.783 522.126 246.695 521.038 245.353 521.038C244.011 521.038 242.923 522.126 242.923 523.468C242.923 524.81 244.011 525.898 245.353 525.898Z" fill="white"/>
<path d="M245.128 505.209C246.47 505.209 247.558 504.121 247.558 502.779C247.558 501.437 246.47 500.349 245.128 500.349C243.786 500.349 242.698 501.437 242.698 502.779C242.698 504.121 243.786 505.209 245.128 505.209Z" fill="white"/>
<path d="M247.351 510.992C248.693 510.992 249.781 509.904 249.781 508.562C249.781 507.22 248.693 506.132 247.351 506.132C246.009 506.132 244.921 507.22 244.921 508.562C244.921 509.904 246.009 510.992 247.351 510.992Z" fill="white"/>
<path d="M233.05 511.027C234.392 511.027 235.48 509.939 235.48 508.597C235.48 507.255 234.392 506.167 233.05 506.167C231.708 506.167 230.62 507.255 230.62 508.597C230.62 509.939 231.708 511.027 233.05 511.027Z" fill="white"/>
<path d="M241.222 516.889C242.564 516.889 243.652 515.801 243.652 514.459C243.652 513.117 242.564 512.029 241.222 512.029C239.88 512.029 238.792 513.117 238.792 514.459C238.792 515.801 239.88 516.889 241.222 516.889Z" fill="white"/>
<path d="M236.785 504.954C238.127 504.954 239.215 503.866 239.215 502.524C239.215 501.182 238.127 500.094 236.785 500.094C235.443 500.094 234.355 501.182 234.355 502.524C234.355 503.866 235.443 504.954 236.785 504.954Z" fill="white"/>
<path d="M251.374 496.674C252.716 496.674 253.804 495.586 253.804 494.244C253.804 492.902 252.716 491.814 251.374 491.814C250.032 491.814 248.944 492.902 248.944 494.244C248.944 495.586 250.032 496.674 251.374 496.674Z" fill="white"/>
<path d="M252.427 477.154C253.769 477.154 254.857 476.066 254.857 474.724C254.857 473.382 253.769 472.294 252.427 472.294C251.085 472.294 249.997 473.382 249.997 474.724C249.997 476.066 251.085 477.154 252.427 477.154Z" fill="white"/>
<path d="M233.833 521.644C235.175 521.644 236.263 520.556 236.263 519.214C236.263 517.872 235.175 516.784 233.833 516.784C232.491 516.784 231.403 517.872 231.403 519.214C231.403 520.556 232.491 521.644 233.833 521.644Z" fill="white"/>
<path d="M285.565 477.989C286.907 477.989 287.995 476.901 287.995 475.559C287.995 474.217 286.907 473.129 285.565 473.129C284.223 473.129 283.135 474.217 283.135 475.559C283.135 476.901 284.223 477.989 285.565 477.989Z" fill="white"/>
<path d="M225.805 515.448C227.147 515.448 228.235 514.36 228.235 513.018C228.235 511.676 227.147 510.588 225.805 510.588C224.463 510.588 223.375 511.676 223.375 513.018C223.375 514.36 224.463 515.448 225.805 515.448Z" fill="white"/>
<path d="M281.668 488.492C283.01 488.492 284.098 487.404 284.098 486.062C284.098 484.72 283.01 483.632 281.668 483.632C280.326 483.632 279.238 484.72 279.238 486.062C279.238 487.404 280.326 488.492 281.668 488.492Z" fill="white"/>
<path d="M276.664 491.726C278.006 491.726 279.094 490.638 279.094 489.296C279.094 487.954 278.006 486.866 276.664 486.866C275.322 486.866 274.234 487.954 274.234 489.296C274.234 490.638 275.322 491.726 276.664 491.726Z" fill="white"/>
<path d="M270.418 509.392C271.76 509.392 272.848 508.304 272.848 506.962C272.848 505.62 271.76 504.532 270.418 504.532C269.076 504.532 267.988 505.62 267.988 506.962C267.988 508.304 269.076 509.392 270.418 509.392Z" fill="white"/>
<path d="M267.358 496.068C268.7 496.068 269.788 494.98 269.788 493.638C269.788 492.296 268.7 491.208 267.358 491.208C266.016 491.208 264.928 492.296 264.928 493.638C264.928 494.98 266.016 496.068 267.358 496.068Z" fill="white"/>
<path d="M275.746 501.552C277.088 501.552 278.176 500.464 278.176 499.122C278.176 497.78 277.088 496.692 275.746 496.692C274.404 496.692 273.316 497.78 273.316 499.122C273.316 500.464 274.404 501.552 275.746 501.552Z" fill="white"/>
<path d="M259.546 506.966C260.888 506.966 261.976 505.879 261.976 504.536C261.976 503.194 260.888 502.106 259.546 502.106C258.204 502.106 257.116 503.194 257.116 504.536C257.116 505.879 258.204 506.966 259.546 506.966Z" fill="white"/>
<path d="M273.487 482.111C274.829 482.111 275.917 481.023 275.917 479.681C275.917 478.339 274.829 477.251 273.487 477.251C272.145 477.251 271.057 478.339 271.057 479.681C271.057 481.023 272.145 482.111 273.487 482.111Z" fill="white"/>
<path d="M259.915 499.847C261.257 499.847 262.345 498.759 262.345 497.417C262.345 496.075 261.257 494.987 259.915 494.987C258.573 494.987 257.485 496.075 257.485 497.417C257.485 498.759 258.573 499.847 259.915 499.847Z" fill="white"/>
<path d="M266.449 489.766C267.791 489.766 268.879 488.678 268.879 487.336C268.879 485.994 267.791 484.906 266.449 484.906C265.107 484.906 264.019 485.994 264.019 487.336C264.019 488.678 265.107 489.766 266.449 489.766Z" fill="white"/>
<path d="M252.022 490.601C253.364 490.601 254.452 489.513 254.452 488.171C254.452 486.829 253.364 485.741 252.022 485.741C250.68 485.741 249.592 486.829 249.592 488.171C249.592 489.513 250.68 490.601 252.022 490.601Z" fill="white"/>
<path d="M259.663 484.976C261.005 484.976 262.093 483.888 262.093 482.546C262.093 481.204 261.005 480.116 259.663 480.116C258.321 480.116 257.233 481.204 257.233 482.546C257.233 483.888 258.321 484.976 259.663 484.976Z" fill="white"/>
<path d="M265.324 515.914C266.666 515.914 267.754 514.826 267.754 513.484C267.754 512.142 266.666 511.054 265.324 511.054C263.982 511.054 262.894 512.142 262.894 513.484C262.894 514.826 263.982 515.914 265.324 515.914Z" fill="white"/>
<path d="M255.307 514.323C256.649 514.323 257.737 513.235 257.737 511.893C257.737 510.551 256.649 509.463 255.307 509.463C253.965 509.463 252.877 510.551 252.877 511.893C252.877 513.235 253.965 514.323 255.307 514.323Z" fill="white"/>
<path d="M263.353 526.311C264.695 526.311 265.783 525.223 265.783 523.881C265.783 522.539 264.695 521.451 263.353 521.451C262.011 521.451 260.923 522.539 260.923 523.881C260.923 525.223 262.011 526.311 263.353 526.311Z" fill="white"/>
<path d="M250.114 531.699C251.456 531.699 252.544 530.611 252.544 529.269C252.544 527.927 251.456 526.839 250.114 526.839C248.772 526.839 247.684 527.927 247.684 529.269C247.684 530.611 248.772 531.699 250.114 531.699Z" fill="white"/>
<path d="M183.028 609.832C184.146 609.832 185.053 608.926 185.053 607.807C185.053 606.689 184.146 605.782 183.028 605.782C181.91 605.782 181.003 606.689 181.003 607.807C181.003 608.926 181.91 609.832 183.028 609.832Z" fill="white"/>
<path d="M287.995 446.375C289.337 446.375 290.425 445.287 290.425 443.945C290.425 442.603 289.337 441.515 287.995 441.515C286.653 441.515 285.565 442.603 285.565 443.945C285.565 445.287 286.653 446.375 287.995 446.375Z" fill="white"/>
<path d="M185.71 573.403C187.052 573.403 188.14 572.315 188.14 570.973C188.14 569.631 187.052 568.543 185.71 568.543C184.368 568.543 183.28 569.631 183.28 570.973C183.28 572.315 184.368 573.403 185.71 573.403Z" fill="white"/>
<path d="M229.117 501.473C230.459 501.473 231.547 500.385 231.547 499.043C231.547 497.701 230.459 496.613 229.117 496.613C227.775 496.613 226.687 497.701 226.687 499.043C226.687 500.385 227.775 501.473 229.117 501.473Z" fill="white"/>
<path d="M281.668 401.594C283.01 401.594 284.098 400.506 284.098 399.164C284.098 397.822 283.01 396.734 281.668 396.734C280.326 396.734 279.238 397.822 279.238 399.164C279.238 400.506 280.326 401.594 281.668 401.594Z" fill="white"/>
<path d="M272.497 391.803C273.839 391.803 274.927 390.715 274.927 389.373C274.927 388.031 273.839 386.943 272.497 386.943C271.155 386.943 270.067 388.031 270.067 389.373C270.067 390.715 271.155 391.803 272.497 391.803Z" fill="white"/>
<path d="M226.219 578.465C227.561 578.465 228.649 577.378 228.649 576.036C228.649 574.693 227.561 573.605 226.219 573.605C224.877 573.605 223.789 574.693 223.789 576.036C223.789 577.378 224.877 578.465 226.219 578.465Z" fill="white"/>
<path d="M195.871 610.097C197.213 610.097 198.301 609.009 198.301 607.667C198.301 606.325 197.213 605.237 195.871 605.237C194.529 605.237 193.441 606.325 193.441 607.667C193.441 609.009 194.529 610.097 195.871 610.097Z" fill="white"/>
<path d="M199.651 560.017C200.993 560.017 202.081 558.929 202.081 557.587C202.081 556.245 200.993 555.157 199.651 555.157C198.309 555.157 197.221 556.245 197.221 557.587C197.221 558.929 198.309 560.017 199.651 560.017Z" fill="white"/>
<path d="M164.173 611.214C165.515 611.214 166.603 610.126 166.603 608.784C166.603 607.442 165.515 606.354 164.173 606.354C162.831 606.354 161.743 607.442 161.743 608.784C161.743 610.126 162.831 611.214 164.173 611.214Z" fill="white"/>
<path d="M93.901 611.214C95.243 611.214 96.3309 610.126 96.3309 608.784C96.3309 607.442 95.243 606.354 93.901 606.354C92.5589 606.354 91.4709 607.442 91.4709 608.784C91.4709 610.126 92.5589 611.214 93.901 611.214Z" fill="white"/>
<path d="M226.291 593.099C227.633 593.099 228.721 592.011 228.721 590.669C228.721 589.327 227.633 588.239 226.291 588.239C224.949 588.239 223.861 589.327 223.861 590.669C223.861 592.011 224.949 593.099 226.291 593.099Z" fill="white"/>
<path d="M280.768 427.065C282.11 427.065 283.198 425.977 283.198 424.635C283.198 423.293 282.11 422.205 280.768 422.205C279.426 422.205 278.338 423.293 278.338 424.635C278.338 425.977 279.426 427.065 280.768 427.065Z" fill="white"/>
<path d="M193.441 591.64C194.783 591.64 195.871 590.552 195.871 589.21C195.871 587.868 194.783 586.78 193.441 586.78C192.099 586.78 191.011 587.868 191.011 589.21C191.011 590.552 192.099 591.64 193.441 591.64Z" fill="white"/>
<path d="M215.851 534.169C217.193 534.169 218.281 533.081 218.281 531.739C218.281 530.397 217.193 529.309 215.851 529.309C214.509 529.309 213.421 530.397 213.421 531.739C213.421 533.081 214.509 534.169 215.851 534.169Z" fill="white"/>
<path d="M239.071 495.172C240.413 495.172 241.501 494.084 241.501 492.741C241.501 491.399 240.413 490.312 239.071 490.312C237.729 490.312 236.641 491.399 236.641 492.741C236.641 494.084 237.729 495.172 239.071 495.172Z" fill="white"/>
<path d="M272.497 454.241C273.839 454.241 274.927 453.153 274.927 451.811C274.927 450.469 273.839 449.381 272.497 449.381C271.155 449.381 270.067 450.469 270.067 451.811C270.067 453.153 271.155 454.241 272.497 454.241Z" fill="white"/>
<path d="M278.338 456.333C279.68 456.333 280.768 455.245 280.768 453.903C280.768 452.561 279.68 451.473 278.338 451.473C276.996 451.473 275.908 452.561 275.908 453.903C275.908 455.245 276.996 456.333 278.338 456.333Z" fill="white"/>
<path d="M269.023 467.187C270.365 467.187 271.453 466.099 271.453 464.757C271.453 463.415 270.365 462.327 269.023 462.327C267.681 462.327 266.593 463.415 266.593 464.757C266.593 466.099 267.681 467.187 269.023 467.187Z" fill="white"/>
<path d="M278.797 464.823C280.139 464.823 281.227 463.735 281.227 462.393C281.227 461.051 280.139 459.963 278.797 459.963C277.455 459.963 276.367 461.051 276.367 462.393C276.367 463.735 277.455 464.823 278.797 464.823Z" fill="white"/>
<path d="M290.434 424.639C291.776 424.639 292.864 423.551 292.864 422.209C292.864 420.867 291.776 419.779 290.434 419.779C289.092 419.779 288.004 420.867 288.004 422.209C288.004 423.551 289.092 424.639 290.434 424.639Z" fill="white"/>
<path d="M269.716 443.909C271.039 444.125 272.29 443.225 272.506 441.902C272.722 440.579 271.831 439.328 270.499 439.112C269.176 438.896 267.925 439.787 267.709 441.119C267.493 442.442 268.393 443.693 269.716 443.909Z" fill="white"/>
<path d="M271.453 427.065C272.795 427.065 273.883 425.977 273.883 424.635C273.883 423.293 272.795 422.205 271.453 422.205C270.111 422.205 269.023 423.293 269.023 424.635C269.023 425.977 270.111 427.065 271.453 427.065Z" fill="white"/>
<path d="M267.646 475.563C268.988 475.563 270.076 474.475 270.076 473.133C270.076 471.791 268.988 470.703 267.646 470.703C266.304 470.703 265.216 471.791 265.216 473.133C265.216 474.475 266.304 475.563 267.646 475.563Z" fill="white"/>
<path d="M258.574 466.308C259.916 466.308 261.004 465.22 261.004 463.878C261.004 462.536 259.916 461.448 258.574 461.448C257.232 461.448 256.144 462.536 256.144 463.878C256.144 465.22 257.232 466.308 258.574 466.308Z" fill="white"/>
<path d="M260.941 452.281C262.283 452.281 263.371 451.193 263.371 449.851C263.371 448.509 262.283 447.421 260.941 447.421C259.599 447.421 258.511 448.509 258.511 449.851C258.511 451.193 259.599 452.281 260.941 452.281Z" fill="white"/>
<path d="M204.763 584.301C206.105 584.301 207.193 583.213 207.193 581.871C207.193 580.529 206.105 579.441 204.763 579.441C203.421 579.441 202.333 580.529 202.333 581.871C202.333 583.213 203.421 584.301 204.763 584.301Z" fill="white"/>
<path d="M215.275 589.478C216.617 589.478 217.705 588.39 217.705 587.048C217.705 585.706 216.617 584.618 215.275 584.618C213.933 584.618 212.845 585.706 212.845 587.048C212.845 588.39 213.933 589.478 215.275 589.478Z" fill="white"/>
<path d="M290.434 364.118C291.776 364.118 292.864 363.03 292.864 361.688C292.864 360.346 291.776 359.258 290.434 359.258C289.092 359.258 288.004 360.346 288.004 361.688C288.004 363.03 289.092 364.118 290.434 364.118Z" fill="white"/>
<path d="M213.133 549.04C214.475 549.04 215.563 547.952 215.563 546.61C215.563 545.268 214.475 544.18 213.133 544.18C211.791 544.18 210.703 545.268 210.703 546.61C210.703 547.952 211.791 549.04 213.133 549.04Z" fill="white"/>
<path d="M205.753 599.54C206.871 599.54 207.778 598.634 207.778 597.515C207.778 596.397 206.871 595.49 205.753 595.49C204.635 595.49 203.728 596.397 203.728 597.515C203.728 598.634 204.635 599.54 205.753 599.54Z" fill="white"/>
<path d="M123.259 617.533C124.601 617.533 125.689 616.445 125.689 615.103C125.689 613.761 124.601 612.673 123.259 612.673C121.917 612.673 120.829 613.761 120.829 615.103C120.829 616.445 121.917 617.533 123.259 617.533Z" fill="white"/>
<path d="M140.791 610.097C142.133 610.097 143.221 609.009 143.221 607.667C143.221 606.325 142.133 605.237 140.791 605.237C139.449 605.237 138.361 606.325 138.361 607.667C138.361 609.009 139.449 610.097 140.791 610.097Z" fill="white"/>
<path d="M142.375 619.967C143.717 619.967 144.805 618.88 144.805 617.537C144.805 616.195 143.717 615.107 142.375 615.107C141.033 615.107 139.945 616.195 139.945 617.537C139.945 618.88 141.033 619.967 142.375 619.967Z" fill="white"/>
<path d="M169.555 618.252C170.673 618.252 171.58 617.346 171.58 616.227C171.58 615.109 170.673 614.202 169.555 614.202C168.437 614.202 167.53 615.109 167.53 616.227C167.53 617.346 168.437 618.252 169.555 618.252Z" fill="white"/>
<path d="M203.728 573.64C205.07 573.64 206.158 572.552 206.158 571.21C206.158 569.868 205.07 568.78 203.728 568.78C202.386 568.78 201.298 569.868 201.298 571.21C201.298 572.552 202.386 573.64 203.728 573.64Z" fill="white"/>
<path d="M180.823 599.946C182.165 599.946 183.253 598.858 183.253 597.516C183.253 596.174 182.165 595.086 180.823 595.086C179.481 595.086 178.393 596.174 178.393 597.516C178.393 598.858 179.481 599.946 180.823 599.946Z" fill="white"/>
<path d="M120.829 631.912C122.171 631.912 123.259 630.824 123.259 629.482C123.259 628.14 122.171 627.052 120.829 627.052C119.487 627.052 118.399 628.14 118.399 629.482C118.399 630.824 119.487 631.912 120.829 631.912Z" fill="white"/>
<path d="M152.662 623.949C154.004 623.949 155.092 622.861 155.092 621.519C155.092 620.177 154.004 619.089 152.662 619.089C151.32 619.089 150.232 620.177 150.232 621.519C150.232 622.861 151.32 623.949 152.662 623.949Z" fill="white"/>
<path d="M223.33 534.116C224.672 534.116 225.76 533.028 225.76 531.686C225.76 530.344 224.672 529.256 223.33 529.256C221.988 529.256 220.9 530.344 220.9 531.686C220.9 533.028 221.988 534.116 223.33 534.116Z" fill="white"/>
<path d="M319.27 200.033C550.669 235.655 634.162 76.1479 654.313 26.2249C655.807 22.5079 655.249 18.4129 652.81 15.2719C650.389 12.1489 646.609 10.5829 642.649 11.0959C597.082 17.0269 367.051 53.693 312.646 193.364C312.619 193.418 312.601 193.472 312.583 193.517C307.453 206.414 271.651 206.018 246.559 202.49C244.327 199.637 243.049 197.738 242.995 197.657C242.932 197.558 242.833 197.513 242.761 197.423C240.412 178.604 233.806 157.067 219.334 134.189C217.993 132.074 215.203 131.453 213.124 132.794C211.027 134.117 210.397 136.907 211.729 138.995C247.657 195.785 231.898 244.862 226.516 258.029C216.274 255.887 205.303 254.681 193.45 254.681C152.851 254.681 117.643 268.343 88.816 295.271C60.646 321.569 39.199 354.716 25.096 393.812C11.092 432.449 4 470.573 4 507.131C4 552.554 14.503 587.924 35.212 612.269C56.335 637.046 87.655 649.61 128.326 649.61C168.943 649.61 204.142 635.948 232.96 609.011C261.13 582.704 282.568 549.638 296.671 510.74C310.675 472.148 317.776 434.105 317.776 397.673C317.776 352.259 307.282 316.808 286.573 292.301C273.424 276.758 256.306 265.994 235.453 260.072C238.747 251.873 243.94 235.277 243.805 213.317C252.67 223.514 267.943 237.815 286.474 241.658C289.453 269.963 319.243 451.475 590.188 466.073C590.512 466.091 590.836 466.1 591.16 466.1C597.163 466.1 602.599 463.112 605.839 457.982C609.214 452.636 609.421 446.147 606.415 440.612C572.431 378.215 473.818 233.306 291.622 233.306C291.406 233.306 291.154 233.306 290.938 233.306C276.772 231.38 264.172 221.462 255.442 212.57C261.382 213.146 268.303 213.614 275.485 213.614C293.197 213.623 312.106 210.815 319.27 200.033ZM643.801 20.0239C644.809 19.8889 645.43 20.4469 645.682 20.7799C645.898 21.0679 646.366 21.8329 645.952 22.8589C626.512 71.0449 545.989 224.54 323.122 191.51C379.327 60.803 599.692 25.7659 643.801 20.0239ZM279.688 298.115C298.984 320.957 308.758 354.446 308.758 397.682C308.758 433.061 301.837 470.069 288.202 507.671C274.576 545.237 253.921 577.115 226.804 602.441C199.705 627.767 166.576 640.61 128.317 640.61C90.409 640.61 61.384 629.117 42.061 606.428C22.774 583.757 13 550.358 13 507.131C13 471.626 19.921 434.528 33.556 396.872C47.182 359.135 67.837 327.158 94.954 301.85C122.062 276.524 155.2 263.681 193.441 263.681C205.294 263.681 216.175 264.95 226.273 267.209C226.462 267.353 226.606 267.551 226.831 267.659C227.497 268.01 228.217 268.181 228.919 268.181C229.189 268.181 229.423 268.019 229.684 267.974C250.303 273.203 267.088 283.22 279.688 298.115ZM598.495 444.923C599.926 447.551 599.818 450.638 598.216 453.176C596.56 455.804 593.743 457.244 590.656 457.1C327.451 442.916 298.579 273.698 295.492 242.342C357.691 243.269 501.232 266.345 598.495 444.923Z" fill="white"/>
<path d="M511.303 129.854C512.645 129.854 513.733 128.766 513.733 127.424C513.733 126.082 512.645 124.994 511.303 124.994C509.961 124.994 508.873 126.082 508.873 127.424C508.873 128.766 509.961 129.854 511.303 129.854Z" fill="white"/>
<path d="M496.84 144.646C498.182 144.646 499.27 143.558 499.27 142.216C499.27 140.874 498.182 139.786 496.84 139.786C495.498 139.786 494.41 140.874 494.41 142.216C494.41 143.558 495.498 144.646 496.84 144.646Z" fill="white"/>
<path d="M499.36 138.986C500.702 138.986 501.79 137.898 501.79 136.556C501.79 135.214 500.702 134.126 499.36 134.126C498.018 134.126 496.93 135.214 496.93 136.556C496.93 137.898 498.018 138.986 499.36 138.986Z" fill="white"/>
<path d="M509.503 149.067C510.845 149.067 511.933 147.979 511.933 146.637C511.933 145.295 510.845 144.207 509.503 144.207C508.161 144.207 507.073 145.295 507.073 146.637C507.073 147.979 508.161 149.067 509.503 149.067Z" fill="white"/>
<path d="M507.856 139.153C509.198 139.153 510.286 138.065 510.286 136.723C510.286 135.381 509.198 134.293 507.856 134.293C506.514 134.293 505.426 135.381 505.426 136.723C505.426 138.065 506.514 139.153 507.856 139.153Z" fill="white"/>
<path d="M486.346 146.668C487.688 146.668 488.776 145.58 488.776 144.238C488.776 142.896 487.688 141.808 486.346 141.808C485.004 141.808 483.916 142.896 483.916 144.238C483.916 145.58 485.004 146.668 486.346 146.668Z" fill="white"/>
<path d="M508.594 159.825C509.936 159.825 511.024 158.737 511.024 157.395C511.024 156.053 509.936 154.965 508.594 154.965C507.252 154.965 506.164 156.053 506.164 157.395C506.164 158.737 507.252 159.825 508.594 159.825Z" fill="white"/>
<path d="M501.646 153.734C502.988 153.734 504.076 152.646 504.076 151.304C504.076 149.962 502.988 148.874 501.646 148.874C500.304 148.874 499.216 149.962 499.216 151.304C499.216 152.646 500.304 153.734 501.646 153.734Z" fill="white"/>
<path d="M495.922 160.906C497.264 160.906 498.352 159.818 498.352 158.476C498.352 157.134 497.264 156.046 495.922 156.046C494.58 156.046 493.492 157.134 493.492 158.476C493.492 159.818 494.58 160.906 495.922 160.906Z" fill="white"/>
<path d="M491.98 169.897C493.322 169.897 494.41 168.809 494.41 167.467C494.41 166.125 493.322 165.037 491.98 165.037C490.638 165.037 489.55 166.125 489.55 167.467C489.55 168.809 490.638 169.897 491.98 169.897Z" fill="white"/>
<path d="M477.445 156.687C478.787 156.687 479.875 155.599 479.875 154.257C479.875 152.915 478.787 151.827 477.445 151.827C476.103 151.827 475.015 152.915 475.015 154.257C475.015 155.599 476.103 156.687 477.445 156.687Z" fill="white"/>
<path d="M516.451 140.999C517.793 140.999 518.881 139.911 518.881 138.569C518.881 137.227 517.793 136.139 516.451 136.139C515.109 136.139 514.021 137.227 514.021 138.569C514.021 139.911 515.109 140.999 516.451 140.999Z" fill="white"/>
<path d="M520.258 130.786C521.6 130.786 522.688 129.698 522.688 128.356C522.688 127.014 521.6 125.926 520.258 125.926C518.916 125.926 517.828 127.014 517.828 128.356C517.828 129.698 518.916 130.786 520.258 130.786Z" fill="white"/>
<path d="M517.747 151.053C519.089 151.053 520.177 149.965 520.177 148.623C520.177 147.281 519.089 146.193 517.747 146.193C516.405 146.193 515.317 147.281 515.317 148.623C515.317 149.965 516.405 151.053 517.747 151.053Z" fill="white"/>
<path d="M536.152 146.114C537.494 146.114 538.582 145.026 538.582 143.684C538.582 142.342 537.494 141.254 536.152 141.254C534.81 141.254 533.722 142.342 533.722 143.684C533.722 145.026 534.81 146.114 536.152 146.114Z" fill="white"/>
<path d="M527.674 128.931C529.016 128.931 530.104 127.843 530.104 126.501C530.104 125.159 529.016 124.071 527.674 124.071C526.332 124.071 525.244 125.159 525.244 126.501C525.244 127.843 526.332 128.931 527.674 128.931Z" fill="white"/>
<path d="M538.465 111.283C539.807 111.283 540.895 110.195 540.895 108.853C540.895 107.511 539.807 106.423 538.465 106.423C537.123 106.423 536.035 107.511 536.035 108.853C536.035 110.195 537.123 111.283 538.465 111.283Z" fill="white"/>
<path d="M537.277 117.365C538.619 117.365 539.707 116.277 539.707 114.935C539.707 113.593 538.619 112.505 537.277 112.505C535.935 112.505 534.847 113.593 534.847 114.935C534.847 116.277 535.935 117.365 537.277 117.365Z" fill="white"/>
<path d="M525.136 109.806C526.478 109.806 527.566 108.718 527.566 107.376C527.566 106.034 526.478 104.946 525.136 104.946C523.794 104.946 522.706 106.034 522.706 107.376C522.706 108.718 523.794 109.806 525.136 109.806Z" fill="white"/>
<path d="M528.961 119.105C530.303 119.105 531.391 118.017 531.391 116.675C531.391 115.333 530.303 114.245 528.961 114.245C527.619 114.245 526.531 115.333 526.531 116.675C526.531 118.017 527.619 119.105 528.961 119.105Z" fill="white"/>
<path d="M531.526 106.642C532.868 106.642 533.956 105.554 533.956 104.212C533.956 102.87 532.868 101.782 531.526 101.782C530.184 101.782 529.096 102.87 529.096 104.212C529.096 105.554 530.184 106.642 531.526 106.642Z" fill="white"/>
<path d="M548.284 107.372C549.626 107.372 550.714 106.284 550.714 104.942C550.714 103.6 549.626 102.512 548.284 102.512C546.942 102.512 545.854 103.6 545.854 104.942C545.854 106.284 546.942 107.372 548.284 107.372Z" fill="white"/>
<path d="M520.168 119.219C521.51 119.219 522.598 118.131 522.598 116.789C522.598 115.447 521.51 114.359 520.168 114.359C518.826 114.359 517.738 115.447 517.738 116.789C517.738 118.131 518.826 119.219 520.168 119.219Z" fill="white"/>
<path d="M516.658 109.71C518 109.71 519.088 108.622 519.088 107.28C519.088 105.938 518 104.85 516.658 104.85C515.316 104.85 514.228 105.938 514.228 107.28C514.228 108.622 515.316 109.71 516.658 109.71Z" fill="white"/>
<path d="M578.299 116.504C579.641 116.504 580.729 115.416 580.729 114.074C580.729 112.732 579.641 111.644 578.299 111.644C576.957 111.644 575.869 112.732 575.869 114.074C575.869 115.416 576.957 116.504 578.299 116.504Z" fill="white"/>
<path d="M572.35 116.591C573.692 116.591 574.78 115.504 574.78 114.161C574.78 112.819 573.692 111.731 572.35 111.731C571.008 111.731 569.92 112.819 569.92 114.161C569.92 115.504 571.008 116.591 572.35 116.591Z" fill="white"/>
<path d="M557.68 128.246C559.022 128.246 560.11 127.158 560.11 125.816C560.11 124.474 559.022 123.386 557.68 123.386C556.338 123.386 555.25 124.474 555.25 125.816C555.25 127.158 556.338 128.246 557.68 128.246Z" fill="white"/>
<path d="M562.153 115.335C563.495 115.335 564.583 114.247 564.583 112.905C564.583 111.563 563.495 110.475 562.153 110.475C560.811 110.475 559.723 111.563 559.723 112.905C559.723 114.247 560.811 115.335 562.153 115.335Z" fill="white"/>
<path d="M566.347 124.431C567.689 124.431 568.777 123.343 568.777 122.001C568.777 120.659 567.689 119.571 566.347 119.571C565.005 119.571 563.917 120.659 563.917 122.001C563.917 123.343 565.005 124.431 566.347 124.431Z" fill="white"/>
<path d="M549.742 120.432C551.084 120.432 552.172 119.344 552.172 118.002C552.172 116.66 551.084 115.572 549.742 115.572C548.4 115.572 547.312 116.66 547.312 118.002C547.312 119.344 548.4 120.432 549.742 120.432Z" fill="white"/>
<path d="M553.837 114.588C555.179 114.588 556.267 113.5 556.267 112.158C556.267 110.815 555.179 109.728 553.837 109.728C552.495 109.728 551.407 110.815 551.407 112.158C551.407 113.5 552.495 114.588 553.837 114.588Z" fill="white"/>
<path d="M564.727 109.516C566.069 109.516 567.157 108.428 567.157 107.086C567.157 105.744 566.069 104.656 564.727 104.656C563.385 104.656 562.297 105.744 562.297 107.086C562.297 108.428 563.385 109.516 564.727 109.516Z" fill="white"/>
<path d="M552.055 102.564C553.397 102.564 554.485 101.476 554.485 100.134C554.485 98.7921 553.397 97.7041 552.055 97.7041C550.713 97.7041 549.625 98.7921 549.625 100.134C549.625 101.476 550.713 102.564 552.055 102.564Z" fill="white"/>
<path d="M561.514 101.843C562.856 101.843 563.944 100.755 563.944 99.4134C563.944 98.0714 562.856 96.9834 561.514 96.9834C560.172 96.9834 559.084 98.0714 559.084 99.4134C559.084 100.755 560.172 101.843 561.514 101.843Z" fill="white"/>
<path d="M549.895 131.076C551.237 131.076 552.325 129.988 552.325 128.646C552.325 127.304 551.237 126.216 549.895 126.216C548.553 126.216 547.465 127.304 547.465 128.646C547.465 129.988 548.553 131.076 549.895 131.076Z" fill="white"/>
<path d="M542.254 124.414C543.596 124.414 544.684 123.326 544.684 121.984C544.684 120.642 543.596 119.554 542.254 119.554C540.912 119.554 539.824 120.642 539.824 121.984C539.824 123.326 540.912 124.414 542.254 124.414Z" fill="white"/>
<path d="M542.713 138.845C544.055 138.845 545.143 137.757 545.143 136.415C545.143 135.073 544.055 133.985 542.713 133.985C541.371 133.985 540.283 135.073 540.283 136.415C540.283 137.757 541.371 138.845 542.713 138.845Z" fill="white"/>
<path d="M528.628 136.384C529.97 136.384 531.058 135.296 531.058 133.954C531.058 132.612 529.97 131.524 528.628 131.524C527.286 131.524 526.198 132.612 526.198 133.954C526.198 135.296 527.286 136.384 528.628 136.384Z" fill="white"/>
<path d="M457.906 179.159C459.024 179.159 459.931 178.253 459.931 177.134C459.931 176.016 459.024 175.109 457.906 175.109C456.788 175.109 455.881 176.016 455.881 177.134C455.881 178.253 456.788 179.159 457.906 179.159Z" fill="white"/>
<path d="M522.616 91.692C523.958 91.692 525.046 90.6041 525.046 89.262C525.046 87.92 523.958 86.832 522.616 86.832C521.274 86.832 520.186 87.92 520.186 89.262C520.186 90.6041 521.274 91.692 522.616 91.692Z" fill="white"/>
<path d="M451.912 137.553C453.254 137.553 454.342 136.465 454.342 135.123C454.342 133.781 453.254 132.693 451.912 132.693C450.57 132.693 449.482 133.781 449.482 135.123C449.482 136.465 450.57 137.553 451.912 137.553Z" fill="white"/>
<path d="M526.873 99.6198C528.215 99.6198 529.303 98.5318 529.303 97.1898C529.303 95.8477 528.215 94.7598 526.873 94.7598C525.531 94.7598 524.443 95.8477 524.443 97.1898C524.443 98.5318 525.531 99.6198 526.873 99.6198Z" fill="white"/>
<path d="M475.969 113.173C477.311 113.173 478.399 112.085 478.399 110.743C478.399 109.4 477.311 108.312 475.969 108.312C474.627 108.312 473.539 109.4 473.539 110.743C473.539 112.085 474.627 113.173 475.969 113.173Z" fill="white"/>
<path d="M515.425 89.9254C516.767 89.9254 517.855 88.8375 517.855 87.4954C517.855 86.1534 516.767 85.0654 515.425 85.0654C514.083 85.0654 512.995 86.1534 512.995 87.4954C512.995 88.8375 514.083 89.9254 515.425 89.9254Z" fill="white"/>
<path d="M483.565 163.34C484.907 163.34 485.995 162.253 485.995 160.91C485.995 159.568 484.907 158.48 483.565 158.48C482.223 158.48 481.135 159.568 481.135 160.91C481.135 162.253 482.223 163.34 483.565 163.34Z" fill="white"/>
<path d="M436.189 164.606C437.531 164.606 438.619 163.518 438.619 162.176C438.619 160.834 437.531 159.746 436.189 159.746C434.847 159.746 433.759 160.834 433.759 162.176C433.759 163.518 434.847 164.606 436.189 164.606Z" fill="white"/>
<path d="M470.83 133.616C472.172 133.616 473.26 132.528 473.26 131.186C473.26 129.844 472.172 128.756 470.83 128.756C469.488 128.756 468.4 129.844 468.4 131.186C468.4 132.528 469.488 133.616 470.83 133.616Z" fill="white"/>
<path d="M439.024 178.95C440.366 178.95 441.454 177.862 441.454 176.52C441.454 175.178 440.366 174.09 439.024 174.09C437.682 174.09 436.594 175.178 436.594 176.52C436.594 177.862 437.682 178.95 439.024 178.95Z" fill="white"/>
<path d="M475.852 175.786C477.194 175.786 478.282 174.698 478.282 173.356C478.282 172.014 477.194 170.926 475.852 170.926C474.51 170.926 473.422 172.014 473.422 173.356C473.422 174.698 474.51 175.786 475.852 175.786Z" fill="white"/>
<path d="M371.209 194.515C372.551 194.515 373.639 193.427 373.639 192.085C373.639 190.743 372.551 189.655 371.209 189.655C369.867 189.655 368.779 190.743 368.779 192.085C368.779 193.427 369.867 194.515 371.209 194.515Z" fill="white"/>
<path d="M448.789 157.109C450.131 157.109 451.219 156.021 451.219 154.679C451.219 153.337 450.131 152.249 448.789 152.249C447.447 152.249 446.359 153.337 446.359 154.679C446.359 156.021 447.447 157.109 448.789 157.109Z" fill="white"/>
<path d="M498.28 120.292C499.622 120.292 500.71 119.204 500.71 117.862C500.71 116.52 499.622 115.432 498.28 115.432C496.938 115.432 495.85 116.52 495.85 117.862C495.85 119.204 496.938 120.292 498.28 120.292Z" fill="white"/>
<path d="M538.654 99.567C539.996 99.567 541.084 98.4791 541.084 97.137C541.084 95.795 539.996 94.707 538.654 94.707C537.312 94.707 536.224 95.795 536.224 97.137C536.224 98.4791 537.312 99.567 538.654 99.567Z" fill="white"/>
<path d="M462.28 156.898C463.622 156.898 464.71 155.81 464.71 154.468C464.71 153.126 463.622 152.038 462.28 152.038C460.938 152.038 459.85 153.126 459.85 154.468C459.85 155.81 460.938 156.898 462.28 156.898Z" fill="white"/>
<path d="M468.436 166.865C469.778 166.865 470.866 165.777 470.866 164.435C470.866 163.093 469.778 162.005 468.436 162.005C467.094 162.005 466.006 163.093 466.006 164.435C466.006 165.777 467.094 166.865 468.436 166.865Z" fill="white"/>
<path d="M499.873 104.454C501.215 104.454 502.303 103.366 502.303 102.024C502.303 100.682 501.215 99.5938 499.873 99.5938C498.531 99.5938 497.443 100.682 497.443 102.024C497.443 103.366 498.531 104.454 499.873 104.454Z" fill="white"/>
<path d="M488.092 131.454C489.434 131.454 490.522 130.366 490.522 129.024C490.522 127.682 489.434 126.594 488.092 126.594C486.75 126.594 485.662 127.682 485.662 129.024C485.662 130.366 486.75 131.454 488.092 131.454Z" fill="white"/>
<path d="M454.81 170.291C455.928 170.291 456.835 169.385 456.835 168.266C456.835 167.148 455.928 166.241 454.81 166.241C453.692 166.241 452.785 167.148 452.785 168.266C452.785 169.385 453.692 170.291 454.81 170.291Z" fill="white"/>
<path d="M384.718 182.193C386.06 182.193 387.148 181.105 387.148 179.763C387.148 178.421 386.06 177.333 384.718 177.333C383.376 177.333 382.288 178.421 382.288 179.763C382.288 181.105 383.376 182.193 384.718 182.193Z" fill="white"/>
<path d="M415.831 175.839C417.173 175.839 418.261 174.751 418.261 173.409C418.261 172.066 417.173 170.979 415.831 170.979C414.489 170.979 413.401 172.066 413.401 173.409C413.401 174.751 414.489 175.839 415.831 175.839Z" fill="white"/>
<path d="M416.569 185.805C417.911 185.805 418.999 184.717 418.999 183.375C418.999 182.033 417.911 180.945 416.569 180.945C415.227 180.945 414.139 182.033 414.139 183.375C414.139 184.717 415.227 185.805 416.569 185.805Z" fill="white"/>
<path d="M443.767 186.419C444.885 186.419 445.792 185.513 445.792 184.394C445.792 183.276 444.885 182.369 443.767 182.369C442.649 182.369 441.742 183.276 441.742 184.394C441.742 185.513 442.649 186.419 443.767 186.419Z" fill="white"/>
<path d="M389.83 192.529C391.172 192.529 392.26 191.441 392.26 190.099C392.26 188.757 391.172 187.669 389.83 187.669C388.488 187.669 387.4 188.757 387.4 190.099C387.4 191.441 388.488 192.529 389.83 192.529Z" fill="white"/>
<path d="M583.168 106.888C584.51 106.888 585.598 105.8 585.598 104.458C585.598 103.116 584.51 102.028 583.168 102.028C581.826 102.028 580.738 103.116 580.738 104.458C580.738 105.8 581.826 106.888 583.168 106.888Z" fill="white"/>
<path d="M401.647 189.576C402.989 189.576 404.077 188.488 404.077 187.146C404.077 185.804 402.989 184.716 401.647 184.716C400.305 184.716 399.217 185.804 399.217 187.146C399.217 188.488 400.305 189.576 401.647 189.576Z" fill="white"/>
<path d="M426.478 190.657C427.82 190.657 428.908 189.569 428.908 188.227C428.908 186.885 427.82 185.797 426.478 185.797C425.136 185.797 424.048 186.885 424.048 188.227C424.048 189.569 425.136 190.657 426.478 190.657Z" fill="white"/>
<path d="M504.643 124.22C505.985 124.22 507.073 123.132 507.073 121.79C507.073 120.448 505.985 119.36 504.643 119.36C503.301 119.36 502.213 120.448 502.213 121.79C502.213 123.132 503.301 124.22 504.643 124.22Z" fill="white"/>
<path d="M539.212 89.7496C540.554 89.7496 541.642 88.6617 541.642 87.3197C541.642 85.9776 540.554 84.8896 539.212 84.8896C537.87 84.8896 536.782 85.9776 536.782 87.3197C536.782 88.6617 537.87 89.7496 539.212 89.7496Z" fill="white"/>
<path d="M612.886 74.1227C614.228 74.1227 615.316 73.0348 615.316 71.6927C615.316 70.3506 614.228 69.2627 612.886 69.2627C611.544 69.2627 610.456 70.3506 610.456 71.6927C610.456 73.0348 611.544 74.1227 612.886 74.1227Z" fill="white"/>
<path d="M616.99 78.7809C618.332 78.7809 619.42 77.6929 619.42 76.3509C619.42 75.0088 618.332 73.9209 616.99 73.9209C615.648 73.9209 614.56 75.0088 614.56 76.3509C614.56 77.6929 615.648 78.7809 616.99 78.7809Z" fill="white"/>
<path d="M603.589 83.7907C604.931 83.7907 606.019 82.7027 606.019 81.3607C606.019 80.0186 604.931 78.9307 603.589 78.9307C602.247 78.9307 601.159 80.0186 601.159 81.3607C601.159 82.7027 602.247 83.7907 603.589 83.7907Z" fill="white"/>
<path d="M604.975 76.7946C606.317 76.7946 607.405 75.7066 607.405 74.3646C607.405 73.0225 606.317 71.9346 604.975 71.9346C603.633 71.9346 602.545 73.0225 602.545 74.3646C602.545 75.7066 603.633 76.7946 604.975 76.7946Z" fill="white"/>
<path d="M615.766 63.9538C617.108 63.9538 618.196 62.8658 618.196 61.5238C618.196 60.1817 617.108 59.0938 615.766 59.0938C614.424 59.0938 613.336 60.1817 613.336 61.5238C613.336 62.8658 614.424 63.9538 615.766 63.9538Z" fill="white"/>
<path d="M598.351 90.4616C599.693 90.4616 600.781 89.3736 600.781 88.0315C600.781 86.6895 599.693 85.6016 598.351 85.6016C597.009 85.6016 595.921 86.6895 595.921 88.0315C595.921 89.3736 597.009 90.4616 598.351 90.4616Z" fill="white"/>
<path d="M590.062 97.9938C591.404 97.9938 592.492 96.9058 592.492 95.5638C592.492 94.2217 591.404 93.1338 590.062 93.1338C588.72 93.1338 587.632 94.2217 587.632 95.5638C587.632 96.9058 588.72 97.9938 590.062 97.9938Z" fill="white"/>
<path d="M585.733 93.8981C587.075 93.8981 588.163 92.8101 588.163 91.4681C588.163 90.126 587.075 89.0381 585.733 89.0381C584.391 89.0381 583.303 90.126 583.303 91.4681C583.303 92.8101 584.391 93.8981 585.733 93.8981Z" fill="white"/>
<path d="M567.094 91.9996C568.436 91.9996 569.524 90.9117 569.524 89.5697C569.524 88.2276 568.436 87.1396 567.094 87.1396C565.752 87.1396 564.664 88.2276 564.664 89.5697C564.664 90.9117 565.752 91.9996 567.094 91.9996Z" fill="white"/>
<path d="M579.316 85.8649C580.658 85.8649 581.746 84.7769 581.746 83.4349C581.746 82.0928 580.658 81.0049 579.316 81.0049C577.974 81.0049 576.886 82.0928 576.886 83.4349C576.886 84.7769 577.974 85.8649 579.316 85.8649Z" fill="white"/>
<path d="M575.968 95.3219C577.31 95.3219 578.398 94.234 578.398 92.8919C578.398 91.5499 577.31 90.4619 575.968 90.4619C574.626 90.4619 573.538 91.5499 573.538 92.8919C573.538 94.234 574.626 95.3219 575.968 95.3219Z" fill="white"/>
<path d="M566.878 80.8551C568.22 80.8551 569.308 79.7672 569.308 78.4251C569.308 77.0831 568.22 75.9951 566.878 75.9951C565.536 75.9951 564.448 77.0831 564.448 78.4251C564.448 79.7672 565.536 80.8551 566.878 80.8551Z" fill="white"/>
<path d="M624.874 63.945C626.216 63.945 627.304 62.857 627.304 61.515C627.304 60.1729 626.216 59.085 624.874 59.085C623.532 59.085 622.444 60.1729 622.444 61.515C622.444 62.857 623.532 63.945 624.874 63.945Z" fill="white"/>
<path d="M627.475 52.2203C628.817 52.2203 629.905 51.1324 629.905 49.7904C629.905 48.4483 628.817 47.3604 627.475 47.3604C626.133 47.3604 625.045 48.4483 625.045 49.7904C625.045 51.1324 626.133 52.2203 627.475 52.2203Z" fill="white"/>
<path d="M614.254 58.0299C615.596 58.0299 616.684 56.942 616.684 55.5999C616.684 54.2579 615.596 53.1699 614.254 53.1699C612.912 53.1699 611.824 54.2579 611.824 55.5999C611.824 56.942 612.912 58.0299 614.254 58.0299Z" fill="white"/>
<path d="M619.447 50.0934C620.789 50.0934 621.877 49.0055 621.877 47.6634C621.877 46.3214 620.789 45.2334 619.447 45.2334C618.105 45.2334 617.017 46.3214 617.017 47.6634C617.017 49.0055 618.105 50.0934 619.447 50.0934Z" fill="white"/>
<path d="M559.552 88.5807C560.894 88.5807 561.982 87.4928 561.982 86.1507C561.982 84.8087 560.894 83.7207 559.552 83.7207C558.21 83.7207 557.122 84.8087 557.122 86.1507C557.122 87.4928 558.21 88.5807 559.552 88.5807Z" fill="white"/>
<path d="M548.986 89.1256C550.328 89.1256 551.416 88.0377 551.416 86.6956C551.416 85.3536 550.328 84.2656 548.986 84.2656C547.644 84.2656 546.556 85.3536 546.556 86.6956C546.556 88.0377 547.644 89.1256 548.986 89.1256Z" fill="white"/>
<path d="M587.695 74.7555C589.037 74.7555 590.125 73.6676 590.125 72.3255C590.125 70.9835 589.037 69.8955 587.695 69.8955C586.353 69.8955 585.265 70.9835 585.265 72.3255C585.265 73.6676 586.353 74.7555 587.695 74.7555Z" fill="white"/>
<path d="M596.578 76.2145C597.92 76.2145 599.008 75.1265 599.008 73.7845C599.008 72.4424 597.92 71.3545 596.578 71.3545C595.236 71.3545 594.148 72.4424 594.148 73.7845C594.148 75.1265 595.236 76.2145 596.578 76.2145Z" fill="white"/>
<path d="M581.908 79.3786C583.25 79.3786 584.338 78.2906 584.338 76.9486C584.338 75.6065 583.25 74.5186 581.908 74.5186C580.566 74.5186 579.478 75.6065 579.478 76.9486C579.478 78.2906 580.566 79.3786 581.908 79.3786Z" fill="white"/>
<path d="M603.706 66.8366C605.048 66.8366 606.136 65.7486 606.136 64.4065C606.136 63.0645 605.048 61.9766 603.706 61.9766C602.364 61.9766 601.276 63.0645 601.276 64.4065C601.276 65.7486 602.364 66.8366 603.706 66.8366Z" fill="white"/>
<path d="M583.96 100.56C585.302 100.56 586.39 99.4722 586.39 98.1302C586.39 96.7881 585.302 95.7002 583.96 95.7002C582.618 95.7002 581.53 96.7881 581.53 98.1302C581.53 99.4722 582.618 100.56 583.96 100.56Z" fill="white"/>
<path d="M636.628 35.9869C637.97 35.9869 639.058 34.899 639.058 33.5569C639.058 32.2149 637.97 31.127 636.628 31.127C635.286 31.127 634.198 32.2149 634.198 33.5569C634.198 34.899 635.286 35.9869 636.628 35.9869Z" fill="white"/>
</svg>
