<svg width="638" height="648" viewBox="0 0 638 648" fill="none" xmlns="http://www.w3.org/2000/svg">
<path d="M377.085 324.002C377.085 312.563 380.237 301.132 386.285 290.976C392.332 280.82 401.27 271.953 412.369 265.446C423.469 258.94 436.721 254.803 451.034 253.746C465.348 252.689 480.71 254.718 495.838 260.065C510.965 265.413 525.843 274.08 539.189 285.788C552.534 297.495 564.335 312.239 573.507 329.265C582.679 346.291 589.213 365.591 592.389 386.049C595.565 406.507 595.378 428.11 591.586 449.549C587.794 470.987 580.397 492.246 569.668 512.017C558.94 531.789 544.885 550.06 528.253 565.719C511.621 581.379 492.423 594.416 471.771 604.087C451.12 613.758 429.03 620.057 406.811 622.715C384.593 625.373 362.261 624.39 341.129 620.013C319.997 615.636 300.077 607.869 282.488 597.438C264.898 587.007 249.648 573.922 237.492 559.271C225.336 544.619 216.28 528.416 210.603 511.949C204.927 495.481 202.63 478.761 203.479 463.083C204.328 447.405 208.318 432.779 214.741 420.301C221.163 407.824 230.009 397.505 240.204 390.078C250.4 382.652 261.934 378.124 273.537 376.755C285.14 375.386 296.798 377.179 307.241 381.877C317.685 386.578 326.901 394.181 333.817 403.966C340.733 413.751 345.339 425.708 346.923 438.749C348.507 451.791 347.065 465.907 342.359 479.815C337.652 493.723 329.683 507.412 318.725 519.601C307.767 531.792 293.827 542.47 277.653 550.558C261.479 558.647 243.082 564.134 223.572 566.307C204.062 568.479 183.452 567.33 163.049 562.624C142.646 557.917 122.462 549.652 103.804 538.105C85.146 526.558 68.0253 511.734 53.5481 494.386C39.0708 477.039 27.2468 457.177 18.8166 435.92C10.3864 414.662 5.35518 392.021 3.98668 369.31C2.61825 346.6 4.91246 323.835 10.6169 302.329C16.3214 280.824 25.431 260.591 37.2161 242.75C49.0012 224.909 63.4522 209.47 79.4739 197.188C95.4957 184.905 113.076 175.785 130.92 170.108C148.764 164.43 166.859 162.196 183.908 163.17C200.957 164.144 216.948 168.322 230.78 174.994C244.611 181.666 256.274 190.822 265.027 201.39C273.78 211.957 279.619 223.924 282.276 236.017C284.934 248.11 284.41 260.317 280.95 271.366C277.49 282.414 271.098 292.292 262.495 299.922C253.891 307.553 243.084 312.925 231.155 315.326C219.225 317.728 206.185 317.153 193.31 313.361C180.436 309.568 167.74 302.558 156.497 292.603C145.253 282.648 135.475 269.752 128.239 254.661C121.002 239.57 116.316 222.294 114.892 203.939C113.469 185.584 115.312 166.163 120.659 146.978C126.006 127.792 134.855 108.856 146.929 91.4685C159.002 74.0814 174.293 58.2561 192.048 45.093C209.803 31.9301 230.012 21.4389 251.556 14.3554C273.1 7.27206 295.966 3.60156 318.839 3.60156C341.713 3.60156 364.579 7.27199 386.123 14.3554C407.667 21.4389 427.876 31.9301 445.631 45.093C463.386 58.2561 478.677 74.0814 490.75 91.4685C502.823 108.856 511.673 127.792 517.02 146.978C522.366 166.163 524.21 185.584 522.786 203.939C521.363 222.294 516.677 239.57 509.44 254.661C502.203 269.752 492.425 282.648 481.182 292.603C469.939 302.558 457.243 309.568 444.368 313.361C431.494 317.153 418.454 317.728 406.524 315.326C394.595 312.925 383.788 307.553 375.184 299.922C366.58 292.292 360.189 282.414 356.729 271.366C353.269 260.317 352.745 248.11 355.402 236.017C358.06 223.924 363.899 211.957 372.652 201.39C381.405 190.822 393.067 181.666 406.899 174.994C420.73 168.322 436.722 164.144 453.771 163.17C470.82 162.196 488.915 164.43 506.759 170.108C524.603 175.785 542.183 184.905 558.205 197.188C574.227 209.47 588.678 224.909 600.463 242.75C612.248 260.591 621.357 280.824 627.062 302.329C632.766 323.835 635.061 346.6 633.692 369.31C632.324 392.021 627.292 414.662 618.862 435.92C610.432 457.177 598.608 477.039 584.131 494.386C569.654 511.734 552.533 526.558 533.875 538.105C515.216 549.652 495.033 557.917 474.63 562.624C454.227 567.33 433.617 568.479 414.107 566.307C394.597 564.134 376.199 558.647 360.026 550.558C343.852 542.47 329.911 531.792 318.954 519.601C307.996 507.412 300.026 493.723 295.32 479.815C290.614 465.907 289.172 451.791 290.756 438.749C292.34 425.708 296.946 413.751 303.861 403.966C310.777 394.181 319.994 386.578 330.437 381.877C340.881 377.176 352.539 375.386 364.142 376.755C375.745 378.124 387.278 382.652 397.474 390.078C407.67 397.505 416.515 407.824 422.938 420.301C429.36 432.779 433.351 447.405 434.2 463.083C435.049 478.761 432.752 495.481 427.075 511.949C421.399 528.416 412.343 544.619 400.187 559.271C388.031 573.922 372.781 587.007 355.191 597.438C337.601 607.869 317.682 615.636 296.55 620.013C275.418 624.39 253.086 625.373 230.867 622.715C208.649 620.057 186.558 613.758 165.907 604.087C145.256 594.416 126.057 581.379 109.426 565.719C92.7941 550.06 78.739 531.789 68.0104 512.017C57.2817 492.246 49.8848 470.987 46.0929 449.549C42.3009 428.11 42.1141 406.507 45.2899 386.049C48.4658 365.591 54.9993 346.291 64.1713 329.265C73.3433 312.239 85.1444 297.495 98.4902 285.788C111.836 274.08 126.714 265.413 141.841 260.065C156.968 254.718 172.331 252.689 186.645 253.746C200.958 254.803 214.21 258.94 225.309 265.446C236.409 271.953 245.347 280.82 251.394 290.976C257.442 301.132 260.593 312.563 260.593 324.002C260.593 335.439 257.442 346.871 251.394 357.026C245.347 367.182 236.409 376.05 225.309 382.556C214.21 389.063 200.958 393.2 186.645 394.256C172.331 395.313 156.968 393.285 141.841 387.938C126.714 382.59 111.836 373.923 98.4902 362.216C85.1444 350.508 73.3433 335.764 64.1713 318.738C54.9993 301.711 48.4658 282.412 45.2899 261.954C42.1141 241.496 42.3009 219.892 46.0929 198.454C49.8848 177.016 57.2817 155.756 68.0104 135.985C78.739 116.214 92.7941 97.9431 109.426 82.2839C126.057 66.6247 145.256 53.5867 165.907 43.9157C186.558 34.2446 208.649 27.9455 230.867 25.2877C253.086 22.6299 275.418 23.6132 296.55 27.9903C317.682 32.3676 337.601 40.1335 355.191 50.5642C372.781 60.9948 388.031 74.0805 400.187 88.7315C412.343 103.383 421.399 119.587 427.075 136.054C432.752 152.523 435.049 169.241 434.2 184.92C433.351 200.598 429.36 215.225 422.938 227.702C416.515 240.179 407.67 250.499 397.474 257.925C387.278 265.351 375.745 269.88 364.142 271.248C352.539 272.617 340.881 270.825 330.437 266.126C319.994 261.425 310.777 253.821 303.861 244.036C296.946 234.252 292.34 222.296 290.756 209.254C289.172 196.212 290.614 182.097 295.32 168.188C300.026 154.28 307.996 140.591 318.954 128.401C329.911 116.212 343.852 105.533 360.026 97.4446C376.199 89.3565 394.597 83.8688 414.107 81.6963C433.617 79.5238 454.227 80.6717 474.63 85.3785C495.033 90.0852 515.216 98.351 533.875 109.898C552.533 121.446 569.654 136.269 584.131 153.617C598.608 170.964 610.432 190.825 618.862 212.083C627.292 233.341 632.324 255.982 633.692 278.693C635.061 301.403 632.766 324.168 627.062 345.674C621.357 367.179 612.248 387.411 600.463 405.252C588.678 423.093 574.227 438.533 558.205 450.815C542.183 463.098 524.603 472.217 506.759 477.895C488.915 483.573 470.82 485.808 453.771 484.833C436.722 483.859 420.73 479.681 406.899 473.009C393.067 466.337 381.405 457.181 372.652 446.613C363.899 436.046 358.06 424.079 355.402 411.986C352.745 399.892 353.269 387.686 356.729 376.637C360.189 365.588 366.58 355.71 375.184 348.081C383.788 340.451 394.595 335.078 406.524 332.676C418.454 330.274 431.494 330.85 444.368 334.642C457.243 338.435 469.939 345.445 481.182 355.4C492.425 365.355 502.203 378.251 509.44 393.342C516.677 408.432 521.363 425.709 522.786 444.064C524.21 462.419 522.366 481.84 517.02 501.026C511.673 520.211 502.823 539.147 490.75 556.535C478.677 573.922 463.386 589.747 445.631 602.91C427.876 616.072 407.667 626.564 386.123 633.647C364.579 640.731 341.713 644.402 318.839 644.402C295.966 644.402 273.1 640.731 251.556 633.647C230.012 626.564 209.803 616.072 192.048 602.91C174.293 589.747 159.002 573.922 146.929 556.535C134.855 539.147 126.006 520.211 120.659 501.026C115.312 481.84 113.469 462.419 114.892 444.064C116.316 425.709 121.002 408.432 128.239 393.342C135.475 378.251 145.253 365.355 156.497 355.4C167.74 345.445 180.436 338.435 193.31 334.642C206.185 330.85 219.225 330.274 231.155 332.676C243.084 335.078 253.891 340.451 262.495 348.081C271.098 355.71 277.49 365.588 280.95 376.637C284.41 387.686 284.934 399.892 282.276 411.986C279.619 424.079 273.78 436.046 265.027 446.613C256.274 457.181 244.611 466.337 230.78 473.009C216.948 479.681 200.957 483.859 183.908 484.833C166.859 485.808 148.764 483.573 130.92 477.895C113.076 472.217 95.4957 463.098 79.4739 450.815C63.4522 438.533 49.0012 423.093 37.2161 405.252C25.431 387.411 16.3214 367.179 10.6169 345.674C4.91246 324.168 2.61825 301.403 3.98668 278.693C5.35518 255.982 10.3864 233.341 18.8166 212.083C27.2468 190.825 39.0708 170.964 53.5481 153.617C68.0253 136.269 85.146 121.446 103.804 109.898C122.462 98.351 142.646 90.0852 163.049 85.3785C183.452 80.6717 204.062 79.5239 223.572 81.6963C243.082 83.8688 261.479 89.3565 277.653 97.4446C293.827 105.533 307.767 116.212 318.725 128.401C329.683 140.591 337.652 154.28 342.359 168.188C347.065 182.097 348.507 196.212 346.923 209.254C345.339 222.296 340.733 234.252 333.817 244.036C326.901 253.821 317.685 261.425 307.241 266.126C296.798 270.826 285.14 272.617 273.537 271.248C261.934 269.88 250.4 265.351 240.204 257.925C230.009 250.499 221.163 240.179 214.741 227.702C208.318 215.225 204.328 200.598 203.479 184.92C202.63 169.241 204.927 152.523 210.603 136.054C216.28 119.587 225.336 103.383 237.492 88.7315C249.648 74.0805 264.898 60.9948 282.488 50.5642C300.077 40.1335 319.997 32.3676 341.129 27.9903C362.261 23.6132 384.593 22.6299 406.811 25.2877C429.03 27.9455 451.12 34.2446 471.771 43.9157C492.423 53.5867 511.621 66.6247 528.253 82.2839C544.885 97.9431 558.94 116.214 569.668 135.985C580.397 155.756 587.794 177.016 591.586 198.454C595.378 219.892 595.565 241.496 592.389 261.954C589.213 282.412 582.679 301.711 573.507 318.738C564.335 335.764 552.534 350.508 539.189 362.216C525.843 373.923 510.965 382.59 495.838 387.938C480.71 393.285 465.348 395.313 451.034 394.256C436.721 393.2 423.469 389.063 412.369 382.556C401.27 376.05 392.332 367.182 386.285 357.026C380.237 346.871 377.085 335.439 377.085 324.002Z" stroke="white" stroke-width="7.2"/>
</svg>
