<svg width="800" height="800" viewBox="0 0 800 800" fill="none" xmlns="http://www.w3.org/2000/svg">
<path d="M750.086 152.156C713.555 162.848 623.078 187.796 570.995 187.796C510.598 187.842 450.683 177.06 394.091 155.963C387.325 153.426 379.874 153.405 373.094 155.903C366.314 158.4 360.657 163.251 357.155 169.571L325.322 137.819C322.023 134.515 317.999 132.025 313.57 130.546C309.14 129.068 304.428 128.642 299.805 129.302C295.182 129.962 290.777 131.691 286.939 134.35C283.101 137.01 279.936 140.527 277.694 144.623C254.933 186.257 211.436 261.263 176.201 296.336C133.571 339.133 83.5784 373.898 28.6187 398.963C24.2061 400.978 20.3451 404.028 17.3637 407.854C14.3823 411.68 12.3687 416.17 11.494 420.941C10.6193 425.712 10.9093 430.623 12.3395 435.258C13.7697 439.893 16.2977 444.115 19.7087 447.563L133.514 560.963C165.601 593.165 203.722 618.725 245.697 636.182C287.671 653.639 332.674 662.65 378.134 662.699C394.334 662.699 396.926 662.213 478.655 656.543C491.665 655.655 504.058 650.664 514.052 642.287L530.252 656.219C541.594 666.056 556.103 671.471 571.116 671.471C586.129 671.471 600.639 666.056 611.981 656.219L670.058 605.675C707.298 573.209 737.146 533.136 757.588 488.158C778.03 443.18 788.591 394.342 788.561 344.936V180.992C788.559 176.327 787.471 171.726 785.384 167.554C783.296 163.382 780.265 159.754 776.532 156.956C772.799 154.158 768.466 152.267 763.875 151.434C759.285 150.601 754.564 150.849 750.086 152.156ZM402.92 215.417V211.286C512.338 245.63 629.651 245.63 739.07 211.286V344.936C739.071 387.294 729.991 429.16 712.441 467.711C694.891 506.262 669.28 540.602 637.334 568.415L579.257 618.959C576.984 620.857 574.118 621.897 571.157 621.897C568.196 621.897 565.329 620.857 563.057 618.959L536.975 596.198C542.078 523.298 542.726 518.276 542.888 501.59C599.021 488.063 636.281 513.659 641.627 513.659C642.74 513.662 643.842 513.435 644.863 512.993C645.885 512.551 646.804 511.903 647.564 511.09C648.325 510.277 648.909 509.316 649.281 508.267C649.653 507.217 649.805 506.103 649.727 504.992C648.906 492.159 644.964 479.72 638.243 468.757C631.523 457.793 622.226 448.637 611.162 442.083C600.098 435.529 587.601 431.776 574.757 431.15C561.912 430.524 549.11 433.044 537.461 438.491C531.141 402.079 518.968 366.929 501.416 334.406C510.367 333.046 519.055 330.314 527.174 326.306C529.029 325.312 530.424 323.634 531.063 321.628C531.702 319.622 531.536 317.447 530.599 315.562C529.661 313.677 528.027 312.231 526.042 311.53C524.057 310.829 521.878 310.929 519.965 311.807C511.41 316.011 502.102 318.462 492.587 319.016C466.181 275.843 443.42 255.917 402.92 215.417ZM542.321 484.985C542.321 476.156 541.025 464.654 539.891 455.339C548.08 450.693 557.209 447.946 566.603 447.301C575.996 446.656 585.415 448.13 594.162 451.613C602.91 455.097 610.763 460.501 617.142 467.427C623.521 474.353 628.262 482.623 631.016 491.627C602.694 480.977 571.913 478.671 542.321 484.985ZM477.521 640.343L400.814 645.689C353.803 648.952 306.639 642.086 262.509 625.555C218.38 609.024 178.313 583.213 145.016 549.866L31.6157 436.466C29.9228 434.927 28.6401 432.991 27.8834 430.832C27.1266 428.673 26.9198 426.359 27.2816 424.1C27.6434 421.841 28.5623 419.708 29.9554 417.893C31.3486 416.078 33.1719 414.639 35.2607 413.705C91.943 387.806 143.52 351.95 187.541 307.838C224.072 271.307 268.541 194.438 291.788 152.399C292.797 150.498 294.241 148.862 296.002 147.623C297.762 146.384 299.79 145.578 301.921 145.271C304.052 144.963 306.225 145.162 308.264 145.852C310.304 146.541 312.151 147.702 313.658 149.24C425.762 261.101 458.081 286.859 488.861 345.665C517.019 399.593 529.718 460.256 525.554 520.949C524.258 540.47 520.127 598.547 520.046 598.871C519.033 609.706 514.199 619.828 506.408 627.426C498.617 635.024 488.378 639.602 477.521 640.343ZM772.361 344.936C772.333 392.071 762.197 438.652 742.634 481.536C723.072 524.419 694.539 562.608 658.961 593.525L601.127 644.069C592.749 651.325 582.037 655.319 570.954 655.319C559.871 655.319 549.16 651.325 540.782 644.069L525.149 630.38C528.483 625.495 531.204 620.217 533.249 614.666L552.122 630.866C557.387 635.453 564.134 637.98 571.116 637.98C578.099 637.98 584.846 635.453 590.111 630.866L648.188 580.322C681.81 551.009 708.763 514.834 727.234 474.232C745.704 433.63 755.264 389.543 755.27 344.936V200.108C755.273 198.82 754.969 197.55 754.383 196.403C753.798 195.256 752.947 194.265 751.901 193.513C750.856 192.761 749.646 192.269 748.373 192.077C747.099 191.886 745.798 192.001 744.578 192.413C631.961 230.324 510.029 230.324 397.412 192.413C396.259 192.031 395.035 191.913 393.83 192.067C392.625 192.222 391.471 192.645 390.452 193.306C389.433 193.967 388.576 194.849 387.944 195.886C387.312 196.924 386.921 198.09 386.801 199.298L369.71 182.207C369.997 180.139 370.748 178.162 371.907 176.425C373.066 174.688 374.602 173.235 376.402 172.176C378.201 171.116 380.217 170.477 382.299 170.307C384.38 170.136 386.473 170.439 388.421 171.191C446.834 192.931 508.667 204.041 570.995 203.996C623.159 203.996 708.695 181.235 754.622 167.708C756.686 167.105 758.862 166.99 760.978 167.373C763.093 167.756 765.091 168.627 766.812 169.916C768.533 171.205 769.931 172.877 770.894 174.799C771.857 176.722 772.359 178.842 772.361 180.992V344.936Z" fill="white"/>
<path d="M617.09 326.39C630.117 332.832 644.533 335.959 659.059 335.492C673.585 335.026 687.771 330.981 700.358 323.717C702.121 322.596 703.383 320.838 703.88 318.808C704.377 316.779 704.071 314.636 703.025 312.828C701.98 311.019 700.276 309.684 698.269 309.102C696.263 308.52 694.109 308.736 692.258 309.704C681.961 315.563 670.391 318.825 658.549 319.206C646.708 319.587 634.952 317.076 624.299 311.891C622.376 310.936 620.153 310.784 618.118 311.467C616.082 312.151 614.402 313.614 613.445 315.536C612.49 317.459 612.338 319.682 613.021 321.717C613.704 323.753 615.168 325.433 617.09 326.39Z" fill="white"/>
<path d="M509.027 510.127V509.722C509.027 508.588 509.027 503.971 509.027 498.544C509.181 457.436 501.169 416.706 485.456 378.718C469.744 340.73 446.644 306.241 417.497 277.252L315.356 174.868C314.443 173.949 313.323 173.263 312.09 172.866C310.857 172.469 309.547 172.374 308.27 172.588C306.993 172.802 305.785 173.32 304.749 174.097C303.713 174.874 302.878 175.889 302.315 177.055C249.421 283.413 163.243 369.591 56.8851 422.485C55.7187 423.048 54.7043 423.883 53.9271 424.919C53.1499 425.955 52.6324 427.162 52.4182 428.44C52.204 429.717 52.2992 431.027 52.6959 432.26C53.0926 433.493 53.7792 434.613 54.6981 435.526L156.758 537.991C185.709 567.099 220.146 590.177 258.075 605.888C296.004 621.599 336.672 629.632 377.726 629.521C392.144 629.521 393.926 629.521 476.06 623.527C482.997 623.004 489.517 620.012 494.436 615.092C499.356 610.173 502.348 603.653 502.871 596.716C509.027 511.585 508.622 517.822 509.027 510.127ZM492.26 518.227L486.995 594.934C486.757 597.977 485.445 600.837 483.294 603.003C481.142 605.169 478.292 606.501 475.25 606.76L398.462 612.025C356.236 615.113 313.841 609.056 274.169 594.267C234.498 579.477 198.484 556.304 168.584 526.327L74.0571 431.962C175.705 378.834 258.664 295.875 311.792 194.227L406.157 288.754C436.22 318.608 459.477 354.605 474.338 394.281C489.199 433.956 495.312 476.375 492.26 518.632V518.227Z" fill="white"/>
<path d="M422.687 512.635C430.822 498.096 434.146 481.354 432.181 464.81C430.217 448.266 423.066 432.768 411.752 420.538C409.079 417.46 406.244 414.949 401.789 416.164C400.426 416.566 399.186 417.303 398.182 418.308C397.177 419.312 396.44 420.552 396.038 421.915C389.94 444.376 378.409 464.992 362.46 481.943C346.512 498.894 326.637 511.66 304.589 519.115C303.239 519.569 302.033 520.371 301.092 521.44C300.151 522.509 299.509 523.807 299.23 525.204C298.95 526.6 299.044 528.045 299.502 529.394C299.959 530.743 300.764 531.947 301.835 532.885C310.649 540.627 321.076 546.31 332.359 549.522C343.643 552.734 355.499 553.394 367.069 551.456C378.639 549.517 389.633 545.028 399.253 538.313C408.873 531.598 416.878 522.827 422.687 512.635ZM398.387 518.305C388.849 527.822 376.505 534.022 363.175 535.991C349.845 537.96 336.236 535.593 324.353 529.24C362.523 511.84 392.256 480.04 407.054 440.788C414.547 452.814 417.746 467.024 416.128 481.102C414.51 495.179 408.171 508.293 398.144 518.305H398.387Z" fill="white"/>
<path d="M243.352 419.926C242.386 419.424 241.328 419.123 240.242 419.039C239.157 418.956 238.066 419.092 237.034 419.44C223.319 424.128 210.971 432.124 201.082 442.72C191.193 453.316 184.067 466.185 180.334 480.19C180.057 481.222 179.987 482.298 180.126 483.357C180.265 484.416 180.612 485.437 181.146 486.363C181.68 487.288 182.391 488.099 183.239 488.749C184.086 489.399 185.053 489.876 186.085 490.153C187.117 490.43 188.193 490.5 189.252 490.361C190.311 490.221 191.332 489.875 192.258 489.341C193.183 488.807 193.994 488.096 194.644 487.248C195.294 486.401 195.771 485.434 196.048 484.402C199.603 470.841 207.135 458.654 217.675 449.41C215.612 458.37 215.863 467.708 218.404 476.545C219.006 478.607 220.402 480.346 222.285 481.379C224.169 482.412 226.386 482.654 228.448 482.053C230.51 481.451 232.249 480.055 233.282 478.172C234.315 476.288 234.558 474.071 233.956 472.009C231.791 465.168 231.747 457.832 233.829 450.965C235.91 444.098 240.021 438.021 245.62 433.534C246.663 432.625 247.455 431.464 247.922 430.162C248.389 428.861 248.515 427.461 248.287 426.096C248.06 424.732 247.487 423.449 246.623 422.369C245.759 421.288 244.633 420.448 243.352 419.926Z" fill="white"/>
<path d="M303.456 365.023C304.275 365.705 305.22 366.219 306.237 366.535C307.254 366.851 308.324 366.963 309.385 366.866C310.446 366.768 311.477 366.462 312.42 365.965C313.362 365.468 314.197 364.79 314.877 363.97C319.379 358.388 325.456 354.291 332.318 352.211C339.18 350.131 346.509 350.164 353.352 352.306C354.373 352.603 355.443 352.697 356.5 352.582C357.558 352.466 358.582 352.143 359.515 351.632C360.447 351.12 361.27 350.43 361.936 349.601C362.602 348.771 363.098 347.819 363.396 346.798C363.694 345.776 363.788 344.707 363.672 343.649C363.556 342.592 363.234 341.568 362.722 340.635C362.211 339.702 361.521 338.879 360.691 338.213C359.862 337.548 358.909 337.051 357.888 336.754C349.051 334.212 339.713 333.962 330.753 336.025C339.994 325.481 352.182 317.948 365.745 314.398C367.829 313.839 369.605 312.476 370.684 310.607C371.762 308.739 372.055 306.518 371.496 304.435C370.937 302.351 369.574 300.574 367.706 299.496C365.837 298.417 363.617 298.125 361.533 298.684C347.528 302.416 334.659 309.542 324.063 319.432C313.467 329.321 305.471 341.669 300.783 355.384C300.245 357.076 300.212 358.889 300.686 360.601C301.161 362.312 302.123 363.849 303.456 365.023Z" fill="white"/>
</svg>
