<svg width="691" height="629" viewBox="0 0 691 629" fill="none" xmlns="http://www.w3.org/2000/svg">
<path d="M674.452 198.401C665.014 181.703 651.946 167.909 636.7 157.745C635.974 157.019 634.522 156.293 633.796 156.293C625.084 150.485 614.92 146.129 604.756 143.225L312.904 12.5453C277.33 -4.87872 235.948 -4.15272 201.826 14.7233C174.238 29.9693 154.636 54.6533 145.924 85.1453C137.212 114.911 140.842 146.855 156.088 174.443C170.608 199.853 193.114 218.729 220.702 228.167L263.536 247.043L308.548 213.647C331.054 193.319 360.82 181.703 391.312 181.703H392.038C408.01 146.855 432.694 115.637 457.378 101.843C465.364 97.4873 472.624 95.3093 479.158 94.5833L602.578 149.033H603.304C612.742 151.937 622.18 156.293 630.892 161.375C631.618 162.101 632.344 162.101 633.07 162.827C647.59 172.991 659.932 185.333 668.644 201.305C683.164 227.441 686.794 257.207 678.808 285.521C670.822 313.835 651.946 337.793 626.536 352.313C591.688 371.915 548.854 371.189 514.732 350.135L509.65 347.957C508.924 350.135 508.198 352.313 506.746 354.491L511.102 356.669C529.978 368.285 551.032 374.093 572.812 374.093C592.414 374.093 612.742 369.011 630.166 358.847C657.754 343.601 677.356 318.191 686.068 288.425C694.78 258.659 689.698 225.989 674.452 198.401Z" fill="white"/>
<path d="M391.314 188.966C362.274 188.966 333.96 199.856 312.906 218.732L59.532 408.944C22.506 429.998 0 469.202 0 511.31C0 576.65 52.998 628.922 117.612 628.922C136.488 628.922 154.638 624.566 171.336 615.854C172.062 615.128 173.514 615.128 174.24 614.402C183.678 609.32 192.39 602.786 199.65 595.526L455.928 403.136C488.598 381.356 508.2 345.056 508.2 305.126C508.926 241.238 455.928 188.966 391.314 188.966ZM196.02 590.444C188.76 597.704 180.048 604.238 171.336 608.594C170.61 609.32 169.884 609.32 169.158 610.046C153.186 618.032 136.488 622.388 118.338 622.388C57.354 622.388 7.26 573.02 7.26 511.31C7.26 471.38 29.04 434.354 63.888 414.752L178.596 328.358C192.39 326.18 210.54 332.714 230.868 348.686C273.702 382.082 308.55 443.792 308.55 486.626C308.55 495.338 307.098 503.324 304.194 509.132L196.02 590.444Z" fill="white"/>
</svg>
