<svg width="800" height="800" viewBox="0 0 800 800" fill="none" xmlns="http://www.w3.org/2000/svg">
<g clip-path="url(#clip0_3295_34)">
<path d="M400 160C444.183 160 480 124.183 480 80C480 35.8172 444.183 0 400 0C355.817 0 320 35.8172 320 80C320 124.183 355.817 160 400 160Z" fill="white"/>
<path d="M77.9537 477.921C121.006 477.921 155.907 443.017 155.907 399.961C155.907 356.904 121.006 322 77.9537 322C34.9011 322 0 356.904 0 399.961C0 443.017 34.9011 477.921 77.9537 477.921Z" fill="white"/>
<path d="M720 480C764.183 480 800 444.183 800 400C800 355.817 764.183 320 720 320C675.817 320 640 355.817 640 400C640 444.183 675.817 480 720 480Z" fill="white"/>
<path d="M720 160C764.183 160 800 124.183 800 80C800 35.8173 764.183 0 720 0C675.817 0 640 35.8173 640 80C640 124.183 675.817 160 720 160Z" fill="white"/>
<path d="M720 800C764.183 800 800 764.183 800 720C800 675.817 764.183 640 720 640C675.817 640 640 675.817 640 720C640 764.183 675.817 800 720 800Z" fill="white"/>
<path d="M80 800C124.183 800 160 764.183 160 720C160 675.817 124.183 640 80 640C35.8172 640 0 675.817 0 720C0 764.183 35.8172 800 80 800Z" fill="white"/>
<path d="M80 160C124.183 160 160 124.183 160 80C160 35.8173 124.183 0 80 0C35.8172 0 0 35.8173 0 80C0 124.183 35.8172 160 80 160Z" fill="white"/>
<path d="M400 800C444.183 800 480 764.183 480 720C480 675.817 444.183 640 400 640C355.817 640 320 675.817 320 720C320 764.183 355.817 800 400 800Z" fill="white"/>
<rect x="300" y="300" width="200" height="200" rx="10" fill="#CDA55F"/>
</g>
<defs>
<clipPath id="clip0_3295_34">
<rect width="800" height="800" fill="white"/>
</clipPath>
</defs>
</svg>
