<svg width="610" height="567" viewBox="0 0 610 567" fill="none" xmlns="http://www.w3.org/2000/svg">
<path d="M370.26 10.8909V555.391C370.26 557.372 369.72 559.315 368.698 561.012C367.675 562.709 366.209 564.095 364.458 565.02C362.706 565.946 360.736 566.376 358.758 566.265C356.78 566.153 354.87 565.504 353.233 564.388L130.68 412.647V153.635L353.233 1.8936C354.87 0.77732 356.78 0.128578 358.758 0.017222C360.736 -0.0941337 362.706 0.336116 364.458 1.26165C366.209 2.18717 367.675 3.57292 368.698 5.26968C369.72 6.96645 370.26 8.90994 370.26 10.8909ZM0 174.241V392.041C0 394.929 1.14734 397.699 3.18961 399.741C5.23188 401.784 8.00179 402.931 10.89 402.931H108.9V163.351H10.89C8.00179 163.351 5.23188 164.498 3.18961 166.541C1.14734 168.583 0 171.353 0 174.241ZM609.281 279.695C608.829 278.338 608.114 277.084 607.177 276.003C606.24 274.923 605.099 274.038 603.819 273.399C602.54 272.76 601.147 272.379 599.72 272.279C598.293 272.179 596.861 272.361 595.504 272.815L535.221 292.904L474.311 252.3C472.934 251.372 471.362 250.774 469.716 250.555C468.07 250.335 466.396 250.499 464.824 251.035L399.484 272.815C398.091 273.236 396.795 273.933 395.676 274.864C394.556 275.795 393.634 276.941 392.965 278.234C392.295 279.527 391.892 280.941 391.779 282.393C391.666 283.845 391.845 285.305 392.306 286.686C392.767 288.067 393.5 289.342 394.463 290.435C395.425 291.528 396.597 292.417 397.908 293.049C399.22 293.681 400.645 294.044 402.1 294.116C403.554 294.187 405.008 293.967 406.376 293.467L466.659 273.378L527.569 313.981C529.356 315.178 531.459 315.814 533.61 315.811C534.782 315.813 535.946 315.623 537.056 315.247L602.396 293.467C603.753 293.016 605.007 292.301 606.088 291.365C607.169 290.428 608.054 289.288 608.694 288.009C609.333 286.73 609.714 285.337 609.815 283.91C609.916 282.484 609.735 281.052 609.281 279.695ZM402.919 228.691C404.714 228.694 406.481 228.252 408.064 227.406C409.647 226.56 410.996 225.336 411.99 223.842L448.181 169.551L482.351 203.72C483.49 204.859 484.868 205.731 486.385 206.274C487.902 206.816 489.52 207.015 491.123 206.856C492.726 206.698 494.274 206.185 495.655 205.356C497.037 204.527 498.217 203.402 499.11 202.062L542.67 136.722C543.479 135.532 544.045 134.194 544.333 132.785C544.622 131.376 544.629 129.923 544.354 128.511C544.078 127.1 543.525 125.756 542.728 124.559C541.93 123.362 540.903 122.335 539.706 121.537C538.509 120.739 537.166 120.186 535.754 119.91C534.343 119.634 532.89 119.641 531.481 119.929C530.072 120.218 528.734 120.783 527.544 121.591C526.354 122.4 525.336 123.436 524.549 124.64L488.359 178.931L454.189 144.762C453.05 143.623 451.672 142.751 450.155 142.208C448.638 141.666 447.02 141.467 445.417 141.626C443.814 141.784 442.266 142.297 440.885 143.126C439.503 143.955 438.323 145.08 437.429 146.42L393.869 211.76C392.777 213.399 392.149 215.304 392.053 217.272C391.958 219.24 392.398 221.197 393.326 222.934C394.255 224.672 395.638 226.125 397.327 227.139C399.016 228.152 400.949 228.689 402.919 228.691ZM499.11 364.22C498.216 362.881 497.036 361.756 495.655 360.927C494.274 360.099 492.726 359.587 491.124 359.429C489.521 359.283 487.907 359.489 486.391 360.031C484.876 360.572 483.498 361.438 482.351 362.566L448.181 396.736L411.99 342.44C410.376 340.066 407.89 338.426 405.072 337.876C402.254 337.326 399.333 337.91 396.944 339.503C394.556 341.096 392.892 343.567 392.317 346.38C391.741 349.192 392.299 352.118 393.869 354.522L437.429 419.862C438.323 421.202 439.503 422.327 440.885 423.156C442.266 423.985 443.814 424.498 445.417 424.656C447.02 424.815 448.638 424.616 450.155 424.074C451.672 423.531 453.05 422.659 454.189 421.52L488.359 387.351L524.549 441.642C526.164 444.016 528.65 445.656 531.468 446.206C534.286 446.756 537.207 446.171 539.596 444.579C541.984 442.986 543.647 440.515 544.223 437.702C544.799 434.89 544.241 431.963 542.67 429.56L499.11 364.22Z" fill="white"/>
</svg>
