<svg width="600" height="600" viewBox="0 0 600 600" fill="none" xmlns="http://www.w3.org/2000/svg">
<path d="M599.997 300.004C599.997 219.875 568.798 144.526 512.126 87.873C455.476 31.1972 380.126 0 299.999 0C229.273 0 160.626 25.0755 106.649 70.5992C103.899 72.9242 103.549 77.0492 105.874 79.7993C108.199 82.5494 112.299 82.8994 115.074 80.5743C166.674 37.0237 232.347 13.0471 300.001 13.0471C458.228 13.0471 586.951 141.772 586.951 300.001C586.951 359.952 568.776 417.103 534.301 465.731C531.251 464.456 527.926 463.731 524.425 463.731C510.4 463.731 499 475.131 499 489.156C499 503.181 510.4 514.582 524.425 514.582C538.451 514.582 549.851 503.182 549.851 489.156C549.851 483.381 547.876 478.031 544.601 473.757C580.851 422.831 599.997 362.852 599.997 300.004ZM524.401 501.529C517.576 501.529 512.026 495.979 512.026 489.154C512.026 482.329 517.576 476.779 524.401 476.779C531.226 476.779 536.776 482.329 536.776 489.154C536.776 495.979 531.226 501.529 524.401 501.529ZM484.926 519.429C433.301 562.98 367.627 586.957 299.999 586.957C141.772 586.957 13.0495 458.232 13.0495 300.003C13.0495 240.052 31.2241 182.875 65.6995 134.273C68.7495 135.548 72.0745 136.273 75.5747 136.273C89.5996 136.273 101 124.873 101 110.847C101 96.8223 89.6002 85.4218 75.5747 85.4218C61.5491 85.4218 50.1495 96.8216 50.1495 110.847C50.1495 116.622 52.1245 121.973 55.3995 126.247C19.1494 177.173 0 237.122 0 299.996C0 380.125 31.1999 455.473 87.8716 512.127C144.522 568.803 219.871 600 299.999 600C370.725 600 439.371 574.925 493.348 529.401C496.098 527.076 496.448 522.976 494.123 520.201C491.798 517.451 487.676 517.104 484.926 519.429ZM75.6028 98.4773C82.4278 98.4773 87.9778 104.027 87.9778 110.852C87.9778 117.678 82.4278 123.228 75.6028 123.228C68.7778 123.228 63.2278 117.678 63.2278 110.852C63.2278 104.027 68.7778 98.4773 75.6028 98.4773ZM374.149 142.028C358.849 125.628 331.299 115.853 300.421 115.853C268.996 115.853 241.121 125.628 225.849 142.028C211.299 157.628 203.299 178.254 203.299 200.128V247.404H194.824C181.149 247.404 170.024 258.529 170.024 272.204V425.633C170.024 439.308 181.149 450.433 194.824 450.433H405.198C418.872 450.433 429.998 439.308 429.998 425.633V272.23C429.998 258.555 418.872 247.429 405.198 247.429H396.723V200.154C396.723 178.254 388.698 157.628 374.149 142.028ZM216.325 200.128C216.325 181.578 223.1 164.103 235.376 150.928C248.051 137.328 272.975 128.903 300.425 128.903C327.75 128.903 351.725 137.153 364.597 150.928C376.873 164.103 383.648 181.578 383.648 200.128V247.404H376.547V200.128C376.547 184.028 370.623 168.803 359.897 157.303C348.397 144.978 326.248 137.603 300.623 137.603C274.623 137.603 251.423 145.153 240.073 157.303C229.323 168.828 223.423 184.028 223.423 200.128V247.404H216.323L216.325 200.128ZM363.525 247.404H236.473V200.128C236.473 187.353 241.148 175.278 249.623 166.203C258.447 156.753 278.447 150.653 300.623 150.653C322.347 150.653 341.398 156.603 350.347 166.203C358.822 175.278 363.497 187.353 363.497 200.128L363.525 247.404ZM416.95 272.229V425.658C416.95 432.133 411.675 437.433 405.175 437.433L194.802 437.408C188.327 437.408 183.027 432.133 183.027 425.633L183.052 272.23C183.052 265.755 188.327 260.455 194.827 260.455H405.2C411.675 260.455 416.95 265.729 416.95 272.229ZM293.475 356.377V381.403C293.475 385.003 296.4 387.928 300 387.928C303.6 387.928 306.525 385.003 306.525 381.403V356.377C316.425 353.527 323.7 344.427 323.7 333.602C323.7 320.527 313.074 309.902 300 309.902C286.925 309.902 276.3 320.527 276.3 333.602C276.3 344.427 283.575 353.527 293.475 356.377ZM300 322.952C305.875 322.952 310.65 327.727 310.65 333.602C310.65 339.477 305.875 344.252 300 344.252C294.125 344.252 289.35 339.477 289.35 333.602C289.35 327.727 294.125 322.952 300 322.952Z" fill="white"/>
</svg>
