<svg width="3600" height="3600" viewBox="0 0 3600 3600" fill="none" xmlns="http://www.w3.org/2000/svg">
<path d="M1131.76 207.528C1174.16 207.528 1208.53 173.16 1208.53 130.764C1208.53 88.3684 1174.16 54 1131.76 54C1089.37 54 1055 88.3684 1055 130.764C1055 173.16 1089.37 207.528 1131.76 207.528Z" fill="white"/>
<path d="M519.764 1353.53C562.16 1353.53 596.528 1319.16 596.528 1276.76C596.528 1234.37 562.16 1200 519.764 1200C477.368 1200 443 1234.37 443 1276.76C443 1319.16 477.368 1353.53 519.764 1353.53Z" fill="white"/>
<path d="M2472.76 665.528C2515.16 665.528 2549.53 631.16 2549.53 588.764C2549.53 546.368 2515.16 512 2472.76 512C2430.37 512 2396 546.368 2396 588.764C2396 631.16 2430.37 665.528 2472.76 665.528Z" fill="white"/>
<path d="M1050.76 3049.53C1093.16 3049.53 1127.53 3015.16 1127.53 2972.76C1127.53 2930.37 1093.16 2896 1050.76 2896C1008.37 2896 974 2930.37 974 2972.76C974 3015.16 1008.37 3049.53 1050.76 3049.53Z" fill="white"/>
<path d="M2626.76 2421.53C2669.16 2421.53 2703.53 2387.16 2703.53 2344.76C2703.53 2302.37 2669.16 2268 2626.76 2268C2584.37 2268 2550 2302.37 2550 2344.76C2550 2387.16 2584.37 2421.53 2626.76 2421.53Z" fill="white"/>
<path d="M1586.76 914.528C1629.16 914.528 1663.53 880.16 1663.53 837.764C1663.53 795.368 1629.16 761 1586.76 761C1544.37 761 1510 795.368 1510 837.764C1510 880.16 1544.37 914.528 1586.76 914.528Z" fill="white"/>
<path d="M3276.76 2876.53C3319.16 2876.53 3353.53 2842.16 3353.53 2799.76C3353.53 2757.37 3319.16 2723 3276.76 2723C3234.37 2723 3200 2757.37 3200 2799.76C3200 2842.16 3234.37 2876.53 3276.76 2876.53Z" fill="white"/>
<circle cx="1800" cy="1800" r="992" stroke="white" stroke-width="16"/>
<circle cx="1800" cy="1800" r="1792" stroke="white" stroke-width="16"/>
<circle cx="1800" cy="1800" r="1392" stroke="white" stroke-width="16"/>
<path fill-rule="evenodd" clip-rule="evenodd" d="M1799.33 1440.01L1805.98 1457.07C1860.65 1597.9 1946.81 1716.74 2054.66 1799.99C1946.81 1882.97 1860.65 2002.11 1805.98 2142.92L1799.33 2160L1792.68 2142.94C1738.02 2002.11 1651.85 1883.27 1544 1800.01C1651.85 1717.03 1738.02 1597.89 1792.68 1457.08L1799.33 1440V1440.01Z" fill="white" stroke="white" stroke-width="16" stroke-miterlimit="10"/>
</svg>
