<svg width="602" height="600" viewBox="0 0 602 600" fill="none" xmlns="http://www.w3.org/2000/svg">
<path fill-rule="evenodd" clip-rule="evenodd" d="M304.316 252.596C335.656 252.596 360.353 277.322 360.353 308.724C360.353 339.448 335.656 364.879 304.316 364.879C273.557 364.879 248.184 339.448 248.184 308.724C248.184 277.308 273.557 252.596 304.316 252.596ZM204.164 174.396L258.847 237.918L248.184 246.597L194.095 183.117L179.412 195.832L174.053 153.056L218.791 161.735L204.164 174.396ZM145.365 272.65L228.156 283.32L226.153 296.713L143.307 285.988L140.669 305.379L108.611 277.322L147.354 253.923L145.365 272.65ZM164.744 381.575L234.855 336.117L242.175 347.478L172.078 392.895L182.741 409.618L139.357 408.955L154.039 365.501L164.744 381.575ZM248.184 451.082L229.509 445.747L245.532 488.482L279.579 461.088L260.863 455.712L286.278 375.563L272.907 371.541L248.184 451.082ZM351.72 453.708L323.004 374.872L335.656 370.864L363.723 449.036L382.452 442.402L372.383 484.46L333.018 460.439L351.72 453.708ZM439.856 384.92L430.491 401.616L475.229 394.304L455.878 356.13L446.541 372.882L373.088 332.8L367.024 344.161L439.856 384.92ZM461.168 270.674L379.745 289.982L376.43 276.659L457.867 257.945L453.226 238.54L493.903 253.909L465.215 289.333L461.168 270.674ZM394.428 168.383L411.14 178.418L405.823 132.974L366.375 151.01L383.102 161.044L339.013 231.892L350.38 239.203L394.428 168.383ZM310.311 140.313V223.889H296.941V140.313H277.59L301.623 104.267L329.621 140.313H310.311ZM304.316 0C325.629 0 343.032 17.4009 343.032 38.7546C343.032 60.827 325.629 78.1588 304.316 78.1588C282.935 78.1588 265.587 60.827 265.587 38.7546C265.587 17.4009 282.921 0 304.316 0ZM104.619 72.8376C121.332 58.8229 145.365 60.827 159.385 76.8734C173.418 93.5556 171.443 118.295 155.379 132.324C139.357 146.352 114.619 144.39 100.613 127.611C86.6078 111.606 88.6244 86.8799 104.619 72.8376ZM0.474687 257.958C3.78963 237.227 23.845 222.535 45.1987 225.893C65.9033 229.252 80.5995 248.574 77.2432 269.983C73.9006 291.378 53.859 306.084 33.1821 302.739C11.8007 299.408 -2.86788 279.312 0.474687 257.958ZM41.8286 466.451C30.4887 448.359 35.8202 424.338 54.5358 412.977C72.547 401.616 96.6217 407.628 107.948 425.706C119.288 444.365 113.279 467.778 95.3096 479.153C77.2293 490.472 53.2237 485.137 41.8286 466.451ZM208.763 598.07C188.086 592.044 176.747 569.999 183.404 549.295C190.089 529.227 211.443 517.866 232.147 523.919C252.866 530.581 264.247 552.626 257.548 573.316C250.863 593.412 228.846 604.773 208.763 598.07ZM420.45 590.081C401.113 598.07 378.392 588.699 369.731 569.35C361.693 549.295 371.085 526.532 390.422 517.852C410.436 509.863 433.157 519.193 441.859 538.584C449.856 558.666 440.491 581.346 420.45 590.081ZM576.763 445.042C566.749 464.392 543.379 472.408 523.945 462.429C505.298 453.031 497.26 429.687 506.611 410.309C516.666 390.96 540.022 383.552 559.387 392.908C578.034 402.279 586.072 425.706 576.763 445.042ZM600.769 233.896C606.142 254.6 593.448 275.967 572.081 281.33C551.376 285.988 530.672 273.3 525.299 252.596C520.022 231.892 532.702 210.483 553.351 205.811C574.76 200.504 595.423 213.164 600.769 233.896ZM481.928 57.4685C499.304 70.1563 503.296 94.2604 491.251 112.269C478.599 129.684 454.552 133.637 436.514 120.935C419.193 108.897 415.174 84.1986 427.798 66.8392C439.856 49.4798 464.58 45.4302 481.928 57.4685Z" fill="white"/>
</svg>
