<svg width="640" height="640" viewBox="0 0 640 640" fill="none" xmlns="http://www.w3.org/2000/svg">
<g clip-path="url(#clip0_3406_92)">
<path fill-rule="evenodd" clip-rule="evenodd" d="M319.501 7.68624L325.296 22.5473C372.918 145.237 447.986 248.773 541.946 321.302C447.986 393.591 372.918 497.389 325.296 620.059L319.501 634.94L313.705 620.079C266.081 497.389 191.014 393.853 97.0547 321.313C191.014 249.024 266.081 145.226 313.705 22.5576L319.501 7.67578V7.68624Z" stroke="white" stroke-width="2.50906" stroke-miterlimit="10"/>
<path fill-rule="evenodd" clip-rule="evenodd" d="M319.549 70.4107L324.186 82.2995C362.285 180.452 422.339 263.28 497.506 321.304C422.339 379.136 362.285 462.173 324.186 560.309L319.549 572.214L314.914 560.324C276.815 462.173 216.761 379.345 141.594 321.312C216.761 263.481 276.815 180.442 314.914 82.3078L319.549 70.4023V70.4107Z" stroke="white" stroke-width="2.50906" stroke-miterlimit="10"/>
<path fill-rule="evenodd" clip-rule="evenodd" d="M319.596 133.143L323.074 142.06C351.647 215.673 396.688 277.795 453.063 321.313C396.688 364.687 351.647 426.965 323.074 500.567L319.596 509.496L316.119 500.579C287.546 426.965 242.505 364.842 186.129 321.32C242.505 277.946 287.546 215.666 316.119 142.066L319.596 133.137V133.143Z" stroke="white" stroke-width="2.50906" stroke-miterlimit="10"/>
<path fill-rule="evenodd" clip-rule="evenodd" d="M319.486 195.863L321.804 201.807C340.854 250.883 370.881 292.298 408.463 321.309C370.881 350.226 340.854 391.745 321.804 440.812L319.486 446.765L317.168 440.82C298.118 391.745 268.091 350.329 230.508 321.314C268.091 292.398 298.118 250.878 317.168 201.812L319.486 195.859V195.863Z" fill="white" stroke="white" stroke-width="2.50906" stroke-miterlimit="10"/>
</g>
<defs>
<clipPath id="clip0_3406_92">
<rect width="449.121" height="637.457" fill="white" transform="translate(95 1)"/>
</clipPath>
</defs>
</svg>
