<svg width="640" height="640" viewBox="0 0 640 640" fill="none" xmlns="http://www.w3.org/2000/svg">
<path d="M338.155 70.4203C328.123 80.4525 311.856 80.4527 301.825 70.4205C291.793 60.3882 291.793 44.1227 301.825 34.0905C311.856 24.0583 328.123 24.0584 338.155 34.0905C348.186 44.1229 348.186 60.3882 338.155 70.4203Z" fill="white" stroke="white" stroke-width="2.7216"/>
<path d="M386.146 140.077C376.115 150.109 359.849 150.109 349.816 140.077C339.785 130.045 339.785 113.779 349.816 103.747C359.849 93.7146 376.115 93.7146 386.146 103.747C396.179 113.779 396.179 130.044 386.146 140.077Z" fill="white" stroke="white" stroke-width="2.7216"/>
<path d="M290.276 140.096C280.243 150.128 263.978 150.128 253.946 140.096C243.914 130.064 243.914 113.798 253.946 103.766C263.978 93.7341 280.243 93.7341 290.276 103.766C300.308 113.799 300.308 130.064 290.276 140.096Z" fill="white" stroke="white" stroke-width="2.7216"/>
<path d="M434.038 204.365C424.005 214.398 407.74 214.398 397.708 204.365C387.675 194.333 387.675 178.068 397.708 168.036C407.74 158.004 424.005 158.004 434.038 168.036C444.07 178.068 444.07 194.333 434.038 204.365Z" fill="white" stroke="white" stroke-width="2.7216"/>
<path d="M338.169 204.385C328.138 214.417 311.872 214.417 301.841 204.385C291.808 194.352 291.808 178.087 301.841 168.055C311.872 158.023 328.138 158.023 338.169 168.055C348.202 178.088 348.202 194.352 338.169 204.385Z" fill="white" stroke="white" stroke-width="2.7216"/>
<path d="M242.292 204.401C232.259 214.433 215.994 214.433 205.962 204.401C195.929 194.368 195.929 178.103 205.962 168.071C215.994 158.039 232.259 158.039 242.292 168.071C252.324 178.103 252.324 194.368 242.292 204.401Z" fill="white" stroke="white" stroke-width="2.7216"/>
<path d="M482.011 274.021C471.978 284.054 455.713 284.054 445.681 274.021C435.648 263.99 435.648 247.724 445.681 237.691C455.713 227.66 471.978 227.66 482.011 237.691C492.043 247.724 492.043 263.989 482.011 274.021Z" fill="white" stroke="white" stroke-width="2.7216"/>
<path d="M386.147 274.041C376.115 284.073 359.85 284.073 349.817 274.041C339.785 264.008 339.785 247.743 349.817 237.711C359.85 227.68 376.115 227.68 386.147 237.711C396.18 247.743 396.18 264.008 386.147 274.041Z" fill="white" stroke="white" stroke-width="2.7216"/>
<path d="M290.276 274.054C280.243 284.086 263.978 284.086 253.946 274.054C243.914 264.021 243.914 247.756 253.946 237.724C263.978 227.691 280.243 227.691 290.276 237.724C300.308 247.756 300.308 264.021 290.276 274.054Z" fill="white" stroke="white" stroke-width="2.7216"/>
<path d="M194.401 274.054C184.369 284.086 168.103 284.086 158.071 274.054C148.039 264.021 148.039 247.756 158.071 237.724C168.103 227.691 184.369 227.691 194.401 237.724C204.433 247.756 204.433 264.021 194.401 274.054Z" fill="white" stroke="white" stroke-width="2.7216"/>
<path d="M529.905 338.304C519.873 348.336 503.606 348.336 493.575 338.304C483.543 328.271 483.543 312.006 493.575 301.974C503.606 291.941 519.873 291.941 529.905 301.974C539.936 312.006 539.936 328.271 529.905 338.304Z" fill="white" stroke="white" stroke-width="2.7216"/>
<path d="M434.03 338.322C423.998 348.354 407.733 348.354 397.7 338.323C387.668 328.291 387.668 312.024 397.7 301.992C407.733 291.961 423.998 291.961 434.03 301.993C444.063 312.024 444.063 328.291 434.03 338.322Z" fill="white" stroke="white" stroke-width="2.7216"/>
<path fill-rule="evenodd" clip-rule="evenodd" d="M320.071 276.974L320.874 279.021C327.465 295.915 337.855 310.171 350.861 320.159C337.855 330.114 327.465 344.405 320.874 361.296L320.071 363.346L319.268 361.3C312.677 344.405 302.287 330.149 289.281 320.159C302.287 310.207 312.677 295.913 319.268 279.022L320.071 276.973V276.974Z" fill="#CDA55F" stroke="#CDA55F" stroke-width="0.1701" stroke-miterlimit="10"/>
<path d="M242.292 338.345C232.259 348.378 215.994 348.378 205.962 338.345C195.929 328.314 195.929 312.048 205.962 302.015C215.994 291.984 232.259 291.984 242.292 302.017C252.324 312.048 252.324 328.314 242.292 338.345Z" fill="white" stroke="white" stroke-width="2.7216"/>
<path d="M146.424 338.366C136.392 348.399 120.127 348.399 110.094 338.366C100.062 328.334 100.062 312.069 110.094 302.036C120.127 292.004 136.392 292.004 146.424 302.036C156.456 312.069 156.456 328.334 146.424 338.366Z" fill="white" stroke="white" stroke-width="2.7216"/>
<path d="M482.011 407.979C471.978 418.011 455.713 418.011 445.681 407.979C435.648 397.946 435.648 381.681 445.681 371.649C455.713 361.616 471.978 361.618 482.011 371.649C492.043 381.681 492.043 397.946 482.011 407.979Z" fill="white" stroke="white" stroke-width="2.7216"/>
<path d="M386.147 407.997C376.115 418.03 359.85 418.03 349.817 407.997C339.785 397.967 339.785 381.7 349.817 371.667C359.85 361.637 376.115 361.637 386.147 371.669C396.18 381.7 396.18 397.967 386.147 407.997Z" fill="white" stroke="white" stroke-width="2.7216"/>
<path d="M290.276 408.022C280.243 418.053 263.978 418.055 253.946 408.022C243.914 397.99 243.914 381.725 253.946 371.692C263.978 361.66 280.243 361.66 290.276 371.692C300.308 381.725 300.308 397.99 290.276 408.022Z" fill="white" stroke="white" stroke-width="2.7216"/>
<path d="M194.401 408.022C184.369 418.053 168.103 418.055 158.071 408.022C148.039 397.99 148.039 381.725 158.071 371.692C168.103 361.66 184.369 361.66 194.401 371.692C204.433 381.725 204.433 397.99 194.401 408.022Z" fill="white" stroke="white" stroke-width="2.7216"/>
<path d="M434.038 472.284C424.005 482.317 407.74 482.317 397.708 472.284C387.675 462.252 387.675 445.987 397.708 435.954C407.74 425.922 424.005 425.922 434.038 435.954C444.07 445.987 444.07 462.252 434.038 472.284Z" fill="white" stroke="white" stroke-width="2.7216"/>
<path d="M338.169 472.3C328.138 482.332 311.872 482.332 301.841 472.3C291.808 462.267 291.808 446.002 301.841 435.97C311.872 425.937 328.138 425.937 338.169 435.97C348.202 446.002 348.202 462.267 338.169 472.3Z" fill="white" stroke="white" stroke-width="2.7216"/>
<path d="M242.292 472.33C232.259 482.362 215.994 482.362 205.962 472.33C195.929 462.299 195.929 446.032 205.962 436C215.994 425.969 232.259 425.969 242.292 436C252.324 446.032 252.324 462.299 242.292 472.33Z" fill="white" stroke="white" stroke-width="2.7216"/>
<path d="M386.146 541.971C376.115 552.002 359.849 552.002 349.816 541.971C339.785 531.939 339.785 515.672 349.816 505.642C359.849 495.609 376.115 495.609 386.146 505.642C396.179 515.672 396.179 531.939 386.146 541.971Z" fill="white" stroke="white" stroke-width="2.7216"/>
<path d="M290.276 541.985C280.243 552.018 263.978 552.018 253.946 541.987C243.914 531.955 243.914 515.688 253.946 505.657C263.978 495.625 280.243 495.625 290.276 505.657C300.308 515.688 300.308 531.955 290.276 541.985Z" fill="white" stroke="white" stroke-width="2.7216"/>
<path d="M338.167 606.272C328.134 616.305 311.869 616.305 301.837 606.272C291.804 596.24 291.804 579.975 301.837 569.942C311.869 559.91 328.134 559.91 338.167 569.942C348.199 579.975 348.199 596.24 338.167 606.272Z" fill="white" stroke="white" stroke-width="2.7216"/>
</svg>
