<svg width="1236" height="480" viewBox="0 0 1236 480" fill="none" xmlns="http://www.w3.org/2000/svg">
<g clip-path="url(#clip0_3351_289)">
<path d="M362.13 325.074C366.454 332.949 366.278 342.266 361.673 350C357.085 357.735 348.982 362.323 339.982 362.323H25.2596C16.2595 362.323 8.15592 357.735 3.56816 350C-1.01961 342.266 -1.19556 332.949 3.11113 325.074L15.9785 301.396C25.2949 284.293 30.1994 264.992 30.1994 245.551V178.366C30.1994 94.3597 98.5951 26 182.619 26C266.644 26 335.039 94.3597 335.039 178.42V245.605C335.039 265.047 339.944 284.348 349.26 301.45L362.128 325.128L362.13 325.074ZM182.62 453.5C225.827 453.5 261.46 420.383 265.465 378.215H99.7747C103.782 420.385 139.414 453.5 182.62 453.5Z" fill="white"/>
<path d="M1022.75 26C904.85 26 809 121.85 809 239.75C809 357.65 904.85 453.5 1022.75 453.5C1140.65 453.5 1236.5 357.65 1236.5 239.75C1236.5 121.85 1140.65 26 1022.75 26ZM1128.5 253.25H1068.2C1062.35 273.05 1044.35 287.45 1022.75 287.45C996.65 287.45 975.05 266.3 975.05 239.75C975.05 218.15 989.45 200.15 1009.25 194.3V115.55C1009.25 108.35 1015.1 102.05 1022.75 102.05C1030.4 102.05 1036.25 107.9 1036.25 115.55V194.3C1051.55 198.8 1063.7 210.95 1068.65 226.7H1128.95C1136.15 226.7 1142.45 232.55 1142.45 240.2C1142.45 247.85 1135.7 253.25 1128.5 253.25Z" fill="white"/>
<path d="M1022.74 260.902C1034.42 260.902 1043.89 251.432 1043.89 239.752C1043.89 228.071 1034.42 218.602 1022.74 218.602C1011.06 218.602 1001.59 228.071 1001.59 239.752C1001.59 251.432 1011.06 260.902 1022.74 260.902Z" fill="white"/>
<path d="M710.536 242.536C712.488 240.583 712.488 237.417 710.536 235.464L678.716 203.645C676.763 201.692 673.597 201.692 671.645 203.645C669.692 205.597 669.692 208.763 671.645 210.716L699.929 239L671.645 267.284C669.692 269.237 669.692 272.403 671.645 274.355C673.597 276.308 676.763 276.308 678.716 274.355L710.536 242.536ZM467 239V244H707V239V234H467V239Z" fill="white"/>
</g>
<defs>
<clipPath id="clip0_3351_289">
<rect width="1236" height="480" fill="white"/>
</clipPath>
</defs>
</svg>
