<svg width="635" height="621" viewBox="0 0 635 621" fill="none" xmlns="http://www.w3.org/2000/svg">
<path d="M595.242 251.046C581.542 184.01 545.121 123.758 492.134 80.4698C439.146 37.1819 372.84 13.5122 304.418 13.4598C235.996 13.4074 169.653 36.9756 116.599 80.1823C63.5454 123.389 27.0326 183.585 13.23 250.601L0 247.901C14.4355 177.845 52.6093 114.919 108.073 69.7521C163.536 24.5857 232.89 -0.0522865 304.418 8.33147e-05C375.945 0.0524532 445.263 24.792 500.66 70.0396C556.058 115.287 594.139 178.269 608.472 248.346L595.242 251.046Z" fill="white"/>
<path d="M557.297 224.372L604.547 258.689L627.605 213.68L557.297 224.372Z" fill="white"/>
<path d="M330.024 620.928C258.487 620.783 189.181 596.008 133.764 550.769C78.3466 505.531 40.1981 442.588 25.7344 372.528L38.9644 369.828C52.6643 436.864 89.085 497.116 142.073 540.404C195.061 583.692 261.367 607.362 329.789 607.414C398.211 607.467 464.553 583.899 517.607 540.692C570.661 497.485 607.174 437.289 620.976 370.274L634.206 372.974C619.643 442.927 581.468 505.744 526.084 550.89C470.701 596.036 401.477 620.765 330.024 620.928Z" fill="white"/>
<path d="M74.9149 401.338L32.9839 360.703L3.79688 402L74.9149 401.338Z" fill="white"/>
</svg>
