<svg width="400" height="400" viewBox="0 0 400 400" fill="none" xmlns="http://www.w3.org/2000/svg">
<g clip-path="url(#clip0_536_494)">
<path fill-rule="evenodd" clip-rule="evenodd" d="M36.8588 132.425C31.2916 106.63 38.5316 78.6256 58.5786 58.5786C78.6258 38.5316 106.63 31.2916 132.425 36.8586C146.728 14.6826 171.649 0 200 0C228.35 0 253.272 14.6827 267.576 36.8588C293.37 31.2916 321.374 38.5316 341.422 58.5786C361.468 78.6258 368.708 106.63 363.142 132.425C385.318 146.728 400 171.649 400 200C400 228.35 385.318 253.272 363.142 267.576C368.708 293.37 361.468 321.374 341.422 341.422C321.374 361.468 293.37 368.708 267.576 363.142C253.272 385.318 228.35 400 200 400C171.649 400 146.728 385.318 132.425 363.142C106.63 368.708 78.6258 361.468 58.5786 341.422C38.5316 321.374 31.2916 293.37 36.8588 267.576C14.6826 253.272 0 228.35 0 200C0 171.649 14.6826 146.728 36.8588 132.425ZM142.911 256.99C174.291 288.368 225.168 288.368 256.548 256.99C287.928 225.61 287.928 174.732 256.548 143.352C225.168 111.973 174.291 111.973 142.911 143.352C111.531 174.732 111.531 225.61 142.911 256.99Z" fill="white"/>
</g>
<defs>
<clipPath id="clip0_536_494">
<rect width="400" height="400" fill="white"/>
</clipPath>
</defs>
</svg>
