<svg width="600" height="600" viewBox="0 0 600 600" fill="none" xmlns="http://www.w3.org/2000/svg">
<path d="M300 0C149.32 0 40 120.52 40 286.667C40 448.253 202.187 600 300 600C397.813 600 560 448.253 560 286.667C560 120.52 450.68 0 300 0ZM253.333 368.127C253.333 374.663 248.073 380.001 241.667 380.001C196.667 380.001 160 342.814 160 297.061V285.187C160 278.676 165.26 273.338 171.667 273.338C216.667 273.338 253.333 310.525 253.333 356.278V368.127ZM440 297.06C440 342.815 403.333 380 358.333 380C351.927 380 346.667 374.661 346.667 368.125V356.251C346.667 310.521 383.333 273.331 428.333 273.331C434.74 273.331 440 278.669 440 285.205V297.06Z" fill="white"/>
</svg>
