<svg width="3616" height="3616" viewBox="0 0 3616 3616" fill="none" xmlns="http://www.w3.org/2000/svg">
<path d="M3608 1809.14C3608 2785.66 2785.14 3608 1808 3608C830.857 3608 8 2785.66 8 1809.14C8 832.62 830.857 10.2848 1808 10.2848C2785.14 -41.1112 3608 781.224 3608 1809.14Z" stroke="white" stroke-width="16"/>
<path d="M2703.5 908.571C2703.5 1396.83 2292.07 1808 1803.5 1808C1314.93 1808 903.5 1396.83 903.5 908.571C903.5 420.31 1314.93 9.14238 1803.5 9.14238C2292.07 -16.5556 2703.5 394.612 2703.5 908.571Z" stroke="white" stroke-width="16"/>
<path d="M2708 2708.57C2708 3196.83 2296.57 3608 1808 3608C1319.43 3608 908 3196.83 908 2708.57C908 2220.31 1319.43 1809.14 1808 1809.14C2296.57 1783.44 2708 2194.61 2708 2708.57Z" stroke="white" stroke-width="16"/>
<path d="M1925 1357.45C1925 1845.71 1513.57 2256.87 1025 2256.87C536.429 2256.87 125 1845.71 125 1357.45C125 869.185 536.429 458.017 1025 458.017C1513.57 432.319 1925 843.487 1925 1357.45Z" stroke="white" stroke-width="16"/>
<path d="M2708 1808.57C2708 2296.83 2296.57 2708 1808 2708C1319.43 2708 908 2296.83 908 1808.57C908 1320.31 1319.43 909.142 1808 909.142C2296.57 883.444 2708 1294.61 2708 1808.57Z" stroke="white" stroke-width="16"/>
<path d="M1925 2257.45C1925 2745.71 1513.57 3156.87 1025 3156.87C536.429 3156.87 125 2745.71 125 2257.45C125 1769.18 536.429 1358.02 1025 1358.02C1513.57 1332.32 1925 1743.49 1925 2257.45Z" stroke="white" stroke-width="16"/>
<path d="M3487.62 2257.45C3487.62 2745.71 3076.2 3156.87 2587.62 3156.87C2099.05 3156.87 1687.62 2745.71 1687.62 2257.45C1687.62 1769.18 2099.05 1358.02 2587.62 1358.02C3076.2 1332.32 3487.62 1743.49 3487.62 2257.45Z" stroke="white" stroke-width="16"/>
<path d="M3487.62 1356.32C3487.62 1844.58 3076.2 2255.75 2587.62 2255.75C2099.05 2255.75 1687.62 1844.58 1687.62 1356.32C1687.62 868.06 2099.05 456.892 2587.62 456.892C3076.2 431.194 3487.62 842.362 3487.62 1356.32Z" stroke="white" stroke-width="16"/>
</svg>
