<svg width="720" height="720" viewBox="0 0 720 720" fill="none" xmlns="http://www.w3.org/2000/svg">
<path d="M715.908 625.68L630.199 477.514C642.225 413.22 630.831 346.744 598.08 290.124C565.329 233.504 513.386 190.483 451.657 168.851L366.391 21.4478C365.685 20.3873 364.728 19.5177 363.605 18.9162C362.482 18.3147 361.227 18 359.953 18C358.679 18 357.425 18.3147 356.302 18.9162C355.179 19.5177 354.221 20.3873 353.515 21.4478L268.249 168.852C206.522 190.487 154.581 233.508 121.831 290.127C89.0798 346.746 77.6833 413.219 89.7042 477.514L3.99823 625.68C3.34479 626.811 3.00052 628.093 3 629.399C2.99948 630.705 3.34275 631.988 3.9953 633.119C4.64784 634.25 5.58665 635.189 6.71734 635.842C7.84803 636.495 9.13074 636.839 10.4365 636.839H182.409C232.031 678.844 294.938 701.894 359.952 701.894C424.965 701.894 487.873 678.844 537.495 636.839H709.47C710.776 636.839 712.059 636.495 713.189 635.842C714.32 635.189 715.258 634.25 715.911 633.119C716.563 631.988 716.907 630.705 716.906 629.399C716.906 628.094 716.562 626.811 715.908 625.68ZM619.992 427.49C619.98 444.274 618.348 461.017 615.119 477.487C609.91 504.153 600.505 529.825 587.255 553.545C586.409 555.062 585.522 556.549 584.657 558.051H525.093C541.08 537.975 553.279 515.156 561.094 490.711C575.889 443.832 573.761 393.247 555.079 347.776L554.639 346.883L463.577 189.458C510.017 209.563 549.566 242.807 577.357 285.099C605.148 327.391 619.967 376.885 619.992 427.49ZM505.645 558.051H214.262C196.304 538.099 182.618 514.686 174.044 489.249L320.556 235.957C346.551 230.629 373.356 230.629 399.351 235.957L545.863 489.245C537.287 514.682 523.601 538.097 505.645 558.051ZM359.953 40.021L541.476 353.83C556.448 390.344 559.907 430.562 551.39 469.096L370.858 156.997L370.849 156.985L366.391 149.278C365.738 148.149 364.8 147.211 363.67 146.559C362.54 145.907 361.259 145.564 359.954 145.563C358.65 145.563 357.368 145.906 356.238 146.557C355.108 147.208 354.169 148.145 353.515 149.274L351.11 153.433C330.176 154.068 309.383 157.092 289.136 162.446L359.953 40.021ZM275.737 181.951C301.486 173.168 328.455 168.484 355.658 168.069L357.626 168.011C358.43 167.984 359.236 168.01 360.043 168.011L389.658 219.205C364.541 215.606 338.981 216.567 314.205 222.042C265.997 232.818 223.082 260.132 192.904 299.239L192.352 300.063L165.267 346.887L101.662 456.843C94.7841 398.013 108.322 338.606 140.011 288.565C171.699 238.524 219.614 200.886 275.737 181.951ZM23.3306 621.966L103.923 482.636L204.915 308.049C229.251 276.654 262.515 253.354 300.336 241.21L119.722 553.447L114.915 561.765C114.261 562.896 113.917 564.178 113.917 565.484C113.916 566.79 114.259 568.072 114.912 569.203C115.564 570.334 116.503 571.274 117.634 571.927C118.764 572.58 120.047 572.924 121.353 572.924H126.96C138.124 590.722 151.298 607.177 166.221 621.966H23.3306ZM359.953 687.021C315.203 686.977 271.217 675.419 232.225 653.46C193.234 631.501 160.547 599.879 137.31 561.635C136.423 560.172 135.596 558.67 134.747 557.182L164.385 505.949C181.468 548.414 211.917 584.16 251.127 607.776C290.336 631.393 336.171 641.595 381.696 636.839H513.469C468.916 669.428 415.153 687.002 359.953 687.021ZM534.824 621.966H381.424L380.647 622.006C353.354 624.907 325.756 622.037 299.644 613.581C273.532 605.126 249.49 591.273 229.079 572.924H598.554C599.86 572.924 601.143 572.58 602.273 571.927C603.404 571.274 604.343 570.335 604.995 569.204C605.648 568.073 605.991 566.79 605.99 565.484C605.99 564.179 605.646 562.896 604.992 561.766L602.199 556.934C612.123 538.518 619.889 519.017 625.342 498.82L696.576 621.966L534.824 621.966Z" fill="white"/>
</svg>
