<svg width="532" height="532" viewBox="0 0 532 532" fill="none" xmlns="http://www.w3.org/2000/svg">
<g clip-path="url(#clip0_3333_110)">
<path d="M170 268.941V265C143.6 265 117.2 265 90 265V268.941C116.8 269.02 142.8 269.02 170 268.941Z" fill="white"/>
<path d="M400.511 115.781C398.771 119.351 396.911 122.921 395.021 126.401L397.631 127.841C399.581 124.331 401.441 120.701 403.211 117.101L400.511 115.781Z" fill="white"/>
<path d="M392.076 131.625C390.096 135.045 387.996 138.495 385.836 141.855L388.356 143.475C390.546 140.055 392.676 136.575 394.656 133.125L392.076 131.625Z" fill="white"/>
<path d="M360.538 175.102C357.868 178.102 355.108 181.102 352.348 183.862L354.508 185.962C357.268 182.962 360.058 179.962 362.758 176.962L360.538 175.102Z" fill="white"/>
<path d="M371.974 161.414C369.514 164.564 366.964 167.684 364.414 170.684L366.694 172.634C369.274 169.634 371.854 166.454 374.344 163.244L371.974 161.414Z" fill="white"/>
<path d="M382.572 146.836C380.352 150.136 378.012 153.436 375.642 156.646L378.072 158.416C380.472 155.206 382.812 151.876 385.062 148.516L382.572 146.836Z" fill="white"/>
<path d="M407.99 99.4453C406.49 103.105 404.99 106.795 403.22 110.395L405.95 111.655C407.63 107.995 409.25 104.275 410.75 100.555L407.99 99.4453Z" fill="white"/>
<path d="M413.978 82.6172C412.748 86.3672 411.398 90.1472 409.988 93.8672L412.778 94.9472C414.218 91.1972 415.568 87.3572 416.828 83.5472L413.978 82.6172Z" fill="white"/>
<path d="M347.975 188.203C345.125 190.993 342.185 193.753 339.215 196.393L341.195 198.643C344.195 195.943 347.195 193.183 350.195 190.363L347.975 188.203Z" fill="white"/>
<path d="M425.562 30.0234C425.112 33.9834 424.572 37.9734 423.942 41.8734L426.942 42.3534C427.572 38.3934 428.112 34.3434 428.562 30.3534L425.562 30.0234Z" fill="white"/>
<path d="M419.09 65.3672C418.1 69.2072 417.02 73.1072 415.88 76.8872L418.73 77.7872C419.9 73.9172 421.01 69.9872 422 66.0872L419.09 65.3672Z" fill="white"/>
<path d="M422.986 47.7891C422.266 51.7191 421.456 55.6491 420.556 59.5491L423.556 60.2091C424.456 56.2791 425.266 52.2891 426.016 48.2091L422.986 47.7891Z" fill="white"/>
<path d="M241.633 254.742L240.763 251.742C236.953 252.912 233.053 253.992 229.243 254.982L229.963 257.982C233.833 257.022 237.763 255.912 241.633 254.742Z" fill="white"/>
<path d="M258.891 248.867L257.841 246.047C254.091 247.457 250.28 248.837 246.5 250.067L247.46 253.067C251.27 251.657 254.991 250.307 258.891 248.867Z" fill="white"/>
<path d="M224.078 259.43L223.388 256.43C219.518 257.33 215.558 258.14 211.658 258.83L212.198 261.83C216.158 261.17 220.148 260.33 224.078 259.43Z" fill="white"/>
<path d="M206.219 262.922L205.739 259.922C201.779 260.552 197.789 261.092 193.739 261.542L194.099 264.542C198.179 264.092 202.229 263.552 206.219 262.922Z" fill="white"/>
<path d="M188.188 265.102L187.918 262.102C183.927 262.462 179.907 262.732 175.917 262.912V265.912C179.967 265.792 184.167 265.522 188.188 265.102Z" fill="white"/>
<path d="M275.656 241.793L274.396 239.062C270.766 240.743 267.046 242.362 263.386 243.862L264.526 246.622C268.216 245.122 271.966 243.503 275.656 241.793Z" fill="white"/>
<path d="M320.778 211.547C317.568 213.917 314.268 216.257 310.998 218.477L312.678 220.967C315.978 218.717 319.308 216.347 322.578 213.947L320.778 211.547Z" fill="white"/>
<path d="M305.974 221.742C302.584 223.932 299.134 226.032 295.714 228.012L297.214 230.592C300.694 228.582 304.174 226.482 307.594 224.292L305.974 221.742Z" fill="white"/>
<path d="M334.831 200.367C331.831 202.947 328.831 205.497 325.531 207.927L327.391 210.297C330.391 207.837 333.721 205.257 336.781 202.647L334.831 200.367Z" fill="white"/>
<path d="M291.938 233.593L290.497 230.953C286.987 232.873 283.387 234.733 279.847 236.473L281.167 239.173C284.767 237.403 288.367 235.513 291.938 233.593Z" fill="white"/>
<path d="M428.74 0C425.061 9.15734 419.891 17.6422 413.44 25.11L426.43 20.91L426.19 23.91L429.19 24.18L429.43 21.18L442 26.31C436.171 18.3239 431.692 9.43597 428.74 0Z" fill="white"/>
<path d="M400.511 416.43C398.771 412.86 396.911 409.29 395.021 405.81L397.631 404.37C399.581 407.88 401.441 411.51 403.211 415.11L400.511 416.43Z" fill="white"/>
<path d="M392.076 400.586C390.096 397.166 387.996 393.716 385.836 390.356L388.356 388.736C390.546 392.156 392.676 395.636 394.656 399.086L392.076 400.586Z" fill="white"/>
<path d="M360.546 357.109C357.876 354.109 355.116 351.109 352.356 348.349L354.516 346.249C357.276 349.249 360.066 352.249 362.766 355.249L360.546 357.109Z" fill="white"/>
<path d="M371.974 370.797C369.514 367.647 366.964 364.527 364.414 361.527L366.694 359.577C369.274 362.577 371.854 365.757 374.344 368.967L371.974 370.797Z" fill="white"/>
<path d="M382.573 385.375C380.353 382.075 378.012 378.775 375.642 375.565L378.073 373.795C380.473 377.005 382.812 380.335 385.062 383.695L382.573 385.375Z" fill="white"/>
<path d="M407.99 432.766C406.49 429.106 404.99 425.416 403.22 421.816L405.95 420.556C407.63 424.216 409.25 427.936 410.75 431.656L407.99 432.766Z" fill="white"/>
<path d="M413.978 449.594C412.748 445.844 411.398 442.064 409.988 438.344L412.778 437.264C414.218 441.014 415.568 444.854 416.828 448.664L413.978 449.594Z" fill="white"/>
<path d="M347.975 344.008C345.125 341.218 342.185 338.458 339.215 335.818L341.195 333.568C344.195 336.268 347.195 339.028 350.195 341.848L347.975 344.008Z" fill="white"/>
<path d="M425.562 502.188C425.112 498.227 424.573 494.238 423.943 490.338L426.943 489.858C427.573 493.818 428.112 497.868 428.562 501.858L425.562 502.188Z" fill="white"/>
<path d="M419.09 466.844C418.1 463.004 417.02 459.104 415.88 455.324L418.73 454.424C419.9 458.294 421.01 462.224 422 466.124L419.09 466.844Z" fill="white"/>
<path d="M422.986 484.422C422.266 480.492 421.456 476.562 420.556 472.662L423.556 472.002C424.456 475.932 425.266 479.922 426.016 484.002L422.986 484.422Z" fill="white"/>
<path d="M241.633 277.469L240.763 280.469C236.953 279.299 233.053 278.219 229.243 277.229L229.963 274.229C233.833 275.189 237.763 276.299 241.633 277.469Z" fill="white"/>
<path d="M258.883 283.344L257.833 286.164C254.083 284.754 250.273 283.374 246.493 282.144L247.453 279.144C251.263 280.554 254.983 281.904 258.883 283.344Z" fill="white"/>
<path d="M224.078 272.781L223.388 275.781C219.518 274.881 215.558 274.071 211.658 273.381L212.198 270.381C216.158 271.041 220.148 271.881 224.078 272.781Z" fill="white"/>
<path d="M206.234 269.289L205.754 272.289C201.794 271.659 197.804 271.119 193.754 270.669L194.114 267.669C198.194 268.119 202.244 268.659 206.234 269.289Z" fill="white"/>
<path d="M188.195 267.109L187.925 270.109C183.935 269.749 179.915 269.479 175.925 269.299V266.299C179.975 266.419 184.175 266.689 188.195 267.109Z" fill="white"/>
<path d="M275.672 290.418L274.412 293.148C270.782 291.468 267.062 289.848 263.402 288.348L264.542 285.588C268.232 287.088 271.982 288.708 275.672 290.418Z" fill="white"/>
<path d="M320.778 320.664C317.568 318.294 314.268 315.954 310.998 313.734L312.678 311.244C315.978 313.494 319.308 315.864 322.578 318.264L320.778 320.664Z" fill="white"/>
<path d="M305.974 310.469C302.584 308.279 299.134 306.179 295.714 304.199L297.214 301.619C300.694 303.629 304.174 305.729 307.594 307.919L305.974 310.469Z" fill="white"/>
<path d="M334.839 331.844C331.839 329.264 328.839 326.714 325.539 324.284L327.399 321.914C330.399 324.374 333.729 326.954 336.789 329.564L334.839 331.844Z" fill="white"/>
<path d="M291.938 298.618L290.498 301.258C286.988 299.338 283.388 297.478 279.848 295.738L281.167 293.038C284.767 294.808 288.367 296.698 291.938 298.618Z" fill="white"/>
<path d="M428.74 532.211C425.061 523.054 419.891 514.569 413.44 507.101L426.43 511.301L426.19 508.301L429.19 508.031L429.43 511.031L442 505.901C436.171 513.887 431.692 522.775 428.74 532.211Z" fill="white"/>
<path d="M170 265.956V263C143.6 263 117.2 263 90 263V265.956C116.8 266.015 142.8 266.015 170 265.956Z" fill="white"/>
</g>
<defs>
<clipPath id="clip0_3333_110">
<rect width="532" height="532" fill="white"/>
</clipPath>
</defs>
</svg>
