<svg width="4197" height="3563" viewBox="0 0 4197 3563" fill="none" xmlns="http://www.w3.org/2000/svg">
<path d="M338.508 2176.2L349.308 2185.2C337.608 2104.2 331.308 2016 354.708 1938.6C389.808 1814.4 433.908 1693.8 456.408 1565.1C474.408 1465.2 495.108 1352.7 483.408 1256.4C469.908 1308.6 456.408 1359.9 427.608 1404.9C318.708 1573.2 207.108 1771.2 283.608 1985.4C281.808 1988.1 279.108 1990.8 276.408 1989C245.808 1917.9 238.608 1837.8 218.808 1762.2C165.708 1561.5 11.8079 1393.2 56.8079 1161C32.5079 1211.4 23.5079 1268.1 10.9079 1323C-16.0921 1465.2 10.9079 1615.5 49.6079 1746.9C97.3079 1909.8 256.608 2026.8 338.508 2176.2Z" fill="white"/>
<path d="M297.114 1134.01C333.114 1060.21 391.614 990.014 461.814 937.814C616.614 820.814 785.814 669.614 788.514 471.614C736.314 613.814 580.614 673.214 477.114 770.414C422.214 821.714 379.914 883.814 355.614 948.614L352.014 945.914C364.614 888.314 388.914 837.014 406.014 781.214C451.014 630.014 442.914 449.114 590.514 347.414C514.914 367.214 451.014 415.814 394.314 478.814C274.614 611.114 285.414 806.414 300.714 979.214C306.114 1033.21 303.414 1079.11 297.114 1134.01Z" fill="white"/>
<path d="M477.105 702.928C559.905 625.528 655.306 567.928 725.506 476.128C809.206 365.428 882.106 241.228 991.906 145.828C843.406 203.428 683.205 262.828 586.905 415.828C530.205 504.928 521.205 610.228 477.105 702.928Z" fill="white"/>
<path d="M539.202 1094.44C575.202 1021.54 597.702 938.745 607.602 858.645C594.102 892.845 573.402 924.345 544.602 951.345C424.002 1065.64 282.702 1177.24 255.702 1339.24C252.102 1362.64 249.402 1386.04 243.102 1408.54C237.702 1411.24 237.702 1404.94 235.902 1403.14L251.202 1203.34C265.602 1008.04 163.002 791.145 275.502 619.245C271.902 618.345 269.202 621.945 266.502 622.845C163.902 753.345 95.502 897.345 95.502 1072.84C95.502 1289.74 220.602 1441.84 235.902 1645.24C268.302 1432.84 446.502 1281.64 539.202 1094.44Z" fill="white"/>
<path d="M300.7 2427.34C416.8 2519.14 555.4 2590.24 661.6 2671.24C640.9 2618.14 606.7 2569.54 593.2 2514.64C531.1 2263.54 565.3 1971.94 458.2 1739.74C478 1872.04 425.8 1989.04 414.1 2115.04C404.2 2218.54 422.2 2319.34 462.7 2405.74C474.4 2431.84 496 2454.34 502.3 2481.34C463.6 2446.24 435.7 2402.14 409.6 2358.94C284.5 2156.44 22.5997 2025.04 4.59973 1778.44C-4.40027 1888.24 5.49973 2004.34 41.4997 2101.54C90.9997 2234.74 188.2 2338.24 300.7 2427.34Z" fill="white"/>
<path d="M1879.31 3092.41C1676.81 3092.41 1495.01 3190.51 1317.71 3264.31C1156.61 3330.91 943.309 3318.31 800.209 3219.31C870.409 3307.51 964.909 3362.41 1063.01 3399.31C1243.91 3471.31 1455.41 3416.41 1610.21 3317.41C1720.91 3246.31 1816.31 3145.51 1948.61 3145.51C2161.91 3145.51 2386.01 3364.21 2577.71 3562.21C2607.41 3537.91 2638.91 3512.71 2663.21 3484.81C2462.51 3294.01 2179.01 3092.41 1879.31 3092.41Z" fill="white"/>
<path d="M1517.51 3114.03C1549.01 3105.93 1586.81 3108.63 1615.61 3097.83C1495.01 3073.53 1378.91 3036.63 1285.31 2951.13C1151.21 2828.73 1032.41 2698.23 889.312 2602.83C1001.81 2754.03 1033.31 2973.63 1238.51 3050.13C1274.51 3063.63 1316.81 3066.33 1348.31 3086.13C1308.71 3092.43 1274.51 3079.83 1237.61 3071.73C973.012 3015.03 650.812 3087.93 452.812 2862.93C527.513 3010.53 682.312 3126.63 831.712 3175.23C1061.21 3252.63 1301.51 3167.13 1517.51 3114.03Z" fill="white"/>
<path d="M1074.71 3003.31C902.809 2864.71 876.709 2656.81 800.209 2475.01C752.509 2361.61 675.109 2259.91 592.309 2160.91C683.209 2342.71 643.609 2576.71 761.509 2747.71C798.409 2801.71 849.709 2853.01 897.409 2895.31L895.609 2898.01C852.409 2878.21 813.709 2847.61 774.109 2815.21C568.009 2643.31 257.509 2621.71 134.209 2341.81C167.509 2547.01 330.409 2728.81 506.809 2844.01C674.209 2953.81 889.309 2942.11 1074.71 3003.31Z" fill="white"/>
<path d="M3469.61 476.128C3539.81 568.828 3635.21 625.528 3718.01 702.928C3673.91 610.228 3664.91 504.928 3609.11 415.828C3512.81 262.828 3352.61 203.428 3204.11 145.828C3312.11 241.228 3385.01 364.528 3469.61 476.128Z" fill="white"/>
<path d="M3789.12 781.214C3805.32 836.114 3829.62 888.314 3843.12 945.914L3839.52 948.614C3815.22 883.814 3772.92 821.714 3718.02 770.414C3614.52 672.314 3458.82 613.814 3407.52 470.714C3410.22 669.614 3579.42 820.814 3734.22 936.914C3803.52 989.114 3862.92 1059.31 3898.92 1133.11C3892.62 1078.21 3889.92 1032.31 3895.32 979.214C3911.52 805.514 3921.42 611.114 3802.62 478.814C3745.92 415.814 3682.02 366.314 3606.42 347.414C3752.22 449.114 3744.12 630.014 3789.12 781.214Z" fill="white"/>
<path d="M3943.92 1202.41L3959.22 1402.21C3957.42 1404.01 3957.42 1409.41 3952.02 1407.61C3945.72 1385.11 3943.02 1361.71 3939.42 1338.31C3912.42 1177.21 3770.22 1064.71 3650.52 950.41C3621.72 923.41 3601.02 891.91 3587.52 857.71C3597.42 937.81 3619.92 1020.61 3655.92 1093.51C3748.62 1280.71 3926.82 1431.91 3959.22 1645.21C3974.52 1440.91 4099.62 1289.71 4099.62 1072.81C4099.62 897.31 4031.22 753.31 3928.62 622.81C3925.92 621.01 3923.22 618.31 3919.62 619.21C4032.12 791.11 3928.62 1008.01 3943.92 1202.41Z" fill="white"/>
<path d="M3976.31 1761.34C3956.51 1836.94 3949.31 1917.94 3918.71 1988.14C3916.01 1989.94 3913.31 1986.34 3911.51 1984.54C3988.01 1770.34 3876.41 1573.24 3767.51 1404.04C3738.71 1359.94 3725.21 1307.74 3711.71 1255.54C3700.01 1352.74 3720.71 1464.34 3738.71 1564.24C3762.11 1692.94 3805.31 1813.54 3840.41 1937.74C3863.81 2015.14 3857.51 2102.44 3845.81 2184.34L3856.61 2175.34C3937.61 2025.94 4097.81 1908.94 4146.41 1745.14C4185.11 1614.64 4212.11 1463.44 4185.11 1321.24C4172.51 1266.34 4162.61 1209.64 4139.21 1159.24C4183.31 1392.34 4029.41 1560.64 3976.31 1761.34Z" fill="white"/>
<path d="M2876.51 3264.31C2698.31 3190.51 2517.41 3092.41 2314.91 3092.41C2016.11 3092.41 1731.71 3294.91 1532.81 3484.81C1557.11 3512.71 1588.61 3538.81 1618.31 3562.21C1809.11 3365.11 2034.11 3145.51 2247.41 3145.51C2379.71 3145.51 2475.11 3246.31 2585.81 3317.41C2739.71 3415.51 2951.21 3471.31 3133.01 3399.31C3230.21 3362.41 3324.71 3307.51 3395.81 3219.31C3251.81 3317.41 3037.61 3330.91 2876.51 3264.31Z" fill="white"/>
<path d="M3786.42 2357.11C3759.42 2400.31 3732.42 2445.31 3693.72 2479.51C3700.02 2453.41 3721.62 2430.01 3733.32 2403.91C3773.82 2316.61 3791.82 2216.71 3781.92 2113.21C3769.32 1987.21 3717.12 1870.21 3737.82 1737.91C3629.82 1970.11 3664.92 2261.71 3602.82 2512.81C3589.32 2568.61 3555.12 2617.21 3534.42 2669.41C3640.62 2588.41 3779.22 2517.31 3895.32 2425.51C4007.82 2337.31 4105.02 2232.91 4156.32 2097.91C4193.22 2000.71 4202.22 1884.61 4193.22 1774.81C4174.32 2023.21 3911.52 2154.61 3786.42 2357.11Z" fill="white"/>
<path d="M3419.21 2815.21C3379.61 2847.61 3340.91 2878.21 3297.71 2898.01L3295.91 2895.31C3343.61 2852.11 3394.91 2800.81 3431.81 2747.71C3549.71 2576.71 3510.11 2341.81 3601.01 2160.91C3518.21 2259.91 3440.81 2361.61 3393.11 2475.01C3316.61 2656.81 3290.51 2864.71 3118.61 3003.31C3304.01 2942.11 3519.11 2953.81 3685.61 2844.91C3861.11 2729.71 4024.01 2547.91 4058.21 2342.71C3935.81 2621.71 3626.21 2643.31 3419.21 2815.21Z" fill="white"/>
<path d="M2957.52 3072.64C2920.62 3080.74 2886.42 3092.44 2846.82 3087.04C2878.32 3067.24 2919.72 3064.54 2956.62 3051.04C3161.82 2973.64 3193.32 2754.04 3305.82 2603.74C3162.72 2699.14 3043.92 2829.64 2909.82 2952.04C2816.22 3037.54 2700.12 3073.54 2579.52 3098.74C2608.32 3109.54 2646.12 3106.84 2677.62 3114.94C2894.52 3168.94 3133.92 3253.54 3364.32 3177.04C3512.82 3127.54 3667.62 3011.44 3743.22 2864.74C3544.32 3088.84 3221.22 3016.84 2957.52 3072.64Z" fill="white"/>
<path d="M2097.11 0C1278.11 0 612.105 666 612.105 1485C612.105 2304 1278.11 2970 2097.11 2970C2916.11 2970 3582.11 2304 3582.11 1485C3582.11 666 2916.11 0 2097.11 0ZM2097.11 1768.5C1940.51 1768.5 1813.61 1641.6 1813.61 1485C1813.61 1328.4 1940.51 1201.5 2097.11 1201.5C2253.71 1201.5 2380.61 1328.4 2380.61 1485C2380.61 1641.6 2253.71 1768.5 2097.11 1768.5ZM2310.41 1246.5C2258.21 1199.7 2190.71 1170 2116.01 1165.5V922.5C2257.31 927 2386.01 983.7 2482.31 1074.6L2310.41 1246.5ZM2079.11 1165.5C2004.41 1170 1936.91 1199.7 1884.71 1246.5L1712.81 1074.6C1809.11 983.7 1937.81 927 2079.11 922.5V1165.5ZM1859.51 1272.6C1812.71 1324.8 1783.01 1392.3 1778.51 1467H1535.51C1540.01 1325.7 1596.71 1197 1687.61 1100.7L1859.51 1272.6ZM1778.51 1503C1783.01 1577.7 1812.71 1645.2 1859.51 1697.4L1687.61 1869.3C1596.71 1773 1540.01 1644.3 1535.51 1503H1778.51ZM1884.71 1723.5C1936.91 1770.3 2004.41 1800 2079.11 1804.5V2047.5C1937.81 2043 1809.11 1986.3 1712.81 1895.4L1884.71 1723.5ZM2115.11 1803.6C2189.81 1799.1 2257.31 1769.4 2309.51 1722.6L2481.41 1894.5C2385.11 1985.4 2256.41 2042.1 2115.11 2046.6V1803.6ZM2335.61 1697.4C2382.41 1645.2 2412.11 1577.7 2416.61 1503H2659.61C2655.11 1644.3 2598.41 1773 2507.51 1869.3L2335.61 1697.4ZM2416.61 1467C2412.11 1392.3 2382.41 1324.8 2335.61 1272.6L2507.51 1100.7C2598.41 1197 2655.11 1325.7 2659.61 1467H2416.61ZM2507.51 1049.4C2404.01 952.2 2267.21 891 2115.11 886.5V616.5C2341.01 621 2546.21 712.8 2698.31 858.6L2507.51 1049.4ZM2079.11 886.5C1927.91 891 1790.21 952.2 1686.71 1049.4L1495.91 858.6C1648.01 712.8 1853.21 621 2079.11 616.5V886.5ZM1661.51 1074.6C1564.31 1178.1 1503.11 1314.9 1498.61 1467H1228.61C1233.11 1241.1 1324.91 1035.9 1470.71 883.8L1661.51 1074.6ZM1499.51 1503C1504.01 1654.2 1565.21 1791.9 1662.41 1895.4L1470.71 2086.2C1324.91 1934.1 1233.11 1728.9 1228.61 1503H1499.51ZM1687.61 1920.6C1791.11 2017.8 1927.91 2079 2080.01 2083.5V2353.5C1854.11 2349 1648.91 2257.2 1496.81 2111.4L1687.61 1920.6ZM2115.11 2082.6C2266.31 2078.1 2404.01 2016.9 2507.51 1919.7L2698.31 2110.5C2546.21 2256.3 2341.01 2348.1 2115.11 2352.6V2082.6ZM2532.71 1894.5C2629.91 1791 2691.11 1654.2 2695.61 1502.1H2965.61C2961.11 1728 2869.31 1933.2 2723.51 2085.3L2532.71 1894.5ZM2695.61 1467C2691.11 1315.8 2629.91 1178.1 2532.71 1074.6L2723.51 883.8C2869.31 1035.9 2961.11 1241.1 2965.61 1467H2695.61ZM2723.51 833.4C2565.11 681.3 2350.91 585.9 2115.11 581.4V342C2416.61 346.5 2690.21 468.9 2891.81 664.2L2723.51 833.4ZM2079.11 580.5C1843.31 585 1629.11 680.4 1470.71 832.5L1302.41 664.2C1504.01 468.9 1777.61 346.5 2079.11 342V580.5ZM1445.51 858.6C1293.41 1017 1198.01 1231.2 1193.51 1467H955.006C959.506 1165.5 1081.91 891.9 1277.21 690.3L1445.51 858.6ZM1193.51 1503C1198.01 1738.8 1293.41 1953 1445.51 2111.4L1277.21 2279.7C1081.91 2078.1 959.506 1804.5 955.006 1503H1193.51ZM1470.71 2136.6C1629.11 2288.7 1843.31 2384.1 2079.11 2388.6V2627.1C1777.61 2622.6 1504.01 2500.2 1302.41 2304.9L1470.71 2136.6ZM2115.11 2389.5C2350.91 2385 2565.11 2289.6 2723.51 2137.5L2891.81 2305.8C2690.21 2501.1 2416.61 2623.5 2115.11 2628V2389.5ZM2749.61 2111.4C2901.71 1953 2997.11 1738.8 3001.61 1503H3240.11C3235.61 1804.5 3113.21 2078.1 2917.91 2279.7L2749.61 2111.4ZM3001.61 1467C2997.11 1231.2 2901.71 1017 2749.61 858.6L2917.91 690.3C3113.21 891.9 3235.61 1165.5 3240.11 1467H3001.61ZM2917.91 639C2709.11 436.5 2427.41 310.5 2115.11 306V36C2501.21 40.5 2851.31 197.1 3108.71 448.2L2917.91 639ZM2079.11 306C1767.71 310.5 1485.11 436.5 1276.31 639L1086.41 448.2C1343.81 197.1 1693.91 40.5 2080.01 36V306H2079.11ZM1251.11 664.2C1048.61 873 922.605 1154.7 918.105 1467H648.105C652.605 1080.9 809.205 730.8 1060.31 473.4L1251.11 664.2ZM919.006 1503C923.506 1814.4 1049.51 2097 1252.01 2305.8L1060.31 2495.7C809.205 2239.2 653.506 1889.1 649.006 1503H919.006ZM1277.21 2331C1486.01 2533.5 1767.71 2659.5 2080.01 2664V2934C1693.91 2929.5 1343.81 2772.9 1086.41 2521.8L1277.21 2331ZM2115.11 2664C2426.51 2659.5 2709.11 2533.5 2917.91 2331L3108.71 2521.8C2851.31 2772.9 2501.21 2929.5 2115.11 2934V2664ZM2943.11 2304.9C3145.61 2096.1 3271.61 1814.4 3276.11 1502.1H3546.11C3541.61 1888.2 3385.01 2238.3 3133.91 2495.7L2943.11 2304.9ZM3276.11 1467C3271.61 1155.6 3145.61 873 2943.11 664.2L3133.91 473.4C3385.01 730.8 3541.61 1080.9 3546.11 1467H3276.11Z" fill="white"/>
<path d="M2182.62 1141.17L2173.62 1142.07V1152.87L2182.62 1151.97V1141.17Z" fill="white"/>
<path d="M2171.82 1126.76H2160.12V1135.76H2171.82V1126.76Z" fill="white"/>
<path d="M2138.52 1124.09L2149.32 1125.89L2150.22 1116.89L2139.42 1115.09L2138.52 1124.09Z" fill="white"/>
<path d="M2129.52 1120.49L2119.62 1119.59L2120.52 1110.59L2131.32 1111.49L2129.52 1120.49Z" fill="white"/>
<path d="M2054.82 1108.76H2043.12V1117.76H2054.82V1108.76Z" fill="white"/>
<path d="M2017.02 1126.76L2027.82 1128.56L2028.72 1119.56L2018.82 1117.76L2017.02 1126.76Z" fill="white"/>
<path d="M2018.81 1141.19L2006.21 1137.59L2008.91 1128.59L2020.61 1132.19L2018.81 1141.19Z" fill="white"/>
<path d="M1997.22 1151.97L1995.42 1142.97L2004.42 1141.17L2006.22 1150.17L1997.22 1151.97Z" fill="white"/>
<path d="M822.719 2083.47V2103.27H831.719L829.92 2080.77L818.219 2076.27V2068.17H811.02V2083.47H822.719Z" fill="white"/>
<path d="M885.709 2138.34L908.209 2149.14L915.409 2169.84L926.209 2177.94L936.109 2200.44L930.709 2211.24L913.609 2195.94L901.909 2178.84L895.609 2165.34L885.709 2138.34Z" fill="white"/>
<path d="M1263.71 2605.49L1271.81 2625.29L1261.01 2631.59L1254.71 2622.59L1240.31 2618.09L1238.51 2604.59L1226.81 2586.59L1244.81 2589.29L1263.71 2605.49Z" fill="white"/>
<path d="M2051.22 1239.3H2035.02L2032.32 1206L2041.32 1199.7V1182.6H1989.12L1987.32 1165.5L1994.52 1161L1982.82 1156.5L1973.82 1168.2L1971.12 1181.7L1955.82 1184.4V1191.6H1945.02V1211.4L1902.72 1246.5L1819.02 1243.8C1812.72 1257.3 1798.32 1242 1798.32 1242C1795.62 1233 1774.02 1242 1774.02 1242C1774.02 1259.1 1745.22 1234.8 1745.22 1234.8L1693.02 1197C1663.32 1170 1618.32 1204.2 1616.52 1212.3C1618.32 1233.9 1582.32 1216.8 1582.32 1216.8C1582.32 1216.8 1552.62 1207.8 1548.12 1219.5C1543.62 1231.2 1523.82 1228.5 1523.82 1228.5L1521.12 1234.8L1505.82 1237.5L1503.12 1246.5L1485.12 1249.2L1530.12 1247.4C1541.82 1245.6 1525.62 1273.5 1518.42 1271.7L1497.72 1273.5L1490.52 1280.7H1470.72L1461.72 1293.3L1432.92 1291.5C1432.92 1291.5 1416.72 1305 1417.62 1309.5C1419.42 1314 1414.92 1327.5 1410.42 1327.5C1405.92 1327.5 1396.92 1341 1399.62 1345.5C1402.32 1350 1390.62 1365.3 1390.62 1365.3L1387.92 1380.6L1378.92 1383.3V1424.7L1360.92 1437.3V1455.3L1333.92 1484.1L1336.62 1508.4L1314.12 1532.7L1316.82 1557L1303.32 1561.5L1300.62 1572.3L1294.32 1603.8L1309.62 1605.6C1316.82 1602.9 1315.92 1625.4 1309.62 1628.1C1303.32 1630.8 1287.12 1637.1 1296.12 1643.4C1305.12 1649.7 1271.82 1647.9 1271.82 1638.9C1271.82 1629.9 1253.82 1621.8 1249.32 1625.4C1244.82 1628.1 1237.62 1611.9 1237.62 1611.9C1221.42 1594.8 1170.12 1613.7 1170.12 1613.7L1162.92 1638C1146.72 1640.7 1135.92 1668.6 1135.92 1668.6C1122.42 1673.1 1111.62 1690.2 1116.12 1694.7C1120.62 1699.2 1108.92 1701 1108.92 1701V1734.3L1101.72 1745.1L1103.52 1781.1C1112.52 1781.1 1110.72 1798.2 1110.72 1798.2C1095.42 1800 1099.02 1819.8 1099.02 1819.8L1067.52 1830.6L1061.22 1839.6L1022.52 1837.8L1011.72 1848.6L1000.92 1837.8H926.216L923.516 1830.6L908.216 1827.9L906.416 1810.8L883.916 1812.6L879.416 1821.6L855.116 1823.4C856.916 1838.7 830.816 1861.2 828.116 1854.9C825.416 1848.6 808.316 1832.4 816.416 1828.8C823.616 1826.1 843.416 1822.5 843.416 1822.5V1811.7L787.616 1809.9L781.316 1818.9L758.816 1820.7V1845L748.016 1847.7C740.816 1852.2 749.816 1869.3 749.816 1869.3C760.616 1880.1 748.016 1896.3 748.016 1896.3C739.016 1905.3 755.216 1922.4 755.216 1922.4C766.916 1925.1 748.016 1934.1 748.016 1934.1C750.716 1949.4 759.716 1953.9 759.716 1953.9C750.716 1969.2 766.016 1976.4 766.016 1976.4L767.816 2002.5L778.616 2008.8V2025.9L784.916 2036.7H809.216L807.416 1998.9C786.716 1974.6 825.416 1968.3 827.216 1977.3C829.016 1986.3 845.216 1990.8 845.216 1990.8C847.916 2013.3 874.016 2026.8 881.216 2004.3C888.416 1981.8 894.716 1995.3 899.216 2006.1C903.716 2016.9 932.516 2043 932.516 2043H955.016L957.716 2064.6C982.916 2062.8 991.016 2066.4 1000.92 2100.6C1011.72 2135.7 1039.62 2144.7 1039.62 2144.7L1060.32 2142.9C1060.32 2124.9 1081.02 2145.6 1081.02 2155.5C1081.02 2164.5 1121.52 2199.6 1121.52 2199.6L1162.02 2208.6L1199.82 2239.2L1228.62 2236.5H1240.32C1247.52 2210.4 1283.52 2238.3 1287.12 2247.3C1289.82 2256.3 1314.12 2271.6 1316.82 2264.4C1319.52 2257.2 1336.62 2261.7 1339.32 2284.2C1342.02 2306.7 1352.82 2302.2 1352.82 2302.2L1438.32 2300.4L1468.02 2274.3L1544.52 2272.5C1583.22 2270.7 1559.82 2217.6 1551.72 2217.6C1538.22 2206.8 1556.22 2162.7 1556.22 2162.7L1447.32 2061C1422.12 2061 1444.62 2024.1 1444.62 2024.1C1464.42 2011.5 1440.12 1992.6 1440.12 1992.6C1442.82 1974.6 1429.32 1953 1429.32 1953C1402.32 1935 1409.52 1899.9 1409.52 1899.9V1875.6C1387.02 1854 1418.52 1851.3 1418.52 1851.3C1429.32 1833.3 1411.32 1819.8 1411.32 1819.8L1409.52 1800L1385.22 1797.3L1382.52 1726.2L1328.52 1648.8C1317.72 1646.1 1325.82 1627.2 1325.82 1627.2C1339.32 1620 1323.12 1601.1 1323.12 1601.1L1321.32 1567.8L1352.82 1565.1L1360.02 1553.4H1375.32L1373.52 1513.8C1380.72 1494 1398.72 1504.8 1398.72 1504.8L1419.42 1506.6L1431.12 1484.1L1433.82 1466.1L1417.62 1464.3C1399.62 1453.5 1408.62 1413.9 1408.62 1413.9C1437.42 1371.6 1469.82 1395.9 1469.82 1395.9L1490.52 1394.1C1522.02 1415.7 1493.22 1454.4 1493.22 1454.4C1486.92 1463.4 1490.52 1492.2 1490.52 1492.2L1497.72 1540.8L1477.92 1557.9C1461.72 1566.9 1461.72 1588.5 1479.72 1593C1491.42 1594.8 1486.92 1623.6 1468.92 1603.8C1441.92 1603.8 1484.22 1628.1 1471.62 1621.8C1498.62 1635.3 1492.32 1610.1 1492.32 1610.1L1528.32 1581.3C1541.82 1570.5 1566.12 1603.8 1566.12 1608.3C1566.12 1612.8 1625.52 1610.1 1625.52 1610.1C1641.72 1620.9 1648.02 1647.9 1648.02 1647.9C1664.22 1626.3 1699.32 1646.1 1673.22 1658.7C1697.52 1674 1697.52 1687.5 1697.52 1687.5C1717.32 1681.2 1717.32 1696.5 1717.32 1701C1717.32 1705.5 1723.62 1678.5 1723.62 1678.5C1701.12 1661.4 1753.32 1656 1738.92 1685.7L1729.92 1699.2L1745.22 1710.9L1747.02 1746C1780.32 1743.3 1771.32 1701.9 1771.32 1701.9L1786.62 1699.2C1786.62 1685.7 1797.42 1692.9 1797.42 1692.9C1786.62 1641.6 1821.72 1632.6 1821.72 1632.6C1841.52 1628.1 1842.42 1586.7 1842.42 1586.7C1828.92 1580.4 1836.12 1559.7 1851.42 1577.7C1866.72 1595.7 1842.42 1540.8 1842.42 1540.8L1830.72 1530L1814.52 1528.2L1812.72 1511.1H1785.72L1781.22 1532.7L1771.32 1537.2L1768.62 1530.9L1764.12 1548H1737.12L1735.32 1530L1751.52 1525.5L1757.82 1516.5L1762.32 1492.2H1782.12L1807.32 1485C1809.12 1458.9 1822.62 1465.2 1822.62 1465.2L1831.62 1472.4L1845.12 1483.2L1846.92 1492.2L1837.92 1496.7L1836.12 1509.3L1840.62 1526.4H1852.32C1856.82 1502.1 1888.32 1502.1 1897.32 1517.4L1906.32 1495.8C1885.62 1485 1906.32 1468.8 1911.72 1476C1918.02 1483.2 1931.52 1456.2 1931.52 1456.2C1931.52 1456.2 1942.32 1469.7 1931.52 1451.7C1920.72 1433.7 1938.72 1424.7 1938.72 1424.7C1936.02 1406.7 1958.52 1409.4 1958.52 1409.4L1960.32 1385.1L1939.62 1383.3C1935.12 1404.9 1917.12 1386 1926.12 1381.5C1935.12 1377 1944.12 1368 1944.12 1368V1352.7L1953.12 1350L1954.92 1334.7H1977.42L1997.22 1325.7L2001.72 1318.5L2022.42 1316.7L2052.12 1289.7L2049.42 1278C2031.42 1278 2049.42 1264.5 2049.42 1264.5L2051.22 1239.3Z" fill="white"/>
<path d="M1448.22 1539.87L1421.22 1537.17L1423.02 1547.97H1430.22C1441.92 1569.57 1432.02 1620.87 1432.02 1620.87C1432.02 1620.87 1414.02 1622.67 1411.32 1613.67C1408.62 1604.67 1400.52 1633.47 1406.82 1637.97C1413.12 1642.47 1433.82 1637.97 1435.62 1655.07C1437.42 1672.17 1449.12 1644.27 1449.12 1644.27L1448.22 1539.87Z" fill="white"/>
<path d="M1421.21 1663.14V1699.14L1444.61 1731.54L1453.61 1709.94L1457.21 1696.44L1446.41 1691.94L1448.21 1669.44L1457.21 1667.64L1458.11 1656.84L1435.61 1672.14L1421.21 1663.14Z" fill="white"/>
<path d="M1459.91 1764.89V1749.59L1449.11 1751.39L1448.21 1763.09L1459.91 1764.89Z" fill="white"/>
<path d="M1446.41 1837.8V1827L1433.81 1828.8V1839.6L1446.41 1837.8Z" fill="white"/>
<path d="M1464.42 1790.94C1468.02 1790.94 1470.72 1788.24 1470.72 1784.64C1470.72 1781.04 1468.02 1778.34 1464.42 1778.34C1460.82 1778.34 1458.12 1781.04 1458.12 1784.64C1458.12 1788.24 1460.82 1790.94 1464.42 1790.94Z" fill="white"/>
<path d="M1474.32 1822.44C1477.8 1822.44 1480.62 1819.62 1480.62 1816.14C1480.62 1812.66 1477.8 1809.84 1474.32 1809.84C1470.84 1809.84 1468.02 1812.66 1468.02 1816.14C1468.02 1819.62 1470.84 1822.44 1474.32 1822.44Z" fill="white"/>
<path d="M1475.22 1648.77C1478.7 1648.77 1481.52 1645.95 1481.52 1642.47C1481.52 1638.99 1478.7 1636.17 1475.22 1636.17C1471.74 1636.17 1468.92 1638.99 1468.92 1642.47C1468.92 1645.95 1471.74 1648.77 1475.22 1648.77Z" fill="white"/>
<path d="M1954.91 1436.39H1963.91L1965.71 1446.29L1959.41 1451.69L1956.71 1459.79L1945.01 1462.49L1918.01 1488.59L1916.21 1500.29L1909.01 1511.09L1900.01 1533.59L1868.51 1535.39L1862.21 1562.39L1866.71 1585.79L1893.71 1596.59L1896.41 1581.29L1905.41 1576.79L1907.21 1561.49L1913.51 1550.69L1922.51 1539.89L1925.21 1528.19L1940.51 1519.19L1958.51 1515.59L1965.71 1506.59L1968.41 1488.59L1970.21 1475.09L1976.51 1465.19L1994.51 1457.99V1429.19H1985.51L1983.71 1418.39L1967.51 1416.59L1963.91 1424.69H1956.71L1954.91 1436.39Z" fill="white"/>
<path d="M2025.11 1521.87V1500.27L2022.41 1480.47L1999.91 1469.67L1983.71 1484.97L1981.01 1506.57V1520.07L1965.71 1522.77L1963.01 1564.17L1951.31 1568.67L1953.11 1583.97L1936.91 1588.47L1920.71 1592.97L1918.01 1612.77L1906.31 1619.97L1900.01 1637.97L1892.81 1682.07C1892.81 1682.07 1906.31 1708.17 1913.51 1695.57C1920.71 1683.87 1933.31 1682.07 1933.31 1682.07L1937.81 1671.27L1978.31 1673.07C1981.01 1655.97 2000.81 1662.27 2000.81 1670.37C2000.81 1677.57 2016.11 1672.17 2016.11 1672.17L2026.91 1655.07H2043.11L2044.91 1637.07L2052.11 1632.57V1605.57C2076.41 1598.37 2072.81 1574.97 2072.81 1574.97L2079.11 1567.77L2076.41 1556.97C2064.71 1552.47 2070.11 1541.67 2078.21 1544.37C2085.41 1547.07 2067.41 1530.87 2067.41 1530.87C2058.41 1538.07 2051.21 1521.87 2051.21 1521.87H2025.11Z" fill="white"/>
<path d="M2049.42 1705.47C2047.62 1723.47 2025.12 1729.77 2025.12 1729.77L2008.92 1725.27L1999.92 1718.07L1998.12 1696.47L2011.62 1694.67L2014.32 1703.67L2049.42 1705.47Z" fill="white"/>
<path d="M2130.41 1608.24C2134.01 1621.74 2133.11 1586.64 2139.41 1588.44C2145.71 1590.24 2141.21 1566.84 2141.21 1566.84L2114.21 1586.64C2126.81 1588.44 2128.61 1601.94 2130.41 1608.24Z" fill="white"/>
<path d="M2209.62 1529.08C2215.92 1542.58 2214.12 1562.38 2236.62 1577.68C2243.82 1583.08 2232.12 1592.98 2224.92 1588.48C2217.72 1583.98 2196.12 1550.68 2196.12 1550.68V1530.88C2200.62 1519.18 2206.92 1523.68 2209.62 1529.08Z" fill="white"/>
<path d="M2209.62 1990.79L2214.12 1995.29L2218.62 2003.39L2228.52 1986.29L2220.42 1983.59L2209.62 1990.79Z" fill="white"/>
<path d="M2388.71 1944.89L2400.41 1936.79L2395.91 1929.59L2383.31 1936.79L2388.71 1944.89Z" fill="white"/>
<path d="M2821.62 2261.64L2835.12 2267.94L2836.92 2294.04C2854.92 2312.04 2913.42 2296.74 2913.42 2292.24C2913.42 2287.74 2910.72 2236.44 2910.72 2236.44L2903.52 2229.24L2901.72 2191.44C2908.02 2171.64 2872.92 2142.84 2870.22 2149.14C2867.52 2155.44 2847.72 2150.94 2847.72 2156.34C2847.72 2162.64 2836.02 2192.34 2841.42 2203.14C2847.72 2213.94 2836.92 2213.94 2835.12 2224.74C2833.32 2233.74 2818.02 2251.74 2821.62 2261.64Z" fill="white"/>
<path d="M2788.32 2200.49C2785.62 2212.19 2774.82 2218.49 2768.52 2213.99C2762.22 2209.49 2775.72 2221.19 2779.32 2227.49C2782.02 2233.79 2791.02 2233.79 2794.62 2227.49C2797.32 2221.19 2796.42 2207.69 2799.12 2201.39C2801.82 2195.99 2790.12 2194.19 2788.32 2200.49Z" fill="white"/>
<path d="M2729.82 1922.34H2719.02V1951.14H2729.82V1922.34Z" fill="white"/>
<path d="M2873.81 1629.89C2867.51 1620.89 2903.51 1605.59 2909.81 1623.59C2916.11 1641.59 2909.81 1638.89 2903.51 1637.09C2898.11 1635.29 2882.81 1641.59 2873.81 1629.89Z" fill="white"/>
<path d="M2906.22 1426.5L2904.42 1435.5L2920.62 1438.2L2922.42 1429.2L2906.22 1426.5Z" fill="white"/>
<path d="M2863.91 1452.59L2864.81 1455.29L2873.81 1451.69L2870.21 1444.49L2868.41 1439.09L2863.91 1441.79L2853.11 1448.09L2843.21 1441.79L2838.71 1449.89L2850.41 1457.09L2853.11 1458.89L2854.91 1457.09L2863.91 1452.59Z" fill="white"/>
<path d="M2920.62 1082.65H2898.12C2898.12 1082.65 2905.32 1085.35 2884.62 1065.55C2863.92 1045.75 2850.42 1070.05 2850.42 1070.05L2826.12 1072.75V1097.05L2814.42 1101.55L2816.22 1116.85L2832.42 1115.05C2832.42 1115.05 2832.42 1133.05 2836.92 1125.85C2841.42 1118.65 2879.22 1127.65 2875.62 1145.65C2874.72 1152.85 2913.42 1172.65 2908.92 1196.95C2928.72 1199.65 2924.22 1219.45 2924.22 1219.45L2949.42 1222.15L2956.62 1206.85L2963.82 1208.65V1199.65L2947.62 1195.15L2944.92 1146.55L2934.12 1139.35L2936.82 1126.75L2925.12 1122.25L2931.42 1102.45L2920.62 1082.65Z" fill="white"/>
<path d="M2986.31 1237.47L2974.61 1235.67L2947.61 1240.17L2932.31 1268.97C2932.31 1268.97 2939.51 1273.47 2945.81 1284.27C2952.11 1295.07 2954.81 1357.17 2936.81 1367.97C2918.81 1378.77 2938.61 1372.47 2938.61 1372.47L2935.91 1405.77C2940.41 1421.07 2947.61 1412.97 2952.11 1405.77C2956.61 1398.57 2961.11 1396.77 2967.41 1388.67C2973.71 1381.47 2982.71 1367.07 2983.61 1357.17C2985.41 1346.37 2992.61 1330.17 2988.11 1325.67C2983.61 1321.17 2992.61 1299.57 2992.61 1299.57C2992.61 1299.57 2998.91 1286.97 2992.61 1275.27C2986.31 1262.67 2994.41 1249.17 2998.91 1243.77L2986.31 1237.47Z" fill="white"/>
<path d="M3004.31 1299.54L3005.21 1287.84L3014.21 1288.74L3013.31 1301.34L3004.31 1299.54Z" fill="white"/>
<path d="M3003.41 1341.84L2995.31 1337.34L2999.81 1328.34L3007.91 1332.84L3003.41 1341.84Z" fill="white"/>
<path d="M2990.82 1221.27L2984.52 1207.77C2984.52 1207.77 2984.52 1196.07 2987.22 1189.77C2989.92 1183.47 2980.92 1178.07 2976.42 1176.27C2971.92 1174.47 2973.72 1162.77 2971.92 1156.47C2970.12 1150.17 2960.22 1145.67 2960.22 1145.67C2960.22 1145.67 2957.52 1123.17 2957.52 1118.67C2957.52 1114.17 2944.02 1107.87 2948.52 1103.37C2953.02 1098.87 2955.72 1092.57 2960.22 1089.87C2964.72 1087.17 2955.72 1065.57 2962.92 1070.07C2970.12 1074.57 2970.12 1082.67 2973.72 1088.07C2976.42 1094.37 2971.92 1115.07 2980.02 1119.57C2987.22 1124.07 2978.22 1139.37 2990.82 1139.37C3002.52 1139.37 2995.32 1168.17 2995.32 1168.17C2995.32 1168.17 2992.62 1189.77 2999.82 1190.67C3007.02 1192.47 3002.52 1228.47 3002.52 1228.47L2990.82 1221.27Z" fill="white"/>
<path d="M2893.62 975.572C2898.12 981.872 2907.12 986.372 2907.12 992.672C2907.12 998.972 2904.42 1003.47 2913.42 1004.37C2922.42 1006.17 2928.72 1002.57 2931.42 1010.67C2934.12 1017.87 2934.12 1030.47 2933.22 1036.77C2931.42 1043.07 2935.02 1052.07 2942.22 1052.07C2949.42 1052.07 2951.22 1053.87 2951.22 1058.37C2951.22 1062.87 2960.22 1041.27 2960.22 1041.27C2953.02 1034.97 2946.72 1021.47 2946.72 1021.47C2946.72 1021.47 2939.52 999.872 2939.52 997.172C2939.52 994.472 2928.72 990.872 2924.22 989.972C2919.72 988.172 2912.52 974.672 2912.52 974.672L2893.62 975.572Z" fill="white"/>
<path d="M2908.02 961.144C2903.52 954.844 2899.02 950.344 2892.72 947.644C2886.42 944.944 2881.92 941.344 2876.52 941.344C2870.22 941.344 2864.82 935.044 2867.52 927.844C2870.22 920.644 2863.02 917.044 2863.02 910.744C2863.02 904.444 2867.52 904.444 2874.72 908.944C2881.92 913.444 2881.02 915.244 2886.42 922.444C2892.72 929.644 2895.42 937.744 2901.72 935.944C2908.02 934.144 2912.52 949.444 2917.92 944.944C2924.22 940.444 2922.42 955.744 2922.42 955.744L2908.02 961.144Z" fill="white"/>
<path d="M2733.42 1133.06C2741.52 1141.16 2688.42 1139.36 2688.42 1133.06C2688.42 1126.76 2692.92 1106.06 2706.42 1110.56C2719.92 1115.06 2721.72 1083.56 2721.72 1083.56C2721.72 1083.56 2710.02 1085.36 2719.92 1079.06C2730.72 1072.76 2719.92 1063.76 2715.42 1059.26C2710.92 1054.76 2706.42 1046.66 2706.42 1046.66H2727.12C2736.12 1040.36 2738.82 1011.56 2738.82 1011.56C2756.82 1017.86 2765.82 1005.26 2765.82 1005.26C2765.82 1005.26 2768.52 1014.26 2774.82 1022.36C2781.12 1029.56 2759.52 1033.16 2767.62 1037.66C2774.82 1042.16 2778.42 1055.66 2774.82 1060.16C2772.12 1064.66 2755.02 1061.96 2755.02 1055.66C2755.02 1049.36 2748.72 1062.86 2755.02 1070.96C2761.32 1078.16 2747.82 1088.96 2744.22 1088.96C2741.52 1088.96 2721.72 1091.66 2737.92 1101.56C2754.12 1110.56 2772.12 1106.06 2772.12 1106.06C2772.12 1106.06 2785.62 1104.26 2790.12 1112.36C2794.62 1119.56 2788.32 1121.36 2781.12 1121.36C2773.92 1121.36 2737.92 1118.66 2737.92 1118.66C2737.92 1118.66 2728.92 1128.56 2733.42 1133.06Z" fill="white"/>
<path d="M2637.11 1146.58C2644.31 1144.78 2662.31 1143.88 2665.91 1148.38C2668.61 1152.88 2655.11 1159.18 2655.11 1159.18L2637.11 1161.88C2631.71 1154.68 2629.91 1148.38 2637.11 1146.58Z" fill="white"/>
<path d="M2830.62 1019.67C2842.32 1013.37 2868.42 1013.37 2866.62 1004.37C2864.82 995.372 2881.92 992.672 2881.92 992.672L2886.42 1010.67L2899.92 1019.67L2901.72 1036.77C2901.72 1036.77 2906.22 1034.07 2890.02 1038.57C2873.82 1043.07 2883.72 1050.27 2883.72 1050.27L2847.72 1052.07L2843.22 1036.77L2830.62 1019.67Z" fill="white"/>
<path d="M2772.11 936.844C2781.11 936.844 2769.41 971.944 2792.81 968.344C2817.11 965.644 2794.61 979.144 2812.61 980.044C2830.61 981.844 2826.11 966.544 2832.41 955.744C2838.71 944.944 2835.11 938.644 2825.21 935.944C2814.41 933.244 2814.41 933.244 2811.71 920.644C2809.01 908.944 2796.41 905.344 2796.41 905.344L2791.91 887.344L2772.11 899.044L2752.31 925.144C2752.31 946.744 2763.11 936.844 2772.11 936.844Z" fill="white"/>
<path d="M2811.71 1065.59L2816.21 1056.59L2824.31 1060.19L2819.81 1070.09L2811.71 1065.59Z" fill="white"/>
<path d="M2805.42 1051.17H2796.42V1061.97H2805.42V1051.17Z" fill="white"/>
<path d="M2803.62 848.672L2805.42 862.172L2796.42 863.072L2794.62 849.572L2803.62 848.672Z" fill="white"/>
<path d="M2787.42 990H2778.42V997.2H2787.42V990Z" fill="white"/>
<path d="M2754.11 989.986L2753.21 980.986L2768.51 980.086L2769.41 989.086L2754.11 989.986Z" fill="white"/>
<path d="M2630.81 1136.66L2622.71 1133.06L2627.21 1122.26L2635.31 1125.86L2630.81 1136.66Z" fill="white"/>
<path d="M2584.02 1108.8L2583.12 1099.8L2598.42 1098L2599.32 1107L2584.02 1108.8Z" fill="white"/>
<path d="M2324.82 1106.09L2291.52 1106.99L2292.42 1115.99L2324.82 1115.09V1106.09Z" fill="white"/>
<path d="M2269.91 1118.64L2266.31 1105.14L2275.31 1103.34L2278.01 1116.84L2269.91 1118.64Z" fill="white"/>
<path d="M2263.62 1128.57L2260.92 1119.57L2265.42 1118.67L2268.12 1126.77L2263.62 1128.57Z" fill="white"/>
<path d="M2338.32 1102.46L2336.52 1113.26L2352.72 1115.06C2352.72 1115.06 2359.92 1121.36 2359.92 1125.86C2359.92 1130.36 2370.72 1134.86 2376.12 1134.86C2382.42 1134.86 2398.62 1122.26 2398.62 1122.26C2398.62 1122.26 2405.82 1100.66 2400.42 1102.46C2394.12 1104.26 2382.42 1113.26 2380.62 1104.26C2378.82 1095.26 2360.82 1099.76 2360.82 1099.76L2338.32 1102.46Z" fill="white"/>
<path d="M2413.01 1086.25C2413.01 1090.75 2410.31 1097.05 2419.31 1098.85C2428.31 1100.65 2444.51 1092.55 2446.31 1101.55C2448.11 1110.55 2448.11 1116.85 2459.81 1121.35C2471.51 1125.85 2479.61 1127.65 2488.61 1127.65C2497.61 1127.65 2517.41 1124.94 2517.41 1124.94C2517.41 1124.94 2539.01 1128.55 2542.61 1132.15C2558.81 1149.25 2569.61 1153.75 2574.11 1145.65C2578.61 1138.45 2572.31 1121.35 2571.41 1115.05C2569.61 1108.75 2548.91 1079.95 2541.71 1086.25C2534.51 1092.55 2532.71 1086.25 2519.21 1090.75C2505.71 1095.25 2476.91 1092.55 2476.01 1086.25C2474.21 1079.95 2453.51 1077.24 2453.51 1070.94C2453.51 1064.64 2438.21 1057.44 2440.01 1066.44C2441.81 1075.44 2429.21 1079.95 2426.51 1077.25C2422.01 1073.65 2413.01 1086.25 2413.01 1086.25Z" fill="white"/>
<path d="M2756.81 891.872L2767.61 858.572C2752.31 855.872 2755.91 838.772 2755.91 838.772C2754.11 825.272 2733.41 809.972 2726.21 814.472C2719.01 818.972 2721.71 782.972 2721.71 782.972C2721.71 782.972 2735.21 773.972 2741.51 778.472C2747.81 782.972 2690.21 702.872 2678.51 710.072C2666.81 717.272 2639.81 702.871 2640.71 688.471C2642.51 674.971 2586.71 629.071 2586.71 629.071C2586.71 629.071 2568.71 617.372 2566.01 626.372C2563.31 635.372 2557.01 641.672 2566.01 646.172C2575.01 650.672 2573.21 638.972 2584.01 648.872C2594.81 659.672 2613.71 673.172 2606.51 682.172C2599.31 691.172 2590.31 694.772 2590.31 694.772L2601.11 707.372H2617.31L2620.01 733.471C2620.01 733.471 2638.01 742.472 2642.51 753.272C2647.01 764.072 2647.01 770.372 2642.51 775.772C2638.01 782.072 2629.01 792.872 2630.81 802.772C2632.61 813.572 2644.31 818.072 2644.31 818.072L2656.01 819.872L2665.01 824.372V844.172C2676.71 841.472 2696.51 857.672 2694.71 868.472C2692.91 879.272 2697.41 872.972 2712.71 883.772C2728.01 894.572 2723.51 896.372 2733.41 903.572C2743.31 909.872 2752.31 905.372 2756.81 891.872Z" fill="white"/>
<path d="M2510.22 684.886C2508.42 678.586 2505.72 657.886 2514.72 658.786C2523.72 660.586 2517.42 658.786 2528.22 663.286C2539.02 667.786 2539.92 656.086 2539.92 656.086H2556.12L2576.82 673.186L2574.12 686.686L2558.82 688.486C2551.62 676.786 2536.32 681.286 2539.02 691.186C2541.72 701.986 2531.82 721.786 2525.52 722.686C2519.22 724.486 2500.32 724.486 2501.22 715.486C2503.92 706.486 2510.22 684.886 2510.22 684.886Z" fill="white"/>
<path d="M2498.52 644.403V632.703C2498.52 632.703 2496.72 621.003 2489.52 621.003C2482.32 621.003 2468.82 612.003 2471.52 605.703C2474.22 599.403 2446.32 593.103 2446.32 593.103C2446.32 593.103 2421.12 568.803 2430.12 571.503C2439.12 574.203 2434.62 560.703 2434.62 560.703C2434.62 560.703 2416.62 563.403 2412.12 562.503C2407.62 560.703 2409.42 547.203 2409.42 547.203C2409.42 547.203 2391.42 542.703 2391.42 547.203C2391.42 551.703 2397.72 551.703 2400.42 560.703C2403.12 569.703 2402.22 585.003 2415.72 587.703C2429.22 590.403 2431.92 594.003 2433.72 600.303C2435.52 606.603 2451.72 607.503 2451.72 607.503L2463.42 613.803L2498.52 644.403Z" fill="white"/>
<path d="M2336.51 489.558L2332.01 476.958L2320.31 474.258V487.758L2336.51 489.558Z" fill="white"/>
<path d="M2332.01 425.698C2316.71 413.998 2352.71 434.698 2352.71 434.698C2364.41 434.698 2372.51 443.698 2372.51 448.198C2372.51 452.698 2388.71 450.898 2388.71 450.898L2390.51 440.098L2378.81 424.798L2368.01 417.598C2368.01 417.598 2351.81 415.798 2351.81 411.298C2351.81 407.698 2338.31 430.198 2332.01 425.698Z" fill="white"/>
<path d="M2607.42 434.672C2602.92 448.172 2601.12 466.172 2593.92 466.172C2586.72 466.172 2589.42 485.972 2589.42 485.972C2589.42 485.972 2609.22 485.972 2614.62 487.772C2620.92 489.572 2620.92 504.872 2620.92 504.872C2643.42 503.072 2652.42 533.672 2649.72 541.772C2647.02 548.972 2658.72 548.972 2658.72 548.972C2658.72 548.972 2658.72 573.272 2656.02 579.572C2653.32 585.872 2675.82 590.372 2681.22 599.372C2687.52 608.372 2678.52 638.972 2674.02 640.772C2669.52 642.572 2685.72 647.072 2684.82 654.272C2683.02 661.472 2689.32 654.272 2691.12 666.872C2692.92 678.572 2695.62 704.672 2695.62 704.672L2716.32 706.472C2719.02 686.672 2757.72 685.772 2764.02 688.472C2789.22 697.472 2809.02 737.072 2809.02 746.072C2809.02 755.072 2792.82 756.872 2792.82 756.872L2795.52 800.972C2820.72 808.172 2842.32 845.072 2838.72 851.372C2836.02 857.672 2856.72 855.872 2856.72 855.872C2859.42 828.872 2885.52 837.872 2886.42 846.872C2888.22 855.872 2892.72 875.672 2892.72 875.672L2899.92 889.172L2910.72 899.972L2926.92 898.172L2931.42 907.172L2951.22 909.872C2951.22 909.872 2967.42 927.872 2969.22 932.372C2971.02 936.872 2993.52 935.072 2998.92 936.872C3005.22 938.672 3014.22 943.172 3015.12 950.372C3016.92 957.572 3025.92 970.172 3025.92 970.172C3025.92 970.172 3043.92 974.672 3045.72 980.972C3047.52 987.272 3054.72 1000.77 3054.72 1000.77L3070.02 1013.37L3071.82 1026.87L3088.02 1028.67L3092.52 1046.67L3119.52 1044.87L3134.82 1034.07C3154.62 1023.27 3168.12 1009.77 3169.02 1003.47C3170.82 997.172 3173.52 974.672 3188.82 979.172C3204.12 983.672 3193.32 945.872 3193.32 945.872C3193.32 945.872 3172.62 930.572 3173.52 923.372C3175.32 916.172 3152.82 900.872 3153.72 894.572C3155.52 888.272 3133.92 876.572 3135.72 870.272C3137.52 863.972 3124.92 847.772 3124.92 847.772L3102.42 826.172L3099.72 812.672L3081.72 810.872L3045.72 766.772L3047.52 754.172L3036.72 752.372V735.272L3025.92 728.972L3009.72 727.172L2976.42 691.172L2973.72 674.072H2957.52L2960.22 642.572C2971.02 629.072 2964.72 602.972 2964.72 602.972C2964.72 602.972 2944.02 613.772 2933.22 609.272C2922.42 604.772 2937.72 593.972 2937.72 593.972V582.272L2928.72 573.272C2928.72 573.272 2903.52 575.972 2901.72 571.472C2899.92 566.972 2895.42 547.172 2895.42 547.172L2893.62 521.072L2882.82 516.572L2881.02 507.572L2864.82 509.372V491.372L2855.82 488.672L2846.82 484.172L2845.02 466.172L2811.72 464.372L2800.92 449.072L2789.22 431.072L2751.42 428.372L2742.42 419.372L2727.12 416.672L2716.32 412.172L2711.82 419.372L2683.02 421.172L2681.22 430.172C2668.62 436.472 2609.22 430.172 2607.42 434.672Z" fill="white"/>
<path d="M2764.92 395.048C2762.22 383.348 2794.62 372.548 2802.72 381.548C2809.92 390.548 2831.52 392.348 2834.22 437.348C2835.12 453.548 2807.22 420.248 2807.22 420.248L2784.72 413.048C2772.12 410.348 2765.82 403.148 2764.92 395.048Z" fill="white"/>
<path d="M2325.72 414L2317.62 410.4L2323.92 396L2332.02 400.5L2325.72 414Z" fill="white"/>
<path d="M2248.32 264.6L2228.52 244.8V227.7L2222.22 221.4L2215.92 199.8L2196.12 193.5L2176.32 200.7L2155.62 214.2L2133.12 216.9L2121.42 230.4L2169.12 234.9L2178.12 250.2L2212.32 252.9L2234.82 275.4C2255.52 284.4 2260.02 275.4 2248.32 264.6Z" fill="white"/>
<path d="M2245.62 189.881C2242.02 176.381 2223.12 206.981 2242.92 212.381C2262.72 218.681 2281.62 212.381 2281.62 212.381L2286.12 203.381L2360.82 205.181C2367.12 198.881 2369.82 189.881 2369.82 189.881C2369.82 189.881 2387.82 183.581 2395.02 187.181C2402.22 189.881 2396.82 165.581 2388.72 169.181C2381.52 171.881 2366.22 170.981 2366.22 170.981H2339.22C2337.42 160.181 2314.02 164.681 2312.22 170.981C2311.32 176.381 2302.32 178.181 2302.32 178.181L2268.12 180.881C2264.52 189.881 2247.42 196.181 2245.62 189.881Z" fill="white"/>
<path d="M2097.11 446.375C2120.51 453.575 2128.61 448.175 2130.41 441.875C2132.21 435.575 2133.11 434.675 2142.11 432.875C2151.11 431.075 2140.31 413.075 2131.31 414.875C2122.31 416.675 2113.31 412.175 2111.51 404.075C2109.71 396.875 2095.31 377.075 2093.51 392.375C2091.71 407.675 2082.71 407.675 2084.51 418.475C2087.21 428.375 2091.71 444.575 2097.11 446.375Z" fill="white"/>
<path d="M1925.21 463.47C1924.31 458.07 1954.91 457.17 1959.41 461.67C1963.91 466.17 1961.21 474.27 1974.71 474.27C1988.21 474.27 1981.91 483.27 1981.01 487.77C1979.21 492.27 1964.81 490.47 1963.01 485.97C1961.21 481.47 1938.71 479.67 1938.71 479.67C1938.71 479.67 1927.01 470.67 1925.21 463.47Z" fill="white"/>
<path d="M2418.42 156.572L2422.02 160.172L2424.72 157.472L2440.02 144.872L2433.72 137.672L2422.02 147.572L2414.82 139.472L2408.52 146.672L2418.42 156.572Z" fill="white"/>
<path d="M2351.82 121.472L2353.62 119.672L2370.72 108.872L2365.32 101.672L2351.82 110.672L2341.92 104.372L2337.42 112.472L2349.12 119.672L2351.82 121.472Z" fill="white"/>
<path d="M2297.81 431.072L2307.71 446.372L2314.91 440.972L2305.01 424.772L2303.21 422.972H2301.41L2286.11 421.172L2285.21 430.172L2297.81 431.072Z" fill="white"/>
<path d="M1808.22 846L1810.02 863.1H1832.52C1841.52 863.1 1825.32 852.3 1825.32 852.3C1825.32 852.3 1807.32 854.1 1808.22 846Z" fill="white"/>
<path d="M1837.02 846.872L1842.42 839.672L1851.42 846.872L1846.02 854.072L1837.02 846.872Z" fill="white"/>
<path d="M1564.31 562.472L1570.61 556.172L1579.61 565.172L1573.31 571.472L1564.31 562.472Z" fill="white"/>
<path d="M1986.42 2525.37L1992.72 2531.67L1999.92 2524.47L2004.42 2519.97L1999.02 2516.37L1983.72 2509.17L1980.12 2517.27L1989.12 2521.77L1986.42 2525.37Z" fill="white"/>
<path d="M1868.52 2415.56L1879.32 2422.76L1884.72 2415.56L1878.42 2411.06L1882.92 2407.46L1877.52 2400.26L1868.52 2408.36L1864.02 2411.96L1868.52 2415.56Z" fill="white"/>
<path d="M2996.21 2119.47C2994.41 2111.37 2985.41 2108.67 2984.51 2108.67L2981.81 2117.67C2982.71 2117.67 2983.61 2118.57 2984.51 2119.47L2986.31 2127.57C2985.41 2128.47 2984.51 2129.37 2984.51 2130.27L2990.81 2136.57C2995.31 2129.37 2997.11 2124.87 2996.21 2119.47Z" fill="white"/>
<path d="M3009.71 2090.66L2995.31 2089.76L2996.21 2076.26L3010.61 2078.06L3009.71 2090.66Z" fill="white"/>
<path d="M3356.22 1972.79C3362.52 1969.19 3370.62 1961.09 3369.72 1978.19C3368.82 1995.29 3361.62 1989.89 3356.22 1995.29C3350.82 2000.69 3347.22 1978.19 3356.22 1972.79Z" fill="white"/>
<path d="M3432.72 1907.96V1906.16C3432.72 1903.46 3431.82 1899.86 3430.02 1896.26L3421.92 1900.76C3422.82 1902.56 3422.82 1905.26 3423.72 1907.06C3423.72 1909.76 3424.62 1912.46 3426.42 1914.26C3428.22 1915.16 3430.02 1916.06 3432.72 1915.16L3430.92 1906.16C3430.92 1907.06 3431.82 1907.06 3432.72 1907.96Z" fill="white"/>
<path d="M3412.92 1915.2C3415.62 1924.2 3418.32 1933.2 3418.32 1934.1L3426.42 1930.5C3426.42 1930.5 3422.82 1921.5 3421.02 1912.5L3412.92 1915.2Z" fill="white"/>
<path d="M3379.61 1951.16L3370.61 1950.26C3369.71 1957.46 3371.51 1966.46 3378.71 1967.36L3380.51 1958.36C3380.51 1958.36 3379.61 1954.76 3379.61 1951.16Z" fill="white"/>
<path d="M3340.92 1770.28C3340.02 1767.58 3339.12 1764.88 3336.42 1763.98C3330.12 1761.28 3318.42 1765.78 3313.02 1769.38L3318.42 1776.58C3323.82 1772.98 3331.92 1771.18 3332.82 1772.08C3332.82 1772.08 3332.82 1772.08 3332.82 1771.18L3340.92 1770.28Z" fill="white"/>
<path d="M2926.02 1285.15C2919.72 1291.45 2906.22 1294.15 2906.22 1294.15L2901.72 1311.25L2894.52 1317.55C2894.52 1317.55 2896.32 1322.05 2894.52 1332.85C2892.72 1343.65 2879.22 1349.95 2879.22 1349.95L2872.92 1357.15C2872.92 1357.15 2836.92 1358.95 2832.42 1357.15C2818.92 1350.85 2827.92 1332.85 2836.92 1334.65C2845.92 1336.45 2835.12 1308.55 2835.12 1308.55L2846.82 1306.75C2846.82 1306.75 2848.62 1279.75 2853.12 1279.75C2857.62 1279.75 2851.32 1270.75 2845.92 1266.25C2839.62 1261.75 2832.42 1246.45 2826.12 1248.25C2819.82 1250.05 2796.42 1248.25 2796.42 1248.25L2791.92 1257.25L2775.72 1259.95C2775.72 1259.95 2777.52 1271.65 2773.92 1275.25C2764.92 1286.05 2730.72 1308.55 2745.12 1270.75L2749.62 1261.75V1248.25L2722.62 1246.45C2722.62 1246.45 2709.12 1241.95 2709.12 1235.65C2709.12 1229.35 2707.32 1222.15 2707.32 1222.15L2675.82 1187.05L2638.02 1182.55L2635.32 1175.35L2612.82 1172.65C2585.82 1159.15 2561.52 1170.85 2566.02 1194.25C2570.52 1216.75 2577.72 1225.75 2563.32 1225.75C2548.02 1225.75 2545.32 1214.05 2545.32 1214.05C2545.32 1214.05 2533.62 1209.55 2533.62 1215.85C2533.62 1222.15 2529.12 1233.85 2533.62 1240.15C2538.12 1246.45 2527.32 1255.45 2522.82 1250.95C2518.32 1246.45 2506.62 1232.95 2509.32 1228.45C2512.02 1223.95 2488.62 1195.15 2512.02 1190.65C2536.32 1186.15 2510.22 1172.65 2519.22 1169.05L2530.92 1162.75H2542.62L2549.82 1156.45L2530.02 1153.75L2518.32 1151.95L2495.82 1150.15C2473.32 1165.45 2468.82 1183.45 2468.82 1183.45C2457.12 1205.95 2428.32 1174.45 2439.12 1161.85C2449.92 1149.25 2405.82 1160.05 2398.62 1166.35C2391.42 1172.65 2368.92 1169.05 2368.92 1169.05C2364.42 1182.55 2343.72 1167.25 2349.12 1158.25C2355.42 1149.25 2355.42 1142.95 2355.42 1142.95L2348.22 1141.15L2339.22 1158.25C2318.52 1158.25 2312.22 1169.95 2316.72 1178.05C2321.22 1185.25 2310.42 1176.25 2307.72 1187.05C2305.02 1197.85 2309.52 1197.85 2318.52 1202.35C2327.52 1206.85 2314.02 1206.85 2320.32 1214.05C2326.62 1221.25 2344.62 1214.05 2333.82 1224.85C2323.02 1235.65 2302.32 1231.15 2302.32 1231.15C2300.52 1244.65 2272.62 1241.95 2269.02 1237.45C2266.32 1232.95 2243.82 1205.95 2243.82 1205.95L2215.02 1204.15C2212.32 1182.55 2228.52 1193.35 2234.82 1177.15C2241.12 1160.05 2243.82 1133.05 2243.82 1133.05C2243.82 1133.05 2219.52 1131.25 2218.62 1139.35C2216.82 1146.55 2202.42 1151.95 2202.42 1151.95C2202.42 1151.95 2190.72 1156.45 2195.22 1162.75C2199.72 1169.05 2186.22 1171.75 2186.22 1171.75C2186.22 1171.75 2188.92 1181.65 2184.42 1185.25C2172.72 1197.85 2142.12 1187.05 2137.62 1182.55L2119.62 1175.35L2101.62 1163.65L2080.92 1172.65L2074.62 1178.95H2052.12L2050.32 1196.95L2090.82 1201.45L2093.52 1239.25L2077.32 1233.85H2066.52L2062.02 1224.85L2053.02 1223.05V1256.35L2062.02 1263.55L2069.22 1270.75L2084.52 1272.55L2087.22 1290.55L2125.02 1292.35L2129.52 1299.55L2152.02 1301.35L2195.22 1345.45L2192.52 1358.95L2185.32 1363.45C2188.02 1374.25 2165.52 1367.95 2165.52 1367.95V1376.95L2176.32 1378.75L2187.12 1385.05L2202.42 1358.95C2218.62 1348.15 2226.72 1363.45 2227.62 1372.45C2229.42 1381.45 2220.42 1379.65 2220.42 1379.65V1401.25L2229.42 1403.95C2244.72 1421.95 2223.12 1432.75 2223.12 1432.75L2218.62 1448.05C2214.12 1461.55 2197.92 1458.85 2197.92 1458.85L2191.62 1467.85L2173.62 1472.35L2208.72 1476.85C2212.32 1464.25 2221.32 1461.55 2225.82 1467.85C2230.32 1474.15 2230.32 1484.95 2230.32 1484.95L2239.32 1486.75L2237.52 1503.85L2246.52 1506.55V1555.15L2257.32 1566.85C2275.32 1559.65 2275.32 1571.35 2266.32 1577.65C2257.32 1583.95 2263.62 1610.95 2263.62 1610.95L2256.42 1618.15V1630.75L2247.42 1637.05V1654.15C2232.12 1646.95 2214.12 1649.65 2209.62 1654.15C2196.12 1645.15 2167.32 1647.85 2167.32 1655.95C2176.32 1667.65 2156.52 1671.25 2156.52 1671.25L2145.72 1682.95C2152.92 1698.25 2138.52 1700.05 2138.52 1700.05V1728.85L2120.52 1745.95L2122.32 1785.55C2122.32 1796.35 2144.82 1797.25 2149.32 1791.85C2153.82 1785.55 2171.82 1804.45 2171.82 1804.45H2185.32L2188.02 1777.45L2179.02 1772.95V1728.85L2194.32 1711.75C2212.32 1705.45 2206.02 1751.35 2206.02 1755.85C2207.82 1772.95 2215.02 1771.15 2222.22 1767.55C2237.52 1761.25 2224.92 1784.65 2213.22 1782.85C2201.52 1781.05 2208.72 1798.15 2208.72 1798.15L2215.92 1800.85L2202.42 1811.65L2190.72 1825.15L2175.42 1820.65L2157.42 1818.85L2151.12 1808.05L2140.32 1806.25L2138.52 1827.85L2131.32 1836.85L2113.32 1854.85C2137.62 1854.85 2110.62 1871.95 2104.32 1871.95C2117.82 1876.45 2102.52 1889.95 2068.32 1879.15V1889.95L2056.62 1891.75L2067.42 1903.45L2079.12 1905.25L2074.62 1931.35C2074.62 1951.15 2025.12 1937.65 2020.62 1933.15L2018.82 1960.15L2009.82 1961.95L2011.62 1979.95L2009.82 2006.05L2026.02 2003.35V2014.15L2066.52 2015.95L2125.02 1953.85L2159.22 1946.65C2161.92 1931.35 2177.22 1949.35 2177.22 1949.35C2192.52 1947.55 2195.22 1958.35 2195.22 1958.35L2215.02 1961.05C2231.22 1965.55 2221.32 1967.35 2222.22 1973.65C2224.02 1982.65 2231.22 1979.95 2231.22 1979.95L2233.92 1960.15L2242.92 1961.95L2233.92 1951.15L2217.72 1943.95L2199.72 1936.75C2188.02 1919.65 2202.42 1923.25 2215.02 1925.05H2234.82C2234.82 1925.05 2257.32 1955.65 2257.32 1962.85C2257.32 1970.05 2268.12 1971.85 2268.12 1971.85L2281.62 1970.05L2286.12 1980.85H2299.62L2304.12 1989.85H2331.12L2332.92 1976.35L2307.72 1971.85L2305.92 1956.55L2287.92 1952.05C2281.62 1925.95 2292.42 1918.75 2299.62 1930.45L2308.62 1932.25L2305.92 1909.75L2316.72 1907.05L2314.02 1875.55L2305.02 1872.85V1862.05L2342.82 1863.85C2340.12 1844.05 2344.62 1835.05 2344.62 1835.05H2355.42L2357.22 1842.25L2403.12 1846.75L2435.52 1809.85C2433.72 1807.15 2439.12 1805.35 2435.52 1801.75C2431.02 1797.25 2424.72 1801.75 2417.52 1797.25C2410.32 1792.75 2417.52 1766.65 2415.72 1761.25C2413.92 1754.95 2440.92 1745.95 2436.42 1759.45C2431.92 1772.95 2436.42 1779.25 2436.42 1779.25C2456.22 1761.25 2472.42 1781.05 2470.62 1785.55C2468.82 1790.05 2481.42 1794.55 2488.62 1790.05C2495.82 1785.55 2504.82 1803.55 2502.12 1812.55C2499.42 1821.55 2472.42 1819.75 2470.62 1810.75C2468.82 1801.75 2464.32 1804.45 2461.62 1808.95C2458.92 1813.45 2445.42 1816.15 2437.32 1811.65C2435.52 1810.75 2435.52 1809.85 2434.62 1808.95L2402.22 1845.85H2404.02C2422.02 1856.65 2413.02 1870.15 2406.72 1872.85C2400.42 1875.55 2390.52 1875.55 2390.52 1875.55L2387.82 1881.85L2349.12 1884.55L2346.42 1899.85C2326.62 1897.15 2319.42 1917.85 2323.92 1928.65C2328.42 1939.45 2323.92 1948.45 2323.92 1948.45L2340.12 1955.65L2360.82 1949.35C2363.52 1934.05 2377.02 1931.35 2389.62 1922.35C2401.32 1913.35 2421.12 1939.45 2414.82 1951.15C2408.52 1962.85 2408.52 1968.25 2408.52 1968.25L2410.32 1981.75L2395.02 1988.05L2383.32 1994.35L2381.52 2001.55H2341.02L2333.82 2008.75L2314.02 2010.55L2307.72 2019.55L2294.22 2021.35C2294.22 2021.35 2271.72 2032.15 2280.72 2043.85C2289.72 2056.45 2242.92 2054.65 2233.02 2037.55C2230.32 2052.85 2213.22 2039.35 2213.22 2039.35L2197.02 2034.85L2195.22 2012.35C2192.52 1997.05 2163.72 1997.05 2165.52 2007.85C2167.32 2018.65 2111.52 2012.35 2111.52 2012.35L2093.52 2021.35L2077.32 2031.25L2075.52 2038.45L2048.52 2041.15L2036.82 2047.45L2032.32 2038.45H2020.62L2008.92 2055.55C1977.42 2057.35 1947.72 2075.35 1950.42 2082.55C1953.12 2089.75 1938.72 2097.85 1938.72 2097.85L1925.22 2102.35L1916.22 2115.85L1898.22 2122.15L1895.52 2153.65L1886.52 2159.95V2173.45L1875.72 2176.15V2183.35L1860.42 2185.15L1869.42 2207.65L1881.12 2213.95C1901.82 2216.65 1892.82 2242.75 1892.82 2242.75L1904.52 2244.55L1910.82 2261.65L1922.52 2285.95C1927.02 2303.95 1940.52 2299.45 1946.82 2298.55C1953.12 2296.75 1958.52 2316.55 1958.52 2316.55L2017.92 2318.35C2017.92 2318.35 2015.22 2324.65 2025.12 2327.35C2035.92 2330.05 2104.32 2333.65 2107.02 2329.15C2104.32 2315.65 2144.82 2312.05 2161.02 2324.65C2177.22 2336.35 2199.72 2329.15 2199.72 2329.15L2222.22 2356.15L2237.52 2389.45L2262.72 2396.65L2280.72 2401.15L2287.02 2427.25L2300.52 2429.05L2305.02 2446.15C2321.22 2457.85 2300.52 2483.95 2300.52 2483.95V2517.25L2312.22 2523.55L2310.42 2536.15L2330.22 2555.95L2352.72 2557.75L2409.42 2618.05L2454.42 2631.55L2461.62 2655.85L2473.32 2654.05L2482.32 2646.85L2518.32 2645.05L2536.32 2627.95L2556.12 2625.25L2722.62 2483.95L2707.32 2474.95V2441.65C2734.32 2421.85 2736.12 2386.75 2710.02 2384.05C2691.12 2381.35 2699.22 2361.55 2717.22 2357.95L2728.02 2353.45V2339.95L2762.22 2308.45V2284.15L2687.52 2222.05C2654.22 2210.35 2687.52 2137.45 2710.02 2138.35C2732.52 2140.15 2708.22 2025.85 2708.22 2025.85L2696.52 2019.55L2699.22 1982.65H2683.02L2656.02 2017.75L2648.82 2042.05C2646.12 2073.55 2553.42 2068.15 2548.92 2063.65C2544.42 2059.15 2512.92 2045.65 2512.92 2045.65C2512.92 2045.65 2488.62 2025.85 2484.12 2032.15C2479.62 2038.45 2458.92 2024.95 2458.92 2029.45C2458.92 2033.95 2439.12 2018.65 2439.12 2018.65L2409.42 2007.85L2431.92 2003.35L2427.42 1985.35L2466.12 2005.15C2470.62 2011.45 2490.42 2009.65 2490.42 2009.65L2496.72 2016.85C2496.72 2016.85 2508.42 2015.05 2516.52 2024.05C2523.72 2033.05 2563.32 2025.85 2563.32 2025.85L2574.12 2034.85L2590.32 2041.15L2637.12 2042.95L2638.92 2014.15L2647.92 2005.15L2646.12 1987.15L2656.92 1978.15V1962.85L2665.92 1960.15L2667.72 1926.85L2674.92 1925.05V1852.15L2652.42 1830.55C2650.62 1837.75 2627.22 1837.75 2627.22 1837.75C2627.22 1837.75 2620.92 1848.55 2616.42 1848.55C2611.92 1848.55 2622.72 1862.05 2619.12 1871.05C2616.42 1880.05 2603.82 1880.05 2603.82 1880.05L2581.32 1886.35L2575.02 1893.55H2550.72L2548.02 1873.75L2575.02 1866.55L2590.32 1859.35L2597.52 1844.05C2599.32 1828.75 2617.32 1830.55 2617.32 1830.55C2617.32 1830.55 2651.52 1801.75 2653.32 1788.25C2655.12 1774.75 2666.82 1736.95 2687.52 1736.95H2726.22C2741.52 1730.65 2737.02 1710.85 2737.02 1710.85L2756.82 1708.15L2759.52 1718.95C2759.52 1718.95 2786.52 1721.65 2789.22 1717.15C2791.92 1712.65 2798.22 1701.85 2805.42 1706.35C2812.62 1710.85 2836.92 1695.55 2836.92 1695.55C2838.72 1684.75 2875.62 1689.25 2875.62 1689.25L2880.12 1675.75C2880.12 1675.75 2854.92 1640.65 2850.42 1640.65C2845.92 1640.65 2821.62 1619.05 2818.92 1627.15C2794.62 1620.85 2796.42 1587.55 2796.42 1587.55L2787.42 1565.95C2787.42 1553.35 2764.92 1528.15 2760.42 1530.85C2737.92 1513.75 2754.12 1494.85 2760.42 1493.05C2766.72 1491.25 2781.12 1470.55 2781.12 1470.55L2788.32 1448.95L2813.52 1441.75L2816.22 1421.95L2802.72 1420.15C2802.72 1420.15 2818.02 1393.15 2825.22 1393.15C2832.42 1393.15 2881.92 1393.15 2886.42 1390.45C2890.92 1387.75 2899.92 1363.45 2899.92 1358.95C2899.92 1354.45 2911.62 1352.65 2916.12 1351.75C2920.62 1349.95 2931.42 1338.25 2934.12 1331.95C2942.22 1316.65 2932.32 1278.85 2926.02 1285.15Z" fill="white"/>
<path d="M2097.12 1832.34C2098.92 1830.54 2101.62 1839.54 2106.12 1837.74C2110.62 1836.84 2112.42 1845.84 2107.92 1845.84C2103.42 1845.84 2103.42 1851.24 2103.42 1853.94C2103.42 1856.64 2103.42 1862.04 2099.82 1865.64C2096.22 1869.24 2093.52 1866.54 2089.02 1864.74C2084.52 1862.04 2082.72 1862.04 2076.42 1862.04C2071.02 1862.04 2075.52 1871.04 2075.52 1871.04C2075.52 1871.04 2052.12 1870.14 2056.62 1866.54C2061.12 1862.94 2065.62 1862.04 2062.02 1859.34C2058.42 1856.64 2062.02 1854.84 2062.02 1850.34C2062.02 1845.84 2072.82 1847.64 2070.12 1844.94C2066.52 1841.34 2070.12 1828.74 2075.52 1835.94L2079.12 1827.84C2075.52 1824.24 2078.22 1823.34 2071.02 1820.64C2064.72 1817.94 2070.12 1804.44 2070.12 1804.44L2071.02 1795.44C2072.82 1783.74 2095.32 1782.84 2097.12 1792.74C2098.02 1802.64 2097.12 1809.84 2097.12 1809.84L2103.42 1812.54C2103.42 1812.54 2102.52 1819.74 2097.12 1819.74C2091.72 1819.74 2097.12 1823.34 2093.52 1826.94L2097.12 1832.34Z" fill="white"/>
<path d="M2023.31 1844.05C2026.91 1836.85 2034.11 1808.05 2043.11 1817.05C2052.11 1826.05 2057.51 1817.05 2057.51 1817.05C2057.51 1817.05 2062.01 1821.55 2059.31 1830.55C2057.51 1839.55 2054.81 1848.55 2049.41 1850.35C2044.01 1851.25 2039.51 1854.85 2032.31 1855.75C2026.91 1856.65 2023.31 1844.05 2023.31 1844.05Z" fill="white"/>
</svg>
