<svg width="610" height="610" viewBox="0 0 610 610" fill="none" xmlns="http://www.w3.org/2000/svg">
<g clip-path="url(#clip0_1109_598)">
<path d="M240.563 369.279C167.868 342.956 115.932 273.299 115.932 191.516C115.932 87.1296 200.541 2.52002 304.928 2.52002C409.314 2.52002 493.924 87.1296 493.924 191.516C493.924 273.299 441.973 342.956 369.277 369.279" stroke="white" stroke-width="5.04" stroke-linecap="round" stroke-linejoin="round"/>
<path d="M369.277 240.562C441.973 266.885 493.924 336.542 493.924 418.324C493.924 522.71 409.314 607.321 304.928 607.321C200.541 607.321 115.932 522.71 115.932 418.324C115.932 336.542 167.868 266.9 240.563 240.562" stroke="white" stroke-width="5.04" stroke-linecap="round" stroke-linejoin="round"/>
<path d="M240.563 240.574C266.887 167.879 336.543 115.942 418.326 115.942C522.712 115.942 607.322 200.552 607.322 304.938C607.322 409.325 522.712 493.935 418.326 493.935C336.543 493.935 266.887 441.983 240.563 369.288" stroke="white" stroke-width="5.04" stroke-linecap="round" stroke-linejoin="round"/>
<path d="M369.278 369.278C342.955 441.974 273.299 493.911 191.516 493.911C87.1292 493.911 2.51953 409.3 2.51953 304.914C2.51953 200.528 87.1292 115.917 191.516 115.917C273.299 115.917 342.94 167.854 369.278 240.549" stroke="white" stroke-width="5.04" stroke-linecap="round" stroke-linejoin="round"/>
</g>
<defs>
<clipPath id="clip0_1109_598">
<rect width="609.84" height="609.84" fill="white"/>
</clipPath>
</defs>
</svg>
