<svg width="600" height="597" viewBox="0 0 600 597" fill="none" xmlns="http://www.w3.org/2000/svg">
<path d="M487.479 352.852C492.428 351.614 497.052 349.609 501.264 346.986C500.793 350.612 500.351 354.237 499.792 357.834C495.992 355.652 491.838 353.943 487.479 352.852ZM351.863 140.161C350.302 138.864 347.975 139.071 346.679 140.633L207.79 307.426C206.494 308.988 206.7 311.317 208.261 312.614C209.823 313.911 212.15 313.705 213.446 312.142L352.334 145.349C353.63 143.787 353.424 141.458 351.863 140.161ZM112.379 513.034C70.2558 457.997 44.2155 382.004 44.2155 298.11C44.2155 214.245 70.255 138.244 112.379 83.1851C143.986 41.8559 184.665 12.3189 230.205 0C228.32 0.0884375 226.405 0.176877 224.52 0.265307C203.106 1.41494 181.514 3.77322 170.526 6.75062C120.685 20.2815 78.0892 57.0118 47.9557 108.304C17.7038 159.773 0 225.894 0 298.061C0 368.279 16.8494 432.751 45.658 483.599C74.5254 534.567 115.382 571.803 163.251 587.243C176.536 591.517 198.393 594.76 220.397 596.293C224.757 596.587 229.116 596.823 233.388 597C186.581 585.238 144.752 555.259 112.409 512.985L112.379 513.034ZM569.577 351.403C557.028 351.403 545.658 346.303 537.41 338.079C529.192 329.855 524.096 318.475 524.096 305.888C524.096 305.093 523.448 304.444 522.653 304.444C521.857 304.444 521.209 305.093 521.209 305.888C521.209 318.447 516.113 329.825 507.895 338.079C506.039 339.936 503.977 341.646 501.798 343.149C501.65 344.446 501.444 345.684 501.297 346.981C501.326 346.981 501.326 346.952 501.356 346.952L499.824 357.829C499.647 358.861 499.47 359.893 499.294 360.925C502.416 362.811 505.332 365.052 507.895 367.616C516.113 375.84 521.209 387.22 521.209 399.807C521.209 400.603 521.857 401.251 522.653 401.251C523.448 401.251 524.096 400.603 524.096 399.807C524.096 387.249 529.192 375.87 537.41 367.616C545.628 359.392 556.999 354.292 569.577 354.292C570.372 354.292 571.02 353.644 571.02 352.848C571.02 352.052 570.372 351.403 569.577 351.403ZM297.071 279.711L216.27 376.752C214.974 378.314 215.18 380.643 216.741 381.94C218.302 383.237 220.629 383.031 221.925 381.468L302.726 284.428C304.023 282.865 303.816 280.537 302.255 279.239C300.694 277.942 298.367 278.149 297.071 279.711ZM598.557 234.757C586.126 234.757 574.815 226.502 566.596 213.178C558.23 199.647 553.075 180.929 553.075 160.205C553.075 159.41 552.427 158.761 551.632 158.761C550.836 158.761 550.188 159.41 550.188 160.205C550.188 180.929 545.033 199.648 536.667 213.178C528.449 226.502 517.138 234.757 504.707 234.757C503.911 234.757 503.263 235.405 503.263 236.201C503.263 236.997 503.911 237.646 504.707 237.646C517.137 237.646 528.449 245.9 536.667 259.224C545.033 272.755 550.188 291.473 550.188 312.197C550.188 312.993 550.836 313.641 551.632 313.641C552.427 313.641 553.075 312.993 553.075 312.197C553.075 291.473 558.23 272.754 566.596 259.224C574.814 245.9 586.125 237.646 598.557 237.646C599.352 237.646 600 236.997 600 236.201C600 235.405 599.352 234.757 598.557 234.757ZM475.692 354.293C484.323 354.293 492.365 356.74 499.228 360.926C489.861 417.938 468.093 468.879 437.723 508.581C396.778 562.114 340.279 595.215 277.976 595.215C215.646 595.215 159.177 562.11 118.23 508.581C77.0788 454.783 51.5988 380.381 51.5988 298.162C51.5988 215.943 77.0494 141.542 118.23 87.7425C159.175 34.2091 215.673 1.10866 277.976 1.10866C340.307 1.10866 396.776 34.2129 437.723 87.7425C478.874 141.541 504.354 215.943 504.354 298.162C504.354 313.461 503.47 328.495 501.762 343.175C494.368 348.363 485.384 351.429 475.693 351.429C474.897 351.429 474.249 352.078 474.249 352.874C474.249 353.67 474.897 354.318 475.693 354.318L475.692 354.293ZM469.035 295.72C469.035 226.003 448.975 162.833 416.573 117.049C383.906 70.9145 338.66 42.3502 288.551 42.3502C238.475 42.3502 193.226 70.8851 160.529 117.049C128.126 162.829 108.067 226.005 108.067 295.72C108.067 365.434 128.127 428.606 160.529 474.391C193.196 520.525 238.442 549.089 288.551 549.089C338.627 549.089 383.876 520.554 416.573 474.391C449.005 428.61 469.035 365.434 469.035 295.72ZM355.152 209.969L326.727 244.104C325.431 245.667 325.637 247.996 327.198 249.293C328.759 250.59 331.086 250.383 332.383 248.821L360.808 214.685C362.104 213.123 361.898 210.794 360.337 209.497C358.775 208.2 356.448 208.406 355.152 209.969Z" fill="white"/>
</svg>
