<svg width="1440" height="824" viewBox="0 0 1440 824" fill="none" xmlns="http://www.w3.org/2000/svg">
<path d="M123.58 713.261C101.136 713.261 81.8182 708.716 65.625 699.625C49.5265 690.439 37.1212 677.466 28.4091 660.705C19.697 643.848 15.3409 623.915 15.3409 600.903C15.3409 578.46 19.697 558.763 28.4091 541.812C37.1212 524.862 49.3845 511.652 65.1989 502.182C81.108 492.712 99.7633 487.977 121.165 487.977C135.559 487.977 148.958 490.297 161.364 494.938C173.864 499.483 184.754 506.348 194.034 515.534C203.409 524.72 210.701 536.273 215.909 550.193C221.117 564.019 223.722 580.212 223.722 598.773V615.392H39.4886V577.892H166.761C166.761 569.18 164.867 561.462 161.08 554.739C157.292 548.015 152.036 542.759 145.312 538.972C138.684 535.089 130.966 533.148 122.159 533.148C112.973 533.148 104.83 535.278 97.7273 539.54C90.7197 543.706 85.2273 549.341 81.25 556.443C77.2727 563.451 75.2367 571.263 75.142 579.881V615.534C75.142 626.33 77.1307 635.657 81.108 643.517C85.1799 651.377 90.9091 657.438 98.2955 661.699C105.682 665.96 114.441 668.091 124.574 668.091C131.297 668.091 137.453 667.144 143.04 665.25C148.627 663.356 153.409 660.515 157.386 656.727C161.364 652.939 164.394 648.299 166.477 642.807L222.443 646.5C219.602 659.947 213.778 671.689 204.972 681.727C196.259 691.67 184.991 699.436 171.165 705.023C157.434 710.515 141.572 713.261 123.58 713.261ZM315.722 418.091V709H255.21V418.091H315.722ZM455.626 713.261C433.183 713.261 413.865 708.716 397.672 699.625C381.573 690.439 369.168 677.466 360.456 660.705C351.744 643.848 347.388 623.915 347.388 600.903C347.388 578.46 351.744 558.763 360.456 541.812C369.168 524.862 381.431 511.652 397.246 502.182C413.155 492.712 431.81 487.977 453.212 487.977C467.606 487.977 481.005 490.297 493.411 494.938C505.911 499.483 516.801 506.348 526.081 515.534C535.456 524.72 542.748 536.273 547.956 550.193C553.164 564.019 555.768 580.212 555.768 598.773V615.392H371.536V577.892H498.808C498.808 569.18 496.914 561.462 493.126 554.739C489.339 548.015 484.083 542.759 477.359 538.972C470.731 535.089 463.013 533.148 454.206 533.148C445.02 533.148 436.876 535.278 429.774 539.54C422.767 543.706 417.274 549.341 413.297 556.443C409.32 563.451 407.284 571.263 407.189 579.881V615.534C407.189 626.33 409.178 635.657 413.155 643.517C417.227 651.377 422.956 657.438 430.342 661.699C437.729 665.96 446.488 668.091 456.621 668.091C463.344 668.091 469.5 667.144 475.087 665.25C480.674 663.356 485.456 660.515 489.433 656.727C493.411 652.939 496.441 648.299 498.524 642.807L554.49 646.5C551.649 659.947 545.825 671.689 537.018 681.727C528.306 691.67 517.037 699.436 503.212 705.023C489.481 710.515 473.619 713.261 455.626 713.261ZM685.837 713.261C663.488 713.261 644.265 708.527 628.166 699.057C612.162 689.492 599.852 676.235 591.234 659.284C582.712 642.333 578.45 622.826 578.45 600.761C578.45 578.413 582.759 558.811 591.376 541.955C600.089 525.004 612.446 511.794 628.45 502.324C644.454 492.759 663.488 487.977 685.553 487.977C704.587 487.977 721.253 491.434 735.553 498.347C749.852 505.259 761.168 514.966 769.501 527.466C777.835 539.966 782.428 554.644 783.28 571.5H726.178C724.568 560.61 720.306 551.85 713.393 545.222C706.575 538.498 697.626 535.136 686.547 535.136C677.172 535.136 668.981 537.693 661.973 542.807C655.06 547.826 649.662 555.165 645.78 564.824C641.897 574.483 639.956 586.178 639.956 599.909C639.956 613.83 641.85 625.667 645.638 635.42C649.52 645.174 654.965 652.608 661.973 657.722C668.981 662.835 677.172 665.392 686.547 665.392C693.46 665.392 699.662 663.972 705.155 661.131C710.742 658.29 715.335 654.17 718.933 648.773C722.626 643.28 725.041 636.699 726.178 629.028H783.28C782.333 645.695 777.787 660.373 769.643 673.062C761.594 685.657 750.467 695.506 736.263 702.608C722.058 709.71 705.25 713.261 685.837 713.261ZM930.074 490.818V536.273H798.682V490.818H930.074ZM828.511 438.545H889.023V641.955C889.023 647.542 889.875 651.898 891.58 655.023C893.284 658.053 895.652 660.184 898.682 661.415C901.807 662.646 905.405 663.261 909.477 663.261C912.318 663.261 915.159 663.025 918 662.551C920.841 661.983 923.019 661.557 924.534 661.273L934.051 706.301C931.021 707.248 926.759 708.337 921.267 709.568C915.775 710.894 909.098 711.699 901.239 711.983C886.655 712.551 873.871 710.61 862.886 706.159C851.996 701.708 843.521 694.795 837.46 685.42C831.4 676.045 828.417 664.208 828.511 649.909V438.545ZM961.491 709V490.818H1020.16V528.886H1022.43C1026.41 515.345 1033.08 505.117 1042.46 498.205C1051.83 491.197 1062.63 487.693 1074.84 487.693C1077.87 487.693 1081.14 487.883 1084.64 488.261C1088.15 488.64 1091.23 489.161 1093.88 489.824V543.517C1091.04 542.665 1087.11 541.907 1082.09 541.244C1077.07 540.581 1072.48 540.25 1068.31 540.25C1059.41 540.25 1051.45 542.191 1044.45 546.074C1037.53 549.862 1032.04 555.165 1027.97 561.983C1023.99 568.801 1022 576.661 1022 585.562V709H961.491ZM1117.16 709V490.818H1177.67V709H1117.16ZM1147.56 462.693C1138.56 462.693 1130.85 459.71 1124.41 453.744C1118.06 447.684 1114.89 440.439 1114.89 432.011C1114.89 423.678 1118.06 416.528 1124.41 410.562C1130.85 404.502 1138.56 401.472 1147.56 401.472C1156.56 401.472 1164.23 404.502 1170.57 410.562C1177.01 416.528 1180.23 423.678 1180.23 432.011C1180.23 440.439 1177.01 447.684 1170.57 453.744C1164.23 459.71 1156.56 462.693 1147.56 462.693ZM1316.73 713.261C1294.38 713.261 1275.16 708.527 1259.06 699.057C1243.05 689.492 1230.74 676.235 1222.12 659.284C1213.6 642.333 1209.34 622.826 1209.34 600.761C1209.34 578.413 1213.65 558.811 1222.27 541.955C1230.98 525.004 1243.34 511.794 1259.34 502.324C1275.34 492.759 1294.38 487.977 1316.44 487.977C1335.48 487.977 1352.14 491.434 1366.44 498.347C1380.74 505.259 1392.06 514.966 1400.39 527.466C1408.73 539.966 1413.32 554.644 1414.17 571.5H1357.07C1355.46 560.61 1351.2 551.85 1344.28 545.222C1337.47 538.498 1328.52 535.136 1317.44 535.136C1308.06 535.136 1299.87 537.693 1292.86 542.807C1285.95 547.826 1280.55 555.165 1276.67 564.824C1272.79 574.483 1270.85 586.178 1270.85 599.909C1270.85 613.83 1272.74 625.667 1276.53 635.42C1280.41 645.174 1285.86 652.608 1292.86 657.722C1299.87 662.835 1308.06 665.392 1317.44 665.392C1324.35 665.392 1330.55 663.972 1336.05 661.131C1341.63 658.29 1346.23 654.17 1349.82 648.773C1353.52 643.28 1355.93 636.699 1357.07 629.028H1414.17C1413.22 645.695 1408.68 660.373 1400.53 673.062C1392.48 685.657 1381.36 695.506 1367.15 702.608C1352.95 709.71 1336.14 713.261 1316.73 713.261Z" fill="white"/>
<path d="M1398.89 337.24C1400.59 338.405 1400.74 340.654 1401.72 342.333C1402.61 343.871 1403.32 345.549 1404.1 347.169C1404.33 347.647 1404.61 348.125 1404.71 348.638C1405.79 354.313 1407.5 359.651 1410.78 364.289C1411.34 365.093 1411.4 366.387 1411.6 367.471C1412.56 372.75 1412.75 372.843 1416.21 378.682C1417.26 380.454 1418.16 382.983 1417.88 384.952C1417.38 388.518 1418.78 391.187 1420.28 393.705C1422.28 397.061 1424.05 400.289 1423.21 404.531C1423.11 405.009 1423.28 405.673 1423.53 406.093C1426.25 410.533 1426.4 415.952 1428.14 420.754C1427.65 423.866 1429.15 426.453 1429.94 429.238C1430.33 430.625 1430.6 432.163 1430.53 433.597C1430.3 438.27 1430.91 442.815 1431.77 447.349C1432.19 449.528 1432.24 451.801 1432.77 453.934C1433.3 456.008 1434.56 457.884 1434.88 459.971C1435.27 462.499 1435.47 465.087 1436.11 467.534C1437.49 472.79 1437.47 478.07 1436.91 483.43C1436.82 484.258 1437.23 485.167 1437.49 486.018C1438.29 488.64 1439.19 491.215 1438.04 494.047C1437.71 494.84 1437.64 495.889 1437.77 496.763C1438.45 501.716 1439.23 506.646 1440 511.762C1439.6 512.473 1438.72 513.335 1438.66 514.268C1438.4 518.137 1438.35 522.018 1438.27 525.898C1438.25 526.819 1438.16 527.833 1438.45 528.66C1439.61 532.087 1438.14 535.117 1437.67 538.357C1435.84 538.077 1435.59 536.492 1435.74 535.408C1436.45 530.164 1433.87 525.211 1434.81 519.966C1434.95 519.116 1434.61 518.137 1434.43 517.228C1433.78 513.953 1433.75 510.62 1433.42 507.322C1432.72 500.178 1433.36 492.847 1430.94 485.89C1430.11 483.524 1430.09 480.762 1429.95 478.174C1429.74 474.282 1428.29 470.553 1428.85 466.555C1428.93 465.938 1428.35 465.215 1428.15 464.516C1427.79 463.28 1427.17 461.998 1427.24 460.775C1427.36 458.152 1426.5 455.612 1426.68 453.094C1426.98 448.689 1425.39 444.715 1424.78 440.531C1424.47 438.398 1423.19 436.464 1422.66 434.343C1421.96 431.488 1421.7 428.492 1420.99 425.637C1420.34 422.992 1420.36 420.09 1418.83 417.736C1418.06 411.675 1415.71 406.116 1414.12 400.336C1412.87 395.744 1411.09 391.304 1410 386.63C1409.75 385.558 1409.4 384.486 1409.38 383.402C1409.34 381.817 1408.81 380.64 1407.93 379.393C1406.93 377.971 1406.1 376.27 1405.63 374.545C1404.6 370.827 1403.9 366.993 1402.97 363.24C1402.59 361.632 1401.76 360.14 1401.53 358.52C1401.1 355.479 1397.86 353.975 1398.08 350.77C1398.3 347.53 1395.87 345.398 1395.63 342.414C1393.22 338.463 1392.41 333.44 1388.91 330.166C1388.07 329.385 1387.56 327.998 1387.21 326.786C1385.94 322.357 1383.41 318.535 1382.26 314.036C1381.91 312.684 1380.48 311.694 1380.09 310.353C1379.37 307.883 1377.91 305.866 1377.3 303.268C1376.65 300.494 1375.12 298.093 1372.86 296.112C1371.02 294.48 1369.52 292.021 1369.03 289.131C1368.9 288.28 1368.57 287.231 1368 286.73C1364.89 283.98 1363.53 279.784 1361.01 276.568C1360.69 276.16 1360.41 275.612 1360.33 275.088C1359.61 270.834 1357.09 267.874 1354.63 264.809C1351.53 260.939 1348.47 257 1345.55 252.968C1344.09 250.963 1342.86 248.714 1341.69 246.477C1339.31 241.943 1336.16 238.109 1332.91 234.368C1332.45 233.843 1332.1 233.179 1331.76 232.55C1330.64 230.499 1329.75 228.249 1328.41 226.42C1327.07 224.578 1325.03 223.343 1323.73 221.49C1318.89 214.591 1312.75 209.02 1307.96 202.039C1305.25 198.088 1301.66 194.883 1298.45 191.375C1294.51 187.075 1290.54 182.81 1286.59 178.521C1283.84 175.537 1281.18 172.461 1278.35 169.582C1275.66 166.843 1272.79 164.338 1270.04 161.68C1267.65 159.373 1265.14 157.17 1262.99 154.606C1259.89 150.9 1256.19 148.091 1252.5 145.248C1252.09 144.933 1251.54 144.805 1251.22 144.42C1247.94 140.376 1243.48 137.952 1239.9 134.316C1239.54 133.943 1239.23 133.361 1238.8 133.186C1234.45 131.426 1231.46 127.394 1227.54 124.935C1226.96 124.573 1226.27 124.235 1225.9 123.664C1223.68 120.168 1220.22 118.828 1216.94 117.126C1216.2 116.742 1215.53 116.159 1214.84 115.646C1209.15 111.416 1203.52 107.069 1197.75 102.966C1194.24 100.461 1190.51 98.3279 1186.9 96.0087C1182.86 93.4098 1178.81 90.7993 1174.78 88.1421C1173.06 87.0116 1171.42 85.8113 1169.44 85.1936C1167.86 84.6925 1166.3 83.8068 1164.92 82.7812C1159.73 78.9586 1153.94 76.5112 1148.34 73.6326C1141.04 69.88 1133.68 66.2671 1126.36 62.5727C1125.29 62.0366 1124.17 61.5122 1123.28 60.7081C1121.78 59.3562 1120.02 58.9832 1118.27 58.3539C1113.83 56.7456 1109.46 54.8926 1105.07 53.0978C1099.29 50.732 1093.45 48.5061 1087.75 45.8955C1080.32 42.4692 1072.55 40.1617 1064.88 37.6444C1057.52 35.2203 1050.15 32.6447 1042.65 30.8266C1032.68 28.4025 1022.94 24.8946 1012.79 23.2513C1006.34 22.2025 1000.02 20.2213 993.586 18.9859C986.663 17.6457 979.699 16.6434 972.734 15.5479C966.273 14.534 959.791 13.5783 953.33 12.5994C952.994 12.5527 952.669 12.4712 952.333 12.4362C947.676 11.9002 943.019 11.2591 938.352 10.8746C933.202 10.455 928.041 10.2919 922.891 10.0238C916.042 9.66253 909.193 9.28962 902.343 8.95164C901.515 8.91668 900.676 9.11475 899.847 9.11475C896.512 9.1031 893.176 9.06817 889.841 9.0099C887.502 8.97494 885.163 8.78848 882.834 8.87006C878.03 9.03322 873.227 9.35949 868.412 9.55762C867.594 9.59258 866.765 9.33622 865.937 9.23133C863.776 8.93998 861.553 8.1358 859.476 8.46211C852.616 9.54596 845.756 8.22905 838.918 8.91665C838.246 8.98657 837.575 9.05651 836.904 8.99824C828.681 8.26402 820.531 10.0471 812.329 9.89563C811.164 9.87233 809.99 10.0588 808.825 10.2452C807.011 10.5366 805.217 11.1659 803.403 11.2009C792.977 11.4223 782.876 14.2077 772.67 16.0607C768.391 16.8299 764.248 18.3799 759.79 18.1934C758.196 18.1235 756.57 19.1141 754.934 19.5104C749.238 20.8972 743.459 21.9578 738.047 24.4634C732.341 27.1089 726.708 29.9759 721.055 32.7612C718.307 34.1131 715.569 35.4883 712.832 36.8518C710.241 38.1338 707.682 39.3808 705.542 41.6068C704.105 43.1102 702.259 44.1474 700.539 45.2895C693.071 50.2542 685.928 55.6618 679.718 62.5495C677.726 64.7521 675.145 66.2788 672.995 68.3299C665.989 75.0078 659.8 82.618 653.339 89.9136C645.923 98.2813 639.232 107.383 633.033 116.846C626.624 126.624 619.974 136.216 613.545 145.97C607.409 155.282 601.65 164.897 595.546 174.244C590.731 181.621 585.781 188.905 580.62 196.002C577.474 200.337 573.74 204.137 570.446 208.332C565.758 214.288 559.685 218.355 554.241 223.261C552.311 224.998 549.993 226.21 547.801 227.573C541.098 231.769 534.26 235.557 527.064 238.692C521.726 241.022 516.229 242.433 510.744 244.041C506.716 245.218 502.762 246.745 498.755 248.061C497.318 248.539 495.818 249.25 494.371 249.169C488.424 248.819 482.959 251.476 477.201 252.292C474.4 252.688 471.704 253.574 468.768 253.154C466.911 252.898 464.908 253.842 462.978 254.285C462.327 254.436 461.572 255.066 461.079 254.856C457.922 253.481 455.226 255.45 452.342 256.103C447.423 257.21 442.483 258.247 437.511 259.063C431.889 259.995 426.225 260.753 420.571 261.406C416.407 261.883 412.191 262.14 408.069 261.021C406.81 260.683 405.751 260.8 404.691 261.394C402.08 262.851 399.342 263.154 396.437 263.27C389.745 263.538 383.074 264.261 376.403 264.855C372.061 265.24 367.718 265.624 363.397 266.196C352.426 267.652 341.465 269.237 330.494 270.717C318.18 272.372 306.044 275.204 293.835 277.582C292.681 277.803 291.517 278.095 290.437 278.572C284.343 281.253 277.871 282.453 271.62 284.528C266.816 286.124 261.939 287.441 257.135 289.014C251.355 290.914 245.608 292.93 239.86 294.97C223.245 300.844 206.998 307.848 190.824 315.038C185.853 317.253 180.839 319.35 175.867 321.541C174.777 322.019 173.717 322.567 172.679 323.173C168.557 325.551 164.403 327.858 160.438 330.585C157.785 332.415 154.722 333.499 151.963 335.154C149.478 336.657 147.065 338.359 144.779 340.212C142.471 342.088 140.205 343.918 137.552 345.2C135.737 346.074 134.122 347.461 132.475 348.708C129.706 350.794 127.042 353.055 124.231 355.071C120.581 357.681 116.836 360.129 113.144 362.658C112.578 363.042 111.917 363.415 111.55 363.998C109.945 366.492 108.057 368.508 105.278 369.254C104.984 369.335 104.617 369.639 104.523 369.93C103.757 372.214 101.649 372.937 100.317 374.475C96.2154 379.242 90.95 382.272 86.5237 386.514C82.4751 390.395 78.1851 393.961 74.2204 397.935C72.1436 400.021 70.4654 402.632 68.7347 405.126C67.0985 407.491 65.5251 409.857 63.27 411.582C62.3261 412.305 61.403 413.249 60.8367 414.332C59.3263 417.211 57.8473 420.008 55.3405 422.083C53.0644 423.959 51.9107 427.001 49.9807 429.343C47.0753 432.874 44.9356 437.186 42.4498 441.149C40.2891 444.599 38.7262 448.503 35.9362 451.498C35.2649 452.22 35.0132 453.444 34.6356 454.47C33.3769 457.908 32.3805 461.486 30.8386 464.76C29.0031 468.688 26.7165 472.359 24.6188 476.123C24.2726 476.753 23.4965 477.405 23.5594 477.965C23.979 481.799 21.619 484.561 20.633 487.836C19.9513 490.12 19.1436 492.369 18.4723 494.654C18.0423 496.11 17.5808 497.462 16.1753 498.103C15.074 498.604 14.6649 499.781 14.8013 500.842C15.3886 505.562 13.4902 509.641 11.8959 513.638C10.3016 517.636 9.02192 521.54 9.21072 525.945C9.25268 526.842 8.94849 527.775 8.72823 528.672C7.22833 534.756 5.58159 540.793 4.26 546.923C3.36845 551.048 2.92792 555.29 2.26712 559.463C2.03637 560.896 1.74269 562.318 1.45949 563.798C0.148387 563.413 0.274251 562.213 0.253273 561.479C0.158874 558.356 0.15887 555.22 0.347669 552.097C0.410602 551.002 0.756737 549.988 0.29523 548.869C0.0330093 548.228 -0.0823689 547.366 0.0644745 546.69C1.15531 541.806 1.05042 536.783 1.55388 531.83C1.62731 531.131 2.13077 530.49 2.31957 529.791C2.86499 527.845 3.73556 525.887 3.77751 523.917C3.82996 521.598 4.5432 519.582 5.01519 517.437C5.48719 515.316 5.51865 513.021 6.27385 511.051C7.05002 509.035 6.7878 507.089 6.98709 505.096C7.15491 503.324 7.68984 501.098 8.80166 500.061C10.4274 498.534 10.6687 496.891 11.0043 494.84C11.3714 492.556 11.256 490.027 12.8503 488.057C13.2279 487.591 13.165 486.647 13.2594 485.913C14.0566 479.888 16.1648 474.503 19.4688 469.655C20.161 468.641 20.8009 467.476 21.105 466.275C21.4092 465.087 21.9022 464.318 22.8567 463.77C23.6748 463.304 23.937 462.488 23.8531 461.439C23.8111 460.961 24.0419 460.274 24.3775 459.971C25.8355 458.63 27.1046 457.22 27.22 454.971C33.3035 446.556 37.4781 436.685 43.4147 428.213C46.2887 424.122 48.9109 420.02 50.8408 415.323C51.166 414.531 51.8477 413.505 52.4876 413.377C54.5643 412.981 55.5188 411.221 56.7041 409.706C58.2354 407.748 59.7668 405.778 61.2667 403.785C64.6021 399.345 68.2103 395.196 72.3009 391.618C74.6819 389.532 77.0209 387.516 78.1642 384.171C78.5522 383.053 79.5592 381.992 80.5241 381.386C82.4646 380.162 82.8107 377.412 85.0868 376.363C86.8384 375.559 88.4432 373.822 89.576 372.063C91.1598 369.604 93.1841 367.704 95.0512 365.618C96.0791 364.452 97.4111 363.31 98.7852 362.902C103.201 361.574 106.337 358.369 109.4 354.896C110.417 353.742 111.561 352.448 112.872 351.936C114.351 351.365 115.515 350.467 116.763 349.547C119.532 347.507 122.196 345.351 124.567 342.752C124.892 342.391 125.301 341.913 125.71 341.866C128.217 341.622 129.864 339.617 131.846 338.3C135.716 335.701 139.555 333.044 143.52 330.644C148.208 327.8 153.054 325.259 157.774 322.462C161.424 320.295 164.844 317.707 168.368 315.295C172.343 312.579 176.56 310.284 180.724 307.918C181.406 307.533 182.36 307.755 183.168 307.591C183.797 307.463 184.573 307.393 184.993 306.95C188.475 303.279 192.88 301.566 197.212 299.655C202.341 297.394 207.365 294.807 212.578 292.79C220.791 289.609 229.109 286.789 237.384 283.817C238.181 283.525 239 283.316 239.786 283.013C245.167 280.961 250.464 278.712 256.17 277.745C260.596 276.999 264.928 275.391 269.26 274.027C274.745 272.302 280.305 271.23 285.969 270.566C289.105 270.193 292.178 269.237 295.283 268.573C297.076 268.188 298.88 267.711 300.695 267.547C306.527 267.011 312.138 265.182 317.896 264.179C321.977 263.468 325.962 262.116 330.032 261.324C333.986 260.555 338.035 260.357 341.968 259.506C351.041 257.536 360.25 257 369.397 255.858C376.382 254.984 383.399 254.471 390.395 253.784C391.224 253.702 392.199 253.83 392.849 253.388C395.577 251.511 398.65 251.768 401.618 251.371C406.275 250.742 410.922 249.984 415.579 249.402C417.718 249.134 419.9 249.134 422.05 248.982C422.879 248.924 423.708 248.807 424.536 248.714C430.032 248.108 435.528 247.024 441.025 247.024C445.713 247.024 450.255 246.943 454.838 245.591C457.366 244.845 460.156 245.23 462.81 244.95C464.467 244.775 466.135 244.449 467.719 243.901C470.771 242.864 473.886 242.363 477.054 242.071C479.372 241.85 481.763 241.582 483.934 240.743C486.315 239.822 489.032 241.011 491.172 239.088C496.08 238.144 500.758 236.151 505.625 234.985C508.384 234.321 511.058 233.214 513.765 232.282C514.404 232.06 514.992 231.652 515.642 231.466C521.505 229.846 527.054 227.34 532.539 224.52C539.557 220.907 546.311 216.887 552.363 211.456C564.436 200.606 574.463 187.704 583.956 174.104C594.13 159.524 603.245 144.094 613.545 129.631C619.355 121.462 624.652 112.837 630.337 104.551C633.788 99.5167 637.47 94.6802 641.183 89.867C642.924 87.6177 645.011 85.6947 646.868 83.5503C650.455 79.3781 653.895 75.0428 657.566 70.9754C662.769 65.2066 667.572 58.96 673.813 54.4032C675.754 52.993 677.317 50.9535 679.068 49.2287C687.396 41.0357 696.637 34.2762 706.381 28.4142C709.748 26.3863 713.45 25.0228 717.017 23.3912C720.426 21.8295 723.897 20.4311 727.264 18.7762C731.586 16.6667 736.054 15.3498 740.711 14.5107C743.669 13.9862 746.522 12.8208 749.438 11.9934C752.196 11.2125 754.955 10.4084 757.734 9.76738C763.146 8.53204 768.559 7.25006 774.002 6.25945C783.914 4.44139 793.721 1.80754 803.875 1.9707C805.196 1.99401 806.528 1.5512 807.86 1.44631C811.364 1.17827 814.888 0.653781 818.381 0.816941C822.922 1.02672 827.411 0.781958 831.922 0.432331C835.079 0.187592 838.257 -0.231921 841.435 0.618839C842.704 0.956811 844.099 0.758706 845.442 0.782015C851.798 0.863595 858.154 1.06171 864.521 0.991783C869.199 0.945166 873.877 0.537248 878.565 0.315817C880.883 0.210929 883.264 -0.255223 885.498 0.187638C888.677 0.82862 891.865 -0.66315 894.98 0.595507C895.421 0.770321 895.977 0.618816 896.48 0.595507C898.977 0.420694 901.473 0.0244698 903.969 0.106049C911.332 0.339134 918.696 0.572225 926.038 1.13163C937.061 1.98239 948.075 3.03129 959.088 4.13844C975.786 5.81665 992.296 8.9516 1008.77 12.2614C1021.13 14.7438 1033.37 17.8205 1045.56 21.2352C1057.26 24.5217 1068.92 28.0529 1080.38 32.1901C1095.03 37.4695 1109.69 42.8071 1123.83 49.6831C1130.73 53.0396 1137.8 55.9881 1144.61 59.5426C1158.41 66.7333 1172.27 73.7608 1185.32 82.6063C1190.75 86.2891 1196.54 89.3076 1201.91 93.0719C1212.96 100.81 1223.89 108.747 1234.74 116.812C1239.47 120.319 1243.91 124.305 1248.46 128.116C1251.54 130.692 1254.61 133.267 1257.61 135.936C1259.44 137.556 1261.09 139.397 1262.91 141.029C1265.11 143.022 1267.42 144.863 1269.65 146.821C1274.52 151.087 1279.31 155.41 1283.66 160.363C1287.04 164.209 1291.01 167.414 1294.5 171.155C1299.68 176.703 1304.73 182.413 1309.75 188.147C1314.07 193.077 1318.37 198.03 1322.53 203.123C1326.47 207.948 1330.27 212.912 1334.02 217.924C1337.88 223.075 1341.61 228.331 1345.37 233.564C1346.72 235.452 1347.94 237.479 1349.33 239.332C1350.76 241.232 1351.89 243.202 1351.38 246.022C1354.05 246.651 1355.51 248.493 1356.83 250.754C1359.48 255.276 1362.41 259.576 1365.12 264.051C1366.4 266.172 1368.16 268.084 1368.06 270.985C1368.04 271.405 1368.48 272.058 1368.84 272.256C1370.32 273.037 1370.44 274.435 1370.54 275.985C1370.61 276.848 1371.12 278.421 1371.32 278.397C1373.78 278.129 1373.39 280.88 1374.46 282.01C1375.64 283.257 1376.42 284.982 1377.34 286.532C1377.61 286.987 1378.04 287.674 1377.91 288.001C1376.5 291.427 1379.25 293.373 1380.18 295.925C1380.47 296.695 1381.22 297.592 1381.91 297.79C1385.16 298.757 1385.84 301.718 1385.77 304.608C1385.73 306.449 1385.98 307.988 1386.88 309.258C1388.16 311.064 1388.76 313.139 1389.58 315.167C1390.71 317.987 1391.65 321.122 1394.52 322.579C1394.67 322.649 1394.84 322.788 1394.9 322.94C1396.63 326.949 1398.4 330.946 1399.97 335.025C1400.18 335.561 1399.35 336.587 1399 337.391C1398.96 337.135 1398.92 336.867 1398.86 336.61C1398.99 336.634 1399.11 336.645 1399.24 336.669C1399.13 336.89 1399 337.112 1398.88 337.345L1398.89 337.24Z" fill="white"/>
</svg>
