<svg width="700" height="700" viewBox="0 0 700 700" fill="none" xmlns="http://www.w3.org/2000/svg">
<path d="M317.008 326.464C316.022 326.464 315.057 326.09 314.308 325.348L133.077 144.11C131.586 142.619 131.586 140.207 133.077 138.717C134.56 137.227 136.979 137.227 138.462 138.717L319.708 319.948C321.191 321.439 321.191 323.858 319.708 325.348C318.952 326.097 317.973 326.464 317.008 326.464Z" fill="white"/>
<path d="M165.776 176.136H165.762L121.972 176.035C119.869 176.028 118.17 174.321 118.17 172.219C118.17 170.109 119.876 168.41 121.979 168.41H161.96V128.428C161.96 126.326 163.667 124.62 165.776 124.62C167.879 124.62 169.585 126.326 169.585 128.428V171.362C169.65 171.643 169.686 171.938 169.686 172.226C169.686 173.328 169.218 174.328 168.469 175.02C167.749 175.725 166.784 176.136 165.776 176.136Z" fill="white"/>
<path d="M224.829 235.62C224.829 235.62 224.829 235.62 224.814 235.62L118.78 235.389C116.663 235.389 114.957 233.676 114.964 231.573C114.971 229.464 116.67 227.757 118.787 227.757H221.013V125.532C221.013 123.422 222.712 121.716 224.822 121.716C226.931 121.716 228.645 123.422 228.645 125.532V230.277C228.781 230.688 228.861 231.12 228.861 231.588C228.861 232.689 228.385 233.69 227.629 234.389C227.586 234.432 227.557 234.475 227.507 234.511C226.809 235.224 225.837 235.62 224.829 235.62Z" fill="white"/>
<path d="M567.418 566.397C566.439 566.397 565.467 566.023 564.718 565.281L383.487 384.043C381.997 382.545 381.997 380.133 383.487 378.643C384.977 377.159 387.389 377.159 388.88 378.643L570.111 559.881C571.609 561.371 571.609 563.791 570.111 565.281C569.377 566.023 568.397 566.397 567.418 566.397Z" fill="white"/>
<path d="M537.416 579.385C535.314 579.385 533.6 577.678 533.6 575.569V532.621C533.55 532.347 533.514 532.059 533.514 531.764C533.514 530.698 533.96 529.712 534.673 529.028C534.687 529.013 534.702 528.992 534.723 528.97C535.443 528.257 536.401 527.869 537.416 527.869L581.228 527.955C583.33 527.962 585.03 529.669 585.03 531.778C585.022 533.888 583.323 535.594 581.214 535.594L541.225 535.587V575.569C541.225 577.678 539.518 579.385 537.416 579.385Z" fill="white"/>
<path d="M478.356 582.278C476.254 582.278 474.547 580.564 474.547 578.462V473.716C474.403 473.306 474.324 472.867 474.324 472.413C474.324 471.297 474.807 470.296 475.555 469.598C475.599 469.555 475.627 469.519 475.678 469.475C476.391 468.755 477.355 468.367 478.363 468.367H478.378L584.427 468.59C586.529 468.597 588.235 470.303 588.235 472.413C588.228 474.515 586.522 476.222 584.419 476.222H482.172V578.447C482.172 580.557 480.466 582.278 478.356 582.278Z" fill="white"/>
<path d="M134.672 567.893C133.693 567.893 132.721 567.518 131.972 566.77C130.482 565.286 130.482 562.867 131.972 561.377L313.211 380.138C314.708 378.648 317.113 378.648 318.596 380.138C320.094 381.629 320.094 384.048 318.596 385.531L137.365 566.762C136.616 567.518 135.637 567.893 134.672 567.893Z" fill="white"/>
<path d="M165.475 581.681C165.468 581.681 165.468 581.681 165.475 581.681C163.365 581.681 161.659 579.974 161.659 577.872L161.666 537.876H121.677C119.575 537.876 117.861 536.169 117.861 534.067C117.861 531.957 119.575 530.258 121.677 530.258H164.633C164.906 530.193 165.187 530.165 165.475 530.165C166.569 530.165 167.585 530.625 168.276 531.381C168.989 532.101 169.377 533.066 169.377 534.081L169.284 577.886C169.277 579.974 167.577 581.681 165.475 581.681Z" fill="white"/>
<path d="M224.828 584.877C222.719 584.877 221.02 583.171 221.02 581.054V478.828H118.794C116.677 478.828 114.971 477.122 114.971 475.012C114.971 472.903 116.677 471.204 118.794 471.204H223.532C224.922 470.707 226.636 471.132 227.629 472.183C227.672 472.226 227.723 472.284 227.773 472.32C228.479 473.054 228.875 474.012 228.875 475.027L228.659 581.076C228.644 583.178 226.938 584.877 224.828 584.877Z" fill="white"/>
<path d="M386.187 327.016C385.201 327.016 384.229 326.642 383.487 325.9C381.997 324.403 381.997 321.998 383.487 320.507L564.725 139.262C566.223 137.771 568.635 137.771 570.118 139.262C571.616 140.752 571.616 143.164 570.118 144.662L388.88 325.9C388.138 326.642 387.159 327.016 386.187 327.016Z" fill="white"/>
<path d="M536.622 175.875C535.571 175.875 534.627 175.443 533.929 174.767C533.893 174.731 533.857 174.695 533.821 174.666C533.101 173.953 532.705 172.974 532.705 171.959L532.806 128.161C532.813 126.059 534.512 124.359 536.622 124.359C538.717 124.359 540.438 126.073 540.438 128.168V168.157H580.405C582.522 168.157 584.228 169.856 584.228 171.966C584.228 174.068 582.522 175.775 580.405 175.775H537.464C537.191 175.847 536.917 175.875 536.622 175.875Z" fill="white"/>
<path d="M477.252 235.068C476.143 235.068 475.128 234.585 474.422 233.815C474.394 233.786 474.365 233.75 474.322 233.728C473.602 233.008 473.213 232.037 473.213 231.021L473.443 124.98C473.443 122.87 475.142 121.171 477.245 121.171C479.354 121.171 481.054 122.877 481.054 124.98V227.213H583.294C585.396 227.213 587.102 228.912 587.102 231.021C587.102 233.124 585.396 234.837 583.294 234.837H478.548C478.152 234.989 477.713 235.068 477.252 235.068Z" fill="white"/>
<path d="M349.529 265.53C345.317 265.53 341.897 262.117 341.897 257.905V44.382C341.897 40.17 345.317 36.75 349.529 36.75C353.749 36.75 357.169 40.1628 357.169 44.382V257.898C357.169 262.11 353.749 265.53 349.529 265.53Z" fill="white"/>
<path d="M349.823 49.2996C349.765 49.2996 349.729 49.2996 349.686 49.2996C347.663 49.2996 345.697 48.5004 344.271 47.0532L313.369 16.0212C310.403 13.0332 310.41 8.2092 313.398 5.2284C316.379 2.262 321.203 2.262 324.176 5.2356L349.758 30.81L375.325 5.2356C378.306 2.2548 383.13 2.2548 386.118 5.2356C389.099 8.2164 389.099 13.0476 386.118 16.0356L355.993 46.146C355.77 46.4628 355.503 46.7796 355.208 47.0604C353.725 48.5652 351.774 49.2996 349.823 49.2996Z" fill="white"/>
<path d="M349.382 133.137C349.375 133.137 349.375 133.137 349.382 133.137C347.344 133.137 345.407 132.324 343.982 130.891L269.152 55.7443C266.179 52.7563 266.179 47.9323 269.167 44.9587C272.155 41.9851 276.971 41.9923 279.952 44.9659L349.54 114.561L419.135 44.9587C422.116 41.9779 426.94 41.9779 429.921 44.9587C432.909 47.9395 432.909 52.7707 429.921 55.7515L356.243 129.436C355.927 129.969 355.538 130.459 355.099 130.905C353.565 132.432 351.571 133.195 349.547 133.144C349.49 133.137 349.432 133.137 349.382 133.137Z" fill="white"/>
<path d="M351.042 666.807C346.83 666.807 343.402 663.387 343.402 659.16V445.652C343.402 441.44 346.83 438.027 351.042 438.027C355.254 438.027 358.674 441.44 358.674 445.652V659.16C358.674 663.387 355.254 666.807 351.042 666.807Z" fill="white"/>
<path d="M381.804 697.005C379.853 697.005 377.895 696.256 376.404 694.773L350.83 669.191L325.263 694.766C322.275 697.746 317.451 697.746 314.463 694.766C311.489 691.785 311.489 686.954 314.463 683.966L344.602 653.855C344.825 653.531 345.084 653.222 345.372 652.934C346.877 651.422 348.994 650.745 350.837 650.694C350.851 650.694 350.887 650.702 350.909 650.694C352.932 650.702 354.876 651.508 356.302 652.941L387.211 683.98C390.178 686.968 390.171 691.792 387.183 694.766C385.707 696.27 383.748 697.005 381.804 697.005Z" fill="white"/>
<path d="M276.056 657.289C274.105 657.289 272.161 656.541 270.663 655.05C267.683 652.069 267.683 647.238 270.663 644.257L344.334 570.587C344.658 570.061 345.039 569.565 345.479 569.111C347.019 567.585 349.064 566.807 351.037 566.879C351.095 566.879 351.152 566.879 351.195 566.879C353.226 566.879 355.17 567.685 356.595 569.125L431.432 644.272C434.406 647.253 434.406 652.084 431.418 655.057C428.437 658.031 423.613 658.024 420.639 655.043L351.044 585.455L281.449 655.05C279.966 656.541 278.007 657.289 276.056 657.289Z" fill="white"/>
<path d="M255.66 358.214H42.1515C37.9395 358.214 34.5195 354.802 34.5195 350.582C34.5195 346.37 37.9395 342.958 42.1515 342.958H255.66C259.88 342.958 263.3 346.37 263.3 350.582C263.3 354.802 259.88 358.214 255.66 358.214Z" fill="white"/>
<path d="M9.62031 388.965C7.66911 388.965 5.71071 388.216 4.22031 386.726C1.25391 383.745 1.26111 378.914 4.23471 375.933L29.8091 350.366L4.24191 324.799C1.26111 321.818 1.26111 316.987 4.24191 314.006C7.20831 311.025 12.0467 311.025 15.0203 314.006L45.1523 344.131C45.4691 344.361 45.7859 344.621 46.0739 344.909C47.5643 346.413 48.3131 348.393 48.3059 350.366C48.3059 350.388 48.3059 350.417 48.3059 350.438C48.3059 352.469 47.4995 354.413 46.0595 355.845L15.0131 386.748C13.5227 388.231 11.5715 388.965 9.62031 388.965Z" fill="white"/>
<path d="M49.3481 433.204C47.3969 433.204 45.4457 432.455 43.9553 430.965C40.9817 427.984 40.9817 423.16 43.9625 420.179L113.551 350.577L43.9553 280.981C40.9745 278.008 40.9745 273.169 43.9553 270.189C46.9289 267.215 51.7601 267.215 54.7409 270.189L128.419 343.866C128.944 344.19 129.448 344.572 129.895 345.025C131.421 346.552 132.163 348.575 132.134 350.577C132.134 350.634 132.134 350.692 132.134 350.749C132.134 352.765 131.32 354.717 129.887 356.149L54.7337 430.979C53.2505 432.462 51.2921 433.204 49.3481 433.204Z" fill="white"/>
<path d="M664.569 356.703H451.046C446.841 356.703 443.414 353.29 443.414 349.078C443.414 344.859 446.841 341.446 451.046 341.446H664.569C668.781 341.446 672.201 344.859 672.201 349.078C672.201 353.297 668.781 356.703 664.569 356.703Z" fill="white"/>
<path d="M690.246 387.895C688.294 387.895 686.336 387.153 684.853 385.663L654.714 355.531C654.397 355.3 654.094 355.041 653.806 354.76C652.302 353.248 651.56 351.276 651.574 349.303C651.574 349.274 651.574 349.252 651.574 349.224C651.574 347.193 652.374 345.264 653.821 343.824L684.867 312.921C687.848 309.955 692.686 309.955 695.653 312.936C698.626 315.924 698.619 320.748 695.646 323.728L670.057 349.296L695.631 374.863C698.619 377.844 698.619 382.682 695.631 385.663C694.148 387.153 692.19 387.895 690.246 387.895Z" fill="white"/>
<path d="M650.529 431.706C648.577 431.706 646.612 430.957 645.129 429.467L571.451 355.782C570.933 355.473 570.429 355.084 569.989 354.63C568.456 353.104 567.714 351.088 567.743 349.079C567.743 349.021 567.743 348.957 567.743 348.906C567.75 346.883 568.557 344.939 569.989 343.506L645.143 268.691C648.124 265.717 652.948 265.725 655.921 268.698C658.895 271.679 658.895 276.51 655.921 279.491L586.326 349.086L655.921 418.681C658.895 421.662 658.895 426.493 655.921 429.474C654.424 430.957 652.48 431.706 650.529 431.706Z" fill="white"/>
<path d="M392.721 449.447H312.383L255.554 392.625V312.265L312.383 255.45H392.721L449.551 312.265V392.625L392.721 449.447ZM318.705 434.176H386.407L434.279 386.303V318.587L386.407 270.714H318.705L270.818 318.587V386.303L318.705 434.176Z" fill="white"/>
<path d="M412.363 496.852H292.749L208.156 412.259V292.631L292.749 208.045H412.363L496.948 292.631V412.252L412.363 496.852ZM295.903 489.205H409.195L489.302 409.091V295.799L409.195 215.685H295.903L215.788 295.799V409.091L295.903 489.205Z" fill="white"/>
<path d="M333.335 401.064L306.271 373.985V335.71L333.335 308.638H371.618L398.69 335.71V373.985L371.618 401.064H333.335Z" fill="white"/>
<path d="M374.781 408.681H330.177L298.648 377.153V332.549L330.177 301.005H374.781L406.31 332.549V377.153L374.781 408.681ZM336.499 393.425H368.46L391.053 370.824V338.87L368.46 316.269H336.499L313.898 338.87V370.824L336.499 393.425Z" fill="white"/>
</svg>
