<svg width="600" height="600" viewBox="0 0 600 600" fill="none" xmlns="http://www.w3.org/2000/svg">
<path fill-rule="evenodd" clip-rule="evenodd" d="M513.932 512.132C508.134 517.931 501.939 523.091 495.435 527.614C442.936 572.733 374.652 600 300 600C134.315 600 0 465.685 0 300C0 134.315 134.315 0 300 0C374.653 0 442.937 27.2676 495.436 72.3863C501.929 76.9021 508.115 82.0536 513.905 87.8408L513.96 87.8954C520.252 94.191 525.792 100.953 530.581 108.071C573.925 160.087 600 226.998 600 300C600 373.001 573.925 439.913 530.581 491.929C525.785 499.057 520.236 505.829 513.932 512.132ZM300 580.2C344.328 580.2 386.252 569.906 423.512 551.579C387.303 552.923 350.655 539.774 323.013 512.132L301.8 490.919L280.587 512.132C251.92 540.799 213.568 553.878 176.064 551.37C213.429 569.828 255.503 580.2 300 580.2ZM491.246 504.786C475.429 513.864 454.897 511.645 441.383 498.131L367.985 424.734L426.534 366.185L499.931 439.583C513.337 452.989 515.627 473.301 506.802 489.066C501.824 494.508 496.635 499.752 491.246 504.786ZM528.829 449.803C525.936 440.947 520.971 432.621 513.932 425.582L440.534 352.185L478.718 314.001L499.931 335.214C530.948 366.231 540.581 410.534 528.829 449.803ZM451.603 527.029C412.334 538.781 368.031 529.148 337.014 498.131L315.801 476.918L353.985 438.734L427.382 512.132C434.421 519.171 442.747 524.136 451.603 527.029ZM353.985 410.733L412.533 352.185L374.349 314.001L315.801 372.549L353.985 410.733ZM301.8 386.55L339.984 424.734L301.8 462.918L263.616 424.734L301.8 386.55ZM301.8 358.549L360.349 300L301.8 241.452L243.252 300L301.8 358.549ZM229.251 314.001L287.799 372.549L249.616 410.733L191.067 352.185L229.251 314.001ZM229.251 285.999L287.799 227.451L249.616 189.267L191.067 247.816L229.251 285.999ZM177.066 261.816L215.25 300L177.066 338.184L138.883 300L177.066 261.816ZM177.066 233.815L235.615 175.267L162.217 101.869C146.049 85.7011 119.836 85.7011 103.669 101.869C87.501 118.037 87.501 144.25 103.669 160.417L177.066 233.815ZM74.7709 150.197C77.6637 159.053 82.6295 167.379 89.668 174.418L163.066 247.816L124.882 285.999L103.669 264.786C72.652 233.77 63.0194 189.466 74.7709 150.197ZM151.997 72.971C160.853 75.8639 169.179 80.8296 176.218 87.8681L249.616 161.266L287.799 123.082L266.586 101.869C235.569 70.8521 191.266 61.2195 151.997 72.971ZM263.616 175.267L301.8 213.45L339.984 175.267L301.8 137.083L263.616 175.267ZM315.801 227.451L353.985 189.267L412.533 247.816L374.349 285.999L315.801 227.451ZM388.35 300L426.534 338.184L464.717 300L426.534 261.816L388.35 300ZM513.932 321.213C541.051 348.332 554.22 384.118 553.44 419.654C570.602 383.368 580.2 342.805 580.2 300C580.2 257.195 570.602 216.632 553.44 180.346C554.22 215.882 541.051 251.668 513.932 278.787L492.719 300L513.932 321.213ZM499.931 264.786L478.718 285.999L440.534 247.816L513.932 174.418C520.971 167.379 525.936 159.053 528.829 150.197C540.581 189.466 530.948 233.769 499.931 264.786ZM499.931 160.417L426.534 233.815L367.985 175.267L441.383 101.869C454.897 88.3549 475.429 86.1366 491.247 95.214C496.635 100.248 501.824 105.492 506.802 110.934C515.627 126.699 513.337 147.011 499.931 160.417ZM427.382 87.868L353.985 161.266L315.801 123.082L337.014 101.869C368.031 70.852 412.334 61.2194 451.603 72.9709C442.747 75.8638 434.421 80.8295 427.382 87.868ZM323.013 87.868L301.8 109.081L280.587 87.8681C251.92 59.2011 213.568 46.1218 176.063 48.6303C213.429 30.172 255.503 19.8 300 19.8C344.328 19.8 386.252 30.0936 423.512 48.4209C387.303 47.0767 350.656 60.2258 323.013 87.868ZM19.8 300C19.8 253.956 30.9061 210.505 50.5855 172.182C47.4428 210.345 60.4703 249.589 89.668 278.787L110.881 300L89.6681 321.213C60.4704 350.411 47.4429 389.656 50.5856 427.819C30.9061 389.495 19.8 346.044 19.8 300ZM103.669 335.214L124.882 314.001L163.066 352.185L89.6681 425.582C82.6296 432.621 77.6638 440.947 74.771 449.803C63.0195 410.534 72.6521 366.231 103.669 335.214ZM103.669 439.583L177.066 366.185L235.615 424.734L162.217 498.131C146.056 514.292 119.859 514.299 103.69 498.152L103.648 498.111C87.5011 481.941 87.508 455.744 103.669 439.583ZM176.218 512.132L249.616 438.734L287.799 476.918L266.586 498.131C235.57 529.148 191.266 538.781 151.997 527.029C160.853 524.136 169.179 519.171 176.218 512.132Z" fill="white"/>
</svg>
