<svg width="3617" height="3616" viewBox="0 0 3617 3616" fill="none" xmlns="http://www.w3.org/2000/svg">
<path d="M1808.01 2258C2429.33 2258 2933.01 1754.32 2933.01 1133C2933.01 511.68 2429.33 8 1808.01 8C1186.69 8 683.006 511.68 683.006 1133C683.006 1754.32 1186.69 2258 1808.01 2258Z" stroke="white" stroke-width="16" stroke-linecap="round" stroke-linejoin="round"/>
<path d="M1808.01 3608C2429.33 3608 2933.01 3104.32 2933.01 2483C2933.01 1861.68 2429.33 1358 1808.01 1358C1186.69 1358 683.006 1861.68 683.006 2483C683.006 3104.32 1186.69 3608 1808.01 3608Z" stroke="white" stroke-width="16" stroke-linecap="round" stroke-linejoin="round"/>
<path d="M2483.05 2932.93C3104.37 2932.93 3608.05 2429.25 3608.05 1807.93C3608.05 1186.61 3104.37 682.93 2483.05 682.93C1861.73 682.93 1358.05 1186.61 1358.05 1807.93C1358.05 2429.25 1861.73 2932.93 2483.05 2932.93Z" stroke="white" stroke-width="16" stroke-linecap="round" stroke-linejoin="round"/>
<path d="M1133 2933C1754.32 2933 2258 2429.32 2258 1808C2258 1186.68 1754.32 683 1133 683C511.68 683 8 1186.68 8 1808C8 2429.32 511.68 2933 1133 2933Z" stroke="white" stroke-width="16" stroke-linecap="round" stroke-linejoin="round"/>
</svg>
