<svg width="2833" height="864" viewBox="0 0 2833 864" fill="none" xmlns="http://www.w3.org/2000/svg">
<path d="M61.4391 855.039C41.8124 855.039 26.4524 849.066 15.3591 837.119C5.11906 825.172 -0.000937223 810.666 -0.000937223 793.599C-0.000937223 779.092 4.26573 766.719 12.7991 756.479L337.919 353.279H70.3991C53.3324 353.279 38.8257 347.306 26.8791 335.359C14.9324 323.412 8.95906 308.906 8.95906 291.839C8.95906 274.772 14.9324 260.266 26.8791 248.319C38.8257 235.519 53.3324 229.119 70.3991 229.119H459.519C478.292 229.119 493.226 235.519 504.319 248.319C515.412 260.266 520.959 274.772 520.959 291.839C520.959 305.492 516.692 317.866 508.159 328.959L183.039 732.159H468.479C485.546 732.159 500.052 738.132 511.999 750.079C523.946 762.026 529.919 776.532 529.919 793.599C529.919 809.812 523.519 824.319 510.719 837.119C498.772 849.066 484.692 855.039 468.479 855.039H61.4391ZM690.829 863.999C674.616 863.999 660.109 858.026 647.309 846.079C635.362 833.279 629.389 818.772 629.389 802.559V65.279C629.389 48.2124 635.362 33.7057 647.309 21.759C660.109 8.95905 675.469 2.55905 693.389 2.55905C710.456 2.55905 724.536 8.95905 735.629 21.759C746.722 33.7057 752.269 48.2124 752.269 65.279V340.479C780.429 304.639 812.429 276.052 848.269 254.719C884.109 232.532 919.949 221.439 955.789 221.439C1023.2 221.439 1070.56 255.572 1097.87 323.839C1125.18 391.252 1138.83 498.346 1138.83 645.119C1138.83 727.892 1137.55 781.226 1134.99 805.119C1134.14 821.332 1127.74 834.986 1115.79 846.079C1104.7 857.172 1091.04 862.719 1074.83 862.719C1056.91 862.719 1042.4 857.172 1031.31 846.079C1020.22 834.132 1014.67 819.626 1014.67 802.559C1014.67 785.492 1015.1 771.412 1015.95 760.319L1017.23 654.079C1017.23 530.346 1010.4 447.572 996.749 405.759C983.949 363.946 967.736 343.039 948.109 343.039C923.362 343.039 898.189 354.559 872.589 377.599C846.989 399.786 824.802 424.959 806.029 453.119C788.109 480.426 775.309 502.186 767.629 518.399C757.389 541.439 752.269 571.732 752.269 609.279V799.999C752.269 819.626 746.296 835.412 734.349 847.359C722.402 858.452 707.896 863.999 690.829 863.999ZM1374.76 170.239C1358.55 170.239 1344.04 163.839 1331.24 151.039C1319.29 138.239 1313.75 123.732 1314.6 107.519L1315.88 60.159C1316.73 43.9457 1323.13 29.8657 1335.08 17.919C1347.03 5.97234 1361.11 -0.000991821 1377.32 -0.000991821C1393.53 -0.000991821 1407.61 6.399 1419.56 19.199C1432.36 31.999 1438.33 46.0791 1437.48 61.4391L1436.2 110.079C1435.35 127.146 1428.95 141.652 1417 153.599C1405.91 164.692 1391.83 170.239 1374.76 170.239ZM1368.36 862.719C1351.29 862.719 1336.36 856.746 1323.56 844.799C1311.61 831.999 1305.64 817.066 1305.64 799.999L1312.04 290.559C1312.04 273.492 1318.01 258.986 1329.96 247.039C1342.76 234.239 1357.69 227.839 1374.76 227.839C1392.68 227.839 1407.61 234.239 1419.56 247.039C1431.51 258.986 1437.48 273.492 1437.48 290.559L1431.08 799.999C1431.08 817.066 1424.68 831.999 1411.88 844.799C1399.93 856.746 1385.43 862.719 1368.36 862.719ZM1678.33 862.719C1662.12 862.719 1647.61 856.746 1634.81 844.799C1622.86 832.852 1616.89 819.199 1616.89 803.839V284.159C1616.89 267.092 1623.29 252.586 1636.09 240.639C1648.89 228.692 1663.82 222.719 1680.89 222.719C1697.1 222.719 1710.76 228.692 1721.85 240.639C1733.8 252.586 1739.77 267.092 1739.77 284.159V381.439C1763.66 330.239 1793.96 291.412 1830.65 264.959C1867.34 237.652 1907.45 223.999 1950.97 223.999C1998.76 223.999 2036.73 235.092 2064.89 257.279C2093.05 279.466 2113.53 316.159 2126.33 367.359C2139.13 417.706 2145.53 487.679 2145.53 577.279L2144.25 801.279C2144.25 817.492 2138.7 831.999 2127.61 844.799C2116.52 856.746 2102.44 862.719 2085.37 862.719C2069.16 862.719 2054.65 856.746 2041.85 844.799C2029.9 831.999 2023.93 817.919 2023.93 802.559V590.079C2023.93 523.519 2020.94 472.319 2014.97 436.479C2009 400.639 2000.04 376.319 1988.09 363.519C1976.14 349.866 1959.93 343.039 1939.45 343.039C1913.85 343.039 1888.25 354.132 1862.65 376.319C1837.05 397.652 1813.16 428.372 1790.97 468.479C1771.34 503.466 1757.69 537.599 1750.01 570.879C1742.33 604.159 1738.49 644.266 1738.49 691.199V798.719C1738.49 817.492 1732.94 832.852 1721.85 844.799C1711.61 856.746 1697.1 862.719 1678.33 862.719ZM2375.89 862.719C2360.53 862.719 2346.45 856.746 2333.65 844.799C2320.85 831.999 2314.45 817.492 2314.45 801.279L2311.89 62.719C2311.89 46.5057 2317.86 32.4257 2329.81 20.479C2342.61 8.53238 2357.54 2.55905 2374.61 2.55905C2392.53 2.55905 2407.04 8.95905 2418.13 21.759C2430.08 33.7057 2436.05 48.2124 2436.05 65.279L2437.33 479.999C2473.17 449.279 2514.98 409.599 2562.77 360.959C2610.56 312.319 2651.09 267.946 2684.37 227.839C2698.02 210.772 2714.66 202.239 2734.29 202.239C2751.36 202.239 2765.44 207.786 2776.53 218.879C2788.48 229.972 2794.45 244.052 2794.45 261.119C2794.45 275.626 2790.18 287.999 2781.65 298.239C2759.46 328.106 2731.3 360.959 2697.17 396.799C2663.89 432.639 2633.17 463.786 2605.01 490.239L2816.21 755.199C2827.3 767.999 2832.85 781.226 2832.85 794.879C2832.85 812.799 2826.88 828.159 2814.93 840.959C2803.84 852.906 2789.33 858.879 2771.41 858.879C2750.93 858.879 2734.72 851.626 2722.77 837.119C2656.21 747.519 2593.06 665.599 2533.33 591.359L2512.85 564.479C2494.93 578.132 2470.18 595.199 2438.61 615.679V801.279C2438.61 817.492 2432.64 831.999 2420.69 844.799C2408.74 856.746 2393.81 862.719 2375.89 862.719Z" fill="white"/>
</svg>
