<svg width="3684" height="3600" viewBox="0 0 3684 3600" fill="none" xmlns="http://www.w3.org/2000/svg">
<path d="M2341.4 1500.38C2617.61 1224.16 2617.61 776.336 2341.4 500.125C2065.19 223.913 1617.36 223.913 1341.15 500.125C1064.94 776.336 1064.94 1224.16 1341.15 1500.38C1617.36 1776.59 2065.19 1776.59 2341.4 1500.38Z" stroke="white" stroke-width="16" stroke-linecap="round" stroke-linejoin="round"/>
<path d="M1500.38 2111.33C1776.59 1835.12 1776.59 1387.29 1500.38 1111.08C1224.16 834.866 776.337 834.866 500.125 1111.08C223.914 1387.29 223.914 1835.12 500.125 2111.33C776.337 2387.54 1224.16 2387.54 1500.38 2111.33Z" stroke="white" stroke-width="16" stroke-linecap="round" stroke-linejoin="round"/>
<path d="M1821.65 3099.88C2097.86 2823.66 2097.86 2375.84 1821.65 2099.62C1545.44 1823.41 1097.61 1823.41 821.399 2099.62C545.187 2375.84 545.187 2823.66 821.399 3099.88C1097.61 3376.09 1545.44 3376.09 1821.65 3099.88Z" stroke="white" stroke-width="16" stroke-linecap="round" stroke-linejoin="round"/>
<path d="M2861 3099.81C3137.21 2823.6 3137.21 2375.77 2861 2099.56C2584.79 1823.35 2136.96 1823.35 1860.75 2099.56C1584.53 2375.77 1584.53 2823.6 1860.75 3099.81C2136.96 3376.02 2584.79 3376.02 2861 3099.81Z" stroke="white" stroke-width="16" stroke-linecap="round" stroke-linejoin="round"/>
<path d="M3183.83 2111.33C3460.04 1835.12 3460.04 1387.29 3183.83 1111.08C2907.62 834.866 2459.79 834.866 2183.58 1111.08C1907.37 1387.29 1907.37 1835.12 2183.58 2111.33C2459.79 2387.54 2907.62 2387.54 3183.83 2111.33Z" stroke="white" stroke-width="16" stroke-linecap="round" stroke-linejoin="round"/>
</svg>
