<svg width="4674" height="2153" viewBox="0 0 4674 2153" fill="none" xmlns="http://www.w3.org/2000/svg">
<path d="M8.3233 2135.58C3.90863 2135.4 0.185188 2138.84 0.00676789 2143.25C-0.171654 2147.67 3.26251 2151.39 7.67718 2151.57L8.3233 2135.58ZM1712.7 1785.11L1710.76 1777.35L1712.7 1785.11ZM4673.09 984.613C4674.34 980.376 4671.92 975.927 4667.68 974.676L4598.63 954.293C4594.39 953.042 4589.94 955.464 4588.69 959.701C4587.44 963.939 4589.86 968.388 4594.1 969.639L4655.48 987.757L4637.36 1049.14C4636.11 1053.38 4638.53 1057.83 4642.77 1059.08C4647.01 1060.33 4651.46 1057.91 4652.71 1053.67L4673.09 984.613ZM8.00024 2143.57C7.67718 2151.57 7.67917 2151.57 7.68203 2151.57C7.68416 2151.57 7.6879 2151.57 7.69214 2151.57C7.70062 2151.57 7.7126 2151.57 7.72806 2151.57C7.75898 2151.57 7.80383 2151.57 7.86248 2151.57C7.97979 2151.58 8.15235 2151.59 8.37926 2151.59C8.83308 2151.61 9.50435 2151.63 10.3859 2151.66C12.1491 2151.72 14.7535 2151.79 18.1423 2151.86C24.9198 2152.01 34.8355 2152.15 47.4333 2152.14C72.627 2152.13 108.559 2151.53 151.578 2149.16C237.574 2144.41 352.091 2132.59 465.834 2104.23L461.963 2088.71C349.541 2116.74 236.109 2128.47 150.697 2133.18C108.012 2135.53 72.3756 2136.13 47.4266 2136.14C34.953 2136.15 25.1539 2136.01 18.4843 2135.86C15.1496 2135.79 12.5976 2135.72 10.885 2135.67C10.0288 2135.64 9.38241 2135.62 8.95308 2135.6C8.73841 2135.6 8.57801 2135.59 8.47274 2135.59C8.42012 2135.58 8.38127 2135.58 8.35633 2135.58C8.34386 2135.58 8.33486 2135.58 8.32935 2135.58C8.32659 2135.58 8.32508 2135.58 8.3237 2135.58C8.32307 2135.58 8.3233 2135.58 8.00024 2143.57ZM465.834 2104.23C788.977 2023.66 1005.22 1884.87 1138.1 1723.68C1271 1562.46 1320.12 1379.29 1309.72 1210.85C1299.32 1042.54 1229.47 888.788 1124.26 786.344C1018.94 683.791 877.93 632.534 726.219 670.36L730.089 685.885C875.58 649.61 1011.08 698.471 1113.1 797.807C1215.23 897.252 1283.57 1047.16 1293.75 1211.84C1303.91 1376.39 1255.98 1555.53 1125.76 1713.5C995.516 1871.49 782.559 2008.77 461.963 2088.71L465.834 2104.23ZM726.219 670.36C574.499 708.188 474.936 819.49 432.567 959.022C390.247 1098.4 404.866 1266.07 481.032 1418.07C633.778 1722.89 1032.85 1963.26 1714.64 1792.87L1710.76 1777.35C1034.3 1946.41 643.903 1707.38 495.336 1410.9C420.845 1262.25 406.849 1098.79 447.877 963.671C488.857 828.71 584.607 722.158 730.089 685.885L726.219 670.36ZM1714.64 1792.87C2396.42 1622.48 2630.13 1224.31 2616.3 884.953C2609.4 715.763 2540.88 561.7 2436.28 459.134C2331.57 356.467 2190.47 305.282 2039.39 342.95L2043.26 358.475C2188.12 322.358 2323.69 371.149 2425.07 470.558C2526.56 570.067 2593.57 720.18 2600.31 885.604C2613.76 1215.47 2387.22 1608.29 1710.76 1777.35L1714.64 1792.87ZM2039.39 342.95C1888.31 380.618 1787.53 492.157 1743.15 632.056C1698.82 771.823 1710.64 940.107 1784.41 1092.69C1932.38 1398.73 2328.27 1639.87 3017.17 1468.11L3013.3 1452.59C2329.63 1623.05 1942.62 1383.16 1798.81 1085.72C1726.69 936.56 1715.39 772.492 1758.41 636.894C1801.37 501.429 1898.4 394.593 2043.26 358.475L2039.39 342.95ZM3017.17 1468.11C3689.79 1300.41 3932.88 899.908 3928.92 558.214C3926.94 387.794 3863.42 232.354 3761.4 128.972C3659.24 25.4452 3518.44 -25.8177 3363.17 12.8953L3367.04 28.4201C3516.19 -8.76782 3651.34 40.2233 3750.01 140.211C3848.82 240.343 3910.99 391.679 3912.92 558.4C3916.77 890.989 3680.5 1286.23 3013.3 1452.59L3017.17 1468.11ZM3363.17 12.8953C3207.86 51.6177 3109.51 162.549 3068.57 301.742C3027.71 440.705 3044 607.825 3117.22 760.355C3190.5 912.989 3320.9 1051.31 3508.7 1132.54C3696.51 1213.79 3941.19 1237.73 4242.71 1162.55L4238.84 1147.03C3940.11 1221.51 3699.1 1197.48 3515.05 1117.86C3330.97 1038.23 3203.34 902.769 3131.65 753.431C3059.91 603.988 3044.32 440.942 3083.92 306.255C3123.46 171.799 3217.92 65.5986 3367.04 28.4201L3363.17 12.8953ZM4242.71 1162.55C4342.86 1137.58 4449.53 1094.24 4531 1057.26C4571.77 1038.74 4606.3 1021.79 4630.65 1009.46C4642.83 1003.29 4652.46 998.276 4659.06 994.802C4662.36 993.065 4664.9 991.712 4666.61 990.792C4667.47 990.332 4668.13 989.98 4668.57 989.742C4668.79 989.623 4668.95 989.532 4669.07 989.471C4669.12 989.44 4669.17 989.417 4669.2 989.401C4669.21 989.393 4669.22 989.387 4669.23 989.383C4669.23 989.38 4669.24 989.379 4669.24 989.378C4669.24 989.376 4669.24 989.376 4665.42 982.349C4661.6 975.322 4661.6 975.322 4661.59 975.322C4661.59 975.323 4661.59 975.324 4661.59 975.326C4661.58 975.329 4661.57 975.334 4661.56 975.341C4661.53 975.355 4661.5 975.376 4661.44 975.405C4661.34 975.462 4661.18 975.549 4660.96 975.663C4660.54 975.893 4659.9 976.237 4659.06 976.689C4657.37 977.592 4654.87 978.927 4651.6 980.646C4645.08 984.084 4635.52 989.056 4623.43 995.181C4599.24 1007.43 4564.91 1024.29 4524.38 1042.69C4443.25 1079.52 4337.6 1122.4 4238.84 1147.03L4242.71 1162.55Z" fill="white"/>
</svg>
