<svg width="3600" height="3600" viewBox="0 0 3600 3600" fill="none" xmlns="http://www.w3.org/2000/svg">
<path d="M1800 8C2789.65 8 3592 810.355 3592 1800C3592 2789.78 2789.65 3592 1800 3592C810.354 3592 8 2789.71 8 1800C8 810.286 810.354 8 1800 8Z" stroke="white" stroke-width="16"/>
<path d="M3583.55 1792.51C3579.31 2787.53 2795.98 3592 1799.96 3592C1798.36 3592 1796.75 3592 1795.15 3591.99L1805.54 3580.53L1805.89 3580.14L1807.96 3577.85L1807.96 3574.77L1808.37 3209.02C1815.04 2719.96 2015.83 2369.6 2336.88 2139.55C2656.54 1910.51 3096.09 1800.29 3583.55 1792.51ZM16.0205 1792.01C503.008 1793 942.85 1903.32 1262.91 2134.17C1584.38 2366.03 1785.69 2719.95 1792.37 3209.02L1791.61 3575.14L1791.58 3591.98C799.523 3587.47 20.1999 2782.75 16.0205 1792.01Z" fill="white" stroke="white" stroke-width="16"/>
<path d="M1800 208C2679.19 208 3392 920.806 3392 1800C3392 2679.32 2679.19 3392 1800 3392C920.806 3392 208 2679.25 208 1800C208 920.745 920.806 208 1800 208Z" stroke="white" stroke-width="16"/>
<path d="M1800 408C2568.74 408 3192 1031.26 3192 1800C3192 2568.85 2568.74 3192 1800 3192C1031.26 3192 408 2568.8 408 1800C408 1031.2 1031.26 408 1800 408Z" stroke="white" stroke-width="16"/>
<path d="M1800 960C2126.94 960 2392 1225.06 2392 1552C2392 1878.98 2126.94 2144 1800 2144C1473.06 2144 1208 1878.96 1208 1552C1208 1225.04 1473.06 960 1800 960Z" stroke="white" stroke-width="16"/>
</svg>
