<svg width="87" height="90" viewBox="0 0 87 90" fill="none" xmlns="http://www.w3.org/2000/svg">
<path fill-rule="evenodd" clip-rule="evenodd" d="M49.691 84.3176H33.831C36.636 91.5546 46.886 91.5546 49.691 84.3176ZM81.891 4.81465C71.587 -5.49035 53.899 1.84765 53.899 16.4087C53.899 30.9697 71.587 38.3077 81.891 28.0037C88.294 21.5997 88.294 11.2177 81.891 4.81465ZM52.153 7.48065C44.691 22.6137 58.138 39.8707 74.749 36.1337C74.774 36.6417 74.787 37.1817 74.787 37.7527V65.5016C74.787 66.3926 75.398 67.1406 76.222 67.3516C78.421 67.9926 83.521 70.1727 83.521 71.9077C83.521 73.8597 79.191 75.8947 72.192 77.6057C55.46 81.6947 28.061 81.6947 11.328 77.6057C4.329 75.8947 0 73.8597 0 71.9077C0 71.3797 0.509 70.7556 1.447 70.0676C5.31 67.2346 8.73 67.9976 8.73 65.5016H8.733V37.7527C8.733 20.5577 22.687 6.43565 39.85 6.19665V1.92165C39.85 -0.592347 43.669 -0.592347 43.669 1.92165V6.19665C46.594 6.23565 49.402 6.66065 52.153 7.48065Z" fill="white"/>
<path d="M65.1683 22.1591C64.3539 22.1591 63.6342 22.0189 63.0092 21.7386C62.388 21.4583 61.9013 21.072 61.549 20.5795C61.1967 20.0871 61.0225 19.5265 61.0263 18.8977C61.0225 18.4053 61.1229 17.9527 61.3274 17.5398C61.5357 17.1231 61.8179 16.7765 62.174 16.5C62.5301 16.2197 62.9278 16.0417 63.3672 15.9659V15.8977C62.7876 15.7576 62.3236 15.447 61.9751 14.9659C61.6267 14.4848 61.4543 13.9318 61.4581 13.3068C61.4543 12.7121 61.6115 12.1818 61.9297 11.7159C62.2517 11.2462 62.6929 10.8769 63.2536 10.608C63.8142 10.339 64.4524 10.2045 65.1683 10.2045C65.8767 10.2045 66.5092 10.3409 67.0661 10.6136C67.6267 10.8826 68.0679 11.2519 68.3899 11.7216C68.7119 12.1875 68.8748 12.7159 68.8786 13.3068C68.8748 13.9318 68.6967 14.4848 68.3445 14.9659C67.9922 15.447 67.5339 15.7576 66.9695 15.8977V15.9659C67.4051 16.0417 67.7971 16.2197 68.1456 16.5C68.4979 16.7765 68.7782 17.1231 68.9865 17.5398C69.1986 17.9527 69.3066 18.4053 69.3104 18.8977C69.3066 19.5265 69.1286 20.0871 68.7763 20.5795C68.424 21.072 67.9354 21.4583 67.3104 21.7386C66.6892 22.0189 65.9751 22.1591 65.1683 22.1591ZM65.1683 20.7216C65.6494 20.7216 66.0661 20.642 66.4183 20.483C66.7706 20.3201 67.0433 20.0947 67.2365 19.8068C67.4297 19.5152 67.5282 19.1742 67.532 18.7841C67.5282 18.3788 67.4221 18.0208 67.2138 17.7102C67.0092 17.3996 66.7308 17.1553 66.3786 16.9773C66.0263 16.7992 65.6229 16.7102 65.1683 16.7102C64.71 16.7102 64.3028 16.7992 63.9467 16.9773C63.5907 17.1553 63.3104 17.3996 63.1058 17.7102C62.9013 18.0208 62.8009 18.3788 62.8047 18.7841C62.8009 19.1742 62.8937 19.5152 63.0831 19.8068C63.2763 20.0947 63.5509 20.3201 63.907 20.483C64.263 20.642 64.6835 20.7216 65.1683 20.7216ZM65.1683 15.3068C65.5547 15.3068 65.8975 15.2292 66.1967 15.0739C66.496 14.9186 66.7308 14.7027 66.9013 14.4261C67.0755 14.1496 67.1645 13.8258 67.1683 13.4545C67.1645 13.0909 67.0774 12.7727 66.907 12.5C66.7403 12.2273 66.5073 12.017 66.2081 11.8693C65.9089 11.7178 65.5623 11.642 65.1683 11.642C64.7668 11.642 64.4145 11.7178 64.1115 11.8693C63.8123 12.017 63.5793 12.2273 63.4126 12.5C63.246 12.7727 63.1645 13.0909 63.1683 13.4545C63.1645 13.8258 63.2479 14.1496 63.4183 14.4261C63.5888 14.7027 63.8236 14.9186 64.1229 15.0739C64.4259 15.2292 64.7744 15.3068 65.1683 15.3068ZM74.7891 20.0455V12.3636H76.3175V20.0455H74.7891ZM71.7152 16.9659V15.4432H79.397V16.9659H71.7152Z" fill="black"/>
</svg>
