<svg width="605" height="605" viewBox="0 0 605 605" fill="none" xmlns="http://www.w3.org/2000/svg">
<g clip-path="url(#clip0_1109_609)">
<path d="M0 144C0 64.4712 64.4712 0 144 0C223.529 0 288 64.4712 288 144V288H144C64.4712 288 0 223.529 0 144Z" fill="white"/>
<path d="M158.4 381.6C158.4 345.812 187.413 316.8 223.2 316.8H288V381.6C288 417.388 258.988 446.4 223.2 446.4C187.413 446.4 158.4 417.388 158.4 381.6Z" fill="white"/>
<path d="M316.8 223.2C316.8 187.412 345.812 158.4 381.6 158.4C417.388 158.4 446.4 187.412 446.4 223.2C446.4 258.988 417.388 288 381.6 288H316.8V223.2Z" fill="white"/>
<path d="M316.8 316.8H460.8C540.331 316.8 604.8 381.271 604.8 460.8C604.8 540.331 540.331 604.8 460.8 604.8C381.271 604.8 316.8 540.331 316.8 460.8V316.8Z" fill="white"/>
</g>
<defs>
<clipPath id="clip0_1109_609">
<rect width="604.8" height="604.8" fill="white"/>
</clipPath>
</defs>
</svg>
