<svg
  width="1260"
  height="1260"
  viewBox="0 0 1260 1260"
  fill="none"
  xmlns="http://www.w3.org/2000/svg"
>
  <path
    d="M0 300C0 134.315 134.315 0 300 0C465.685 0 600 134.315 600 300V600H300C134.315 600 0 465.685 0 300Z"
    fill="white"
  />
  <path
    d="M330 795C330 720.442 390.442 660 465 660H600V795C600 869.558 539.558 930 465 930C390.442 930 330 869.558 330 795Z"
    fill="white"
  />
  <path
    d="M660 465C660 390.442 720.442 330 795 330C869.558 330 930 390.442 930 465C930 539.558 869.558 600 795 600H660V465Z"
    fill="white"
  />
  <path
    d="M660 660H960C1125.69 660 1260 794.315 1260 960C1260 1125.69 1125.69 1260 960 1260C794.315 1260 660 1125.69 660 960V660Z"
    fill="white"
  />
</svg>
