<svg width="618" height="545" viewBox="0 0 618 545" fill="none" xmlns="http://www.w3.org/2000/svg">
<g clip-path="url(#clip0_3353_326)">
<mask id="mask0_3353_326" style="mask-type:luminance" maskUnits="userSpaceOnUse" x="0" y="0" width="618" height="545">
<path d="M618 0H0V545H618V0Z" fill="white"/>
</mask>
<g mask="url(#mask0_3353_326)">
<path d="M520.3 48.4H470.678C465.064 20.812 440.609 0 411.4 0C382.191 0 357.737 20.812 352.122 48.4H377.181C382.166 34.3156 395.622 24.2 411.4 24.2C427.178 24.2 440.634 34.3156 445.619 48.4H377.181C375.826 52.1873 375.1 56.265 375.1 60.5C375.1 80.5134 391.387 96.8 411.4 96.8C418.079 96.8 423.5 102.221 423.5 108.9C423.5 115.579 418.079 121 411.4 121C378.04 121 350.9 93.8597 350.9 60.5C350.9 56.3618 351.324 52.3083 352.122 48.4H326.688C321.073 20.812 296.619 0 267.41 0C238.201 0 213.746 20.812 208.132 48.4H233.191C238.176 34.3156 251.632 24.2 267.41 24.2C283.188 24.2 296.644 34.3156 301.629 48.4H233.191C231.836 52.1873 231.11 56.265 231.11 60.5C231.11 80.5134 247.397 96.8 267.41 96.8C274.089 96.8 279.51 102.221 279.51 108.9C279.51 115.579 274.089 121 267.41 121C234.05 121 206.91 93.8597 206.91 60.5C206.91 56.3618 207.333 52.3083 208.132 48.4H182.698C177.084 20.812 152.629 0 123.42 0C94.2106 0 69.7565 20.812 64.1421 48.4H89.2012C94.1864 34.3156 107.642 24.2 123.42 24.2C139.198 24.2 152.654 34.3156 157.639 48.4H89.2012C87.846 52.1873 87.12 56.265 87.12 60.5C87.12 80.5134 103.407 96.8 123.42 96.8C130.099 96.8 135.52 102.221 135.52 108.9C135.52 115.579 130.099 121 123.42 121C90.0603 121 62.92 93.8597 62.92 60.5C62.92 56.3618 63.3435 52.3083 64.1421 48.4H12.1C5.4208 48.4 0 53.8208 0 60.5V145.2H532.4V60.5C532.4 53.8208 526.979 48.4 520.3 48.4Z" fill="white"/>
<path d="M12.1 544.498C5.4208 544.498 0 539.078 0 532.398V169.398H532.4V532.398C532.4 539.078 526.979 544.498 520.3 544.498H12.1Z" fill="white"/>
<path d="M616.867 481.629L556.602 180.305V496.101H605.002C608.627 496.101 612.061 494.476 614.358 491.673C616.657 488.869 617.578 485.184 616.867 481.629Z" fill="white"/>
<path d="M366.246 404.901C368.673 409.322 368.575 414.553 365.99 418.895C363.415 423.237 358.867 425.813 353.816 425.813H177.177C172.126 425.813 167.578 423.237 165.003 418.895C162.428 414.553 162.329 409.322 164.746 404.901L171.968 391.608C177.197 382.006 179.95 371.171 179.95 360.257V322.539C179.95 275.377 218.337 237 265.496 237C312.654 237 351.042 275.377 351.042 322.569V360.287C351.042 371.202 353.794 382.037 359.023 391.639L366.245 404.932L366.246 404.901ZM265.496 477C289.746 477 309.745 458.408 311.993 434.735H218.999C221.248 458.409 241.246 477 265.496 477Z" fill="black"/>
</g>
</g>
<defs>
<clipPath id="clip0_3353_326">
<rect width="618" height="545" fill="white"/>
</clipPath>
</defs>
</svg>
