<svg width="968" height="968" viewBox="0 0 968 968" fill="none" xmlns="http://www.w3.org/2000/svg">
<path d="M381.848 586.157C266.458 544.374 184.02 433.808 184.02 303.994C184.02 138.301 318.321 4 484.014 4C649.707 4 784.008 138.301 784.008 303.994C784.008 433.808 701.546 544.374 586.156 586.157" stroke="white" stroke-width="8" stroke-linecap="round" stroke-linejoin="round"/>
<path d="M586.156 381.844C701.546 423.627 784.008 534.193 784.008 664.006C784.008 829.699 649.707 964.001 484.014 964.001C318.321 964.001 184.02 829.699 184.02 664.006C184.02 534.193 266.458 423.651 381.848 381.844" stroke="white" stroke-width="8" stroke-linecap="round" stroke-linejoin="round"/>
<path d="M381.848 381.863C423.631 266.474 534.197 184.035 664.01 184.035C829.703 184.035 964.004 318.337 964.004 484.029C964.004 649.722 829.703 784.024 664.01 784.024C534.197 784.024 423.631 701.561 381.848 586.172" stroke="white" stroke-width="8" stroke-linecap="round" stroke-linejoin="round"/>
<path d="M586.157 586.156C544.374 701.546 433.808 783.985 303.994 783.985C138.301 783.985 4 649.683 4 483.99C4 318.298 138.301 183.996 303.994 183.996C433.808 183.996 544.35 266.435 586.157 381.824" stroke="white" stroke-width="8" stroke-linecap="round" stroke-linejoin="round"/>
</svg>
