<svg width="3616" height="3616" viewBox="0 0 3616 3616" fill="none" xmlns="http://www.w3.org/2000/svg">
<path d="M1929.66 3486.3C1929.66 3553.49 1875.19 3607.96 1808 3607.96C1740.81 3607.96 1686.34 3553.49 1686.34 3486.3C1686.34 3419.11 1740.81 3364.64 1808 3364.64C1875.19 3364.64 1929.66 3419.11 1929.66 3486.3Z" stroke="white" stroke-width="16" stroke-miterlimit="10"/>
<path d="M2069.54 3346.45C2069.54 3490.9 1952.45 3607.99 1808 3607.99C1663.55 3607.99 1546.46 3490.9 1546.46 3346.45C1546.46 3202.01 1663.55 3084.91 1808 3084.91C1952.45 3084.91 2069.54 3202.01 2069.54 3346.45Z" stroke="white" stroke-width="16" stroke-miterlimit="10"/>
<path d="M2209.38 3206.58C2209.38 3428.26 2029.69 3607.97 1808 3607.97C1586.33 3607.97 1406.62 3428.26 1406.62 3206.58C1406.62 2984.9 1586.33 2805.2 1808 2805.2C2029.69 2805.2 2209.38 2984.9 2209.38 3206.58Z" stroke="white" stroke-width="16" stroke-miterlimit="10"/>
<path d="M2489.1 2926.86C2489.1 3303.02 2184.17 3607.96 1808 3607.96C1431.83 3607.96 1126.89 3303.02 1126.89 2926.86C1126.89 2550.69 1431.83 2245.74 1808 2245.74C2184.17 2245.74 2489.1 2550.69 2489.1 2926.86Z" stroke="white" stroke-width="16" stroke-miterlimit="10"/>
<path d="M2908.71 2507.28C2908.71 3115.2 2415.9 3608 1808 3608C1200.1 3608 707.289 3115.2 707.289 2507.28C707.289 1899.38 1200.1 1406.58 1808 1406.58C2415.9 1406.58 2908.71 1899.38 2908.71 2507.28Z" stroke="white" stroke-width="16" stroke-miterlimit="10"/>
<path d="M3608 1808C3608 2802.11 2802.11 3608 1808 3608C813.888 3608 8 2802.11 8 1808C8 813.887 813.888 8 1808 8C2802.11 8 3608 813.887 3608 1808Z" stroke="white" stroke-width="16" stroke-miterlimit="10"/>
</svg>
