<svg width="3600" height="3600" viewBox="0 0 3600 3600" fill="none" xmlns="http://www.w3.org/2000/svg">
<path d="M3035.25 564.702L3546.9 1799.94L3035.25 3035.18L1800.01 3546.83L564.771 3035.18L53.1172 1799.94L564.771 564.702L1800.01 53.0488L3035.25 564.702Z" stroke="white" stroke-width="16"/>
<path d="M1800 66.6562L1311.12 1266.65" stroke="white" stroke-width="16"/>
<path d="M1800 66.6562L2288.89 1266.65" stroke="white" stroke-width="16"/>
<path d="M1800 3533.23L2288.89 2333.24" stroke="white" stroke-width="16"/>
<path d="M1800 3533.23L1311.12 2333.24" stroke="white" stroke-width="16"/>
<path d="M66.6719 1799.89L1266.67 2288.77" stroke="white" stroke-width="16"/>
<path d="M66.6719 1800.01L1266.67 1311.12" stroke="white" stroke-width="16"/>
<path d="M3533.34 1800.01L2333.34 1311.12" stroke="white" stroke-width="16"/>
<path d="M3533.34 1799.89L2333.34 2288.77" stroke="white" stroke-width="16"/>
<path d="M574.346 574.304L1077.18 1768.53" stroke="white" stroke-width="16"/>
<path d="M574.357 574.414L1768.58 1077.24" stroke="white" stroke-width="16"/>
<path d="M3025.64 3025.59L2522.81 1831.37" stroke="white" stroke-width="16"/>
<path d="M3025.65 3025.65L1831.43 2522.82" stroke="white" stroke-width="16"/>
<path d="M574.357 3025.65L1768.58 2522.82" stroke="white" stroke-width="16"/>
<path d="M574.346 3025.59L1077.18 1831.37" stroke="white" stroke-width="16"/>
<path d="M3025.65 574.414L1831.43 1077.24" stroke="white" stroke-width="16"/>
<path d="M3025.64 574.304L2522.81 1768.53" stroke="white" stroke-width="16"/>
<path d="M1800 1011.15L1579.06 1553.45" stroke="white" stroke-width="16"/>
<path d="M1799.99 1011.15L2020.93 1553.45" stroke="white" stroke-width="16"/>
<path d="M1799.99 2577.87L2020.93 2035.56" stroke="white" stroke-width="16"/>
<path d="M1800 2577.87L1579.06 2035.56" stroke="white" stroke-width="16"/>
<path d="M1016.67 1794.38L1558.97 2015.32" stroke="white" stroke-width="16"/>
<path d="M1016.67 1794.46L1558.97 1573.52" stroke="white" stroke-width="16"/>
<path d="M2583.33 1794.46L2041.02 1573.52" stroke="white" stroke-width="16"/>
<path d="M2583.33 1794.38L2041.02 2015.32" stroke="white" stroke-width="16"/>
<path d="M1246.1 1240.6L1473.35 1780.3" stroke="white" stroke-width="16"/>
<path d="M1246.1 1240.5L1785.8 1467.74" stroke="white" stroke-width="16"/>
<path d="M2353.89 2348.42L2126.65 1808.72" stroke="white" stroke-width="16"/>
<path d="M2353.89 2348.35L1814.2 2121.11" stroke="white" stroke-width="16"/>
<path d="M1246.1 2348.35L1785.8 2121.11" stroke="white" stroke-width="16"/>
<path d="M1246.1 2348.42L1473.35 1808.72" stroke="white" stroke-width="16"/>
<path d="M2353.89 1240.5L1814.2 1467.74" stroke="white" stroke-width="16"/>
<path d="M2353.89 1240.6L2126.65 1780.3" stroke="white" stroke-width="16"/>
<circle cx="1800" cy="66.6665" r="58.6665" transform="rotate(90 1800 66.6665)" fill="white" stroke="white" stroke-width="16"/>
<circle cx="1800" cy="3533.24" r="58.6665" transform="rotate(90 1800 3533.24)" fill="white" stroke="white" stroke-width="16"/>
<circle cx="3533.33" cy="1800.03" r="58.6665" transform="rotate(-180 3533.33 1800.03)" fill="white" stroke="white" stroke-width="16"/>
<circle cx="66.6675" cy="1800.03" r="58.6665" transform="rotate(-180 66.6675 1800.03)" fill="white" stroke="white" stroke-width="16"/>
<circle cx="3025.66" cy="3025.74" r="58.6665" transform="rotate(-135 3025.66 3025.74)" fill="white" stroke="white" stroke-width="16"/>
<circle cx="574.35" cy="574.376" r="58.6665" transform="rotate(-135 574.35 574.376)" fill="white" stroke="white" stroke-width="16"/>
<circle cx="574.357" cy="3025.62" r="58.6665" transform="rotate(-45 574.357 3025.62)" fill="white" stroke="white" stroke-width="16"/>
<circle cx="3025.64" cy="574.281" r="58.6665" transform="rotate(-45 3025.64 574.281)" fill="white" stroke="white" stroke-width="16"/>
<circle cx="1800" cy="1077.81" r="58.6665" transform="rotate(90 1800 1077.81)" fill="white" stroke="white" stroke-width="16"/>
<circle cx="1800" cy="2522.28" r="58.6665" transform="rotate(90 1800 2522.28)" fill="white" stroke="white" stroke-width="16"/>
<circle cx="2522.22" cy="1800.04" r="58.6665" transform="rotate(-180 2522.22 1800.04)" fill="white" stroke="white" stroke-width="16"/>
<circle cx="1077.77" cy="1800.04" r="58.6665" transform="rotate(-180 1077.77 1800.04)" fill="white" stroke="white" stroke-width="16"/>
<circle cx="2310.68" cy="2310.81" r="58.6665" transform="rotate(-135 2310.68 2310.81)" fill="white" stroke="white" stroke-width="16"/>
<circle cx="1289.33" cy="1289.28" r="58.6665" transform="rotate(-135 1289.33 1289.28)" fill="white" stroke="white" stroke-width="16"/>
<circle cx="1289.31" cy="2310.72" r="58.6665" transform="rotate(-45 1289.31 2310.72)" fill="white" stroke="white" stroke-width="16"/>
<circle cx="2310.69" cy="1289.36" r="58.6665" transform="rotate(-45 2310.69 1289.36)" fill="white" stroke="white" stroke-width="16"/>
<path d="M2037.43 1562.51L2135.78 1799.94L2037.43 2037.38L1800 2135.73L1562.56 2037.38L1464.21 1799.94L1562.56 1562.51L1800 1464.16L2037.43 1562.51Z" stroke="white" stroke-width="16"/>
</svg>
