<svg width="600" height="600" viewBox="0 0 600 600" fill="none" xmlns="http://www.w3.org/2000/svg">
<path d="M54.3023 449.788C62.3628 434.12 72.0393 421.151 80.7914 415.537C101.212 402.439 122.63 394.92 147.807 399.776C166.021 403.291 180.958 411.82 193.969 423.885C202.516 431.812 208.103 442.441 212.545 453.304C214.65 458.456 216.472 463.971 217.022 469.461C218.221 481.433 218.953 493.487 219.102 505.52C219.405 529.866 219.25 554.222 219.139 578.574C219.118 583.126 218.417 587.674 218.043 592.095C226.703 593.921 265.647 594.213 279.281 592.641V582.234C279.281 551.436 279.602 520.634 279.175 489.841C278.86 467.063 280.836 444.253 277.455 421.482C276.146 412.661 273.784 404.258 270.622 396.17C264.751 381.145 255.572 368.321 243.88 356.892C222.461 335.956 196.509 326.896 167.386 325.311C162.208 325.03 156.941 326.951 151.699 327.055C144.86 327.191 138.46 328.833 132.132 331.082C117.342 336.339 103.886 343.568 91.871 354.061C81.5583 363.067 73.0032 373.132 66.7593 385.085C56.4073 404.905 51.8566 426.028 54.3023 449.788ZM346.025 593.21V581.892C346.025 519.558 345.897 457.222 346.129 394.89C346.177 382.046 344.903 369.465 341.629 357.146C335.362 333.562 324.335 312.412 307.709 294.407C296.296 282.05 282.961 272.428 268.037 264.352C251.942 255.645 234.899 250.339 217.221 248.167C201.415 246.226 185.043 246.411 169.357 250.196C143.581 256.416 120.121 267.763 100.542 285.94C82.3017 302.873 69.2552 323.504 61.1355 346.943C55.7553 362.466 52.4228 378.544 54.2879 396.596C57.3445 390.249 59.301 384.857 62.3432 380.169C67.7181 371.884 73.0265 363.361 79.6519 356.115C100.379 333.447 127.084 322.17 157.099 318.675C172.344 316.901 187.612 319.171 202.071 324.142C225.609 332.237 246.068 344.938 261.135 365.56C276.375 386.415 285.444 409.524 285.792 435.182C286.46 484.609 285.992 534.053 285.994 583.493V593.21H346.025ZM352.732 593.57C363.426 593.57 373.058 593.604 382.688 593.561C392.612 593.515 402.538 593.753 412.804 593.409V587.061C412.786 504.313 412.714 421.564 412.822 338.817C412.84 327.062 410.869 315.705 408.486 304.263C401.749 271.806 385.141 244.74 363.042 220.782C346.449 202.788 325.962 190.156 303.671 180.336C282.433 170.982 260.066 166.76 236.997 166.135C228.159 165.895 219.39 166.618 210.513 167.786C193.591 170.008 177.436 174.416 161.89 181.007C128.526 195.155 102.705 218.592 82.5813 248.26C73.2881 261.964 66.1951 276.894 61.8432 293.176C59.2992 302.694 57.321 312.197 55.4343 321.83C53.9688 329.317 53.9366 336.411 54.0119 344.589C57.8872 335.598 60.5551 327.055 65 319.565C75.5169 301.849 87.6034 285.481 104.355 272.625C117.706 262.377 131.6 253.501 147.395 247.983C165.14 241.78 183.414 237.977 202.425 238.874C209.495 239.209 216.465 239.764 223.52 240.738C237.67 242.695 251.048 246.883 263.778 252.758C291.507 265.552 313.379 285.127 329.671 311.158C344.269 334.484 352.553 359.585 352.65 387.063C352.874 451.898 352.729 516.736 352.732 581.573C352.734 585.138 352.732 588.703 352.732 593.57ZM548.18 593.235V559.227C548.18 503.695 548.628 448.16 548.054 392.634C547.463 336.887 550.67 281.089 546.066 225.398C545.457 218.026 544.865 210.563 543.217 203.385C537.77 179.625 529.744 156.714 517.901 135.331C508.119 117.633 496.993 100.751 482.534 86.4446C472.895 76.9222 463.22 67.33 452.614 58.9446C442.688 51.0876 431.867 44.1922 420.848 37.9072C399.313 25.6291 376.3 16.8068 351.937 12.0223C339.163 9.5137 326.331 7.00878 313.186 6.93535C293.644 6.82618 274.243 7.13054 254.893 11.0376C237.228 14.6045 219.962 19.4516 203.662 26.7053C182.972 35.9106 163.179 46.8172 145.595 61.6773C129.968 74.8829 115.528 89.0984 103.44 105.425C90.1816 123.333 79.0445 142.576 70.8478 163.503C61.6764 186.918 56.7603 211.215 53.8185 236.023C53.5749 238.07 54.1425 240.213 54.3325 242.314C55.4522 240.462 55.309 238.622 55.8197 236.987C66.5353 202.695 83.8191 172.058 108.997 146.428C119.363 135.876 131.453 126.858 143.461 118.104C173.795 95.9848 208.476 84.1956 245.351 80.3189C268.965 77.8373 293.067 78.6861 316.434 84.4535C351.227 93.0395 382.796 108.553 409.884 132.046C428.75 148.404 445.447 166.955 457.863 188.925C477.303 223.341 487.748 260.445 487.981 299.835C488.5 393.697 488.142 487.564 488.142 581.43V593.235H548.18ZM552.802 600H47.7306C47.4924 597.237 47.0513 594.516 47.0513 591.796C47.0263 476.12 46.894 360.444 47.1878 244.77C47.2398 224.707 51.4247 205.053 56.4395 185.588C64.0234 156.159 78.0324 129.856 94.82 104.884C98.7634 99.0218 103.617 93.711 108.452 88.52C117.142 79.1947 125.641 69.5684 135.528 61.5394C147.044 52.1853 158.663 42.6451 171.405 35.1802C194.888 21.4248 219.985 10.5594 246.729 5.23591C260.78 2.43921 275.11 -0.755316 289.827 0.159658C299.107 0.738018 308.456 0.139986 317.769 0.327962C334.051 0.653868 349.853 4.09176 365.591 7.9631C385.249 12.7994 403.631 20.8231 421.368 30.4027C439.517 40.2044 456.627 51.485 471.3 66.1536C476.532 71.3893 481.818 76.582 487.014 81.8536C515.733 110.979 534.097 146.198 545.779 184.866C550.867 201.673 553.053 219.176 552.999 237.092C552.623 353.841 552.802 470.591 552.802 587.341V600Z" fill="white"/>
</svg>
