<svg width="800" height="800" viewBox="0 0 800 800" fill="none" xmlns="http://www.w3.org/2000/svg">
<g clip-path="url(#clip0_3295_60)">
<mask id="mask0_3295_60" style="mask-type:luminance" maskUnits="userSpaceOnUse" x="0" y="0" width="800" height="800">
<path d="M800 0H0V800H800V0Z" fill="white"/>
</mask>
<g mask="url(#mask0_3295_60)">
<path d="M400 160C444.183 160 480 124.183 480 80C480 35.8172 444.183 0 400 0C355.817 0 320 35.8172 320 80C320 124.183 355.817 160 400 160Z" fill="white"/>
<path d="M77.9537 477.921C121.006 477.921 155.907 443.017 155.907 399.961C155.907 356.904 121.006 322 77.9537 322C34.9011 322 0 356.904 0 399.961C0 443.017 34.9011 477.921 77.9537 477.921Z" fill="white"/>
<path d="M720 480C764.183 480 800 444.183 800 400C800 355.817 764.183 320 720 320C675.817 320 640 355.817 640 400C640 444.183 675.817 480 720 480Z" fill="white"/>
<path d="M620 240C653.137 240 680 213.137 680 180C680 146.863 653.137 120 620 120C586.863 120 560 146.863 560 180C560 213.137 586.863 240 620 240Z" fill="white"/>
<path d="M620 680C653.137 680 680 653.137 680 620C680 586.863 653.137 560 620 560C586.863 560 560 586.863 560 620C560 653.137 586.863 680 620 680Z" fill="white"/>
<path d="M180 680C213.137 680 240 653.137 240 620C240 586.863 213.137 560 180 560C146.863 560 120 586.863 120 620C120 653.137 146.863 680 180 680Z" fill="white"/>
<path d="M180 240C213.137 240 240 213.137 240 180C240 146.863 213.137 120 180 120C146.863 120 120 146.863 120 180C120 213.137 146.863 240 180 240Z" fill="white"/>
<path d="M400 800C444.183 800 480 764.183 480 720C480 675.817 444.183 640 400 640C355.817 640 320 675.817 320 720C320 764.183 355.817 800 400 800Z" fill="white"/>
<path fill-rule="evenodd" clip-rule="evenodd" d="M400 260.005L402.606 266.638C424.014 321.405 457.761 367.622 500 399.998C457.761 432.266 424.014 478.6 402.606 533.357L400 540L397.394 533.366C375.986 478.6 342.239 432.383 300 400.002C342.239 367.734 375.986 321.4 397.394 266.643L400 260V260.005Z" fill="#CDA55F" stroke="white" stroke-miterlimit="10"/>
</g>
</g>
<defs>
<clipPath id="clip0_3295_60">
<rect width="800" height="800" fill="white"/>
</clipPath>
</defs>
</svg>
