<svg width="615" height="616" viewBox="0 0 615 616" fill="none" xmlns="http://www.w3.org/2000/svg">
<path d="M268.919 587.085C265.679 588.381 262.439 590.325 259.199 591.621C255.959 592.917 252.719 594.213 249.479 594.861C242.999 596.805 237.167 598.749 231.983 600.045C221.615 601.989 215.135 603.285 215.135 603.285C215.135 603.285 220.967 601.341 230.039 598.101C234.575 596.157 239.759 594.213 245.591 591.621C248.831 590.325 251.423 589.029 254.663 587.733C257.903 586.437 261.143 585.141 264.383 583.197C266.975 581.901 268.919 581.253 271.511 579.957C260.495 581.253 239.111 581.901 217.727 587.085C210.599 589.029 204.119 590.973 198.287 593.565C192.455 596.157 187.919 598.101 184.031 600.693C176.255 605.229 171.719 609.117 171.719 609.117C171.719 609.117 174.311 609.765 178.199 611.061C182.087 612.357 187.919 613.653 194.399 614.301C208.007 616.245 225.503 616.245 240.407 611.061C251.423 607.173 259.199 602.637 265.031 596.805C270.863 591.621 274.103 586.437 276.047 583.197C273.455 584.493 270.863 585.789 268.919 587.085Z" fill="white"/>
<path d="M192.455 563.755C189.215 564.403 185.327 564.403 182.087 565.051C178.847 565.051 175.607 565.699 172.367 565.699C165.887 566.347 160.055 565.699 155.519 565.051C150.335 564.403 146.447 564.403 143.855 563.755C141.263 563.107 139.319 563.107 139.319 563.107C139.319 563.107 140.615 563.107 143.207 563.107C145.799 563.107 149.687 562.459 154.223 562.459C158.759 561.811 164.591 561.811 170.423 561.163C176.255 560.515 182.735 559.867 189.863 559.219C192.455 559.219 195.047 558.571 196.991 557.923C191.807 557.275 184.679 554.683 174.959 553.387C170.423 552.739 165.887 551.443 160.703 550.795C155.519 550.147 150.335 549.499 145.151 549.499C138.023 548.851 131.543 549.499 125.711 550.147C119.879 550.795 114.695 551.443 110.807 552.739C102.383 554.683 97.1992 557.275 97.1992 557.275C97.1992 557.275 99.1432 558.571 102.383 560.515C105.623 562.459 110.159 565.699 116.639 567.643C122.471 570.235 129.599 572.827 136.727 574.771C143.855 576.715 151.631 577.363 159.407 577.363C170.423 576.715 179.495 574.123 185.975 571.531C192.455 568.291 197.639 564.403 200.231 561.811C196.991 562.459 195.047 563.107 192.455 563.755Z" fill="white"/>
<path d="M128.961 520.994C122.481 520.346 116.001 518.402 110.169 517.106C106.929 516.458 104.337 515.81 101.745 514.514C99.1533 513.866 96.5614 512.57 94.6174 511.922C90.0814 509.978 86.1934 508.682 84.2494 508.034C81.6574 506.738 80.3613 506.09 80.3613 506.09C80.3613 506.09 81.6574 506.738 84.2494 506.738C86.8414 507.386 90.0814 508.034 94.6174 509.33C99.1534 509.978 103.689 511.274 109.521 512.57C115.353 513.866 121.185 514.514 128.313 515.81C130.905 516.458 132.849 516.458 135.441 516.458C130.905 514.514 125.073 509.978 116.649 506.738C112.761 504.794 108.873 502.85 104.337 500.906C99.8014 498.962 95.2654 497.018 90.7294 495.722C84.2494 493.13 78.4173 491.834 72.5853 491.186C65.4573 489.89 60.9213 489.242 56.3853 489.242C47.9613 489.242 42.7773 489.89 42.7773 489.89C42.7773 489.89 44.0733 491.834 46.6653 494.426C49.2573 497.018 52.4973 500.906 57.6813 504.794C62.2173 508.682 68.0493 513.218 73.8813 516.458C80.3613 519.698 86.8414 522.938 93.9694 524.882C104.337 527.474 112.761 527.474 119.889 526.178C127.017 524.882 132.201 522.938 135.441 520.994C133.497 521.642 131.553 521.642 128.961 520.994Z" fill="white"/>
<path d="M82.3 465.275C79.06 463.979 76.468 462.683 73.876 461.387C71.284 460.091 68.692 458.147 66.1 456.851C60.916 453.611 56.38 451.019 53.14 448.427C46.012 443.243 41.476 439.355 41.476 439.355C41.476 439.355 46.012 441.947 53.788 445.835C57.028 447.779 62.212 449.723 66.748 452.315C71.932 454.907 77.116 457.499 82.948 460.091C84.892 460.739 86.836 462.035 89.428 462.683C87.484 460.739 85.54 458.795 82.948 456.851C80.356 454.259 77.764 451.667 74.524 449.075C68.044 443.891 60.916 437.411 53.14 432.227C47.308 428.987 42.772 425.747 37.588 423.155C33.052 421.211 28.516 419.267 24.628 417.971C16.852 416.027 11.668 415.379 11.668 415.379C11.668 415.379 15.556 423.155 22.036 432.227C23.98 437.411 28.516 442.595 33.052 447.779C35.644 450.371 38.236 452.315 40.828 454.907C43.42 456.851 46.66 458.795 49.252 460.739C66.1 471.107 81.652 469.163 88.132 468.515C86.188 467.219 84.244 465.923 82.3 465.275Z" fill="white"/>
<path d="M53.136 402.407C48.6 398.519 44.064 394.631 40.176 390.743C36.288 386.855 32.4 382.967 29.808 379.727C24.624 373.247 21.384 368.711 21.384 368.711C21.384 368.711 25.272 371.951 31.104 377.783C36.936 382.967 46.008 390.095 54.432 397.871C56.376 399.167 57.672 400.463 59.616 401.759C57.024 397.871 54.432 392.039 49.896 385.559C48.6 383.615 47.304 382.319 46.008 380.375C44.712 378.431 43.416 377.135 42.12 375.191C39.528 371.951 36.936 368.063 33.696 364.823C29.808 360.287 25.92 355.751 22.032 353.159C18.144 349.919 14.256 347.327 11.016 345.383C4.536 341.495 0 340.199 0 340.199C0 340.199 1.944 347.975 5.184 358.343C7.128 363.527 9.72 369.359 12.96 374.543C14.904 377.135 16.2 380.375 18.144 382.967C18.792 384.263 20.088 385.559 21.384 386.855C22.68 388.151 23.328 389.447 24.624 390.095C31.752 396.575 38.232 400.463 44.064 403.055C49.896 405.647 55.08 406.295 58.32 406.295C56.376 404.999 55.08 403.703 53.136 402.407Z" fill="white"/>
<path d="M41.4725 338.246C38.2325 333.71 34.9925 329.174 32.4005 324.638C29.8085 320.102 27.2165 316.214 25.2725 312.326C22.0325 305.198 20.0885 300.014 20.0885 300.014C20.0885 300.014 22.6805 303.902 27.2165 310.382C28.5125 311.678 29.1605 313.622 30.4565 315.566C31.7525 317.51 33.0485 319.454 34.9925 321.398C38.2325 325.286 40.8245 329.822 44.7125 334.358C46.0085 336.302 47.3045 337.598 48.6005 339.542C46.6565 331.118 41.4725 314.27 33.6965 299.366C30.4565 294.182 27.8645 289.646 25.2725 285.758C21.3845 281.222 18.1445 277.982 15.5525 275.39C10.3685 270.206 6.48047 268.262 6.48047 268.262C6.48047 268.262 6.48047 276.038 7.12847 285.758C7.77647 290.942 9.07247 296.774 10.3685 302.606C12.3125 308.438 14.2565 314.27 17.4965 319.454C22.0325 327.23 27.8645 332.414 32.4005 335.654C37.5845 339.542 42.1205 340.838 44.7125 342.134C44.0645 341.486 42.7685 339.542 41.4725 338.246Z" fill="white"/>
<path d="M45.3704 276.042C44.0744 273.45 43.4264 270.858 42.1304 268.914C41.4824 266.322 40.1864 263.73 39.5384 261.786C38.2424 257.25 36.9464 252.714 35.6504 248.826C35.0024 241.05 34.3544 236.514 34.3544 236.514C34.3544 236.514 35.6504 240.402 38.2424 247.53C40.8344 254.01 44.7224 263.73 48.6104 273.45C49.2584 275.394 50.5544 277.338 51.2024 278.634C50.5544 274.746 51.2024 268.266 49.9064 261.138C49.9064 257.898 48.6104 254.01 48.6104 250.122C47.9624 246.234 47.3144 242.346 46.0184 238.458C42.7784 227.442 38.8904 219.018 35.0024 213.834C31.1144 208.002 27.8744 205.41 27.8744 205.41C27.8744 205.41 25.9304 212.538 24.6344 221.61C23.9864 226.794 23.9864 231.978 24.6344 237.81C24.6344 240.402 25.2824 243.642 25.2824 246.234C25.9304 248.826 26.5784 252.066 27.8744 254.658C30.4664 262.434 34.3544 268.914 38.2424 272.802C42.1304 277.338 46.0184 279.93 48.6104 281.874C47.3144 279.93 46.6664 277.986 45.3704 276.042Z" fill="white"/>
<path d="M62.8589 220.316C60.2669 209.948 60.2669 200.228 59.6189 193.1C58.9709 185.972 59.6189 181.436 59.6189 181.436C59.6189 181.436 59.6189 182.732 60.2669 184.028C60.2669 185.972 60.9149 188.564 61.5629 191.804C62.2109 195.044 62.8589 198.932 63.5069 203.468C64.1549 208.004 64.8029 212.54 66.0989 217.724C66.7469 219.668 66.7469 221.612 67.3949 222.908C68.0429 219.02 68.6909 213.188 69.9869 206.708C70.6349 200.228 71.2829 192.452 70.6349 184.676C69.9869 174.308 67.3949 165.236 65.4509 159.404C62.8589 153.572 60.9149 150.332 60.9149 150.332C60.9149 150.332 60.2669 151.628 58.9709 154.22C57.6749 156.812 56.3789 160.7 55.0829 164.588C53.7869 169.124 52.4909 174.308 51.1949 179.492C50.5469 184.676 50.5469 190.508 50.5469 195.692C51.1949 199.58 51.8429 202.82 52.4909 206.06C53.7869 209.3 55.0829 211.892 56.3789 214.484C58.9709 219.02 62.2109 222.908 64.1549 224.852C63.5069 224.204 62.8589 222.26 62.8589 220.316Z" fill="white"/>
<path d="M88.7896 172.363C88.7896 167.827 89.4376 162.643 89.4376 158.755C89.4376 156.811 90.0856 154.219 90.0856 152.275C90.7336 150.331 90.7336 148.387 91.3816 147.091C92.6776 140.611 93.9736 136.075 93.9736 136.075C93.9736 136.075 93.9736 139.963 93.3256 146.443C93.3256 149.683 92.6776 153.571 92.6776 157.459C92.6776 161.995 92.6776 166.531 92.6776 171.067C92.6776 173.011 92.6776 174.307 92.6776 176.251C93.9736 173.011 95.9176 167.827 97.8616 161.995C99.8056 156.163 101.75 149.035 103.046 141.907C103.694 139.315 103.694 136.723 103.694 134.779C103.694 132.835 103.694 130.243 103.694 128.299C103.694 124.411 103.046 120.523 102.398 117.931C101.102 112.099 99.8056 108.211 99.8056 108.211C99.8056 108.211 95.9176 113.395 91.3816 120.523C89.4376 124.411 87.4936 128.947 85.5496 133.483C83.6056 138.019 82.3096 143.203 81.6616 148.387C80.3656 163.291 85.5496 173.659 88.1416 177.547C88.7896 176.251 88.7896 174.307 88.7896 172.363Z" fill="white"/>
<path d="M122.463 133.495C123.759 124.423 126.999 116.647 129.591 110.167C132.183 104.335 133.479 100.447 133.479 100.447C133.479 100.447 132.831 104.335 131.535 110.167C130.887 112.759 130.239 116.647 128.943 120.535C128.295 122.479 128.295 124.423 127.647 126.367C126.999 128.311 126.999 130.903 126.351 132.847C125.703 134.791 125.703 136.087 125.703 137.383C127.647 134.791 130.239 130.255 133.479 125.071C136.719 119.887 139.311 113.407 141.255 107.575C141.903 103.687 142.551 99.7989 141.903 96.5589C141.903 93.3189 141.255 90.0789 139.959 87.4869C138.663 82.3029 136.719 79.7109 136.719 79.7109C136.719 79.7109 136.071 80.3589 135.423 81.6549C134.775 82.9509 133.479 84.8949 132.183 87.4869C131.535 88.7829 130.887 90.0789 130.239 91.3749C129.591 92.0229 129.591 92.6709 128.943 93.9669C128.295 95.2629 127.647 95.9109 126.999 97.2069C124.407 101.095 122.463 105.631 121.167 110.167C119.871 113.407 119.223 116.647 119.223 119.239C119.223 122.479 119.223 125.071 119.223 127.663C119.871 132.199 121.167 136.087 121.815 138.679C121.815 136.735 121.815 135.439 122.463 133.495Z" fill="white"/>
<path d="M156.829 103.678C157.477 99.7901 158.125 95.9021 158.773 92.6621C159.421 89.4221 159.421 86.1821 160.069 83.5901C160.717 78.4061 160.717 75.1661 160.717 75.1661C160.717 75.1661 161.365 77.7581 161.365 82.9421C161.365 87.4781 161.365 94.6061 160.069 102.382C160.069 103.678 159.421 104.974 159.421 106.918C162.661 102.382 168.493 91.3661 168.493 79.7021C168.493 71.9261 165.901 66.0941 163.309 61.5581C160.717 57.0221 158.773 55.0781 158.773 55.0781C158.773 55.0781 158.125 57.0221 158.125 58.3181C157.477 59.6141 156.829 62.2061 156.181 64.1501C155.533 66.7421 154.885 69.9821 154.237 73.2221C153.589 76.4621 152.941 80.3501 152.941 83.5901C152.293 94.6061 154.885 103.678 156.829 108.214C156.829 106.918 156.829 104.974 156.829 103.678Z" fill="white"/>
<path d="M182.732 73.8722C182.732 69.9842 182.084 66.7442 182.084 63.5042C182.084 60.2642 181.436 57.6722 181.436 55.0802C181.436 52.4882 180.788 50.5442 180.788 49.2482C180.788 47.9522 180.788 47.3042 180.788 47.3042C180.788 47.3042 182.084 49.8962 182.732 54.4322C184.028 58.9682 185.324 65.4482 185.972 72.5762C185.972 73.8722 185.972 75.1682 185.972 76.4642C187.916 71.2802 191.156 60.2642 188.564 49.8962C187.268 42.7682 183.38 37.5842 180.14 34.3442C176.9 31.1042 174.308 29.1602 174.308 29.1602C174.308 29.1602 174.308 29.8082 173.66 31.7522C173.66 33.0482 173.012 34.9922 173.012 37.5842C173.012 40.1762 173.012 42.7682 173.012 46.0082C173.012 49.2482 173.012 52.4882 173.66 55.7282C175.604 65.4482 179.492 73.2242 182.084 77.1122C182.732 76.4642 182.732 75.1682 182.732 73.8722Z" fill="white"/>
<path d="M273.457 555.339C270.865 552.747 268.921 550.803 266.329 548.211C264.385 545.619 262.441 543.675 260.497 541.731C256.609 537.195 253.369 533.955 250.777 530.715C245.593 524.235 242.353 520.348 242.353 520.348C242.353 520.348 244.297 524.883 248.833 532.011C250.777 535.899 253.369 539.787 257.257 544.323C259.201 546.267 260.497 548.859 263.089 551.451C265.033 554.043 266.977 556.635 269.569 558.579C271.513 560.523 272.809 561.819 274.753 563.763C265.033 561.171 246.241 550.803 235.873 535.251C232.633 529.419 230.041 524.235 228.745 519.051C227.449 513.867 226.801 508.683 226.801 504.795C226.801 496.371 228.097 491.188 228.097 491.188C228.097 491.188 229.393 491.835 231.337 493.779C233.281 495.075 235.873 497.668 239.113 500.908C245.593 506.739 253.369 514.515 261.145 524.883C271.513 539.787 277.345 554.691 279.289 562.468C276.697 559.228 274.753 557.283 273.457 555.339Z" fill="white"/>
<path d="M205.409 535.903C204.113 533.311 202.169 530.071 200.873 527.479C199.577 524.887 198.281 522.295 196.985 519.703C194.393 515.167 192.449 509.983 191.153 506.743C189.857 502.855 188.561 500.263 187.265 497.671C186.617 495.727 185.969 494.431 185.969 494.431C185.969 494.431 185.969 495.727 186.617 497.671C187.265 499.615 187.913 502.855 188.561 506.743C189.857 510.631 190.505 515.167 192.449 520.351C194.393 525.535 196.985 530.719 199.577 536.551C200.873 538.495 201.521 540.439 202.817 542.383C198.929 539.791 193.745 534.607 187.913 528.127C185.321 524.887 182.729 520.999 180.785 517.111C178.841 513.223 176.897 509.335 175.601 504.799C173.657 498.967 173.009 493.135 173.657 487.951C173.657 482.767 174.953 478.231 175.601 474.343C177.545 466.567 180.137 462.031 180.137 462.031C180.137 462.031 180.785 463.327 182.081 465.271C183.377 467.215 185.321 470.455 187.265 473.695C189.209 476.935 191.801 481.471 194.393 486.007C196.985 490.543 198.929 495.727 200.873 501.559C204.113 509.335 205.409 517.759 206.057 524.239C206.705 530.719 207.353 536.551 206.705 540.439C207.353 539.791 206.705 537.847 205.409 535.903Z" fill="white"/>
<path d="M148.388 498.97C147.092 493.138 146.444 487.306 145.148 482.122C144.5 479.53 144.5 476.938 143.852 474.994C143.852 472.402 143.204 470.458 143.204 468.514C142.556 464.626 142.556 461.386 141.908 459.442C141.908 457.498 141.26 456.202 141.26 456.202C141.26 456.202 141.26 457.498 140.612 459.442C140.612 461.386 139.964 464.626 139.964 468.514C139.964 472.402 139.964 476.938 139.964 482.122C140.612 487.306 141.26 493.138 141.908 498.97C142.556 501.562 142.556 503.506 143.204 505.45C139.964 502.21 136.724 495.73 133.484 488.602C131.54 485.362 130.892 480.826 129.596 476.938C128.948 472.402 127.652 468.514 127.652 463.978C127.652 458.146 128.948 452.314 130.244 447.778C131.54 443.242 134.132 438.706 135.428 435.466C139.316 428.986 143.204 425.098 143.204 425.098C143.204 425.098 143.852 426.394 144.5 428.338C145.148 430.282 145.796 434.17 147.092 437.41C148.388 441.298 149.036 445.834 150.332 451.018C151.628 456.202 152.276 461.386 152.276 467.218C152.924 475.642 152.276 483.418 150.98 489.898C150.332 496.378 148.388 501.562 147.74 504.802C149.684 502.858 149.036 500.914 148.388 498.97Z" fill="white"/>
<path d="M106.265 449.707C106.265 447.115 106.913 443.875 106.913 441.283C107.561 438.691 107.561 436.099 107.561 433.507C108.209 428.323 108.857 423.787 108.857 420.547C110.153 413.419 110.801 408.235 110.801 408.235C110.801 408.235 108.857 412.123 106.913 419.251C105.617 423.139 104.969 427.027 103.673 431.563C103.025 436.099 101.729 441.931 101.081 447.763C101.081 449.707 101.081 452.299 100.433 454.243C99.7849 452.299 98.4889 449.707 97.8409 446.467C97.1929 443.227 96.5449 439.987 95.8969 436.099C94.6009 428.971 95.2489 419.899 97.1929 412.123C98.4889 406.939 101.081 401.755 103.673 397.867C106.265 393.979 108.857 390.739 111.449 388.147C116.633 382.963 120.521 380.371 120.521 380.371C120.521 380.371 121.169 385.555 121.169 393.331C121.169 397.219 121.169 401.755 120.521 406.939C120.521 409.531 119.873 412.123 119.873 414.715C119.225 417.307 119.225 419.899 118.577 422.491C115.337 438.043 108.209 450.355 104.321 456.187C106.265 454.243 106.265 452.299 106.265 449.707Z" fill="white"/>
<path d="M79.7008 393.983C81.6448 388.799 83.5888 383.615 85.5328 379.079C87.4768 374.543 88.7728 370.655 90.0688 367.415C92.6608 360.935 94.6048 357.047 94.6048 357.047C94.6048 357.047 92.0128 360.287 88.1248 366.119C84.2368 371.951 80.3488 380.375 75.8128 391.391C75.1648 393.335 74.5168 395.279 73.8688 397.223C73.2208 393.335 73.2208 386.207 73.8688 379.079C73.8688 377.135 74.5168 375.191 74.5168 373.895C75.1648 371.951 75.8128 370.007 75.8128 368.063C77.1088 364.175 78.4048 360.287 80.3488 357.047C82.9408 352.511 86.1808 348.623 89.4208 345.383C92.6608 342.143 95.9008 340.199 99.1408 338.255C104.973 335.015 109.509 333.719 109.509 333.719C109.509 333.719 108.861 338.903 106.917 346.031C105.621 349.919 104.973 353.807 103.677 358.343C103.029 360.287 102.381 362.879 101.085 365.471C99.7888 368.063 99.1408 370.007 97.8448 372.599C94.6048 379.727 90.7168 385.559 86.8288 390.095C82.9408 394.631 79.7008 398.519 77.1088 400.463C78.4048 397.871 79.0528 395.927 79.7008 393.983Z" fill="white"/>
<path d="M68.6836 336.306C71.9236 331.77 74.5156 327.882 77.1076 323.994C79.6996 320.106 81.6436 316.866 84.2356 314.274C88.1236 309.09 90.7156 305.202 90.7156 305.202C90.7156 305.202 87.4756 307.794 82.9396 312.33C81.6436 313.626 80.3476 314.922 79.0516 316.218C77.7556 317.514 76.4596 319.458 75.1636 320.754C72.5716 323.994 69.3316 327.882 66.0916 332.418C64.7956 334.362 64.1476 335.658 62.8516 337.602C64.1476 329.826 68.0356 313.626 79.0516 301.962C82.2916 298.074 86.1796 295.482 90.0676 292.89C93.9556 290.946 97.1956 289.002 100.436 288.354C106.916 286.41 110.804 286.41 110.804 286.41C110.804 286.41 109.508 290.946 105.62 297.426C103.676 300.666 102.38 304.554 99.7876 308.442C97.1956 312.33 93.9556 316.218 91.3636 320.106C86.8276 325.938 81.6436 330.474 77.1076 333.714C72.5716 336.954 68.6836 339.546 65.4436 340.842C66.7396 339.546 67.3876 338.25 68.6836 336.306Z" fill="white"/>
<path d="M71.2656 280.588C73.2096 278.644 75.1536 277.348 76.4496 275.404C78.3936 274.108 79.6896 272.164 81.6336 270.868C84.8736 268.276 87.4656 265.684 90.0576 263.092C95.2416 259.204 98.4816 256.612 98.4816 256.612C98.4816 256.612 95.2416 258.556 89.4096 261.796C84.2256 265.036 77.0976 270.22 69.3216 277.348C68.0256 278.644 66.7296 279.94 65.4336 281.236C66.7296 277.348 69.3216 272.164 73.2096 266.98C75.1536 264.388 77.0976 261.148 79.6896 259.204C82.2816 256.612 84.8736 254.02 88.1136 252.076C95.8896 246.244 104.962 244.948 110.794 244.3C117.274 243.652 121.162 244.3 121.162 244.3C121.162 244.3 118.57 248.188 114.034 253.372C112.09 255.964 109.498 259.204 106.258 262.444C104.962 263.74 103.018 265.684 101.074 266.98C99.1296 268.276 97.8336 270.22 95.8896 271.516C90.7056 276.052 84.2256 278.644 79.6896 280.588C74.5056 282.532 70.6176 283.828 67.3776 284.476C68.6736 283.18 69.9696 281.884 71.2656 280.588Z" fill="white"/>
<path d="M85.5278 230.035C93.3038 224.851 101.728 220.963 106.912 217.723C112.096 214.483 115.984 213.187 115.984 213.187C115.984 213.187 115.336 213.187 113.392 213.835C111.448 214.483 109.504 215.131 106.912 215.779C104.32 217.075 101.08 218.371 97.1918 219.667C93.3038 221.611 89.4157 223.555 84.8797 225.499C83.5837 226.147 81.6398 227.443 80.3438 228.091C82.2878 224.851 85.5278 220.963 90.0638 216.427C94.5997 212.539 99.7838 208.003 106.912 205.411C115.984 202.171 123.76 201.523 129.592 202.171C135.424 202.819 139.312 204.763 139.312 204.763C139.312 204.763 138.664 205.411 136.72 206.707C135.424 208.003 133.48 209.947 130.888 211.891C128.296 213.835 125.056 216.427 121.816 218.371C118.576 220.963 114.688 222.907 110.8 224.851C107.56 226.147 104.968 227.443 101.728 228.091C99.1357 228.739 96.5438 229.387 93.9518 230.035C88.7678 231.331 84.8797 231.331 81.6397 231.331C82.9357 231.979 84.2318 231.331 85.5278 230.035Z" fill="white"/>
<path d="M108.848 186.627C113.384 185.331 117.272 184.036 121.16 182.74C123.104 182.092 124.4 181.444 126.344 180.796C128.288 180.148 129.584 180.148 130.88 179.5C136.712 177.556 139.952 176.907 139.952 176.907C139.952 176.907 136.712 176.908 130.88 177.556C128.288 178.204 124.4 178.204 121.16 179.5C117.272 180.148 113.384 181.444 108.848 182.74C107.552 183.388 105.608 184.036 104.312 184.036C106.904 181.444 110.792 178.204 115.976 174.964C121.16 171.724 126.992 169.132 133.472 167.836C135.416 167.188 138.008 167.188 139.952 167.188C141.896 167.188 143.84 167.188 145.784 167.188C149.672 167.835 152.912 168.484 155.504 169.132C160.688 171.076 163.928 173.02 163.928 173.02C163.928 173.02 160.688 175.612 154.856 178.204C151.616 179.5 149.024 181.444 145.136 182.74C141.248 184.036 137.36 185.331 133.472 186.627C121.808 189.867 110.144 188.572 104.96 187.276C106.256 187.276 107.552 187.275 108.848 186.627Z" fill="white"/>
<path d="M138.677 150.337C147.101 149.041 154.877 148.393 160.061 147.745C165.245 147.097 169.133 146.449 169.133 146.449C169.133 146.449 165.893 145.801 160.709 145.801C158.117 145.801 154.877 145.801 150.989 145.801C149.045 145.801 147.101 145.801 145.157 145.801C143.213 145.801 141.269 146.449 139.325 146.449C138.029 146.449 136.085 147.097 134.789 147.097C139.973 143.209 152.285 138.025 163.949 137.377C168.485 136.729 173.021 136.729 176.909 137.377C180.797 137.377 184.037 138.025 187.277 138.673C193.109 139.969 196.349 141.265 196.349 141.265C196.349 141.265 195.053 141.913 193.109 143.857C190.517 145.801 187.925 147.745 184.037 149.689C182.093 150.337 180.149 151.633 178.205 152.281C176.909 152.929 176.261 152.929 174.965 153.577C174.317 153.577 173.021 154.225 172.373 154.225C169.133 154.873 164.597 155.521 160.709 155.521C157.469 155.521 154.877 155.521 152.285 154.873C149.693 154.873 147.101 154.225 145.157 153.577C140.621 152.929 137.381 151.633 134.789 150.337C135.437 150.985 137.381 150.985 138.677 150.337Z" fill="white"/>
<path d="M173.019 120.545C177.555 119.897 181.444 118.601 185.332 117.953C189.22 116.657 192.46 115.361 195.052 114.713C200.884 112.769 204.123 110.825 204.123 110.825C204.123 110.825 200.884 111.473 195.052 112.769C189.22 114.065 182.091 116.009 173.667 117.305C172.371 117.305 170.428 117.953 169.132 117.953C174.316 114.713 185.979 108.233 197.643 103.697C206.067 100.457 213.195 99.8086 218.379 99.8086C223.563 99.8086 226.803 100.457 226.803 100.457C226.803 100.457 226.156 101.753 224.212 103.049C222.916 104.993 220.323 106.937 217.083 109.529C213.843 112.121 210.603 114.713 206.715 116.657C202.827 119.249 198.292 121.193 193.756 122.489C180.796 126.377 171.075 123.137 167.188 121.193C169.779 121.193 171.075 120.545 173.019 120.545Z" fill="white"/>
<path d="M200.884 86.1913C204.772 84.8953 208.012 82.9513 211.252 81.0073C214.492 79.0633 217.084 77.7672 219.676 75.8232C222.268 74.5272 224.212 73.2313 225.508 71.9353C226.804 70.6393 227.452 70.6392 227.452 70.6392C227.452 70.6392 224.86 71.9352 219.676 74.5273C215.14 77.1193 208.66 79.7113 200.884 82.9513C199.588 83.5993 198.292 84.2473 196.996 84.8953C201.532 81.0073 209.956 71.9352 220.324 66.1032C227.452 61.5672 233.932 59.6232 238.468 58.3272C243.652 57.0312 246.244 57.0312 246.244 57.0312C246.244 57.0312 245.596 58.3273 244.3 60.2713C243.004 62.2153 241.708 64.8072 239.116 67.3992C237.172 69.9912 233.932 73.2313 231.34 76.4713C228.1 79.0633 224.86 81.6553 220.972 84.2473C209.956 90.0793 200.884 89.4313 196.348 88.7833C198.292 86.8393 199.588 86.1913 200.884 86.1913Z" fill="white"/>
<path d="M204.776 53.784C208.664 46.008 211.256 38.232 213.2 33.048C214.496 30.456 215.144 27.864 215.792 26.568C216.44 25.272 216.44 23.976 216.44 23.976C216.44 23.976 216.44 24.624 215.792 26.568C215.792 27.864 215.144 30.456 214.496 33.048C213.2 38.88 210.608 46.656 206.72 54.432C206.072 55.728 205.424 57.024 204.776 58.968C208.664 55.08 217.088 46.008 220.976 33.048C223.568 24.624 223.568 16.2 222.92 9.72C222.272 3.888 220.976 0 220.976 0C220.976 0 219.032 3.24 216.44 9.072C213.848 14.256 210.608 21.384 208.016 29.808C204.128 41.472 203.48 53.136 202.832 58.32C203.48 57.024 204.128 55.08 204.776 53.784Z" fill="white"/>
<path d="M202.175 68.6968C195.047 81.6568 186.623 93.3208 176.903 104.337C172.367 109.521 166.535 114.705 161.351 119.889C158.759 122.481 155.519 124.425 152.927 127.017L145.151 133.497C123.767 151.641 105.623 173.673 91.3674 198.297C77.1114 222.921 67.3914 249.489 62.2074 276.705C57.0234 304.569 57.0234 333.081 61.5594 360.297C70.6314 416.025 98.4954 467.865 139.967 505.449C160.703 524.241 184.679 539.145 210.599 550.161C236.519 561.177 264.383 567.009 292.247 568.953C296.135 568.953 298.727 571.545 298.727 574.137C298.727 576.729 295.487 578.673 291.599 578.673C262.439 576.729 233.927 570.249 207.359 559.233C180.791 547.569 156.167 532.017 134.135 512.577C91.3674 473.697 62.2074 419.265 53.7834 362.241C49.2474 333.729 49.8954 304.569 55.0794 276.057C60.2634 247.545 70.6314 220.329 85.5354 195.057C99.7914 169.785 118.583 147.753 140.615 128.961L149.039 121.833C151.631 119.889 154.223 117.297 156.815 115.353C161.999 110.817 167.183 105.633 171.719 100.449C180.791 90.0808 189.215 78.4168 196.343 66.7528C197.639 64.8088 199.583 63.5128 201.527 64.1608C203.471 64.1608 203.471 66.7528 202.175 68.6968Z" fill="white"/>
<path d="M340.867 555.339C343.459 552.747 345.403 550.803 347.995 548.211C349.939 545.619 351.883 543.675 353.827 541.731C357.715 537.195 360.955 533.955 363.547 530.715C368.731 524.235 371.971 520.348 371.971 520.348C371.971 520.348 370.027 524.883 365.491 532.011C363.547 535.899 360.955 539.787 357.067 544.323C355.123 546.267 353.827 548.859 351.235 551.451C349.291 554.043 347.347 556.635 344.755 558.579C342.811 560.523 341.515 561.819 339.571 563.763C349.291 561.171 368.083 550.803 378.451 535.251C381.691 529.419 384.283 524.235 385.579 519.051C386.875 513.867 387.523 508.683 387.523 504.795C387.523 496.371 386.227 491.188 386.227 491.188C386.227 491.188 384.931 491.835 382.987 493.779C381.043 495.075 378.451 497.668 375.211 500.908C368.731 506.739 360.955 514.515 353.179 524.883C342.811 539.787 336.979 554.691 335.035 562.468C337.627 559.228 339.571 557.283 340.867 555.339Z" fill="white"/>
<path d="M408.92 535.903C410.216 533.311 412.16 530.071 413.456 527.479C414.752 524.887 416.048 522.295 417.344 519.703C419.936 515.167 421.88 509.983 423.176 506.743C424.472 502.855 425.768 500.263 427.064 497.671C427.712 495.727 428.36 494.431 428.36 494.431C428.36 494.431 428.36 495.727 427.712 497.671C427.064 499.615 426.416 502.855 425.768 506.743C424.472 510.631 423.824 515.167 421.88 520.351C419.936 525.535 417.344 530.719 414.752 536.551C413.456 538.495 412.808 540.439 411.512 542.383C415.4 539.791 420.584 534.607 426.416 528.127C429.008 524.887 431.6 520.999 433.544 517.111C435.488 513.223 437.432 509.335 438.728 504.799C440.672 498.967 441.32 493.135 440.672 487.951C440.672 482.767 439.376 478.231 438.728 474.343C436.784 466.567 434.192 462.031 434.192 462.031C434.192 462.031 433.544 463.327 432.248 465.271C430.952 467.215 429.008 470.455 427.064 473.695C425.12 476.935 422.528 481.471 419.936 486.007C417.344 490.543 415.4 495.727 413.456 501.559C410.216 509.335 408.92 517.759 408.272 524.239C407.624 530.719 406.976 536.551 407.624 540.439C406.976 539.791 407.624 537.847 408.92 535.903Z" fill="white"/>
<path d="M465.943 498.97C467.239 493.138 467.887 487.306 469.183 482.122C469.831 479.53 469.831 476.938 470.479 474.994C470.479 472.402 471.127 470.458 471.127 468.514C471.775 464.626 471.775 461.386 472.423 459.442C472.423 457.498 473.071 456.202 473.071 456.202C473.071 456.202 473.071 457.498 473.719 459.442C473.719 461.386 474.367 464.626 474.367 468.514C474.367 472.402 474.367 476.938 474.367 482.122C473.719 487.306 473.071 493.138 472.423 498.97C471.775 501.562 471.775 503.506 471.127 505.45C474.367 502.21 477.607 495.73 480.847 488.602C482.791 485.362 483.439 480.826 484.735 476.938C485.383 472.402 486.679 468.514 486.679 463.978C486.679 458.146 485.383 452.314 484.087 447.778C482.791 443.242 480.199 438.706 478.903 435.466C475.015 428.986 471.127 425.098 471.127 425.098C471.127 425.098 470.479 426.394 469.831 428.338C469.183 430.282 468.535 434.17 467.239 437.41C465.943 441.298 465.295 445.834 463.999 451.018C462.703 456.202 462.055 461.386 462.055 467.218C461.407 475.642 462.055 483.418 463.351 489.898C463.999 496.378 465.943 501.562 466.591 504.802C464.647 502.858 465.295 500.914 465.943 498.97Z" fill="white"/>
<path d="M508.041 449.707C508.041 447.115 507.393 443.875 507.393 441.283C506.745 438.691 506.745 436.099 506.745 433.507C506.097 428.323 505.449 423.787 505.449 420.547C504.153 413.419 503.505 408.235 503.505 408.235C503.505 408.235 505.449 412.123 507.393 419.251C508.689 423.139 509.337 427.027 510.633 431.563C511.281 436.099 512.577 441.931 513.225 447.763C513.225 449.707 513.225 452.299 513.873 454.243C514.521 452.299 515.817 449.707 516.465 446.467C517.113 443.227 517.761 439.987 518.409 436.099C519.705 428.971 519.057 419.899 517.113 412.123C515.817 406.939 513.225 401.755 510.633 397.867C508.041 393.979 505.449 390.739 502.857 388.147C497.673 382.963 493.785 380.371 493.785 380.371C493.785 380.371 493.137 385.555 493.137 393.331C493.137 397.219 493.137 401.755 493.785 406.939C493.785 409.531 494.433 412.123 494.433 414.715C495.081 417.307 495.081 419.899 495.729 422.491C498.969 438.043 506.097 450.355 509.985 456.187C508.041 454.243 508.041 452.299 508.041 449.707Z" fill="white"/>
<path d="M534.62 393.983C532.676 388.799 530.732 383.615 528.788 379.079C526.844 374.543 525.548 370.655 524.252 367.415C521.66 360.935 519.716 357.047 519.716 357.047C519.716 357.047 522.308 360.287 526.196 366.119C530.084 371.951 533.972 380.375 538.508 391.391C539.156 393.335 539.804 395.279 540.452 397.223C541.1 393.335 541.1 386.207 540.452 379.079C540.452 377.135 539.804 375.191 539.804 373.895C539.156 371.951 538.508 370.007 538.508 368.063C537.212 364.175 535.916 360.287 533.972 357.047C531.38 352.511 528.14 348.623 524.9 345.383C521.66 342.143 518.42 340.199 515.18 338.255C508.052 334.367 503.516 333.719 503.516 333.719C503.516 333.719 504.164 338.903 506.108 346.031C507.404 349.919 508.052 353.807 509.348 358.343C509.996 360.287 510.644 362.879 511.94 365.471C513.236 368.063 513.884 370.007 515.18 372.599C518.42 379.727 522.308 385.559 526.196 390.095C530.084 394.631 533.324 398.519 535.916 400.463C535.916 397.871 535.268 395.927 534.62 393.983Z" fill="white"/>
<path d="M545.636 336.306C542.396 331.77 539.804 327.882 537.212 323.994C534.62 320.106 532.676 316.866 530.084 314.274C526.196 309.09 523.604 305.202 523.604 305.202C523.604 305.202 526.844 307.794 531.38 312.33C532.676 313.626 533.972 314.922 535.268 316.218C536.564 317.514 537.86 319.458 539.156 320.754C541.748 323.994 544.988 327.882 548.228 332.418C549.524 334.362 550.172 335.658 551.468 337.602C550.172 329.826 546.284 313.626 535.268 301.962C532.028 298.074 528.14 295.482 524.252 292.89C520.364 290.946 517.124 289.002 513.884 288.354C507.404 286.41 503.516 286.41 503.516 286.41C503.516 286.41 504.812 290.946 508.7 297.426C510.644 300.666 511.94 304.554 514.532 308.442C517.124 312.33 520.364 316.218 522.956 320.106C527.492 325.938 532.676 330.474 537.212 333.714C541.748 336.954 545.636 339.546 548.876 340.842C547.58 339.546 546.932 338.25 545.636 336.306Z" fill="white"/>
<path d="M543.033 280.588C541.089 278.644 539.145 277.348 537.849 275.404C535.905 274.108 534.609 272.164 532.665 270.868C529.425 268.276 526.833 265.684 524.241 263.092C519.057 259.204 515.817 256.612 515.817 256.612C515.817 256.612 519.057 258.556 524.889 261.796C530.073 265.036 537.201 270.22 544.977 277.348C546.273 278.644 547.569 279.94 548.865 281.236C547.569 277.348 544.977 272.164 541.089 266.98C539.145 264.388 537.201 261.148 534.609 259.204C532.017 256.612 529.425 254.02 526.185 252.076C518.409 246.244 509.337 244.948 503.505 244.3C497.025 243.652 493.137 244.3 493.137 244.3C493.137 244.3 495.729 248.188 500.265 253.372C502.209 255.964 504.801 259.204 508.041 262.444C509.337 263.74 511.281 265.684 513.225 266.98C515.169 268.276 516.465 270.22 518.409 271.516C523.593 276.052 530.073 278.644 534.609 280.588C539.793 282.532 543.681 283.828 546.921 284.476C545.625 283.18 544.329 281.884 543.033 280.588Z" fill="white"/>
<path d="M528.8 230.035C521.024 224.851 512.6 220.963 507.416 217.723C502.232 214.483 498.344 213.187 498.344 213.187C498.344 213.187 498.992 213.187 500.936 213.835C502.88 214.483 504.824 215.131 507.416 215.779C510.008 217.075 513.248 218.371 517.136 219.667C521.024 221.611 524.912 223.555 529.448 225.499C530.744 226.147 532.688 227.443 533.984 228.091C532.04 224.851 528.8 220.963 524.264 216.427C519.728 212.539 514.544 208.003 507.416 205.411C498.344 202.171 490.568 201.523 484.736 202.171C478.904 202.819 475.016 204.763 475.016 204.763C475.016 204.763 475.664 205.411 477.608 206.707C478.904 208.003 480.848 209.947 483.44 211.891C486.032 213.835 489.272 216.427 492.512 218.371C495.752 220.963 499.64 222.907 503.528 224.851C506.768 226.147 509.36 227.443 512.6 228.091C515.192 228.739 517.784 229.387 520.376 230.035C525.56 231.331 529.448 231.331 532.688 231.331C531.392 231.979 530.096 231.331 528.8 230.035Z" fill="white"/>
<path d="M505.467 186.627C500.931 185.331 497.043 184.036 493.155 182.74C491.211 182.092 489.915 181.444 487.971 180.796C486.027 180.148 484.731 180.148 483.435 179.5C477.603 177.556 474.363 176.907 474.363 176.907C474.363 176.907 477.603 176.908 483.435 177.556C486.027 178.204 489.915 178.204 493.155 179.5C497.043 180.148 500.931 181.444 505.467 182.74C506.763 183.388 508.707 184.036 510.003 184.036C507.411 181.444 503.523 178.204 498.339 174.964C493.155 171.724 487.323 169.132 480.843 167.836C478.899 167.188 476.307 167.188 474.363 167.188C472.419 167.188 470.475 167.188 468.531 167.188C464.643 167.835 461.403 168.484 458.811 169.132C453.627 171.076 450.387 173.02 450.387 173.02C450.387 173.02 453.627 175.612 459.459 178.204C462.699 179.5 465.291 181.444 469.179 182.74C473.067 184.036 476.955 185.331 480.843 186.627C492.507 189.867 504.171 188.572 509.355 187.276C508.059 187.276 506.763 187.275 505.467 186.627Z" fill="white"/>
<path d="M475.66 150.337C467.236 149.041 459.46 148.393 454.276 147.745C449.092 147.097 445.204 146.449 445.204 146.449C445.204 146.449 448.444 145.801 453.628 145.801C456.22 145.801 459.46 145.801 463.348 145.801C465.292 145.801 467.236 145.801 469.18 145.801C471.124 145.801 473.068 146.449 475.012 146.449C476.308 146.449 478.252 147.097 479.548 147.097C474.364 143.209 462.052 138.025 450.388 137.377C445.852 136.729 441.316 136.729 437.428 137.377C433.54 137.377 430.3 138.025 427.06 138.673C421.228 139.969 417.988 141.265 417.988 141.265C417.988 141.265 419.284 141.913 421.228 143.857C423.172 145.153 426.412 147.097 430.3 149.041C432.244 149.689 434.188 150.985 436.132 151.633C437.428 152.281 438.076 152.281 439.372 152.929C440.02 152.929 441.316 153.577 441.964 153.577C445.204 154.225 449.74 154.873 453.628 154.873C456.868 154.873 459.46 154.873 462.052 154.225C464.644 154.225 467.236 153.577 469.18 152.929C473.716 152.281 476.956 150.985 479.548 149.689C478.9 150.985 476.956 150.985 475.66 150.337Z" fill="white"/>
<path d="M441.319 120.545C436.783 119.897 432.895 118.601 429.007 117.953C425.119 116.657 421.879 115.361 419.287 114.713C413.455 112.769 410.215 110.825 410.215 110.825C410.215 110.825 413.455 111.473 419.287 112.769C425.119 114.065 432.247 116.009 440.671 117.305C441.967 117.305 443.911 117.953 445.207 117.953C440.023 114.713 428.359 108.233 416.695 103.697C408.271 100.457 401.143 99.8086 395.959 99.8086C390.775 99.8086 387.535 100.457 387.535 100.457C387.535 100.457 388.183 101.753 390.127 103.049C391.423 104.993 394.015 106.937 397.255 109.529C400.495 112.121 403.735 114.713 407.623 116.657C411.511 119.249 416.047 121.193 420.583 122.489C433.543 126.377 443.263 123.137 447.151 121.193C444.559 121.193 443.263 120.545 441.319 120.545Z" fill="white"/>
<path d="M413.454 86.1913C409.566 84.8953 406.326 82.9513 403.086 81.0073C399.846 79.0633 397.254 77.7672 394.662 75.8232C392.07 74.5272 390.126 73.2313 388.83 71.9353C387.534 70.6393 386.886 70.6392 386.886 70.6392C386.886 70.6392 389.478 71.9352 394.662 74.5273C399.198 77.1193 405.678 79.7113 413.454 82.9513C414.75 83.5993 416.046 84.2473 417.342 84.8953C412.806 81.0073 404.382 71.9352 394.014 66.1032C386.886 61.5672 380.406 59.6232 375.87 58.3272C370.686 57.0312 368.094 57.0312 368.094 57.0312C368.094 57.0312 368.742 58.3273 370.038 60.2713C371.334 62.2153 372.63 64.8072 375.222 67.3992C377.166 69.9912 380.406 73.2313 382.998 76.4713C386.238 79.0633 389.478 81.6553 393.366 84.2473C404.382 90.0793 413.454 89.4313 417.99 88.7833C416.046 86.8393 414.75 86.1913 413.454 86.1913Z" fill="white"/>
<path d="M345.405 587.085C348.645 588.381 351.885 590.325 355.125 591.621C358.365 592.917 361.605 594.213 364.845 594.861C371.325 596.805 377.157 598.749 382.341 600.045C392.709 601.989 399.189 603.285 399.189 603.285C399.189 603.285 393.357 601.341 384.285 598.101C379.749 596.157 374.565 594.213 368.733 591.621C365.493 590.325 362.901 589.029 359.661 587.733C356.421 586.437 353.181 585.141 349.941 583.197C347.349 581.901 345.405 581.253 342.813 579.957C353.829 581.253 375.213 581.901 396.597 587.085C403.725 589.029 410.205 590.973 416.037 593.565C421.869 596.157 426.405 598.101 430.293 600.693C438.069 605.229 442.605 609.117 442.605 609.117C442.605 609.117 440.013 609.765 436.125 611.061C432.237 612.357 426.405 613.653 419.925 614.301C406.317 616.245 388.821 616.245 373.917 611.061C362.901 607.173 355.125 602.637 349.293 596.805C343.461 591.621 340.221 586.437 338.277 583.197C340.869 584.493 343.461 585.789 345.405 587.085Z" fill="white"/>
<path d="M421.862 563.755C425.102 564.403 428.99 564.403 432.23 565.051C435.47 565.051 438.71 565.699 441.95 565.699C448.43 566.347 454.262 565.699 458.798 565.051C463.982 564.403 467.87 564.403 470.462 563.755C473.054 563.107 474.998 563.107 474.998 563.107C474.998 563.107 473.702 563.107 471.11 563.107C468.518 563.107 464.63 562.459 460.094 562.459C455.558 561.811 449.726 561.811 443.894 561.163C438.062 560.515 431.582 559.867 424.454 559.219C421.862 559.219 419.27 558.571 417.326 557.923C422.51 557.275 429.638 554.683 439.358 553.387C443.894 552.739 448.43 551.443 453.614 550.795C458.798 550.147 463.982 549.499 469.166 549.499C476.294 548.851 482.774 549.499 488.606 550.147C494.438 550.795 499.622 551.443 503.51 552.739C511.934 554.683 517.118 557.275 517.118 557.275C517.118 557.275 515.174 558.571 511.934 560.515C508.694 562.459 504.158 565.699 497.678 567.643C491.846 570.235 484.718 572.827 477.59 574.771C470.462 576.715 462.686 577.363 454.91 577.363C443.894 576.715 434.822 574.123 428.342 571.531C421.862 568.291 416.678 564.403 414.086 561.811C417.326 562.459 419.27 563.107 421.862 563.755Z" fill="white"/>
<path d="M485.374 521.002C491.854 520.354 498.334 518.41 504.166 517.114C507.406 516.466 509.998 515.818 512.59 514.522C515.182 513.874 517.774 512.578 519.718 511.93C524.254 509.986 528.142 508.69 530.086 508.042C532.678 506.746 533.974 506.098 533.974 506.098C533.974 506.098 532.678 506.746 530.086 506.746C527.494 507.394 524.254 508.042 519.718 509.338C515.182 509.986 510.646 511.282 504.814 512.578C498.982 513.874 493.15 514.522 486.022 515.818C483.43 516.466 481.486 516.466 478.894 516.466C483.43 514.522 489.262 509.986 497.686 506.746C501.574 504.802 505.462 502.858 509.998 500.914C514.534 498.97 519.07 497.026 523.606 495.73C530.086 493.138 535.918 491.842 541.75 491.194C547.582 490.546 552.118 489.898 556.654 489.898C565.078 489.898 570.262 490.546 570.262 490.546C570.262 490.546 568.966 492.49 566.374 495.082C563.782 497.674 560.542 501.562 555.358 505.45C550.822 509.338 544.99 513.874 539.158 517.114C532.678 520.354 526.198 523.594 519.07 525.538C508.702 528.13 500.278 528.13 493.15 526.834C486.022 525.538 480.838 523.594 477.598 521.65C480.838 521.65 482.782 521.65 485.374 521.002Z" fill="white"/>
<path d="M532.03 465.275C535.27 463.979 537.862 462.683 540.454 461.387C543.046 460.091 545.638 458.147 548.23 456.851C553.414 453.611 557.95 451.019 561.19 448.427C568.318 443.243 572.854 439.355 572.854 439.355C572.854 439.355 568.318 441.947 560.542 445.835C557.302 447.779 552.118 449.723 547.582 452.315C542.398 454.907 537.214 457.499 531.382 460.091C529.438 460.739 527.494 462.035 524.902 462.683C526.846 460.739 528.79 458.795 531.382 456.851C533.974 454.259 536.566 451.667 539.806 449.075C546.286 443.891 553.414 437.411 561.19 432.227C567.022 428.987 571.558 425.747 576.742 423.155C581.278 421.211 585.814 419.267 589.702 417.971C597.478 416.027 602.662 415.379 602.662 415.379C602.662 415.379 598.774 423.155 592.294 432.227C589.054 436.763 584.518 441.947 579.982 447.131C577.39 449.723 574.798 451.667 572.206 454.259C569.614 456.203 566.374 458.147 563.782 460.091C546.934 470.459 531.382 468.515 524.902 467.867C528.142 467.219 530.086 465.923 532.03 465.275Z" fill="white"/>
<path d="M561.179 402.407C565.715 398.519 570.251 394.631 574.139 390.743C578.027 386.855 581.915 382.967 584.507 379.727C589.691 373.247 592.931 368.711 592.931 368.711C592.931 368.711 589.043 371.951 583.211 377.783C577.379 382.967 568.307 390.095 559.883 397.871C557.939 399.167 556.643 400.463 554.699 401.759C557.291 397.871 559.883 392.039 564.419 385.559C565.715 383.615 567.011 382.319 568.307 380.375C569.603 378.431 570.899 377.135 572.195 375.191C574.787 371.951 577.379 368.063 580.619 364.823C585.155 360.287 589.043 356.399 592.931 353.159C596.819 349.919 600.707 347.327 603.947 345.383C610.427 341.495 614.963 340.199 614.963 340.199C614.963 340.199 613.019 347.975 609.779 358.343C607.835 363.527 605.243 369.359 602.003 374.543C600.059 377.135 598.763 380.375 596.819 382.967C596.171 384.263 594.875 385.559 593.579 386.855C592.283 388.151 591.635 389.447 590.339 390.095C583.211 396.575 576.731 400.463 570.899 403.055C565.067 405.647 559.883 406.295 556.643 406.295C557.939 404.999 559.235 403.703 561.179 402.407Z" fill="white"/>
<path d="M572.862 338.258C576.102 333.722 579.342 329.186 581.934 324.65C584.526 320.114 587.118 316.226 589.062 312.338C592.302 305.21 594.246 300.026 594.246 300.026C594.246 300.026 591.654 303.914 587.118 310.394C585.822 311.69 585.174 313.634 583.878 315.578C582.582 317.522 581.286 319.466 579.342 321.41C576.102 325.298 573.51 329.834 569.622 334.37C568.326 336.314 567.03 337.61 565.734 339.554C567.678 331.13 572.862 314.282 580.638 299.378C583.878 294.194 586.47 289.658 589.062 285.77C591.654 281.882 594.894 278.642 597.486 276.05C602.67 270.866 606.558 268.922 606.558 268.922C606.558 268.922 606.558 276.698 605.91 286.418C605.262 291.602 603.966 297.434 602.67 303.266C600.726 309.098 598.782 314.93 595.542 320.114C591.006 327.89 585.174 333.074 580.638 336.314C575.454 340.202 570.918 341.498 568.326 342.794C570.27 341.498 571.566 339.554 572.862 338.258Z" fill="white"/>
<path d="M568.969 276.042C570.265 273.45 570.913 270.858 572.209 268.914C572.857 266.322 574.153 263.73 574.801 261.786C576.097 257.25 577.393 252.714 578.689 248.826C579.985 241.698 580.633 236.514 580.633 236.514C580.633 236.514 579.337 240.402 576.745 247.53C574.153 254.01 570.265 263.73 566.377 273.45C565.729 275.394 564.433 277.338 563.785 278.634C564.433 274.746 563.785 268.266 565.081 261.138C565.081 257.898 566.377 254.01 566.377 250.122C567.025 246.234 567.673 242.346 568.969 238.458C572.209 227.442 576.097 219.018 579.985 213.834C583.873 208.002 587.113 205.41 587.113 205.41C587.113 205.41 589.057 212.538 590.353 221.61C591.001 226.794 591.001 231.978 590.353 237.81C590.353 240.402 589.705 243.642 589.705 246.234C589.057 248.826 588.409 252.066 587.113 254.658C584.521 262.434 580.633 268.914 576.745 272.802C572.857 277.338 568.969 279.93 566.377 281.874C567.025 279.93 567.673 277.986 568.969 276.042Z" fill="white"/>
<path d="M551.478 220.316C554.07 209.948 554.07 200.228 554.718 193.1C555.366 185.972 554.718 181.436 554.718 181.436C554.718 181.436 554.718 182.732 554.07 184.028C554.07 185.972 553.422 188.564 552.774 191.804C552.126 195.044 551.478 198.932 550.83 203.468C550.182 208.004 549.534 212.54 548.238 217.724C547.59 219.668 547.59 221.612 546.942 222.908C546.294 219.02 545.646 213.188 544.35 206.708C543.702 200.228 543.054 192.452 543.702 184.676C544.35 174.308 546.942 165.236 548.886 159.404C551.478 153.572 553.422 150.332 553.422 150.332C553.422 150.332 554.07 151.628 555.366 154.22C556.662 156.812 557.958 160.7 559.254 164.588C560.55 169.124 561.846 174.308 563.142 179.492C563.79 184.676 563.79 190.508 563.79 195.692C563.142 199.58 562.494 202.82 561.846 206.06C560.55 209.3 559.254 211.892 557.958 214.484C555.366 219.02 552.126 222.908 550.182 224.852C550.83 224.204 551.478 222.26 551.478 220.316Z" fill="white"/>
<path d="M525.56 172.363C525.56 167.827 524.912 162.643 524.912 158.755C524.912 156.811 524.264 154.219 524.264 152.275C523.616 150.331 523.616 148.387 522.968 147.091C521.672 140.611 520.376 136.075 520.376 136.075C520.376 136.075 520.376 139.963 521.024 146.443C521.024 149.683 521.672 153.571 521.672 157.459C521.672 161.995 521.672 166.531 521.672 171.067C521.672 173.011 521.672 174.307 521.672 176.251C520.376 173.011 518.432 167.827 516.488 161.995C514.544 156.163 512.6 149.035 511.304 141.907C510.656 139.315 510.656 136.723 510.656 134.779C510.656 132.835 510.656 130.243 510.656 128.299C510.656 124.411 511.304 120.523 511.952 117.931C513.248 112.099 514.544 108.211 514.544 108.211C514.544 108.211 518.432 113.395 522.968 120.523C524.912 124.411 526.856 128.947 528.8 133.483C530.744 138.019 532.04 143.203 532.688 148.387C533.984 163.291 528.8 173.659 526.208 177.547C525.56 176.251 525.56 174.307 525.56 172.363Z" fill="white"/>
<path d="M491.865 133.495C490.569 124.423 487.329 116.647 484.737 110.167C482.145 104.335 480.849 100.447 480.849 100.447C480.849 100.447 481.497 104.335 482.793 110.167C483.441 112.759 484.089 116.647 485.385 120.535C486.033 122.479 486.033 124.423 486.681 126.367C487.329 128.311 487.329 130.903 487.977 132.847C488.625 134.791 488.625 136.087 488.625 137.383C486.681 134.791 484.089 130.255 480.849 125.071C477.609 119.887 475.017 113.407 473.073 107.575C472.425 103.687 471.777 99.7989 472.425 96.5589C472.425 93.3189 473.073 90.0789 474.369 87.4869C475.665 82.3029 477.609 79.7109 477.609 79.7109C477.609 79.7109 478.257 80.3589 478.905 81.6549C479.553 82.9509 480.849 84.8949 482.145 87.4869C482.793 88.7829 483.441 90.0789 484.089 91.3749C484.737 92.0229 484.737 92.6709 485.385 93.9669C486.033 95.2629 486.681 95.9109 487.329 97.2069C489.921 101.095 491.865 105.631 493.161 110.167C494.457 113.407 495.105 116.647 495.105 119.239C495.105 122.479 495.105 125.071 495.105 127.663C494.457 132.199 493.161 136.087 492.513 138.679C492.513 136.735 492.513 135.439 491.865 133.495Z" fill="white"/>
<path d="M457.519 103.678C456.871 99.7901 456.223 95.9021 455.575 92.6621C454.927 89.4221 454.927 86.1821 454.279 83.5901C453.631 78.4061 453.631 75.1661 453.631 75.1661C453.631 75.1661 452.983 77.7581 452.983 82.9421C452.983 87.4781 452.983 94.6061 454.279 102.382C454.279 103.678 454.927 104.974 454.927 106.918C451.687 102.382 445.855 91.3661 445.855 79.7021C445.855 71.9261 448.447 66.0941 451.039 61.5581C453.631 57.0221 455.575 55.0781 455.575 55.0781C455.575 55.0781 456.223 55.7261 456.223 57.6701C456.871 58.9661 457.519 61.5581 458.167 63.5021C458.815 66.0941 459.463 69.3341 460.111 72.5741C460.759 75.8141 461.407 79.7021 461.407 82.9421C462.055 93.9581 459.463 103.03 457.519 107.566C457.519 106.918 457.519 104.974 457.519 103.678Z" fill="white"/>
<path d="M431.59 73.8722C431.59 69.9842 432.238 66.7442 432.238 63.5042C432.238 60.2642 432.886 57.6722 432.886 55.0802C432.886 52.4882 433.534 50.5442 433.534 49.2482C433.534 47.9522 433.534 47.3042 433.534 47.3042C433.534 47.3042 432.238 49.8962 431.59 54.4322C430.294 58.9682 428.998 65.4482 428.35 72.5762C428.35 73.8722 428.35 75.1682 428.35 76.4642C426.406 71.2802 423.166 60.2642 425.758 49.8962C427.054 42.7682 430.942 37.5842 434.182 34.3442C437.422 31.1042 440.014 29.1602 440.014 29.1602C440.014 29.1602 440.014 29.8082 440.662 31.7522C440.662 33.0482 441.31 34.9922 441.31 37.5842C441.31 40.1762 441.31 42.7682 441.31 46.0082C441.31 49.2482 441.31 52.4882 440.662 55.7282C438.718 65.4482 434.83 73.2242 432.238 77.1122C431.59 76.4642 431.59 75.1682 431.59 73.8722Z" fill="white"/>
<path d="M406.967 55.0883C403.079 46.6643 401.135 38.8883 399.191 33.7043C398.543 31.1123 397.895 28.5203 397.895 27.2243C397.895 25.2803 397.895 23.9843 397.895 23.9843C397.895 23.9843 397.895 24.6323 398.543 26.5763C399.191 27.8723 399.839 30.4643 401.135 33.0563C403.079 38.2403 406.319 46.0163 409.559 53.7923C410.207 55.0883 410.855 56.3843 411.503 58.3283C410.855 53.1443 409.559 41.4803 406.319 29.8163C403.727 21.3923 400.487 14.2643 397.895 9.08025C395.303 3.89625 393.359 0.65625 393.359 0.65625C393.359 0.65625 392.063 3.89625 391.415 9.72825C390.767 15.5603 390.767 24.6323 393.359 33.0563C397.247 46.0163 405.023 55.0883 409.559 58.9763C408.263 57.6803 407.615 56.3843 406.967 55.0883Z" fill="white"/>
<path d="M417.322 66.115C423.802 78.427 432.226 89.443 441.946 99.811C446.482 104.995 451.665 109.531 456.849 114.715C459.441 117.307 462.034 119.251 464.626 121.195L473.049 128.323C495.081 147.115 513.874 169.795 528.13 194.419C542.386 219.691 552.754 246.907 558.586 275.419C563.77 303.931 564.418 333.091 559.882 361.603C550.81 418.627 522.298 473.059 479.529 511.939C458.145 531.379 432.874 546.931 406.306 558.595C379.738 570.259 350.577 576.091 322.065 578.035C318.177 578.035 314.938 576.091 314.938 573.499C314.938 570.907 317.53 568.315 321.418 568.315C349.282 566.371 377.146 560.539 403.066 549.523C428.986 538.507 452.961 523.603 473.697 504.811C515.169 467.227 543.682 415.387 552.106 359.659C556.642 331.795 555.993 303.283 551.457 276.067C546.273 248.203 536.553 221.635 522.297 197.659C508.041 173.035 489.898 151.651 468.514 132.859L460.737 126.379C458.145 123.787 454.906 121.843 452.314 119.251C447.13 114.715 441.946 109.531 436.762 103.699C427.042 92.683 418.617 81.019 411.489 68.059C410.193 66.115 410.841 63.523 412.137 62.875C414.081 62.875 416.674 63.523 417.322 66.115Z" fill="white"/>
</svg>
