<svg width="400" height="400" viewBox="0 0 400 400" fill="none" xmlns="http://www.w3.org/2000/svg">
<path fill-rule="evenodd" clip-rule="evenodd" d="M199.999 307.754C282.294 307.754 353.702 255.08 389.254 223.346C403.578 210.56 403.578 189.194 389.254 176.408C353.702 144.674 282.294 92 199.999 92C117.703 92 46.2958 144.674 10.7433 176.408C-3.5811 189.194 -3.58108 210.56 10.7433 223.346C46.2958 255.08 117.703 307.754 199.999 307.754ZM199.999 275.14C241.566 275.14 275.262 241.444 275.262 199.877C275.262 158.31 241.566 124.614 199.999 124.614C158.432 124.614 124.736 158.31 124.736 199.877C124.736 241.444 158.432 275.14 199.999 275.14Z" fill="white"/>
</svg>
