<svg width="3282" height="3600" viewBox="0 0 3282 3600" fill="none" xmlns="http://www.w3.org/2000/svg">
<path d="M1555.08 3490.25V1692.06C1555.08 1644.7 1593.47 1606.3 1640.83 1606.3C1688.19 1606.3 1726.59 1644.7 1726.59 1692.06V3490.25C1726.59 3537.61 1688.19 3576 1640.83 3576C1593.47 3576 1555.08 3537.61 1555.08 3490.25Z" fill="white" stroke="white" stroke-width="48"/>
<path d="M1793.95 1366.09L3065.46 94.5782C3098.95 61.0893 3153.24 61.0897 3186.73 94.5788C3220.22 128.068 3220.22 182.365 3186.73 215.854L1915.22 1487.36C1881.73 1520.85 1827.44 1520.85 1793.95 1487.36C1760.46 1453.88 1760.46 1399.58 1793.95 1366.09Z" fill="white" stroke="white" stroke-width="48"/>
<path d="M215.855 94.579L1487.37 1366.09C1520.85 1399.58 1520.85 1453.88 1487.36 1487.36C1453.88 1520.85 1399.58 1520.85 1366.09 1487.37L94.5789 215.855C61.0897 182.365 61.0898 128.068 94.5789 94.579C128.068 61.0897 182.365 61.0897 215.855 94.579Z" fill="white" stroke="white" stroke-width="48"/>
</svg>
