<svg width="608" height="608" viewBox="0 0 608 608" fill="none" xmlns="http://www.w3.org/2000/svg">
<path d="M308.7 0.450134H299.7V222.75H308.7V0.450134Z" fill="white"/>
<path d="M308.7 385.65H299.7V607.95H308.7V385.65Z" fill="white"/>
<path d="M222.75 299.7H0.450439V308.7H222.75V299.7Z" fill="white"/>
<path d="M607.95 299.7H385.65V308.7H607.95V299.7Z" fill="white"/>
<path d="M304.201 512.55C189 512.55 95.4004 418.95 95.4004 303.75C95.4004 188.55 189 94.9501 304.201 94.9501C419.401 94.9501 513 188.55 513 303.75C513 418.95 418.951 512.55 304.201 512.55ZM304.201 104.4C193.951 104.4 104.4 193.95 104.4 304.2C104.4 414.45 193.951 504 304.201 504C414.451 504 504 414.45 504 304.2C504 193.95 414 104.4 304.201 104.4Z" fill="white"/>
<path d="M308.7 299.7H385.65C383.4 258.3 350.1 225 308.7 222.75V299.7Z" fill="white"/>
<path d="M299.7 299.7V222.75C258.3 225 225 258.3 222.75 299.7H299.7Z" fill="white"/>
<path d="M299.7 308.7H222.75C225 350.1 258.3 383.4 299.7 385.65V308.7Z" fill="white"/>
<path d="M308.7 308.7V385.65C350.1 383.4 383.4 350.1 385.65 308.7H308.7Z" fill="white"/>
</svg>
