<svg width="600" height="600" viewBox="0 0 600 600" fill="none" xmlns="http://www.w3.org/2000/svg">
<path fill-rule="evenodd" clip-rule="evenodd" d="M564 300C564 445.803 445.803 564 300 564C154.197 564 36 445.803 36 300C36 154.197 154.197 36 300 36C445.803 36 564 154.197 564 300ZM600 300C600 465.684 465.684 600 300 600C134.314 600 0 465.684 0 300C0 134.314 134.314 0 300 0C465.684 0 600 134.314 600 300ZM300 333C318.225 333 333 318.225 333 300C333 281.775 318.225 267 300 267C281.775 267 267 281.775 267 300C267 318.225 281.775 333 300 333Z" fill="white"/>
</svg>
