<svg width="400" height="400" viewBox="0 0 400 400" fill="none" xmlns="http://www.w3.org/2000/svg">
<path d="M368.268 56.8266C347.562 34.3687 319.15 22 288.26 22C265.17 22 244.025 29.3 225.409 43.6953C216.016 50.9609 207.504 59.8516 200 70.2266C192.498 59.8539 183.984 50.9609 174.588 43.6953C155.975 29.3 134.83 22 111.74 22C80.85 22 52.4352 34.3687 31.7289 56.8266C11.2703 79.0219 0 109.345 0 142.212C0 176.04 12.607 207.007 39.6727 239.666C63.8852 268.881 98.6844 298.538 138.983 332.88C152.744 344.608 168.341 357.901 184.537 372.061C188.816 375.809 194.311 377.874 200 377.872C205.685 377.874 211.178 375.811 215.457 372.067C231.652 357.904 247.259 344.605 261.026 332.87C301.319 298.534 336.117 268.881 360.33 239.663C387.396 207.008 400 176.041 400 142.209C400 109.345 388.73 79.0219 368.268 56.8266Z" fill="white"/>
</svg>
