<svg width="600" height="600" viewBox="0 0 600 600" fill="none" xmlns="http://www.w3.org/2000/svg">
<path d="M54.3023 449.788C62.3628 434.12 72.0393 421.151 80.7914 415.537C101.212 402.439 122.63 394.92 147.807 399.776C166.021 403.291 180.958 411.82 193.969 423.885C202.516 431.812 208.103 442.441 212.545 453.304C214.65 458.456 216.472 463.971 217.022 469.461C218.221 481.433 218.953 493.487 219.102 505.52C219.405 529.866 219.25 554.222 219.139 578.574C219.118 583.126 218.417 587.674 218.043 592.095C226.703 593.921 265.647 594.213 279.281 592.641V582.234C279.281 551.436 279.602 520.634 279.175 489.841C278.86 467.063 280.836 444.253 277.455 421.482C276.146 412.661 273.784 404.258 270.622 396.17C264.751 381.145 255.572 368.321 243.88 356.892C222.461 335.956 196.509 326.896 167.386 325.311C162.208 325.03 156.941 326.951 151.699 327.055C144.86 327.191 138.46 328.833 132.132 331.082C117.342 336.339 103.886 343.568 91.871 354.061C81.5583 363.067 73.0032 373.132 66.7593 385.085C56.4073 404.905 51.8566 426.028 54.3023 449.788ZM346.025 593.21V581.892C346.025 519.558 345.897 457.222 346.129 394.89C346.177 382.046 344.903 369.465 341.629 357.146C335.362 333.562 324.335 312.412 307.709 294.407C296.296 282.05 282.961 272.428 268.037 264.352C251.942 255.645 234.899 250.339 217.221 248.167C201.415 246.226 185.043 246.411 169.357 250.196C143.581 256.416 120.121 267.763 100.542 285.94C82.3017 302.873 69.2552 323.504 61.1355 346.943C55.7553 362.466 52.4228 378.544 54.2879 396.596C57.3445 390.249 59.301 384.857 62.3432 380.169C67.7181 371.884 73.0265 363.361 79.6519 356.115C100.379 333.447 127.084 322.17 157.099 318.675C172.344 316.901 187.612 319.171 202.071 324.142C225.609 332.237 246.068 344.938 261.135 365.56C276.375 386.415 285.444 409.524 285.792 435.182C286.46 484.609 285.992 534.053 285.994 583.493V593.21H346.025ZM352.732 593.57C363.426 593.57 373.058 593.604 382.688 593.561C392.612 593.515 402.538 593.753 412.804 593.409V587.061C412.786 504.313 412.714 421.564 412.822 338.817C412.84 327.062 410.869 315.705 408.486 304.263C401.749 271.806 385.141 244.74 363.042 220.782C346.449 202.788 325.962 190.156 303.671 180.336C282.433 170.982 260.066 166.76 236.997 166.135C228.159 165.895 219.39 166.618 210.513 167.786C193.591 170.008 177.436 174.416 161.89 181.007C128.526 195.155 102.705 218.592 82.5813 248.26C73.2881 261.964 66.1951 276.894 61.8432 293.176C59.2992 302.694 57.321 312.197 55.4343 321.83C53.9688 329.317 53.9366 336.411 54.0119 344.589C57.8872 335.598 60.5551 327.055 65 319.565C75.5169 301.849 87.6034 285.481 104.355 272.625C117.706 262.377 131.6 253.501 147.395 247.983C165.14 241.78 183.414 237.977 202.425 238.874C209.495 239.209 216.465 239.764 223.52 240.738C237.67 242.695 251.048 246.883 263.778 252.758C291.507 265.552 313.379 285.127 329.671 311.158C344.269 334.484 352.553 359.585 352.65 387.063C352.874 451.898 352.729 516.736 352.732 581.573C352.734 585.138 352.732 588.703 352.732 593.57ZM548.18 593.235V559.227C548.18 503.695 548.628 448.16 548.054 392.634C547.463 336.887 550.67 281.089 546.066 225.398C545.457 218.026 544.865 210.563 543.217 203.385C537.77 179.625 529.744 156.714 517.901 135.331C508.119 117.633 496.993 100.751 482.534 86.4446C472.895 76.9222 463.22 67.33 452.614 58.9446C442.688 51.0876 431.867 44.1922 420.848 37.9072C399.313 25.6291 376.3 16.8068 351.937 12.0223C339.163 9.5137 326.331 7.00878 313.186 6.93535C293.644 6.82618 274.243 7.13054 254.893 11.0376C237.228 14.6045 219.962 19.4516 203.662 26.7053C182.972 35.9106 163.179 46.8172 145.595 61.6773C129.968 74.8829 115.528 89.0984 103.44 105.425C90.1816 123.333 79.0445 142.576 70.8478 163.503C61.6764 186.918 56.7603 211.215 53.8185 236.023C53.5749 238.07 54.1425 240.213 54.3325 242.314C55.4522 240.462 55.309 238.622 55.8197 236.987C66.5353 202.695 83.8191 172.058 108.997 146.428C119.363 135.876 131.453 126.858 143.461 118.104C173.795 95.9848 208.476 84.1956 245.351 80.3189C268.965 77.8373 293.067 78.6861 316.434 84.4535C351.227 93.0395 382.796 108.553 409.884 132.046C428.75 148.404 445.447 166.955 457.863 188.925C477.303 223.341 487.748 260.445 487.981 299.835C488.5 393.697 488.142 487.564 488.142 581.43V593.235H548.18ZM279.437 163.775L279.456 163.796C280.539 164.469 281.538 165.456 282.714 165.761C287.118 166.898 291.844 167.184 295.959 168.937C303.944 172.339 311.6 176.518 318.177 179.774C320.01 178.511 321.1 177.184 322.243 177.134C323.389 177.084 324.971 178.039 325.688 179.036C327.024 180.896 327.375 183.733 329.025 185.052C333.134 188.336 337.883 190.807 342.126 193.941C356.208 204.342 368.68 216.32 379.754 230.005C384.962 236.45 387.56 245.297 395.909 249.172C396.482 249.433 397.019 251.156 396.715 251.68C394.404 255.519 398.525 257.272 399.134 260.218C401.212 259.548 403.129 258.927 404.903 258.354C408.916 262.93 404.079 264.415 402.61 266.687C404.867 272.406 406.945 277.996 409.328 283.451C410.117 285.243 411.442 287.06 413.001 288.208C418.143 291.981 418.233 291.865 412.947 296.642C420.974 317.123 419.397 338.855 419.451 361.037C423.106 358.729 425.74 359.089 427.406 362.634C425.74 366.138 423.142 366.625 419.344 364.126C419.81 376.529 418.878 388.213 419.917 399.619C422.98 400.165 425.292 400.58 427.549 400.985C427.424 407.585 423.231 406.194 419.738 406V420.894C423.56 420.233 426.056 421.734 427.227 425.396C424.629 425.971 422.049 426.54 419.935 427.011V440.21C422.891 440.992 425.345 441.642 427.746 442.276C426.636 448.026 423.357 447.528 419.666 446.523V461.949C423.124 459.704 425.74 460.126 427.298 463.391C426.009 468.007 422.998 467.09 419.988 465.64V481.275C425.292 480.351 427.728 481.25 427.603 484.07C427.352 490.167 421.977 485.347 419.756 487.313V500.433C422.515 501.047 425.094 501.62 427.531 502.164C427.37 508.839 423.106 507.289 419.791 506.766V522.115C423.697 521.298 426.134 522.813 427.101 526.659C424.718 527.005 422.371 527.345 419.988 527.692V541.501C422.873 541.981 425.238 542.374 427.442 542.739C428.123 550.315 421.87 545.55 419.738 547.713V562.958C423.214 560.935 425.883 560.886 427.227 564.681C425.793 569.053 422.729 567.97 419.719 566.561V582.997C423.625 579.274 426.886 581.197 427.424 584.39C428.535 591.194 421.744 586.334 419.415 588.701C419.576 590.198 419.72 591.538 419.881 592.863C426.994 595.418 433.694 591.194 440.7 593.301C447.185 595.251 454.155 591.416 461.214 593.393C467.771 595.228 474.4 590.778 481.477 593.316V580.411C481.477 494.835 481.352 409.257 481.549 323.682C481.603 300.633 481.173 277.69 476.353 255.032C474.561 254.334 472.716 253.619 469.634 252.414C476.514 246.926 472.788 241.599 471.462 236.013C469.903 229.473 467.216 224.211 460.21 221.661C461.644 219.442 462.719 217.799 464.134 215.611C458.903 206.285 453.617 196.759 448.207 187.308C447.49 186.085 446.236 184.553 445.035 184.363C441.613 183.819 440.7 182.728 441.363 178.999C442.044 175.106 440.18 173.82 435.575 174.135C431.921 174.386 430.577 172.629 430.201 169.345C431.383 168.545 432.53 167.784 433.659 167.023C432.064 164.749 430.469 162.477 428.875 160.205C425.387 162.766 422.324 162.867 419.684 160.507C420.383 159.701 420.974 158.767 421.798 158.118C422.765 157.352 423.93 156.835 425.507 155.927C422.479 153.305 419.827 150.99 417.158 148.675C416.423 147.971 415.707 147.267 414.99 146.566C412.231 143.828 409.49 141.09 406.748 138.352C406.48 138.116 406.229 137.86 405.996 137.578C402.735 131.874 397.844 131.186 391.537 134.098C391.125 128.079 391.43 122.007 383.403 122.948C382.575 123.044 381.268 122.362 380.793 121.64C374.594 112.234 364.301 109.613 354.746 105.76L354.714 105.731C350.971 101.212 346.193 102.678 341.702 103.729C339.962 101.629 338.777 98.8194 336.823 98.0996C330.935 95.9329 324.833 93.9471 318.65 93.1217C314.069 92.5111 309.664 92.3338 305.482 89.9488C302.416 88.2012 299.148 87.1071 296.328 91.238C294.252 94.2803 291.423 93.5426 289.289 90.7654C288.261 89.4261 287.438 87.9272 286.868 87.0374H277.6C275.022 89.7912 273.768 92.3627 272.032 92.7405C267.592 93.7091 269.536 88.6167 267.68 87.0929H254.408C254.918 88.64 255.599 89.6802 255.463 90.5969C255.345 91.3956 254.422 92.4897 253.646 92.7064C248.398 94.1729 249.903 88.9711 248.147 86.8511C243.733 87.7947 238.157 87.4276 235.303 90.0347C232.487 92.6078 231.518 92.5882 228.545 91.2469C226.465 90.3104 223.531 90.4806 221.2 91.0535C215.485 92.4574 209.897 94.3805 204.871 95.9097C204.251 98.9178 203.782 101.194 203.083 104.589C200.85 102.929 199.65 101.627 198.165 101.04C196.348 100.318 193.962 99.3423 192.397 99.9529C184.375 103.083 175.226 104.685 171.554 114.125C166.173 110.705 162.475 112.847 159.087 116.396L158.881 116.584C157.543 116.954 156.002 117.017 154.899 117.742C132.742 132.321 113.346 149.969 97.2048 171C90.8588 179.267 85.5141 188.301 80.5692 195.706C82.0616 198.827 83.7281 200.631 83.5095 202.165C82.8412 206.84 77.6954 203.053 74.913 206.856C72.3994 212.678 69.3539 219.727 66.2991 226.804C71.1843 228.672 72.6328 231.393 70.6452 234.967C68.8232 233.651 67.0445 232.371 64.3535 230.428C65.0879 240.562 59.6128 248.122 57.771 256.33C60.1932 258.375 62.1192 260.001 65.9247 263.213C61.2288 263.75 58.8762 264.021 56.289 264.316C55.3538 273.028 54.3491 282.4 53.3439 291.772C57.6329 278.736 64.6829 267.192 69.868 255.464C68.6281 253.817 66.5982 252.191 66.8813 251.306C68.0924 247.531 70.9251 246.969 74.6642 249.143C75.6692 246.017 76.1422 242.736 77.726 240.131C79.2811 237.572 82.0562 235.781 84.138 233.509C91.8277 225.104 99.0249 216.194 107.234 208.335C114.028 201.828 122.64 197.275 128.191 189.318C128.757 188.508 129.789 187.905 130.731 187.5C133.804 186.184 137.215 182.388 138.118 179.416C138.416 178.442 139.326 177.652 139.966 176.762C142.488 178.436 144.448 179.734 146.236 180.922C150.432 178.746 154.352 177.016 157.943 174.762C161.119 172.769 164.869 172.506 168.069 169.877C170.862 167.578 175.911 168.028 179.958 167.236C180.292 167.17 180.567 166.826 180.902 166.738C186.306 165.331 191.715 163.943 196.563 162.693C198.339 160.611 199.849 158.838 201.879 156.457C204.584 160.167 206.666 162.491 211.536 160.38C216.291 158.319 221.75 157.105 227.514 159.13C230.591 160.212 234.755 159.621 237.968 158.484C240.963 157.424 243.087 158.059 245.93 158.589C251.314 159.594 257.299 162.914 262.59 156.557C266.908 162.641 272.636 164.649 279.437 163.775ZM57.5221 460.776C55.2036 467.287 53.7233 473.928 53.7341 480.906C53.786 515.611 53.7451 550.315 53.7791 585.02C53.781 587.758 54.0978 590.492 54.3128 593.953C59.5443 593.432 64.0718 592.662 68.6047 592.617C73.3723 592.573 78.1416 593.343 82.9198 593.506C84.6165 593.563 86.3276 592.729 88.0528 592.591C89.6403 592.464 91.3171 592.483 92.8525 592.852C98.8975 594.306 104.762 592.019 110.477 592.041C116.203 592.061 122.185 594.48 128.076 592.802C130.255 592.18 131.684 592.087 133.908 592.761C139.784 594.548 145.763 592.052 151.493 592.025C157.208 592 163.208 594.657 169.065 592.689C171.376 591.914 172.829 592.449 174.908 592.852C180.057 593.857 185.245 592.827 190.45 592.315C195.574 591.813 201.429 594.125 207.039 593.244C208.972 592.94 210.686 591.251 212.528 590.179C212.528 587.122 213.068 584.126 212.374 581.451C211.711 578.9 209.764 576.681 208.9 575.206C210.31 571.225 212.419 568 212.313 564.851C212.195 561.307 210.077 557.832 208.759 554.127C212.887 548.814 215.556 543.233 209.377 536.969C208.52 536.103 208.399 533.098 209.189 532.248C215.081 525.914 213.342 520.111 208.528 514.657C208.567 513.95 208.447 513.482 208.626 513.262C213.266 507.599 215.66 501.997 209.151 495.859C208.413 495.165 208.811 491.616 209.526 491.301C214.277 489.206 213.374 484.613 212.224 482.115C209.875 477.013 209.766 471.93 209.126 466.63C208.513 461.539 205.738 456.742 204.239 451.718C202.752 446.738 196.832 444.749 196.183 438.94C196.033 437.583 190.837 437.3 189.223 435.434C187.845 433.842 188.579 430.58 187.768 428.272C187.422 427.289 185.589 426.558 184.303 426.243C182.66 425.845 180.885 425.985 178.914 425.878C178.05 421.732 177.844 417.437 172.394 417.306C171.158 417.276 169.676 416.339 168.779 415.38C164.348 410.647 158.62 409.349 152.534 408.846L152.546 408.855C152.412 408.523 152.346 407.952 152.136 407.893C140.109 404.566 127.983 403.982 115.818 406.982C113.272 407.608 111.245 408.774 113.419 412.239C113.963 413.107 111.994 415.555 111.362 416.894C105.851 415.593 107.817 412.264 108.72 408.76C106.233 409.746 104.271 410.369 102.447 411.276C97.681 413.639 92.7347 415.757 88.3201 418.672C84.1223 421.444 82.2285 426.995 76.5205 428.37C75.0727 428.718 74.2449 431.654 73.1411 433.405C72.4425 434.517 71.9998 435.935 71.0341 436.709C63.5039 442.752 60.0732 450.982 58.2189 460.099L57.5221 460.776ZM552.802 600H47.7306C47.4924 597.237 47.0513 594.516 47.0513 591.796C47.0263 476.12 46.894 360.444 47.1878 244.77C47.2398 224.707 51.4247 205.053 56.4395 185.588C64.0234 156.159 78.0324 129.856 94.82 104.884C98.7634 99.0218 103.617 93.711 108.452 88.52C117.142 79.1947 125.641 69.5684 135.528 61.5394C147.044 52.1853 158.663 42.6451 171.405 35.1802C194.888 21.4248 219.985 10.5594 246.729 5.23591C260.78 2.43921 275.11 -0.755316 289.827 0.159658C299.107 0.738018 308.456 0.139986 317.769 0.327962C334.051 0.653868 349.853 4.09176 365.591 7.9631C385.249 12.7994 403.631 20.8231 421.368 30.4027C439.517 40.2044 456.627 51.485 471.3 66.1536C476.532 71.3893 481.818 76.582 487.014 81.8536C515.733 110.979 534.097 146.198 545.779 184.866C550.867 201.673 553.053 219.176 552.999 237.092C552.623 353.841 552.802 470.591 552.802 587.341V600Z" fill="white"/>
<path d="M363.154 186.232C361.472 183.865 359.372 182.189 359.544 180.793C359.722 179.358 362.175 177.142 363.527 177.215C364.883 177.288 367.065 179.733 367.116 181.199C367.166 182.61 364.948 184.098 363.154 186.232Z" fill="white"/>
<path d="M465.747 589.81C462.163 588.146 459.207 587.169 461.035 583.491C461.931 581.659 463.704 579.888 466.159 581.664C470.745 584.991 465.478 586.646 465.747 589.81Z" fill="white"/>
<path d="M296.142 108.745C295.316 110.437 294.433 112.244 293.231 114.707C291.573 113.599 289.626 112.972 289.069 111.726C288.558 110.58 289.083 108.387 289.961 107.323C292.342 104.438 294.227 106.428 296.142 108.745Z" fill="white"/>
<path d="M255.732 138.56H265.856C266.902 142.15 264.832 144.06 262.445 143.962C260.757 143.894 259.166 141.459 255.732 138.56Z" fill="white"/>
<path d="M436.543 519.343C431.263 515.823 431.013 512.622 435.79 509.74C436.023 512.66 436.22 515.137 436.543 519.343Z" fill="white"/>
<path d="M422.085 187.52C421.816 182.424 421.69 179.913 421.583 177.564C425.524 176.203 427.388 178.397 427.388 180.683C427.388 182.322 424.987 183.96 422.085 187.52Z" fill="white"/>
<path d="M421.458 346.821C421.458 344.085 421.099 342.612 421.565 341.46C422.031 340.259 423.303 339.369 424.235 338.325C427.185 341.458 426.259 344.29 421.458 346.821Z" fill="white"/>
<path d="M474.561 328.067C475.851 330.053 477.195 331.222 477.32 332.518C477.607 335.107 475.69 336.352 473.433 335.571C472.322 335.181 471.032 333.208 471.103 332.022C471.157 330.896 472.895 329.863 474.561 328.067Z" fill="white"/>
<path d="M448.457 221.283C446.451 222.547 445.268 223.861 443.96 223.996C441.363 224.259 440.144 222.338 440.95 220.092C441.344 218.968 443.333 217.682 444.515 217.766C445.644 217.848 446.666 219.589 448.457 221.283Z" fill="white"/>
<path d="M448.457 322.595C446.361 323.728 444.946 325.13 443.835 324.923C442.635 324.699 441.022 323.069 440.843 321.862C440.449 319.304 442.384 318.056 444.677 318.74C445.895 319.103 446.738 320.765 448.457 322.595Z" fill="white"/>
<path d="M405.279 176.415C407.196 180.669 406.623 183.201 402.95 184.7C400.692 181.893 401.469 179.132 405.279 176.415Z" fill="white"/>
<path d="M438.12 250.804C437.528 251.614 437.027 253.032 436.31 253.143C434.465 253.433 432.512 253.15 430.595 253.095C430.666 252.138 430.362 250.928 430.827 250.271C432.35 248.167 434.178 246.4 436.758 249.08C437.241 249.582 437.618 250.171 438.12 250.804Z" fill="white"/>
<path d="M155.904 130.552C153.987 131.985 152.881 133.442 151.573 133.655C148.975 134.076 147.685 132.18 148.346 129.897C148.673 128.763 150.568 127.365 151.729 127.388C152.897 127.41 154.035 129.045 155.904 130.552Z" fill="white"/>
<path d="M211.309 126.001C212.95 127.771 214.682 128.806 214.743 129.933C214.809 131.132 213.544 133.122 212.419 133.519C210.149 134.323 208.248 133.021 208.476 130.472C208.592 129.173 209.992 127.992 211.309 126.001Z" fill="white"/>
<path d="M454.638 409.182C459.565 412.547 458.132 414.998 453.778 417.56C450.41 414.758 450.661 412.233 454.638 409.182Z" fill="white"/>
<path d="M248.09 130.898C249.828 129.229 250.837 127.476 251.948 127.408C253.15 127.334 255.151 128.579 255.558 129.7C256.375 131.949 255.115 133.879 252.553 133.678C251.263 133.578 250.075 132.192 248.09 130.898Z" fill="white"/>
<path d="M463.579 338.515C466.876 340.452 467.879 342.907 465.425 346.218C461.375 344.098 460.76 341.53 463.579 338.515Z" fill="white"/>
<path d="M111.023 186.223C112.318 188.231 113.657 189.409 113.804 190.72C114.099 193.355 112.123 194.498 109.905 193.733C108.789 193.348 107.51 191.375 107.582 190.198C107.651 189.063 109.364 188.03 111.023 186.223Z" fill="white"/>
<path d="M468.147 321.998C466.195 325.225 463.758 326.353 460.461 323.784C462.599 319.685 465.161 319.09 468.147 321.998Z" fill="white"/>
<path d="M271.432 134.918C270.163 132.878 268.827 131.668 268.718 130.355C268.495 127.718 270.522 126.607 272.723 127.386C273.822 127.777 275.067 129.805 274.958 130.973C274.85 132.131 273.121 133.136 271.432 134.918Z" fill="white"/>
<path d="M312.317 134.9C311.039 132.885 309.68 131.682 309.576 130.378C309.368 127.786 311.344 126.602 313.566 127.402C314.677 127.803 315.929 129.814 315.83 130.989C315.735 132.135 313.996 133.141 312.317 134.9Z" fill="white"/>
<path d="M418.322 231.957C416.297 233.234 415.079 234.584 413.789 234.686C411.174 234.892 410.027 232.886 410.815 230.687C411.209 229.59 413.234 228.363 414.417 228.464C415.563 228.562 416.566 230.285 418.322 231.957Z" fill="white"/>
<path d="M373.215 125.97C374.608 127.888 376.188 129.107 376.133 130.246C376.076 131.444 374.633 133.281 373.476 133.573C371.111 134.169 369.382 132.697 369.919 130.155C370.192 128.876 371.67 127.854 373.215 125.97Z" fill="white"/>
<path d="M438.138 231.5C435.331 233.938 432.56 233.392 429.824 229.863C433.39 227.092 435.952 227.855 438.138 231.5Z" fill="white"/>
<path d="M448.457 302.678C446.487 304.041 445.34 305.452 444.032 305.608C441.452 305.919 440.198 303.978 440.932 301.734C441.291 300.617 443.262 299.328 444.444 299.373C445.573 299.416 446.648 301.097 448.457 302.678Z" fill="white"/>
<path d="M474.562 438.021C472.896 436.218 471.158 435.178 471.086 434.036C471.014 432.861 472.322 430.9 473.469 430.503C475.726 429.708 477.625 430.963 477.339 433.554C477.195 434.858 475.852 436.029 474.562 438.021Z" fill="white"/>
<path d="M404.652 245.791C401.236 242.878 400.8 240.105 403.344 237.47C406.497 239.456 407.752 241.864 404.652 245.791Z" fill="white"/>
<path d="M468.362 444.219C465.03 449.062 462.576 447.671 460.013 443.325C462.809 440.005 465.317 440.199 468.362 444.219Z" fill="white"/>
<path d="M460.013 240.269C464.242 237.814 466.517 239.155 468.273 242.314C465.382 244.593 462.629 243.911 460.013 240.269Z" fill="white"/>
<path d="M358.767 139.027C363.025 137.179 365.573 137.695 367.064 141.383C364.242 143.583 361.477 142.798 358.767 139.027Z" fill="white"/>
<path d="M151.45 154.752C150.525 154.091 150.224 153.905 149.957 153.679C147.7 151.778 147.361 149.484 149.309 147.357C149.751 146.873 151.951 147.333 152.817 148.019C156.185 150.691 154.361 152.75 151.45 154.752Z" fill="white"/>
<path d="M439.105 454.289C435.665 455.15 433.336 455.737 429.538 456.69C430.505 453.932 430.649 452.573 431.365 451.685C433.963 448.48 436.095 449.889 439.105 454.289Z" fill="white"/>
<path d="M448.457 464.03C446.487 465.355 445.322 466.742 444.014 466.882C441.434 467.163 440.18 465.237 440.932 462.98C441.309 461.856 443.298 460.556 444.48 460.62C445.609 460.679 446.666 462.399 448.457 464.03Z" fill="white"/>
<path d="M172.595 146.458C175.185 150.293 174.264 152.686 171.357 154.188C170.778 154.487 168.711 153.277 168.331 152.351C166.838 148.714 169.551 147.71 172.595 146.458Z" fill="white"/>
<path d="M192.614 154.877C188.809 152.618 187.78 150.181 190.324 146.893C193.96 148.811 194.724 151.473 192.614 154.877Z" fill="white"/>
<path d="M250.513 146.282C254.238 149.047 254.961 151.825 252.681 154.616C249.144 152.997 248.402 150.505 250.513 146.282Z" fill="white"/>
<path d="M430.272 472.431C433.551 469.896 436.005 470.897 437.976 474.154C435.014 477.019 432.446 476.445 430.272 472.431Z" fill="white"/>
<path d="M271.806 154.653C269.133 152.811 267.152 150.807 270.525 148.068C271.396 147.362 273.709 146.873 274.03 147.296C276.535 150.592 275.153 152.974 271.806 154.653Z" fill="white"/>
<path d="M463.203 488.061C461.053 484.82 461.721 482.142 465.209 480.027C467.968 483.18 466.911 485.583 463.203 488.061Z" fill="white"/>
<path d="M288.538 149.881C291.316 147.489 294.062 148 296.776 151.414C293.259 154.365 290.724 153.507 288.538 149.881Z" fill="white"/>
<path d="M412.535 247.112C414.202 248.661 416.208 249.739 416.799 251.338C417.194 252.386 415.563 254.189 414.649 256.008C410.493 253.829 409.328 251.467 412.535 247.112Z" fill="white"/>
<path d="M353.61 154.691C350.441 152.797 349.036 150.435 351.505 146.995C355.72 148.893 356.422 151.458 353.61 154.691Z" fill="white"/>
<path d="M374.988 146.893C377.546 150.186 376.47 152.614 373.232 154.576C370.325 151.588 370.91 149.027 374.988 146.893Z" fill="white"/>
<path d="M438.12 493.806C436.203 496.939 433.838 498.382 430.398 495.875C432.333 491.648 434.907 490.958 438.12 493.806Z" fill="white"/>
<path d="M444.05 500.022C445.484 501.904 446.935 502.971 447.168 504.255C447.616 506.803 445.86 508.23 443.513 507.559C442.366 507.233 440.951 505.366 440.951 504.18C440.933 503.043 442.563 501.887 444.05 500.022Z" fill="white"/>
<path d="M443.566 399.012C445.233 400.768 446.971 401.782 447.042 402.899C447.114 404.091 445.86 406.081 444.749 406.48C442.491 407.286 440.574 406.049 440.807 403.476C440.915 402.185 442.276 401.006 443.566 399.012Z" fill="white"/>
<path d="M434.393 407.519C435.468 411.745 436.059 414.076 437.044 417.892C434.249 416.91 432.762 416.826 432.028 416.044C429.806 413.721 429.914 413.616 434.393 407.519Z" fill="white"/>
<path d="M429.538 394.419C432.536 390.847 435.367 390.336 438.03 392.886C436.113 396.26 433.569 396.999 429.538 394.419Z" fill="white"/>
<path d="M125.788 160.978C123.767 162.278 122.583 163.622 121.268 163.768C118.623 164.061 117.489 162.07 118.247 159.857C118.629 158.745 120.614 157.466 121.789 157.545C122.938 157.622 123.977 159.327 125.788 160.978Z" fill="white"/>
<path d="M448.314 525.367C446.057 526.14 444.444 527.279 443.351 526.906C442.222 526.527 440.915 524.684 440.897 523.452C440.825 520.702 443.136 520.063 445.161 520.92C446.325 521.411 446.917 523.277 448.314 525.367Z" fill="white"/>
<path d="M468.166 523.715C466.607 527.417 464.009 527.802 460.605 526.441C462.313 521.902 464.833 520.994 468.166 523.715Z" fill="white"/>
<path d="M141.638 165.026C139.745 163.325 138.054 162.523 137.658 161.302C136.909 158.983 138.217 157.089 140.739 157.406C141.934 157.556 143.584 159.157 143.828 160.346C144.057 161.465 142.708 162.906 141.638 165.026Z" fill="white"/>
<path d="M443.208 418.425C445.053 420.133 446.684 420.953 447.078 422.169C447.795 424.468 446.577 426.388 444.015 426.025C442.814 425.854 441.148 424.273 440.915 423.095C440.7 421.976 442.097 420.547 443.208 418.425Z" fill="white"/>
<path d="M180.822 165.018C179.68 162.917 178.27 161.499 178.48 160.387C178.706 159.196 180.35 157.588 181.56 157.409C184.129 157.026 185.344 158.98 184.659 161.264C184.296 162.48 182.64 163.311 180.822 165.018Z" fill="white"/>
<path d="M429.681 532.481C433.945 530.547 436.489 531.12 438.03 534.789C435.199 537.104 432.416 536.335 429.681 532.481Z" fill="white"/>
<path d="M279.437 163.775C279.444 162.412 278.964 160.734 279.586 159.765C280.311 158.638 281.947 157.699 283.296 157.525C284.04 157.429 285.799 159.173 285.702 159.907C285.529 161.261 284.595 162.899 283.466 163.63C282.501 164.256 280.82 163.782 279.456 163.796L279.437 163.775Z" fill="white"/>
<path d="M409.4 191.156C411.191 189.468 412.213 187.728 413.359 187.654C414.542 187.575 416.53 188.855 416.925 189.982C417.749 192.254 416.459 194.129 413.879 193.876C412.589 193.751 411.406 192.426 409.4 191.156Z" fill="white"/>
<path d="M438.174 190.675C437.511 191.599 437.314 191.897 437.099 192.163C435.199 194.399 432.906 194.754 430.774 192.814C430.29 192.377 430.756 190.177 431.455 189.312C434.125 185.962 436.185 187.769 438.174 190.675Z" fill="white"/>
<path d="M443.53 569.15C442.258 567.128 440.915 565.934 440.807 564.63C440.574 562.014 442.545 560.859 444.767 561.656C445.877 562.057 447.132 564.063 447.024 565.241C446.935 566.378 445.214 567.386 443.53 569.15Z" fill="white"/>
<path d="M343.3 156.118C344.615 158.107 345.987 159.28 346.121 160.58C346.392 163.169 344.457 164.4 342.212 163.63C341.092 163.246 339.817 161.271 339.879 160.083C339.939 158.956 341.653 157.916 343.3 156.118Z" fill="white"/>
<path d="M443.548 266.034C442.258 264.028 440.915 262.841 440.807 261.546C440.574 258.959 442.527 257.763 444.767 258.565C445.878 258.966 447.114 260.963 447.024 262.152C446.953 263.269 445.215 264.275 443.548 266.034Z" fill="white"/>
<path d="M384.044 156.123C385.392 158.091 386.807 159.248 386.951 160.546C387.237 163.128 385.302 164.371 383.055 163.64C381.939 163.277 380.642 161.304 380.698 160.122C380.753 158.983 382.446 157.921 384.044 156.123Z" fill="white"/>
<path d="M104.926 201.583C101.626 203.838 98.9453 203.163 96.8838 199.559C100.091 196.791 102.497 197.934 104.926 201.583Z" fill="white"/>
<path d="M430.236 293.596C432.303 289.964 434.949 289.232 438.174 291.402C436.256 295.007 433.945 296.316 430.236 293.596Z" fill="white"/>
<path d="M419.558 201.639C421.905 197.959 424.306 196.801 427.567 199.515C425.56 203.187 422.891 203.895 419.558 201.639Z" fill="white"/>
<path d="M444.372 196.912C445.68 198.895 447.06 200.058 447.203 201.354C447.472 203.929 445.591 205.223 443.315 204.459C442.187 204.081 440.914 202.095 440.968 200.897C441.022 199.767 442.742 198.716 444.372 196.912Z" fill="white"/>
<path d="M231.098 106.238C234.302 108.086 235.613 110.451 233.273 113.882C229.089 112.031 228.364 109.484 231.098 106.238Z" fill="white"/>
<path d="M435.253 316.634C431.563 313.892 430.858 311.135 433.139 308.363C436.615 309.994 437.529 312.431 435.253 316.634Z" fill="white"/>
<path d="M444.372 358.165C445.698 360.163 447.06 361.338 447.203 362.647C447.49 365.252 445.537 366.464 443.297 365.703C442.186 365.325 440.896 363.343 440.968 362.167C441.04 361.019 442.742 359.971 444.372 358.165Z" fill="white"/>
<path d="M267.895 123.723C263.164 122.525 260.825 121.932 257.993 121.214C261.024 117.573 264.325 118.41 267.895 123.723Z" fill="white"/>
<path d="M84.8243 222.256C82.5525 223.043 80.9436 224.189 79.8256 223.826C78.7058 223.461 77.4036 221.605 77.3731 220.375C77.3051 217.654 79.5626 216.921 81.6409 217.806C82.809 218.302 83.3964 220.16 84.8243 222.256Z" fill="white"/>
<path d="M419.756 220.784C422.527 218.373 425.28 218.91 428.015 222.392C424.467 225.237 421.924 224.447 419.756 220.784Z" fill="white"/>
<path d="M438.138 332.536C435.343 334.957 432.572 334.412 429.824 330.901C433.39 328.121 435.952 328.921 438.138 332.536Z" fill="white"/>
<path d="M468.542 382.175C467.162 383.249 465.998 384.615 464.528 385.16C463.436 385.564 461.967 384.894 460.533 384.685C462.301 380.149 464.97 379.312 468.542 382.175Z" fill="white"/>
<path d="M438.156 272.369C435.289 274.722 432.548 274.134 429.932 270.605C433.533 267.853 436.024 268.807 438.156 272.369Z" fill="white"/>
<path d="M101.846 176.991C104.405 180.28 103.357 182.717 100.092 184.671C97.2329 181.714 97.8176 179.154 101.846 176.991Z" fill="white"/>
<path d="M475.887 388.61C477.034 393.826 475.087 395.68 470.046 394.174C472.125 392.197 473.773 390.626 475.887 388.61Z" fill="white"/>
<path d="M468.148 403.642C465.998 407.068 463.651 407.92 460.999 404.134C463.149 401.185 465.532 401.021 468.148 403.642Z" fill="white"/>
<path d="M474.167 417.029C470.172 414.581 469.707 412.096 474.042 409.32C478.306 411.678 478.575 414.173 474.167 417.029Z" fill="white"/>
<path d="M460.569 422.8C463.185 418.721 465.729 418.568 468.219 422.902C465.567 427.244 463.041 427.077 460.569 422.8Z" fill="white"/>
<path d="M227.266 98.9358C224.253 101.303 222.597 102.605 220.677 104.112C219.458 99.2014 221.655 97.4759 227.266 98.9358Z" fill="white"/>
<path d="M246.431 101.45C244.229 102.472 242.52 103.65 242.199 103.35C240.85 102.085 239.917 100.379 238.831 98.8337C239.917 98.241 241.386 96.8909 242.01 97.2079C243.448 97.9348 244.478 99.4728 246.431 101.45Z" fill="white"/>
<path d="M256.375 98.7315C262.076 97.5032 264.196 99.2997 262.737 104.121C260.892 102.556 259.295 101.206 256.375 98.7315Z" fill="white"/>
<path d="M278.116 99.8436C280.366 98.6869 281.819 97.5947 283.419 97.2974C284.012 97.1881 284.953 98.9446 285.734 99.8506C284.258 101.04 282.85 102.35 281.223 103.278C281.005 103.403 279.687 101.606 278.116 99.8436Z" fill="white"/>
<path d="M306.408 99.4246C305.069 101.348 303.9 103.289 303.744 103.21C302.067 102.368 300.549 101.208 298.987 100.135C299.688 99.1559 300.472 97.3117 301.074 97.3691C302.667 97.5177 304.183 98.4934 306.408 99.4246Z" fill="white"/>
<path d="M327.544 98.7136C325.523 100.775 323.919 102.413 321.866 104.506C320.599 99.3636 322.492 97.4328 327.544 98.7136Z" fill="white"/>
<path d="M438.102 433.402C435.719 437.861 433.21 437.697 430.38 433.738C432.78 429.387 435.271 429.232 438.102 433.402Z" fill="white"/>
<path d="M450.195 433.087C452.435 431.919 453.868 430.82 455.463 430.523C456.054 430.412 457.004 432.168 457.792 433.074C456.323 434.26 454.925 435.569 453.312 436.489C453.08 436.618 451.772 434.833 450.195 433.087Z" fill="white"/>
<path d="M192.337 106.189C196.698 109.269 195.913 111.618 192.398 113.853C188.164 111.563 187.754 109.115 192.337 106.189Z" fill="white"/>
<path d="M211.455 106.052C215.536 108.578 216.124 110.936 212.333 113.524C209.694 111.518 209.402 109.028 211.455 106.052Z" fill="white"/>
<path d="M252.516 106.17C255.502 108.164 257.194 110.236 253.885 112.838C253.259 113.33 251.314 113.024 250.62 112.387C247.936 109.921 249.735 108.159 252.516 106.17Z" fill="white"/>
<path d="M271.921 113.984C267.497 110.911 268.126 108.557 271.855 106.25C276.144 108.557 276.185 111.026 271.921 113.984Z" fill="white"/>
<path d="M312.546 106.055C316.643 108.576 317.247 110.934 313.427 113.525C310.771 111.519 310.477 109.029 312.546 106.055Z" fill="white"/>
<path d="M354.746 105.76C355.784 108.422 359.114 111.232 354.062 113.375C351.085 111.109 351.303 108.561 354.714 105.731L354.746 105.76Z" fill="white"/>
<path d="M334.438 116.247C331.543 112.999 330.107 111.389 327.334 108.277C331.141 108.508 333.573 107.971 334.61 108.934C335.452 109.717 334.626 112.297 334.438 116.247Z" fill="white"/>
<path d="M159.087 116.396C161.153 117.25 163.219 118.106 165.503 119.051C163.427 122.043 162.094 124.197 158.978 122.029C156.258 120.136 158.505 118.398 158.881 116.584L159.087 116.396Z" fill="white"/>
<path d="M453.295 449.837C455.964 450.591 458.472 451.691 457.218 455.096C456.949 455.815 453.725 456.396 452.811 455.732C450.536 454.052 450.661 451.775 453.295 449.837Z" fill="white"/>
<path d="M197.463 121.042C198.65 119.499 199.842 117.952 201.995 115.155C202.959 117.973 204.432 120.029 203.909 121.18C202.518 124.253 200.139 123.535 197.463 121.042Z" fill="white"/>
<path d="M226.541 121.411C221.396 122.68 219.482 120.774 220.797 115.692C222.846 117.733 224.475 119.352 226.541 121.411Z" fill="white"/>
<path d="M242.728 124.108C240.804 122.752 238.864 121.579 238.946 121.415C239.784 119.732 240.954 118.211 242.033 116.646C243.015 117.356 244.869 118.145 244.81 118.754C244.658 120.351 243.67 121.87 242.728 124.108Z" fill="white"/>
<path d="M468.219 463.573C465.836 467.899 463.346 468.114 460.587 463.761C462.97 459.441 465.46 459.217 468.219 463.573Z" fill="white"/>
<path d="M281.124 115.681C283.129 117.733 284.722 119.363 286.761 121.447C281.559 122.685 279.68 120.763 281.124 115.681Z" fill="white"/>
<path d="M303.478 115.253C305.648 119.558 306.431 121.975 303.079 122.795C301.959 123.069 300.426 121.657 299.082 121.016C300.32 119.391 301.558 117.769 303.478 115.253Z" fill="white"/>
<path d="M322.228 116.22C323.757 117.409 325.288 118.602 328.06 120.759C325.27 121.721 323.208 123.202 322.062 122.679C319.005 121.28 319.718 118.899 322.228 116.22Z" fill="white"/>
<path d="M338.512 121.248C340.675 119.218 341.927 117.785 343.469 116.813C343.769 116.625 345.736 118.086 346.006 119.048C346.666 121.392 345.591 123.107 342.948 123C341.827 122.953 340.734 122.16 338.512 121.248Z" fill="white"/>
<path d="M459.1 472.931C456.914 474.931 455.66 476.338 454.101 477.284C453.796 477.468 451.88 475.995 451.611 475.035C450.966 472.693 452.041 470.99 454.692 471.133C455.803 471.194 456.878 471.991 459.1 472.931Z" fill="white"/>
<path d="M474.956 470.005C475.941 472.231 476.945 473.726 477.124 475.312C477.195 475.928 475.386 476.754 474.418 477.486C473.325 475.944 472.125 474.455 471.265 472.791C471.175 472.612 473.075 471.414 474.956 470.005Z" fill="white"/>
<path d="M359.462 119.696C362.106 115.661 364.656 115.466 367.148 119.819C364.476 124.195 361.936 123.925 359.462 119.696Z" fill="white"/>
<path d="M171.767 126.07C172.727 128.346 173.719 129.879 173.879 131.494C173.94 132.112 172.102 132.919 171.129 133.641C170.05 132.076 168.853 130.567 168.04 128.874C167.94 128.663 169.869 127.478 171.767 126.07Z" fill="white"/>
<path d="M187.259 130.69C189.834 126.636 192.211 126.029 194.805 129.827C192.767 132.466 190.252 132.754 187.259 130.69Z" fill="white"/>
<path d="M288.504 130.557C290.883 126.231 293.379 125.986 296.169 130.364C293.788 134.628 291.295 134.939 288.504 130.557Z" fill="white"/>
<path d="M444.229 488.086C440.198 485.531 439.625 483.16 443.369 480.573C445.985 482.594 446.272 485.098 444.229 488.086Z" fill="white"/>
<path d="M329.29 130.599C331.711 126.403 334.194 125.975 337.018 130.326C334.642 134.746 332.134 134.712 329.29 130.599Z" fill="white"/>
<path d="M350.95 135.657C350.994 129.947 353.237 127.693 357.679 128.894C355.644 130.939 354.021 132.572 350.95 135.657Z" fill="white"/>
<path d="M165.589 139.596C164.191 142.658 163.127 145.219 159.978 143.612C159.207 143.219 158.681 140.819 159.134 139.852C160.612 136.699 162.918 137.51 165.589 139.596Z" fill="white"/>
<path d="M203.563 146.691C200.342 143.111 198.901 141.511 196.104 138.404C199.917 138.626 202.316 138.089 203.384 139.04C204.262 139.824 203.563 142.373 203.563 146.691Z" fill="white"/>
<path d="M226.529 139.596C224.431 141.62 222.787 143.204 220.718 145.197C219.469 140.122 221.407 138.255 226.529 139.596Z" fill="white"/>
<path d="M286.797 139.383C284.726 141.496 283.117 143.138 281.109 145.188C279.693 140.209 281.589 138.275 286.797 139.383Z" fill="white"/>
<path d="M304.436 145.851C301.651 143.228 300.089 141.756 296.794 138.653C300.879 138.653 303.497 137.956 304.222 138.83C305.116 139.908 304.436 142.291 304.436 145.851Z" fill="white"/>
<path d="M321.591 144.197C320.594 140.169 322.198 138.429 326.401 138.977C326.622 142.436 324.853 143.942 321.591 144.197Z" fill="white"/>
<path d="M406.748 138.352C406.39 140.302 406.05 142.25 405.405 145.808C402.753 143.183 401.122 141.557 398.417 138.875C402.09 138.248 404.043 137.913 405.996 137.578C406.229 137.86 406.48 138.116 406.748 138.352Z" fill="white"/>
<path d="M458.903 495.523C453.635 496.657 451.67 495.015 453.008 490.597C453.94 490.889 455.051 490.951 455.731 491.522C456.699 492.326 457.362 493.506 458.903 495.523Z" fill="white"/>
<path d="M474.991 498.166C473.11 496.756 471.193 495.564 471.3 495.362C472.124 493.693 473.307 492.207 474.4 490.667C475.368 491.378 477.195 492.189 477.124 492.783C476.944 494.389 475.959 495.906 474.991 498.166Z" fill="white"/>
<path d="M134.834 149.647C132.555 154.028 130.117 154.272 127.215 150.007C129.569 145.883 132.009 145.681 134.834 149.647Z" fill="white"/>
<path d="M211.654 146.9C216.099 149.969 215.543 152.333 211.781 154.662C207.623 152.372 207.377 149.917 211.654 146.9Z" fill="white"/>
<path d="M312.761 146.907C317.075 149.821 316.761 152.207 312.813 154.704C308.998 152.411 308.198 150.023 312.761 146.907Z" fill="white"/>
<path d="M333.952 146.687C335.713 149.106 336.787 151.418 333.225 152.945C332.293 153.344 329.89 152.666 329.683 152.003C328.617 148.63 330.883 147.412 333.952 146.687Z" fill="white"/>
<path d="M468.147 504.683C465.98 508.118 463.65 508.974 460.981 505.171C463.143 502.204 465.532 502.042 468.147 504.683Z" fill="white"/>
<path d="M414.936 146.617C415.635 147.344 416.333 148.069 417.032 148.796C416.297 150.87 415.563 152.945 414.631 155.599C411.669 152.224 411.771 149.23 414.936 146.617Z" fill="white"/>
<path d="M157.353 160.459C160.119 156.206 162.597 156.401 164.964 160.668C162.18 164.987 159.702 164.745 157.353 160.459Z" fill="white"/>
<path d="M298.041 162.022C300.096 160.043 301.737 158.46 303.859 156.417C304.964 161.634 303.025 163.502 298.041 162.022Z" fill="white"/>
<path d="M367.151 160.668C364.382 164.955 361.884 164.756 359.49 160.471C362.26 156.216 364.761 156.397 367.151 160.668Z" fill="white"/>
<path d="M115.196 172.384C112.992 173.392 111.279 174.558 110.964 174.255C109.624 172.98 108.698 171.27 107.621 169.719C108.71 169.141 110.181 167.816 110.814 168.138C112.242 168.864 113.258 170.404 115.196 172.384Z" fill="white"/>
<path d="M454.693 510.259C459.154 513.379 458.347 515.731 454.836 517.986C450.5 515.706 450.339 513.241 454.693 510.259Z" fill="white"/>
<path d="M474.113 510.309C478.521 513.203 478.001 515.559 474.113 518.066C470.584 515.729 469.455 513.384 474.113 510.309Z" fill="white"/>
<path d="M149.823 176.108C148.607 170.414 150.402 168.296 155.209 169.753C153.648 171.596 152.299 173.186 149.823 176.108Z" fill="white"/>
<path d="M333.768 175.358C331.747 173.286 330.15 171.65 328.128 169.576C333.243 168.345 335.123 170.273 333.768 175.358Z" fill="white"/>
<path d="M353.184 166.747C354.89 168.378 356.624 169.705 356.48 169.958C355.569 171.553 354.239 172.909 353.05 174.343C352.17 173.543 350.459 172.583 350.577 171.974C350.882 170.4 351.993 168.982 353.184 166.747Z" fill="white"/>
<path d="M377.62 172.384C375.423 173.388 373.718 174.547 373.402 174.248C372.066 172.975 371.141 171.268 370.066 169.719C371.158 169.141 372.63 167.816 373.261 168.137C374.685 168.864 375.692 170.405 377.62 172.384Z" fill="white"/>
<path d="M409.4 170.672C411.657 169.562 413.108 168.495 414.721 168.232C415.312 168.133 416.226 169.902 416.996 170.819C415.509 171.977 414.076 173.261 412.445 174.151C412.213 174.275 410.94 172.455 409.4 170.672Z" fill="white"/>
<path d="M121.281 177.034C125.761 180.143 125.023 182.502 121.456 184.769C117.124 182.501 116.961 180.033 121.281 177.034Z" fill="white"/>
<path d="M342.938 184.882C339.932 182.845 338.158 180.782 341.547 178.175C342.185 177.684 344.134 178.003 344.837 178.647C347.562 181.152 345.624 182.884 342.938 184.882Z" fill="white"/>
<path d="M383.665 184.789C379.331 182.028 379.498 179.532 383.846 177.151C388.116 179.903 387.954 182.399 383.665 184.789Z" fill="white"/>
<path d="M95.7426 191.794C91.6202 194.378 89.2661 194.99 88.1912 191.882C87.8132 190.788 89.1441 189.103 89.6959 187.688C91.4033 188.847 93.109 190.007 95.7426 191.794Z" fill="white"/>
<path d="M353.076 186.438C354.612 188.825 355.613 190.385 356.615 191.944C355.269 192.582 353.687 193.971 352.644 193.644C351.618 193.321 350.741 191.309 350.568 189.941C350.464 189.113 351.822 188.1 353.076 186.438Z" fill="white"/>
<path d="M368.966 192.166C371.032 190.168 372.672 188.582 374.771 186.549C375.944 191.718 374.009 193.591 368.966 192.166Z" fill="white"/>
<path d="M359.447 201.401C362.047 197.008 364.613 197.08 367.18 201.366C364.591 205.684 362.024 205.61 359.447 201.401Z" fill="white"/>
<path d="M383.283 205.626C382.002 204 380.597 202.994 380.689 202.154C380.841 200.777 381.724 198.729 382.749 198.408C383.82 198.075 385.428 199.45 386.789 200.079C385.786 201.662 384.782 203.245 383.283 205.626Z" fill="white"/>
<path d="M403.757 205.687C402.198 203.289 401.194 201.725 400.173 200.158C401.517 199.499 403.093 198.079 404.151 198.394C405.172 198.7 406.068 200.734 406.247 202.108C406.336 202.957 404.993 203.99 403.757 205.687Z" fill="white"/>
<path d="M459.1 533.225C456.914 535.217 455.624 536.62 454.083 537.562C453.778 537.743 451.844 536.253 451.593 535.292C450.984 532.964 452.005 531.195 454.674 531.333C455.803 531.392 456.878 532.239 459.1 533.225Z" fill="white"/>
<path d="M469.258 533.018C474.979 531.732 477.112 533.513 475.654 538.362C473.791 536.812 472.196 535.474 469.258 533.018Z" fill="white"/>
<path d="M465.496 550.268C462.772 547.239 461.339 545.636 459.637 543.749C464.08 542.47 466.033 544.644 465.496 550.268Z" fill="white"/>
<path d="M434.931 549.894C436.221 555.008 434.31 556.922 429.197 555.636C431.258 553.577 432.888 551.949 434.931 549.894Z" fill="white"/>
<path d="M458.938 554.533C457.29 555.782 456.287 557.146 455.445 557.048C454.083 556.89 452.023 556.014 451.718 555.01C451.414 553.925 452.775 552.342 453.42 550.979C454.979 551.987 456.556 552.995 458.938 554.533Z" fill="white"/>
<path d="M470.011 555.545C472.107 553.523 473.737 551.935 475.816 549.928C477.07 555.054 475.135 556.926 470.011 555.545Z" fill="white"/>
<path d="M413.628 207.096C417.659 209.592 418.375 211.929 414.524 214.524C411.872 212.537 411.573 210.062 413.628 207.096Z" fill="white"/>
<path d="M388.653 222.365C382.909 223.649 380.756 221.88 382.196 217.059C384.055 218.588 385.66 219.913 388.653 222.365Z" fill="white"/>
<path d="M404.741 215.922C406.02 221.639 404.246 223.768 399.42 222.309C400.961 220.463 402.287 218.864 404.741 215.922Z" fill="white"/>
<path d="M459.118 230.109C456.914 232.107 455.642 233.513 454.083 234.453C453.778 234.637 451.844 233.158 451.593 232.204C450.984 229.882 452.023 228.114 454.692 228.247C455.803 228.302 456.878 229.135 459.118 230.109Z" fill="white"/>
<path d="M444.033 237.363C448.261 239.964 448.279 242.527 443.979 245.073C439.715 242.46 439.751 239.9 444.033 237.363Z" fill="white"/>
<path d="M422.712 247.291C421.923 241.652 423.799 239.374 428.338 240.458C426.725 242.421 425.345 244.088 422.712 247.291Z" fill="white"/>
<path d="M453.277 246.083C455.642 249.089 456.95 250.742 458.455 252.661C453.558 253.851 451.832 251.659 453.277 246.083Z" fill="white"/>
<path d="M419.522 261.337C422.401 259.475 425.047 259.537 427.46 261.523C425.059 265.627 422.604 266.014 419.522 261.337Z" fill="white"/>
<path d="M460.533 564.72C463.453 560.319 465.818 560.845 468.237 564.661C465.962 568.473 463.597 569.34 460.533 564.72Z" fill="white"/>
<path d="M468.309 261.559C466.266 264.606 464.206 266.347 461.626 262.957C461.142 262.322 461.465 260.382 462.11 259.684C464.618 256.973 466.338 258.928 468.309 261.559Z" fill="white"/>
<path d="M418.197 271.685C415.796 273.257 414.237 274.283 412.679 275.305C412.016 273.97 410.564 272.394 410.887 271.361C411.209 270.317 413.216 269.405 414.596 269.217C415.438 269.101 416.495 270.453 418.197 271.685Z" fill="white"/>
<path d="M459.1 270.906C456.914 272.895 455.642 274.301 454.083 275.25C453.797 275.431 451.862 273.944 451.611 272.979C450.966 270.641 452.041 268.913 454.675 269.049C455.803 269.106 456.878 269.937 459.1 270.906Z" fill="white"/>
<path d="M474.973 267.907C475.941 270.155 476.963 271.665 477.124 273.264C477.195 273.894 475.368 274.721 474.418 275.457C473.308 273.907 472.107 272.41 471.283 270.728C471.176 270.528 473.092 269.326 474.973 267.907Z" fill="white"/>
<path d="M435.647 580.071C432.87 577.467 431.294 575.993 427.979 572.885C432.082 572.885 434.716 572.187 435.432 573.064C436.346 574.137 435.647 576.529 435.647 580.071Z" fill="white"/>
<path d="M458.956 574.826C456.574 576.369 454.997 577.381 453.438 578.393C452.793 577.046 451.396 575.462 451.736 574.421C452.059 573.392 454.065 572.512 455.445 572.339C456.269 572.235 457.308 573.587 458.956 574.826Z" fill="white"/>
<path d="M474.615 570.91C475.78 573.132 476.872 574.563 477.159 576.144C477.267 576.739 475.529 577.68 474.633 578.461C473.433 577.007 472.125 575.619 471.193 574.013C471.086 573.802 472.859 572.481 474.615 570.91Z" fill="white"/>
<path d="M429.663 282.894C424.038 283.645 421.762 281.766 422.837 277.259C424.79 278.876 426.456 280.247 429.663 282.894Z" fill="white"/>
<path d="M459.243 280.852C461.035 279.95 462.844 279.046 465.478 277.731C465.729 279.629 466.768 282.222 466.033 282.906C464.904 283.939 462.557 283.642 460.73 283.911C460.228 282.89 459.745 281.871 459.243 280.852Z" fill="white"/>
<path d="M453.725 296.056C452.811 293.793 451.843 292.258 451.718 290.656C451.664 290.042 453.509 289.272 454.495 288.575C455.552 290.146 456.716 291.669 457.541 293.36C457.612 293.537 455.678 294.694 453.725 296.056Z" fill="white"/>
<path d="M444.104 581.27C448.35 583.994 448.225 586.51 443.889 588.915C439.714 586.196 439.732 583.677 444.104 581.27Z" fill="white"/>
<path d="M470.011 293.39C472.036 291.304 473.63 289.666 475.637 287.589C477.058 292.707 475.183 294.641 470.011 293.39Z" fill="white"/>
<path d="M428.768 301.899C426.385 303.428 424.826 304.436 423.267 305.443C422.64 304.085 421.278 302.502 421.619 301.435C421.924 300.418 423.948 299.537 425.309 299.374C426.134 299.276 427.137 300.649 428.768 301.899Z" fill="white"/>
<path d="M468.219 302.527C465.442 306.834 462.988 306.358 460.569 302.381C463.418 297.924 465.89 298.271 468.219 302.527Z" fill="white"/>
<path d="M454.907 308.401C456.806 310.718 456.967 313.099 455.391 315.543C452.417 313.381 452.256 311.001 454.907 308.401Z" fill="white"/>
<path d="M474.203 308.302C478.485 311.044 478.414 313.541 474.024 315.907C469.796 313.199 469.957 310.705 474.203 308.302Z" fill="white"/>
<path d="M429.932 323.651C424.461 324.446 421.893 322.963 422.228 319.202C426.134 317.64 426.277 321.209 429.932 323.651Z" fill="white"/>
<path d="M452.041 337.665C452.089 332.019 454.34 329.784 458.795 330.959C456.735 333.005 455.104 334.626 452.041 337.665Z" fill="white"/>
<path d="M443.943 338.33C447.096 340.402 448.655 342.52 445.34 345.086C444.731 345.566 442.778 345.208 442.079 344.553C439.392 342.032 441.327 340.296 443.943 338.33Z" fill="white"/>
<path d="M430.308 353.522C430.272 353.183 430.111 352.779 430.236 352.516C431.294 350.354 432.494 347.865 435.361 349.411C436.221 349.867 436.364 352.426 436.113 353.9C435.88 355.208 434.626 355.078 430.308 353.522Z" fill="white"/>
<path d="M458.437 353.332C455.445 355.439 453.116 356.499 451.629 352.922C451.235 351.983 451.862 349.658 452.596 349.38C456.341 347.915 456.753 351.149 458.437 353.332Z" fill="white"/>
<path d="M475.242 347.391C477.822 351.522 478.449 353.878 475.314 354.934C474.203 355.307 472.537 353.978 471.122 353.425C472.286 351.72 473.451 350.018 475.242 347.391Z" fill="white"/>
<path d="M460.569 362.605C463.167 358.32 465.729 358.33 468.255 362.656C465.657 366.948 463.095 366.94 460.569 362.605Z" fill="white"/>
<path d="M428.768 371.952C433.068 369.755 435.486 368.973 436.346 372.323C436.615 373.453 435.217 375.009 434.573 376.368C432.906 375.104 431.258 373.839 428.768 371.952Z" fill="white"/>
<path d="M454.818 377.684C450.661 374.495 450.554 372.203 452.847 370.543C453.761 369.884 455.875 370.905 457.452 371.159C456.681 373.077 455.911 374.994 454.818 377.684Z" fill="white"/>
<path d="M454.155 388.474C455.695 390.871 456.699 392.433 457.702 393.996C456.358 394.642 454.782 396.05 453.725 395.722C452.703 395.4 451.808 393.378 451.646 392.003C451.539 391.169 452.901 390.146 454.155 388.474Z" fill="white"/>
<path d="M140.453 136.927C141.961 138.207 143.747 139.518 143.652 139.672C142.733 141.165 141.501 142.463 140.356 143.817C139.425 142.85 137.722 141.854 137.758 140.923C137.803 139.731 139.247 138.592 140.453 136.927Z" fill="white"/>
<path d="M227.569 130.438C229.569 129.035 231.099 127.961 233.66 126.163V134.817C231.05 132.939 229.536 131.85 227.569 130.438Z" fill="white"/>
<path d="M95.2749 209.401C93.605 211.972 92.5838 213.542 91.1291 215.781C89.7244 213.49 88.7425 211.891 87.2143 209.401H95.2749Z" fill="white"/>
<path d="M178.082 121.426C179.062 119.862 180.048 118.292 181.58 115.844C182.868 118.229 184.821 120.294 184.376 121.318C183.131 124.187 180.703 123.393 178.082 121.426Z" fill="white"/>
<path d="M391.501 195.271C391.824 191.765 392.003 189.9 392.182 188.032C393.974 188.61 395.747 189.19 398.632 190.129C395.981 192.043 394.421 193.156 391.501 195.271Z" fill="white"/>
<path d="M448.618 283.936C445.053 283.622 443.208 283.457 441.345 283.293C441.9 281.543 442.473 279.792 443.423 276.85C445.358 279.49 446.469 281.008 448.618 283.936Z" fill="white"/>
<path d="M399.456 231.018C395.73 233.309 394.332 234.165 391.68 235.796C391.878 232.578 391.985 230.73 392.093 228.882C393.849 229.391 395.604 229.899 399.456 231.018Z" fill="white"/>
<path d="M447.598 443.057C446.469 444.48 445.34 445.904 443.799 447.848C442.473 445.714 441.488 444.142 440.001 441.746C442.814 441.445 444.623 441.25 446.433 441.057C446.827 441.723 447.203 442.389 447.598 443.057Z" fill="white"/>
<path d="M474.293 377.279C472.698 374.935 471.659 373.392 470.029 371.001C472.859 370.606 474.651 370.357 478.037 369.884C476.479 372.987 475.565 374.769 474.293 377.279Z" fill="white"/>
<path d="M419.952 384.938C422.138 382.019 423.249 380.513 425.22 377.899C426.098 380.839 426.635 382.587 427.155 384.334C425.327 384.488 423.482 384.642 419.952 384.938Z" fill="white"/>
<path d="M475.332 450.178C475.834 451.868 476.335 453.558 476.837 455.251C475.027 455.218 473.2 455.186 471.39 455.156C471.946 453.462 472.483 451.766 473.039 450.072C473.809 450.108 474.561 450.142 475.332 450.178Z" fill="white"/>
<path d="M444.032 378.318C445.43 380.569 446.433 382.182 448.046 384.75H439.911C441.56 382.155 442.599 380.546 444.032 378.318Z" fill="white"/>
<path d="M391.752 167.27C394.279 168.815 395.891 169.805 398.184 171.216C395.927 172.672 394.332 173.696 391.752 175.365V167.27Z" fill="white"/>
<path d="M312.756 174.9C311.355 172.867 310.294 171.333 308.5 168.731H317.152C315.268 171.376 314.187 172.891 312.756 174.9Z" fill="white"/>
<path d="M125.025 171.823C128.746 169.462 130.117 168.591 132.772 166.906C132.6 170.137 132.502 171.961 132.405 173.786C130.636 173.317 128.87 172.846 125.025 171.823Z" fill="white"/>
<path d="M399.51 160.543C401.553 159.148 403.093 158.093 405.691 156.328V164.896C403.039 163.03 401.517 161.955 399.51 160.543Z" fill="white"/>
<path d="M321.042 156.322C323.5 157.912 324.879 158.804 327.013 160.185C325.37 161.63 324.333 163.234 322.984 163.565C320.979 164.059 320.692 163.164 321.042 156.322Z" fill="white"/>
<path d="M455.23 217.091C452.883 213.369 452.023 211.986 450.338 209.317C453.581 209.512 455.427 209.621 457.254 209.732C456.771 211.48 456.305 213.229 455.23 217.091Z" fill="white"/>
<path d="M377.634 209.173C375.488 212.087 374.372 213.603 372.433 216.234C371.503 213.288 370.95 211.535 370.396 209.784C372.252 209.626 374.108 209.471 377.634 209.173Z" fill="white"/>
<path d="M182.097 146.216C179.757 142.467 178.892 141.081 177.23 138.418C180.456 138.595 182.291 138.696 184.127 138.796C183.647 140.547 183.168 142.298 182.097 146.216Z" fill="white"/>
<path d="M391.591 145.679C394.243 147.197 395.676 148.012 396.966 148.757C396.787 149.788 396.858 150.777 396.536 150.936C395.138 151.62 393.615 152.057 392.146 152.584C392.003 150.716 391.842 148.848 391.591 145.679Z" fill="white"/>
<path d="M433.945 217.104C431.544 213.455 430.648 212.085 429.054 209.648H435.826C435.379 211.381 434.948 213.114 433.945 217.104Z" fill="white"/>
<path d="M226.961 149.248C229.898 148.347 231.648 147.81 233.399 147.274C233.558 149.137 233.72 150.997 234.023 154.496C231.095 152.319 229.586 151.198 226.961 149.248Z" fill="white"/>
<path d="M383.704 144.741C382.309 142.714 381.252 141.179 379.496 138.629H388.133C386.234 141.251 385.141 142.751 383.704 144.741Z" fill="white"/>
<path d="M444.319 550.284C442.133 546.508 441.309 545.093 439.75 542.422C442.939 542.69 444.803 542.846 446.666 543C446.093 544.75 445.537 546.499 444.319 550.284Z" fill="white"/>
<path d="M341.791 144.012C341.255 142.32 340.718 140.631 340.182 138.939C342.001 138.928 343.819 138.918 345.636 138.907C345.121 140.595 344.606 142.282 344.09 143.971C343.323 143.985 342.558 143.998 341.791 144.012Z" fill="white"/>
<path d="M241.721 136.622C243.217 138.525 245.02 139.965 244.769 140.687C244.324 141.96 242.75 143.201 241.391 143.622C240.813 143.801 238.824 141.867 238.842 140.92C238.866 139.747 240.306 138.601 241.721 136.622Z" fill="white"/>
<path d="M397.952 212.201C396.679 213.229 395.318 214.57 395.138 214.431C393.777 213.342 392.63 211.967 391.43 210.681C392.164 210.124 393.186 208.941 393.58 209.125C394.995 209.791 396.196 210.914 397.952 212.201Z" fill="white"/>
<path d="M133.127 407.855C132.913 412.083 132.785 414.599 132.638 417.523C127.82 414.848 127.983 411.625 133.127 407.855Z" fill="white"/>
<path d="M110.134 437.993C108.864 435.966 107.526 434.767 107.42 433.467C107.207 430.858 109.199 429.71 111.405 430.51C112.508 430.911 113.73 432.924 113.641 434.115C113.556 435.236 111.822 436.233 110.134 437.993Z" fill="white"/>
<path d="M150.956 438.003C149.687 435.987 148.372 434.802 148.239 433.495C147.972 430.873 149.909 429.695 152.147 430.506C153.274 430.916 154.555 432.891 154.472 434.068C154.39 435.201 152.647 436.22 150.956 438.003Z" fill="white"/>
<path d="M187.343 453.048C190.724 447.991 193.13 449.888 195.851 453.777C192.888 457.233 190.36 456.998 187.343 453.048Z" fill="white"/>
<path d="M84.9389 463.747C83.0487 465.179 81.9616 466.632 80.6645 466.852C78.0934 467.289 76.7332 465.46 77.3979 463.149C77.7275 462.001 79.6127 460.588 80.7826 460.597C81.94 460.606 83.0863 462.253 84.9389 463.747Z" fill="white"/>
<path d="M186.026 463.283C184.233 464.925 183.188 466.649 182.042 466.719C180.868 466.791 178.903 465.482 178.512 464.354C177.731 462.1 178.958 460.168 181.56 460.445C182.864 460.585 184.036 461.963 186.026 463.283Z" fill="white"/>
<path d="M61.2483 487.807C57.4896 486.305 57.235 483.666 58.4515 480.276C62.9892 481.907 63.9215 484.417 61.2483 487.807Z" fill="white"/>
<path d="M142.719 480.102C145.369 483.461 144.07 485.863 140.886 487.839C137.991 484.772 138.602 482.192 142.719 480.102Z" fill="white"/>
<path d="M200.841 488.135C198.632 484.856 199.267 482.16 202.748 480.048C205.613 483.193 204.403 485.565 200.841 488.135Z" fill="white"/>
<path d="M115.047 493.003C113.358 494.828 112.543 496.484 111.332 496.857C109.047 497.559 107.096 496.337 107.445 493.788C107.61 492.581 109.223 490.928 110.418 490.695C111.525 490.477 112.949 491.879 115.047 493.003Z" fill="white"/>
<path d="M151.466 489.313C152.926 491.22 154.392 492.301 154.616 493.598C155.062 496.174 153.204 497.514 150.903 496.871C149.767 496.554 148.377 494.663 148.377 493.483C148.375 492.332 149.995 491.177 151.466 489.313Z" fill="white"/>
<path d="M194.064 497.417C191.765 496.552 189.466 495.687 186.709 494.649C190.321 491.267 192.773 492.19 194.064 497.417Z" fill="white"/>
<path d="M195.54 555.832C191.851 558.297 189.447 557.42 187.954 554.487C187.657 553.903 188.864 552.025 189.807 551.452C191.779 550.256 191.898 550.451 195.54 555.832Z" fill="white"/>
<path d="M84.9267 504.948C82.8914 506.216 81.6855 507.548 80.3794 507.654C77.7475 507.867 76.6476 505.838 77.4396 503.654C77.8373 502.558 79.865 501.351 81.0582 501.442C82.1799 501.53 83.1727 503.263 84.9267 504.948Z" fill="white"/>
<path d="M186.025 504.744C184.054 506.1 182.907 507.493 181.608 507.654C179.001 507.976 177.788 506.023 178.5 503.79C178.853 502.68 180.82 501.382 182.002 501.436C183.143 501.486 184.211 503.16 186.025 504.744Z" fill="white"/>
<path d="M73.0838 510.816C72.541 513.16 72 515.504 71.287 518.593C69.4236 517.502 68.4057 517.228 67.9023 516.562C64.6882 512.324 68.6176 511.583 70.3894 509.79C71.2871 510.13 72.1844 510.472 73.0838 510.816Z" fill="white"/>
<path d="M91.4555 518.208C87.7379 515.858 86.6698 513.438 89.3034 510.198C92.9058 512.204 93.6233 514.874 91.4555 518.208Z" fill="white"/>
<path d="M133.121 510.677C132.919 513.174 132.718 515.672 132.31 520.743C129.562 516.804 128.293 514.985 126.847 512.913C128.393 511.661 129.694 510.607 130.993 509.554C131.702 509.928 132.412 510.302 133.121 510.677Z" fill="white"/>
<path d="M190.441 510.096C194.002 512.287 194.717 514.922 192.584 518.002C188.819 516.143 187.759 513.743 190.441 510.096Z" fill="white"/>
<path d="M84.8228 525.346C82.5403 526.134 81.1179 527.08 79.758 526.999C76.8395 526.826 76.6817 524.324 77.5793 522.526C78.0863 521.511 80.4655 520.65 81.6516 520.979C82.7553 521.286 83.3985 523.259 84.8228 525.346Z" fill="white"/>
<path d="M104.654 523.739C103.02 527.259 100.517 527.991 97.0845 526.315C98.7818 521.852 101.305 520.993 104.654 523.739Z" fill="white"/>
<path d="M186.023 523.549C184.235 525.164 183.19 526.86 182.053 526.924C180.87 526.991 178.887 525.723 178.511 524.613C177.755 522.376 178.978 520.43 181.565 520.695C182.863 520.829 184.034 522.219 186.023 523.549Z" fill="white"/>
<path d="M119.313 479.493C123.067 482.28 123.787 485.057 121.472 487.827C117.911 486.212 117.165 483.719 119.313 479.493Z" fill="white"/>
<path d="M196.031 532.916C193.033 536.503 190.2 537.016 187.533 534.456C189.456 531.059 191.996 530.343 196.031 532.916Z" fill="white"/>
<path d="M80.8125 560.242C82.1508 562.22 83.5431 563.379 83.6846 564.677C83.9677 567.254 82.0491 568.52 79.7934 567.768C78.6719 567.395 77.389 565.418 77.4427 564.224C77.4929 563.094 79.1983 562.039 80.8125 560.242Z" fill="white"/>
<path d="M104.928 564.876C101.634 567.145 98.9525 566.482 96.8838 562.886C100.082 560.097 102.477 561.293 104.928 564.876Z" fill="white"/>
<path d="M125.763 565.191C123.721 566.455 122.513 567.782 121.2 567.893C118.555 568.119 117.473 566.086 118.265 563.902C118.664 562.8 120.68 561.572 121.857 561.671C122.993 561.765 123.991 563.497 125.763 565.191Z" fill="white"/>
<path d="M181.104 569.137C179.829 567.125 178.492 565.934 178.374 564.634C178.134 562.027 180.094 560.856 182.316 561.656C183.428 562.059 184.688 564.05 184.598 565.227C184.512 566.36 182.78 567.372 181.104 569.137Z" fill="white"/>
<path d="M121.481 588.863C117.932 587.244 117.197 584.746 118.881 581.308C123.377 583.001 124.244 585.519 121.481 588.863Z" fill="white"/>
<path d="M142.864 580.502C144.769 584.767 144.205 587.312 140.53 588.843C138.241 586.021 139.02 583.241 142.864 580.502Z" fill="white"/>
<path d="M179.664 580.434C183.37 583.325 184.012 586.161 181.588 588.941C178.274 587.097 177.34 584.61 179.664 580.434Z" fill="white"/>
<path d="M104.618 423.032C102.691 426.401 100.15 427.007 96.8355 424.988C99.0308 420.793 101.625 420.141 104.618 423.032Z" fill="white"/>
<path d="M110.721 530.11C112.141 532.011 113.746 533.215 113.698 534.348C113.65 535.55 112.213 537.396 111.052 537.698C108.676 538.32 106.963 536.832 107.479 534.298C107.739 533.018 109.21 531.983 110.721 530.11Z" fill="white"/>
<path d="M152.534 408.846C153.653 411.507 156.952 414.294 151.905 416.473C148.902 414.215 149.116 411.675 152.546 408.855L152.534 408.846Z" fill="white"/>
<path d="M126.211 424.436C120.493 425.697 118.347 423.928 119.772 419.131C121.626 420.658 123.237 421.983 126.211 424.436Z" fill="white"/>
<path d="M136.615 424.359C138.711 422.348 140.359 420.767 142.45 418.762C143.663 423.903 141.717 425.769 136.615 424.359Z" fill="white"/>
<path d="M165.091 422.73C162.165 427.171 159.82 426.782 157.389 422.952C159.591 418.984 161.988 418.631 165.091 422.73Z" fill="white"/>
<path d="M90.7062 437.803C89.4323 436.184 88.0477 435.194 88.1373 434.369C88.2896 432.983 89.1281 430.934 90.1529 430.592C91.1993 430.243 92.8188 431.617 94.1875 432.238C93.1968 433.821 92.2076 435.404 90.7062 437.803Z" fill="white"/>
<path d="M134.933 433.538C132.912 436.485 130.882 438.363 128.261 434.927C127.766 434.283 128.071 432.342 128.711 431.638C131.206 428.897 132.932 430.838 134.933 433.538Z" fill="white"/>
<path d="M172.324 438.469C169.934 435.425 168.637 433.772 167.137 431.864C171.996 430.604 173.725 432.806 172.324 438.469Z" fill="white"/>
<path d="M121.526 439.545C124.937 441.724 125.828 444.068 122.006 446.729C119.036 444.531 118.875 442.137 121.526 439.545Z" fill="white"/>
<path d="M101.202 447.782C99.6555 446.595 98.1073 445.407 95.3124 443.262C98.1145 442.292 100.155 440.815 101.315 441.329C104.444 442.713 103.636 445.096 101.202 447.782Z" fill="white"/>
<path d="M160.252 447.313C159.24 443.277 160.834 441.526 165.034 442.061C165.231 445.483 163.538 447.055 160.252 447.313Z" fill="white"/>
<path d="M71.3766 448.161C72.6141 453.801 70.8338 455.917 66.0359 454.511C67.5874 452.666 68.9275 451.073 71.3766 448.161Z" fill="white"/>
<path d="M94.1569 454.867C91.9496 456.676 89.5777 457.444 88.2107 454.276C87.7735 453.263 89.1618 450.226 89.8659 450.176C92.7666 449.961 94.2751 451.822 94.1569 454.867Z" fill="white"/>
<path d="M134.832 452.853C132.459 457.113 129.972 457.424 127.241 453.021C129.66 448.808 132.157 448.792 134.832 452.853Z" fill="white"/>
<path d="M150.948 448.749C152.465 451.125 153.467 452.694 154.469 454.262C153.109 454.889 151.53 456.25 150.452 455.931C149.441 455.63 148.554 453.594 148.4 452.234C148.305 451.394 149.683 450.389 150.948 448.749Z" fill="white"/>
<path d="M172.519 448.892C173.801 453.974 171.872 455.869 166.734 454.579C168.823 452.525 170.462 450.915 172.519 448.892Z" fill="white"/>
<path d="M96.9553 463.688C99.8685 459.33 102.246 459.718 104.731 463.636C102.445 467.436 100.067 468.3 96.9553 463.688Z" fill="white"/>
<path d="M126.166 462.239C123.178 464.619 121.533 465.928 119.622 467.451C118.36 462.517 120.542 460.779 126.166 462.239Z" fill="white"/>
<path d="M145.455 462.968C143.284 464.802 142.114 466.212 140.616 466.839C140.039 467.083 138.713 465.543 137.73 464.814C138.944 463.391 140.028 461.8 141.472 460.669C141.804 460.409 143.373 461.732 145.455 462.968Z" fill="white"/>
<path d="M157.294 463.666C159.909 459.321 162.468 459.419 165.019 463.656C162.389 468.078 159.833 467.88 157.294 463.666Z" fill="white"/>
<path d="M70.7422 477.843C69.2766 476.494 67.7501 475.087 64.9067 472.469C68.352 471.969 70.6185 470.917 71.6629 471.635C73.9688 473.225 73.8149 475.563 70.7422 477.843Z" fill="white"/>
<path d="M89.311 479.448C88.5465 473.823 90.4364 471.552 94.9811 472.635C93.3489 474.594 91.9662 476.258 89.311 479.448Z" fill="white"/>
<path d="M151.58 478.698C147.408 475.507 147.306 473.226 149.59 471.577C150.497 470.922 152.616 471.944 154.182 472.202C153.419 474.107 152.657 476.009 151.58 478.698Z" fill="white"/>
<path d="M165.962 472.482C171.843 471.614 173.889 473.478 172.099 478.074C170.337 476.467 168.791 475.06 165.962 472.482Z" fill="white"/>
<path d="M197.642 471.835C194.25 474.974 192.672 476.435 189.577 479.296C189.753 475.457 189.176 473.031 190.119 472.019C190.943 471.135 193.476 471.835 197.642 471.835Z" fill="white"/>
<path d="M80.5676 487.882C76.3161 485.506 76.1621 483.019 80.4368 480.154C84.4178 482.578 84.9518 485.044 80.5676 487.882Z" fill="white"/>
<path d="M101.537 478.974C102.828 484.074 100.916 485.991 95.8015 484.727C97.8601 482.663 99.4855 481.031 101.537 478.974Z" fill="white"/>
<path d="M166.403 485.077C161.314 485.757 159.273 484.033 160.279 479.904C161.259 480.21 162.426 480.272 163.14 480.872C164.137 481.708 164.796 482.946 166.403 485.077Z" fill="white"/>
<path d="M181.673 487.864C177.296 485.452 177.276 482.926 181.494 480.185C185.7 482.634 185.96 485.152 181.673 487.864Z" fill="white"/>
<path d="M95.2373 495.261C90.2362 496.701 88.3019 494.822 89.4342 489.626C91.5501 491.68 93.1895 493.274 95.2373 495.261Z" fill="white"/>
<path d="M134.802 493.648C132.451 497.994 129.97 498.183 127.23 493.863C129.608 489.578 132.091 489.447 134.802 493.648Z" fill="white"/>
<path d="M165.996 495.22C169.01 492.837 170.658 491.531 172.571 490.02C173.804 494.901 171.612 496.635 165.996 495.22Z" fill="white"/>
<path d="M101.456 508.576C99.4331 506.497 97.8369 504.859 95.8159 502.782C100.934 501.553 102.814 503.485 101.456 508.576Z" fill="white"/>
<path d="M120.804 508.703C119.544 507.076 118.163 506.069 118.263 505.244C118.43 503.867 119.302 501.827 120.327 501.51C121.393 501.179 122.989 502.556 124.356 503.185C123.346 504.753 122.337 506.322 120.804 508.703Z" fill="white"/>
<path d="M142.235 508.549C140.234 506.492 138.643 504.857 136.608 502.764C141.789 501.555 143.665 503.483 142.235 508.549Z" fill="white"/>
<path d="M165.039 504.503C161.922 508.979 159.587 508.087 157.366 504.596C159.672 500.318 162.135 500.016 165.039 504.503Z" fill="white"/>
<path d="M195.655 502.644C201.105 501.86 203.664 503.343 203.332 507.093C199.447 508.633 199.272 505.113 195.655 502.644Z" fill="white"/>
<path d="M110.636 518.109C106.162 514.999 106.901 512.648 110.554 510.345C114.676 512.684 114.939 515.148 110.636 518.109Z" fill="white"/>
<path d="M151.437 518.032C147.189 515.456 147.087 512.893 151.45 510.333C155.719 512.917 155.692 515.475 151.437 518.032Z" fill="white"/>
<path d="M170.835 518.064C166.315 514.936 167.39 512.609 170.694 510.345C175.055 512.698 175.332 515.169 170.835 518.064Z" fill="white"/>
<path d="M119.82 519.825C121.823 521.88 123.416 523.515 125.459 525.61C120.263 526.807 118.383 524.879 119.82 519.825Z" fill="white"/>
<path d="M143.35 518.838C143.378 524.44 141.134 526.646 136.617 525.456C138.693 523.413 140.329 521.807 143.35 518.838Z" fill="white"/>
<path d="M157.305 523.859C159.935 519.662 162.472 519.735 165.001 523.866C162.325 528.341 159.793 527.99 157.305 523.859Z" fill="white"/>
<path d="M196.183 525.325C199.177 522.954 200.823 521.654 202.737 520.14C203.92 525.015 201.736 526.743 196.183 525.325Z" fill="white"/>
<path d="M90.7742 530.036C92.4691 531.705 94.198 533.043 94.0439 533.313C93.1356 534.916 91.79 536.27 90.5896 537.704C89.7171 536.894 88.0096 535.922 88.1297 535.306C88.4378 533.727 89.5594 532.305 90.7742 530.036Z" fill="white"/>
<path d="M134.868 534.542C132.469 538.687 129.997 539.016 127.23 534.701C129.57 530.343 132.052 530.164 134.868 534.542Z" fill="white"/>
<path d="M155.511 533.138C153.445 535.13 151.804 536.715 149.69 538.753C148.521 533.526 150.461 531.654 155.511 533.138Z" fill="white"/>
<path d="M171.44 530.105C172.56 532.353 173.635 533.816 173.9 535.41C174.001 536.015 172.234 536.93 171.321 537.702C170.154 536.219 168.862 534.805 167.965 533.175C167.841 532.95 169.658 531.657 171.44 530.105Z" fill="white"/>
<path d="M64.5593 543.949C63.3786 545.496 62.2051 547.033 60.0802 549.819C59.1109 547.056 57.642 545.04 58.1473 543.892C59.5107 540.787 61.8844 541.604 64.5593 543.949Z" fill="white"/>
<path d="M72.3708 548.936C72.4138 554.542 70.1851 556.761 65.6845 555.595C67.7431 553.545 69.3716 551.923 72.3708 548.936Z" fill="white"/>
<path d="M96.0021 555.611C90.3382 556.83 88.2229 555.044 89.6562 550.252C91.498 551.808 93.0907 553.153 96.0021 555.611Z" fill="white"/>
<path d="M111.516 558.353C109.609 556.985 107.68 555.816 107.77 555.631C108.592 553.95 109.766 552.44 110.835 550.881C111.81 551.59 113.652 552.387 113.593 552.994C113.433 554.6 112.451 556.125 111.516 558.353Z" fill="white"/>
<path d="M127.29 553.81C129.44 550.415 131.767 549.48 134.433 553.298C132.278 556.27 129.897 556.441 127.29 553.81Z" fill="white"/>
<path d="M155.689 554.496C154.058 555.76 153.059 557.14 152.218 557.049C150.841 556.898 148.77 556.037 148.465 555.027C148.137 553.944 149.508 552.347 150.137 550.975C151.717 551.974 153.295 552.977 155.689 554.496Z" fill="white"/>
<path d="M165.99 555.421C169.013 553.058 170.665 551.767 172.576 550.272C173.825 555.15 171.629 556.867 165.99 555.421Z" fill="white"/>
<path d="M136.508 562.972C141.799 561.808 143.773 563.449 142.429 567.893C141.501 567.606 140.385 567.547 139.695 566.978C138.726 566.177 138.074 564.996 136.508 562.972Z" fill="white"/>
<path d="M157.296 564.718C160.218 560.306 162.565 560.834 164.991 564.663C162.701 568.452 160.334 569.34 157.296 564.718Z" fill="white"/>
<path d="M71.133 578.884C69.5295 577.594 67.9059 576.289 64.8942 573.87C68.1926 573.087 70.3499 571.841 71.4536 572.463C74.0353 573.917 73.6091 576.295 71.133 578.884Z" fill="white"/>
<path d="M94.6352 573.82C93.2718 576.937 92.1718 579.457 89.0132 577.877C88.2445 577.493 87.714 575.079 88.1655 574.105C89.6381 570.93 91.9514 571.714 94.6352 573.82Z" fill="white"/>
<path d="M105.701 573.836C111.392 572.568 113.558 574.325 112.199 579.106C110.332 577.592 108.712 576.277 105.701 573.836Z" fill="white"/>
<path d="M149.957 579.446C148.503 574.429 150.379 572.499 155.587 573.655C153.535 575.765 151.946 577.399 149.957 579.446Z" fill="white"/>
<path d="M172.29 580.219C169.923 577.213 168.624 575.56 167.116 573.643C172.008 572.461 173.733 574.653 172.29 580.219Z" fill="white"/>
<path d="M190.531 579.566C189.395 574.349 191.035 572.391 195.451 573.693C195.151 574.613 195.078 575.711 194.506 576.397C193.704 577.358 192.532 578.013 190.531 579.566Z" fill="white"/>
<path d="M64.0057 586.023C61.7949 587.786 59.4227 588.615 58.0915 585.385C57.6669 584.354 59.0535 581.342 59.7414 581.297C62.6475 581.115 64.1241 582.995 64.0057 586.023Z" fill="white"/>
<path d="M80.4975 588.984C76.1043 586.033 76.6422 583.665 80.4459 581.215C84.2369 583.539 85.0697 585.937 80.4975 588.984Z" fill="white"/>
<path d="M101.675 580.95C103.398 583.382 104.504 585.704 100.883 587.189C99.9387 587.577 97.5466 586.891 97.3477 586.238C96.3193 582.844 98.5911 581.638 101.675 580.95Z" fill="white"/>
<path d="M159.623 578.824C162.726 582.126 164.199 583.695 166.81 586.474C163.266 586.474 160.874 587.156 159.803 586.261C158.927 585.525 159.623 582.912 159.623 578.824Z" fill="white"/>
<path d="M202.902 581.059C203.879 585.113 202.274 586.856 198.088 586.288C197.906 582.86 199.602 581.286 202.902 581.059Z" fill="white"/>
<path d="M63.8853 565.828C62.1993 566.371 60.5155 566.913 58.8315 567.456C58.8224 565.633 58.8116 563.814 58.8009 561.993C60.5029 562.514 62.2013 563.035 63.9015 563.556C63.8962 564.313 63.8907 565.073 63.8853 565.828Z" fill="white"/>
<path d="M110.624 449.184C112.045 451.467 113.057 453.093 114.659 455.668H106.536C108.176 453.064 109.198 451.447 110.624 449.184Z" fill="white"/>
<path d="M66.07 523.363C62.3504 525.696 60.967 526.566 58.3029 528.235C58.4856 525.014 58.5895 523.18 58.6935 521.349C60.4403 521.825 62.1892 522.303 66.07 523.363Z" fill="white"/>
<path d="M203.491 569.974C200.356 567.141 199.168 566.066 197.595 564.647C199.38 563.325 200.851 562.235 203.491 560.279V569.974Z" fill="white"/>
<path d="M72.0446 497.636C69.8731 496.293 68.2932 495.317 65.9965 493.895C67.4547 492.203 68.4902 491.002 69.2911 490.074C74.4725 491.866 72.8867 494.361 72.0446 497.636Z" fill="white"/>
<path d="M58.2189 460.099C60.2255 461.04 62.2336 461.978 65.2866 463.406C62.5167 465.17 60.9349 466.177 58.5216 467.713C58.0916 464.728 57.8068 462.751 57.5221 460.776L58.2189 460.099Z" fill="white"/>
<path d="M131.933 578.362C129.074 578.447 126.964 577.576 128.078 574.28C128.388 573.365 130.636 572.171 131.371 572.498C134.583 573.931 133.732 576.189 131.933 578.362Z" fill="white"/>
<path d="M72.2902 539.859C69.1315 537.039 67.9255 535.963 66.3291 534.538C68.137 533.208 69.6296 532.108 72.2902 530.151V539.859Z" fill="white"/>
<path d="M202.673 467.176C201.107 466.191 199.535 465.203 197.084 463.661C199.471 462.363 201.544 460.398 202.563 460.843C205.442 462.096 204.642 464.537 202.673 467.176Z" fill="white"/>
<path d="M61.3092 500.216C62.3108 501.534 63.3125 502.852 65.0307 505.115C62.302 505.987 60.546 506.547 58.7902 507.108C58.62 505.246 58.4499 503.382 58.278 501.519C59.2884 501.086 60.2988 500.651 61.3092 500.216Z" fill="white"/>
<path d="M114.639 471.672C113.061 474.229 112.059 475.851 110.64 478.154C109.199 475.875 108.182 474.269 106.539 471.672H114.639Z" fill="white"/>
<path d="M84.0575 543.471C82.9986 545.152 82.0135 546.714 80.4852 549.138C78.8495 547.611 77.6988 546.535 76.7099 545.611C78.6109 540.76 80.992 541.836 84.0575 543.471Z" fill="white"/>
<path d="M95.3934 542.338C98.9049 542.68 100.766 542.86 102.628 543.041C102.024 544.782 101.42 546.521 100.404 549.454C98.5267 546.789 97.452 545.26 95.3934 542.338Z" fill="white"/>
<path d="M126.643 542.775C123.742 545.928 122.658 547.108 121.248 548.642C119.941 546.868 118.846 545.384 116.922 542.775H126.643Z" fill="white"/>
<path d="M139.618 548.141C139.078 546.454 138.541 544.769 138.002 543.083C139.822 543.061 141.64 543.038 143.461 543.015C142.945 544.701 142.429 546.386 141.913 548.073C141.148 548.094 140.383 548.118 139.618 548.141Z" fill="white"/>
<path d="M161.667 549.432C160.635 546.513 160.024 544.785 159.413 543.055C161.28 542.864 163.147 542.676 166.557 542.329C164.557 545.235 163.506 546.76 161.667 549.432Z" fill="white"/>
<path d="M185.638 542.578C184.007 545.158 182.99 546.764 181.565 549.013C180.146 546.762 179.134 545.156 177.511 542.578H185.638Z" fill="white"/>
<path d="M201.298 550.248C199.15 546.492 198.342 545.075 196.832 542.434C199.976 542.699 201.827 542.853 203.679 543.009C203.11 544.739 202.54 546.468 201.298 550.248Z" fill="white"/>
<path d="M131.925 477.316C129.083 477.393 126.975 476.527 128.076 473.246C128.383 472.338 130.631 471.147 131.368 471.475C134.571 472.902 133.734 475.153 131.925 477.316Z" fill="white"/>
<path d="M79.245 447.026C78.7683 445.338 78.2921 443.649 77.8138 441.963C79.6305 442.004 81.4454 442.047 83.2622 442.088C82.6888 443.778 82.1169 445.471 81.5436 447.161C80.7769 447.116 80.0118 447.071 79.245 447.026Z" fill="white"/>
<path d="M139.477 447.026C139.027 445.336 138.577 443.646 138.127 441.956C139.946 442 141.763 442.045 143.581 442.09C142.977 443.786 142.371 445.483 141.766 447.18C141.003 447.127 140.24 447.076 139.477 447.026Z" fill="white"/>
<path d="M180.766 447.678C180.05 445.517 179.465 443.757 178.881 441.993C180.746 441.816 182.61 441.635 185.048 441.4C184.491 443.329 184.417 444.448 183.869 445.241C183.317 446.041 182.296 446.518 180.766 447.678Z" fill="white"/>
</svg>
