<svg width="604" height="604" viewBox="0 0 604 604" fill="none" xmlns="http://www.w3.org/2000/svg">
<path d="M464.365 302C464.365 294.916 466.207 287.835 469.751 281.468C473.294 275.102 478.536 269.456 485.073 265.134C491.61 260.812 499.436 257.818 507.949 256.555C516.463 255.292 525.656 255.763 534.817 258.107C543.978 260.451 553.101 264.669 561.472 270.619C569.844 276.568 577.458 284.246 583.712 293.248C589.966 302.251 594.853 312.572 597.973 323.608C601.092 334.644 602.44 346.387 601.874 358.126C601.309 369.865 598.831 381.592 594.582 392.593C590.333 403.595 584.316 413.865 576.934 422.799C569.552 431.733 560.811 439.326 551.314 445.173C541.816 451.02 531.57 455.119 521.287 457.327C511.003 459.535 500.69 459.852 491.059 458.419C481.429 456.986 472.487 453.805 464.839 449.279C457.19 444.754 450.84 438.888 446.191 432.284C441.543 425.68 438.599 418.345 437.501 410.99C436.404 403.635 437.153 396.267 439.608 389.597C442.062 382.927 446.22 376.962 451.677 372.303C457.135 367.645 463.888 364.299 471.332 362.667C478.777 361.035 486.907 361.121 495.012 363.064C503.117 365.008 511.188 368.809 518.515 374.326C525.843 379.843 532.419 387.073 537.642 395.611C542.865 404.149 546.729 413.991 548.832 424.532C550.935 435.073 551.274 446.307 549.708 457.52C548.142 468.734 544.671 479.92 539.438 490.367C534.204 500.813 527.211 510.513 518.862 518.862C510.513 527.211 500.813 534.204 490.366 539.438C479.92 544.671 468.734 548.142 457.52 549.708C446.307 551.274 435.073 550.935 424.532 548.832C413.991 546.729 404.149 542.865 395.611 537.642C387.072 532.419 379.843 525.843 374.326 518.515C368.809 511.188 365.008 503.116 363.064 495.012C361.121 486.907 361.035 478.777 362.667 471.333C364.299 463.888 367.645 457.135 372.303 451.677C376.962 446.22 382.927 442.062 389.597 439.608C396.267 437.153 403.635 436.404 410.99 437.501C418.345 438.599 425.68 441.543 432.284 446.191C438.888 450.84 444.754 457.19 449.279 464.839C453.805 472.487 456.986 481.429 458.419 491.059C459.852 500.69 459.535 511.003 457.327 521.287C455.119 531.57 451.02 541.816 445.173 551.314C439.326 560.811 431.733 569.552 422.799 576.934C413.865 584.316 403.595 590.333 392.593 594.582C381.592 598.831 369.865 601.309 358.126 601.874C346.387 602.439 334.643 601.092 323.608 597.973C312.572 594.853 302.251 589.966 293.248 583.712C284.246 577.458 276.568 569.844 270.619 561.472C264.669 553.101 260.451 543.978 258.107 534.817C255.763 525.656 255.292 516.463 256.555 507.949C257.818 499.436 260.812 491.61 265.134 485.073C269.456 478.536 275.102 473.294 281.468 469.751C287.835 466.207 294.916 464.365 302 464.365C309.085 464.365 316.165 466.207 322.532 469.751C328.898 473.294 334.544 478.536 338.866 485.073C343.188 491.61 346.182 499.436 347.445 507.949C348.708 516.463 348.237 525.656 345.893 534.817C343.549 543.978 339.331 553.101 333.381 561.472C327.432 569.844 319.754 577.458 310.752 583.712C301.75 589.966 291.428 594.853 280.393 597.973C269.357 601.092 257.613 602.439 245.874 601.874C234.135 601.309 222.409 598.831 211.407 594.582C200.405 590.333 190.135 584.316 181.201 576.934C172.267 569.552 164.675 560.811 158.827 551.314C152.98 541.816 148.881 531.57 146.673 521.287C144.465 511.003 144.148 500.69 145.581 491.059C147.014 481.429 150.195 472.487 154.721 464.839C159.247 457.19 165.113 450.84 171.716 446.191C178.32 441.543 185.655 438.599 193.01 437.501C200.365 436.404 207.733 437.153 214.403 439.608C221.073 442.062 227.038 446.22 231.697 451.677C236.355 457.135 239.701 463.888 241.333 471.333C242.965 478.777 242.879 486.907 240.936 495.012C238.992 503.116 235.191 511.188 229.674 518.515C224.157 525.843 216.928 532.419 208.389 537.642C199.851 542.865 190.009 546.729 179.468 548.832C168.927 550.935 157.694 551.274 146.48 549.708C135.266 548.142 124.08 544.671 113.634 539.438C103.187 534.204 93.4872 527.211 85.138 518.862C76.7888 510.513 69.7956 500.813 64.5622 490.367C59.3287 479.92 55.8578 468.734 54.2918 457.52C52.7259 446.307 53.0648 435.073 55.1678 424.532C57.2707 413.991 61.1349 404.149 66.3579 395.611C71.5808 387.073 78.1573 379.843 85.4847 374.326C92.8121 368.809 100.884 365.008 108.988 363.064C117.093 361.121 125.223 361.035 132.668 362.667C140.112 364.299 146.865 367.645 152.323 372.303C157.78 376.962 161.938 382.927 164.392 389.597C166.847 396.267 167.596 403.635 166.499 410.99C165.401 418.345 162.457 425.68 157.809 432.284C153.16 438.888 146.81 444.754 139.161 449.279C131.513 453.805 122.571 456.986 112.941 458.419C103.31 459.852 92.9969 459.535 82.7135 457.327C72.4301 455.119 62.1837 451.02 52.6864 445.173C43.1891 439.326 34.4477 431.733 27.0658 422.799C19.6839 413.865 13.6667 403.595 9.41779 392.593C5.16884 381.592 2.69083 369.865 2.12569 358.126C1.56074 346.387 2.90825 334.644 6.02745 323.608C9.14664 312.572 14.0345 302.251 20.2882 293.248C26.5419 284.246 34.156 276.568 42.5277 270.619C50.8993 264.669 60.0216 260.451 69.183 258.107C78.3443 255.763 87.5374 255.292 96.0506 256.555C104.564 257.818 112.391 260.812 118.927 265.134C125.464 269.456 130.706 275.102 134.249 281.468C137.793 287.835 139.635 294.916 139.635 302C139.635 309.085 137.793 316.165 134.249 322.532C130.706 328.899 125.464 334.544 118.927 338.866C112.391 343.188 104.564 346.182 96.0506 347.445C87.5374 348.708 78.3443 348.237 69.183 345.893C60.0216 343.549 50.8993 339.331 42.5277 333.381C34.156 327.432 26.5419 319.754 20.2882 310.752C14.0345 301.75 9.14664 291.428 6.02745 280.393C2.90825 269.357 1.56054 257.613 2.12569 245.874C2.69063 234.135 5.16884 222.409 9.41779 211.407C13.6667 200.405 19.6839 190.135 27.0658 181.201C34.4477 172.267 43.1891 164.675 52.6864 158.828C62.1837 152.98 72.4301 148.881 82.7135 146.673C92.9969 144.465 103.31 144.148 112.941 145.581C122.571 147.014 131.513 150.195 139.161 154.721C146.81 159.247 153.16 165.113 157.809 171.716C162.457 178.32 165.401 185.655 166.499 193.01C167.596 200.365 166.847 207.733 164.392 214.403C161.938 221.073 157.78 227.038 152.323 231.697C146.865 236.355 140.112 239.701 132.668 241.333C125.223 242.965 117.093 242.879 108.988 240.936C100.884 238.992 92.8121 235.191 85.4847 229.674C78.1573 224.157 71.5808 216.927 66.3579 208.389C61.1349 199.851 57.2707 190.009 55.1678 179.468C53.0648 168.927 52.7259 157.693 54.2918 146.48C55.8578 135.266 59.3287 124.08 64.5622 113.633C69.7956 103.187 76.7888 93.4871 85.138 85.138C93.4872 76.7888 103.187 69.7956 113.634 64.5621C124.08 59.3286 135.266 55.8578 146.48 54.2918C157.694 52.7258 168.927 53.0648 179.468 55.1677C190.009 57.2707 199.851 61.1349 208.389 66.3578C216.928 71.5808 224.157 78.1572 229.674 85.4846C235.191 92.812 238.992 100.884 240.936 108.988C242.879 117.093 242.965 125.223 241.333 132.668C239.701 140.112 236.355 146.865 231.697 152.323C227.038 157.78 221.073 161.938 214.403 164.392C207.733 166.847 200.365 167.596 193.01 166.499C185.655 165.401 178.32 162.457 171.716 157.809C165.113 153.16 159.247 146.81 154.721 139.161C150.195 131.513 147.014 122.571 145.581 112.941C144.148 103.31 144.465 92.9968 146.673 82.7134C148.881 72.43 152.98 62.1837 158.827 52.6863C164.675 43.189 172.267 34.4477 181.201 27.0658C190.135 19.6839 200.405 13.6667 211.407 9.41777C222.409 5.1688 234.135 2.69084 245.874 2.12569C257.613 1.56054 269.357 2.90822 280.393 6.02742C291.428 9.14661 301.75 14.0345 310.752 20.2881C319.754 26.5418 327.432 34.156 333.381 42.5277C339.331 50.8993 343.549 60.0216 345.893 69.1829C348.237 78.3443 348.708 87.5373 347.445 96.0506C346.182 104.564 343.188 112.39 338.866 118.927C334.544 125.464 328.898 130.706 322.532 134.249C316.165 137.793 309.085 139.635 302 139.635C294.916 139.635 287.835 137.793 281.468 134.249C275.102 130.706 269.456 125.464 265.134 118.927C260.812 112.39 257.818 104.564 256.555 96.0506C255.292 87.5373 255.763 78.3443 258.107 69.1829C260.451 60.0216 264.669 50.8993 270.619 42.5277C276.568 34.156 284.246 26.5418 293.248 20.2881C302.251 14.0345 312.572 9.14661 323.608 6.02742C334.643 2.90822 346.387 1.56054 358.126 2.12569C369.865 2.69084 381.592 5.1688 392.593 9.41777C403.595 13.6667 413.865 19.6839 422.799 27.0658C431.733 34.4477 439.326 43.189 445.173 52.6863C451.02 62.1837 455.119 72.43 457.327 82.7134C459.535 92.9968 459.852 103.31 458.419 112.941C456.986 122.571 453.805 131.513 449.279 139.161C444.754 146.81 438.888 153.16 432.284 157.809C425.68 162.457 418.345 165.401 410.99 166.499C403.635 167.596 396.267 166.847 389.597 164.392C382.927 161.938 376.962 157.78 372.303 152.323C367.645 146.865 364.299 140.112 362.667 132.668C361.036 125.223 361.121 117.093 363.064 108.988C365.008 100.884 368.809 92.812 374.326 85.4846C379.843 78.1572 387.072 71.5808 395.611 66.3578C404.149 61.1349 413.991 57.2707 424.532 55.1677C435.073 53.0648 446.307 52.7258 457.52 54.2918C468.734 55.8578 479.92 59.3286 490.366 64.5621C500.813 69.7956 510.513 76.7888 518.862 85.138C527.211 93.4871 534.204 103.187 539.438 113.633C544.671 124.08 548.142 135.266 549.708 146.48C551.274 157.693 550.935 168.927 548.832 179.468C546.729 190.009 542.865 199.851 537.642 208.389C532.419 216.927 525.843 224.157 518.515 229.674C511.188 235.191 503.117 238.992 495.012 240.936C486.907 242.879 478.777 242.965 471.332 241.333C463.888 239.701 457.135 236.355 451.677 231.697C446.22 227.038 442.062 221.073 439.608 214.403C437.153 207.733 436.404 200.365 437.501 193.01C438.599 185.655 441.543 178.32 446.191 171.716C450.84 165.113 457.19 159.247 464.839 154.721C472.487 150.195 481.429 147.014 491.059 145.581C500.69 144.148 511.003 144.465 521.287 146.673C531.57 148.881 541.816 152.98 551.314 158.828C560.811 164.675 569.552 172.267 576.934 181.201C584.316 190.135 590.333 200.405 594.582 211.407C598.831 222.409 601.309 234.135 601.874 245.874C602.439 257.613 601.092 269.357 597.973 280.393C594.853 291.428 589.966 301.75 583.712 310.752C577.458 319.754 569.844 327.432 561.472 333.381C553.101 339.331 543.978 343.549 534.817 345.893C525.656 348.237 516.463 348.708 507.949 347.445C499.436 346.182 491.61 343.188 485.073 338.866C478.536 334.544 473.294 328.899 469.751 322.532C466.207 316.165 464.365 309.085 464.365 302Z" stroke="white" stroke-width="4"/>
</svg>
