<svg width="5200" height="1440" viewBox="0 0 5200 1440" fill="none" xmlns="http://www.w3.org/2000/svg">
<path d="M4480.42 8.90332C4866.3 -11.3934 5192 313.466 5192 720.457C5192 1106.64 4866.44 1432 4480 1432C4093.56 1432 3768 1106.64 3768 720.457C3768 334.271 4093.56 8.91406 4480 8.91406H4480.21L4480.42 8.90332Z" fill="white" stroke="white" stroke-width="16"/>
<path d="M791.139 1.0127C839.259 3.69325 886.141 11.652 931.253 24.3555L929.086 32.0557C974.478 44.8381 1018.06 62.4865 1059.28 84.4482L1063.04 77.3896C1104.9 99.6904 1144.34 126.382 1180.79 156.894L1175.65 163.026C1211.45 192.992 1244.34 226.691 1273.77 263.573L1280.02 258.585C1309.38 295.382 1335.32 335.305 1357.32 377.82L1350.21 381.495C1371.53 422.699 1389.09 466.367 1402.41 512L1410.09 509.76C1423.16 554.579 1432.19 601.269 1436.69 649.37H1436.69L1428.73 650.115C1430.89 673.248 1432 696.713 1432 720.457C1432 743.89 1430.8 767.098 1428.46 790.022L1436.42 790.833C1431.59 838.148 1421.97 884.268 1408.06 928.687L1400.43 926.297C1386.47 970.887 1368.13 1013.75 1345.94 1054.36L1352.95 1058.2C1330.37 1099.52 1303.85 1138.53 1273.93 1174.68L1267.77 1169.59C1238.12 1205.41 1205.11 1238.39 1169.25 1268.01L1174.35 1274.18C1138.17 1304.06 1099.14 1330.55 1057.79 1353.1L1053.96 1346.08C1013.34 1368.24 970.459 1386.55 925.856 1400.49L928.242 1408.12C883.818 1422.01 837.695 1431.61 790.377 1436.43L789.568 1428.47C766.643 1430.8 743.434 1432 720 1432C696.566 1432 673.357 1430.8 650.432 1428.47L649.622 1436.43C602.305 1431.61 556.181 1422.01 511.757 1408.12L514.144 1400.49C469.541 1386.55 426.664 1368.24 386.039 1346.08L382.209 1353.1C340.863 1330.55 301.83 1304.06 265.653 1274.18L270.747 1268.01C234.894 1238.39 201.876 1205.41 172.23 1169.59L166.068 1174.68C136.148 1138.53 109.628 1099.52 87.0469 1058.2L94.0645 1054.36C71.873 1013.75 53.5331 970.887 39.5684 926.297L31.9365 928.687C18.0255 884.268 8.40467 838.148 3.58008 790.833L11.5361 790.022C9.34465 768.531 8.15388 746.79 8.01367 724.848L8 720.457C8 697.024 9.19854 673.815 11.5361 650.891L3.58008 650.079C8.40478 602.765 18.0254 556.645 31.9365 512.226L39.5693 514.617C53.5341 470.027 71.873 427.162 94.0645 386.551L87.0469 382.716C109.628 341.392 136.148 302.382 166.068 266.229L172.23 271.328C201.876 235.507 234.894 202.519 270.747 172.903L265.653 166.736C301.83 136.853 340.863 110.366 382.209 87.8154L386.039 94.8359C426.664 72.6786 469.541 54.3679 514.144 40.4258L511.757 32.792C556.181 18.9057 602.305 9.3031 649.622 4.4873L650.432 12.4434C673.357 10.1101 696.566 8.91406 720 8.91406H720.21L720.42 8.90332C744.097 7.65795 767.543 7.71023 790.695 9L791.139 1.0127Z" stroke="white" stroke-width="16" stroke-dasharray="128 128"/>
<path d="M2600.42 8.90332C2986.3 -11.3934 3312 313.466 3312 720.457C3312 1106.64 2986.44 1432 2600 1432C2213.56 1432 1888 1106.64 1888 720.457C1888 334.271 2213.56 8.91406 2600 8.91406H2600.21L2600.42 8.90332Z" stroke="white" stroke-width="16"/>
</svg>
