<svg width="400" height="400" viewBox="0 0 400 400" fill="none" xmlns="http://www.w3.org/2000/svg">
<path fill-rule="evenodd" clip-rule="evenodd" d="M200 67.2898C185.548 67.2898 173.832 79.0056 173.832 93.458H106.542C106.542 41.8426 148.385 0 200 0C251.616 0 293.458 41.8426 293.458 93.458C293.458 145.073 251.616 186.916 200 186.916V119.626C214.452 119.626 226.168 107.91 226.168 93.458C226.168 79.0056 214.452 67.2898 200 67.2898ZM332.71 200C332.71 185.548 320.994 173.832 306.542 173.832V106.542C358.158 106.542 400 148.385 400 200C400 251.616 358.158 293.458 306.542 293.458C254.926 293.458 213.084 251.616 213.084 200H280.374C280.374 214.452 292.09 226.168 306.542 226.168C320.994 226.168 332.71 214.452 332.71 200ZM93.458 226.168C79.0056 226.168 67.2898 214.452 67.2898 200C67.2898 185.548 79.0056 173.832 93.458 173.832C107.91 173.832 119.626 185.548 119.626 200H186.916C186.916 148.385 145.073 106.542 93.458 106.542C41.8426 106.542 0 148.385 0 200C0 251.616 41.8426 293.458 93.458 293.458V226.168ZM200 332.71C214.452 332.71 226.168 320.994 226.168 306.542H293.458C293.458 358.158 251.616 400 200 400C148.385 400 106.542 358.158 106.542 306.542C106.542 254.926 148.385 213.084 200 213.084V280.374C185.548 280.374 173.832 292.09 173.832 306.542C173.832 320.994 185.548 332.71 200 332.71Z" fill="white"/>
</svg>
