<svg width="600" height="600" viewBox="0 0 600 600" fill="none" xmlns="http://www.w3.org/2000/svg">
<path d="M198.435 23.9138C198.235 24.0348 198.057 24.1278 197.921 24.3208C197.864 24.3928 197.771 24.3998 197.728 24.4708L183.982 48.5828H156.084C155.999 48.5828 155.941 48.6688 155.863 48.6828C155.627 48.7118 155.463 48.8188 155.256 48.9328C155.048 49.0468 154.877 49.1398 154.734 49.3398C154.684 49.4048 154.584 49.4118 154.548 49.4828L140.746 73.3018H112.862C112.769 73.3018 112.719 73.3808 112.64 73.3948C112.405 73.4228 112.233 73.5308 112.026 73.6448C111.826 73.7658 111.647 73.8588 111.512 74.0518C111.454 74.1238 111.362 74.1308 111.319 74.2018L97.0015 99.2208C96.9587 99.2928 97.0015 99.3708 96.973 99.4428C96.873 99.6638 96.8801 99.8638 96.8801 100.107C96.8801 100.343 96.873 100.55 96.973 100.764C97.0015 100.843 96.9587 100.921 97.0015 100.993L110.811 125.09L97.5231 148.38H69.7821C69.6963 148.38 69.6392 148.466 69.5606 148.481C69.3249 148.509 69.1534 148.616 68.9462 148.731C68.7462 148.852 68.5676 148.938 68.4318 149.131C68.3747 149.202 68.2818 149.209 68.2389 149.281L53.8076 174.3C53.7648 174.385 53.8076 174.464 53.7719 174.55C53.679 174.764 53.6862 174.964 53.6862 175.2C53.6862 175.436 53.679 175.643 53.779 175.85C53.8076 175.936 53.7648 176.014 53.8076 176.086L67.5602 199.847L54.322 223.066H26.6025C26.5167 223.066 26.4596 223.145 26.381 223.159C26.1452 223.188 25.9738 223.295 25.7737 223.409C25.5665 223.53 25.3879 223.616 25.2522 223.809C25.195 223.881 25.1022 223.881 25.0593 223.959L10.5851 248.992C10.5423 249.064 10.5851 249.15 10.5565 249.235C10.4565 249.457 10.4637 249.664 10.4637 249.914C10.4708 250.128 10.4637 250.314 10.5494 250.514C10.5851 250.6 10.5351 250.693 10.5851 250.779L24.5449 274.919L10.5923 298.702C10.5423 298.78 10.5923 298.873 10.5565 298.959C10.4637 299.173 10.4637 299.366 10.4637 299.595C10.4565 299.838 10.4565 300.038 10.5494 300.259C10.5851 300.338 10.5423 300.424 10.5851 300.502L24.5449 324.643L10.5923 348.711C10.5494 348.79 10.5923 348.876 10.5565 348.954C10.4637 349.176 10.4637 349.376 10.4637 349.619C10.4637 349.854 10.4637 350.047 10.5494 350.255C10.5851 350.333 10.5423 350.419 10.5851 350.497L25.0593 375.516C25.1022 375.595 25.2022 375.595 25.2522 375.667C25.3951 375.852 25.5665 375.945 25.7737 376.067C25.9738 376.188 26.1452 376.288 26.381 376.317C26.4667 376.331 26.5239 376.41 26.6025 376.41H54.3292L67.7174 399.321L53.8076 423.468C53.7648 423.547 53.8076 423.633 53.7719 423.711C53.6862 423.926 53.6862 424.119 53.6862 424.354C53.6862 424.597 53.679 424.797 53.779 425.019C53.8076 425.097 53.7648 425.176 53.8076 425.255L68.2389 450.252C68.2818 450.331 68.3818 450.331 68.4318 450.402C68.5819 450.588 68.7462 450.681 68.9534 450.802C69.1534 450.924 69.3249 451.024 69.5606 451.052C69.6463 451.067 69.7035 451.145 69.7821 451.145H97.5088L110.797 474.378L96.9944 498.147C96.9515 498.226 96.9944 498.304 96.9587 498.383C96.8658 498.604 96.8658 498.804 96.8658 499.04C96.8658 499.283 96.8587 499.483 96.9587 499.697C96.9873 499.769 96.9444 499.854 96.9873 499.926L111.304 524.995C111.347 525.066 111.44 525.073 111.49 525.138C111.533 525.195 111.512 525.288 111.569 525.338C111.569 525.338 111.576 525.338 111.576 525.345C111.697 525.459 111.876 525.466 112.019 525.545C112.219 525.666 112.39 525.766 112.619 525.795C112.712 525.809 112.769 525.909 112.862 525.909C112.876 525.909 112.89 525.895 112.905 525.895H140.739L154.541 549.985C154.584 550.064 154.684 550.071 154.734 550.135C154.877 550.321 155.048 550.421 155.248 550.535C155.456 550.657 155.627 550.757 155.863 550.785C155.949 550.8 155.999 550.878 156.084 550.878H183.975L197.721 574.99C197.764 575.068 197.864 575.068 197.914 575.14C198.057 575.326 198.228 575.426 198.428 575.547C198.635 575.669 198.807 575.769 199.042 575.797C199.128 575.811 199.178 575.89 199.264 575.89H228.162C228.255 575.89 228.305 575.811 228.384 575.797C228.62 575.769 228.791 575.661 228.998 575.547C229.198 575.426 229.377 575.333 229.513 575.147C229.57 575.083 229.663 575.076 229.705 574.997L243.522 550.885H270.377L284.151 574.997C284.194 575.076 284.294 575.076 284.344 575.147C284.487 575.333 284.659 575.433 284.859 575.554C285.066 575.676 285.237 575.776 285.473 575.804C285.559 575.819 285.609 575.897 285.695 575.897H314.636C314.729 575.897 314.779 575.819 314.857 575.804C315.093 575.776 315.265 575.669 315.472 575.554C315.672 575.433 315.85 575.34 315.986 575.147C316.043 575.076 316.136 575.076 316.179 574.997L329.924 550.885H356.787L370.589 574.997C370.632 575.068 370.732 575.076 370.775 575.147C370.839 575.233 370.818 575.354 370.897 575.433C371.047 575.554 371.247 575.561 371.425 575.647C371.568 575.711 371.675 575.79 371.84 575.811C371.94 575.833 372.018 575.926 372.118 575.926C372.14 575.926 372.168 575.897 372.19 575.897H401.052C401.145 575.897 401.195 575.819 401.281 575.804C401.51 575.776 401.681 575.669 401.888 575.554C402.088 575.433 402.267 575.34 402.41 575.14C402.46 575.076 402.56 575.068 402.595 574.99L416.319 550.878H444.203C444.296 550.878 444.346 550.8 444.425 550.785C444.661 550.757 444.832 550.65 445.039 550.535C445.239 550.414 445.418 550.321 445.554 550.135C445.611 550.071 445.704 550.064 445.746 549.985L459.578 525.895H487.111C487.197 525.895 487.254 525.816 487.333 525.802C487.562 525.773 487.733 525.666 487.94 525.545C488.14 525.423 488.319 525.338 488.462 525.145C488.512 525.08 488.612 525.073 488.647 525.002L503.3 499.933C503.3 499.933 503.3 499.926 503.307 499.919C503.457 499.647 503.543 499.347 503.543 499.033C503.543 498.718 503.45 498.411 503.3 498.14C503.293 498.133 503.293 498.133 503.293 498.126L489.176 474.364L502.779 451.131H530.327C530.413 451.131 530.47 451.052 530.548 451.038C530.777 451.009 530.948 450.902 531.156 450.781C531.356 450.659 531.534 450.574 531.677 450.381C531.727 450.316 531.827 450.309 531.863 450.238L546.458 425.24C546.616 424.969 546.701 424.654 546.701 424.34C546.701 424.026 546.616 423.726 546.458 423.447V423.44L532.391 399.3L545.937 376.388H573.492C573.578 376.388 573.628 376.31 573.706 376.295C573.942 376.267 574.114 376.159 574.321 376.038C574.521 375.917 574.7 375.831 574.842 375.645C574.892 375.574 574.992 375.574 575.028 375.495L589.681 350.476C589.681 350.469 589.681 350.462 589.688 350.462C589.838 350.19 589.924 349.883 589.924 349.576C589.924 349.269 589.838 348.961 589.688 348.69C589.681 348.683 589.681 348.683 589.681 348.676L575.557 324.607L589.681 300.481C589.688 300.474 589.681 300.467 589.688 300.459C589.838 300.188 589.924 299.888 589.924 299.574C589.924 299.259 589.831 298.952 589.681 298.68C589.674 298.673 589.674 298.673 589.674 298.666L575.557 274.89L589.681 250.757C589.681 250.75 589.681 250.75 589.688 250.736C589.838 250.471 589.924 250.164 589.924 249.857C589.924 249.543 589.838 249.235 589.688 248.964C589.681 248.964 589.681 248.957 589.681 248.95L575.028 223.916C574.985 223.838 574.885 223.838 574.842 223.766C574.692 223.588 574.528 223.495 574.328 223.373C574.121 223.252 573.942 223.145 573.706 223.116C573.621 223.109 573.571 223.03 573.492 223.03H545.944L532.399 199.812L546.458 176.071C546.458 176.064 546.458 176.064 546.466 176.057C546.616 175.786 546.709 175.479 546.709 175.157C546.709 174.85 546.623 174.543 546.473 174.278C546.466 174.271 546.466 174.264 546.466 174.264L531.87 149.245C531.827 149.166 531.727 149.159 531.684 149.095C531.534 148.909 531.363 148.816 531.163 148.695C530.956 148.573 530.784 148.473 530.555 148.445C530.47 148.431 530.413 148.345 530.334 148.345H502.786L489.183 125.055L503.307 100.971C503.307 100.964 503.307 100.957 503.315 100.957C503.465 100.686 503.55 100.379 503.55 100.064C503.55 99.7568 503.465 99.4498 503.315 99.1848C503.307 99.1778 503.307 99.1708 503.307 99.1638L488.655 74.1518C488.612 74.0738 488.512 74.0738 488.469 74.0018C488.319 73.8228 488.147 73.7308 487.947 73.6088C487.74 73.4878 487.569 73.3808 487.333 73.3518C487.247 73.3448 487.197 73.2658 487.119 73.2658H459.585L445.754 49.4468C445.711 49.3758 445.611 49.3688 445.568 49.3048C445.418 49.1118 445.246 49.0188 445.046 48.8968C444.839 48.7688 444.668 48.6758 444.432 48.6468C444.353 48.6328 444.296 48.5468 444.218 48.5468H416.334L402.61 24.4428C402.567 24.3638 402.467 24.3568 402.424 24.2928C402.274 24.0998 402.102 23.9998 401.902 23.8778C401.695 23.7568 401.524 23.6638 401.295 23.6278C401.202 23.6138 401.152 23.5348 401.067 23.5348H372.154C372.061 23.5348 372.004 23.6208 371.925 23.6278C371.547 23.6708 371.147 23.7498 370.847 24.0568C370.675 24.2428 370.682 24.5138 370.611 24.7568C370.532 24.9498 370.375 25.1068 370.375 25.3288C370.375 25.8138 370.575 26.2638 370.904 26.5928C370.911 26.5998 370.911 26.6218 370.918 26.6288C371.204 26.9148 371.704 27.1288 372.14 27.1288C372.154 27.1288 372.161 27.1148 372.175 27.1148H400.031L413.755 51.2188C413.798 51.2978 413.898 51.3048 413.94 51.3688C414.09 51.5618 414.262 51.6618 414.462 51.7838C414.669 51.9048 414.841 51.9978 415.069 52.0338C415.162 52.0478 415.212 52.1268 415.298 52.1268H443.196L457.027 75.9448C457.07 76.0168 457.17 76.0238 457.213 76.0878C457.363 76.2808 457.534 76.3738 457.734 76.4948C457.942 76.6238 458.113 76.7168 458.349 76.7448C458.427 76.7598 458.485 76.8448 458.563 76.8448H486.097L499.7 100.064L485.575 124.147C485.525 124.226 485.575 124.312 485.54 124.397C485.447 124.612 485.447 124.812 485.447 125.048C485.447 125.29 485.447 125.49 485.54 125.712C485.575 125.791 485.525 125.876 485.575 125.948L500.228 151.038C500.271 151.11 500.371 151.117 500.414 151.181C500.564 151.367 500.735 151.46 500.935 151.581C501.143 151.703 501.314 151.803 501.543 151.838C501.628 151.845 501.686 151.924 501.764 151.924H529.312L542.858 175.157L529.312 198.011H501.757C501.671 198.011 501.621 198.097 501.543 198.111C501.457 198.119 501.386 198.054 501.3 198.083C501.15 198.119 501.064 198.276 500.921 198.361C500.721 198.483 500.55 198.569 500.407 198.754C500.357 198.826 500.257 198.826 500.221 198.904L486.083 223.038H459.578L445.746 198.919C445.704 198.84 445.604 198.833 445.554 198.769C445.411 198.583 445.239 198.483 445.039 198.361C444.832 198.24 444.661 198.14 444.425 198.111C444.339 198.097 444.289 198.011 444.203 198.011H416.312L402.595 174.264C402.553 174.193 402.453 174.185 402.403 174.114C402.26 173.928 402.088 173.835 401.881 173.714C401.681 173.592 401.51 173.492 401.274 173.464C401.188 173.45 401.131 173.364 401.052 173.364H373.176L359.373 149.252C359.33 149.166 359.23 149.166 359.18 149.102C359.037 148.916 358.866 148.816 358.666 148.695C358.458 148.573 358.287 148.473 358.051 148.445C357.966 148.431 357.915 148.345 357.83 148.345H329.946L316.2 124.169C316.15 124.09 316.05 124.083 316 124.019C315.858 123.833 315.693 123.733 315.486 123.619C315.286 123.49 315.115 123.397 314.879 123.361C314.786 123.347 314.736 123.269 314.65 123.269H285.709C285.616 123.269 285.566 123.347 285.48 123.361C285.252 123.397 285.08 123.497 284.88 123.611C284.673 123.733 284.494 123.826 284.352 124.026C284.302 124.09 284.201 124.097 284.166 124.176L269.877 149.259C269.834 149.331 269.877 149.409 269.849 149.488C269.756 149.702 269.756 149.902 269.756 150.138C269.756 150.381 269.749 150.581 269.849 150.81C269.877 150.881 269.834 150.96 269.877 151.031L283.659 175.157L269.885 198.904C269.377 199.755 269.67 200.848 270.535 201.348C271.385 201.841 272.478 201.548 272.971 200.698L286.745 176.943H313.629L327.374 200.69C327.867 201.548 328.967 201.841 329.817 201.348C330.389 201.012 330.71 200.412 330.71 199.797C330.71 199.49 330.632 199.183 330.475 198.904L316.215 174.264C316.172 174.193 316.072 174.185 316.022 174.114C315.879 173.928 315.707 173.835 315.5 173.714C315.3 173.592 315.129 173.492 314.893 173.464C314.807 173.45 314.75 173.364 314.672 173.364H286.766L273.499 150.131L286.766 126.841H313.636L327.381 151.017C327.431 151.095 327.531 151.102 327.581 151.167C327.724 151.352 327.888 151.453 328.096 151.567C328.296 151.695 328.467 151.788 328.703 151.824C328.796 151.838 328.846 151.917 328.931 151.917H356.822L370.625 176.043C370.668 176.114 370.768 176.121 370.818 176.193C370.961 176.379 371.132 176.479 371.332 176.6C371.54 176.722 371.711 176.822 371.947 176.85C372.032 176.864 372.082 176.943 372.168 176.943H400.045L413.762 200.69C413.805 200.776 413.905 200.776 413.955 200.84C414.098 201.026 414.269 201.119 414.476 201.241C414.676 201.362 414.848 201.462 415.084 201.491C415.169 201.505 415.226 201.583 415.305 201.583H443.196L456.513 224.816L443.196 248.064H416.341L402.624 223.931C402.138 223.073 401.038 222.773 400.181 223.259C399.323 223.738 399.03 224.845 399.509 225.695L413.74 250.729C413.79 250.814 413.89 250.814 413.94 250.879C414.083 251.064 414.248 251.157 414.455 251.286C414.655 251.407 414.826 251.507 415.062 251.536C415.155 251.55 415.205 251.636 415.291 251.636H444.218C444.311 251.636 444.361 251.55 444.439 251.536C444.675 251.507 444.846 251.4 445.053 251.286C445.254 251.164 445.432 251.071 445.568 250.879C445.625 250.814 445.718 250.807 445.761 250.729L459.592 226.595H486.411L500.228 250.721C500.271 250.8 500.364 250.807 500.407 250.864C500.464 250.964 500.435 251.057 500.507 251.129C500.628 251.257 500.807 251.229 500.95 251.293C501.15 251.421 501.321 251.514 501.557 251.543C501.643 251.557 501.693 251.643 501.779 251.643H529.327L543.408 275.798C543.901 276.648 545.001 276.933 545.851 276.441C546.423 276.105 546.737 275.505 546.737 274.89C546.737 274.583 546.658 274.276 546.494 273.997L531.899 248.95C531.856 248.878 531.756 248.871 531.713 248.807C531.563 248.621 531.391 248.528 531.191 248.407C530.984 248.285 530.813 248.185 530.584 248.149C530.498 248.142 530.441 248.064 530.363 248.064H502.822L489.519 224.816L502.822 201.583H529.341L543.422 225.709C543.465 225.788 543.565 225.795 543.608 225.86C543.758 226.045 543.929 226.138 544.129 226.26C544.337 226.381 544.508 226.481 544.737 226.51C544.822 226.524 544.88 226.61 544.958 226.61H572.506L586.109 249.857L571.985 273.99C571.935 274.076 571.985 274.162 571.949 274.247C571.863 274.462 571.856 274.654 571.856 274.876C571.856 275.126 571.856 275.326 571.956 275.562C571.992 275.64 571.949 275.726 571.992 275.805L586.109 299.581L571.985 323.707C571.935 323.785 571.985 323.871 571.949 323.957C571.849 324.185 571.849 324.385 571.856 324.628C571.856 324.864 571.856 325.057 571.949 325.264C571.985 325.343 571.935 325.436 571.985 325.514L586.109 349.583L572.506 372.816H544.958C544.872 372.816 544.822 372.895 544.751 372.902C544.515 372.93 544.344 373.037 544.137 373.152C543.929 373.273 543.751 373.359 543.608 373.552C543.558 373.616 543.465 373.623 543.429 373.695L529.348 397.506H502.793L488.655 373.695C488.612 373.623 488.519 373.616 488.476 373.552C488.326 373.366 488.147 373.273 487.947 373.152C487.74 373.037 487.569 372.93 487.34 372.902C487.254 372.895 487.204 372.816 487.126 372.816H458.563C457.577 372.816 456.777 373.616 456.777 374.602C456.777 375.588 457.577 376.388 458.563 376.388H486.104L500.243 400.2C500.285 400.271 500.378 400.278 500.421 400.343C500.571 400.528 500.75 400.621 500.95 400.743C501.157 400.857 501.328 400.964 501.557 400.993C501.643 401 501.693 401.078 501.771 401.078H529.319L542.872 424.34L529.319 447.552H502.793L488.655 423.44C488.612 423.361 488.512 423.361 488.469 423.29C488.319 423.111 488.147 423.018 487.947 422.897C487.74 422.775 487.569 422.668 487.333 422.64C487.247 422.633 487.197 422.547 487.119 422.547H459.585L445.754 398.399C445.711 398.321 445.611 398.321 445.561 398.249C445.418 398.064 445.246 397.964 445.039 397.842C444.839 397.721 444.668 397.621 444.432 397.592C444.346 397.578 444.296 397.499 444.21 397.499H416.319L403.11 374.588L416.327 351.362H444.21C444.303 351.362 444.353 351.283 444.432 351.269C444.668 351.24 444.839 351.133 445.046 351.019C445.246 350.898 445.425 350.805 445.561 350.619C445.618 350.555 445.711 350.547 445.754 350.469L459.585 326.393H486.09L500.228 350.483C500.271 350.555 500.371 350.562 500.414 350.626C500.564 350.812 500.735 350.905 500.943 351.026C501.143 351.148 501.314 351.248 501.55 351.283C501.636 351.29 501.686 351.369 501.764 351.369H530.341C530.427 351.369 530.484 351.29 530.555 351.276C530.791 351.248 530.963 351.14 531.163 351.026C531.298 350.948 531.448 350.976 531.57 350.862C531.641 350.798 531.641 350.705 531.698 350.626C531.748 350.562 531.849 350.555 531.884 350.483L546.48 325.514C546.637 325.243 546.723 324.928 546.723 324.614C546.723 324.307 546.637 324 546.48 323.721L531.884 298.68C531.391 297.83 530.291 297.537 529.441 298.038C528.576 298.53 528.291 299.631 528.798 300.481L542.872 324.607L529.319 347.797H502.793L489.19 324.607L503.315 300.481C503.479 300.195 503.557 299.888 503.557 299.581C503.557 298.973 503.243 298.373 502.672 298.038C501.821 297.537 500.728 297.823 500.228 298.673L486.09 322.821H458.556C458.463 322.821 458.413 322.899 458.335 322.914C458.099 322.942 457.927 323.049 457.72 323.164C457.52 323.285 457.342 323.378 457.206 323.564C457.149 323.628 457.056 323.635 457.013 323.714L443.182 347.79H415.291C415.198 347.79 415.148 347.868 415.062 347.883C414.826 347.911 414.655 348.018 414.455 348.14C414.248 348.261 414.076 348.354 413.94 348.54C413.883 348.611 413.79 348.611 413.74 348.69L400.023 372.802L373.183 372.802L359.38 348.683C359.337 348.604 359.237 348.604 359.187 348.533C359.044 348.347 358.873 348.247 358.673 348.126C358.466 348.004 358.294 347.904 358.058 347.876C357.973 347.861 357.923 347.783 357.837 347.783H328.903C328.81 347.783 328.76 347.861 328.681 347.876C328.446 347.904 328.274 348.011 328.067 348.126C327.867 348.247 327.688 348.34 327.553 348.533C327.495 348.604 327.403 348.604 327.36 348.683L313.614 372.802H286.738L273.478 349.569L287.259 325.486C287.409 325.214 287.495 324.907 287.495 324.593C287.495 324.278 287.409 323.978 287.259 323.7L273.478 299.566L286.738 276.655H314.643C315.629 276.655 316.429 275.862 316.429 274.869C316.429 273.883 315.629 273.083 314.643 273.083H285.702C285.616 273.083 285.559 273.168 285.48 273.183C285.245 273.211 285.073 273.319 284.873 273.433C284.666 273.554 284.487 273.64 284.352 273.833C284.294 273.904 284.201 273.911 284.159 273.983L269.87 298.666C269.827 298.745 269.87 298.83 269.834 298.916C269.742 299.131 269.749 299.323 269.749 299.559C269.749 299.795 269.749 299.995 269.842 300.209C269.87 300.288 269.827 300.374 269.87 300.445L283.651 324.585L269.87 348.676C269.827 348.747 269.87 348.833 269.842 348.911C269.749 349.147 269.749 349.347 269.749 349.583C269.749 349.819 269.749 350.019 269.842 350.233C269.87 350.305 269.827 350.39 269.87 350.462L283.651 374.581L270.392 397.499H243.529L230.234 374.588L244.058 350.462C244.208 350.19 244.294 349.883 244.294 349.576C244.294 349.269 244.208 348.961 244.058 348.69L230.234 324.607L244.058 300.467C244.208 300.195 244.294 299.895 244.294 299.581C244.294 299.266 244.208 298.959 244.051 298.688L229.72 274.004C229.677 273.933 229.577 273.926 229.534 273.861C229.384 273.669 229.22 273.576 229.012 273.454C228.805 273.326 228.634 273.233 228.398 273.204C228.319 273.19 228.262 273.104 228.184 273.104H200.321L187.076 249.857L200.829 225.717C200.986 225.445 201.071 225.131 201.071 224.824C201.071 224.502 200.986 224.195 200.829 223.931L186.576 198.926C186.533 198.84 186.433 198.84 186.383 198.776C186.24 198.59 186.069 198.49 185.869 198.369C185.661 198.247 185.49 198.147 185.254 198.119C185.168 198.104 185.118 198.019 185.033 198.019H157.134L143.332 174.271C143.289 174.2 143.189 174.193 143.146 174.128C142.996 173.935 142.832 173.842 142.625 173.721C142.417 173.592 142.246 173.5 142.01 173.471C141.932 173.457 141.874 173.371 141.796 173.371H112.883C111.897 173.371 111.097 174.171 111.097 175.157C111.097 176.15 111.897 176.943 112.883 176.943H140.767L154.57 200.698C154.613 200.776 154.713 200.776 154.755 200.848C154.906 201.033 155.07 201.126 155.277 201.248C155.484 201.369 155.656 201.469 155.891 201.505C155.97 201.512 156.027 201.591 156.106 201.591H183.997L197.242 224.824L183.997 248.071H156.084C155.991 248.071 155.941 248.149 155.863 248.164C155.627 248.192 155.456 248.299 155.248 248.414C155.048 248.535 154.87 248.628 154.734 248.821C154.677 248.892 154.584 248.9 154.541 248.971L140.739 273.111H112.862C112.776 273.111 112.719 273.197 112.64 273.211C112.405 273.24 112.24 273.347 112.033 273.461C111.826 273.576 111.654 273.669 111.512 273.869C111.462 273.933 111.362 273.94 111.326 274.011L97.5231 297.809H70.818L57.4297 274.905L70.8251 251.657H98.5518C98.6447 251.657 98.6947 251.572 98.7733 251.557C99.0091 251.529 99.1805 251.422 99.3877 251.307C99.5877 251.186 99.7664 251.093 99.9021 250.9C99.9593 250.829 100.052 250.829 100.095 250.75L113.898 226.624H141.774C142.76 226.624 143.56 225.824 143.56 224.838C143.56 223.845 142.76 223.052 141.774 223.052H112.862C112.769 223.052 112.719 223.13 112.64 223.145C112.405 223.173 112.233 223.28 112.026 223.395C111.826 223.516 111.647 223.609 111.512 223.802C111.454 223.873 111.362 223.881 111.319 223.952L97.5159 248.092H69.7821C69.6963 248.092 69.6392 248.171 69.5606 248.185C69.3249 248.214 69.1534 248.321 68.9462 248.435C68.7462 248.557 68.5676 248.65 68.4318 248.835C68.3747 248.907 68.2818 248.907 68.2389 248.985L53.8076 274.019C53.7648 274.104 53.8076 274.183 53.7719 274.269C53.679 274.483 53.6862 274.683 53.6862 274.919C53.6862 275.162 53.6862 275.362 53.779 275.583C53.8148 275.662 53.7719 275.74 53.8148 275.819L68.2461 300.502C68.2889 300.574 68.389 300.581 68.4318 300.645C68.5819 300.831 68.7533 300.924 68.9534 301.045C69.1605 301.167 69.332 301.267 69.5678 301.302C69.6463 301.31 69.7035 301.395 69.7821 301.395H98.5376C98.6233 301.395 98.6804 301.317 98.759 301.302C98.9948 301.274 99.1591 301.167 99.3663 301.052C99.452 301.009 99.5449 301.009 99.6163 300.945C99.6663 300.909 99.7378 300.931 99.7806 300.881C99.8449 300.824 99.8378 300.717 99.8878 300.645C99.9378 300.574 100.038 300.574 100.074 300.502L113.876 276.705H141.76C141.853 276.705 141.903 276.626 141.982 276.612C142.217 276.583 142.389 276.476 142.596 276.362C142.796 276.241 142.975 276.148 143.11 275.955C143.168 275.883 143.26 275.876 143.303 275.805L157.106 251.664H183.968L197.714 275.798C197.757 275.876 197.857 275.883 197.899 275.948C198.049 276.14 198.221 276.241 198.428 276.362C198.628 276.483 198.8 276.576 199.028 276.612C199.121 276.626 199.171 276.705 199.257 276.705H227.126L240.422 299.609L226.598 323.75C226.555 323.821 226.598 323.907 226.569 323.985C226.476 324.207 226.476 324.4 226.476 324.635C226.476 324.871 226.476 325.071 226.569 325.293C226.598 325.364 226.555 325.45 226.598 325.521L240.422 349.604L227.119 372.83H199.257C199.171 372.83 199.114 372.909 199.035 372.923C198.8 372.952 198.628 373.059 198.428 373.173C198.221 373.295 198.049 373.38 197.907 373.573C197.849 373.645 197.757 373.645 197.714 373.723L183.968 397.521H157.099L143.818 374.609L157.627 350.483C157.785 350.205 157.863 349.897 157.863 349.597C157.863 348.983 157.542 348.376 156.963 348.047C156.106 347.554 155.02 347.854 154.527 348.711L140.21 373.73C140.167 373.802 140.21 373.888 140.174 373.973C140.081 374.188 140.088 374.388 140.088 374.623C140.088 374.866 140.088 375.066 140.181 375.281C140.217 375.359 140.174 375.438 140.217 375.516L154.534 400.207C154.577 400.278 154.677 400.285 154.72 400.35C154.87 400.543 155.034 400.636 155.241 400.75C155.448 400.864 155.613 400.971 155.849 401C155.934 401.014 155.991 401.093 156.07 401.093H184.975C184.99 401.093 184.997 401.1 185.004 401.1C185.09 401.1 185.168 401.014 185.254 401C185.44 400.971 185.576 400.893 185.74 400.807C185.919 400.721 186.104 400.714 186.283 400.593C186.347 400.514 186.34 400.4 186.397 400.3C186.44 400.25 186.512 400.243 186.547 400.185L200.293 376.388H227.134L240.95 400.193C240.993 400.264 241.093 400.271 241.136 400.335C241.286 400.528 241.451 400.621 241.658 400.736C241.865 400.857 242.036 400.957 242.272 400.993C242.351 401 242.408 401.086 242.486 401.086H271.406C271.492 401.086 271.549 401.007 271.628 400.993C271.863 400.964 272.035 400.857 272.235 400.743C272.442 400.621 272.621 400.536 272.756 400.343C272.814 400.271 272.906 400.271 272.949 400.193L286.723 376.395H314.629C314.722 376.395 314.772 376.317 314.85 376.302C315.086 376.274 315.257 376.167 315.465 376.052C315.665 375.931 315.843 375.838 315.979 375.645C316.036 375.574 316.129 375.574 316.172 375.495L329.917 351.376H356.78L370.582 375.495C370.625 375.574 370.725 375.574 370.775 375.645C370.918 375.831 371.089 375.931 371.289 376.052C371.497 376.174 371.668 376.274 371.904 376.302C371.99 376.317 372.04 376.395 372.125 376.395L400.002 376.395L413.212 399.307L399.481 423.468C399.002 424.333 399.302 425.419 400.159 425.905C401.009 426.39 402.102 426.09 402.595 425.233L416.312 401.093H443.167L456.999 425.24C457.042 425.319 457.141 425.319 457.191 425.39C457.334 425.576 457.506 425.676 457.713 425.797C457.913 425.919 458.085 426.019 458.32 426.048C458.406 426.062 458.456 426.14 458.542 426.14H486.076L499.678 449.352L485.554 473.471C485.504 473.557 485.547 473.649 485.518 473.742C485.433 473.942 485.433 474.128 485.425 474.35C485.425 474.607 485.425 474.814 485.525 475.043C485.561 475.121 485.518 475.207 485.561 475.285L499.678 499.047L486.076 522.316H458.542C458.449 522.316 458.399 522.394 458.32 522.408C458.085 522.437 457.913 522.544 457.706 522.658C457.506 522.78 457.327 522.873 457.191 523.059C457.134 523.123 457.042 523.13 456.999 523.209L443.167 547.299H416.305L402.588 523.216C402.545 523.137 402.445 523.13 402.403 523.066C402.252 522.873 402.081 522.773 401.874 522.651C401.674 522.53 401.502 522.43 401.274 522.401C401.181 522.387 401.131 522.308 401.045 522.308H372.132C371.147 522.308 370.346 523.109 370.346 524.094C370.346 525.08 371.147 525.881 372.132 525.881H400.009L413.226 549.078L400.002 572.304H373.161L359.359 548.192C359.316 548.113 359.216 548.113 359.166 548.042C359.023 547.856 358.851 547.756 358.651 547.635C358.444 547.513 358.273 547.413 358.037 547.385C357.951 547.37 357.901 547.292 357.815 547.292H328.903C328.81 547.292 328.76 547.37 328.681 547.385C328.446 547.413 328.274 547.52 328.067 547.635C327.867 547.756 327.688 547.849 327.553 548.042C327.495 548.113 327.403 548.113 327.36 548.192L313.614 572.304H286.738L273.478 549.078L286.738 525.881H314.643C314.736 525.881 314.786 525.802 314.872 525.788C315.107 525.759 315.279 525.652 315.479 525.53C315.686 525.409 315.858 525.316 315.993 525.13C316.05 525.059 316.143 525.059 316.193 524.98L329.939 500.819H357.823C358.809 500.819 359.609 500.018 359.609 499.033C359.609 498.047 358.809 497.247 357.823 497.247H329.932L316.693 474.357L330.446 450.224C330.603 449.945 330.682 449.638 330.682 449.338C330.682 448.723 330.36 448.116 329.782 447.787C328.924 447.302 327.838 447.602 327.345 448.459L313.086 473.485C313.043 473.564 313.086 473.642 313.057 473.728C312.957 473.949 312.971 474.142 312.971 474.378C312.971 474.614 312.964 474.807 313.057 475.021C313.086 475.1 313.043 475.185 313.086 475.257L326.831 499.033L313.593 522.308H285.695C285.602 522.308 285.552 522.387 285.473 522.401C285.237 522.43 285.066 522.537 284.859 522.651C284.659 522.773 284.48 522.866 284.344 523.059C284.287 523.13 284.194 523.13 284.151 523.209L270.377 547.292H243.529L229.713 523.201C229.67 523.123 229.57 523.116 229.52 523.051C229.377 522.866 229.205 522.766 229.005 522.651C228.798 522.53 228.627 522.43 228.391 522.401C228.305 522.387 228.255 522.308 228.169 522.308H200.307L187.062 499.033L200.3 476.15H228.162C229.148 476.15 229.948 475.35 229.948 474.364C229.948 473.378 229.148 472.578 228.162 472.578H199.264C199.178 472.578 199.121 472.656 199.042 472.671C198.807 472.699 198.635 472.806 198.435 472.921C198.228 473.042 198.057 473.128 197.914 473.321C197.857 473.392 197.764 473.392 197.721 473.471L183.461 498.133C183.418 498.204 183.461 498.29 183.432 498.368C183.332 498.59 183.339 498.797 183.339 499.04C183.347 499.261 183.339 499.454 183.425 499.662C183.454 499.747 183.411 499.833 183.454 499.912L197.714 524.98C197.757 525.059 197.864 525.066 197.914 525.13C198.057 525.316 198.221 525.416 198.428 525.53C198.628 525.652 198.8 525.752 199.035 525.788C199.128 525.802 199.178 525.881 199.264 525.881H227.126L240.429 549.078L227.126 572.304H200.293L186.547 548.192C186.504 548.113 186.404 548.113 186.354 548.042C186.211 547.856 186.04 547.756 185.84 547.635C185.633 547.513 185.461 547.413 185.226 547.385C185.14 547.37 185.09 547.292 185.004 547.292H157.113L143.825 524.087L157.635 499.912C157.785 499.64 157.87 499.34 157.87 499.026C157.87 498.711 157.785 498.404 157.627 498.133L143.825 474.364L157.113 451.131H185.004C185.097 451.131 185.147 451.052 185.226 451.038C185.461 451.009 185.633 450.902 185.84 450.788C186.04 450.667 186.219 450.574 186.354 450.381C186.411 450.309 186.504 450.309 186.547 450.231L200.293 426.133H227.126L240.943 450.238C240.986 450.316 241.086 450.324 241.136 450.388C241.279 450.574 241.451 450.674 241.651 450.788C241.858 450.909 242.029 451.009 242.265 451.038C242.351 451.052 242.401 451.131 242.486 451.131H270.37L283.623 474.357L270.37 497.247H242.486C241.501 497.247 240.7 498.047 240.7 499.033C240.7 500.018 241.501 500.819 242.486 500.819H271.406C271.492 500.819 271.549 500.74 271.628 500.726C271.863 500.697 272.035 500.59 272.242 500.476C272.442 500.354 272.614 500.269 272.756 500.083C272.814 500.018 272.906 500.011 272.949 499.933L287.238 475.271C287.238 475.271 287.238 475.264 287.238 475.257C287.388 474.985 287.474 474.685 287.474 474.371C287.474 474.057 287.388 473.757 287.238 473.485L273.457 449.345L286.716 426.133H314.622C314.714 426.133 314.764 426.055 314.85 426.04C315.079 426.012 315.25 425.905 315.457 425.79C315.657 425.669 315.836 425.576 315.979 425.376C316.029 425.312 316.129 425.305 316.165 425.226L329.91 401.086H356.772L370.061 424.347L356.251 448.459C356.208 448.53 356.251 448.616 356.222 448.695C356.122 448.916 356.129 449.109 356.129 449.352C356.129 449.588 356.122 449.788 356.222 450.009C356.251 450.081 356.208 450.166 356.251 450.238L370.568 475.264C370.611 475.343 370.711 475.343 370.761 475.414C370.904 475.6 371.075 475.7 371.275 475.821C371.482 475.943 371.654 476.043 371.89 476.071C371.975 476.086 372.025 476.164 372.111 476.164H399.988L413.705 499.933C413.748 500.011 413.848 500.011 413.898 500.083C414.04 500.269 414.212 500.361 414.412 500.483C414.619 500.604 414.791 500.704 415.026 500.733C415.112 500.747 415.169 500.826 415.248 500.826H444.175C444.26 500.826 444.318 500.747 444.389 500.733C444.625 500.704 444.796 500.597 445.003 500.476C445.204 500.354 445.382 500.269 445.525 500.076C445.575 500.011 445.675 500.004 445.711 499.933L460.056 475.271C460.213 475 460.299 474.692 460.299 474.378C460.299 474.071 460.213 473.764 460.063 473.492L445.718 448.459C445.232 447.602 444.132 447.309 443.282 447.802C442.417 448.295 442.132 449.388 442.617 450.238L456.456 474.371L443.146 497.254H416.277L402.56 473.485C402.517 473.407 402.417 473.407 402.367 473.335C402.224 473.149 402.052 473.056 401.852 472.935C401.645 472.814 401.474 472.714 401.238 472.685C401.152 472.671 401.095 472.592 401.017 472.592H373.14L359.852 449.352L373.661 425.24C373.811 424.969 373.897 424.662 373.897 424.347C373.897 424.033 373.811 423.733 373.661 423.454L359.344 398.414C359.301 398.335 359.201 398.335 359.151 398.264C359.009 398.078 358.837 397.978 358.637 397.856C358.43 397.735 358.258 397.635 358.023 397.606C357.937 397.592 357.887 397.514 357.801 397.514H328.903C328.81 397.514 328.76 397.592 328.674 397.606C328.446 397.635 328.274 397.742 328.067 397.856C327.867 397.978 327.688 398.071 327.545 398.271C327.495 398.335 327.395 398.342 327.36 398.421L313.614 422.561H285.709C285.616 422.561 285.566 422.64 285.487 422.654C285.252 422.683 285.08 422.79 284.873 422.904C284.673 423.026 284.494 423.118 284.359 423.311C284.302 423.383 284.209 423.383 284.166 423.461L270.392 447.559H243.529L229.713 423.454C229.67 423.376 229.57 423.368 229.52 423.304C229.377 423.118 229.205 423.018 229.005 422.904C228.798 422.783 228.627 422.683 228.391 422.654C228.305 422.64 228.255 422.561 228.169 422.561H199.271C199.178 422.561 199.128 422.64 199.05 422.654C198.814 422.683 198.642 422.79 198.435 422.904C198.235 423.026 198.057 423.118 197.921 423.311C197.864 423.383 197.771 423.383 197.728 423.461L183.982 447.559H157.12L143.318 423.461C142.832 422.604 141.732 422.304 140.881 422.797C140.017 423.29 139.731 424.39 140.217 425.233L154.027 449.345L140.217 473.485C140.174 473.557 140.217 473.642 140.188 473.721C140.088 473.942 140.096 474.142 140.096 474.378C140.096 474.621 140.096 474.821 140.188 475.035C140.224 475.114 140.181 475.2 140.224 475.271L154.027 499.047L140.739 522.323H113.891L100.602 499.047L114.405 475.271C114.562 475 114.648 474.692 114.648 474.378C114.648 474.071 114.562 473.764 114.412 473.492L100.602 449.352L114.412 425.24C114.562 424.969 114.648 424.662 114.648 424.347C114.648 424.033 114.562 423.733 114.412 423.454L100.602 399.3L114.405 375.502C114.562 375.231 114.648 374.924 114.648 374.609C114.648 374.302 114.562 373.995 114.412 373.723L100.602 349.597L113.891 326.407H141.767C141.86 326.407 141.91 326.329 141.989 326.314C142.225 326.286 142.396 326.179 142.603 326.064C142.803 325.943 142.982 325.85 143.118 325.657C143.175 325.586 143.268 325.586 143.31 325.507L157.113 301.374H183.975L197.221 324.614L183.461 348.704C182.975 349.554 183.261 350.647 184.125 351.14C184.983 351.626 186.069 351.326 186.562 350.476L200.814 325.514C200.971 325.243 201.057 324.935 201.057 324.621C201.057 324.307 200.971 324 200.814 323.728L186.562 298.709C186.519 298.63 186.419 298.623 186.376 298.559C186.226 298.366 186.054 298.266 185.847 298.145C185.647 298.023 185.476 297.923 185.247 297.895C185.154 297.88 185.104 297.802 185.018 297.802H156.084C155.991 297.802 155.941 297.88 155.863 297.895C155.627 297.923 155.456 298.03 155.248 298.145C155.048 298.266 154.87 298.359 154.734 298.552C154.677 298.623 154.584 298.623 154.541 298.702L140.739 322.835H112.862C112.769 322.835 112.719 322.914 112.64 322.928C112.405 322.957 112.233 323.064 112.026 323.178C111.826 323.299 111.647 323.392 111.512 323.578C111.454 323.642 111.362 323.649 111.319 323.728L97.0015 348.697C96.9587 348.776 97.0015 348.854 96.973 348.933C96.873 349.154 96.8801 349.347 96.8801 349.59C96.8801 349.826 96.873 350.033 96.973 350.247C97.0015 350.319 96.9587 350.397 97.0015 350.469L110.811 374.595L97.0087 398.392C96.9658 398.471 97.0087 398.549 96.973 398.628C96.8801 398.849 96.8801 399.042 96.8801 399.278C96.8801 399.521 96.873 399.721 96.973 399.943C97.0015 400.014 96.9587 400.1 97.0015 400.171L110.811 424.333L97.5231 447.544H70.8323L57.4369 424.333L71.3467 400.178C71.4967 399.907 71.5824 399.6 71.5824 399.285C71.5824 398.971 71.4967 398.664 71.3395 398.392L56.9082 373.695C56.8653 373.623 56.7653 373.616 56.7225 373.552C56.5724 373.366 56.401 373.273 56.2009 373.152C55.9937 373.03 55.8223 372.93 55.5865 372.895C55.5079 372.887 55.4508 372.802 55.3722 372.802H27.6526L14.2072 349.569L27.6455 326.386H54.3363L68.2461 350.462C68.739 351.319 69.8392 351.612 70.6894 351.112C71.2609 350.783 71.5824 350.183 71.5824 349.569C71.5824 349.269 71.5038 348.961 71.3467 348.676L56.9154 323.707C56.8725 323.628 56.7725 323.628 56.7225 323.557C56.5724 323.371 56.4081 323.278 56.2009 323.157C56.0009 323.035 55.8294 322.935 55.5937 322.907C55.5079 322.892 55.4508 322.814 55.3722 322.814H27.6526L14.2144 299.574L28.1599 275.79C28.1599 275.783 28.1599 275.776 28.167 275.776C28.3171 275.505 28.4028 275.197 28.4028 274.883C28.4028 274.576 28.3171 274.276 28.167 274.004C28.167 274.004 28.167 273.997 28.167 273.99L14.2072 249.85L27.6526 226.603H55.3722C55.4651 226.603 55.5151 226.517 55.5937 226.502C55.8294 226.474 56.0009 226.367 56.2081 226.252C56.4081 226.131 56.5867 226.038 56.7225 225.845C56.7796 225.774 56.8725 225.774 56.9154 225.695L70.9466 201.083C71.3324 200.748 71.5824 200.297 71.5824 199.797C71.5824 199.49 71.5038 199.183 71.3395 198.897L57.4369 175.157L70.8323 151.924H98.559C98.6519 151.924 98.7019 151.845 98.7804 151.831C99.0162 151.803 99.1877 151.695 99.3948 151.581C99.5949 151.46 99.7735 151.367 99.9092 151.174C99.9664 151.102 100.059 151.095 100.102 151.024L113.905 126.841H140.753L154.534 151.038C154.577 151.11 154.677 151.117 154.727 151.188C154.87 151.374 155.041 151.474 155.241 151.595C155.448 151.717 155.62 151.817 155.856 151.845C155.941 151.86 155.991 151.938 156.077 151.938H183.961L197.714 176.064C197.757 176.136 197.857 176.143 197.907 176.214C198.049 176.4 198.221 176.5 198.421 176.622C198.628 176.743 198.8 176.843 199.035 176.872C199.121 176.886 199.171 176.964 199.257 176.964H227.126L240.422 199.826L226.598 223.945C226.555 224.023 226.598 224.102 226.569 224.181C226.476 224.402 226.476 224.602 226.476 224.838C226.476 225.074 226.476 225.274 226.569 225.495C226.598 225.567 226.555 225.645 226.598 225.717L240.929 250.75C240.972 250.836 241.072 250.836 241.122 250.9C241.265 251.086 241.436 251.186 241.636 251.307C241.843 251.429 242.015 251.529 242.251 251.557C242.336 251.572 242.386 251.657 242.472 251.657L271.392 251.657C271.485 251.657 271.535 251.572 271.613 251.557C271.849 251.529 272.021 251.422 272.228 251.307C272.428 251.186 272.606 251.093 272.742 250.9C272.799 250.829 272.892 250.829 272.935 250.75L286.709 226.624H313.586L327.331 250.75C327.374 250.829 327.474 250.836 327.517 250.9C327.667 251.093 327.838 251.193 328.046 251.314C328.246 251.436 328.417 251.536 328.646 251.564C328.739 251.579 328.789 251.664 328.874 251.664H356.765L370.054 274.912L356.772 297.816H328.903C328.81 297.816 328.76 297.895 328.674 297.909C328.446 297.937 328.274 298.045 328.074 298.159C327.867 298.28 327.688 298.373 327.545 298.573C327.495 298.638 327.395 298.645 327.36 298.723L313.1 323.757C312.6 324.621 312.907 325.7 313.764 326.193C314.622 326.679 315.707 326.379 316.2 325.521L329.946 301.395H356.808L370.611 325.528C370.654 325.607 370.754 325.607 370.804 325.678C370.947 325.864 371.118 325.964 371.318 326.086C371.525 326.207 371.697 326.307 371.932 326.336C372.018 326.35 372.068 326.429 372.154 326.429L401.067 326.429C401.159 326.429 401.209 326.35 401.295 326.336C401.531 326.307 401.702 326.2 401.902 326.079C402.045 326 402.224 326.007 402.338 325.893C402.338 325.886 402.345 325.893 402.353 325.886C402.403 325.836 402.395 325.728 402.438 325.671C402.488 325.607 402.588 325.6 402.624 325.521L416.341 301.395H444.225C444.311 301.395 444.368 301.317 444.439 301.302C444.675 301.274 444.846 301.167 445.053 301.045C445.254 300.924 445.432 300.838 445.575 300.645C445.625 300.581 445.725 300.574 445.761 300.502L459.592 276.705H487.126C488.112 276.705 488.912 275.912 488.912 274.919C488.912 273.933 488.112 273.133 487.126 273.133H458.563C458.477 273.133 458.42 273.219 458.349 273.233C458.113 273.261 457.942 273.361 457.734 273.483C457.534 273.604 457.356 273.69 457.213 273.89C457.163 273.954 457.063 273.962 457.027 274.033L443.196 297.83H416.327L402.61 274.033C402.117 273.183 401.024 272.89 400.166 273.376C399.316 273.876 399.023 274.969 399.509 275.819L413.233 299.616L400.016 322.856L373.176 322.856L359.887 299.616L373.69 275.826C373.847 275.562 373.933 275.247 373.933 274.926C373.933 274.619 373.847 274.312 373.697 274.047L359.887 249.893L373.697 225.738C373.854 225.459 373.933 225.159 373.933 224.859C373.933 224.238 373.611 223.63 373.033 223.309C372.175 222.816 371.089 223.116 370.596 223.966L356.794 248.107H329.932L316.186 223.973C316.143 223.895 316.043 223.888 316 223.823C315.85 223.631 315.679 223.53 315.472 223.409C315.272 223.288 315.1 223.195 314.872 223.159C314.779 223.145 314.729 223.066 314.643 223.066H285.702C285.609 223.066 285.559 223.145 285.48 223.159C285.245 223.188 285.073 223.295 284.866 223.409C284.666 223.53 284.487 223.623 284.352 223.816C284.294 223.888 284.201 223.895 284.159 223.966L270.385 248.107L243.529 248.107L230.227 224.859L244.051 200.733C244.201 200.462 244.287 200.155 244.287 199.84C244.287 199.533 244.201 199.226 244.044 198.947L230.227 175.2L244.051 151.074C244.201 150.802 244.287 150.495 244.287 150.181C244.287 149.874 244.201 149.566 244.051 149.295L230.227 125.105L243.529 101.9L271.356 101.9C271.37 101.9 271.378 101.915 271.392 101.915C271.828 101.915 272.321 101.707 272.678 101.422C272.792 101.314 272.764 101.164 272.828 101.029C273.007 100.75 273.207 100.479 273.207 100.114C273.207 99.6278 273.007 99.1778 272.678 98.8498C272.628 98.8068 272.549 98.8138 272.506 98.7778C272.199 98.5348 271.842 98.3278 271.428 98.3278L242.508 98.3278C242.415 98.3278 242.365 98.4138 242.286 98.4278C242.051 98.4568 241.879 98.5638 241.672 98.6778C241.472 98.7998 241.293 98.8928 241.158 99.0848C241.1 99.1498 241.008 99.1568 240.965 99.2348L227.148 123.326H200.314L186.569 99.2428C186.526 99.1568 186.426 99.1568 186.376 99.0928C186.233 98.9068 186.061 98.8068 185.861 98.6848C185.654 98.5638 185.483 98.4638 185.247 98.4348C185.161 98.4208 185.111 98.3348 185.026 98.3348H156.084C156.063 98.3348 156.049 98.3638 156.02 98.3638C155.663 98.3778 155.277 98.5138 154.963 98.8068C154.905 98.8568 154.848 98.8708 154.798 98.9278C154.741 98.9848 154.763 99.0778 154.713 99.1278C154.505 99.4208 154.298 99.7358 154.298 100.128C154.298 100.264 154.413 100.336 154.441 100.464C154.498 100.8 154.563 101.143 154.798 101.436C155.163 101.722 155.584 101.929 156.091 101.929C156.106 101.929 156.113 101.915 156.127 101.915H183.982L197.728 125.998C197.771 126.083 197.871 126.083 197.921 126.148C198.064 126.333 198.235 126.433 198.435 126.555C198.642 126.676 198.814 126.776 199.05 126.805C199.135 126.819 199.185 126.905 199.271 126.905H227.134L240.436 150.195L227.134 173.428H200.307L186.554 149.316C186.512 149.231 186.411 149.231 186.361 149.166C186.219 148.981 186.047 148.881 185.847 148.759C185.64 148.638 185.468 148.538 185.233 148.509C185.147 148.495 185.097 148.409 185.011 148.409H157.12L143.318 124.226C143.275 124.154 143.175 124.147 143.125 124.076C142.982 123.89 142.81 123.79 142.61 123.669C142.403 123.547 142.232 123.447 141.996 123.419C141.91 123.404 141.86 123.326 141.774 123.326H113.898L100.609 100.121L113.898 76.9028H141.746C141.767 76.9028 141.782 76.9168 141.803 76.9168C141.889 76.9168 141.953 76.8238 142.032 76.8098C142.253 76.7738 142.41 76.6598 142.603 76.5528C142.81 76.4308 142.982 76.3448 143.125 76.1448C143.175 76.0808 143.275 76.0738 143.31 76.0018L157.113 52.1838H183.982L197.728 76.0018C197.771 76.0738 197.871 76.0808 197.921 76.1518C198.071 76.3378 198.235 76.4308 198.442 76.5528C198.642 76.6738 198.814 76.7738 199.05 76.8028C199.135 76.8168 199.192 76.9028 199.271 76.9028H228.169C229.155 76.9028 229.955 76.1028 229.955 75.1168C229.955 74.1238 229.155 73.3308 228.169 73.3308H200.307L187.069 50.3978L200.307 27.1858H227.141L240.958 51.2978C241 51.3758 241.1 51.3828 241.143 51.4478C241.2 51.5258 241.179 51.6338 241.25 51.7048C241.386 51.8118 241.572 51.8118 241.715 51.8838C241.901 51.9908 242.058 52.0688 242.272 52.0978C242.301 52.1048 242.322 52.1258 242.351 52.1338C242.415 52.1338 242.451 52.1908 242.501 52.1908C242.508 52.1908 242.522 52.2048 242.529 52.2048C242.536 52.2048 242.536 52.1908 242.544 52.1908H270.385L284.159 76.0098C284.201 76.0808 284.302 76.0878 284.352 76.1598C284.494 76.3448 284.666 76.4378 284.873 76.5598C285.073 76.6808 285.245 76.7808 285.48 76.8098C285.566 76.8238 285.623 76.9098 285.702 76.9098H313.607L327.353 101.022C327.395 101.093 327.495 101.1 327.545 101.172C327.688 101.357 327.86 101.457 328.06 101.579C328.267 101.7 328.438 101.8 328.674 101.829C328.76 101.843 328.81 101.922 328.896 101.922H356.787L370.589 126.012C370.632 126.091 370.732 126.098 370.782 126.162C370.925 126.348 371.097 126.448 371.297 126.569C371.504 126.691 371.675 126.791 371.911 126.819C371.997 126.834 372.047 126.919 372.132 126.919H399.995L413.719 151.095C413.769 151.174 413.869 151.188 413.919 151.252C414.062 151.431 414.226 151.524 414.426 151.645C414.633 151.774 414.805 151.867 415.041 151.903C415.134 151.917 415.184 151.995 415.269 151.995H443.16L456.991 176.122C457.034 176.2 457.134 176.207 457.184 176.272C457.327 176.45 457.499 176.55 457.699 176.672C457.906 176.793 458.077 176.893 458.313 176.922C458.399 176.936 458.449 177.015 458.535 177.015H487.097C488.083 177.015 488.883 176.222 488.883 175.228C488.883 174.243 488.083 173.442 487.097 173.442H459.563L446.247 150.209L460.085 126.012C460.235 125.748 460.321 125.44 460.321 125.133C460.321 124.819 460.235 124.512 460.085 124.24L445.739 99.2568C445.254 98.3998 444.153 98.1068 443.303 98.5918C442.439 99.0928 442.153 100.186 442.639 101.036L456.477 125.133L443.16 148.423H416.312L402.588 124.247C402.538 124.169 402.438 124.154 402.388 124.09C402.245 123.912 402.081 123.819 401.881 123.697C401.674 123.569 401.502 123.476 401.267 123.44C401.174 123.426 401.124 123.347 401.038 123.347H373.161L359.359 99.2568C359.316 99.1778 359.216 99.1708 359.166 99.1068C359.023 98.9208 358.851 98.8208 358.651 98.6998C358.444 98.5778 358.273 98.4778 358.037 98.4498C357.951 98.4348 357.901 98.3498 357.815 98.3498H329.924L316.179 74.2378C316.136 74.1658 316.036 74.1588 315.986 74.0878C315.843 73.9018 315.672 73.8018 315.472 73.6808C315.265 73.5588 315.093 73.4588 314.857 73.4308C314.772 73.4158 314.722 73.3378 314.636 73.3378H286.731L273.471 50.4048L286.731 27.1928H313.607L327.353 51.3048C327.395 51.3758 327.495 51.3828 327.545 51.4548C327.688 51.6408 327.86 51.7408 328.06 51.8618C328.267 51.9838 328.438 52.0838 328.674 52.1118C328.76 52.1268 328.81 52.2048 328.896 52.2048H356.794L370.596 76.0238C370.639 76.0948 370.739 76.1018 370.782 76.1668C370.925 76.3598 371.097 76.4528 371.304 76.5738C371.504 76.6948 371.675 76.7948 371.911 76.8238C371.997 76.8378 372.054 76.9238 372.132 76.9238H401.045C402.031 76.9238 402.831 76.1238 402.831 75.1378C402.831 74.1448 402.031 73.3518 401.045 73.3518H373.161L359.359 49.5328C359.316 49.4618 359.216 49.4548 359.173 49.3898C359.03 49.1968 358.859 49.1038 358.651 48.9828C358.451 48.8618 358.28 48.7618 358.044 48.7328C357.958 48.7188 357.901 48.6328 357.823 48.6328H329.932L316.186 24.5208C316.143 24.4498 316.043 24.4428 315.993 24.3708C315.85 24.1848 315.679 24.0848 315.479 23.9638C315.272 23.8428 315.1 23.7428 314.864 23.7138C314.779 23.6998 314.729 23.6208 314.643 23.6208H285.702C285.609 23.6208 285.559 23.6998 285.48 23.7138C285.245 23.7428 285.073 23.8498 284.866 23.9638C284.666 24.0848 284.487 24.1778 284.352 24.3708C284.294 24.4428 284.201 24.4498 284.159 24.5208L270.385 48.6328H243.529L229.713 24.5208C229.677 24.4498 229.591 24.4498 229.548 24.3928C229.498 24.3138 229.505 24.2138 229.448 24.1428C229.32 24.0068 229.141 24.0278 228.991 23.9638C228.791 23.8428 228.62 23.7498 228.391 23.7208C228.305 23.7068 228.255 23.6278 228.169 23.6278H199.271C199.178 23.6278 199.128 23.7068 199.05 23.7208C198.814 23.6928 198.642 23.7998 198.435 23.9138Z" fill="white"/>
</svg>
