<svg width="1919" height="1400" viewBox="0 0 1919 1400" fill="none" xmlns="http://www.w3.org/2000/svg">
<g clip-path="url(#clip0_3289_27)">
<path d="M1437.2 1.47438C1430.45 -0.580122 1423.41 -0.580084 1416.66 2.06143L19.9529 531.243C19.9529 531.243 19.9528 531.243 19.6594 531.243C18.1923 531.83 16.7252 532.417 15.258 533.297C14.9646 533.297 14.9647 533.591 14.6713 533.591C13.4976 534.471 12.0304 535.352 10.8567 536.232C10.5632 536.526 10.5633 536.526 10.2699 536.819C9.09618 537.993 7.92245 538.874 7.04217 540.048C7.04217 540.048 7.04217 540.341 6.74875 540.341C5.86847 541.515 4.9882 542.983 4.10792 544.157C4.10792 544.157 4.10792 544.45 3.8145 544.45C2.93422 545.918 2.34742 547.385 1.76057 548.853C1.76057 549.146 1.46713 549.146 1.46713 549.44C0.880275 550.907 0.586868 552.375 0.293443 553.842C0.293443 554.136 0.293443 554.429 0.293443 554.723C1.79049e-05 556.19 0 557.951 0 559.419V907.805C0 924.534 13.791 938.329 30.8096 938.329C73.9431 938.329 109.154 973.549 109.154 1016.99C109.154 1059.84 73.9431 1094.76 30.8096 1094.76C13.791 1094.76 0 1108.56 0 1125.29V1369.48C0 1386.21 13.791 1400.01 30.8096 1400.01H1391.13C1408.15 1400.01 1421.94 1386.21 1421.94 1369.48C1421.94 1299.92 1478.57 1243.28 1548.11 1243.28C1618.24 1243.28 1675.46 1299.92 1675.46 1369.48C1675.46 1386.21 1689.25 1400.01 1706.27 1400.01H1887.31C1904.33 1400.01 1918.12 1386.21 1918.12 1369.48V559.712C1918.41 283.529 1765.54 106.254 1437.2 1.47438ZM1029.04 248.602C1029.04 257.701 987.375 285.583 911.378 285.583C889.958 285.583 871.473 283.236 855.628 280.007L997.645 226.296C1018.19 234.514 1029.04 243.906 1029.04 248.602ZM771.415 311.997C803.398 333.717 852.987 346.631 911.378 346.631C1015.25 346.631 1090.66 305.247 1090.66 248.602C1090.66 230.405 1082.74 213.676 1068.65 199.294L1428.69 62.8163C1712.14 155.563 1845.35 300.551 1855.91 529.188H1234.15C1200.4 481.348 1134.97 450.236 1064.25 450.236C992.07 450.236 927.517 480.761 894.066 529.188H197.769L771.415 311.997ZM947.47 559.712C970.357 530.069 1014.96 511.285 1064.25 511.285C1112.37 511.285 1157.56 530.656 1180.74 559.712C1157.56 588.769 1112.37 608.14 1064.25 608.14C1014.96 608.14 970.357 589.356 947.47 559.712ZM1856.79 1339.54H1734.73C1720.06 1250.61 1642.01 1182.52 1548.4 1182.52C1455.39 1182.52 1377.63 1250.61 1362.96 1339.54H61.6193V1152.88C123.825 1138.79 170.48 1083.61 170.48 1017.57C170.48 950.949 123.825 895.184 61.6193 881.096V590.236H894.066C927.517 638.664 992.07 669.188 1064.25 669.188C1134.97 669.188 1200.7 638.077 1234.15 590.236H1856.79V1339.54Z" fill="white"/>
<path d="M1626.75 905.166C1703.93 905.166 1766.43 843.237 1766.43 767.513C1766.43 690.91 1703.63 628.688 1626.75 628.688C1550.17 628.688 1487.96 690.91 1487.96 767.513C1487.96 843.53 1550.17 905.166 1626.75 905.166ZM1626.75 689.736C1669.89 689.736 1705.1 724.662 1705.1 767.513C1705.1 809.778 1669.89 844.117 1626.75 844.117C1584.21 844.117 1549.58 809.778 1549.58 767.513C1549.58 724.662 1584.21 689.736 1626.75 689.736Z" fill="white"/>
<path d="M889.071 815.352C782.264 815.352 695.117 901.641 695.117 1007.89C695.117 1114.14 781.971 1200.42 889.071 1200.42C995.878 1200.42 1083.03 1114.14 1083.03 1007.89C1083.03 901.641 996.171 815.352 889.071 815.352ZM889.071 1138.79C816.008 1138.79 756.736 1079.8 756.736 1007.59C756.736 935.1 816.008 876.4 889.071 876.4C962.134 876.4 1021.41 935.393 1021.41 1007.59C1021.41 1080.09 962.134 1138.79 889.071 1138.79Z" fill="white"/>
<path d="M392.309 631.914C308.683 631.914 237.674 702.061 237.674 785.415C237.674 869.943 306.922 938.916 392.309 938.916C477.402 938.916 546.944 870.237 546.944 785.415C546.944 700.593 477.402 631.914 392.309 631.914ZM392.309 877.574C340.959 877.574 299.293 836.191 299.293 785.415C299.293 735.52 341.84 693.256 392.309 693.256C443.658 693.256 485.325 734.639 485.325 785.415C485.325 837.071 444.539 877.574 392.309 877.574Z" fill="white"/>
<path d="M1374.1 1152.29C1434.55 1152.29 1483.85 1103.28 1483.85 1043.4C1483.85 983.237 1434.55 934.516 1374.1 934.516C1314.54 934.516 1264.36 984.411 1264.36 1043.4C1264.36 1103.57 1313.66 1152.29 1374.1 1152.29ZM1374.1 995.564C1400.81 995.564 1422.23 1016.99 1422.23 1043.4C1422.23 1070.11 1401.1 1091.25 1374.1 1091.25C1347.4 1091.25 1325.98 1069.82 1325.98 1043.4C1325.98 1017.28 1347.99 995.564 1374.1 995.564Z" fill="white"/>
<path d="M414.903 1087.72C354.458 1087.72 305.162 1136.73 305.162 1196.61C305.162 1256.78 354.458 1305.5 414.903 1305.5C474.468 1305.5 524.644 1255.6 524.644 1196.61C524.938 1136.44 475.642 1087.72 414.903 1087.72ZM414.903 1244.45C388.201 1244.45 366.781 1223.02 366.781 1196.61C366.781 1169.9 387.908 1148.77 414.903 1148.77C441.605 1148.77 463.025 1170.19 463.025 1196.61C463.318 1222.44 441.311 1244.45 414.903 1244.45Z" fill="white"/>
<path d="M1453.05 416.489C1561.03 416.489 1670.48 377.453 1670.48 303.197C1670.48 228.648 1561.03 189.906 1453.05 189.906C1345.07 189.906 1235.62 228.942 1235.62 303.197C1235.91 377.747 1345.07 416.489 1453.05 416.489ZM1453.05 250.954C1549.58 250.954 1608.86 284.707 1608.86 303.197C1608.86 321.688 1549.58 355.441 1453.05 355.441C1356.51 355.441 1297.24 321.688 1297.24 303.197C1297.24 284.707 1356.51 250.954 1453.05 250.954Z" fill="white"/>
</g>
<defs>
<clipPath id="clip0_3289_27">
<rect width="1919" height="1400" fill="white"/>
</clipPath>
</defs>
</svg>
