<svg width="1437" height="1600" viewBox="0 0 1437 1600" fill="none" xmlns="http://www.w3.org/2000/svg">
<path d="M573.84 992.465C573.84 1006.3 562.665 1017.47 548.832 1017.47C443.566 1017.47 357.055 1098.57 348.371 1201.38C440.353 1238.64 505.451 1328.65 505.451 1433.56C505.451 1447.4 494.276 1458.56 480.443 1458.56C466.611 1458.56 455.435 1447.4 455.435 1433.56C455.435 1323.01 365.174 1233.02 254.194 1233.02C240.362 1233.02 229.186 1221.85 229.186 1208.02C229.186 1194.19 240.362 1183.02 254.194 1183.02C269.668 1183.02 284.827 1184.5 299.598 1187.24C314.993 1063.56 420.885 967.471 548.894 967.471C562.727 967.471 573.902 978.645 573.902 992.472L573.84 992.465ZM573.215 659.259C477.247 714.731 353.928 681.684 298.291 585.663C291.335 573.71 276.096 569.648 264.14 576.601C252.183 583.555 248.12 598.79 255.075 610.742C300.635 689.337 382.536 734.025 467.32 736.058C450.049 773.013 421.994 803.713 385.889 824.494C339.391 851.295 285.154 858.401 233.186 844.654C219.823 841.061 206.146 849.028 202.553 862.388C198.958 875.749 206.929 889.422 220.293 893.016C241.861 898.796 263.822 901.609 285.547 901.609C329.076 901.609 372.057 890.202 410.819 867.935C464.195 837.154 503.582 789.026 523.041 731.212C548.831 725.978 574.229 716.525 598.299 702.618C610.256 695.744 614.319 680.43 607.442 668.477C600.487 656.524 585.247 652.461 573.292 659.337L573.215 659.259ZM1397.85 901.683C1418.95 939.11 1430.04 981.064 1430.04 1024.19C1430.04 1103.49 1392.85 1177.24 1329.86 1224.51C1330.87 1233.81 1331.34 1243.18 1331.34 1252.72C1331.34 1364.99 1257.41 1462.8 1150.27 1493.74C1103.14 1560.47 1027.11 1600 944.749 1600C845.346 1600 759.226 1542.03 718.5 1458.12C677.781 1542.03 591.665 1600 492.25 1600C409.959 1600 333.842 1560.47 286.727 1493.74C179.662 1462.8 105.656 1365.07 105.656 1252.72C105.656 1243.18 106.125 1233.81 107.141 1224.51C44.3096 1177.4 7.34425 1103.65 7.34425 1024.19C7.34425 980.824 18.2852 938.797 39.23 901.683C13.5181 861.375 0 815.12 0 766.919C0 714.885 16.3332 663.789 46.3422 621.678C39.8558 599.882 36.5736 577.223 36.5736 554.333C36.5736 444.408 111.831 351.287 216.005 326.207C212.254 311.597 210.3 296.674 210.3 281.596C210.3 206.516 256.72 142.138 322.444 115.498C380.43 68.3864 447.872 32.3717 512.892 13.8552C579.475 -5.05148 639.181 -4.58287 681.069 15.1052C696.153 22.2148 708.73 31.6681 718.5 43.1519C728.27 31.6673 740.854 22.2134 755.932 15.1052C797.824 -4.58287 857.529 -5.05128 924.11 13.8552C989.13 32.3713 1056.57 68.3884 1114.56 115.498C1180.2 142.216 1226.7 206.594 1226.7 281.596C1226.7 296.753 1224.83 311.674 1221 326.207C1325.25 351.207 1400.43 444.414 1400.43 554.333C1400.43 577.301 1397.15 599.88 1390.66 621.678C1420.59 663.789 1437 714.885 1437 766.919C1437 815.12 1423.48 861.448 1397.77 901.683H1397.85ZM693.492 1348.95V527.756C688.571 511.818 678.094 498.615 663.639 490.255C648.399 481.427 630.504 479.161 613.389 483.849C600.104 487.521 586.349 479.63 582.676 466.27C579.081 452.989 586.896 439.238 600.259 435.566C630.346 427.362 661.684 431.425 688.571 446.894C690.211 447.831 691.852 448.847 693.412 449.863L693.492 115.714C693.492 88.9956 682.476 70.8691 659.731 60.167C611.983 37.7444 519.064 50.9479 424.419 105.48C476.545 115.636 521.871 148.293 547.503 195.716C554.068 207.905 549.535 223.061 537.344 229.623C525.153 236.186 509.991 231.654 503.427 219.467C480.999 177.904 437.469 152.121 389.721 152.121C374.325 152.121 359.633 154.855 345.957 159.777C344.472 160.559 342.831 161.184 341.268 161.575C293.831 180.794 260.227 227.28 260.227 281.421C260.227 294.391 262.259 307.204 266.089 319.704C267.886 319.626 269.683 319.548 271.402 319.548C400.974 319.548 506.394 424.785 506.394 554.234C506.394 568.062 495.219 579.235 481.387 579.235C467.554 579.235 456.379 568.062 456.379 554.234C456.379 452.435 373.386 369.541 271.4 369.541C264.914 369.541 258.272 369.854 251.785 370.557C157.538 380.479 86.4225 459.466 86.4225 554.234C86.4225 576.03 90.1736 597.359 97.5199 617.751C100.489 625.954 98.9263 635.017 93.534 641.813C65.3214 677.05 49.8487 721.505 49.8487 766.819C49.8487 810.02 63.3684 851.195 88.9226 885.962C125.262 934.87 180.435 964.557 240.453 967.371C254.285 967.991 264.914 979.711 264.21 993.538C263.585 1006.9 252.488 1017.37 239.281 1017.37H238.108C175.745 1014.4 117.525 988.305 73.6039 944.477C62.8196 969.324 57.2709 996.352 57.2709 1024.09C57.2709 1091.98 91.0312 1154.72 147.611 1191.83C155.894 1197.3 160.27 1207.14 158.551 1216.98C156.598 1228.47 155.582 1240.42 155.582 1252.61C155.582 1345.19 218.335 1425.35 308.128 1447.62C314.302 1449.1 319.617 1452.93 323.055 1458.24C360.332 1515.58 423.554 1549.81 492.091 1549.81C603.063 1549.81 693.332 1459.64 693.332 1348.86L693.492 1348.95ZM1380.02 1024.19C1380.02 996.612 1374.31 969.658 1363.38 944.577C1319.69 988.325 1261.47 1014.43 1198.79 1017.39H1197.62C1184.34 1017.39 1173.32 1007 1172.69 993.565C1172.07 979.731 1182.7 968.091 1196.45 967.391C1256.78 964.497 1311.96 934.89 1347.9 885.982C1373.45 851.215 1387.05 810.04 1387.05 766.839C1387.05 721.445 1371.5 677.07 1343.37 641.835C1337.98 635.038 1336.42 625.897 1339.38 617.772C1346.73 597.382 1350.48 576.053 1350.48 554.255C1350.48 459.408 1279.37 380.5 1185.12 370.578C1178.63 369.953 1171.99 369.563 1165.5 369.563C1063.52 369.563 980.52 452.377 980.52 554.255C980.52 568.084 969.35 579.256 955.513 579.256C941.682 579.256 930.505 568.084 930.505 554.255C930.505 424.876 1035.93 319.569 1165.5 319.569C1167.3 319.569 1169.1 319.647 1170.81 319.725C1174.72 307.303 1176.67 294.413 1176.67 281.442C1176.67 210.191 1118.61 152.143 1047.18 152.143C999.82 152.143 956.213 178.004 933.472 219.567C926.83 231.676 911.673 236.13 899.555 229.489C887.445 222.848 882.99 207.693 889.632 195.582C915.58 148.237 960.908 115.658 1012.72 105.502C918.081 50.8905 825.079 37.6882 777.325 60.1108C754.584 70.8144 743.568 88.9396 743.568 115.658V334.724C745.128 333.708 746.769 332.692 748.329 331.755C775.291 316.129 806.634 311.988 836.643 319.957C850.007 323.551 857.896 337.224 854.382 350.583C850.787 363.942 837.11 371.833 823.746 368.317C806.634 363.786 788.815 366.13 773.417 375.036C758.886 383.474 748.409 396.677 743.568 412.537V1198.8C769.749 1163.8 805.227 1135.52 847.506 1117.7C860.243 1112.31 874.855 1118.33 880.25 1130.98C885.638 1143.72 879.703 1158.33 866.966 1163.72C792.016 1195.36 743.641 1268.02 743.641 1348.88C743.641 1459.66 833.902 1549.83 944.883 1549.83C1013.5 1549.83 1076.64 1515.6 1113.92 1458.26C1117.36 1452.94 1122.75 1449.12 1128.85 1447.64C1218.64 1425.37 1281.39 1345.21 1281.39 1252.63C1281.39 1240.44 1280.38 1228.41 1278.42 1217C1276.7 1207.24 1281.01 1197.32 1289.37 1191.85C1346.18 1154.58 1380.1 1091.92 1380.1 1024.11L1380.02 1024.19ZM1182.85 1183.02C1167.38 1183.02 1152.22 1184.5 1137.45 1187.24C1122.05 1063.57 1016.32 967.471 888.552 967.471C874.721 967.471 863.544 978.645 863.544 992.472C863.544 1006.31 874.721 1017.47 888.552 1017.47C993.584 1017.47 1080.02 1098.57 1088.69 1201.38C996.712 1238.65 931.612 1328.65 931.612 1433.57C931.612 1447.4 942.789 1458.57 956.62 1458.57C970.451 1458.57 981.627 1447.4 981.627 1433.57C981.627 1323.02 1071.89 1233.02 1182.87 1233.02C1196.7 1233.02 1207.88 1221.86 1207.88 1208.02C1207.88 1194.2 1196.69 1183.02 1182.85 1183.02ZM1152.37 901.376C1173.71 901.376 1195.43 898.636 1217.01 892.936C1230.37 889.422 1238.26 875.669 1234.74 862.388C1231.23 849.028 1217.47 841.061 1204.19 844.654C1108.69 870.042 1010.54 822.234 969.817 735.978C1054.61 733.945 1136.43 689.257 1181.92 610.82C1188.88 598.866 1184.82 583.553 1172.86 576.679C1160.9 569.726 1145.58 573.867 1138.71 585.742C1083.15 681.604 959.821 714.571 863.785 659.338C851.828 652.462 836.509 656.525 829.634 668.557C822.752 680.51 826.82 695.824 838.85 702.698C862.844 716.525 888.245 725.905 914.033 731.138C949.124 834.261 1046.65 901.529 1152.47 901.529L1152.37 901.376Z" fill="white"/>
</svg>
