<svg width="606" height="606" viewBox="0 0 606 606" fill="none" xmlns="http://www.w3.org/2000/svg">
<g clip-path="url(#clip0_1109_580)">
<mask id="mask0_1109_580" style="mask-type:alpha" maskUnits="userSpaceOnUse" x="0" y="0" width="606" height="606">
<path d="M602.012 3.02521H3.02539V602.012H602.012V3.02521Z" fill="white" stroke="white" stroke-width="6.05037"/>
</mask>
<g mask="url(#mask0_1109_580)">
<path d="M603.662 1.29593H1.31348V603.644H603.662V1.29593Z" stroke="white" stroke-width="2.68905"/>
<path d="M614.952 311.343C781.333 311.343 916.211 176.466 916.211 10.0853C916.211 -156.295 781.333 -291.173 614.952 -291.173C448.572 -291.173 313.694 -156.295 313.694 10.0853C313.694 176.466 448.572 311.343 614.952 311.343Z" stroke="white" stroke-width="2.52099"/>
<path d="M614.954 260.924C753.488 260.924 865.792 148.619 865.792 10.0853C865.792 -128.449 753.488 -240.753 614.954 -240.753C476.419 -240.753 364.115 -128.449 364.115 10.0853C364.115 148.619 476.419 260.924 614.954 260.924Z" stroke="white" stroke-width="2.52099"/>
<path d="M614.952 210.504C725.64 210.504 815.37 120.773 815.37 10.0853C815.37 -100.603 725.64 -190.333 614.952 -190.333C504.264 -190.333 414.533 -100.603 414.533 10.0853C414.533 120.773 504.264 210.504 614.952 210.504Z" stroke="white" stroke-width="2.52099"/>
<path d="M614.952 916.215C781.333 916.215 916.211 781.337 916.211 614.956C916.211 448.576 781.333 313.698 614.952 313.698C448.572 313.698 313.694 448.576 313.694 614.956C313.694 781.337 448.572 916.215 614.952 916.215Z" stroke="white" stroke-width="2.52099"/>
<path d="M614.954 865.795C753.489 865.795 865.793 753.491 865.793 614.956C865.793 476.422 753.489 364.118 614.954 364.118C476.42 364.118 364.116 476.422 364.116 614.956C364.116 753.491 476.42 865.795 614.954 865.795Z" stroke="white" stroke-width="2.52099"/>
<path d="M614.952 815.375C725.64 815.375 815.37 725.645 815.37 614.956C815.37 504.268 725.64 414.538 614.952 414.538C504.264 414.538 414.533 504.268 414.533 614.956C414.533 725.645 504.264 815.375 614.952 815.375Z" stroke="white" stroke-width="2.52099"/>
<path d="M10.0843 291.513C176.465 291.513 311.342 156.635 311.342 -9.74515C311.342 -176.125 176.465 -311.003 10.0843 -311.003C-156.296 -311.003 -291.174 -176.125 -291.174 -9.74515C-291.174 156.635 -156.296 291.513 10.0843 291.513Z" stroke="white" stroke-width="2.52099"/>
<path d="M10.0854 241.093C148.62 241.093 260.924 128.789 260.924 -9.74518C260.924 -148.279 148.62 -260.583 10.0854 -260.583C-128.449 -260.583 -240.753 -148.279 -240.753 -9.74518C-240.753 128.789 -128.449 241.093 10.0854 241.093Z" stroke="white" stroke-width="2.52099"/>
<path d="M10.0846 190.673C120.773 190.673 210.503 100.943 210.503 -9.74521C210.503 -120.433 120.773 -210.164 10.0846 -210.164C-100.604 -210.164 -190.334 -120.433 -190.334 -9.74521C-190.334 100.943 -100.604 190.673 10.0846 190.673Z" stroke="white" stroke-width="2.52099"/>
<path d="M10.0843 896.211C176.465 896.211 311.342 761.334 311.342 594.953C311.342 428.573 176.465 293.695 10.0843 293.695C-156.296 293.695 -291.174 428.573 -291.174 594.953C-291.174 761.334 -156.296 896.211 10.0843 896.211Z" stroke="white" stroke-width="2.52099"/>
<path d="M10.0854 845.792C148.62 845.792 260.924 733.487 260.924 594.953C260.924 456.419 148.62 344.115 10.0854 344.115C-128.449 344.115 -240.753 456.419 -240.753 594.953C-240.753 733.487 -128.449 845.792 10.0854 845.792Z" stroke="white" stroke-width="2.52099"/>
<path d="M10.0846 795.372C120.773 795.372 210.503 705.641 210.503 594.953C210.503 484.265 120.773 394.535 10.0846 394.535C-100.604 394.535 -190.334 484.265 -190.334 594.953C-190.334 705.641 -100.604 795.372 10.0846 795.372Z" stroke="white" stroke-width="2.52099"/>
</g>
</g>
<defs>
<clipPath id="clip0_1109_580">
<rect width="605.037" height="605.037" fill="white"/>
</clipPath>
</defs>
</svg>
