<svg
  width="5000"
  height="4895"
  viewBox="0 0 5000 4895"
  fill="none"
  xmlns="http://www.w3.org/2000/svg"
>
  <path
    d="M4032.24 1786.17V3567.62L2489.46 4458.35L946.671 3567.62L946.671 1786.17L2489.46 895.439L4032.24 1786.17Z"
    stroke="white"
    stroke-width="16"
  />
  <path
    d="M4035.6 2666.62L1725.37 1339.65L1727.45 3999.23L4035.6 2666.62Z"
    stroke="white"
    stroke-width="16"
  />
  <path
    d="M3269.19 3994.97L3263.26 1330.76L955.338 2670.99L3269.19 3994.97Z"
    stroke="white"
    stroke-width="16"
  />
  <path
    d="M2494.74 895.297L965.38 3558.29L4030.95 3556.08L2494.74 895.297Z"
    stroke="white"
    stroke-width="16"
  />
  <path
    d="M2492.19 4444.58L4021.55 1781.59L955.983 1783.8L2492.19 4444.58Z"
    stroke="white"
    stroke-width="16"
  />
  <path d="M961.014 3559.95L4030.53 1787.77" stroke="white" stroke-width="16" />
  <path d="M955.338 2670.98L4039.6 2664.14" stroke="white" stroke-width="16" />
  <path d="M1726.4 4003.2L3268.54 1332.14" stroke="white" stroke-width="16" />
  <path d="M960.607 1791.77L4030.95 3556.13" stroke="white" stroke-width="16" />
  <path
    d="M2494.74 895.406C2495.54 2284.58 2495.99 3063.43 2496.8 4452.61"
    stroke="white"
    stroke-width="16"
  />
  <path
    d="M1725.36 1339.62C2325.28 2378.72 2661.64 2961.3 3261.56 4000.4"
    stroke="white"
    stroke-width="16"
  />
  <circle
    cx="1725.36"
    cy="1339.46"
    r="47.5254"
    transform="rotate(-120 1725.36 1339.46)"
    fill="white"
    stroke="white"
    stroke-width="16"
  />
  <circle
    cx="3261.56"
    cy="4000.21"
    r="47.5254"
    transform="rotate(-120 3261.56 4000.21)"
    fill="white"
    stroke="white"
    stroke-width="16"
  />
  <circle
    cx="957.254"
    cy="2669.89"
    r="47.5254"
    transform="rotate(-180 957.254 2669.89)"
    fill="white"
    stroke="white"
    stroke-width="16"
  />
  <circle
    cx="4029.66"
    cy="2669.89"
    r="47.5254"
    transform="rotate(-180 4029.66 2669.89)"
    fill="white"
    stroke="white"
    stroke-width="16"
  />
  <circle
    cx="1725.91"
    cy="4001.99"
    r="47.5254"
    transform="rotate(120 1725.91 4001.99)"
    fill="white"
    stroke="white"
    stroke-width="16"
  />
  <circle
    cx="3262.12"
    cy="1341.24"
    r="47.5254"
    transform="rotate(120 3262.12 1341.24)"
    fill="white"
    stroke="white"
    stroke-width="16"
  />
  <circle
    cx="2494.08"
    cy="904.7"
    r="47.5254"
    transform="rotate(150 2494.08 904.7)"
    fill="white"
    stroke="white"
    stroke-width="16"
  />
  <circle
    cx="2502.11"
    cy="1777.98"
    r="47.5254"
    transform="rotate(150 2502.11 1777.98)"
    fill="white"
    stroke="white"
    stroke-width="16"
  />
  <circle
    cx="3270.22"
    cy="3108.35"
    r="47.5254"
    transform="rotate(150 3270.22 3108.35)"
    fill="white"
    stroke="white"
    stroke-width="16"
  />
  <circle
    cx="1724.72"
    cy="2226.72"
    r="47.5254"
    transform="rotate(150 1724.72 2226.72)"
    fill="white"
    stroke="white"
    stroke-width="16"
  />
  <circle
    cx="2492.82"
    cy="3557.09"
    r="47.5254"
    transform="rotate(150 2492.82 3557.09)"
    fill="white"
    stroke="white"
    stroke-width="16"
  />
  <circle
    cx="2494.08"
    cy="4439.71"
    r="47.5254"
    transform="rotate(150 2494.08 4439.71)"
    fill="white"
    stroke="white"
    stroke-width="16"
  />
  <circle
    cx="4024.84"
    cy="1788.35"
    r="47.5254"
    transform="rotate(-120 4024.84 1788.35)"
    fill="white"
    stroke="white"
    stroke-width="16"
  />
  <circle
    cx="963.33"
    cy="3555.99"
    r="47.5254"
    transform="rotate(-120 963.33 3555.99)"
    fill="white"
    stroke="white"
    stroke-width="16"
  />
  <circle
    cx="4024.83"
    cy="3555.93"
    r="47.5254"
    transform="rotate(-30 4024.83 3555.93)"
    fill="white"
    stroke="white"
    stroke-width="16"
  />
  <circle
    cx="963.33"
    cy="1788.35"
    r="47.5254"
    transform="rotate(-120 963.33 1788.35)"
    fill="white"
    stroke="white"
    stroke-width="16"
  />
  <circle
    cx="1732.17"
    cy="3120.01"
    r="47.5254"
    transform="rotate(-120 1732.17 3120.01)"
    fill="white"
    stroke="white"
    stroke-width="16"
  />
  <circle
    cx="2498.08"
    cy="2677.92"
    r="47.5254"
    transform="rotate(-120 2498.08 2677.92)"
    fill="white"
    stroke="white"
    stroke-width="16"
  />
  <circle
    cx="3264"
    cy="2235.7"
    r="47.5254"
    transform="rotate(-120 3264 2235.7)"
    fill="white"
    stroke="white"
    stroke-width="16"
  />
</svg>
