<svg width="4231" height="3200" viewBox="0 0 4231 3200" fill="none" xmlns="http://www.w3.org/2000/svg">
<mask id="path-1-inside-1_2421_199" fill="white">
<path d="M3071.1 80.0162C3346.77 80.0162 3613.51 274.852 3822.17 628.652C4031.21 983.03 4151.08 1453.72 4151.08 1920.01C4151.08 2250.89 4046.19 2553.66 3855.76 2772.44C3657.88 2999.81 3386.51 3120.01 3071.05 3120.01C2755.58 3120.01 2484.3 2999.81 2286.33 2772.44C2095.91 2553.63 1991.02 2250.89 1991.02 1920.01C1991.02 1453.69 2110.88 983.009 2319.93 628.652C2528.61 274.83 2795.37 79.9948 3071 79.9948M3071 0.00195312C2430.98 0.00195312 1911 928.001 1911 1920C1911 2626.56 2364.29 3200 3071 3200C3777.75 3200 4231 2626.56 4231 1920C4231 928.001 3711.02 0.00195312 3071 0.00195312Z"/>
</mask>
<path d="M3071.1 80.0162C3346.77 80.0162 3613.51 274.852 3822.17 628.652C4031.21 983.03 4151.08 1453.72 4151.08 1920.01C4151.08 2250.89 4046.19 2553.66 3855.76 2772.44C3657.88 2999.81 3386.51 3120.01 3071.05 3120.01C2755.58 3120.01 2484.3 2999.81 2286.33 2772.44C2095.91 2553.63 1991.02 2250.89 1991.02 1920.01C1991.02 1453.69 2110.88 983.009 2319.93 628.652C2528.61 274.83 2795.37 79.9948 3071 79.9948M3071 0.00195312C2430.98 0.00195312 1911 928.001 1911 1920C1911 2626.56 2364.29 3200 3071 3200C3777.75 3200 4231 2626.56 4231 1920C4231 928.001 3711.02 0.00195312 3071 0.00195312Z" fill="white"/>
<path d="M3822.17 628.652L3821.02 629.329L3821.02 629.329L3822.17 628.652ZM3855.76 2772.44L3854.76 2771.56L3855.76 2772.44ZM2286.33 2772.44L2285.33 2773.31H2285.33L2286.33 2772.44ZM2319.93 628.652L2321.08 629.329L2321.08 629.329L2319.93 628.652ZM3071.1 80.0162V81.3495C3346.09 81.3495 3612.48 275.719 3821.02 629.329L3822.17 628.652L3823.32 627.974C3614.55 273.984 3347.45 78.6828 3071.1 78.6828V80.0162ZM3822.17 628.652L3821.02 629.329C4029.93 983.476 4149.74 1453.93 4149.74 1920.01H4151.08H4152.41C4152.41 1453.52 4032.5 982.584 3823.32 627.974L3822.17 628.652ZM4151.08 1920.01H4149.74C4149.74 2250.62 4044.94 2553.06 3854.76 2771.56L3855.76 2772.44L3856.77 2773.31C4047.44 2554.26 4152.41 2251.17 4152.41 1920.01H4151.08ZM3855.76 2772.44L3854.76 2771.56C3657.14 2998.63 3386.15 3118.67 3071.05 3118.67V3120.01V3121.34C3386.88 3121.34 3658.62 3000.99 3856.77 2773.31L3855.76 2772.44ZM3071.05 3120.01V3118.67C2755.95 3118.67 2485.04 2998.63 2287.34 2771.56L2286.33 2772.44L2285.33 2773.31C2483.56 3000.99 2755.22 3121.34 3071.05 3121.34V3120.01ZM2286.33 2772.44L2287.34 2771.56C2097.15 2553.03 1992.35 2250.62 1992.35 1920.01H1991.02H1989.69C1989.69 2251.17 2094.66 2554.23 2285.33 2773.31L2286.33 2772.44ZM1991.02 1920.01H1992.35C1992.35 1453.89 2112.17 983.454 2321.08 629.329L2319.93 628.652L2318.78 627.974C2109.6 982.563 1989.69 1453.48 1989.69 1920.01H1991.02ZM2319.93 628.652L2321.08 629.329C2529.64 275.698 2796.05 81.3281 3071 81.3281V79.9948V78.6614C2794.69 78.6614 2527.57 273.963 2318.78 627.974L2319.93 628.652ZM3071 0.00195312V-1.33138C2750.3 -1.33138 2459.95 231.146 2249.85 587.324C2039.71 943.549 1909.67 1423.79 1909.67 1920H1911H1912.33C1912.33 1424.22 2042.28 944.454 2252.14 588.679C2462.03 232.858 2751.68 1.33529 3071 1.33529V0.00195312ZM1911 1920H1909.67C1909.67 2627.11 2363.39 3201.33 3071 3201.33V3200V3198.67C2365.2 3198.67 1912.33 2626 1912.33 1920H1911ZM3071 3200V3201.33C3778.65 3201.33 4232.33 2627.12 4232.33 1920H4231H4229.66C4229.66 2626.01 3776.84 3198.67 3071 3198.67V3200ZM4231 1920H4232.33C4232.33 1423.79 4102.28 943.549 3892.15 587.324C3682.05 231.146 3391.7 -1.33138 3071 -1.33138V0.00195312V1.33529C3390.32 1.33529 3679.97 232.858 3889.86 588.679C4099.72 944.454 4229.66 1424.22 4229.66 1920H4231Z" fill="white" mask="url(#path-1-inside-1_2421_199)"/>
<path d="M1021.96 225.007C1021.96 219.469 1026.41 215.02 1031.95 215.02H1117.11C1122.65 215.02 1127.1 219.469 1127.1 225.007V372.709C1127.1 378.185 1122.65 382.696 1117.11 382.696H1031.95C1026.41 382.696 1021.96 378.247 1021.96 372.709V225.007Z" fill="white"/>
<path d="M1021.96 225.007C1021.96 219.469 1026.41 215.02 1031.95 215.02H1117.11C1122.65 215.02 1127.1 219.469 1127.1 225.007V372.709C1127.1 378.185 1122.65 382.696 1117.11 382.696H1031.95C1026.41 382.696 1021.96 378.247 1021.96 372.709V225.007Z" stroke="white"/>
<path d="M926.859 411.952C926.859 406.414 931.309 401.964 936.847 401.964H1022C1027.54 401.964 1031.99 406.414 1031.99 411.952V559.653C1031.99 565.129 1027.54 569.64 1022 569.641H936.847C931.309 569.64 926.86 565.191 926.859 559.653V411.952Z" fill="white"/>
<path d="M926.859 411.952C926.859 406.414 931.309 401.964 936.847 401.964H1022C1027.54 401.964 1031.99 406.414 1031.99 411.952V559.653C1031.99 565.129 1027.54 569.64 1022 569.641H936.847C931.309 569.64 926.86 565.191 926.859 559.653V411.952Z" stroke="white"/>
<path d="M717.474 773.214C717.474 767.676 721.923 763.227 727.461 763.227H812.619C818.157 763.227 822.606 767.676 822.606 773.214V920.916C822.606 926.454 818.157 930.903 812.619 930.903H727.461C721.923 930.903 717.474 926.454 717.474 920.916V773.214Z" fill="white"/>
<path d="M717.474 773.214C717.474 767.676 721.923 763.227 727.461 763.227H812.619C818.157 763.227 822.606 767.676 822.606 773.214V920.916C822.606 926.454 818.157 930.903 812.619 930.903H727.461C721.923 930.903 717.474 926.454 717.474 920.916V773.214Z" stroke="white"/>
<path d="M821 591.896C821 586.357 825.449 581.908 830.987 581.908H916.146C921.684 581.908 926.133 586.357 926.133 591.896V739.598C926.133 745.136 921.684 749.585 916.146 749.585H830.987C825.449 749.585 821 745.136 821 739.598V591.896Z" fill="white"/>
<path d="M821 591.896C821 586.357 825.449 581.908 830.987 581.908H916.146C921.684 581.908 926.133 586.357 926.133 591.896V739.598C926.133 745.136 921.684 749.585 916.146 749.585H830.987C825.449 749.585 821 745.136 821 739.598V591.896Z" stroke="white"/>
<path d="M554.391 2308.45L554.397 2308.45C1018.97 2154.09 1117.32 2217.59 1131.73 2231L1120.4 2736.21L972.666 2802.39C953.655 2810.92 940.369 2828.22 937.071 2848.79L896.529 3100.94L741.73 3111.02L733.019 3089.3C732.272 3085.38 731.245 3081.8 729.907 3078.38L644.001 2859.17C641.045 2851.67 636.377 2844.8 629.719 2838.2C620.758 2824.54 607.316 2815.18 591.759 2811.75L554.391 2803.51V2308.45ZM637.445 2563.96C637.445 2665.23 719.871 2747.66 821.174 2747.66C922.477 2747.66 1004.87 2665.27 1004.87 2563.96C1004.87 2462.66 922.421 2380.23 821.174 2380.26C719.839 2380.26 637.446 2462.65 637.445 2563.96Z" fill="white"/>
<path d="M554.391 2308.45L554.397 2308.45C1018.97 2154.09 1117.32 2217.59 1131.73 2231L1120.4 2736.21L972.666 2802.39C953.655 2810.92 940.369 2828.22 937.071 2848.79L896.529 3100.94L741.73 3111.02L733.019 3089.3C732.272 3085.38 731.245 3081.8 729.907 3078.38L644.001 2859.17C641.045 2851.67 636.377 2844.8 629.719 2838.2C620.758 2824.54 607.316 2815.18 591.759 2811.75L554.391 2803.51V2308.45ZM637.445 2563.96C637.445 2665.23 719.871 2747.66 821.174 2747.66C922.477 2747.66 1004.87 2665.27 1004.87 2563.96C1004.87 2462.66 922.421 2380.23 821.174 2380.26C719.839 2380.26 637.446 2462.65 637.445 2563.96Z" stroke="white"/>
<path d="M422.193 1235.15C422.193 1233.31 422.411 1231.54 422.909 1229.8C424.408 1224.5 461.123 1099.64 625.125 1007.45C665.448 983.651 702.537 958.074 736.918 931.503L764.67 909.32C1023.23 695.133 1108.15 418.4 1118.57 316.683C1120.62 296.889 1121.65 261.141 1121.65 210.394V203.518H1074.04C1068.91 203.518 1064.71 199.317 1064.71 194.183L1064.68 46.4492C1064.68 41.3155 1068.88 37.1154 1074.01 37.1152H1118.94C1118.63 26.7849 1118.44 20.5928 1118.44 20.375C1118.04 14.8058 1120.28 9.88959 1123.98 6.0625L1123.99 6.03613C1127.69 2.20933 1132.82 0.0303868 1138.14 -0.000976562H1385.31C1396.2 -0.000943542 1405.04 8.83656 1405.04 19.7266L1405.01 3094.67C1405.01 3105 1397.04 3113.61 1386.68 3114.33L898.433 3148.31C896.753 3148.46 895.197 3147.87 893.579 3147.56C889.441 3146.75 885.458 3145.16 882.564 3141.99C878.551 3137.57 876.684 3131.5 877.617 3125.62C890.374 3043.2 913.306 2904.86 927.743 2874.59C933.096 2860.93 962.84 2809.9 1115.83 2777.17L1127.53 2271.56C1127.53 2270.53 1127.65 2269.5 1127.84 2268.48C1127.93 2267.89 1128.52 2263.96 1128.52 2257.9C1128.52 2238.8 1122.95 2202.89 1085.52 2177.38C1055.22 2156.72 1003.66 2141.56 916.013 2147.32C914.986 2147.41 913.897 2147.44 912.84 2147.54C909.604 2147.75 906.243 2148.07 902.945 2148.35C893.984 2149.09 884.711 2150.03 875.035 2151.24C873.915 2151.43 872.671 2151.61 871.52 2151.74C865.732 2152.49 859.789 2153.29 853.69 2154.23C756.832 2168.79 626.025 2204.42 449.107 2273.74C444.565 2275.51 439.555 2275.51 435.105 2273.86C433.612 2273.27 432.149 2272.56 430.812 2271.62C425.398 2267.98 422.193 2261.85 422.193 2255.35L422.193 1235.15Z" fill="white"/>
<path d="M422.193 1235.15C422.193 1233.31 422.411 1231.54 422.909 1229.8C424.408 1224.5 461.123 1099.64 625.125 1007.45C665.448 983.651 702.537 958.074 736.918 931.503L764.67 909.32C1023.23 695.133 1108.15 418.4 1118.57 316.683C1120.62 296.889 1121.65 261.141 1121.65 210.394V203.518H1074.04C1068.91 203.518 1064.71 199.317 1064.71 194.183L1064.68 46.4492C1064.68 41.3155 1068.88 37.1154 1074.01 37.1152H1118.94C1118.63 26.7849 1118.44 20.5928 1118.44 20.375C1118.04 14.8058 1120.28 9.88959 1123.98 6.0625L1123.99 6.03613C1127.69 2.20933 1132.82 0.0303868 1138.14 -0.000976562H1385.31C1396.2 -0.000943542 1405.04 8.83656 1405.04 19.7266L1405.01 3094.67C1405.01 3105 1397.04 3113.61 1386.68 3114.33L898.433 3148.31C896.753 3148.46 895.197 3147.87 893.579 3147.56C889.441 3146.75 885.458 3145.16 882.564 3141.99C878.551 3137.57 876.684 3131.5 877.617 3125.62C890.374 3043.2 913.306 2904.86 927.743 2874.59C933.096 2860.93 962.84 2809.9 1115.83 2777.17L1127.53 2271.56C1127.53 2270.53 1127.65 2269.5 1127.84 2268.48C1127.93 2267.89 1128.52 2263.96 1128.52 2257.9C1128.52 2238.8 1122.95 2202.89 1085.52 2177.38C1055.22 2156.72 1003.66 2141.56 916.013 2147.32C914.986 2147.41 913.897 2147.44 912.84 2147.54C909.604 2147.75 906.243 2148.07 902.945 2148.35C893.984 2149.09 884.711 2150.03 875.035 2151.24C873.915 2151.43 872.671 2151.61 871.52 2151.74C865.732 2152.49 859.789 2153.29 853.69 2154.23C756.832 2168.79 626.025 2204.42 449.107 2273.74C444.565 2275.51 439.555 2275.51 435.105 2273.86C433.612 2273.27 432.149 2272.56 430.812 2271.62C425.398 2267.98 422.193 2261.85 422.193 2255.35L422.193 1235.15Z" stroke="white"/>
<path d="M697.649 2563.94C697.65 2495.73 752.94 2440.44 821.144 2440.44C889.316 2440.44 944.606 2495.73 944.606 2563.94C944.606 2632.11 889.316 2687.4 821.144 2687.4C752.941 2687.4 697.649 2632.11 697.649 2563.94Z" fill="white"/>
<path d="M697.649 2563.94C697.65 2495.73 752.94 2440.44 821.144 2440.44C889.316 2440.44 944.606 2495.73 944.606 2563.94C944.606 2632.11 889.316 2687.4 821.144 2687.4C752.941 2687.4 697.649 2632.11 697.649 2563.94Z" stroke="white"/>
<path d="M0 1673.02C0 1668.57 1.83606 1664.24 5.00977 1660.97C8.43245 1657.46 13.2556 1655.44 18.2959 1655.44H218.703C227.695 1655.44 235.35 1661.72 236.781 1670.28L408.562 2709.83C409.183 2716.84 421.943 2847.21 587.128 2864.16C593.972 2864.85 599.822 2869.2 602.28 2875.46L688.187 3094.66C688.995 3096.72 689.4 3098.83 689.4 3100.92C689.4 3107.89 685.075 3114.45 678.012 3117.25L471.887 3198.69C462.614 3202.33 452.035 3198.1 448.114 3189.23L35.8125 2249.88C34.9724 2248.05 34.5063 2246.05 34.3818 2244.03L0.03125 1674.14C0.000140535 1673.73 -3.02336e-10 1673.36 0 1673.02Z" fill="white"/>
<path d="M0 1673.02C0 1668.57 1.83606 1664.24 5.00977 1660.97C8.43245 1657.46 13.2556 1655.44 18.2959 1655.44H218.703C227.695 1655.44 235.35 1661.72 236.781 1670.28L408.562 2709.83C409.183 2716.84 421.943 2847.21 587.128 2864.16C593.972 2864.85 599.822 2869.2 602.28 2875.46L688.187 3094.66C688.995 3096.72 689.4 3098.83 689.4 3100.92C689.4 3107.89 685.075 3114.45 678.012 3117.25L471.887 3198.69C462.614 3202.33 452.035 3198.1 448.114 3189.23L35.8125 2249.88C34.9724 2248.05 34.5063 2246.05 34.3818 2244.03L0.03125 1674.14C0.000140535 1673.73 -3.02336e-10 1673.36 0 1673.02Z" stroke="white"/>
</svg>
