<svg width="698" height="615" viewBox="0 0 698 615" fill="none" xmlns="http://www.w3.org/2000/svg">
<path d="M250.441 478.042C251.689 478.76 252.109 480.348 251.391 481.588L236.534 507.307C236.056 508.141 235.178 508.605 234.286 508.605C233.844 508.605 233.394 508.496 232.988 508.257C231.741 507.539 231.321 505.951 232.038 504.711L246.896 478.992C247.614 477.745 249.216 477.317 250.441 478.042ZM273.666 443.006L288.524 417.286C289.241 416.046 288.821 414.459 287.574 413.741C286.356 413.008 284.739 413.443 284.028 414.691L269.171 440.41C268.453 441.65 268.873 443.238 270.121 443.955C270.527 444.195 270.976 444.304 271.419 444.304C272.31 444.304 273.188 443.839 273.666 443.006ZM257.692 47.1458H288.125C289.56 47.1458 290.721 45.9857 290.721 44.55C290.721 43.1143 289.56 41.9541 288.125 41.9541H257.692C256.257 41.9541 255.097 43.1143 255.097 44.55C255.097 45.9857 256.257 47.1458 257.692 47.1458ZM409.832 47.1458H440.258C441.693 47.1458 442.853 45.9857 442.853 44.55C442.853 43.1143 441.693 41.9541 440.258 41.9541H409.832C408.397 41.9541 407.237 43.1143 407.237 44.55C407.237 45.9857 408.397 47.1458 409.832 47.1458ZM333.762 47.1458H364.188C365.623 47.1458 366.783 45.9857 366.783 44.55C366.783 43.1143 365.623 41.9541 364.188 41.9541H333.762C332.327 41.9541 331.167 43.1143 331.167 44.55C331.167 45.9857 332.327 47.1458 333.762 47.1458ZM151.748 125.884C152.648 125.884 153.518 125.42 153.996 124.586L169.209 98.2362C169.927 96.9963 169.506 95.4083 168.259 94.6905C167.033 93.9726 165.431 94.3932 164.713 95.6404L149.501 121.99C148.783 123.23 149.203 124.818 150.451 125.536C150.857 125.775 151.306 125.884 151.748 125.884ZM113.71 191.759C114.609 191.759 115.479 191.295 115.958 190.461L131.17 164.111C131.888 162.871 131.467 161.283 130.22 160.566C128.988 159.833 127.385 160.268 126.675 161.515L111.462 187.866C110.744 189.105 111.165 190.693 112.412 191.411C112.818 191.651 113.268 191.759 113.71 191.759ZM88.6432 227.391L73.4306 253.741C72.7128 254.981 73.1333 256.569 74.3805 257.286C74.7866 257.526 75.2361 257.634 75.6784 257.634C76.5776 257.634 77.4477 257.17 77.9262 256.336L93.1388 229.986C93.8566 228.747 93.4361 227.159 92.1889 226.441C90.9635 225.716 89.361 226.151 88.6432 227.391ZM115.958 424.392C115.24 423.145 113.637 422.71 112.412 423.442C111.165 424.16 110.744 425.748 111.462 426.988L126.675 453.338C127.153 454.172 128.023 454.636 128.922 454.636C129.365 454.636 129.814 454.527 130.22 454.288C131.467 453.57 131.888 451.982 131.17 450.742L115.958 424.392ZM77.9262 358.517C77.2156 357.27 75.6132 356.85 74.3805 357.567C73.1333 358.285 72.7128 359.873 73.4306 361.113L88.6432 387.463C89.1217 388.297 89.9919 388.761 90.891 388.761C91.3333 388.761 91.7829 388.652 92.1889 388.413C93.4361 387.695 93.8566 386.107 93.1388 384.867L77.9262 358.517ZM166.961 520.519C167.403 520.519 167.853 520.41 168.259 520.171C169.506 519.453 169.927 517.865 169.209 516.625L153.989 490.275C153.271 489.028 151.683 488.593 150.443 489.325C149.196 490.043 148.776 491.631 149.493 492.871L164.713 519.221C165.192 520.054 166.062 520.519 166.961 520.519ZM288.118 567.708H257.692C256.257 567.708 255.097 568.868 255.097 570.304C255.097 571.739 256.257 572.9 257.692 572.9H288.118C289.553 572.9 290.713 571.739 290.713 570.304C290.713 568.868 289.553 567.708 288.118 567.708ZM364.188 567.708H333.762C332.327 567.708 331.167 568.868 331.167 570.304C331.167 571.739 332.327 572.9 333.762 572.9H364.188C365.623 572.9 366.783 571.739 366.783 570.304C366.783 568.868 365.623 567.708 364.188 567.708ZM440.258 567.708H409.825C408.389 567.708 407.229 568.868 407.229 570.304C407.229 571.739 408.389 572.9 409.825 572.9H440.258C441.693 572.9 442.853 571.739 442.853 570.304C442.853 568.868 441.693 567.708 440.258 567.708ZM620.024 358.517L604.811 384.867C604.093 386.107 604.514 387.695 605.761 388.413C606.167 388.652 606.617 388.761 607.059 388.761C607.958 388.761 608.828 388.297 609.307 387.463L624.519 361.113C625.237 359.873 624.817 358.285 623.569 357.567C622.351 356.85 620.742 357.27 620.024 358.517ZM543.954 490.267L528.741 516.618C528.023 517.857 528.444 519.445 529.691 520.163C530.097 520.403 530.547 520.511 530.989 520.511C531.888 520.511 532.758 520.047 533.237 519.213L548.449 492.863C549.167 491.623 548.747 490.035 547.499 489.318C546.26 488.593 544.672 489.028 543.954 490.267ZM581.992 424.392L566.78 450.742C566.062 451.982 566.483 453.57 567.73 454.288C568.136 454.527 568.585 454.636 569.028 454.636C569.927 454.636 570.797 454.172 571.275 453.338L586.488 426.988C587.206 425.748 586.785 424.16 585.538 423.442C584.305 422.71 582.703 423.145 581.992 424.392ZM620.024 256.336C620.502 257.17 621.372 257.634 622.272 257.634C622.714 257.634 623.163 257.526 623.569 257.286C624.817 256.569 625.237 254.981 624.519 253.741L609.307 227.391C608.589 226.151 607.001 225.716 605.761 226.441C604.514 227.159 604.093 228.747 604.811 229.986L620.024 256.336ZM571.275 161.515C570.565 160.268 568.955 159.833 567.73 160.566C566.483 161.283 566.062 162.871 566.78 164.111L581.992 190.461C582.471 191.295 583.341 191.759 584.24 191.759C584.682 191.759 585.132 191.651 585.538 191.411C586.785 190.693 587.206 189.105 586.488 187.866L571.275 161.515ZM529.691 94.6832C528.444 95.4011 528.023 96.9891 528.741 98.229L543.961 124.579C544.44 125.413 545.31 125.877 546.209 125.877C546.651 125.877 547.101 125.768 547.507 125.529C548.754 124.811 549.174 123.223 548.457 121.983L533.237 95.6331C532.519 94.386 530.931 93.9509 529.691 94.6832ZM236.534 107.546C235.816 106.307 234.214 105.864 232.988 106.597C231.741 107.314 231.321 108.902 232.038 110.142L246.896 135.862C247.374 136.695 248.244 137.159 249.144 137.159C249.586 137.159 250.035 137.051 250.441 136.811C251.689 136.094 252.109 134.506 251.391 133.266L236.534 107.546ZM270.121 170.898C268.873 171.616 268.453 173.204 269.171 174.444L284.028 200.163C284.507 200.997 285.377 201.461 286.276 201.461C286.718 201.461 287.168 201.352 287.574 201.113C288.821 200.395 289.241 198.807 288.524 197.567L273.666 171.848C272.956 170.608 271.353 170.166 270.121 170.898ZM475.2 304.831C473.764 304.831 472.604 305.991 472.604 307.427C472.604 308.863 473.764 310.023 475.2 310.023H504.9C506.336 310.023 507.496 308.863 507.496 307.427C507.496 305.991 506.336 304.831 504.9 304.831H475.2ZM581.746 307.427C581.746 305.991 580.586 304.831 579.15 304.831H549.45C548.014 304.831 546.854 305.991 546.854 307.427C546.854 308.863 548.014 310.023 549.45 310.023H579.15C580.586 310.023 581.746 308.863 581.746 307.427ZM151.487 307.427C151.487 305.991 150.327 304.831 148.892 304.831H119.192C117.756 304.831 116.596 305.991 116.596 307.427C116.596 308.863 117.756 310.023 119.192 310.023H148.892C150.327 310.023 151.487 308.863 151.487 307.427ZM193.442 304.831C192.006 304.831 190.846 305.991 190.846 307.427C190.846 308.863 192.006 310.023 193.442 310.023H223.142C224.577 310.023 225.737 308.863 225.737 307.427C225.737 305.991 224.577 304.831 223.142 304.831H193.442ZM463.403 508.569C463.845 508.569 464.295 508.46 464.701 508.228C465.94 507.51 466.368 505.922 465.658 504.675L450.829 478.941C450.097 477.702 448.509 477.288 447.276 477.984C446.037 478.702 445.609 480.29 446.319 481.537L461.148 507.271C461.633 508.105 462.504 508.569 463.403 508.569ZM426.328 444.238C426.771 444.238 427.22 444.13 427.626 443.89C428.866 443.18 429.294 441.584 428.576 440.345L413.748 414.611C413.023 413.364 411.435 412.943 410.195 413.654C408.955 414.372 408.527 415.967 409.245 417.207L424.081 442.94C424.559 443.774 425.429 444.238 426.328 444.238ZM424.117 171.942L409.296 197.676C408.585 198.923 409.013 200.511 410.253 201.229C410.659 201.461 411.109 201.57 411.551 201.57C412.45 201.57 413.32 201.106 413.806 200.272L428.627 174.538C429.338 173.291 428.91 171.703 427.67 170.985C426.408 170.275 424.849 170.695 424.117 171.942ZM448.603 137.232C449.503 137.232 450.373 136.768 450.858 135.934L465.679 110.193C466.39 108.946 465.962 107.358 464.722 106.64C463.468 105.937 461.887 106.35 461.169 107.597L446.348 133.338C445.638 134.585 446.066 136.173 447.305 136.891C447.719 137.123 448.161 137.232 448.603 137.232ZM442.969 307.427C442.969 359.257 400.805 401.421 348.975 401.421C297.145 401.421 254.981 359.257 254.981 307.427C254.981 255.597 297.145 213.432 348.975 213.432C400.805 213.432 442.969 255.597 442.969 307.427ZM413.269 307.427C413.269 271.977 384.425 243.132 348.975 243.132C313.525 243.132 284.681 271.977 284.681 307.427C284.681 342.877 313.525 371.721 348.975 371.721C384.425 371.721 413.269 342.877 413.269 307.427ZM697.95 307.427C697.95 331.993 677.966 351.977 653.4 351.977C628.834 351.977 608.85 331.993 608.85 307.427C608.85 282.861 628.834 262.877 653.4 262.877C677.966 262.877 697.95 282.861 697.95 307.427ZM668.25 307.427C668.25 299.241 661.586 292.577 653.4 292.577C645.214 292.577 638.55 299.241 638.55 307.427C638.55 315.613 645.214 322.277 653.4 322.277C661.586 322.277 668.25 315.613 668.25 307.427ZM44.55 351.977C19.9837 351.977 0 331.993 0 307.427C0 282.861 19.9837 262.877 44.55 262.877C69.1163 262.877 89.1 282.861 89.1 307.427C89.1 331.993 69.1163 351.977 44.55 351.977ZM59.4 307.427C59.4 299.241 52.7364 292.577 44.55 292.577C36.3636 292.577 29.7 299.241 29.7 307.427C29.7 315.613 36.3636 322.277 44.55 322.277C52.7364 322.277 59.4 315.613 59.4 307.427ZM152.604 44.55C152.604 19.9837 172.588 0 197.154 0C221.72 0 241.704 19.9837 241.704 44.55C241.704 69.1163 221.72 89.1 197.154 89.1C172.588 89.1 152.604 69.1163 152.604 44.55ZM182.304 44.55C182.304 52.7363 188.968 59.4 197.154 59.4C205.34 59.4 212.004 52.7363 212.004 44.55C212.004 36.3636 205.34 29.7 197.154 29.7C188.968 29.7 182.304 36.3636 182.304 44.55ZM455.927 44.55C455.927 19.9837 475.911 0 500.477 0C525.043 0 545.027 19.9837 545.027 44.55C545.027 69.1163 525.043 89.1 500.477 89.1C475.911 89.1 455.927 69.1163 455.927 44.55ZM485.627 44.55C485.627 52.7363 492.291 59.4 500.477 59.4C508.663 59.4 515.327 52.7363 515.327 44.55C515.327 36.3636 508.663 29.7 500.477 29.7C492.291 29.7 485.627 36.3636 485.627 44.55ZM241.704 570.304C241.704 594.87 221.72 614.854 197.154 614.854C172.588 614.854 152.604 594.87 152.604 570.304C152.604 545.737 172.588 525.754 197.154 525.754C221.72 525.754 241.704 545.737 241.704 570.304ZM212.004 570.304C212.004 562.117 205.34 555.454 197.154 555.454C188.968 555.454 182.304 562.117 182.304 570.304C182.304 578.49 188.968 585.154 197.154 585.154C205.34 585.154 212.004 578.49 212.004 570.304ZM545.027 570.304C545.027 594.87 525.043 614.854 500.477 614.854C475.911 614.854 455.927 594.87 455.927 570.304C455.927 545.737 475.911 525.754 500.477 525.754C525.043 525.754 545.027 545.737 545.027 570.304ZM515.327 570.304C515.327 562.117 508.663 555.454 500.477 555.454C492.291 555.454 485.627 562.117 485.627 570.304C485.627 578.49 492.291 585.154 500.477 585.154C508.663 585.154 515.327 578.49 515.327 570.304Z" fill="white"/>
</svg>
