<svg width="600" height="600" viewBox="0 0 600 600" fill="none" xmlns="http://www.w3.org/2000/svg">
<path d="M598.827 35.5533L600 34.38L583.4 17.78L600 1.17333L598.827 0L582.227 16.6L565.627 0L564.447 1.17333L581.047 17.7733L549.02 49.8L516.987 17.7733L533.587 1.17333L532.42 0L515.82 16.6L499.22 0L498.047 1.17333L514.647 17.7733L466.013 66.4L450.587 50.9733L449.413 49.8L448.24 50.9733L432.813 66.4L384.18 17.7733L400.78 1.17333L399.607 0L383.007 16.6L366.407 0L365.233 1.17333L381.833 17.7733L349.8 49.8L317.767 17.7733L334.367 1.17333L333.2 0L316.6 16.6L301.173 1.17333L300 0L298.827 1.17333L283.4 16.6L266.8 0L265.627 1.17333L282.227 17.7733L250.2 49.8L218.173 17.7733L234.773 1.17333L233.593 0L216.993 16.6L200.393 0L199.22 1.17333L215.82 17.7733L167.187 66.4L151.76 50.9733L150.587 49.8L149.413 50.9733L133.987 66.4L85.36 17.7733L101.96 1.17333L100.78 0L84.18 16.6L67.58 0L66.4067 1.17333L83.0067 17.7733L50.9733 49.8L18.9467 17.78L35.5467 1.18L34.38 0L17.78 16.6L1.17333 0L0 1.17333L16.6 17.7733L0 34.38L1.17333 35.5533L17.7733 18.9533L49.8 50.98L17.7733 83.0133L1.17333 66.4133L0 67.58L16.6 84.18L0 100.78L1.17333 101.953L17.7733 85.3533L66.4 133.98L50.9733 149.407L49.8 150.58L50.9733 151.753L66.4 167.18L17.7733 215.813L1.17333 199.213L0 200.393L16.6 216.993L0 233.593L1.17333 234.767L17.7733 218.167L49.8 250.193L17.7733 282.22L1.17333 265.62L0 266.8L16.6 283.4L1.17333 298.827L0 300L1.17333 301.173L16.6 316.6L0 333.2L1.17333 334.373L17.7733 317.773L49.8 349.807L17.7733 381.84L1.17333 365.24L0 366.407L16.6 383.007L0 399.607L1.17333 400.78L17.7733 384.18L66.4 432.813L50.9733 448.24L49.8 449.413L50.9733 450.587L66.4 466.013L17.7733 514.647L1.17333 498.047L0 499.22L16.6 515.82L0 532.42L1.17333 533.593L17.7733 516.993L49.8 549.027L17.7733 581.053L1.17333 564.453L0 565.627L16.6 582.227L0 598.827L1.17333 600L17.7733 583.4L34.3733 600L35.5467 598.827L18.9467 582.227L50.9733 550.193L83.0067 582.227L66.4067 598.827L67.58 600L84.18 583.4L100.78 600L101.953 598.827L85.3533 582.227L133.98 533.593L149.407 549.02L150.58 550.193L151.753 549.02L167.18 533.593L215.813 582.227L199.213 598.827L200.393 600L216.993 583.4L233.593 600L234.767 598.827L218.167 582.227L250.193 550.193L282.22 582.227L265.62 598.827L266.8 600L283.4 583.4L298.827 598.827L300 600L301.173 598.827L316.6 583.4L333.2 600L334.373 598.827L317.773 582.227L349.807 550.193L381.84 582.227L365.24 598.827L366.407 600L383.007 583.4L399.607 600L400.78 598.827L384.18 582.227L432.813 533.593L448.24 549.02L449.413 550.193L450.587 549.02L466.013 533.593L514.647 582.227L498.047 598.827L499.22 600L515.82 583.4L532.42 600L533.593 598.827L516.993 582.227L549.027 550.193L581.053 582.227L564.453 598.827L565.627 600L582.227 583.4L598.827 600L600 598.827L583.4 582.227L600 565.627L598.827 564.447L582.227 581.047L550.193 549.02L582.227 516.987L598.827 533.587L600 532.42L583.4 515.82L600 499.22L598.827 498.047L582.227 514.647L533.593 466.013L549.02 450.587L550.193 449.413L549.02 448.24L533.593 432.813L582.227 384.18L598.827 400.78L600 399.607L583.4 383.007L600 366.407L598.827 365.233L582.227 381.833L550.193 349.8L582.227 317.767L598.827 334.367L600 333.2L583.4 316.6L598.827 301.173L600 300L598.827 298.827L583.4 283.4L600 266.8L598.827 265.627L582.227 282.227L550.193 250.2L582.227 218.173L598.827 234.773L600 233.593L583.4 216.993L600 200.393L598.827 199.22L582.227 215.82L533.593 167.187L549.02 151.76L550.193 150.587L549.02 149.413L533.593 133.987L582.227 85.36L598.827 101.96L600 100.78L583.4 84.18L600 67.58L598.827 66.4067L582.227 83.0067L550.193 50.9733L582.227 18.9467L598.827 35.5533ZM515.82 18.9467L547.847 50.9733L499.22 99.6067L467.187 67.5733L515.82 18.9467ZM433.987 67.58L449.413 52.1533L464.84 67.58L466.013 68.7533L498.047 100.78L449.413 149.413L400.78 100.78L432.813 68.7533L433.987 67.58ZM301.173 499.22L300 498.047L298.827 499.22L283.4 514.647L234.773 466.013L250.2 450.587L251.373 449.413L250.2 448.24L234.773 432.813L283.4 384.18L298.827 399.607L300 400.78L301.173 399.607L316.6 384.18L365.233 432.813L349.807 448.24L348.633 449.413L349.807 450.587L365.233 466.013L316.6 514.647L301.173 499.22ZM315.427 515.82L300 531.253L284.573 515.827L300 500.393L315.427 515.82ZM298.827 100.78L300 101.953L301.173 100.78L316.6 85.3533L365.233 133.98L349.807 149.407L348.633 150.58L349.807 151.753L365.233 167.18L316.6 215.813L301.173 200.387L300 199.22L298.827 200.393L283.4 215.82L234.773 167.187L250.2 151.76L251.373 150.587L250.2 149.413L234.773 133.987L283.4 85.36L298.827 100.78ZM284.573 84.18L300 68.7533L315.427 84.18L300 99.6067L284.573 84.18ZM499.22 298.827L498.047 300L499.22 301.173L514.647 316.6L466.013 365.233L450.587 349.807L449.413 348.633L448.24 349.807L432.813 365.233L384.18 316.6L399.607 301.173L400.78 300L399.607 298.827L384.18 283.4L432.813 234.773L448.24 250.2L449.413 251.373L450.587 250.2L466.013 234.773L514.647 283.4L499.22 298.827ZM301.173 366.407L300 365.233L298.827 366.407L283.4 381.833L251.373 349.8L283.4 317.767L298.827 333.193L300 334.373L301.173 333.2L316.6 317.773L348.633 349.807L316.6 381.84L301.173 366.407ZM315.427 383.007L300 398.44L284.573 383.013L300 367.58L315.427 383.007ZM100.78 298.827L85.3533 283.4L133.98 234.773L149.407 250.2L150.58 251.373L151.753 250.2L167.18 234.773L215.813 283.4L200.387 298.827L199.22 300L200.393 301.173L215.82 316.6L167.187 365.233L151.76 349.807L150.587 348.633L149.413 349.807L133.987 365.233L85.36 316.6L100.787 301.173L101.953 300L100.78 298.827ZM298.827 233.593L300 234.767L301.173 233.593L316.6 218.167L348.633 250.193L316.6 282.22L301.173 266.793L300 265.62L298.827 266.793L283.4 282.22L251.373 250.193L283.4 218.167L298.827 233.593ZM284.573 216.993L300 201.567L315.427 216.993L300 232.42L284.573 216.993ZM366.407 298.827L365.233 300L366.407 301.173L381.833 316.6L349.8 348.633L317.767 316.6L333.193 301.173L334.373 300L333.2 298.827L317.773 283.4L349.807 251.373L381.84 283.4L366.407 298.827ZM383.007 284.573L398.44 300L383.013 315.427L367.58 300L383.007 284.573ZM233.593 301.173L234.767 300L233.593 298.827L218.167 283.4L250.193 251.373L282.22 283.4L266.793 298.827L265.62 300L266.793 301.173L282.22 316.6L250.193 348.633L218.167 316.6L233.593 301.173ZM216.993 315.427L201.567 300L216.993 284.573L232.42 300L216.993 315.427ZM267.973 300L283.4 284.573L298.827 300L283.4 315.427L267.973 300ZM300 298.827L284.573 283.4L300 267.973L315.427 283.4L300 298.827ZM300 301.173L315.427 316.6L300 332.033L284.573 316.607L300 301.173ZM301.173 300L316.6 284.573L332.033 300L316.607 315.427L301.173 300ZM317.773 216.993L366.407 168.367L398.44 200.393L349.807 249.027L317.773 216.993ZM250.193 249.027L201.567 200.393L233.593 168.367L282.22 216.993L250.193 249.027ZM249.027 250.193L216.993 282.22L168.367 233.593L200.393 201.567L249.027 250.193ZM216.993 317.773L249.027 349.807L200.393 398.44L168.367 366.407L216.993 317.773ZM250.193 350.973L282.22 383.007L233.593 431.64L201.567 399.607L250.193 350.973ZM349.807 350.973L398.44 399.607L366.407 431.64L317.773 383.007L349.807 350.973ZM350.973 349.807L383.007 317.773L431.64 366.407L399.607 398.44L350.973 349.807ZM383.007 282.22L350.973 250.193L399.607 201.567L431.64 233.593L383.007 282.22ZM367.58 167.187L366.407 166.013L350.98 150.587L366.407 135.16L367.58 133.987L399.613 101.96L448.247 150.587L399.613 199.22L367.58 167.187ZM249.027 150.587L233.6 166.013L232.427 167.187L200.393 199.22L151.767 150.587L200.393 101.96L232.427 133.987L233.6 135.16L249.027 150.587ZM199.22 200.393L167.187 232.427L166.013 233.6L150.587 249.027L135.16 233.6L133.987 232.427L101.96 200.393L150.587 151.767L199.22 200.393ZM132.813 233.593L84.18 282.22L52.1533 250.193L100.78 201.567L132.813 233.593ZM99.6067 300L84.18 315.427L68.7533 300L84.18 284.573L99.6067 300ZM132.813 366.407L100.78 398.44L52.1533 349.807L84.18 317.773L132.813 366.407ZM133.987 367.58L135.16 366.407L150.587 350.98L166.013 366.407L167.187 367.58L199.22 399.613L150.587 448.247L101.96 399.613L133.987 367.58ZM200.393 400.78L232.427 432.813L233.6 433.987L249.027 449.413L233.6 464.84L232.427 466.013L200.393 498.047L151.767 449.413L200.393 400.78ZM350.973 449.413L366.4 433.987L367.573 432.813L399.607 400.78L448.24 449.413L399.607 498.047L367.573 466.013L366.4 464.84L350.973 449.413ZM400.78 399.607L432.813 367.573L433.987 366.4L449.413 350.973L464.84 366.4L466.013 367.573L498.047 399.607L449.413 448.24L400.78 399.607ZM467.187 366.407L515.82 317.773L547.847 349.807L499.22 398.44L467.187 366.407ZM500.393 300L515.82 284.573L531.253 300L515.827 315.427L500.393 300ZM467.187 233.593L499.22 201.567L547.847 250.193L515.82 282.22L467.187 233.593ZM466.013 232.42L464.84 233.593L449.413 249.02L433.987 233.593L432.813 232.42L400.78 200.387L449.413 151.76L498.047 200.387L466.013 232.42ZM383.007 18.9467L431.64 67.5733L399.607 99.6067L350.973 50.9733L383.007 18.9467ZM398.44 100.78L366.407 132.813L317.773 84.18L349.807 52.1533L398.44 100.78ZM300 2.35333L315.427 17.78L300 33.2L284.573 17.7733L300 2.35333ZM283.4 18.9467L298.827 34.3733L300 35.5533L301.173 34.38L316.6 18.9533L348.633 50.98L316.6 83.0133L301.173 67.5867L300 66.4067L298.827 67.58L283.4 83.0067L251.373 50.9733L283.4 18.9467ZM282.22 84.18L233.593 132.813L201.567 100.78L250.193 52.1533L282.22 84.18ZM216.993 18.9467L249.027 50.9733L200.393 99.6067L168.367 67.5733L216.993 18.9467ZM135.16 67.58L150.587 52.1533L166.013 67.58L167.187 68.7533L199.22 100.78L150.587 149.413L101.96 100.78L133.987 68.7533L135.16 67.58ZM84.18 18.9467L132.813 67.5733L100.78 99.6067L52.1533 50.9733L84.18 18.9467ZM18.9467 84.18L50.9733 52.1533L99.6067 100.78L67.5733 132.813L18.9467 84.18ZM52.1533 150.587L67.58 135.16L68.7533 133.987L100.78 101.96L149.413 150.587L100.78 199.22L68.7533 167.187L67.58 166.013L52.1533 150.587ZM18.9467 216.993L67.5733 168.367L99.6067 200.393L50.9733 249.027L18.9467 216.993ZM2.35333 300L17.78 284.573L33.2 300L17.7733 315.427L2.35333 300ZM18.9467 316.6L34.3733 301.173L35.5533 300L34.38 298.827L18.9467 283.4L50.9733 251.373L83.0067 283.4L67.58 298.827L66.4067 300L67.58 301.173L83.0067 316.6L50.9733 348.633L18.9467 316.6ZM18.9467 383.007L50.9733 350.973L99.6067 399.607L67.5733 431.64L18.9467 383.007ZM52.1533 449.413L67.58 433.987L68.7533 432.813L100.78 400.78L149.413 449.413L100.78 498.047L68.7533 466.013L67.58 464.84L52.1533 449.413ZM18.9467 515.82L67.5733 467.187L99.6067 499.22L50.9733 547.847L18.9467 515.82ZM84.18 581.047L52.1533 549.02L100.78 500.387L132.813 532.42L84.18 581.047ZM166.013 532.42L150.587 547.84L135.16 532.42L133.987 531.24L101.96 499.213L150.587 450.58L199.22 499.213L167.187 531.24L166.013 532.42ZM216.993 581.047L168.367 532.42L200.393 500.387L249.027 549.02L216.993 581.047ZM201.567 499.22L233.593 467.187L282.22 515.82L250.193 547.847L201.567 499.22ZM300 597.653L284.573 582.227L300 566.8L315.427 582.227L300 597.653ZM316.6 581.047L300 564.447L283.4 581.047L251.373 549.02L283.4 516.987L298.827 532.413L300 533.593L301.173 532.42L316.6 516.993L348.633 549.027L316.6 581.047ZM317.773 515.82L366.407 467.187L398.44 499.22L349.807 547.847L317.773 515.82ZM383.007 581.047L350.973 549.02L399.607 500.387L431.64 532.42L383.007 581.047ZM464.847 532.42L449.42 547.84L433.993 532.42L432.82 531.24L400.787 499.213L449.42 450.58L498.053 499.213L466.02 531.24L464.847 532.42ZM515.82 581.047L467.187 532.42L499.22 500.387L547.847 549.02L515.82 581.047ZM581.047 515.82L549.02 547.847L500.387 499.22L532.42 467.187L581.047 515.82ZM547.847 449.413L532.427 464.84L531.247 466.013L499.22 498.047L450.587 449.413L499.22 400.78L531.247 432.813L532.427 433.987L547.847 449.413ZM581.047 383.007L532.42 431.64L500.387 399.607L549.02 350.973L581.047 383.007ZM597.653 300L582.227 315.427L566.8 300L582.227 284.573L597.653 300ZM581.047 283.4L564.447 300L581.047 316.6L549.02 348.633L516.987 316.6L532.413 301.173L533.593 300L532.42 298.827L516.993 283.4L549.027 251.373L581.047 283.4ZM581.047 216.993L549.02 249.027L500.387 200.393L532.42 168.367L581.047 216.993ZM547.847 150.587L532.427 166.013L531.247 167.187L499.22 199.22L450.587 150.587L499.22 101.96L531.247 133.987L532.427 135.16L547.847 150.587ZM581.047 84.18L532.42 132.813L500.387 100.78L549.02 52.1533L581.047 84.18Z" fill="white"/>
</svg>
