<svg width="627" height="611" viewBox="0 0 627 611" fill="none" xmlns="http://www.w3.org/2000/svg">
<path d="M229.969 23.9201C203.745 72.3342 204.225 71.2775 207.107 71.2775C208.548 71.2775 212.967 72.142 217.001 73.1987C231.987 77.0411 243.514 84.0534 257.73 97.6939C263.302 102.977 268.105 107.108 268.297 106.82C268.393 106.627 270.314 101.44 272.235 95.3885C274.253 89.3367 277.807 80.8835 280.208 76.5608C284.627 68.78 295.29 56.7725 304.031 50.2405L308.642 46.6862L298.652 39.5778C293.176 35.6394 279.056 25.4571 267.24 17.0038C255.425 8.45453 245.243 1.154 244.378 0.673699C243.514 0.0973411 238.519 8.07029 229.969 23.9201Z" fill="white"/>
<path d="M364.258 13.0686C354.171 20.4652 339.378 30.9357 331.597 36.5072L317.477 46.7855L322.087 50.3398C330.733 56.8718 341.491 68.8793 345.91 76.6601C348.312 80.9828 351.866 89.436 353.883 95.4878C355.804 101.54 357.726 106.631 357.822 106.919C358.014 107.111 362.817 102.98 368.388 97.7932C382.509 84.0567 394.132 77.0443 409.117 73.298C413.152 72.2413 417.571 71.3768 419.012 71.3768C421.413 71.3768 421.125 70.7044 415.457 59.7536C405.371 40.9259 383.085 0.00452128 382.797 0.00452128C382.701 -0.187598 374.344 5.7681 364.258 13.0686Z" fill="white"/>
<path d="M302.779 58.0225C289.33 69.0693 281.357 81.9413 275.402 102.114C273.096 109.51 272.424 113.641 273.288 114.698C283.567 129.587 287.601 136.407 294.614 150.432C299.224 159.557 305.084 172.814 307.582 179.826C310.175 186.934 312.577 192.698 313.057 192.698C313.537 192.698 315.459 188.567 317.188 183.38C325.257 160.614 338.225 134.774 348.887 120.365C351.481 116.907 353.498 113.449 353.498 112.584C353.498 109.414 347.062 90.3946 343.7 83.7665C341.683 79.828 338.033 73.7763 335.439 70.3181C330.54 63.7861 315.555 50.9141 312.865 50.9141C312 51.0101 307.486 54.2761 302.779 58.0225Z" fill="white"/>
<path d="M117.386 61.8665C117.193 62.8271 116.329 78.2927 115.56 96.2558C114.696 114.219 113.927 131.51 113.543 134.584C113.159 137.946 113.447 140.251 114.12 140.251C114.696 140.251 118.923 139.387 123.437 138.33C139.864 134.488 159.844 136.793 180.689 144.766L187.029 147.263L186.356 143.421C182.034 118.638 183.763 102.115 192.216 83.5759C195.098 77.5242 195.866 74.5464 195.002 74.1621C193.657 73.6818 185.588 72.2409 165.607 68.7828C162.053 68.1104 157.731 67.3419 156.098 66.9576C154.465 66.5734 146.972 65.3246 139.479 64.0759C131.987 62.731 124.014 61.2901 121.996 60.9059C118.923 60.4256 117.674 60.7138 117.386 61.8665Z" fill="white"/>
<path d="M503.449 61.003C503.257 61.3872 496.341 62.636 488.08 63.9809C479.818 65.4217 471.845 66.7666 470.212 67.0548C468.579 67.439 464.257 68.1114 460.703 68.8799C440.722 72.338 432.653 73.7789 431.308 74.2592C430.348 74.6435 431.116 77.4292 433.902 83.3849C442.451 102.117 444.18 118.831 439.858 143.518L439.185 147.361L445.525 144.863C466.37 136.89 486.35 134.585 502.777 138.427C507.291 139.484 511.422 140.348 512.094 140.348C512.767 140.348 512.959 137.563 512.575 134.008C512.383 130.646 511.518 113.932 510.75 96.8332C510.077 79.8307 509.213 64.6533 508.828 63.1163C508.252 60.907 504.986 59.4661 503.449 61.003Z" fill="white"/>
<path d="M198.266 82.8071C192.214 95.1988 190.293 102.307 189.62 115.083C189.044 126.226 190.773 146.879 192.694 149.472C193.079 149.953 197.785 153.027 203.261 156.101C221.512 166.571 236.209 178.002 254.076 195.293C259.36 200.288 263.682 204.226 263.971 203.938C264.163 203.746 263.778 196.061 262.914 187.032C260.993 164.458 262.434 131.701 265.988 117.389C266.66 114.411 265.796 112.97 255.133 102.499C241.397 88.9549 230.158 82.0386 216.133 78.2923C202.3 74.9302 202.204 74.9302 198.266 82.8071Z" fill="white"/>
<path d="M409.503 78.4857C395.767 82.0399 384.528 89.0523 370.888 102.501C361.282 112.107 359.36 114.508 359.937 116.813C363.299 129.109 364.74 168.109 362.722 193.277L361.762 205.188L371.656 195.582C389.427 178.292 404.508 166.764 422.856 156.198C428.331 153.124 433.134 150.05 433.422 149.57C435.343 146.976 437.073 126.323 436.496 115.18C435.824 102.405 433.903 95.2961 427.851 82.9044C423.912 74.9315 423.528 74.8354 409.503 78.4857Z" fill="white"/>
<path d="M130.357 142.175C129.012 142.367 124.69 143.616 120.559 144.577L113.066 146.498V157.353C113.066 163.308 113.931 171.666 114.988 175.892C117.389 185.882 124.497 200.772 131.318 210.089L136.697 217.39L146.111 218.254C170.51 220.368 191.739 224.883 214.217 232.567C226.129 236.602 226.321 236.602 224.592 233.912C211.816 214.508 199.232 188.668 192.796 168.784L187.897 153.702L179.348 150.148C174.737 148.227 167.724 145.729 163.786 144.673C156.677 142.559 134.968 141.119 130.357 142.175Z" fill="white"/>
<path d="M472.618 142.173C464.068 143.998 454.366 146.784 446.874 149.954L438.325 153.508L433.425 168.59C426.989 188.474 414.406 214.314 401.63 233.718C399.805 236.504 400.093 236.504 412.004 232.373C434.482 224.784 455.711 220.27 480.11 218.06L489.524 217.196L494.904 209.895C501.724 200.577 508.832 185.688 511.234 175.698C512.29 171.375 513.155 163.114 513.155 157.159V146.4L505.758 144.287C498.458 142.461 478.573 141.117 472.618 142.173Z" fill="white"/>
<path d="M74.3486 157.064C56.0012 162.252 38.8066 167.055 36.0208 167.823C33.1391 168.495 30.9297 169.744 30.9297 170.321C30.9297 171.281 50.3337 218.062 55.3288 229.013C56.1934 230.934 57.8264 234.873 58.883 237.562C60.0357 240.444 61.2845 242.653 61.7648 242.653C62.2451 242.653 65.7993 240.156 69.7378 237.178C83.1861 226.708 97.6911 221.232 118.344 218.927C124.204 218.254 129.199 217.39 129.487 217.102C129.679 216.717 128.142 213.932 125.933 210.666C113.637 193.759 108.162 177.909 107.969 158.985C107.873 152.55 107.777 147.362 107.777 147.458C107.681 147.554 92.696 151.877 74.3486 157.064Z" fill="white"/>
<path d="M518.15 159.273C517.958 178.1 512.29 193.95 500.187 210.857C497.881 214.027 496.344 216.908 496.632 217.293C497.017 217.485 502.012 218.349 507.775 219.118C528.332 221.423 542.933 226.898 556.381 237.369C560.32 240.347 563.874 242.844 564.354 242.844C564.835 242.844 565.987 240.539 567.236 237.753C568.293 234.967 570.022 231.125 570.79 229.204C575.689 218.445 595.19 171.472 595.19 170.512C595.19 169.647 569.253 161.962 528.524 150.723L518.438 147.938L518.15 159.273Z" fill="white"/>
<path d="M308.446 227.569C302.586 248.991 302.586 247.646 307.87 254.562C310.367 257.732 312.769 260.518 313.153 260.518C313.537 260.518 315.939 257.732 318.436 254.562C323.72 247.646 323.72 248.991 317.86 227.569C315.843 220.173 313.729 214.121 313.249 214.121C312.769 214.121 310.463 220.173 308.446 227.569Z" fill="white"/>
<path d="M121.513 223.729C107.681 224.786 95.6732 227.86 86.5475 232.567C78.4785 236.697 64.3578 247.456 64.2617 249.473C64.2617 250.146 66.5672 255.333 69.3529 260.616C77.2298 276.178 92.119 290.491 109.122 299.04C116.422 302.594 116.902 302.69 121.705 300.481C137.459 293.469 158.112 287.897 181.551 284.247C190.58 282.806 199.418 281.365 200.955 281.173C203.356 280.693 202.107 279.54 192.597 273.2C173.674 260.712 161.762 251.01 147.161 236.409C139.38 228.628 133.04 222.48 132.848 222.48C132.848 222.673 127.661 223.153 121.513 223.729Z" fill="white"/>
<path d="M272.905 225.556C273.289 227.478 274.826 235.547 276.267 243.616L278.86 258.217L285.969 261.771C289.811 263.788 293.269 265.229 293.461 264.941C293.654 264.749 294.614 261.098 295.575 257.064L297.208 249.667L286.161 236.699C273.385 221.906 272.136 220.657 272.905 225.556Z" fill="white"/>
<path d="M344.949 231.028C340.818 235.831 335.439 241.979 333.038 244.861L328.715 249.952L330.348 257.348C331.308 261.287 332.269 264.841 332.461 265.129C332.653 265.321 336.111 263.976 339.954 261.959L347.062 258.405L349.656 243.804C351.097 235.735 352.634 227.762 352.826 225.841C353.21 224.016 353.21 222.671 352.922 222.671C352.826 222.479 349.08 226.417 344.949 231.028Z" fill="white"/>
<path d="M478.57 236.696C464.258 251.105 452.346 260.711 433.422 273.199C423.913 279.538 422.664 280.691 425.065 281.171C426.602 281.364 435.44 282.804 444.469 284.245C467.908 287.8 488.657 293.371 504.314 300.479C509.213 302.785 509.694 302.593 516.898 299.039C536.783 289.048 554.554 270.125 560.701 252.354C561.854 248.895 561.662 248.319 558.588 245.533C542.834 231.509 524.679 224.592 499.319 223.248L492.211 222.863L478.57 236.696Z" fill="white"/>
<path d="M240.438 248.126C240.438 248.703 254.846 268.683 259.361 274.446C262.339 278.097 262.819 278.385 270.408 278.385C277.709 278.385 281.167 279.73 279.053 281.747C278.669 282.227 275.595 282.804 272.425 283.188L266.566 283.764L269.544 287.895C271.849 291.257 272.329 292.986 271.849 296.348C271.273 299.998 270.312 301.151 266.47 302.88C263.876 303.937 261.859 305.282 261.859 305.762C261.859 306.242 263.876 307.587 266.47 308.644C270.312 310.469 271.273 311.525 271.849 315.176C272.329 318.538 271.849 320.267 269.544 323.629L266.566 327.76L272.425 328.336C275.595 328.72 278.765 329.297 279.053 329.777C281.071 331.794 277.613 333.139 270.408 333.139C262.819 333.139 262.339 333.331 259.361 337.077C254.943 342.649 240.438 362.821 240.438 363.398C240.438 363.974 249.563 360.516 259.457 356.097C263.78 354.176 268.871 351.774 270.984 351.006C274.347 349.469 274.923 348.508 276.364 341.592C277.709 335.636 278.669 333.619 280.206 333.331C282.223 332.851 282.319 333.427 281.647 339.479C281.263 343.129 281.167 346.107 281.551 346.107C281.935 346.107 284.433 344.954 287.122 343.609C291.253 341.496 292.214 341.304 293.27 342.649C293.943 343.609 295.384 344.282 296.344 344.282C297.401 344.282 298.746 346.587 299.706 350.238L301.339 356.097L305.278 351.967C308.16 348.797 310.081 347.644 313.059 347.644C316.036 347.644 317.958 348.701 320.839 351.967L324.778 356.097L326.411 350.238C327.371 346.587 328.716 344.282 329.773 344.282C330.734 344.282 332.174 343.609 332.847 342.649C333.904 341.304 334.864 341.496 338.995 343.609C341.78 344.954 344.278 346.107 344.566 346.107C344.95 346.107 344.758 343.129 344.47 339.479C343.798 333.427 343.894 332.851 345.911 333.331C347.448 333.523 348.409 335.636 349.753 341.4C351.29 348.508 351.771 349.373 355.709 351.198C366.756 356.481 385.68 364.07 385.68 363.302C385.68 362.725 371.271 342.745 366.756 336.981C363.778 333.331 363.298 333.043 355.709 333.043C348.408 333.043 344.95 331.698 347.064 329.681C347.448 329.2 350.522 328.624 353.692 328.24L359.551 327.664L356.574 323.533C354.268 320.171 353.788 318.442 354.268 315.08C354.844 311.429 355.805 310.277 359.647 308.548C362.241 307.491 364.258 306.146 364.258 305.666C364.258 305.186 362.241 303.841 359.647 302.784C355.805 300.959 354.844 299.902 354.268 296.252C353.788 292.89 354.268 291.161 356.574 287.799L359.551 283.668L353.692 283.092C350.522 282.708 347.352 282.131 347.064 281.651C345.046 279.634 348.505 278.289 355.709 278.289C363.298 278.289 363.778 278.097 366.756 274.35C371.271 268.683 385.68 248.606 385.68 248.03C385.68 247.358 366.756 254.946 355.709 260.134C351.771 261.959 351.29 262.727 349.753 269.932C348.409 275.791 347.448 277.809 345.911 278.001C343.894 278.481 343.798 277.905 344.47 271.853C344.854 268.203 344.95 265.225 344.566 265.225C344.182 265.225 341.684 266.377 338.995 267.722C334.864 269.836 333.904 270.028 332.847 268.683C332.174 267.722 330.734 267.05 329.773 267.05C328.716 267.05 327.371 264.744 326.411 261.094L324.778 255.235L320.839 259.365C317.958 262.535 316.036 263.688 313.059 263.688C310.081 263.688 308.16 262.631 305.278 259.365L301.339 255.235L299.706 261.094C298.746 264.744 297.401 267.05 296.344 267.05C295.384 267.05 293.943 267.722 293.27 268.683C292.214 270.028 291.253 269.836 287.122 267.722C284.337 266.377 281.839 265.225 281.551 265.225C281.167 265.225 281.359 268.203 281.647 271.853C282.319 277.905 282.223 278.481 280.206 278.001C278.669 277.809 277.709 275.695 276.364 269.932C274.827 262.823 274.347 261.959 270.408 260.134C259.361 255.042 240.438 247.454 240.438 248.126Z" fill="white"/>
<path d="M47.3574 263.21C13.0641 293.372 0 305.092 0 305.86C0 306.533 13.0641 318.348 47.3574 348.318C53.4091 353.794 58.8845 358.213 59.2688 358.117C59.7491 358.117 62.2466 353.698 64.7442 348.318C68.5866 340.249 71.2762 336.695 80.2098 327.858C87.03 321.23 94.6187 315.082 100.19 311.816C105.281 308.838 109.508 306.244 109.508 305.86C109.508 305.476 105.377 302.882 100.382 299.904C94.5227 296.542 87.03 290.587 80.3058 283.862C71.3723 275.025 68.6826 271.471 64.8402 263.402C62.3427 258.022 59.8451 253.604 59.3648 253.604C58.8845 253.412 53.4091 257.83 47.3574 263.21Z" fill="white"/>
<path d="M561.371 263.303C557.528 271.372 554.935 274.83 545.905 283.763C539.085 290.584 531.592 296.539 525.829 299.805C520.834 302.783 516.703 305.377 516.703 305.761C516.703 306.145 520.834 308.739 525.829 311.717C531.688 315.079 539.181 321.035 545.905 327.759C554.935 336.692 557.528 340.15 561.371 348.219C563.964 353.599 566.366 358.114 566.846 358.114C567.23 358.114 572.706 353.695 578.758 348.219C613.051 318.249 626.115 306.433 626.115 305.761C626.115 305.089 613.051 293.273 578.758 263.111C572.706 257.731 567.23 253.312 566.846 253.312C566.366 253.409 563.964 257.923 561.371 263.303Z" fill="white"/>
<path d="M230.928 284.148L220.938 284.532L229.775 289.527C234.674 292.313 242.263 296.444 246.585 298.653L254.462 302.688L259.842 300.67C269.736 296.828 269.832 296.54 264.741 289.335L260.226 283.188L250.716 283.38C245.337 283.668 236.499 283.86 230.928 284.148Z" fill="white"/>
<path d="M361.477 289.335C356.386 296.444 356.482 296.828 366.376 300.67L371.756 302.688L379.633 298.653C383.955 296.348 391.544 292.217 396.443 289.527L405.377 284.436H398.844C395.29 284.436 386.453 284.052 379.248 283.764L366.184 283.188L361.477 289.335Z" fill="white"/>
<path d="M107.585 313.447C90.1978 322.765 77.1337 335.637 69.3529 350.91C66.4711 356.29 64.2617 361.381 64.2617 362.053C64.3578 364.359 79.3431 375.501 87.316 379.344C97.5944 384.243 107.296 386.644 121.513 387.701L133.809 388.662L147.545 374.829C161.954 360.42 173.962 350.622 192.789 338.326C202.299 331.986 203.548 330.834 201.147 330.353C199.61 330.161 190.772 328.72 181.743 327.28C158.304 323.725 137.555 318.154 121.897 311.045C116.614 308.74 115.942 308.836 107.585 313.447Z" fill="white"/>
<path d="M243.988 314.216C230.251 321.613 222.279 326.223 222.759 326.608C222.951 326.8 231.404 327.28 241.586 327.664L260.03 328.529L263.584 323.534C269.636 314.984 269.636 315.561 262.72 312.391C259.261 310.758 255.611 309.413 254.651 309.413C253.786 309.317 248.887 311.622 243.988 314.216Z" fill="white"/>
<path d="M363.297 312.293C356.38 315.463 356.38 314.886 362.432 323.436L365.986 328.431L384.43 327.566C394.516 327.182 402.969 326.702 403.258 326.509C404.122 325.645 373.575 309.219 371.27 309.219C370.309 309.315 366.755 310.66 363.297 312.293Z" fill="white"/>
<path d="M504.122 311.047C489.713 317.675 467.908 323.63 444.469 327.281C435.44 328.722 426.602 330.163 425.065 330.355C422.664 330.835 423.913 331.988 433.422 338.328C452.25 350.719 464.258 360.517 478.667 374.83L492.403 388.663L505.179 387.702C526.408 386.165 544.371 378.769 558.78 365.897C561.854 363.111 562.142 362.535 560.894 359.076C554.746 341.305 536.975 322.382 517.09 312.392C509.886 308.837 509.021 308.741 504.122 311.047Z" fill="white"/>
<path d="M285.585 349.851L278.957 353.309L276.364 367.91C274.923 375.979 273.386 384.144 273.001 385.969C272.137 390.868 273.482 389.62 286.354 374.634L297.401 361.666L295.768 354.75C294.903 351.1 294.231 347.642 294.135 346.969C294.038 345.816 292.694 346.105 285.585 349.851Z" fill="white"/>
<path d="M332.079 347.066C331.982 347.643 331.214 351.101 330.446 354.847L328.812 361.763L339.859 374.731C352.731 389.717 353.98 390.965 353.212 386.066C352.827 384.145 351.29 376.076 349.85 368.007L347.256 353.406L340.34 349.852C332.847 346.01 332.079 345.817 332.079 347.066Z" fill="white"/>
<path d="M307.772 356.964C302.489 363.88 302.489 362.535 308.348 383.956C310.366 391.353 312.479 397.405 312.959 397.405C313.44 397.405 315.553 391.353 317.57 383.956C323.43 362.535 323.43 363.88 318.147 356.964C315.649 353.794 313.247 351.008 312.863 351.008C312.479 351.008 310.27 353.794 307.772 356.964Z" fill="white"/>
<path d="M58.883 373.868C57.8264 376.75 56.0973 380.497 55.3288 382.514C50.5258 393.08 30.9297 440.15 30.9297 441.11C30.9297 442.071 56.4815 449.66 97.595 460.995L107.681 463.78L107.873 452.349C108.066 433.522 113.733 417.672 125.837 400.765C128.142 397.595 129.679 394.713 129.391 394.329C129.007 394.137 124.011 393.273 118.248 392.504C97.6911 390.199 83.0901 384.723 69.6417 374.253C65.7033 371.275 62.1491 368.777 61.6688 368.777C61.2845 368.873 60.1318 371.179 58.883 373.868Z" fill="white"/>
<path d="M556.382 374.351C542.934 384.821 528.429 390.297 507.776 392.602C501.917 393.274 496.922 394.139 496.633 394.427C496.441 394.811 497.978 397.597 500.188 400.863C512.291 417.77 517.959 433.62 518.151 452.447L518.343 463.878L528.429 461.093C569.158 449.95 595.094 442.169 595.094 441.304C595.094 440.344 575.594 393.371 570.695 382.612C569.831 380.595 568.198 376.752 567.141 373.967C565.988 371.181 564.74 368.971 564.259 368.971C563.875 368.875 560.321 371.373 556.382 374.351Z" fill="white"/>
<path d="M213.639 379.247C192.122 386.74 170.508 391.255 146.013 393.368L136.599 394.232L131.22 401.533C124.4 410.851 117.291 425.74 114.89 435.73C113.833 440.053 112.969 448.314 112.969 454.27V465.028L120.461 467.334C125.841 468.871 131.604 469.447 141.498 469.447C156.388 469.447 164.361 467.814 179.154 461.666L187.703 458.112L192.602 443.031C199.134 423.05 211.622 397.306 224.398 377.806C225.455 376.269 226.223 374.924 225.935 375.02C225.839 374.924 220.171 376.942 213.639 379.247Z" fill="white"/>
<path d="M401.63 377.802C414.406 397.206 426.989 423.046 433.425 442.931L438.325 458.012L446.874 461.566C461.667 467.618 469.64 469.347 484.529 469.347C494.423 469.347 500.283 468.771 505.758 467.234L513.155 464.928V454.266C513.155 448.31 512.29 439.953 511.234 435.726C508.832 425.736 501.724 410.847 494.904 401.529L489.524 394.229L480.11 393.364C455.711 391.251 434.482 386.736 412.004 379.051C400.093 375.017 399.805 375.017 401.63 377.802Z" fill="white"/>
<path d="M254.178 416.233C236.311 433.523 221.518 444.954 203.362 455.425C197.887 458.499 193.084 461.573 192.796 462.053C190.875 464.647 189.146 485.299 189.722 496.442C190.394 509.218 192.316 516.327 198.367 528.622C202.306 536.595 202.402 536.595 216.234 533.137C230.259 529.487 241.594 522.571 255.235 508.93C265.801 498.46 266.762 497.019 266.089 494.041C262.535 479.728 261.094 446.972 263.015 424.398C263.88 415.368 264.36 407.779 264.072 407.491C263.784 407.299 259.365 411.237 254.178 416.233Z" fill="white"/>
<path d="M362.722 418.247C364.74 443.318 363.299 482.414 359.937 494.71C359.36 497.015 361.282 499.321 370.888 509.023C384.624 522.567 395.863 529.484 409.888 533.23C423.72 536.688 423.816 536.688 427.755 528.715C433.807 516.42 435.728 509.311 436.4 496.535C436.976 485.392 435.247 464.739 433.326 462.146C432.942 461.666 428.235 458.592 422.76 455.518C408.735 447.449 390.772 434.289 380.878 424.971C380.493 424.587 375.979 420.36 370.984 415.461L361.666 406.527L362.722 418.247Z" fill="white"/>
<path d="M307.586 431.599C305.088 438.707 299.228 451.963 294.617 461.089C287.605 475.114 283.571 481.934 273.292 496.823C272.428 497.88 273.196 502.106 275.406 509.407C281.361 529.675 289.814 542.932 303.359 553.882C307.778 557.437 312.196 560.414 312.965 560.414C315.751 560.414 330.736 547.446 335.443 541.01C337.94 537.552 341.591 531.501 343.704 527.562C347.066 520.934 353.502 502.01 353.502 498.744C353.502 497.88 351.485 494.422 348.891 490.963C338.325 476.554 325.357 450.714 317.191 427.852C315.366 422.857 313.541 418.727 313.061 418.727C312.581 418.727 310.179 424.586 307.586 431.599Z" fill="white"/>
<path d="M179.156 467.241C160.713 474.733 139.772 476.847 123.442 473.196C118.927 472.14 114.796 471.275 114.124 471.275C113.548 471.275 113.259 474.061 113.644 477.423C113.836 480.881 114.7 497.691 115.469 514.694C116.141 531.697 117.006 546.97 117.39 548.507C117.87 550.908 118.447 551.101 121.809 550.524C123.922 550.044 131.799 548.603 139.292 547.354C146.784 546.202 154.277 544.857 155.91 544.472C160.04 543.608 162.826 543.128 179.156 540.342C187.033 538.901 194.046 537.556 194.91 537.364C195.871 536.98 195.006 534.002 192.124 527.95C184.536 511.332 182.518 495.77 185.208 475.79C186.073 469.738 186.649 464.647 186.553 464.455C186.265 464.359 183.095 465.511 179.156 467.241Z" fill="white"/>
<path d="M439.858 468.006C444.18 492.694 442.451 509.408 433.902 528.14C431.116 534.095 430.348 536.977 431.308 537.265C432.173 537.458 439.185 538.802 447.062 540.243C463.392 543.125 466.082 543.605 470.309 544.374C471.942 544.758 479.434 546.007 486.927 547.256C494.419 548.6 502.296 550.041 504.41 550.426C507.772 551.002 508.348 550.81 508.828 548.408C509.213 546.871 509.981 531.598 510.75 514.595C511.422 497.593 512.287 480.782 512.575 477.324C512.959 473.866 512.671 471.176 512.094 471.176C511.518 471.176 507.291 472.041 502.777 473.098C486.35 476.94 466.37 474.635 445.525 466.662L439.185 464.164L439.858 468.006Z" fill="white"/>
<path d="M260.131 511.81C250.525 521.608 242.552 527.564 232.754 532.367C224.493 536.401 212.198 540.244 207.202 540.244C204.801 540.244 205.089 540.916 210.757 551.771C233.331 594.421 243.225 611.616 244.474 610.847C245.338 610.367 255.52 603.067 267.336 594.517C279.151 586.064 293.272 575.786 298.747 571.943L308.737 564.835L304.127 561.281C288.565 549.369 278.094 534.288 271.947 515.172C270.122 509.312 268.296 504.605 267.912 504.605C267.432 504.605 263.974 507.775 260.131 511.81Z" fill="white"/>
<path d="M354.267 515.167C348.216 534.378 337.745 549.364 322.087 561.371L317.477 564.925L327.467 572.034C332.942 575.972 347.063 586.059 358.878 594.512C370.694 603.061 380.876 610.362 381.74 610.842C382.893 611.706 392.787 594.416 415.457 551.765C421.125 540.911 421.413 540.238 419.012 540.238C417.571 540.238 413.152 539.374 409.117 538.317C394.228 534.475 382.605 527.462 368.484 514.014C363.009 508.731 358.398 504.504 358.11 504.504C357.822 504.6 355.996 509.307 354.267 515.167Z" fill="white"/>
</svg>
