<svg width="2864" height="4065" viewBox="0 0 2864 4065" fill="none" xmlns="http://www.w3.org/2000/svg">
<path fill-rule="evenodd" clip-rule="evenodd" d="M1431.62 42.6526L1468.58 137.42C1772.26 919.798 2250.96 1580.04 2850.13 2042.55C2250.96 2503.53 1772.26 3165.44 1468.58 3947.69L1431.62 4042.59L1394.66 3947.82C1090.97 3165.44 612.276 2505.2 13.1052 2042.62C612.276 1581.64 1090.97 919.732 1394.66 137.486L1431.62 42.5859V42.6526Z" stroke="white" stroke-width="16" stroke-miterlimit="10"/>
<path fill-rule="evenodd" clip-rule="evenodd" d="M1431.91 442.639L1461.48 518.453C1704.43 1144.36 2087.39 1672.55 2566.72 2042.56C2087.39 2411.35 1704.43 2940.87 1461.48 3566.67L1431.91 3642.59L1402.35 3566.77C1159.4 2940.87 776.442 2412.68 297.105 2042.61C776.442 1673.83 1159.4 1144.3 1402.35 518.506L1431.91 442.586V442.639Z" stroke="white" stroke-width="16" stroke-miterlimit="10"/>
<path fill-rule="evenodd" clip-rule="evenodd" d="M1432.21 842.626L1454.39 899.486C1636.6 1368.91 1923.82 1765.06 2283.32 2042.57C1923.82 2319.16 1636.6 2716.3 1454.39 3185.65L1432.21 3242.59L1410.04 3185.73C1227.83 2716.3 940.608 2320.15 581.105 2042.61C940.608 1766.02 1227.83 1368.87 1410.04 899.526L1432.21 842.586V842.626Z" stroke="white" stroke-width="16" stroke-miterlimit="10"/>
<path fill-rule="evenodd" clip-rule="evenodd" d="M1431.51 1242.61L1446.29 1280.52C1567.77 1593.47 1759.25 1857.57 1998.91 2042.57C1759.25 2226.97 1567.77 2491.73 1446.29 2804.63L1431.51 2842.59L1416.73 2804.68C1295.25 2491.73 1103.77 2227.63 864.105 2042.6C1103.77 1858.21 1295.25 1593.44 1416.73 1280.55L1431.51 1242.59V1242.61Z" fill="white" stroke="white" stroke-width="16" stroke-miterlimit="10"/>
</svg>
