<svg width="2705" height="3600" viewBox="0 0 2705 3600" fill="none" xmlns="http://www.w3.org/2000/svg">
<path d="M1458.88 331.68C1399.9 390.658 1304.27 390.659 1245.3 331.681C1186.32 272.702 1186.32 177.079 1245.3 118.101C1304.27 59.1226 1399.9 59.1231 1458.88 118.101C1517.85 177.08 1517.85 272.702 1458.88 331.68Z" fill="white" stroke="white" stroke-width="16"/>
<path d="M1741.01 741.203C1682.04 800.182 1586.41 800.182 1527.43 741.204C1468.46 682.226 1468.46 586.602 1527.43 527.624C1586.41 468.646 1682.04 468.646 1741.01 527.625C1799.99 586.603 1799.99 682.225 1741.01 741.203Z" fill="white" stroke="white" stroke-width="16"/>
<path d="M1177.39 741.305C1118.41 800.283 1022.79 800.284 963.813 741.306C904.834 682.327 904.834 586.704 963.813 527.726C1022.79 468.748 1118.41 468.748 1177.39 527.726C1236.37 586.705 1236.37 682.327 1177.39 741.305Z" fill="white" stroke="white" stroke-width="16"/>
<path d="M2022.57 1119.14C1963.59 1178.12 1867.97 1178.12 1808.99 1119.14C1750.01 1060.16 1750.01 964.54 1808.99 905.562C1867.97 846.584 1963.59 846.584 2022.57 905.562C2081.55 964.54 2081.55 1060.16 2022.57 1119.14Z" fill="white" stroke="white" stroke-width="16"/>
<path d="M1458.94 1119.24C1399.97 1178.22 1304.34 1178.22 1245.37 1119.24C1186.39 1060.26 1186.39 964.641 1245.37 905.663C1304.34 846.685 1399.97 846.686 1458.94 905.664C1517.92 964.642 1517.92 1060.26 1458.94 1119.24Z" fill="white" stroke="white" stroke-width="16"/>
<path d="M895.314 1119.35C836.336 1178.33 740.713 1178.33 681.735 1119.35C622.756 1060.37 622.756 964.751 681.735 905.772C740.713 846.794 836.336 846.795 895.314 905.773C954.292 964.751 954.292 1060.37 895.314 1119.35Z" fill="white" stroke="white" stroke-width="16"/>
<path d="M2304.59 1528.63C2245.61 1587.61 2149.99 1587.61 2091.01 1528.63C2032.03 1469.66 2032.03 1374.03 2091.01 1315.05C2149.99 1256.08 2245.61 1256.08 2304.59 1315.05C2363.57 1374.03 2363.57 1469.65 2304.59 1528.63Z" fill="white" stroke="white" stroke-width="16"/>
<path d="M1741.02 1528.74C1682.04 1587.72 1586.42 1587.72 1527.44 1528.74C1468.46 1469.76 1468.46 1374.14 1527.44 1315.16C1586.42 1256.19 1682.04 1256.19 1741.02 1315.16C1800 1374.14 1800 1469.76 1741.02 1528.74Z" fill="white" stroke="white" stroke-width="16"/>
<path d="M1177.39 1528.85C1118.41 1587.83 1022.79 1587.83 963.813 1528.85C904.834 1469.87 904.834 1374.25 963.813 1315.27C1022.79 1256.29 1118.41 1256.29 1177.39 1315.27C1236.37 1374.25 1236.37 1469.87 1177.39 1528.85Z" fill="white" stroke="white" stroke-width="16"/>
<path d="M613.766 1528.85C554.788 1587.83 459.165 1587.83 400.187 1528.85C341.208 1469.87 341.208 1374.25 400.187 1315.27C459.165 1256.29 554.788 1256.29 613.766 1315.27C672.744 1374.25 672.744 1469.87 613.766 1528.85Z" fill="white" stroke="white" stroke-width="16"/>
<path d="M2586.14 1906.55C2527.16 1965.53 2431.53 1965.53 2372.56 1906.55C2313.58 1847.57 2313.58 1751.95 2372.56 1692.97C2431.53 1633.99 2527.16 1633.99 2586.14 1692.97C2645.11 1751.95 2645.11 1847.57 2586.14 1906.55Z" fill="white" stroke="white" stroke-width="16"/>
<path d="M2022.5 1906.66C1963.52 1965.64 1867.9 1965.64 1808.92 1906.67C1749.94 1847.69 1749.94 1752.06 1808.92 1693.08C1867.9 1634.11 1963.52 1634.11 2022.5 1693.09C2081.48 1752.06 2081.48 1847.69 2022.5 1906.66Z" fill="white" stroke="white" stroke-width="16"/>
<path fill-rule="evenodd" clip-rule="evenodd" d="M1352.57 1546L1357.29 1558.03C1396.04 1657.35 1457.12 1741.16 1533.58 1799.88C1457.12 1858.4 1396.04 1942.42 1357.29 2041.72L1352.57 2053.77L1347.85 2041.74C1309.1 1942.42 1248.02 1858.61 1171.56 1799.88C1248.02 1741.37 1309.1 1657.34 1347.85 1558.04L1352.57 1545.99V1546Z" fill="white" stroke="white" stroke-miterlimit="10"/>
<path d="M895.309 1906.77C836.331 1965.75 740.708 1965.75 681.73 1906.77C622.751 1847.8 622.751 1752.17 681.73 1693.19C740.708 1634.22 836.331 1634.22 895.309 1693.2C954.287 1752.17 954.287 1847.8 895.309 1906.77Z" fill="white" stroke="white" stroke-width="16"/>
<path d="M331.683 1906.9C272.705 1965.88 177.082 1965.88 118.104 1906.9C59.1255 1847.92 59.1255 1752.3 118.104 1693.32C177.082 1634.34 272.705 1634.34 331.683 1693.32C390.661 1752.3 390.661 1847.92 331.683 1906.9Z" fill="white" stroke="white" stroke-width="16"/>
<path d="M2304.59 2316.17C2245.61 2375.15 2149.99 2375.15 2091.01 2316.17C2032.03 2257.19 2032.03 2161.57 2091.01 2102.59C2149.99 2043.61 2245.61 2043.62 2304.59 2102.59C2363.57 2161.57 2363.57 2257.19 2304.59 2316.17Z" fill="white" stroke="white" stroke-width="16"/>
<path d="M1741.02 2316.27C1682.04 2375.25 1586.42 2375.25 1527.44 2316.27C1468.46 2257.3 1468.46 2161.67 1527.44 2102.69C1586.42 2043.72 1682.04 2043.72 1741.02 2102.7C1800 2161.67 1800 2257.3 1741.02 2316.27Z" fill="white" stroke="white" stroke-width="16"/>
<path d="M1177.39 2316.41C1118.41 2375.38 1022.79 2375.39 963.813 2316.41C904.834 2257.43 904.834 2161.81 963.813 2102.83C1022.79 2043.85 1118.41 2043.85 1177.39 2102.83C1236.37 2161.81 1236.37 2257.43 1177.39 2316.41Z" fill="white" stroke="white" stroke-width="16"/>
<path d="M613.766 2316.41C554.788 2375.38 459.165 2375.39 400.187 2316.41C341.208 2257.43 341.208 2161.81 400.187 2102.83C459.165 2043.85 554.788 2043.85 613.766 2102.83C672.744 2161.81 672.744 2257.43 613.766 2316.41Z" fill="white" stroke="white" stroke-width="16"/>
<path d="M2022.57 2694.21C1963.59 2753.19 1867.97 2753.19 1808.99 2694.21C1750.01 2635.23 1750.01 2539.61 1808.99 2480.63C1867.97 2421.65 1963.59 2421.65 2022.57 2480.63C2081.55 2539.61 2081.55 2635.23 2022.57 2694.21Z" fill="white" stroke="white" stroke-width="16"/>
<path d="M1458.94 2694.32C1399.97 2753.3 1304.34 2753.3 1245.37 2694.32C1186.39 2635.34 1186.39 2539.72 1245.37 2480.74C1304.34 2421.76 1399.97 2421.76 1458.94 2480.74C1517.92 2539.72 1517.92 2635.34 1458.94 2694.32Z" fill="white" stroke="white" stroke-width="16"/>
<path d="M895.314 2694.45C836.336 2753.43 740.713 2753.43 681.735 2694.45C622.756 2635.48 622.756 2539.85 681.735 2480.87C740.713 2421.9 836.336 2421.9 895.314 2480.87C954.292 2539.85 954.292 2635.48 895.314 2694.45Z" fill="white" stroke="white" stroke-width="16"/>
<path d="M1741.01 3103.88C1682.04 3162.85 1586.41 3162.85 1527.43 3103.88C1468.46 3044.9 1468.46 2949.27 1527.43 2890.3C1586.41 2831.32 1682.04 2831.32 1741.01 2890.3C1799.99 2949.27 1799.99 3044.9 1741.01 3103.88Z" fill="white" stroke="white" stroke-width="16"/>
<path d="M1177.39 3103.98C1118.41 3162.96 1022.79 3162.96 963.813 3103.99C904.834 3045.01 904.834 2949.38 963.813 2890.41C1022.79 2831.43 1118.41 2831.43 1177.39 2890.41C1236.37 2949.38 1236.37 3045.01 1177.39 3103.98Z" fill="white" stroke="white" stroke-width="16"/>
<path d="M1458.94 3481.9C1399.96 3540.88 1304.34 3540.88 1245.36 3481.9C1186.38 3422.92 1186.38 3327.3 1245.36 3268.32C1304.34 3209.34 1399.96 3209.34 1458.94 3268.32C1517.92 3327.3 1517.92 3422.92 1458.94 3481.9Z" fill="white" stroke="white" stroke-width="16"/>
</svg>
