<svg width="599" height="531" viewBox="0 0 599 531" fill="none" xmlns="http://www.w3.org/2000/svg">
<path d="M584.929 483.585C567.22 483.585 536.202 408.99 503.366 330.009C463.727 234.673 418.802 126.597 391.849 138.771C375.774 146.034 374.989 181.892 374.158 219.855C373.267 260.49 372.349 302.501 350.129 302.501C326.182 302.501 307.222 273.615 287.147 243.031C274.887 221.324 258.94 201.919 240.022 185.683C186.169 148.005 157.922 228.641 128.024 314.031C103.129 385.123 77.3842 458.638 35.4375 458.638V455.614C76.6552 455.614 102.182 382.724 126.861 312.244C155.755 229.741 185.633 144.444 240.478 182.822C259.559 199.162 275.639 218.71 287.994 240.583C307.876 270.868 326.654 299.475 350.131 299.475C370.972 299.475 371.818 260.739 372.717 219.732C373.538 182.286 374.387 143.566 391.551 135.816C419.319 123.3 462.597 227.364 504.452 328.026C537.07 406.47 567.876 480.564 584.93 480.564L584.929 483.585Z" fill="white"/>
<path d="M584.93 483.507C565.458 483.507 536.787 409.107 506.433 330.337C470.727 237.673 430.254 132.752 401.094 143.723C383.558 150.386 381.691 185.046 379.71 221.741C377.57 261.406 375.359 302.417 351.185 302.417C325.139 302.417 304.485 275.96 282.62 247.947C268.73 227.515 251.327 209.707 231.219 195.351C173.209 161.237 149.912 236.985 125.252 317.215C103.891 386.713 81.8019 458.563 35.4375 458.563V455.536C81.0194 455.536 102.891 384.385 124.042 315.576C148.99 234.381 172.566 157.679 231.61 192.438C251.861 206.875 269.388 224.795 283.372 245.362C305.059 273.143 325.544 299.389 351.185 299.389C374.068 299.389 376.112 261.505 378.275 221.397C380.227 185.218 382.247 147.802 400.837 140.739C430.852 129.295 469.839 230.547 507.551 328.427C537.683 406.618 566.143 480.471 584.93 480.471V483.507Z" fill="white"/>
<path d="M584.919 483.836C563.535 483.836 537.595 409.698 510.136 331.203C477.007 236.514 442.756 138.63 411.166 148.674C392.024 154.785 388.985 188.377 385.761 223.947C382.254 262.693 378.625 302.759 352.329 302.759C323.979 302.759 301.49 278.522 277.676 252.863C261.95 233.637 242.98 217.314 221.624 204.63C159.092 173.688 140.929 245.13 121.712 320.768C104.461 388.683 86.6198 458.909 35.4375 458.909V455.865C85.7563 455.865 103.39 386.456 120.442 319.334C139.926 242.626 158.336 170.178 221.955 201.671C243.438 214.41 262.519 230.821 278.331 250.156C301.983 275.645 324.339 299.718 352.327 299.718C377.437 299.718 380.789 262.634 384.345 223.372C387.515 188.333 390.797 152.1 410.947 145.664C443.405 135.311 477.916 233.978 511.301 329.408C538.538 407.262 564.264 480.8 584.924 480.8L584.919 483.836Z" fill="white"/>
<path d="M584.93 483.307C561.461 483.307 538.656 409.48 514.517 331.315C485.95 238.813 456.414 143.233 422.162 152.362C401.264 157.979 396.947 190.625 392.377 225.184C387.37 263.057 382.19 302.225 353.588 302.225C321.784 297.52 292.836 281.244 272.29 256.517C254.534 238.448 233.866 223.494 211.151 212.281C143.675 184.21 130.904 251.794 117.379 323.361C104.838 389.736 91.8718 458.372 35.4375 458.372V455.336C90.895 455.336 103.677 387.678 116.042 322.245C129.791 249.47 142.772 180.718 211.431 209.31C234.257 220.564 255.024 235.582 272.861 253.735C293.268 278.295 322.006 294.477 353.588 299.191C381.097 299.191 385.899 262.854 390.987 224.376C395.482 190.379 400.13 155.225 421.981 149.355C457.098 139.89 486.914 236.377 515.725 329.661C539.649 407.117 562.24 480.269 584.932 480.269L584.93 483.307Z" fill="white"/>
<path d="M584.93 483.774C559.193 483.774 539.941 410.29 519.553 332.492C495.824 241.944 471.261 148.334 434.147 156.7C411.321 161.858 405.62 193.658 399.584 227.332C392.942 264.384 386.075 302.694 354.957 302.694C321.606 298.964 290.448 284.23 266.404 260.819C246.445 243.884 223.946 230.195 199.731 220.254C126.887 194.775 119.759 258.922 112.226 326.85C105.029 391.737 97.5904 458.831 35.4375 458.831V455.804C96.4467 455.804 103.755 389.902 110.821 326.166C118.513 256.804 125.778 191.317 199.97 217.259C224.275 227.233 246.859 240.97 266.893 257.966C290.808 281.254 321.792 295.921 354.963 299.657C385.082 299.657 391.476 264.008 398.243 226.261C404.164 193.213 410.293 159.039 434 153.685C472.107 145.099 496.865 239.611 520.832 331.028C541.007 408.02 560.063 480.737 584.945 480.737L584.93 483.774Z" fill="white"/>
<path d="M584.925 483.331C556.737 483.331 541.451 410.214 525.275 332.812C506.713 243.987 487.511 152.182 447.207 159.796C422.276 164.534 415.065 195.586 407.43 228.464C399.006 264.733 390.298 302.244 356.442 302.244C321.206 299.25 287.644 285.898 259.979 263.871C237.653 248.056 213.17 235.53 187.282 226.676C153.014 216.595 130.65 221.727 118.918 242.4C108.358 270.085 104.023 299.755 106.222 329.304C105.039 392.766 103.821 458.389 35.4375 458.389V455.36C102.433 455.36 103.625 391.219 104.774 329.194C102.52 298.878 107.034 268.439 117.989 240.081C130.224 218.535 152.306 213.325 187.487 223.679C213.455 232.554 238.012 245.115 260.405 260.978C287.951 282.91 321.365 296.211 356.449 299.21C389.404 299.21 397.921 262.572 406.144 227.134C413.617 194.951 421.346 161.669 447.084 156.784C488.394 148.806 507.834 241.786 526.6 331.582C542.582 408.059 557.679 480.287 584.933 480.287L584.925 483.331Z" fill="white"/>
<path d="M584.938 483.791C554.068 483.791 543.217 411.065 531.728 334.056C518.705 246.779 505.233 156.54 461.465 163.522C434.233 167.87 425.372 198.255 415.992 230.418C405.624 265.961 394.911 302.709 358.073 302.709C320.596 300.266 284.39 288.154 252.986 267.555C228.136 252.83 201.493 241.367 173.714 233.448C135.364 223.935 112.054 229.872 102.454 251.548C95.4126 277.982 94.3484 305.652 99.3384 332.548C104.612 362.981 103.342 394.188 95.6124 424.091C90.8126 435.705 82.3118 445.409 71.4305 451.695C60.5491 457.982 47.8964 460.499 35.4375 458.856V455.827C47.6154 457.49 60.002 455.093 70.6799 449.006C81.3577 442.919 89.7313 433.481 94.5043 422.155C101.888 393.042 103.051 362.699 97.9193 333.105C92.7579 305.326 93.9458 276.738 101.394 249.483C111.469 226.744 134.504 220.692 173.876 230.436C201.722 238.37 228.43 249.858 253.339 264.618C284.635 285.153 320.716 297.234 358.067 299.683C394.097 299.683 404.601 263.666 414.767 228.832C423.923 197.432 433.397 164.965 461.357 160.496C506.287 153.344 519.911 244.736 533.102 333.149C544.427 409.064 555.124 480.765 584.942 480.765L584.938 483.791Z" fill="white"/>
<path d="M584.927 483.276C551.139 483.276 545.19 410.922 538.893 334.314C531.833 248.418 524.535 159.49 476.983 165.996C447.243 169.987 436.583 199.766 425.305 231.298C412.831 266.157 399.923 302.2 359.839 302.2C319.742 300.17 280.614 289.161 245.341 269.985C217.804 256.327 188.805 245.838 158.903 238.719C116.81 229.958 92.7693 236.195 85.408 257.793C81.4346 283.565 83.5319 309.909 91.5332 334.728C100.455 363.337 102.646 393.621 97.9339 423.216C90.6876 446.858 70.2448 458.354 35.4375 458.354V455.324C69.7151 455.324 89.7658 444.281 96.7253 421.568C101.076 392.913 98.8521 363.642 90.2226 335.973C81.8961 310.178 79.8451 282.77 84.24 256.024C92.0338 233.154 115.802 226.702 159.045 235.699C189.003 242.831 218.055 253.341 245.642 267.025C280.822 286.153 319.846 297.141 359.838 299.177C399.204 299.177 411.89 263.745 424.152 229.474C435.135 198.789 446.493 167.058 476.889 162.973C525.735 156.389 533.14 246.595 540.309 333.811C546.499 409.127 552.345 480.259 584.924 480.259L584.927 483.276Z" fill="white"/>
<path d="M584.932 483.664C547.952 483.664 547.419 411.673 546.862 335.449C550.472 286.645 544.928 237.596 530.514 190.829C527.765 183.608 522.652 177.53 516.007 173.585C509.363 169.64 501.578 168.061 493.922 169.105C461.45 172.776 448.829 202.009 435.464 232.961C420.686 267.19 405.403 302.58 361.775 302.58C318.671 300.863 276.303 290.841 236.998 273.064C206.61 260.424 175.047 250.82 142.769 244.39C97.3523 236.428 72.6473 242.58 67.2592 263.182C66.1129 288.952 71.4607 314.596 82.8112 337.76C95.8162 364.809 101.672 394.74 99.8212 424.696C94.4023 447.608 73.3406 458.74 35.4375 458.74V455.711C72.7412 455.711 93.38 445.124 98.5333 423.343C99.9923 394.455 94.1946 365.662 81.6691 339.589C69.7975 315.425 64.3977 288.594 65.9972 261.719C71.7692 239.674 96.1972 233.191 142.887 241.383C175.211 247.823 206.819 257.439 237.252 270.091C276.473 287.839 318.751 297.85 361.765 299.575C404.76 299.575 419.823 264.684 434.392 230.944C447.361 200.901 460.772 169.838 493.838 166.099C501.734 165.06 509.75 166.72 516.585 170.811C523.419 174.901 528.67 181.181 531.486 188.631C546.267 236.07 551.968 285.871 548.291 335.423C548.845 410.105 549.37 480.657 584.93 480.657L584.932 483.664Z" fill="white"/>
<path d="M584.935 483.804C579.005 483.803 573.239 481.854 568.524 478.259C563.808 474.663 560.404 469.618 558.834 463.899C549.926 421.93 548.844 378.676 555.641 336.313C563.155 289.552 561.576 241.78 550.988 195.618C548.462 187.683 543.18 180.913 536.096 176.535C529.013 172.157 520.596 170.459 512.369 171.749C476.915 175.12 462.149 203.859 446.517 234.29C429.234 267.935 411.363 302.721 363.868 302.721C317.365 301.241 271.423 292.1 227.895 275.667C194.465 263.999 160.102 255.203 125.177 249.374C76.7394 242.246 51.32 248.033 47.4547 267.095C49.3503 293.419 58.2299 318.762 73.1786 340.512C90.6938 366.002 100.593 395.951 101.718 426.858C100.26 434.778 95.8376 458.874 35.4375 458.874V455.845C75.4175 455.845 96.6605 446.005 100.375 425.765C98.7951 396.031 89.051 367.308 72.2131 342.751C56.4166 320.121 47.3717 293.47 46.1311 265.9C50.3269 245.229 75.4742 239.008 125.278 246.353C160.242 252.186 194.645 260.99 228.114 272.668C271.572 289.081 317.439 298.213 363.87 299.698C410.796 299.698 428.461 265.317 445.539 232.071C461.37 201.255 476.319 172.149 512.304 168.729C520.809 167.45 529.491 169.255 536.782 173.817C544.072 178.38 549.491 185.399 552.059 193.607C563.023 240.559 564.72 289.199 557.056 336.801C550.409 378.343 551.38 420.748 559.922 461.943C561.448 467.391 564.722 472.186 569.241 475.591C573.76 478.996 579.272 480.821 584.93 480.785L584.935 483.804Z" fill="white"/>
<path d="M585.041 483.568C578.775 483.822 572.62 481.869 567.646 478.05C562.673 474.231 559.197 468.789 557.825 462.67C552.108 420.617 554.683 377.852 565.403 336.788C577.122 291.799 579.621 244.905 572.75 198.926C570.414 190.473 564.993 183.204 557.559 178.553C550.124 173.903 541.216 172.209 532.593 173.806C493.887 176.899 476.783 205.191 458.674 235.149C438.659 268.252 417.965 302.481 366.263 302.481C315.952 301.187 266.072 292.837 218.083 277.676C181.392 266.93 143.965 258.876 106.101 253.58C54.7952 247.228 28.5026 252.587 25.7195 269.95C23.0303 286.784 43.2009 315.284 62.7057 342.84C84.6534 373.85 107.348 405.913 104.016 428.998C101.1 449.213 79.3382 458.627 35.5431 458.627V455.597C77.4299 455.597 100.006 446.352 102.637 428.116C105.663 407.18 83.419 375.749 61.9054 345.359C41.0333 315.875 21.3163 288.011 24.3587 268.983C27.4091 249.878 53.4069 244.02 106.186 250.557C144.084 255.855 181.544 263.915 218.266 274.674C266.197 289.818 316.015 298.161 366.265 299.46C417.468 299.46 437.967 265.557 457.795 232.774C476.092 202.505 493.376 173.92 532.548 170.785C541.491 169.197 550.704 171.024 558.365 175.903C566.026 180.783 571.576 188.36 573.918 197.136C581.177 244.02 578.744 291.894 566.77 337.801C556.31 377.963 553.675 419.762 559.007 460.921C560.362 466.722 563.71 471.864 568.468 475.45C573.226 479.036 579.092 480.837 585.042 480.54L585.041 483.568Z" fill="white"/>
<path d="M584.991 483.598C578.529 484.162 572.087 482.312 566.909 478.405C561.731 474.498 558.185 468.811 556.953 462.443C554.475 419.937 560.949 377.385 575.958 337.541C592.257 294.091 599.038 247.648 595.843 201.352C593.602 192.571 588.03 185.008 580.307 180.267C572.585 175.525 563.319 173.978 554.475 175.952C536.796 178.416 519.997 185.204 505.569 195.713C491.141 206.223 479.528 220.13 471.761 236.202C462.279 255.611 447.663 272.054 429.498 283.745C411.334 295.437 390.315 301.932 368.721 302.524C314.18 301.379 259.97 293.748 207.233 279.791C167.036 269.901 126.262 262.523 85.1479 257.699C31.6587 252.12 3.53553 257.189 1.55589 272.744C-0.538774 289.106 25.7247 317.717 51.1279 345.393C81.0072 377.955 109.231 408.707 106.61 431.415C104.46 450.014 81.8674 458.676 35.5111 458.676V455.647C79.8489 455.647 103.3 447.254 105.212 430.699C107.567 410.316 77.2342 377.26 50.4685 348.095C22.1833 317.265 -2.23329 290.656 0.162686 271.947C1.58019 260.873 11.9417 247.057 85.2127 254.661C126.355 259.49 167.157 266.876 207.382 276.774C260.068 290.717 314.226 298.341 368.714 299.487C390.14 298.899 410.997 292.455 429.02 280.854C447.043 269.253 461.546 252.938 470.954 233.679C478.793 217.463 490.513 203.433 505.075 192.833C519.636 182.233 536.589 175.391 554.429 172.915C563.636 170.958 573.243 172.67 581.207 177.688C589.171 182.705 594.863 190.631 597.073 199.781C600.678 247.088 593.898 294.612 577.208 339.025C562.596 377.925 556.126 419.412 558.198 460.915C559.445 466.923 562.874 472.257 567.822 475.886C572.77 479.515 578.887 481.183 584.992 480.567L584.991 483.598Z" fill="white"/>
<path d="M225.937 530.139C191.435 526.514 158.38 514.352 129.756 494.753C101.702 475.565 69.3608 463.57 35.5801 459.826L35.4375 454.462C69.4528 458.194 102.165 470.254 130.408 489.574C196.684 526.631 265.21 564.951 340.762 431.254C364.321 354.997 376.166 275.605 375.892 195.792C382.628 95.1183 388.981 0.04212 413.651 0C441.353 0 459.087 45.5609 476.196 89.6281C485.216 117.94 498.529 144.699 515.669 168.971C544.766 227.624 558.757 292.614 556.373 358.044C561.183 423.157 565.336 479.394 584.909 479.394L584.927 484.761C563.175 484.761 558.845 426.421 553.855 358.874C556.156 294.845 542.625 231.237 514.462 173.688C496.974 149.029 483.401 121.816 474.224 93.0123C456.727 47.9488 440.191 5.3703 413.696 5.3703C391.24 5.40756 384.982 98.2498 378.414 196.545C378.986 277.543 366.834 358.129 342.402 435.357C301.754 507.29 263.185 530.134 225.937 530.139Z" fill="white"/>
<path d="M203.167 504.643C176.536 502.769 150.534 495.664 126.65 483.735C98.2497 469.705 67.3025 461.571 35.674 459.824H35.4375V454.46H35.6692C67.4685 456.204 98.5847 464.374 127.139 478.477C247.316 528.465 286.105 470.725 331.016 403.882C357.199 333.941 370.844 259.931 371.323 185.252C379.888 90.0072 387.979 0.04698 414.819 0C444.896 0 464.2 41.7069 482.82 82.0465C492.98 108.543 507.532 133.139 525.865 154.801C558.291 185.796 560.029 274.956 561.558 353.615C562.874 421.104 564.009 479.397 584.904 479.397L584.924 484.759C561.584 484.759 560.386 424.084 559.018 353.834C557.515 276.722 555.816 189.312 524.815 159.679C506.142 137.697 491.327 112.712 480.997 85.7839C461.909 44.4285 443.877 5.36868 414.88 5.36868C390.148 5.4108 382.192 93.2521 373.826 186.256C373.385 262.131 359.384 337.315 332.484 408.263C282.385 482.83 241.291 504.636 203.167 504.643Z" fill="white"/>
<path d="M584.904 484.767C578.808 484.767 573.953 480.776 570.472 472.909C561.618 432.074 559.53 390.063 564.291 348.551C567.036 266.832 570.143 174.205 536.089 146.838C516.22 127.351 500.055 104.418 488.38 79.1548C467.556 41.2079 447.88 5.36544 416.173 5.36544C388.957 5.41242 379.133 88.5881 368.809 176.656C367.225 248.051 351.197 318.385 321.693 383.417C226.743 502.268 182.422 490.283 121.079 473.703C93.4448 465.129 64.7481 460.46 35.8214 459.831H35.4375V454.467C64.5987 455.117 93.5296 459.801 121.406 468.386C182.24 484.83 226.199 496.72 320.396 378.81C349.118 314.736 364.74 245.566 366.342 175.367C376.916 85.212 386.901 0.05184 416.107 0C448.768 0 468.856 36.484 490.048 75.1048C501.554 99.9931 517.46 122.599 537.001 141.833C572.817 170.618 569.639 265.348 566.838 348.925C562.421 389.076 564.276 429.669 572.336 469.249C575.359 476.086 579.472 479.403 584.911 479.403L584.904 484.767Z" fill="white"/>
<path d="M584.904 484.756C578.218 484.756 573.127 480.46 569.767 471.987C562.539 429.359 562.567 385.816 569.85 343.197C577.251 257.434 585.643 160.221 548.367 135.027C527.291 117.835 509.665 96.8036 496.421 73.0474C473.707 38.2466 452.249 5.3541 417.591 5.3541C387.681 5.40756 375.796 84.24 363.314 167.699C360.418 235.235 342.163 301.221 309.935 360.641C199.665 476.727 173.408 473.393 109.958 465.309C85.2708 461.792 60.3732 459.96 35.4375 459.826V454.48H36.2588C60.9739 454.622 85.6502 456.456 110.115 459.97C173.081 467.984 199.14 471.297 308.801 355.852C340.203 297.316 358.008 232.455 360.891 166.091C373.661 80.7003 385.72 0.05346 417.493 0C452.98 0 474.859 33.3817 497.92 68.7301C510.987 92.1758 528.366 112.942 549.143 129.935C588.544 156.56 579.942 256.229 572.351 344.164C565.53 385.33 565.317 427.32 571.719 468.553C574.614 475.852 578.926 479.407 584.901 479.407L584.904 484.756Z" fill="white"/>
<path d="M584.82 484.761C550.392 484.761 524.53 456.778 494.586 424.38C470.943 396.219 443.053 371.918 411.921 352.352C408.494 349.959 405.6 346.883 403.423 343.315C401.245 339.748 399.831 335.768 399.27 331.627C396.53 276.233 402.673 220.756 417.467 167.304C431.316 118.874 436.937 68.4636 434.095 18.1732C433.509 14.6006 431.675 11.3516 428.919 9.00411C426.163 6.65658 422.664 5.36266 419.044 5.35248C386.208 5.4108 372.164 80.1965 357.325 159.358C352.901 223.62 332.189 285.698 297.142 339.743C281.17 353.884 267.212 366.389 254.876 377.442C160.633 461.854 160.625 461.88 81.2349 460.334C68.1453 460.082 53.3174 459.824 35.4375 459.824V454.478C53.3385 454.478 68.1615 454.736 81.2608 454.983C160.122 456.477 160.127 456.498 253.885 372.517C266.226 361.464 280.185 348.953 296.167 334.813C330.362 281.553 350.583 220.534 354.961 157.393C370.126 76.4818 384.445 0.05832 419.008 0C427.221 0 433.032 5.11596 436.216 15.2021C439.965 67.1623 434.409 119.374 419.81 169.382C405.46 221.409 399.301 275.354 401.554 329.276C402.029 332.868 403.257 336.32 405.158 339.405C407.059 342.489 409.59 345.138 412.585 347.177C443.905 366.852 471.964 391.292 495.751 419.616C525.397 451.692 551.011 479.407 584.822 479.407L584.82 484.761Z" fill="white"/>
<path d="M584.815 484.753C550.147 484.753 531.441 457.051 509.769 424.988C490.217 390.258 461.377 361.661 426.483 342.405C422.55 340.087 419.183 336.923 416.625 333.142C414.068 329.361 412.384 325.057 411.697 320.545C407.763 268.194 412.491 215.553 425.691 164.741C438.335 117.662 442.717 68.7461 438.643 20.169C437.868 15.9861 435.647 12.2088 432.368 9.49858C429.089 6.78833 424.961 5.31777 420.708 5.34438C384.701 5.40756 368.211 76.4203 350.792 151.604C344.545 213.147 321.129 271.694 283.213 320.57C242.917 349.668 205.594 382.676 171.788 419.113C138.043 455.03 133.718 459.647 35.4375 459.816V454.47C133.104 454.308 137.379 449.754 170.643 414.341C204.542 377.808 241.966 344.71 282.369 315.531C319.441 267.334 342.345 209.758 348.511 149.267C366.287 72.5371 383.077 0.0648 420.667 0C425.472 0.110182 430.126 1.87734 433.777 5.00226C437.428 8.12717 439.887 12.4178 440.737 17.1477C445.692 67.3453 441.396 118.026 428.064 166.674C415.28 216.043 410.508 267.145 413.931 318.027C414.527 322.004 416.016 325.795 418.286 329.114C420.556 332.434 423.548 335.197 427.039 337.195C462.312 356.635 491.465 385.527 511.222 420.625C532.539 452.166 550.956 479.411 584.812 479.411L584.815 484.753Z" fill="white"/>
<path d="M584.809 484.767C548.649 484.767 535.774 456.27 520.869 423.278C514.707 403.669 504.548 385.55 491.032 370.065C477.515 354.579 460.936 342.064 442.339 333.309C437.843 331.079 433.935 327.82 430.934 323.797C427.933 319.774 425.924 315.1 425.069 310.154C419.951 260.67 423.237 210.678 434.789 162.29C446.09 116.562 449.145 69.1845 443.81 22.3835C442.792 17.513 440.11 13.149 436.224 10.0413C432.338 6.93363 427.491 5.27632 422.515 5.3541C383.07 5.42214 363.909 72.9389 343.667 144.425C324.847 210.89 305.389 279.615 268.045 303.023C217.577 328.856 175.981 369.184 148.598 418.828C133.036 447.719 126.597 459.683 35.4375 459.835V454.489C125.639 454.337 131.87 442.769 146.918 414.819C174.504 364.715 216.431 323.995 267.319 297.884C303.713 275.082 322.916 207.266 341.483 141.685C362.107 68.8581 381.583 0.07452 422.467 0C427.988 0.0112685 433.382 1.93748 437.641 5.45009C441.9 8.9627 444.809 13.8441 445.871 19.2618C452.057 67.6285 449.112 116.727 437.189 164.007C426.017 210.952 422.664 259.417 427.264 307.453C428.018 311.88 429.824 316.061 432.531 319.645C435.237 323.228 438.764 326.11 442.816 328.047C461.736 336.956 478.604 349.69 492.356 365.446C506.107 381.202 516.443 399.638 522.711 419.59C537.211 451.688 549.742 479.413 584.81 479.413L584.809 484.767Z" fill="white"/>
<path d="M584.799 484.762C546.337 484.762 538.998 454.941 530.5 420.417C528.909 399.433 521.408 379.329 508.864 362.432C496.32 345.535 479.247 332.536 459.621 324.941C454.498 322.82 449.978 319.467 446.462 315.179C442.946 310.891 440.543 305.802 439.467 300.362C433.155 253.589 434.964 206.076 444.813 159.918C454.634 115.529 456.277 69.7218 449.663 24.7434C448.324 19.1171 445.094 14.1211 440.512 10.5909C435.931 7.06062 430.277 5.21013 424.495 5.34881C381.325 5.41685 359.238 69.6952 335.913 137.742C314.389 200.551 292.13 265.501 251.531 286.905C150.085 340.386 142.132 383.47 136.871 411.982C131.201 442.729 128.071 459.668 35.4375 459.82V454.474C126.336 454.312 129.235 438.598 134.509 410.039C140.286 378.739 148.196 335.864 250.917 281.718C290.607 260.782 312.598 196.643 333.861 134.612C357.573 65.4233 379.971 0.0740855 424.437 0.00118554C430.746 -0.0572557 436.948 2.04653 441.895 5.96248C446.843 9.87843 450.3 15.3704 451.692 21.5245C459.132 68.0009 457.627 115.471 447.256 161.382C437.737 206.109 435.828 252.12 441.609 297.482C442.576 302.424 444.769 307.045 447.987 310.919C451.205 314.793 455.345 317.796 460.026 319.653C480.184 327.512 497.708 340.911 510.576 358.304C523.445 375.697 531.132 396.374 532.752 417.948C541.205 452.278 547.884 479.406 584.794 479.406L584.799 484.762Z" fill="white"/>
<path d="M584.801 484.782C543.358 484.782 541.641 451.804 539.816 416.893C537.775 377.779 535.46 333.443 478.459 317.293C472.625 315.338 467.395 311.906 463.279 307.332C459.163 302.759 456.301 297.198 454.969 291.19C447.456 246.985 447.753 201.805 455.847 157.702C464.067 114.628 464.221 70.4016 456.299 27.2712C454.543 20.8162 450.661 15.142 445.282 11.1658C439.902 7.18964 433.339 5.14382 426.653 5.35908C379.451 5.44332 354.158 66.702 327.483 131.557C303.008 191.048 277.7 252.56 233.542 272.147C173.675 298.715 139.72 327.342 129.746 359.698C126.004 373.982 125.294 388.891 127.659 403.466C129.61 413.755 129.2 424.353 126.46 434.461C120.654 449.612 102.951 459.724 35.4375 459.834V454.488C91.6078 454.392 118.241 447.399 124.492 431.103C126.686 422.424 126.921 413.365 125.181 404.584C122.664 388.654 123.494 372.374 127.619 356.782C137.987 323.174 172.459 293.784 233.022 266.916C276.344 247.697 301.367 186.874 325.568 128.05C352.64 62.2421 378.218 0.0908276 426.574 0.00658757C433.766 -0.139277 440.871 2.14089 446.609 6.47959C452.347 10.8183 456.457 16.9628 458.277 23.9227C466.84 68.4915 466.853 114.282 458.317 158.856C450.501 201.558 450.072 245.285 457.049 288.132C458.301 293.649 460.962 298.747 464.774 302.928C468.585 307.109 473.416 310.229 478.794 311.985C537.762 328.696 540.299 377.271 542.337 416.296C544.179 451.567 545.634 479.433 584.781 479.433L584.801 484.782Z" fill="white"/>
<path d="M584.768 484.783C565.288 484.783 553.969 478.524 549.157 465.088C545.454 447.95 545.553 430.208 549.447 413.112C553.891 392.479 553.895 371.137 549.457 350.502C545.548 339.805 538.768 330.39 529.862 323.29C520.957 316.19 510.268 311.679 498.968 310.252C492.38 308.452 486.385 304.945 481.587 300.086C476.789 295.226 473.359 289.186 471.644 282.576C462.904 240.792 461.65 197.79 467.939 155.568C474.448 113.776 473.033 71.1322 463.767 29.8639C461.473 22.5237 456.822 16.1446 450.536 11.7145C444.25 7.28438 436.678 5.05029 428.994 5.35815C377.413 5.44725 348.668 63.9195 318.319 125.818C290.633 182.291 262.003 240.676 213.945 258.626C150.474 282.321 116.604 309.55 110.406 341.86C108.458 360.088 111.331 378.508 118.736 395.278C124.255 407.051 126.504 420.093 125.247 433.035C121.895 446.886 108.697 459.723 35.4375 459.844V454.498C92.0128 454.403 119.015 447.037 122.989 430.608C123.607 419.518 121.438 408.45 116.68 398.414C108.611 380.021 105.63 359.798 108.051 339.859C114.693 305.225 148.206 277.738 213.503 253.364C260.797 235.706 289.142 177.887 316.556 121.982C347.279 59.309 376.303 0.106109 428.908 0.0170087C437.072 -0.229973 445.176 2.21865 451.809 6.98448C458.442 11.7503 463.321 18.5681 465.692 26.3841C475.582 69.0155 477.196 113.149 470.445 156.389C464.373 197.246 465.461 238.848 473.66 279.331C475.288 285.479 478.513 291.086 483.008 295.584C487.504 300.083 493.11 303.311 499.256 304.942C511.054 306.529 522.184 311.346 531.416 318.862C540.647 326.378 547.622 336.3 551.568 347.531C556.448 369.603 556.558 392.462 551.892 414.58C548.354 430.119 548.112 446.228 551.182 461.866C555.432 473.724 566.572 479.62 584.929 479.441L584.768 484.783Z" fill="white"/>
<path d="M584.752 484.791C564.432 484.791 553.421 478.659 550.107 465.513C548.645 446.365 551.941 427.152 559.702 409.587C568.913 388.187 572.744 364.857 570.86 341.634C566.459 321.961 550.259 309.589 521.327 303.809C476.207 294.786 478.746 223.01 481.203 153.594C485.897 113.014 482.83 71.9109 472.164 32.4768C469.179 24.2147 463.626 17.1258 456.32 12.2486C449.013 7.37134 440.337 4.96222 431.562 5.37418C375.249 5.46976 342.714 61.342 308.378 120.491C277.188 174.23 244.934 229.793 192.605 246.233C126.767 266.92 92.7223 292.079 88.5281 323.161C88.665 346.358 96.0111 368.938 109.549 387.775C119.403 400.788 124.902 416.577 125.263 432.895C122.96 446.158 110.486 459.736 35.4375 459.862V454.516C92.3351 454.42 120.12 446.965 122.883 431.057C121.591 416.861 116.411 403.296 107.911 391.853C93.2971 371.419 85.6462 346.825 86.09 321.707C90.6487 287.93 124.372 262.272 192.231 240.955C243.87 224.725 275.847 169.636 306.773 116.36C341.468 56.5824 374.239 0.133478 431.453 0.0330383C440.678 -0.327744 449.887 2.27407 457.527 7.45761C465.167 12.6411 470.948 20.1342 474.022 28.8399C485.298 69.5407 488.594 112.038 483.73 153.991C481.26 223.917 478.922 289.964 521.569 298.495C551.469 304.475 568.341 317.841 573.156 339.366C575.511 364.338 571.609 389.504 561.803 412.59C554.827 428.452 551.591 445.705 552.347 463.016C555.138 474.081 565.736 479.461 584.747 479.461H584.925V484.807L584.752 484.791Z" fill="white"/>
<path d="M584.728 484.774C563.862 484.774 553.063 479 550.743 466.61C551.59 445.055 558.5 424.176 570.679 406.372C585.226 384.268 593.491 358.626 594.59 332.187C591.64 314.35 575.188 302.797 545.689 297.843C496.815 289.64 496.253 219.521 495.712 151.719C495.106 76.3895 494.549 5.24881 434.226 5.34439C372.781 5.44969 336.25 58.9145 297.575 115.524C270.321 169.237 224.877 211.525 169.345 234.848C102.154 252.618 66.5545 276.396 63.5364 305.526C66.6043 334.011 79.3871 360.571 99.7353 380.741C115.773 401.685 128.458 418.224 126.446 433.123C124.674 446.265 112.477 459.711 35.4375 459.842V454.496C56.5882 454.465 120.951 454.353 124.013 431.664C125.5 420.648 111.727 402.666 98.4037 385.277C76.6439 363.674 63.3892 334.96 61.0643 304.387C64.4274 271.92 98.7358 248.14 169.034 229.543C224.078 206.357 269.114 164.399 296.133 111.132C335.144 54.0335 371.991 0.1053 434.228 0C496.922 0 497.651 77.0764 498.247 151.624C498.796 220.066 499.316 284.705 545.896 292.525C576.918 297.732 593.63 310.131 596.99 330.433C596.704 358.868 588.165 386.608 572.411 410.281C561.629 426.555 555 445.225 553.107 464.655C554.941 474.462 565.581 479.433 584.734 479.433H584.929V484.779L584.728 484.774Z" fill="white"/>
</svg>
