<svg width="616" height="600" viewBox="0 0 616 600" fill="none" xmlns="http://www.w3.org/2000/svg">
<path fill-rule="evenodd" clip-rule="evenodd" d="M91.3728 450.252C83.4996 464.686 87.4369 477.808 88.7491 483.057L6.07985 340.027C-3.10555 325.592 -0.480826 317.72 4.76797 308.534L46.7577 235.051L2.14261 208.807H145.173L217.344 333.466L172.729 307.222L91.3728 450.252Z" fill="white"/>
<path fill-rule="evenodd" clip-rule="evenodd" d="M168.794 547.355C104.497 540.794 92.6868 475.184 103.184 455.501L133.364 403.013H290.828V548.667H170.106L168.794 547.355Z" fill="white"/>
<path fill-rule="evenodd" clip-rule="evenodd" d="M562.454 403.013C579.512 403.013 588.697 392.515 592.633 388.578L511.277 531.608C504.716 547.355 495.531 549.979 485.033 548.667H401.052V599.843L330.193 476.496L402.364 351.837V403.013H562.454Z" fill="white"/>
<path fill-rule="evenodd" clip-rule="evenodd" d="M608.381 287.539C634.625 345.276 584.761 388.579 561.142 389.891H499.467L420.735 253.422L546.706 181.251L607.069 284.915L608.381 287.539Z" fill="white"/>
<path fill-rule="evenodd" clip-rule="evenodd" d="M285.58 18.5375C276.394 4.10332 264.584 1.4794 259.336 0.167203H423.361C440.419 -1.145 446.98 5.41568 450.917 14.6011L492.906 88.0848L537.521 61.8408L466.662 185.187H323.632L366.935 158.943L285.58 18.5375Z" fill="white"/>
<path fill-rule="evenodd" clip-rule="evenodd" d="M163.544 36.9087C201.598 -14.2671 263.272 6.72822 275.081 26.4112L305.263 78.8992L226.531 215.368L100.558 143.197L160.921 39.5332L163.544 36.9087Z" fill="white"/>
</svg>
