<svg width="800" height="800" viewBox="0 0 800 800" fill="none" xmlns="http://www.w3.org/2000/svg">
<path d="M792.761 449.764C795.19 433.264 796.476 416.616 796.61 399.939C797.454 347.722 787.586 295.886 767.615 247.632C747.643 199.378 717.993 155.729 680.495 119.381C644.167 81.9008 600.557 52.2468 552.346 32.2416C504.135 12.2365 452.342 2.30307 400.151 3.05195C347.848 2.18972 295.926 12.0688 247.594 32.0781C199.263 52.0873 155.552 81.801 119.165 119.381C81.6666 155.729 52.0165 199.378 32.0454 247.632C12.0743 295.886 2.20608 347.722 3.04989 399.939C3.05936 417.032 4.20235 434.105 6.47133 451.047C59.1523 432.568 113.207 418.267 168.134 408.279H169.204C171.269 346.282 196.35 287.276 239.557 242.767C259.896 221.717 284.341 205.067 311.376 193.849C338.412 182.63 367.462 177.081 396.729 177.545C425.961 177.11 454.971 182.674 481.967 193.891C508.964 205.109 533.373 221.744 553.688 242.767C574.803 263.112 591.507 287.583 602.764 314.658C614.021 341.734 619.589 370.835 619.123 400.153V405.499L634.092 408.279C687.968 418.014 741.015 431.883 792.761 449.764ZM751.49 582.772C758.832 569.886 764.988 556.358 769.88 542.356L746.358 538.08C692.687 529.31 638.432 524.593 584.053 523.966H562.669C496.415 524.662 430.302 530.237 364.867 540.646L311.621 549.841C229.276 565.846 148.596 589.47 70.6233 620.408C90.9426 651.013 115.493 678.587 143.543 702.309C191.663 680.278 240.997 661.001 291.306 644.572L304.778 640.295C324.238 633.666 341.345 628.748 356.741 624.685C457.583 597.191 561.448 582.323 665.954 580.42H678.357C692.042 580.42 711.502 580.42 737.163 582.344L751.49 582.772Z" fill="white"/>
<path d="M769.236 506.508L780.783 509.288L788.268 477.212C732.369 459.151 675.181 445.355 617.196 435.941C544.897 423.95 471.724 418.013 398.438 418.192C325.009 417.998 251.692 423.935 179.252 435.941C121.27 445.372 64.0834 459.168 8.17969 477.212C13.6685 504.183 21.6137 530.596 31.9159 556.119C135.433 517.526 243.557 492.652 353.531 482.13C379.834 479.564 399.293 477.854 412.551 477.212H426.878C448.262 477.212 469.646 475.929 491.03 475.929H496.59C530.377 475.929 566.944 477.212 606.718 480.42C661.614 485.443 716.072 494.448 769.664 507.363M266.498 755.632L245.114 766.751C294.011 786.887 346.413 797.134 399.293 796.903C463.945 797.171 527.661 781.46 584.777 751.167C641.893 720.874 690.639 676.938 726.682 623.265C650.655 628.517 575.394 641.777 502.15 662.825C420.952 686.07 342.181 717.077 266.926 755.418" fill="white"/>
</svg>
