<svg width="600" height="600" viewBox="0 0 600 600" fill="none" xmlns="http://www.w3.org/2000/svg">
<g clip-path="url(#clip0_1109_507)">
<path d="M386.149 299.866C381.303 310.47 374.414 316.683 368.433 314.821C360.969 312.492 355.439 307.848 355.931 300.933C356.458 293.483 361.428 286.531 368.154 285.031C374.2 283.687 381.201 289.458 386.149 299.866Z" fill="white"/>
<path d="M264.45 350.868C257.832 363.717 252.901 367.58 246.021 365.691C239.561 363.917 234.168 357.332 234.038 351.057C233.887 343.925 238.923 337.675 247.118 336.767C256.665 335.712 260.994 342.525 264.45 350.868Z" fill="white"/>
<path d="M81.9282 99.2303C87.5382 86.9283 92.4599 82.6066 99.2188 84.045C106.368 85.5675 112.158 92.465 112.014 99.2942C111.912 104.286 104.786 112.943 99.8708 114.053C93.8732 115.407 86.8977 109.647 81.9282 99.2303Z" fill="white"/>
<path d="M427.232 301.594C427.054 292.34 434.103 284.797 442.603 285.146C448.94 285.406 456.867 294.179 456.8 300.865C456.746 306.299 448.095 315.104 442.708 315.209C435.021 315.357 427.369 308.626 427.232 301.594Z" fill="white"/>
<path d="M335.659 350.435C335.755 342.933 342.655 335.657 349.697 335.635C356.28 335.612 363.75 343.651 363.773 350.783C363.798 357.742 357.301 365.773 351.436 366.037C342.874 366.42 335.547 359.176 335.659 350.435Z" fill="white"/>
<path d="M516.163 97.6804C516.38 103.21 507.414 114.067 502.46 114.268C496.233 114.525 485.883 105.257 485.772 99.3261C485.637 92.1733 494.124 83.7076 501.259 83.874C506.115 83.9858 515.983 93.1308 516.163 97.6804Z" fill="white"/>
<path d="M148.259 162.821C140.354 163.018 132.724 156.542 132.788 149.687C132.863 141.564 139.506 135.074 148.134 134.696C155.789 134.361 162.981 141.899 162.844 150.118C162.742 156.387 155.563 162.639 148.259 162.821Z" fill="white"/>
<path d="M312.98 157.446C313.03 165.49 306.656 172.978 299.886 172.832C291.992 172.661 284.692 165.132 284.868 157.348C285.027 150.273 292.737 142.243 299.156 142.459C306.335 142.703 312.934 149.858 312.98 157.446Z" fill="white"/>
<path d="M142.433 300.534C142.271 292.287 149.333 284.56 156.785 284.833C163.599 285.084 170.123 292.378 170.579 300.26C170.989 307.354 163.797 315.033 156.63 315.152C149.639 315.27 142.581 308.003 142.433 300.534Z" fill="white"/>
<path d="M312.98 229.232C312.872 236.528 306.781 243.77 300.538 244.023C292.862 244.337 285.123 237.002 284.872 229.179C284.642 221.974 291.649 213.992 298.507 213.652C305.924 213.283 313.1 221.01 312.98 229.232Z" fill="white"/>
<path d="M28.1646 300.985C28.249 307.611 21.6724 314.527 14.763 315.081C7.4341 315.674 -0.0656514 307.917 0.000433569 299.814C0.0642161 292.248 6.7161 285.061 13.8694 284.831C20.9885 284.599 28.0597 292.59 28.1646 300.985Z" fill="white"/>
<path d="M71.2144 299.996C71.2258 292.351 77.6314 285.255 84.885 284.852C91.9153 284.46 99.2008 292.474 99.3877 300.805C99.5496 307.867 91.8446 315.476 84.8988 315.115C77.6337 314.737 71.2053 307.632 71.2144 299.996Z" fill="white"/>
<path d="M241.784 300.449C241.668 307.926 234.678 315.209 227.657 315.165C221.106 315.129 213.795 308.049 213.658 301.61C213.476 293.137 219.957 285.189 227.329 284.84C234.745 284.491 241.909 292.23 241.784 300.449Z" fill="white"/>
<path d="M526.61 300.443C526.457 309.561 521.062 315.514 513.229 315.207C505.387 314.899 498.118 307.113 498.48 299.412C498.82 292.239 505.93 285.385 513.272 285.15C520.061 284.934 526.74 292.593 526.61 300.443Z" fill="white"/>
<path d="M248.087 236.262C256.719 236.262 263.073 241.844 263.469 249.778C263.884 258.046 257.207 264.387 248.066 264.417C241.043 264.435 234.286 257.984 234.008 250.991C233.703 243.369 240.496 236.264 248.087 236.262Z" fill="white"/>
<path d="M584.858 284.817C595.959 290.475 601.225 297.183 599.759 303.313C598.307 309.382 591.421 315.022 585.236 315.206C578.888 315.396 573.54 311.204 571.846 304.705C569.503 295.718 572.334 291.245 584.858 284.817Z" fill="white"/>
<path d="M96.3261 516.161C88.7602 516.024 81.4063 508.856 81.6228 501.828C81.8371 494.988 90.014 487.776 97.2494 488.045C104.54 488.316 112.411 496.221 111.893 502.749C111.299 510.23 104.252 516.302 96.3261 516.161Z" fill="white"/>
<path d="M501.305 516.161C493.479 516.243 486.367 509.986 485.879 502.594C485.455 496.153 493.511 488.239 500.691 488.043C507.952 487.844 516.095 495.175 516.174 501.983C516.261 509.072 508.907 516.082 501.305 516.161Z" fill="white"/>
<path d="M211.349 199.396C211.383 209.752 207.777 213.684 198.289 213.634C190.687 213.597 183.438 206.845 183.308 199.681C183.18 192.624 190.466 185.57 198.002 185.453C207.674 185.303 211.317 189.105 211.349 199.396Z" fill="white"/>
<path d="M437.278 148.172C437.408 139.129 442.081 134.671 451.437 134.673C458.528 134.673 465.185 141.83 465.381 149.671C465.552 156.496 458.027 162.89 449.93 162.805C440.748 162.705 437.128 158.52 437.278 148.172Z" fill="white"/>
<path d="M363.805 249.867C364.047 257.455 357.317 264.43 349.765 264.421C341.005 264.415 336.094 259.53 335.657 250.382C335.226 241.381 339.854 236.558 349.188 236.282C357.739 236.027 363.538 241.417 363.805 249.867Z" fill="white"/>
<path d="M312.982 86.0513C313.082 94.2139 306.754 101.763 299.929 101.626C291.991 101.464 284.612 93.8241 284.87 86.0307C285.112 78.6956 291.319 72.3839 298.516 72.1583C306.645 71.903 312.882 77.891 312.982 86.0513Z" fill="white"/>
<path d="M312.986 586.002C314.516 595.619 307.461 599.394 299.334 599.975C292.425 600.47 284.877 593.511 284.872 587.153C284.866 578.879 291.675 571.936 299.845 571.881C309.469 571.822 312.998 575.613 312.986 586.002Z" fill="white"/>
<path d="M132.786 452.554C138.188 440.043 142.506 436.14 149.607 437.346C156.509 438.513 162.632 445.349 162.846 452.126C163.011 457.293 156.849 464.264 151.218 465.285C141.817 466.988 138.503 464.697 132.786 452.554Z" fill="white"/>
<path d="M312.982 514.757C314.384 523.437 309.271 527.914 299.389 528.755C291.773 529.402 284.526 521.242 284.882 513.111C285.155 506.816 292.456 500.718 299.79 500.663C309.382 500.591 312.986 504.438 312.982 514.757Z" fill="white"/>
<path d="M298.819 28.1263C288.885 29.3755 285.985 23.016 285.018 15.7515C284.015 8.23174 291.775 0.381335 299.603 0.00992854C306.373 -0.309302 312.954 7.11936 312.98 15.1064C313.009 24.5796 309.109 28.1651 298.819 28.1263Z" fill="white"/>
<path d="M312.98 370.689C313.151 380.186 308.3 386.21 300.342 386.379C292.368 386.55 284.77 379.03 284.87 371.066C284.964 363.585 290.542 358.611 299.19 358.287C308.345 357.95 312.82 361.973 312.98 370.689Z" fill="white"/>
<path d="M211.347 400.887C211.287 410.802 207.602 414.482 197.667 414.534C188.362 414.582 183.003 409.658 183.249 401.288C183.463 393.967 190.297 387.247 197.936 386.841C206.439 386.39 211.402 391.589 211.347 400.887Z" fill="white"/>
<path d="M452.018 437.2C459.084 437.462 465.732 445.313 465.376 452.978C465.062 459.759 457.085 465.786 448.984 465.367C440.583 464.929 436.701 460.113 437.287 450.854C437.855 441.937 443.31 436.881 452.018 437.2Z" fill="white"/>
<path d="M312.982 443.215C313.053 453.297 308.589 457.765 298.591 457.619C291.583 457.519 284.936 450.184 284.87 442.479C284.818 436.168 292.265 429.375 299.131 429.471C308.365 429.598 312.92 434.121 312.982 443.215Z" fill="white"/>
<path d="M400.42 185.456C408.033 185.383 414.799 192.282 414.621 199.941C414.46 206.943 407.862 213.51 400.878 213.627C392.309 213.77 386.558 208.25 386.448 199.77C386.336 191.227 391.887 185.538 400.42 185.456Z" fill="white"/>
<path d="M386.444 401.195C386.569 392.998 392.908 387.062 401.122 387.455C409.506 387.854 414.902 393.83 414.628 402.417C414.339 411.45 410.024 414.862 399.303 414.536C390.068 414.251 386.3 410.347 386.444 401.195Z" fill="white"/>
<path fill-rule="evenodd" clip-rule="evenodd" d="M300.5 270.001L301.061 271.423C305.663 283.158 312.918 293.062 322 300C312.918 306.915 305.663 316.843 301.061 328.576L300.5 330L299.939 328.579C295.337 316.843 288.082 306.94 279 300C288.082 293.086 295.337 283.157 299.939 271.424L300.5 270V270.001Z" fill="#CDA55F" stroke="#CDA55F" stroke-miterlimit="10"/>
</g>
<defs>
<clipPath id="clip0_1109_507">
<rect width="600" height="600" fill="white"/>
</clipPath>
</defs>
</svg>
