<svg width="3616" height="3616" viewBox="0 0 3616 3616" fill="none" xmlns="http://www.w3.org/2000/svg">
<path d="M2151.4 2921.19C2955.86 2921.19 3608 2269.05 3608 1464.6C3608 660.14 2955.86 8 2151.4 8C1346.95 8 694.809 660.14 694.809 1464.6C694.809 2269.05 1346.95 2921.19 2151.4 2921.19Z" stroke="white" stroke-width="16" stroke-linecap="round" stroke-linejoin="round"/>
<path d="M1464.6 3607.83C2269.05 3607.83 2921.19 2955.69 2921.19 2151.24C2921.19 1346.78 2269.05 694.641 1464.6 694.641C660.14 694.641 8 1346.78 8 2151.24C8 2955.69 660.14 3607.83 1464.6 3607.83Z" stroke="white" stroke-width="16" stroke-linecap="round" stroke-linejoin="round"/>
<path d="M2151.39 3607.83C2955.85 3607.83 3607.99 2955.69 3607.99 2151.24C3607.99 1346.78 2955.85 694.641 2151.39 694.641C1346.94 694.641 694.799 1346.78 694.799 2151.24C694.799 2955.69 1346.94 3607.83 2151.39 3607.83Z" stroke="white" stroke-width="16" stroke-linecap="round" stroke-linejoin="round"/>
<path d="M1464.7 2921.26C2269.16 2921.26 2921.3 2269.12 2921.3 1464.67C2921.3 660.21 2269.16 8.07031 1464.7 8.07031C660.244 8.07031 8.104 660.21 8.104 1464.67C8.104 2269.12 660.244 2921.26 1464.7 2921.26Z" stroke="white" stroke-width="16" stroke-linecap="round" stroke-linejoin="round"/>
</svg>
